<?xml version="1.0" standalone="no"?><!DOCTYPE svg PUBLIC "-//W3C//DTD SVG 1.1//EN" "http://www.w3.org/Graphics/SVG/1.1/DTD/svg11.dtd" ><svg version="1.1" xmlns="http://www.w3.org/2000/svg"><defs><font horiz-adv-x="0" id="font"><font-face ascent="790" bbox="-169 -207 1227 982" cap-height="680" descent="-210" font-family="FC BARCELONA" font-stretch="normal" font-style="normal" font-weight="400" units-per-em="1000" x-height="508" /><missing-glyph d="M0 0V680H500V0ZM60 620V60H440V620Z" horiz-adv-x="500" /><glyph d="M33 0V46L220 680H353L540 46V0H475L424 175Q390 167 355 163Q320 159 283 159Q248 159 213.5 163Q179 167 146 174L96 0ZM231 467 166 242Q194 235 223.5 231.5Q253 228 283 228Q314 228 345 232Q376 236 404 243L339 467Q321 527 310.5 570.5Q300 614 300 614H272Q272 614 260.5 570.5Q249 527 231 467Z" glyph-name="A" horiz-adv-x="573" unicode="A" /><glyph d="M11 0V46L278 680H769L759 613H459V377H723V310H459V67H759V0H386V171H142L70 0ZM266 467 170 238H386V613H326Q326 613 321 601Q316 589 307.5 569Q299 549 288.5 522.5Q278 496 266 467Z" glyph-name="AE" horiz-adv-x="812" unicode="&#198;" /><glyph d="M583 882V824L405 734V794L537 882ZM11 0V46L278 680H769L759 613H459V377H723V310H459V67H759V0H386V171H142L70 0ZM266 467 170 238H386V613H326Q326 613 321 601Q316 589 307.5 569Q299 549 288.5 522.5Q278 496 266 467Z" glyph-name="AEacute" horiz-adv-x="812" unicode="&#508;" /><glyph d="M405 882V824L227 734V794L359 882ZM33 0V46L220 680H353L540 46V0H475L424 175Q390 167 355 163Q320 159 283 159Q248 159 213.5 163Q179 167 146 174L96 0ZM231 467 166 242Q194 235 223.5 231.5Q253 228 283 228Q314 228 345 232Q376 236 404 243L339 467Q321 527 310.5 570.5Q300 614 300 614H272Q272 614 260.5 570.5Q249 527 231 467Z" glyph-name="Aacute" horiz-adv-x="573" unicode="&#193;" /><glyph d="M154 875H209Q209 875 211 865.5Q213 856 220.5 845Q228 834 243.5 824.5Q259 815 286 815Q313 815 328.5 824.5Q344 834 351.5 845Q359 856 361 865.5Q363 875 363 875H418V831Q418 831 412 819Q406 807 391 793Q376 779 350.5 767Q325 755 286 755Q247 755 221.5 767Q196 779 181 793Q166 807 160 819Q154 831 154 831ZM33 0V46L220 680H353L540 46V0H475L424 175Q390 167 355 163Q320 159 283 159Q248 159 213.5 163Q179 167 146 174L96 0ZM231 467 166 242Q194 235 223.5 231.5Q253 228 283 228Q314 228 345 232Q376 236 404 243L339 467Q321 527 310.5 570.5Q300 614 300 614H272Q272 614 260.5 570.5Q249 527 231 467Z" glyph-name="Abreve" horiz-adv-x="573" unicode="&#258;" /><glyph d="M160 740V770L257 867H315L412 770V740H360L328 773Q311 790 299.5 802.5Q288 815 288 815H284Q284 815 272.5 802.5Q261 790 244 773L212 740ZM33 0V46L220 680H353L540 46V0H475L424 175Q390 167 355 163Q320 159 283 159Q248 159 213.5 163Q179 167 146 174L96 0ZM231 467 166 242Q194 235 223.5 231.5Q253 228 283 228Q314 228 345 232Q376 236 404 243L339 467Q321 527 310.5 570.5Q300 614 300 614H272Q272 614 260.5 570.5Q249 527 231 467Z" glyph-name="Acircumflex" horiz-adv-x="573" unicode="&#194;" /><glyph d="M168 794Q168 814 179.5 827Q191 840 216 840Q241 840 253 827Q265 814 265 794V788Q265 768 253 755.5Q241 743 216 743Q191 743 179.5 755.5Q168 768 168 788ZM308 794Q308 814 320 827Q332 840 357 840Q382 840 393.5 827Q405 814 405 794V788Q405 768 393.5 755.5Q382 743 357 743Q332 743 320 755.5Q308 768 308 788ZM33 0V46L220 680H353L540 46V0H475L424 175Q390 167 355 163Q320 159 283 159Q248 159 213.5 163Q179 167 146 174L96 0ZM231 467 166 242Q194 235 223.5 231.5Q253 228 283 228Q314 228 345 232Q376 236 404 243L339 467Q321 527 310.5 570.5Q300 614 300 614H272Q272 614 260.5 570.5Q249 527 231 467Z" glyph-name="Adieresis" horiz-adv-x="573" unicode="&#196;" /><glyph d="M169 882H215L347 794V734L169 824ZM33 0V46L220 680H353L540 46V0H475L424 175Q390 167 355 163Q320 159 283 159Q248 159 213.5 163Q179 167 146 174L96 0ZM231 467 166 242Q194 235 223.5 231.5Q253 228 283 228Q314 228 345 232Q376 236 404 243L339 467Q321 527 310.5 570.5Q300 614 300 614H272Q272 614 260.5 570.5Q249 527 231 467Z" glyph-name="Agrave" horiz-adv-x="573" unicode="&#192;" /><glyph d="M146 852H425V788H146ZM33 0V46L220 680H353L540 46V0H475L424 175Q390 167 355 163Q320 159 283 159Q248 159 213.5 163Q179 167 146 174L96 0ZM231 467 166 242Q194 235 223.5 231.5Q253 228 283 228Q314 228 345 232Q376 236 404 243L339 467Q321 527 310.5 570.5Q300 614 300 614H272Q272 614 260.5 570.5Q249 527 231 467Z" glyph-name="Amacron" horiz-adv-x="573" unicode="&#256;" /><glyph d="M33 0V46L220 680H353L540 46V0L498 -46Q484 -61 477.5 -71.5Q471 -82 471 -94Q471 -107 481.5 -116.5Q492 -126 509 -126H526V-181H506Q461 -181 435.5 -158.5Q410 -136 410 -99Q410 -71 423.5 -49Q437 -27 459 -3L472 11L424 175Q390 167 355 163Q320 159 283 159Q248 159 213.5 163Q179 167 146 174L96 0ZM231 467 166 242Q194 235 223.5 231.5Q253 228 283 228Q314 228 345 232Q376 236 404 243L339 467Q321 527 310.5 570.5Q300 614 300 614H272Q272 614 260.5 570.5Q249 527 231 467Z" glyph-name="Aogonek" horiz-adv-x="573" unicode="&#260;" /><glyph d="M33 0V46L213 656Q198 670 189.5 690Q181 710 181 735Q181 782 210.5 811Q240 840 286 840Q332 840 361.5 811Q391 782 391 735Q391 710 382.5 690Q374 670 360 657L540 46V0H475L424 175Q390 167 355 163Q320 159 283 159Q248 159 213.5 163Q179 167 146 174L96 0ZM235 735Q235 713 248 697.5Q261 682 286 682Q311 682 324 697.5Q337 713 337 735Q337 757 324 772.5Q311 788 286 788Q261 788 248 772.5Q235 757 235 735ZM231 467 166 242Q194 235 223.5 231.5Q253 228 283 228Q314 228 345 232Q376 236 404 243L339 467Q321 527 310.5 570.5Q300 614 300 614H272Q272 614 260.5 570.5Q249 527 231 467Z" glyph-name="Aring" horiz-adv-x="573" unicode="&#197;" /><glyph d="M383 982V924L205 834V895L337 982ZM33 0V46L213 657Q199 670 190.5 690Q182 710 182 735Q182 782 211.5 811Q241 840 287 840Q333 840 362.5 811Q392 782 392 735Q392 710 383.5 690Q375 670 360 656L540 46V0H475L424 175Q390 167 355 163Q320 159 283 159Q248 159 213.5 163Q179 167 146 174L96 0ZM236 735Q236 713 249 697.5Q262 682 287 682Q312 682 325 697.5Q338 713 338 735Q338 757 325 772.5Q312 788 287 788Q262 788 249 772.5Q236 757 236 735ZM231 467 166 242Q194 235 223.5 231.5Q253 228 283 228Q314 228 345 232Q376 236 404 243L339 467Q321 527 310.5 570.5Q300 614 300 614H272Q272 614 260.5 570.5Q249 527 231 467Z" glyph-name="Aringacute" horiz-adv-x="573" unicode="&#506;" /><glyph d="M115 752V797Q115 797 119.5 804Q124 811 134.5 819.5Q145 828 161.5 835Q178 842 203 842Q223 842 246 837Q269 832 286 826L307 817Q322 812 336 808.5Q350 805 363 805Q393 805 401 819Q409 833 409 833H456V787Q456 787 451.5 780Q447 773 436.5 764.5Q426 756 409.5 749Q393 742 368 742Q348 742 325 747Q302 752 285 759L264 767Q249 773 235 776.5Q221 780 208 780Q178 780 170 766Q162 752 162 752ZM33 0V46L220 680H353L540 46V0H475L424 175Q390 167 355 163Q320 159 283 159Q248 159 213.5 163Q179 167 146 174L96 0ZM231 467 166 242Q194 235 223.5 231.5Q253 228 283 228Q314 228 345 232Q376 236 404 243L339 467Q321 527 310.5 570.5Q300 614 300 614H272Q272 614 260.5 570.5Q249 527 231 467Z" glyph-name="Atilde" horiz-adv-x="573" unicode="&#195;" /><glyph d="M99 0V680H310Q413 680 466 635Q519 590 519 508Q519 464 505.5 433Q492 402 475.5 383Q459 364 445.5 355.5Q432 347 432 347V345Q432 345 446.5 336Q461 327 479 307.5Q497 288 511.5 257.5Q526 227 526 184Q526 98 472 49Q418 0 314 0ZM309 613H172V377H363Q363 377 375.5 383Q388 389 403.5 403Q419 417 431.5 441Q444 465 444 502Q444 562 407 587.5Q370 613 309 613ZM363 311H172V67H324Q384 67 417 99Q450 131 451 188Q451 222 437 246Q423 270 407 284Q391 298 377 304.5Q363 311 363 311Z" glyph-name="B" horiz-adv-x="586" unicode="B" /><glyph d="M70 261V419Q70 553 129 621.5Q188 690 306 690Q372 690 412.5 672.5Q453 655 475.5 633.5Q498 612 505.5 594.5Q513 577 513 577V523H449Q449 523 446.5 539Q444 555 430 573.5Q416 592 387 608Q358 624 306 624Q223 624 184 574Q145 524 145 427V253Q145 156 184 106Q223 56 306 56Q358 56 387 72Q416 88 430 106.5Q444 125 446.5 141Q449 157 449 157H513V103Q513 103 505.5 85.5Q498 68 475.5 46.5Q453 25 412.5 7.5Q372 -10 306 -10Q188 -10 129 58.5Q70 127 70 261Z" glyph-name="C" horiz-adv-x="565" unicode="C" /><glyph d="M418 882V824L240 734V794L372 882ZM70 261V419Q70 553 129 621.5Q188 690 306 690Q372 690 412.5 672.5Q453 655 475.5 633.5Q498 612 505.5 594.5Q513 577 513 577V523H449Q449 523 446.5 539Q444 555 430 573.5Q416 592 387 608Q358 624 306 624Q223 624 184 574Q145 524 145 427V253Q145 156 184 106Q223 56 306 56Q358 56 387 72Q416 88 430 106.5Q444 125 446.5 141Q449 157 449 157H513V103Q513 103 505.5 85.5Q498 68 475.5 46.5Q453 25 412.5 7.5Q372 -10 306 -10Q188 -10 129 58.5Q70 127 70 261Z" glyph-name="Cacute" horiz-adv-x="565" unicode="&#262;" /><glyph d="M179 867H231L263 834Q280 817 291.5 804.5Q303 792 303 792H307Q307 792 318.5 804.5Q330 817 347 834L379 867H431V837L334 740H276L179 837ZM70 261V419Q70 553 129 621.5Q188 690 306 690Q372 690 412.5 672.5Q453 655 475.5 633.5Q498 612 505.5 594.5Q513 577 513 577V523H449Q449 523 446.5 539Q444 555 430 573.5Q416 592 387 608Q358 624 306 624Q223 624 184 574Q145 524 145 427V253Q145 156 184 106Q223 56 306 56Q358 56 387 72Q416 88 430 106.5Q444 125 446.5 141Q449 157 449 157H513V103Q513 103 505.5 85.5Q498 68 475.5 46.5Q453 25 412.5 7.5Q372 -10 306 -10Q188 -10 129 58.5Q70 127 70 261Z" glyph-name="Ccaron" horiz-adv-x="565" unicode="&#268;" /><glyph d="M70 261V419Q70 553 129 621.5Q188 690 306 690Q372 690 412.5 672.5Q453 655 475.5 633.5Q498 612 505.5 594.5Q513 577 513 577V523H449Q449 523 446.5 539Q444 555 430 573.5Q416 592 387 608Q358 624 306 624Q223 624 184 574Q145 524 145 427V253Q145 156 184 106Q223 56 306 56Q358 56 387 72Q416 88 430 106.5Q444 125 446.5 141Q449 157 449 157H513V103Q513 103 506.5 88Q500 73 482.5 54Q465 35 432.5 16.5Q400 -2 349 -8Q348 -43 339.5 -70.5Q331 -98 321.5 -116.5Q312 -135 304 -144.5Q296 -154 296 -154H239V-114Q239 -114 245 -107Q251 -100 258 -86.5Q265 -73 271 -53.5Q277 -34 277 -9Q173 -1 121.5 67.5Q70 136 70 261Z" glyph-name="Ccedilla" horiz-adv-x="565" unicode="&#199;" /><glyph d="M179 740V770L276 867H334L431 770V740H379L347 773Q330 790 318.5 802.5Q307 815 307 815H303Q303 815 291.5 802.5Q280 790 263 773L231 740ZM70 261V419Q70 553 129 621.5Q188 690 306 690Q372 690 412.5 672.5Q453 655 475.5 633.5Q498 612 505.5 594.5Q513 577 513 577V523H449Q449 523 446.5 539Q444 555 430 573.5Q416 592 387 608Q358 624 306 624Q223 624 184 574Q145 524 145 427V253Q145 156 184 106Q223 56 306 56Q358 56 387 72Q416 88 430 106.5Q444 125 446.5 141Q449 157 449 157H513V103Q513 103 505.5 85.5Q498 68 475.5 46.5Q453 25 412.5 7.5Q372 -10 306 -10Q188 -10 129 58.5Q70 127 70 261Z" glyph-name="Ccircumflex" horiz-adv-x="565" unicode="&#264;" /><glyph d="M257 800Q257 821 268.5 833.5Q280 846 305 846Q330 846 342 833.5Q354 821 354 800V794Q354 774 342 761.5Q330 749 305 749Q280 749 268.5 761.5Q257 774 257 794ZM70 261V419Q70 553 129 621.5Q188 690 306 690Q372 690 412.5 672.5Q453 655 475.5 633.5Q498 612 505.5 594.5Q513 577 513 577V523H449Q449 523 446.5 539Q444 555 430 573.5Q416 592 387 608Q358 624 306 624Q223 624 184 574Q145 524 145 427V253Q145 156 184 106Q223 56 306 56Q358 56 387 72Q416 88 430 106.5Q444 125 446.5 141Q449 157 449 157H513V103Q513 103 505.5 85.5Q498 68 475.5 46.5Q453 25 412.5 7.5Q372 -10 306 -10Q188 -10 129 58.5Q70 127 70 261Z" glyph-name="Cdotaccent" horiz-adv-x="565" unicode="&#266;" /><glyph d="M305 0H99V680H305Q429 680 489 614.5Q549 549 549 413V267Q549 131 489 65.5Q429 0 305 0ZM305 613H172V67H305Q388 67 431 107.5Q474 148 474 253V427Q474 532 431 572.5Q388 613 305 613Z" glyph-name="D" horiz-adv-x="619" unicode="D" /><glyph d="M161 867H213L245 834Q262 817 273.5 804.5Q285 792 285 792H289Q289 792 300.5 804.5Q312 817 329 834L361 867H413V837L316 740H258L161 837ZM305 0H99V680H305Q429 680 489 614.5Q549 549 549 413V267Q549 131 489 65.5Q429 0 305 0ZM305 613H172V67H305Q388 67 431 107.5Q474 148 474 253V427Q474 532 431 572.5Q388 613 305 613Z" glyph-name="Dcaron" horiz-adv-x="619" unicode="&#270;" /><glyph d="M18 371H99V680H305Q429 680 489 614.5Q549 549 549 413V267Q549 131 489 65.5Q429 0 305 0H99V310H18ZM306 310H172V67H305Q388 67 431 107.5Q474 148 474 253V427Q474 532 431 572.5Q388 613 305 613H172V371H306Z" glyph-name="Dcroat" horiz-adv-x="619" unicode="&#272;" /><glyph d="M99 0V680H482L472 613H172V377H436V310H172V67H472V0Z" glyph-name="E" horiz-adv-x="525" unicode="E" /><glyph d="M401 882V824L223 734V794L355 882ZM99 0V680H482L472 613H172V377H436V310H172V67H472V0Z" glyph-name="Eacute" horiz-adv-x="525" unicode="&#201;" /><glyph d="M159 875H214Q214 875 216 865.5Q218 856 225.5 845Q233 834 248.5 824.5Q264 815 291 815Q318 815 333.5 824.5Q349 834 356.5 845Q364 856 366 865.5Q368 875 368 875H423V831Q423 831 417 819Q411 807 396 793Q381 779 355.5 767Q330 755 291 755Q252 755 226.5 767Q201 779 186 793Q171 807 165 819Q159 831 159 831ZM99 0V680H482L472 613H172V377H436V310H172V67H472V0Z" glyph-name="Ebreve" horiz-adv-x="525" unicode="&#276;" /><glyph d="M165 867H217L249 834Q266 817 277.5 804.5Q289 792 289 792H293Q293 792 304.5 804.5Q316 817 333 834L365 867H417V837L320 740H262L165 837ZM99 0V680H482L472 613H172V377H436V310H172V67H472V0Z" glyph-name="Ecaron" horiz-adv-x="525" unicode="&#282;" /><glyph d="M165 740V770L262 867H320L417 770V740H365L333 773Q316 790 304.5 802.5Q293 815 293 815H289Q289 815 277.5 802.5Q266 790 249 773L217 740ZM99 0V680H482L472 613H172V377H436V310H172V67H472V0Z" glyph-name="Ecircumflex" horiz-adv-x="525" unicode="&#202;" /><glyph d="M173 794Q173 814 184.5 827Q196 840 221 840Q246 840 258 827Q270 814 270 794V788Q270 768 258 755.5Q246 743 221 743Q196 743 184.5 755.5Q173 768 173 788ZM313 794Q313 814 325 827Q337 840 362 840Q387 840 398.5 827Q410 814 410 794V788Q410 768 398.5 755.5Q387 743 362 743Q337 743 325 755.5Q313 768 313 788ZM99 0V680H482L472 613H172V377H436V310H172V67H472V0Z" glyph-name="Edieresis" horiz-adv-x="525" unicode="&#203;" /><glyph d="M243 800Q243 821 254.5 833.5Q266 846 291 846Q316 846 328 833.5Q340 821 340 800V794Q340 774 328 761.5Q316 749 291 749Q266 749 254.5 761.5Q243 774 243 794ZM99 0V680H482L472 613H172V377H436V310H172V67H472V0Z" glyph-name="Edotaccent" horiz-adv-x="525" unicode="&#278;" /><glyph d="M172 882H218L350 794V734L172 824ZM99 0V680H482L472 613H172V377H436V310H172V67H472V0Z" glyph-name="Egrave" horiz-adv-x="525" unicode="&#200;" /><glyph d="M151 852H430V788H151ZM99 0V680H482L472 613H172V377H436V310H172V67H472V0Z" glyph-name="Emacron" horiz-adv-x="525" unicode="&#274;" /><glyph d="M99 0V680H195L428 270Q436 257 446 237Q456 217 465 198.5Q474 180 480.5 167Q487 154 487 154H489Q489 154 488 170Q487 186 486 210.5Q485 235 484 265Q483 295 483 324V680H556V-23Q556 -69 542 -98.5Q528 -128 511.5 -144.5Q495 -161 481 -167Q467 -173 467 -173H410V-112H413Q442 -112 462.5 -90Q483 -68 483 -19V36L228 486Q201 532 185.5 563.5Q170 595 170 595H167Q167 595 169.5 558Q172 521 172 471V0Z" glyph-name="Eng" horiz-adv-x="655" unicode="&#330;" /><glyph d="M99 0V680H482L472 613H172V377H436V310H172V67H472V0L430 -46Q416 -61 409.5 -71.5Q403 -82 403 -94Q403 -107 413.5 -116.5Q424 -126 441 -126H458V-181H438Q393 -181 367.5 -158.5Q342 -136 342 -99Q342 -71 355.5 -49Q369 -27 391 -3L394 0Z" glyph-name="Eogonek" horiz-adv-x="525" unicode="&#280;" /><glyph d="M18 371H99V680H305Q429 680 489 614.5Q549 549 549 413V267Q549 131 489 65.5Q429 0 305 0H99V310H18ZM306 310H172V67H305Q388 67 431 107.5Q474 148 474 253V427Q474 532 431 572.5Q388 613 305 613H172V371H306Z" glyph-name="Eth" horiz-adv-x="619" unicode="&#208;" /><glyph d="M363 229H193Q194 144 225.5 100Q257 56 336 56Q379 56 404.5 68.5Q430 81 442.5 96.5Q455 112 458 124.5Q461 137 461 137H522V87Q522 87 514.5 72Q507 57 486.5 38.5Q466 20 429.5 5Q393 -10 336 -10Q277 -10 235.5 8Q194 26 168.5 57.5Q143 89 131 133.5Q119 178 119 229H33V292H119V389H33V452H119Q120 504 132 548Q144 592 169.5 623.5Q195 655 236.5 672.5Q278 690 336 690Q393 690 429.5 675Q466 660 486.5 641.5Q507 623 514.5 608Q522 593 522 593V543H461Q461 543 458 555.5Q455 568 442.5 583.5Q430 599 404.5 611.5Q379 624 336 624Q257 624 225.5 580Q194 536 193 452H363V389H193V292H363Z" glyph-name="Euro" horiz-adv-x="555" unicode="&#8364;" /><glyph d="M99 0V680H462L452 613H172V377H416V310H172V0Z" glyph-name="F" horiz-adv-x="482" unicode="F" /><glyph d="M70 267V413Q70 549 129 619.5Q188 690 306 690Q370 690 410.5 672.5Q451 655 473.5 633.5Q496 612 504.5 594.5Q513 577 513 577V523H450Q443 570 405 597Q367 624 306 624Q223 624 184 574Q145 524 145 427V253Q145 155 181 105.5Q217 56 299 56Q332 56 359 65Q386 74 404.5 85Q423 96 433.5 105Q444 114 444 114V311H293V377H517V0H458L449 54H446Q446 54 435 44Q424 34 404 22Q384 10 355 0Q326 -10 289 -10Q180 -10 125 60.5Q70 131 70 267Z" glyph-name="G" horiz-adv-x="598" unicode="G" /><glyph d="M174 875H229Q229 875 231 865.5Q233 856 240.5 845Q248 834 263.5 824.5Q279 815 306 815Q333 815 348.5 824.5Q364 834 371.5 845Q379 856 381 865.5Q383 875 383 875H438V831Q438 831 432 819Q426 807 411 793Q396 779 370.5 767Q345 755 306 755Q267 755 241.5 767Q216 779 201 793Q186 807 180 819Q174 831 174 831ZM70 267V413Q70 549 129 619.5Q188 690 306 690Q370 690 410.5 672.5Q451 655 473.5 633.5Q496 612 504.5 594.5Q513 577 513 577V523H450Q443 570 405 597Q367 624 306 624Q223 624 184 574Q145 524 145 427V253Q145 155 181 105.5Q217 56 299 56Q332 56 359 65Q386 74 404.5 85Q423 96 433.5 105Q444 114 444 114V311H293V377H517V0H458L449 54H446Q446 54 435 44Q424 34 404 22Q384 10 355 0Q326 -10 289 -10Q180 -10 125 60.5Q70 131 70 267Z" glyph-name="Gbreve" horiz-adv-x="598" unicode="&#286;" /><glyph d="M180 867H232L264 834Q281 817 292.5 804.5Q304 792 304 792H308Q308 792 319.5 804.5Q331 817 348 834L380 867H432V837L335 740H277L180 837ZM70 267V413Q70 549 129 619.5Q188 690 306 690Q370 690 410.5 672.5Q451 655 473.5 633.5Q496 612 504.5 594.5Q513 577 513 577V523H450Q443 570 405 597Q367 624 306 624Q223 624 184 574Q145 524 145 427V253Q145 155 181 105.5Q217 56 299 56Q332 56 359 65Q386 74 404.5 85Q423 96 433.5 105Q444 114 444 114V311H293V377H517V0H458L449 54H446Q446 54 435 44Q424 34 404 22Q384 10 355 0Q326 -10 289 -10Q180 -10 125 60.5Q70 131 70 267Z" glyph-name="Gcaron" horiz-adv-x="598" unicode="&#486;" /><glyph d="M180 740V770L277 867H335L432 770V740H380L348 773Q331 790 319.5 802.5Q308 815 308 815H304Q304 815 292.5 802.5Q281 790 264 773L232 740ZM70 267V413Q70 549 129 619.5Q188 690 306 690Q370 690 410.5 672.5Q451 655 473.5 633.5Q496 612 504.5 594.5Q513 577 513 577V523H450Q443 570 405 597Q367 624 306 624Q223 624 184 574Q145 524 145 427V253Q145 155 181 105.5Q217 56 299 56Q332 56 359 65Q386 74 404.5 85Q423 96 433.5 105Q444 114 444 114V311H293V377H517V0H458L449 54H446Q446 54 435 44Q424 34 404 22Q384 10 355 0Q326 -10 289 -10Q180 -10 125 60.5Q70 131 70 267Z" glyph-name="Gcircumflex" horiz-adv-x="598" unicode="&#284;" /><glyph d="M258 800Q258 821 269.5 833.5Q281 846 306 846Q331 846 343 833.5Q355 821 355 800V794Q355 774 343 761.5Q331 749 306 749Q281 749 269.5 761.5Q258 774 258 794ZM70 267V413Q70 549 129 619.5Q188 690 306 690Q370 690 410.5 672.5Q451 655 473.5 633.5Q496 612 504.5 594.5Q513 577 513 577V523H450Q443 570 405 597Q367 624 306 624Q223 624 184 574Q145 524 145 427V253Q145 155 181 105.5Q217 56 299 56Q332 56 359 65Q386 74 404.5 85Q423 96 433.5 105Q444 114 444 114V311H293V377H517V0H458L449 54H446Q446 54 435 44Q424 34 404 22Q384 10 355 0Q326 -10 289 -10Q180 -10 125 60.5Q70 131 70 267Z" glyph-name="Gdotaccent" horiz-adv-x="598" unicode="&#288;" /><glyph d="M556 680V0H483V310H172V0H99V680H172V377H483V680Z" glyph-name="H" horiz-adv-x="655" unicode="H" /><glyph d="M31 573H99V680H172V573H483V680H556V573H626V513H556V0H483V310H172V0H99V513H31ZM172 377H483V513H172Z" glyph-name="Hbar" horiz-adv-x="655" unicode="&#294;" /><glyph d="M202 740V770L299 867H357L454 770V740H402L370 773Q353 790 341.5 802.5Q330 815 330 815H326Q326 815 314.5 802.5Q303 790 286 773L254 740ZM556 680V0H483V310H172V0H99V680H172V377H483V680Z" glyph-name="Hcircumflex" horiz-adv-x="655" unicode="&#292;" /><glyph d="M58 58 124 66V614L58 622V680H263V622L197 614V66L263 58V0H58Z" glyph-name="I" horiz-adv-x="321" unicode="I" /><glyph d="M58 58 124 66V614L58 622V680H263V622L197 614V66L263 58V0H58ZM365 74H414Q414 74 430 66.5Q446 59 484 59Q547 59 577 89Q607 119 607 176V613H382V680H680V187Q680 130 664 92Q648 54 621.5 32Q595 10 559 1.5Q523 -7 484 -7Q431 -7 398 2.5Q365 12 365 12Z" glyph-name="IJ" horiz-adv-x="769" unicode="&#306;" /><glyph d="M276 882V824L98 734V794L230 882ZM625 882V824L447 734V794L579 882ZM58 58 124 66V614L58 622V680H263V622L197 614V66L263 58V0H58ZM365 74H414Q414 74 430 66.5Q446 59 484 59Q547 59 577 89Q607 119 607 176V613H382V680H680V187Q680 130 664 92Q648 54 621.5 32Q595 10 559 1.5Q523 -7 484 -7Q431 -7 398 2.5Q365 12 365 12Z" glyph-name="IJacute" horiz-adv-x="769" /><glyph d="M276 882V824L98 734V794L230 882ZM58 58 124 66V614L58 622V680H263V622L197 614V66L263 58V0H58Z" glyph-name="Iacute" horiz-adv-x="321" unicode="&#205;" /><glyph d="M28 875H83Q83 875 85 865.5Q87 856 94.5 845Q102 834 117.5 824.5Q133 815 160 815Q187 815 202.5 824.5Q218 834 225.5 845Q233 856 235 865.5Q237 875 237 875H292V831Q292 831 286 819Q280 807 265 793Q250 779 224.5 767Q199 755 160 755Q121 755 95.5 767Q70 779 55 793Q40 807 34 819Q28 831 28 831ZM58 58 124 66V614L58 622V680H263V622L197 614V66L263 58V0H58Z" glyph-name="Ibreve" horiz-adv-x="321" unicode="&#300;" /><glyph d="M34 740V770L131 867H189L286 770V740H234L202 773Q185 790 173.5 802.5Q162 815 162 815H158Q158 815 146.5 802.5Q135 790 118 773L86 740ZM58 58 124 66V614L58 622V680H263V622L197 614V66L263 58V0H58Z" glyph-name="Icircumflex" horiz-adv-x="321" unicode="&#206;" /><glyph d="M42 794Q42 814 53.5 827Q65 840 90 840Q115 840 127 827Q139 814 139 794V788Q139 768 127 755.5Q115 743 90 743Q65 743 53.5 755.5Q42 768 42 788ZM182 794Q182 814 194 827Q206 840 231 840Q256 840 267.5 827Q279 814 279 794V788Q279 768 267.5 755.5Q256 743 231 743Q206 743 194 755.5Q182 768 182 788ZM58 58 124 66V614L58 622V680H263V622L197 614V66L263 58V0H58Z" glyph-name="Idieresis" horiz-adv-x="321" unicode="&#207;" /><glyph d="M112 800Q112 821 123.5 833.5Q135 846 160 846Q185 846 197 833.5Q209 821 209 800V794Q209 774 197 761.5Q185 749 160 749Q135 749 123.5 761.5Q112 774 112 794ZM58 58 124 66V614L58 622V680H263V622L197 614V66L263 58V0H58Z" glyph-name="Idotaccent" horiz-adv-x="321" unicode="&#304;" /><glyph d="M42 882H88L220 794V734L42 824ZM58 58 124 66V614L58 622V680H263V622L197 614V66L263 58V0H58Z" glyph-name="Igrave" horiz-adv-x="321" unicode="&#204;" /><glyph d="M20 852H299V788H20ZM58 58 124 66V614L58 622V680H263V622L197 614V66L263 58V0H58Z" glyph-name="Imacron" horiz-adv-x="321" unicode="&#298;" /><glyph d="M58 58 124 66V614L58 622V680H263V622L197 614V66L263 58V0L221 -46Q207 -61 200.5 -71.5Q194 -82 194 -94Q194 -107 204.5 -116.5Q215 -126 232 -126H249V-181H229Q184 -181 158.5 -158.5Q133 -136 133 -99Q133 -71 146.5 -49Q160 -27 182 -3L185 0H58Z" glyph-name="Iogonek" horiz-adv-x="321" unicode="&#302;" /><glyph d="M-11 752V797Q-11 797 -6.5 804Q-2 811 8.5 819.5Q19 828 35.5 835Q52 842 77 842Q97 842 120 837Q143 832 160 826L181 817Q196 812 210 808.5Q224 805 237 805Q267 805 275 819Q283 833 283 833H330V787Q330 787 325.5 780Q321 773 310.5 764.5Q300 756 283.5 749Q267 742 242 742Q222 742 199 747Q176 752 159 759L138 767Q123 773 109 776.5Q95 780 82 780Q52 780 44 766Q36 752 36 752ZM58 58 124 66V614L58 622V680H263V622L197 614V66L263 58V0H58Z" glyph-name="Itilde" horiz-adv-x="321" unicode="&#296;" /><glyph d="M44 74H93Q93 74 109 66.5Q125 59 163 59Q226 59 256 89Q286 119 286 176V613H61V680H359V187Q359 130 343 92Q327 54 300.5 32Q274 10 238 1.5Q202 -7 163 -7Q110 -7 77 2.5Q44 12 44 12Z" glyph-name="J" horiz-adv-x="448" unicode="J" /><glyph d="M83 740V770L180 867H238L335 770V740H283L251 773Q234 790 222.5 802.5Q211 815 211 815H207Q207 815 195.5 802.5Q184 790 167 773L135 740ZM44 74H93Q93 74 109 66.5Q125 59 163 59Q226 59 256 89Q286 119 286 176V613H61V680H359V187Q359 130 343 92Q327 54 300.5 32Q274 10 238 1.5Q202 -7 163 -7Q110 -7 77 2.5Q44 12 44 12Z" glyph-name="Jcircumflex" horiz-adv-x="448" unicode="&#308;" /><glyph d="M172 310V0H99V680H172V483Q172 444 171 410.5Q170 377 170 377H244Q244 377 263.5 402.5Q283 428 322 474L492 680H544V634L304 347V344Q304 344 328 310Q352 276 389 228.5Q426 181 471.5 130Q517 79 558 46V0H500Q461 32 415.5 85Q370 138 332 187.5Q294 237 268.5 273.5Q243 310 243 310Z" glyph-name="K" horiz-adv-x="569" unicode="K" /><glyph d="M99 0V680H172V66H462L452 0Z" glyph-name="L" horiz-adv-x="478" unicode="L" /><glyph d="M280 882V824L102 734V794L234 882ZM99 0V680H172V66H462L452 0Z" glyph-name="Lacute" horiz-adv-x="478" unicode="&#313;" /><glyph d="M99 0V680H172V66H462L452 0ZM298 490Q298 490 302.5 505.5Q307 521 313 547Q319 573 323.5 607.5Q328 642 328 680H399V636Q389 572 373.5 531Q358 490 358 490Z" glyph-name="Lcaron" horiz-adv-x="478" unicode="&#317;" /><glyph d="M99 0V680H172V66H462L452 0ZM363 336Q363 359 376.5 373.5Q390 388 417 388Q445 388 458.5 373.5Q472 359 472 336V330Q472 307 458.5 293Q445 279 417 279Q390 279 376.5 293Q363 307 363 330Z" glyph-name="Ldot" horiz-adv-x="500" unicode="&#319;" /><glyph d="M99 0V312L47 285H10V337L99 383V680H172V421L254 464H291V413L172 351V66H462L452 0Z" glyph-name="Lslash" horiz-adv-x="479" unicode="&#321;" /><glyph d="M99 0V680H228L359 224Q365 203 373.5 175Q382 147 389 122Q396 97 401 80Q406 63 406 63H415Q415 63 420 80Q425 97 432 122Q439 147 447.5 175Q456 203 462 224L593 680H719V0H647V414Q647 436 648 470.5Q649 505 649.5 537.5Q650 570 651 593.5Q652 617 652 617H643Q643 617 638 599Q633 581 626.5 556Q620 531 612 503.5Q604 476 598 456L463 0H354L220 456Q214 476 206.5 503.5Q199 531 192 556Q185 581 180 599Q175 617 175 617H166Q166 617 167 593.5Q168 570 168.5 537.5Q169 505 170 470.5Q171 436 171 414V0Z" glyph-name="M" horiz-adv-x="817" unicode="M" /><glyph d="M99 0V680H205L313 422Q325 394 336 366.5Q347 339 355.5 317Q364 295 369 281Q374 267 374 267H378Q378 267 383 281Q388 295 396.5 317Q405 339 416 366.5Q427 394 439 422L547 680H653V0H582V475Q582 494 582.5 516Q583 538 584 556.5Q585 575 585.5 587.5Q586 600 586 600H582Q582 600 578 589.5Q574 579 567.5 562Q561 545 552.5 524Q544 503 535 482L412 187H340L217 482Q208 503 199.5 524Q191 545 184.5 562Q178 579 174 589.5Q170 600 170 600H166Q166 600 166.5 587.5Q167 575 168 556.5Q169 538 169.5 516Q170 494 170 475V0Z" glyph-name="M.alt" horiz-adv-x="752" /><glyph d="M99 0V680H195L428 270Q436 257 446 237Q456 217 465 198.5Q474 180 480.5 167Q487 154 487 154H489Q489 154 488 170Q487 186 486 210.5Q485 235 484 265Q483 295 483 324V680H556V0H483V36L228 486Q201 532 185.5 563.5Q170 595 170 595H167Q167 595 169.5 558Q172 521 172 471V0Z" glyph-name="N" horiz-adv-x="655" unicode="N" /><glyph d="M443 882V824L265 734V794L397 882ZM99 0V680H195L428 270Q436 257 446 237Q456 217 465 198.5Q474 180 480.5 167Q487 154 487 154H489Q489 154 488 170Q487 186 486 210.5Q485 235 484 265Q483 295 483 324V680H556V0H483V36L228 486Q201 532 185.5 563.5Q170 595 170 595H167Q167 595 169.5 558Q172 521 172 471V0Z" glyph-name="Nacute" horiz-adv-x="655" unicode="&#323;" /><glyph d="M207 867H259L291 834Q308 817 319.5 804.5Q331 792 331 792H335Q335 792 346.5 804.5Q358 817 375 834L407 867H459V837L362 740H304L207 837ZM99 0V680H195L428 270Q436 257 446 237Q456 217 465 198.5Q474 180 480.5 167Q487 154 487 154H489Q489 154 488 170Q487 186 486 210.5Q485 235 484 265Q483 295 483 324V680H556V0H483V36L228 486Q201 532 185.5 563.5Q170 595 170 595H167Q167 595 169.5 558Q172 521 172 471V0Z" glyph-name="Ncaron" horiz-adv-x="655" unicode="&#327;" /><glyph d="M162 752V797Q162 797 166.5 804Q171 811 181.5 819.5Q192 828 208.5 835Q225 842 250 842Q270 842 293 837Q316 832 333 826L354 817Q369 812 383 808.5Q397 805 410 805Q440 805 448 819Q456 833 456 833H503V787Q503 787 498.5 780Q494 773 483.5 764.5Q473 756 456.5 749Q440 742 415 742Q395 742 372 747Q349 752 332 759L311 767Q296 773 282 776.5Q268 780 255 780Q225 780 217 766Q209 752 209 752ZM99 0V680H195L428 270Q436 257 446 237Q456 217 465 198.5Q474 180 480.5 167Q487 154 487 154H489Q489 154 488 170Q487 186 486 210.5Q485 235 484 265Q483 295 483 324V680H556V0H483V36L228 486Q201 532 185.5 563.5Q170 595 170 595H167Q167 595 169.5 558Q172 521 172 471V0Z" glyph-name="Ntilde" horiz-adv-x="655" unicode="&#209;" /><glyph d="M70 261V419Q70 552 130 621Q190 690 314 690Q438 690 498 621Q558 552 558 419V261Q558 128 498 59Q438 -10 314 -10Q190 -10 130 59Q70 128 70 261ZM145 253Q145 148 188 102Q231 56 314 56Q397 56 440 102Q483 148 483 253V427Q483 532 440 578Q397 624 314 624Q231 624 188 578Q145 532 145 427Z" glyph-name="O" horiz-adv-x="628" unicode="O" /><glyph d="M70 267V413Q70 549 130 619.5Q190 690 314 690Q375 690 417 672.5Q459 655 484 621V680H867L857 613H557V377H821V310H557V67H857V0H484V59Q459 25 417 7.5Q375 -10 314 -10Q190 -10 130 60.5Q70 131 70 267ZM145 253Q145 148 188 102Q231 56 314 56Q397 56 440 102Q483 148 483 253V427Q483 532 440 578Q397 624 314 624Q231 624 188 578Q145 532 145 427Z" glyph-name="OE" horiz-adv-x="910" unicode="&#338;" /><glyph d="M438 882V824L260 734V794L392 882ZM70 261V419Q70 552 130 621Q190 690 314 690Q438 690 498 621Q558 552 558 419V261Q558 128 498 59Q438 -10 314 -10Q190 -10 130 59Q70 128 70 261ZM145 253Q145 148 188 102Q231 56 314 56Q397 56 440 102Q483 148 483 253V427Q483 532 440 578Q397 624 314 624Q231 624 188 578Q145 532 145 427Z" glyph-name="Oacute" horiz-adv-x="628" unicode="&#211;" /><glyph d="M182 875H237Q237 875 239 865.5Q241 856 248.5 845Q256 834 271.5 824.5Q287 815 314 815Q341 815 356.5 824.5Q372 834 379.5 845Q387 856 389 865.5Q391 875 391 875H446V831Q446 831 440 819Q434 807 419 793Q404 779 378.5 767Q353 755 314 755Q275 755 249.5 767Q224 779 209 793Q194 807 188 819Q182 831 182 831ZM70 261V419Q70 552 130 621Q190 690 314 690Q438 690 498 621Q558 552 558 419V261Q558 128 498 59Q438 -10 314 -10Q190 -10 130 59Q70 128 70 261ZM145 253Q145 148 188 102Q231 56 314 56Q397 56 440 102Q483 148 483 253V427Q483 532 440 578Q397 624 314 624Q231 624 188 578Q145 532 145 427Z" glyph-name="Obreve" horiz-adv-x="628" unicode="&#334;" /><glyph d="M188 740V770L285 867H343L440 770V740H388L356 773Q339 790 327.5 802.5Q316 815 316 815H312Q312 815 300.5 802.5Q289 790 272 773L240 740ZM70 261V419Q70 552 130 621Q190 690 314 690Q438 690 498 621Q558 552 558 419V261Q558 128 498 59Q438 -10 314 -10Q190 -10 130 59Q70 128 70 261ZM145 253Q145 148 188 102Q231 56 314 56Q397 56 440 102Q483 148 483 253V427Q483 532 440 578Q397 624 314 624Q231 624 188 578Q145 532 145 427Z" glyph-name="Ocircumflex" horiz-adv-x="628" unicode="&#212;" /><glyph d="M196 794Q196 814 207.5 827Q219 840 244 840Q269 840 281 827Q293 814 293 794V788Q293 768 281 755.5Q269 743 244 743Q219 743 207.5 755.5Q196 768 196 788ZM336 794Q336 814 348 827Q360 840 385 840Q410 840 421.5 827Q433 814 433 794V788Q433 768 421.5 755.5Q410 743 385 743Q360 743 348 755.5Q336 768 336 788ZM70 261V419Q70 552 130 621Q190 690 314 690Q438 690 498 621Q558 552 558 419V261Q558 128 498 59Q438 -10 314 -10Q190 -10 130 59Q70 128 70 261ZM145 253Q145 148 188 102Q231 56 314 56Q397 56 440 102Q483 148 483 253V427Q483 532 440 578Q397 624 314 624Q231 624 188 578Q145 532 145 427Z" glyph-name="Odieresis" horiz-adv-x="628" unicode="&#214;" /><glyph d="M188 882H234L366 794V734L188 824ZM70 261V419Q70 552 130 621Q190 690 314 690Q438 690 498 621Q558 552 558 419V261Q558 128 498 59Q438 -10 314 -10Q190 -10 130 59Q70 128 70 261ZM145 253Q145 148 188 102Q231 56 314 56Q397 56 440 102Q483 148 483 253V427Q483 532 440 578Q397 624 314 624Q231 624 188 578Q145 532 145 427Z" glyph-name="Ograve" horiz-adv-x="628" unicode="&#210;" /><glyph d="M343 837 271 745H207L285 882H343ZM482 837 410 745H347L425 882H482ZM70 261V419Q70 552 130 621Q190 690 314 690Q438 690 498 621Q558 552 558 419V261Q558 128 498 59Q438 -10 314 -10Q190 -10 130 59Q70 128 70 261ZM145 253Q145 148 188 102Q231 56 314 56Q397 56 440 102Q483 148 483 253V427Q483 532 440 578Q397 624 314 624Q231 624 188 578Q145 532 145 427Z" glyph-name="Ohungarumlaut" horiz-adv-x="628" unicode="&#336;" /><glyph d="M174 852H453V788H174ZM70 261V419Q70 552 130 621Q190 690 314 690Q438 690 498 621Q558 552 558 419V261Q558 128 498 59Q438 -10 314 -10Q190 -10 130 59Q70 128 70 261ZM145 253Q145 148 188 102Q231 56 314 56Q397 56 440 102Q483 148 483 253V427Q483 532 440 578Q397 624 314 624Q231 624 188 578Q145 532 145 427Z" glyph-name="Omacron" horiz-adv-x="628" unicode="&#332;" /><glyph d="M70 261V419Q70 552 130 621Q190 690 314 690Q360 690 398 680Q436 670 465 651L512 730H558V686L510 606Q534 572 546 525.5Q558 479 558 419V261Q558 128 498 59Q438 -10 314 -10Q268 -10 230 0Q192 10 163 29L116 -50H70V-6L118 74Q94 108 82 154.5Q70 201 70 261ZM145 253Q145 221 149 194Q153 167 161 146L428 590Q407 607 378.5 615.5Q350 624 314 624Q231 624 188 578Q145 532 145 427ZM483 427Q483 459 479 486Q475 513 467 534L200 90Q221 73 249.5 64.5Q278 56 314 56Q397 56 440 102Q483 148 483 253Z" glyph-name="Oslash" horiz-adv-x="628" unicode="&#216;" /><glyph d="M438 882V824L260 734V794L392 882ZM70 261V419Q70 552 130 621Q190 690 314 690Q360 690 398 680Q436 670 465 651L512 730H558V686L510 606Q534 572 546 525.5Q558 479 558 419V261Q558 128 498 59Q438 -10 314 -10Q268 -10 230 0Q192 10 163 29L116 -50H70V-6L118 74Q94 108 82 154.5Q70 201 70 261ZM145 253Q145 221 149 194Q153 167 161 146L428 590Q407 607 378.5 615.5Q350 624 314 624Q231 624 188 578Q145 532 145 427ZM483 427Q483 459 479 486Q475 513 467 534L200 90Q221 73 249.5 64.5Q278 56 314 56Q397 56 440 102Q483 148 483 253Z" glyph-name="Oslashacute" horiz-adv-x="628" unicode="&#510;" /><glyph d="M143 752V797Q143 797 147.5 804Q152 811 162.5 819.5Q173 828 189.5 835Q206 842 231 842Q251 842 274 837Q297 832 314 826L335 817Q350 812 364 808.5Q378 805 391 805Q421 805 429 819Q437 833 437 833H484V787Q484 787 479.5 780Q475 773 464.5 764.5Q454 756 437.5 749Q421 742 396 742Q376 742 353 747Q330 752 313 759L292 767Q277 773 263 776.5Q249 780 236 780Q206 780 198 766Q190 752 190 752ZM70 261V419Q70 552 130 621Q190 690 314 690Q438 690 498 621Q558 552 558 419V261Q558 128 498 59Q438 -10 314 -10Q190 -10 130 59Q70 128 70 261ZM145 253Q145 148 188 102Q231 56 314 56Q397 56 440 102Q483 148 483 253V427Q483 532 440 578Q397 624 314 624Q231 624 188 578Q145 532 145 427Z" glyph-name="Otilde" horiz-adv-x="628" unicode="&#213;" /><glyph d="M99 0V680H313Q417 680 471.5 628.5Q526 577 526 482Q526 424 503 385Q480 346 453 322.5Q426 299 403 289.5Q380 280 380 280H172V0ZM172 346H361Q361 346 375 352Q389 358 406 373.5Q423 389 437 415.5Q451 442 451 482Q451 539 421.5 576Q392 613 323 613H172Z" glyph-name="P" horiz-adv-x="558" unicode="P" /><glyph d="M70 261V419Q70 552 130 621Q190 690 314 690Q438 690 498 621Q558 552 558 419V261Q558 170 529.5 108.5Q501 47 444 17Q461 -9 492.5 -48Q524 -87 567 -118V-167H516Q491 -149 469 -126Q447 -103 428.5 -80.5Q410 -58 396 -38Q382 -18 374 -5Q360 -7 345 -8.5Q330 -10 314 -10Q190 -10 130 59Q70 128 70 261ZM145 253Q145 148 188 102Q231 56 314 56Q397 56 440 102Q483 148 483 253V427Q483 532 440 578Q397 624 314 624Q231 624 188 578Q145 532 145 427Z" glyph-name="Q" horiz-adv-x="637" unicode="Q" /><glyph d="M99 0V680H323Q427 680 481.5 633.5Q536 587 536 492Q536 433 513 395.5Q490 358 462 337Q434 316 411 308Q388 300 388 300Q388 300 399 275.5Q410 251 430.5 213.5Q451 176 481.5 131Q512 86 550 45V0H492Q454 41 420.5 92Q387 143 363 187.5Q339 232 325.5 262.5Q312 293 312 293H172V0ZM172 359H358Q358 359 374 363Q390 367 409.5 381Q429 395 445 421.5Q461 448 461 492Q461 549 430 581.5Q399 614 331 614H172Z" glyph-name="R" horiz-adv-x="590" unicode="R" /><glyph d="M394 882V824L216 734V794L348 882ZM99 0V680H323Q427 680 481.5 633.5Q536 587 536 492Q536 433 513 395.5Q490 358 462 337Q434 316 411 308Q388 300 388 300Q388 300 399 275.5Q410 251 430.5 213.5Q451 176 481.5 131Q512 86 550 45V0H492Q454 41 420.5 92Q387 143 363 187.5Q339 232 325.5 262.5Q312 293 312 293H172V0ZM172 359H358Q358 359 374 363Q390 367 409.5 381Q429 395 445 421.5Q461 448 461 492Q461 549 430 581.5Q399 614 331 614H172Z" glyph-name="Racute" horiz-adv-x="590" unicode="&#340;" /><glyph d="M151 867H203L235 834Q252 817 263.5 804.5Q275 792 275 792H279Q279 792 290.5 804.5Q302 817 319 834L351 867H403V837L306 740H248L151 837ZM99 0V680H323Q427 680 481.5 633.5Q536 587 536 492Q536 433 513 395.5Q490 358 462 337Q434 316 411 308Q388 300 388 300Q388 300 399 275.5Q410 251 430.5 213.5Q451 176 481.5 131Q512 86 550 45V0H492Q454 41 420.5 92Q387 143 363 187.5Q339 232 325.5 262.5Q312 293 312 293H172V0ZM172 359H358Q358 359 374 363Q390 367 409.5 381Q429 395 445 421.5Q461 448 461 492Q461 549 430 581.5Q399 614 331 614H172Z" glyph-name="Rcaron" horiz-adv-x="590" unicode="&#344;" /><glyph d="M53 32V93H109Q109 93 115 87.5Q121 82 136 75.5Q151 69 177.5 63.5Q204 58 245 58Q326 58 359 93Q392 128 392 179Q392 233 362.5 260Q333 287 281 304L215 326Q168 342 138 362.5Q108 383 91.5 406.5Q75 430 69 456Q63 482 63 510Q63 596 120 642Q177 688 273 688Q316 688 349.5 681.5Q383 675 405 668Q427 661 438.5 654.5Q450 648 450 648V586H395Q395 586 388.5 591.5Q382 597 367.5 604Q353 611 330 616.5Q307 622 273 622Q204 622 170.5 592Q137 562 137 512Q137 466 163 438.5Q189 411 244 392L310 370Q391 343 428 300.5Q465 258 466 185Q469 94 408 43Q347 -8 247 -8Q198 -8 161.5 -1.5Q125 5 101 12Q77 19 65 25.5Q53 32 53 32Z" glyph-name="S" horiz-adv-x="514" unicode="S" /><glyph d="M384 882V824L206 734V794L338 882ZM53 32V93H109Q109 93 115 87.5Q121 82 136 75.5Q151 69 177.5 63.5Q204 58 245 58Q326 58 359 93Q392 128 392 179Q392 233 362.5 260Q333 287 281 304L215 326Q168 342 138 362.5Q108 383 91.5 406.5Q75 430 69 456Q63 482 63 510Q63 596 120 642Q177 688 273 688Q316 688 349.5 681.5Q383 675 405 668Q427 661 438.5 654.5Q450 648 450 648V586H395Q395 586 388.5 591.5Q382 597 367.5 604Q353 611 330 616.5Q307 622 273 622Q204 622 170.5 592Q137 562 137 512Q137 466 163 438.5Q189 411 244 392L310 370Q391 343 428 300.5Q465 258 466 185Q469 94 408 43Q347 -8 247 -8Q198 -8 161.5 -1.5Q125 5 101 12Q77 19 65 25.5Q53 32 53 32Z" glyph-name="Sacute" horiz-adv-x="514" unicode="&#346;" /><glyph d="M148 867H200L232 834Q249 817 260.5 804.5Q272 792 272 792H276Q276 792 287.5 804.5Q299 817 316 834L348 867H400V837L303 740H245L148 837ZM53 32V93H109Q109 93 115 87.5Q121 82 136 75.5Q151 69 177.5 63.5Q204 58 245 58Q326 58 359 93Q392 128 392 179Q392 233 362.5 260Q333 287 281 304L215 326Q168 342 138 362.5Q108 383 91.5 406.5Q75 430 69 456Q63 482 63 510Q63 596 120 642Q177 688 273 688Q316 688 349.5 681.5Q383 675 405 668Q427 661 438.5 654.5Q450 648 450 648V586H395Q395 586 388.5 591.5Q382 597 367.5 604Q353 611 330 616.5Q307 622 273 622Q204 622 170.5 592Q137 562 137 512Q137 466 163 438.5Q189 411 244 392L310 370Q391 343 428 300.5Q465 258 466 185Q469 94 408 43Q347 -8 247 -8Q198 -8 161.5 -1.5Q125 5 101 12Q77 19 65 25.5Q53 32 53 32Z" glyph-name="Scaron" horiz-adv-x="514" unicode="&#352;" /><glyph d="M53 32V93H109Q109 93 115 87.5Q121 82 136 75.5Q151 69 177.5 63.5Q204 58 245 58Q326 58 359 93Q392 128 392 179Q392 233 362.5 260Q333 287 281 304L215 326Q168 342 138 362.5Q108 383 91.5 406.5Q75 430 69 456Q63 482 63 510Q63 596 120 642Q177 688 273 688Q316 688 349.5 681.5Q383 675 405 668Q427 661 438.5 654.5Q450 648 450 648V586H395Q395 586 388.5 591.5Q382 597 367.5 604Q353 611 330 616.5Q307 622 273 622Q204 622 170.5 592Q137 562 137 512Q137 466 163 438.5Q189 411 244 392L310 370Q391 343 428 300.5Q465 258 466 185Q468 108 424.5 59Q381 10 306 -3Q306 -40 297.5 -68Q289 -96 279 -115Q269 -134 261 -144Q253 -154 253 -154H196V-114Q196 -114 202 -107Q208 -100 215 -86.5Q222 -73 228 -53Q234 -33 234 -8Q189 -7 155 -0.5Q121 6 98.5 13Q76 20 64.5 26Q53 32 53 32Z" glyph-name="Scedilla" horiz-adv-x="514" unicode="&#350;" /><glyph d="M148 740V770L245 867H303L400 770V740H348L316 773Q299 790 287.5 802.5Q276 815 276 815H272Q272 815 260.5 802.5Q249 790 232 773L200 740ZM53 32V93H109Q109 93 115 87.5Q121 82 136 75.5Q151 69 177.5 63.5Q204 58 245 58Q326 58 359 93Q392 128 392 179Q392 233 362.5 260Q333 287 281 304L215 326Q168 342 138 362.5Q108 383 91.5 406.5Q75 430 69 456Q63 482 63 510Q63 596 120 642Q177 688 273 688Q316 688 349.5 681.5Q383 675 405 668Q427 661 438.5 654.5Q450 648 450 648V586H395Q395 586 388.5 591.5Q382 597 367.5 604Q353 611 330 616.5Q307 622 273 622Q204 622 170.5 592Q137 562 137 512Q137 466 163 438.5Q189 411 244 392L310 370Q391 343 428 300.5Q465 258 466 185Q469 94 408 43Q347 -8 247 -8Q198 -8 161.5 -1.5Q125 5 101 12Q77 19 65 25.5Q53 32 53 32Z" glyph-name="Scircumflex" horiz-adv-x="514" unicode="&#348;" /><glyph d="M427 614H261V0H188V614H17V680H437Z" glyph-name="T" horiz-adv-x="452" unicode="T" /><glyph d="M82 370H188V614H17V680H437L427 614H261V370H370V309H261V0H188V309H82Z" glyph-name="Tbar" horiz-adv-x="452" unicode="&#358;" /><glyph d="M98 867H150L182 834Q199 817 210.5 804.5Q222 792 222 792H226Q226 792 237.5 804.5Q249 817 266 834L298 867H350V837L253 740H195L98 837ZM427 614H261V0H188V614H17V680H437Z" glyph-name="Tcaron" horiz-adv-x="452" unicode="&#356;" /><glyph d="M99 680H172V578H303Q407 578 462 530Q517 482 517 387Q517 324 490.5 284Q464 244 432 221.5Q400 199 373.5 190.5Q347 182 347 182H172V0H99ZM172 511V249H333Q333 249 350 254.5Q367 260 387.5 275Q408 290 425 317Q442 344 442 387Q442 444 412 477.5Q382 511 313 511Z" glyph-name="Thorn" horiz-adv-x="549" unicode="&#222;" /><glyph d="M88 225V680H161V223Q161 133 192 95.5Q223 58 305 58Q340 58 370.5 67.5Q401 77 423.5 89Q446 101 459 110.5Q472 120 472 120V680H545V0H486L476 58H474Q474 58 460 47.5Q446 37 421.5 25Q397 13 363.5 2.5Q330 -8 291 -8Q182 -8 135 45Q88 98 88 225Z" glyph-name="U" horiz-adv-x="644" unicode="U" /><glyph d="M438 882V824L260 734V794L392 882ZM88 225V680H161V223Q161 133 192 95.5Q223 58 305 58Q340 58 370.5 67.5Q401 77 423.5 89Q446 101 459 110.5Q472 120 472 120V680H545V0H486L476 58H474Q474 58 460 47.5Q446 37 421.5 25Q397 13 363.5 2.5Q330 -8 291 -8Q182 -8 135 45Q88 98 88 225Z" glyph-name="Uacute" horiz-adv-x="644" unicode="&#218;" /><glyph d="M189 875H244Q244 875 246 865.5Q248 856 255.5 845Q263 834 278.5 824.5Q294 815 321 815Q348 815 363.5 824.5Q379 834 386.5 845Q394 856 396 865.5Q398 875 398 875H453V831Q453 831 447 819Q441 807 426 793Q411 779 385.5 767Q360 755 321 755Q282 755 256.5 767Q231 779 216 793Q201 807 195 819Q189 831 189 831ZM88 225V680H161V223Q161 133 192 95.5Q223 58 305 58Q340 58 370.5 67.5Q401 77 423.5 89Q446 101 459 110.5Q472 120 472 120V680H545V0H486L476 58H474Q474 58 460 47.5Q446 37 421.5 25Q397 13 363.5 2.5Q330 -8 291 -8Q182 -8 135 45Q88 98 88 225Z" glyph-name="Ubreve" horiz-adv-x="644" unicode="&#364;" /><glyph d="M195 740V770L292 867H350L447 770V740H395L363 773Q346 790 334.5 802.5Q323 815 323 815H319Q319 815 307.5 802.5Q296 790 279 773L247 740ZM88 225V680H161V223Q161 133 192 95.5Q223 58 305 58Q340 58 370.5 67.5Q401 77 423.5 89Q446 101 459 110.5Q472 120 472 120V680H545V0H486L476 58H474Q474 58 460 47.5Q446 37 421.5 25Q397 13 363.5 2.5Q330 -8 291 -8Q182 -8 135 45Q88 98 88 225Z" glyph-name="Ucircumflex" horiz-adv-x="644" unicode="&#219;" /><glyph d="M203 794Q203 814 214.5 827Q226 840 251 840Q276 840 288 827Q300 814 300 794V788Q300 768 288 755.5Q276 743 251 743Q226 743 214.5 755.5Q203 768 203 788ZM343 794Q343 814 355 827Q367 840 392 840Q417 840 428.5 827Q440 814 440 794V788Q440 768 428.5 755.5Q417 743 392 743Q367 743 355 755.5Q343 768 343 788ZM88 225V680H161V223Q161 133 192 95.5Q223 58 305 58Q340 58 370.5 67.5Q401 77 423.5 89Q446 101 459 110.5Q472 120 472 120V680H545V0H486L476 58H474Q474 58 460 47.5Q446 37 421.5 25Q397 13 363.5 2.5Q330 -8 291 -8Q182 -8 135 45Q88 98 88 225Z" glyph-name="Udieresis" horiz-adv-x="644" unicode="&#220;" /><glyph d="M199 882H245L377 794V734L199 824ZM88 225V680H161V223Q161 133 192 95.5Q223 58 305 58Q340 58 370.5 67.5Q401 77 423.5 89Q446 101 459 110.5Q472 120 472 120V680H545V0H486L476 58H474Q474 58 460 47.5Q446 37 421.5 25Q397 13 363.5 2.5Q330 -8 291 -8Q182 -8 135 45Q88 98 88 225Z" glyph-name="Ugrave" horiz-adv-x="644" unicode="&#217;" /><glyph d="M343 837 271 745H207L285 882H343ZM482 837 410 745H347L425 882H482ZM88 225V680H161V223Q161 133 192 95.5Q223 58 305 58Q340 58 370.5 67.5Q401 77 423.5 89Q446 101 459 110.5Q472 120 472 120V680H545V0H486L476 58H474Q474 58 460 47.5Q446 37 421.5 25Q397 13 363.5 2.5Q330 -8 291 -8Q182 -8 135 45Q88 98 88 225Z" glyph-name="Uhungarumlaut" horiz-adv-x="644" unicode="&#368;" /><glyph d="M181 852H460V788H181ZM88 225V680H161V223Q161 133 192 95.5Q223 58 305 58Q340 58 370.5 67.5Q401 77 423.5 89Q446 101 459 110.5Q472 120 472 120V680H545V0H486L476 58H474Q474 58 460 47.5Q446 37 421.5 25Q397 13 363.5 2.5Q330 -8 291 -8Q182 -8 135 45Q88 98 88 225Z" glyph-name="Umacron" horiz-adv-x="644" unicode="&#362;" /><glyph d="M88 225V680H161V223Q161 133 192 95.5Q223 58 305 58Q340 58 370.5 67.5Q401 77 423.5 89Q446 101 459 110.5Q472 120 472 120V680H545V0L503 -46Q489 -61 482.5 -71.5Q476 -82 476 -94Q476 -107 486.5 -116.5Q497 -126 514 -126H531V-181H511Q466 -181 440.5 -158.5Q415 -136 415 -99Q415 -71 428.5 -49Q442 -27 464 -3L483 17L476 58H474Q474 58 460 47.5Q446 37 421.5 25Q397 13 363.5 2.5Q330 -8 291 -8Q182 -8 135 45Q88 98 88 225Z" glyph-name="Uogonek" horiz-adv-x="644" unicode="&#370;" /><glyph d="M216 814Q216 861 245.5 890Q275 919 321 919Q367 919 396.5 890Q426 861 426 814Q426 767 396.5 738Q367 709 321 709Q275 709 245.5 738Q216 767 216 814ZM270 814Q270 792 283 776.5Q296 761 321 761Q346 761 359 776.5Q372 792 372 814Q372 836 359 851.5Q346 867 321 867Q296 867 283 851.5Q270 836 270 814ZM88 225V680H161V223Q161 133 192 95.5Q223 58 305 58Q340 58 370.5 67.5Q401 77 423.5 89Q446 101 459 110.5Q472 120 472 120V680H545V0H486L476 58H474Q474 58 460 47.5Q446 37 421.5 25Q397 13 363.5 2.5Q330 -8 291 -8Q182 -8 135 45Q88 98 88 225Z" glyph-name="Uring" horiz-adv-x="644" unicode="&#366;" /><glyph d="M150 752V797Q150 797 154.5 804Q159 811 169.5 819.5Q180 828 196.5 835Q213 842 238 842Q258 842 281 837Q304 832 321 826L342 817Q357 812 371 808.5Q385 805 398 805Q428 805 436 819Q444 833 444 833H491V787Q491 787 486.5 780Q482 773 471.5 764.5Q461 756 444.5 749Q428 742 403 742Q383 742 360 747Q337 752 320 759L299 767Q284 773 270 776.5Q256 780 243 780Q213 780 205 766Q197 752 197 752ZM88 225V680H161V223Q161 133 192 95.5Q223 58 305 58Q340 58 370.5 67.5Q401 77 423.5 89Q446 101 459 110.5Q472 120 472 120V680H545V0H486L476 58H474Q474 58 460 47.5Q446 37 421.5 25Q397 13 363.5 2.5Q330 -8 291 -8Q182 -8 135 45Q88 98 88 225Z" glyph-name="Utilde" horiz-adv-x="644" unicode="&#360;" /><glyph d="M32 680H99L237 211Q255 151 265 108.5Q275 66 275 66H299Q299 66 310 108.5Q321 151 339 211L478 680H538V633L351 0H219L32 633Z" glyph-name="V" horiz-adv-x="570" unicode="V" /><glyph d="M44 680H111L212 214Q227 146 233.5 106Q240 66 240 66H257Q257 66 264 106Q271 146 285 215L383 680H504L601 215Q615 146 621.5 106Q628 66 628 66H645Q645 66 652 106Q659 146 674 214L776 680H840V633L698 0H577L478 465Q473 489 468 515.5Q463 542 459 564Q455 586 452.5 600Q450 614 450 614H433Q433 614 430.5 600Q428 586 424 564Q420 542 415 515.5Q410 489 405 465L308 0H187L44 633Z" glyph-name="W" horiz-adv-x="883" unicode="W" /><glyph d="M560 882V824L382 734V794L514 882ZM44 680H111L212 214Q227 146 233.5 106Q240 66 240 66H257Q257 66 264 106Q271 146 285 215L383 680H504L601 215Q615 146 621.5 106Q628 66 628 66H645Q645 66 652 106Q659 146 674 214L776 680H840V633L698 0H577L478 465Q473 489 468 515.5Q463 542 459 564Q455 586 452.5 600Q450 614 450 614H433Q433 614 430.5 600Q428 586 424 564Q420 542 415 515.5Q410 489 405 465L308 0H187L44 633Z" glyph-name="Wacute" horiz-adv-x="883" unicode="&#7810;" /><glyph d="M315 740V770L412 867H470L567 770V740H515L483 773Q466 790 454.5 802.5Q443 815 443 815H439Q439 815 427.5 802.5Q416 790 399 773L367 740ZM44 680H111L212 214Q227 146 233.5 106Q240 66 240 66H257Q257 66 264 106Q271 146 285 215L383 680H504L601 215Q615 146 621.5 106Q628 66 628 66H645Q645 66 652 106Q659 146 674 214L776 680H840V633L698 0H577L478 465Q473 489 468 515.5Q463 542 459 564Q455 586 452.5 600Q450 614 450 614H433Q433 614 430.5 600Q428 586 424 564Q420 542 415 515.5Q410 489 405 465L308 0H187L44 633Z" glyph-name="Wcircumflex" horiz-adv-x="883" unicode="&#372;" /><glyph d="M323 794Q323 814 334.5 827Q346 840 371 840Q396 840 408 827Q420 814 420 794V788Q420 768 408 755.5Q396 743 371 743Q346 743 334.5 755.5Q323 768 323 788ZM463 794Q463 814 475 827Q487 840 512 840Q537 840 548.5 827Q560 814 560 794V788Q560 768 548.5 755.5Q537 743 512 743Q487 743 475 755.5Q463 768 463 788ZM44 680H111L212 214Q227 146 233.5 106Q240 66 240 66H257Q257 66 264 106Q271 146 285 215L383 680H504L601 215Q615 146 621.5 106Q628 66 628 66H645Q645 66 652 106Q659 146 674 214L776 680H840V633L698 0H577L478 465Q473 489 468 515.5Q463 542 459 564Q455 586 452.5 600Q450 614 450 614H433Q433 614 430.5 600Q428 586 424 564Q420 542 415 515.5Q410 489 405 465L308 0H187L44 633Z" glyph-name="Wdieresis" horiz-adv-x="883" unicode="&#7812;" /><glyph d="M320 882H366L498 794V734L320 824ZM44 680H111L212 214Q227 146 233.5 106Q240 66 240 66H257Q257 66 264 106Q271 146 285 215L383 680H504L601 215Q615 146 621.5 106Q628 66 628 66H645Q645 66 652 106Q659 146 674 214L776 680H840V633L698 0H577L478 465Q473 489 468 515.5Q463 542 459 564Q455 586 452.5 600Q450 614 450 614H433Q433 614 430.5 600Q428 586 424 564Q420 542 415 515.5Q410 489 405 465L308 0H187L44 633Z" glyph-name="Wgrave" horiz-adv-x="883" unicode="&#7808;" /><glyph d="M38 0V43L209 341V347L42 637V680H101L240 436Q251 417 262 397Q273 377 273 377H299Q299 377 310 397Q321 417 332 436L471 680H527V637L360 347V341L531 43V0H474L332 249Q321 268 309.5 289.5Q298 311 298 311H272Q272 311 260 289.5Q248 268 237 249L97 0Z" glyph-name="X" horiz-adv-x="569" unicode="X" /><glyph d="M152 58 228 66H229V270L20 633V680H81L208 453Q234 407 250 377Q266 347 266 347H270Q270 347 286.5 377Q303 407 329 453L456 680H510V633L302 270V66L377 58V0H152Z" glyph-name="Y" horiz-adv-x="530" unicode="Y" /><glyph d="M395 882V824L217 734V794L349 882ZM152 58 228 66H229V270L20 633V680H81L208 453Q234 407 250 377Q266 347 266 347H270Q270 347 286.5 377Q303 407 329 453L456 680H510V633L302 270V66L377 58V0H152Z" glyph-name="Yacute" horiz-adv-x="530" unicode="&#221;" /><glyph d="M141 740V770L238 867H296L393 770V740H341L309 773Q292 790 280.5 802.5Q269 815 269 815H265Q265 815 253.5 802.5Q242 790 225 773L193 740ZM152 58 228 66H229V270L20 633V680H81L208 453Q234 407 250 377Q266 347 266 347H270Q270 347 286.5 377Q303 407 329 453L456 680H510V633L302 270V66L377 58V0H152Z" glyph-name="Ycircumflex" horiz-adv-x="530" unicode="&#374;" /><glyph d="M149 794Q149 814 160.5 827Q172 840 197 840Q222 840 234 827Q246 814 246 794V788Q246 768 234 755.5Q222 743 197 743Q172 743 160.5 755.5Q149 768 149 788ZM289 794Q289 814 301 827Q313 840 338 840Q363 840 374.5 827Q386 814 386 794V788Q386 768 374.5 755.5Q363 743 338 743Q313 743 301 755.5Q289 768 289 788ZM152 58 228 66H229V270L20 633V680H81L208 453Q234 407 250 377Q266 347 266 347H270Q270 347 286.5 377Q303 407 329 453L456 680H510V633L302 270V66L377 58V0H152Z" glyph-name="Ydieresis" horiz-adv-x="530" unicode="&#376;" /><glyph d="M138 882H184L316 794V734L138 824ZM152 58 228 66H229V270L20 633V680H81L208 453Q234 407 250 377Q266 347 266 347H270Q270 347 286.5 377Q303 407 329 453L456 680H510V633L302 270V66L377 58V0H152Z" glyph-name="Ygrave" horiz-adv-x="530" unicode="&#7922;" /><glyph d="M44 0V73L330 518Q338 530 348.5 547Q359 564 368.5 578.5Q378 593 385 603.5Q392 614 392 614V616Q392 616 381.5 615.5Q371 615 355.5 614.5Q340 614 321.5 613.5Q303 613 286 613H54V680H472V607L186 162Q165 130 143.5 99Q122 68 122 68V66Q122 66 132 66Q142 66 156.5 66.5Q171 67 189 67Q207 67 222 67H479V0Z" glyph-name="Z" horiz-adv-x="523" unicode="Z" /><glyph d="M374 882V824L196 734V794L328 882ZM44 0V73L330 518Q338 530 348.5 547Q359 564 368.5 578.5Q378 593 385 603.5Q392 614 392 614V616Q392 616 381.5 615.5Q371 615 355.5 614.5Q340 614 321.5 613.5Q303 613 286 613H54V680H472V607L186 162Q165 130 143.5 99Q122 68 122 68V66Q122 66 132 66Q142 66 156.5 66.5Q171 67 189 67Q207 67 222 67H479V0Z" glyph-name="Zacute" horiz-adv-x="523" unicode="&#377;" /><glyph d="M133 867H185L217 834Q234 817 245.5 804.5Q257 792 257 792H261Q261 792 272.5 804.5Q284 817 301 834L333 867H385V837L288 740H230L133 837ZM44 0V73L330 518Q338 530 348.5 547Q359 564 368.5 578.5Q378 593 385 603.5Q392 614 392 614V616Q392 616 381.5 615.5Q371 615 355.5 614.5Q340 614 321.5 613.5Q303 613 286 613H54V680H472V607L186 162Q165 130 143.5 99Q122 68 122 68V66Q122 66 132 66Q142 66 156.5 66.5Q171 67 189 67Q207 67 222 67H479V0Z" glyph-name="Zcaron" horiz-adv-x="523" unicode="&#381;" /><glyph d="M211 800Q211 821 222.5 833.5Q234 846 259 846Q284 846 296 833.5Q308 821 308 800V794Q308 774 296 761.5Q284 749 259 749Q234 749 222.5 761.5Q211 774 211 794ZM44 0V73L330 518Q338 530 348.5 547Q359 564 368.5 578.5Q378 593 385 603.5Q392 614 392 614V616Q392 616 381.5 615.5Q371 615 355.5 614.5Q340 614 321.5 613.5Q303 613 286 613H54V680H472V607L186 162Q165 130 143.5 99Q122 68 122 68V66Q122 66 132 66Q142 66 156.5 66.5Q171 67 189 67Q207 67 222 67H479V0Z" glyph-name="Zdotaccent" horiz-adv-x="523" unicode="&#379;" /><glyph d="M92 417V476Q92 475 103 481Q114 487 134.5 494.5Q155 502 185.5 508Q216 514 256 514Q349 514 391.5 472Q434 430 434 354V0H376L366 56H364Q364 56 354 46Q344 36 324 24Q304 12 274.5 2Q245 -8 206 -8Q125 -8 89.5 33.5Q54 75 54 141Q54 209 94 248Q134 287 231 287H363V353Q363 402 334 425Q305 448 249 448Q193 448 171.5 432.5Q150 417 150 417ZM227 56Q260 56 285.5 65Q311 74 328 85Q345 96 354 105Q363 114 363 114V227H229Q169 227 147 202Q125 177 125 143Q125 97 147.5 76.5Q170 56 227 56Z" glyph-name="a" horiz-adv-x="518" unicode="a" /><glyph d="M56 229V279Q56 403 108 458.5Q160 514 240 514Q278 514 307 505.5Q336 497 355.5 487.5Q375 478 385 469.5Q395 461 395 461H397L408 508H466V0H408L398 56H396Q396 56 385.5 46.5Q375 37 354.5 25Q334 13 303.5 3.5Q273 -6 233 -6Q150 -6 103 49.5Q56 105 56 229ZM257 59Q289 59 315 68Q341 77 358.5 87.5Q376 98 385.5 107Q395 116 395 116V400Q395 400 386.5 408Q378 416 361.5 425Q345 434 320.5 442Q296 450 264 450Q197 450 163 409.5Q129 369 129 264V243Q129 138 158.5 98.5Q188 59 257 59Z" glyph-name="a.alt" horiz-adv-x="555" /><glyph d="M305 740H363V695L286 573H225ZM92 417V476Q92 475 103 481Q114 487 134.5 494.5Q155 502 185.5 508Q216 514 256 514Q349 514 391.5 472Q434 430 434 354V0H376L366 56H364Q364 56 354 46Q344 36 324 24Q304 12 274.5 2Q245 -8 206 -8Q125 -8 89.5 33.5Q54 75 54 141Q54 209 94 248Q134 287 231 287H363V353Q363 402 334 425Q305 448 249 448Q193 448 171.5 432.5Q150 417 150 417ZM227 56Q260 56 285.5 65Q311 74 328 85Q345 96 354 105Q363 114 363 114V227H229Q169 227 147 202Q125 177 125 143Q125 97 147.5 76.5Q170 56 227 56Z" glyph-name="aacute" horiz-adv-x="518" unicode="&#225;" /><glyph d="M311 740H369V695L292 573H231ZM56 229V279Q56 403 108 458.5Q160 514 240 514Q278 514 307 505.5Q336 497 355.5 487.5Q375 478 385 469.5Q395 461 395 461H397L408 508H466V0H408L398 56H396Q396 56 385.5 46.5Q375 37 354.5 25Q334 13 303.5 3.5Q273 -6 233 -6Q150 -6 103 49.5Q56 105 56 229ZM257 59Q289 59 315 68Q341 77 358.5 87.5Q376 98 385.5 107Q395 116 395 116V400Q395 400 386.5 408Q378 416 361.5 425Q345 434 320.5 442Q296 450 264 450Q197 450 163 409.5Q129 369 129 264V243Q129 138 158.5 98.5Q188 59 257 59Z" glyph-name="aacute.alt" horiz-adv-x="555" /><glyph d="M120 703H175Q175 703 177 693.5Q179 684 186.5 673Q194 662 209.5 652.5Q225 643 252 643Q279 643 294.5 652.5Q310 662 317.5 673Q325 684 327 693.5Q329 703 329 703H384V659Q384 659 378 647Q372 635 357 621Q342 607 316.5 595Q291 583 252 583Q213 583 187.5 595Q162 607 147 621Q132 635 126 647Q120 659 120 659ZM92 417V476Q92 475 103 481Q114 487 134.5 494.5Q155 502 185.5 508Q216 514 256 514Q349 514 391.5 472Q434 430 434 354V0H376L366 56H364Q364 56 354 46Q344 36 324 24Q304 12 274.5 2Q245 -8 206 -8Q125 -8 89.5 33.5Q54 75 54 141Q54 209 94 248Q134 287 231 287H363V353Q363 402 334 425Q305 448 249 448Q193 448 171.5 432.5Q150 417 150 417ZM227 56Q260 56 285.5 65Q311 74 328 85Q345 96 354 105Q363 114 363 114V227H229Q169 227 147 202Q125 177 125 143Q125 97 147.5 76.5Q170 56 227 56Z" glyph-name="abreve" horiz-adv-x="518" unicode="&#259;" /><glyph d="M134 703H189Q189 703 191 693.5Q193 684 200.5 673Q208 662 223.5 652.5Q239 643 266 643Q293 643 308.5 652.5Q324 662 331.5 673Q339 684 341 693.5Q343 703 343 703H398V659Q398 659 392 647Q386 635 371 621Q356 607 330.5 595Q305 583 266 583Q227 583 201.5 595Q176 607 161 621Q146 635 140 647Q134 659 134 659ZM56 229V279Q56 403 108 458.5Q160 514 240 514Q278 514 307 505.5Q336 497 355.5 487.5Q375 478 385 469.5Q395 461 395 461H397L408 508H466V0H408L398 56H396Q396 56 385.5 46.5Q375 37 354.5 25Q334 13 303.5 3.5Q273 -6 233 -6Q150 -6 103 49.5Q56 105 56 229ZM257 59Q289 59 315 68Q341 77 358.5 87.5Q376 98 385.5 107Q395 116 395 116V400Q395 400 386.5 408Q378 416 361.5 425Q345 434 320.5 442Q296 450 264 450Q197 450 163 409.5Q129 369 129 264V243Q129 138 158.5 98.5Q188 59 257 59Z" glyph-name="abreve.alt" horiz-adv-x="555" /><glyph d="M115 573V603L221 740H283L389 603V573H338L288 640Q273 659 263.5 673Q254 687 254 687H250Q250 687 240.5 673Q231 659 216 640L166 573ZM92 417V476Q92 475 103 481Q114 487 134.5 494.5Q155 502 185.5 508Q216 514 256 514Q349 514 391.5 472Q434 430 434 354V0H376L366 56H364Q364 56 354 46Q344 36 324 24Q304 12 274.5 2Q245 -8 206 -8Q125 -8 89.5 33.5Q54 75 54 141Q54 209 94 248Q134 287 231 287H363V353Q363 402 334 425Q305 448 249 448Q193 448 171.5 432.5Q150 417 150 417ZM227 56Q260 56 285.5 65Q311 74 328 85Q345 96 354 105Q363 114 363 114V227H229Q169 227 147 202Q125 177 125 143Q125 97 147.5 76.5Q170 56 227 56Z" glyph-name="acircumflex" horiz-adv-x="518" unicode="&#226;" /><glyph d="M129 573V603L235 740H297L403 603V573H352L302 640Q287 659 277.5 673Q268 687 268 687H264Q264 687 254.5 673Q245 659 230 640L180 573ZM56 229V279Q56 403 108 458.5Q160 514 240 514Q278 514 307 505.5Q336 497 355.5 487.5Q375 478 385 469.5Q395 461 395 461H397L408 508H466V0H408L398 56H396Q396 56 385.5 46.5Q375 37 354.5 25Q334 13 303.5 3.5Q273 -6 233 -6Q150 -6 103 49.5Q56 105 56 229ZM257 59Q289 59 315 68Q341 77 358.5 87.5Q376 98 385.5 107Q395 116 395 116V400Q395 400 386.5 408Q378 416 361.5 425Q345 434 320.5 442Q296 450 264 450Q197 450 163 409.5Q129 369 129 264V243Q129 138 158.5 98.5Q188 59 257 59Z" glyph-name="acircumflex.alt" horiz-adv-x="555" /><glyph d="M100 740H158V695L81 573H20Z" glyph-name="acute" horiz-adv-x="178" unicode="&#180;" /><glyph d="M100 740H158V695L81 573H20Z" glyph-name="acutecomb" horiz-adv-x="178" unicode="&#769;" /><glyph d="M208 882V824L30 734V794L162 882Z" glyph-name="acutecomb.case" horiz-adv-x="238" /><glyph d="M134 639Q134 659 145.5 672Q157 685 182 685Q207 685 219 672Q231 659 231 639V633Q231 613 219 600.5Q207 588 182 588Q157 588 145.5 600.5Q134 613 134 633ZM274 639Q274 659 286 672Q298 685 323 685Q348 685 359.5 672Q371 659 371 639V633Q371 613 359.5 600.5Q348 588 323 588Q298 588 286 600.5Q274 613 274 633ZM92 417V476Q92 475 103 481Q114 487 134.5 494.5Q155 502 185.5 508Q216 514 256 514Q349 514 391.5 472Q434 430 434 354V0H376L366 56H364Q364 56 354 46Q344 36 324 24Q304 12 274.5 2Q245 -8 206 -8Q125 -8 89.5 33.5Q54 75 54 141Q54 209 94 248Q134 287 231 287H363V353Q363 402 334 425Q305 448 249 448Q193 448 171.5 432.5Q150 417 150 417ZM227 56Q260 56 285.5 65Q311 74 328 85Q345 96 354 105Q363 114 363 114V227H229Q169 227 147 202Q125 177 125 143Q125 97 147.5 76.5Q170 56 227 56Z" glyph-name="adieresis" horiz-adv-x="518" unicode="&#228;" /><glyph d="M148 639Q148 659 159.5 672Q171 685 196 685Q221 685 233 672Q245 659 245 639V633Q245 613 233 600.5Q221 588 196 588Q171 588 159.5 600.5Q148 613 148 633ZM288 639Q288 659 300 672Q312 685 337 685Q362 685 373.5 672Q385 659 385 639V633Q385 613 373.5 600.5Q362 588 337 588Q312 588 300 600.5Q288 613 288 633ZM56 229V279Q56 403 108 458.5Q160 514 240 514Q278 514 307 505.5Q336 497 355.5 487.5Q375 478 385 469.5Q395 461 395 461H397L408 508H466V0H408L398 56H396Q396 56 385.5 46.5Q375 37 354.5 25Q334 13 303.5 3.5Q273 -6 233 -6Q150 -6 103 49.5Q56 105 56 229ZM257 59Q289 59 315 68Q341 77 358.5 87.5Q376 98 385.5 107Q395 116 395 116V400Q395 400 386.5 408Q378 416 361.5 425Q345 434 320.5 442Q296 450 264 450Q197 450 163 409.5Q129 369 129 264V243Q129 138 158.5 98.5Q188 59 257 59Z" glyph-name="adieresis.alt" horiz-adv-x="555" /><glyph d="M92 414V473Q92 473 103 479.5Q114 486 134.5 493.5Q155 501 185 507.5Q215 514 253 514Q312 514 350.5 496.5Q389 479 409 446Q434 481 472.5 498.5Q511 516 560 516Q601 516 637.5 505.5Q674 495 700.5 470Q727 445 742 403.5Q757 362 757 300Q757 277 754.5 252Q752 227 752 227H433Q434 150 463 103.5Q492 57 574 57Q632 57 656.5 72Q681 87 681 87H739V28Q739 28 728 22.5Q717 17 695.5 10Q674 3 642.5 -2.5Q611 -8 570 -8Q511 -8 468 13Q425 34 400 74Q393 65 377.5 51.5Q362 38 339 24.5Q316 11 284 1.5Q252 -8 212 -8Q131 -8 92.5 33Q54 74 54 140Q54 208 94 247.5Q134 287 231 287H360V353Q360 402 331 424.5Q302 447 246 447Q218 447 199.5 442Q181 437 170 430.5Q159 424 154.5 419Q150 414 150 414ZM433 288V287H683Q683 287 683.5 295Q684 303 684 313Q684 387 653.5 420Q623 453 560 453Q509 453 471 418Q433 383 433 288ZM232 56Q263 56 287 65Q311 74 328.5 86Q346 98 357.5 111Q369 124 374 132Q368 153 364.5 176.5Q361 200 360 227H229Q169 227 147 203.5Q125 180 125 146Q125 102 149 79Q173 56 232 56Z" glyph-name="ae" horiz-adv-x="813" unicode="&#230;" /><glyph d="M449 740H507V695L430 573H369ZM92 414V473Q92 473 103 479.5Q114 486 134.5 493.5Q155 501 185 507.5Q215 514 253 514Q312 514 350.5 496.5Q389 479 409 446Q434 481 472.5 498.5Q511 516 560 516Q601 516 637.5 505.5Q674 495 700.5 470Q727 445 742 403.5Q757 362 757 300Q757 277 754.5 252Q752 227 752 227H433Q434 150 463 103.5Q492 57 574 57Q632 57 656.5 72Q681 87 681 87H739V28Q739 28 728 22.5Q717 17 695.5 10Q674 3 642.5 -2.5Q611 -8 570 -8Q511 -8 468 13Q425 34 400 74Q393 65 377.5 51.5Q362 38 339 24.5Q316 11 284 1.5Q252 -8 212 -8Q131 -8 92.5 33Q54 74 54 140Q54 208 94 247.5Q134 287 231 287H360V353Q360 402 331 424.5Q302 447 246 447Q218 447 199.5 442Q181 437 170 430.5Q159 424 154.5 419Q150 414 150 414ZM433 288V287H683Q683 287 683.5 295Q684 303 684 313Q684 387 653.5 420Q623 453 560 453Q509 453 471 418Q433 383 433 288ZM232 56Q263 56 287 65Q311 74 328.5 86Q346 98 357.5 111Q369 124 374 132Q368 153 364.5 176.5Q361 200 360 227H229Q169 227 147 203.5Q125 180 125 146Q125 102 149 79Q173 56 232 56Z" glyph-name="aeacute" horiz-adv-x="813" unicode="&#509;" /><glyph d="M209 740 289 573H228L151 695V740ZM92 417V476Q92 475 103 481Q114 487 134.5 494.5Q155 502 185.5 508Q216 514 256 514Q349 514 391.5 472Q434 430 434 354V0H376L366 56H364Q364 56 354 46Q344 36 324 24Q304 12 274.5 2Q245 -8 206 -8Q125 -8 89.5 33.5Q54 75 54 141Q54 209 94 248Q134 287 231 287H363V353Q363 402 334 425Q305 448 249 448Q193 448 171.5 432.5Q150 417 150 417ZM227 56Q260 56 285.5 65Q311 74 328 85Q345 96 354 105Q363 114 363 114V227H229Q169 227 147 202Q125 177 125 143Q125 97 147.5 76.5Q170 56 227 56Z" glyph-name="agrave" horiz-adv-x="518" unicode="&#224;" /><glyph d="M241 740 321 573H260L183 695V740ZM56 229V279Q56 403 108 458.5Q160 514 240 514Q278 514 307 505.5Q336 497 355.5 487.5Q375 478 385 469.5Q395 461 395 461H397L408 508H466V0H408L398 56H396Q396 56 385.5 46.5Q375 37 354.5 25Q334 13 303.5 3.5Q273 -6 233 -6Q150 -6 103 49.5Q56 105 56 229ZM257 59Q289 59 315 68Q341 77 358.5 87.5Q376 98 385.5 107Q395 116 395 116V400Q395 400 386.5 408Q378 416 361.5 425Q345 434 320.5 442Q296 450 264 450Q197 450 163 409.5Q129 369 129 264V243Q129 138 158.5 98.5Q188 59 257 59Z" glyph-name="agrave.alt" horiz-adv-x="555" /><glyph d="M112 680H391V616H112ZM92 417V476Q92 475 103 481Q114 487 134.5 494.5Q155 502 185.5 508Q216 514 256 514Q349 514 391.5 472Q434 430 434 354V0H376L366 56H364Q364 56 354 46Q344 36 324 24Q304 12 274.5 2Q245 -8 206 -8Q125 -8 89.5 33.5Q54 75 54 141Q54 209 94 248Q134 287 231 287H363V353Q363 402 334 425Q305 448 249 448Q193 448 171.5 432.5Q150 417 150 417ZM227 56Q260 56 285.5 65Q311 74 328 85Q345 96 354 105Q363 114 363 114V227H229Q169 227 147 202Q125 177 125 143Q125 97 147.5 76.5Q170 56 227 56Z" glyph-name="amacron" horiz-adv-x="518" unicode="&#257;" /><glyph d="M126 680H405V616H126ZM56 229V279Q56 403 108 458.5Q160 514 240 514Q278 514 307 505.5Q336 497 355.5 487.5Q375 478 385 469.5Q395 461 395 461H397L408 508H466V0H408L398 56H396Q396 56 385.5 46.5Q375 37 354.5 25Q334 13 303.5 3.5Q273 -6 233 -6Q150 -6 103 49.5Q56 105 56 229ZM257 59Q289 59 315 68Q341 77 358.5 87.5Q376 98 385.5 107Q395 116 395 116V400Q395 400 386.5 408Q378 416 361.5 425Q345 434 320.5 442Q296 450 264 450Q197 450 163 409.5Q129 369 129 264V243Q129 138 158.5 98.5Q188 59 257 59Z" glyph-name="amacron.alt" horiz-adv-x="555" /><glyph d="M71 164Q71 227 106.5 266Q142 305 189 333Q150 374 126 417Q102 460 102 521Q102 596 151 643Q200 690 287 690Q374 690 423.5 644.5Q473 599 473 526Q473 471 442.5 426.5Q412 382 337 342L300 322L461 167Q467 186 470.5 208.5Q474 231 474 257V341H540V258Q540 218 533 182.5Q526 147 512 117L584 47V0H531L471 59Q439 27 390.5 9Q342 -9 277 -9Q218 -9 178 6Q138 21 114.5 45Q91 69 81 100.5Q71 132 71 164ZM175 523Q175 477 192.5 444.5Q210 412 253 368L294 391Q363 427 381.5 459.5Q400 492 400 526Q400 575 370.5 601Q341 627 287 627Q234 627 204.5 600Q175 573 175 523ZM144 161Q144 115 175.5 84Q207 53 277 53Q323 53 360.5 65.5Q398 78 423 105L236 287Q199 265 171.5 236Q144 207 144 161Z" glyph-name="ampersand" horiz-adv-x="613" unicode="&amp;" /><glyph d="M92 417V476Q92 475 103 481Q114 487 134.5 494.5Q155 502 185.5 508Q216 514 256 514Q349 514 391.5 472Q434 430 434 354V0L392 -46Q378 -61 371.5 -71.5Q365 -82 365 -94Q365 -107 375.5 -116.5Q386 -126 403 -126H420V-181H400Q355 -181 329.5 -158.5Q304 -136 304 -99Q304 -71 317.5 -49Q331 -27 353 -3L373 18L366 56H364Q364 56 354 46Q344 36 324 24Q304 12 274.5 2Q245 -8 206 -8Q125 -8 89.5 33.5Q54 75 54 141Q54 209 94 248Q134 287 231 287H363V353Q363 402 334 425Q305 448 249 448Q193 448 171.5 432.5Q150 417 150 417ZM227 56Q260 56 285.5 65Q311 74 328 85Q345 96 354 105Q363 114 363 114V227H229Q169 227 147 202Q125 177 125 143Q125 97 147.5 76.5Q170 56 227 56Z" glyph-name="aogonek" horiz-adv-x="518" unicode="&#261;" /><glyph d="M56 229V279Q56 403 108 458.5Q160 514 240 514Q278 514 307 505.5Q336 497 355.5 487.5Q375 478 385 469.5Q395 461 395 461H397L408 508H466V0L424 -46Q410 -61 403.5 -71.5Q397 -82 397 -94Q397 -107 407.5 -116.5Q418 -126 435 -126H452V-181H432Q387 -181 361.5 -158.5Q336 -136 336 -99Q336 -71 349.5 -49Q363 -27 385 -3L405 18L398 56H396Q396 56 385.5 46.5Q375 37 354.5 25Q334 13 303.5 3.5Q273 -6 233 -6Q150 -6 103 49.5Q56 105 56 229ZM257 59Q289 59 315 68Q341 77 358.5 87.5Q376 98 385.5 107Q395 116 395 116V400Q395 400 386.5 408Q378 416 361.5 425Q345 434 320.5 442Q296 450 264 450Q197 450 163 409.5Q129 369 129 264V243Q129 138 158.5 98.5Q188 59 257 59Z" glyph-name="aogonek.alt" horiz-adv-x="555" /><glyph d="M147 665Q147 712 176.5 741Q206 770 252 770Q298 770 327.5 741Q357 712 357 665Q357 618 327.5 589Q298 560 252 560Q206 560 176.5 589Q147 618 147 665ZM201 665Q201 643 214 627.5Q227 612 252 612Q277 612 290 627.5Q303 643 303 665Q303 687 290 702.5Q277 718 252 718Q227 718 214 702.5Q201 687 201 665ZM92 417V476Q92 475 103 481Q114 487 134.5 494.5Q155 502 185.5 508Q216 514 256 514Q349 514 391.5 472Q434 430 434 354V0H376L366 56H364Q364 56 354 46Q344 36 324 24Q304 12 274.5 2Q245 -8 206 -8Q125 -8 89.5 33.5Q54 75 54 141Q54 209 94 248Q134 287 231 287H363V353Q363 402 334 425Q305 448 249 448Q193 448 171.5 432.5Q150 417 150 417ZM227 56Q260 56 285.5 65Q311 74 328 85Q345 96 354 105Q363 114 363 114V227H229Q169 227 147 202Q125 177 125 143Q125 97 147.5 76.5Q170 56 227 56Z" glyph-name="aring" horiz-adv-x="518" unicode="&#229;" /><glyph d="M161 665Q161 712 190.5 741Q220 770 266 770Q312 770 341.5 741Q371 712 371 665Q371 618 341.5 589Q312 560 266 560Q220 560 190.5 589Q161 618 161 665ZM215 665Q215 643 228 627.5Q241 612 266 612Q291 612 304 627.5Q317 643 317 665Q317 687 304 702.5Q291 718 266 718Q241 718 228 702.5Q215 687 215 665ZM56 229V279Q56 403 108 458.5Q160 514 240 514Q278 514 307 505.5Q336 497 355.5 487.5Q375 478 385 469.5Q395 461 395 461H397L408 508H466V0H408L398 56H396Q396 56 385.5 46.5Q375 37 354.5 25Q334 13 303.5 3.5Q273 -6 233 -6Q150 -6 103 49.5Q56 105 56 229ZM257 59Q289 59 315 68Q341 77 358.5 87.5Q376 98 385.5 107Q395 116 395 116V400Q395 400 386.5 408Q378 416 361.5 425Q345 434 320.5 442Q296 450 264 450Q197 450 163 409.5Q129 369 129 264V243Q129 138 158.5 98.5Q188 59 257 59Z" glyph-name="aring.alt" horiz-adv-x="555" /><glyph d="M343 895V837L165 747V807L297 895ZM144 645Q144 692 173.5 721Q203 750 249 750Q295 750 324.5 721Q354 692 354 645Q354 598 324.5 569Q295 540 249 540Q203 540 173.5 569Q144 598 144 645ZM198 645Q198 623 211 607.5Q224 592 249 592Q274 592 287 607.5Q300 623 300 645Q300 667 287 682.5Q274 698 249 698Q224 698 211 682.5Q198 667 198 645ZM92 417V476Q92 475 103 481Q114 487 134.5 494.5Q155 502 185.5 508Q216 514 256 514Q349 514 391.5 472Q434 430 434 354V0H376L366 56H364Q364 56 354 46Q344 36 324 24Q304 12 274.5 2Q245 -8 206 -8Q125 -8 89.5 33.5Q54 75 54 141Q54 209 94 248Q134 287 231 287H363V353Q363 402 334 425Q305 448 249 448Q193 448 171.5 432.5Q150 417 150 417ZM227 56Q260 56 285.5 65Q311 74 328 85Q345 96 354 105Q363 114 363 114V227H229Q169 227 147 202Q125 177 125 143Q125 97 147.5 76.5Q170 56 227 56Z" glyph-name="aringacute" horiz-adv-x="518" unicode="&#507;" /><glyph d="M263 680H337L504 263V220H450L352 466Q343 488 334 510.5Q325 533 318 551.5Q311 570 306.5 581.5Q302 593 302 593H298Q298 593 293.5 581.5Q289 570 282 551.5Q275 533 266 510.5Q257 488 248 466L151 220H96V263Z" glyph-name="asciicircum" horiz-adv-x="600" unicode="^" /><glyph d="M69 253V308Q69 308 75.5 315.5Q82 323 96 332.5Q110 342 133.5 349.5Q157 357 191 357Q218 357 243.5 351Q269 345 294 336L322 326Q332 322 356.5 313.5Q381 305 409 305Q434 305 448 311Q462 317 469.5 323.5Q477 330 479 336Q481 342 481 342H531V287Q531 287 524.5 279.5Q518 272 504 263Q490 254 466.5 246.5Q443 239 409 239Q382 239 356.5 245Q331 251 306 260L278 270Q268 274 243.5 282.5Q219 291 191 291Q166 291 152 285Q138 279 130.5 272Q123 265 121 259Q119 253 119 253Z" glyph-name="asciitilde" horiz-adv-x="600" unicode="~" /><glyph d="M180 681H237V623Q237 599 234.5 573Q232 547 232 547L233 546Q233 546 255 560.5Q277 575 297 587L348 616L376 566L327 537Q306 525 283 513.5Q260 502 260 502V501Q260 501 283 489.5Q306 478 327 466L376 437L348 388L297 417Q277 429 255 443.5Q233 458 233 458L232 457Q232 457 234.5 431Q237 405 237 381V323H180V381Q180 405 182 431Q184 457 184 457L183 458Q183 458 161.5 443.5Q140 429 120 417L69 388L41 437L91 466Q112 478 135.5 489.5Q159 501 159 501V502Q159 502 135.5 513.5Q112 525 91 537L41 566L69 616L120 587Q140 575 161.5 560.5Q183 546 183 546L184 547Q184 547 182 573Q180 599 180 623Z" glyph-name="asterisk" horiz-adv-x="417" unicode="*" /><glyph d="M731 -40V-93Q731 -93 715.5 -103Q700 -113 668 -124.5Q636 -136 587 -146Q538 -156 472 -156Q279 -156 183.5 -55.5Q88 45 88 220V287Q88 462 181 562.5Q274 663 467 663Q663 663 757.5 568.5Q852 474 852 308V296Q852 179 807 121Q762 63 683 63Q652 63 630 72Q608 81 595 92.5Q582 104 576 113Q570 122 570 122H568Q568 122 561 113Q554 104 539.5 92.5Q525 81 502.5 72Q480 63 451 63Q379 63 342 108Q305 153 305 240V265Q305 352 342 397Q379 442 451 442Q474 442 492.5 435Q511 428 523.5 419Q536 410 543 403Q550 396 550 396H552L560 433H617V226Q617 206 617.5 187.5Q618 169 624 154.5Q630 140 645 131Q660 122 688 122Q729 122 753.5 155.5Q778 189 778 274V307Q778 375 763 429Q748 483 712 520Q676 557 616 577Q556 597 467 597Q307 597 234.5 513.5Q162 430 162 287V220Q162 77 237 -6.5Q312 -90 472 -90Q523 -90 562.5 -82Q602 -74 628.5 -65Q655 -56 668.5 -48Q682 -40 682 -40ZM374 240Q374 171 397.5 147Q421 123 464 123Q483 123 498.5 129Q514 135 525 142Q536 149 542 155Q548 161 548 161V344Q548 344 542 350Q536 356 525 363.5Q514 371 498.5 377Q483 383 464 383Q421 383 397.5 358.5Q374 334 374 265Z" glyph-name="at" horiz-adv-x="940" unicode="@" /><glyph d="M731 25V-28Q731 -28 715.5 -38Q700 -48 668 -59.5Q636 -71 587 -81Q538 -91 472 -91Q279 -91 183.5 9.5Q88 110 88 285V352Q88 527 181 627.5Q274 728 467 728Q663 728 757.5 633.5Q852 539 852 373V361Q852 244 807 186Q762 128 683 128Q652 128 630 137Q608 146 595 157.5Q582 169 576 178Q570 187 570 187H568Q568 187 561 178Q554 169 539.5 157.5Q525 146 502.5 137Q480 128 451 128Q379 128 342 173Q305 218 305 305V330Q305 417 342 462Q379 507 451 507Q474 507 492.5 500Q511 493 523.5 484Q536 475 543 468Q550 461 550 461H552L560 498H617V291Q617 271 617.5 252.5Q618 234 624 219.5Q630 205 645 196Q660 187 688 187Q729 187 753.5 220.5Q778 254 778 339V372Q778 440 763 494Q748 548 712 585Q676 622 616 642Q556 662 467 662Q307 662 234.5 578.5Q162 495 162 352V285Q162 142 237 58.5Q312 -25 472 -25Q523 -25 562.5 -17Q602 -9 628.5 0Q655 9 668.5 17Q682 25 682 25ZM374 305Q374 236 397.5 212Q421 188 464 188Q483 188 498.5 194Q514 200 525 207Q536 214 542 220Q548 226 548 226V409Q548 409 542 415Q536 421 525 428.5Q514 436 498.5 442Q483 448 464 448Q421 448 397.5 423.5Q374 399 374 330Z" glyph-name="at.case" horiz-adv-x="940" /><glyph d="M81 610V655Q81 655 85.5 662Q90 669 100.5 677.5Q111 686 127.5 693Q144 700 169 700Q189 700 212 695Q235 690 252 684L273 675Q288 670 302 666.5Q316 663 329 663Q359 663 367 677Q375 691 375 691H422V645Q422 645 417.5 638Q413 631 402.5 622.5Q392 614 375.5 607Q359 600 334 600Q314 600 291 605Q268 610 251 617L230 625Q215 631 201 634.5Q187 638 174 638Q144 638 136 624Q128 610 128 610ZM92 417V476Q92 475 103 481Q114 487 134.5 494.5Q155 502 185.5 508Q216 514 256 514Q349 514 391.5 472Q434 430 434 354V0H376L366 56H364Q364 56 354 46Q344 36 324 24Q304 12 274.5 2Q245 -8 206 -8Q125 -8 89.5 33.5Q54 75 54 141Q54 209 94 248Q134 287 231 287H363V353Q363 402 334 425Q305 448 249 448Q193 448 171.5 432.5Q150 417 150 417ZM227 56Q260 56 285.5 65Q311 74 328 85Q345 96 354 105Q363 114 363 114V227H229Q169 227 147 202Q125 177 125 143Q125 97 147.5 76.5Q170 56 227 56Z" glyph-name="atilde" horiz-adv-x="518" unicode="&#227;" /><glyph d="M95 610V655Q95 655 99.5 662Q104 669 114.5 677.5Q125 686 141.5 693Q158 700 183 700Q203 700 226 695Q249 690 266 684L287 675Q302 670 316 666.5Q330 663 343 663Q373 663 381 677Q389 691 389 691H436V645Q436 645 431.5 638Q427 631 416.5 622.5Q406 614 389.5 607Q373 600 348 600Q328 600 305 605Q282 610 265 617L244 625Q229 631 215 634.5Q201 638 188 638Q158 638 150 624Q142 610 142 610ZM56 229V279Q56 403 108 458.5Q160 514 240 514Q278 514 307 505.5Q336 497 355.5 487.5Q375 478 385 469.5Q395 461 395 461H397L408 508H466V0H408L398 56H396Q396 56 385.5 46.5Q375 37 354.5 25Q334 13 303.5 3.5Q273 -6 233 -6Q150 -6 103 49.5Q56 105 56 229ZM257 59Q289 59 315 68Q341 77 358.5 87.5Q376 98 385.5 107Q395 116 395 116V400Q395 400 386.5 408Q378 416 361.5 425Q345 434 320.5 442Q296 450 264 450Q197 450 163 409.5Q129 369 129 264V243Q129 138 158.5 98.5Q188 59 257 59Z" glyph-name="atilde.alt" horiz-adv-x="555" /><glyph d="M322 514Q405 514 452 458Q499 402 499 277V231Q499 107 446.5 50.5Q394 -6 313 -6Q275 -6 246.5 3.5Q218 13 199 25Q180 37 170 46.5Q160 56 160 56H158L147 0H90V740H161V551Q161 536 161 518.5Q161 501 160.5 486Q160 471 160 461Q160 451 160 451H162Q162 451 172 461Q182 471 202 482.5Q222 494 252 504Q282 514 322 514ZM161 114Q161 114 169.5 105Q178 96 194 86Q210 76 234.5 67Q259 58 291 58Q358 58 392 99.5Q426 141 426 246V263Q426 368 396.5 408.5Q367 449 298 449Q266 449 240.5 440Q215 431 197.5 420Q180 409 170.5 400Q161 391 161 391Z" glyph-name="b" horiz-adv-x="555" unicode="b" /><glyph d="M67 680 337 46V0H282L11 634V680Z" glyph-name="backslash" horiz-adv-x="348" unicode="\" /><glyph d="M98 818H169V-138H98Z" glyph-name="bar" horiz-adv-x="268" unicode="|" /><glyph d="M63 243V307Q103 307 119.5 324.5Q136 342 136 376V550Q136 601 148.5 635Q161 669 175.5 688.5Q190 708 202.5 715.5Q215 723 215 723H272V673Q272 673 262 670Q252 667 240.5 655.5Q229 644 219 623Q209 602 209 566V387Q209 346 193.5 318.5Q178 291 147 277V273Q178 259 193.5 231.5Q209 204 209 163V-16Q209 -52 219 -73Q229 -94 240.5 -105.5Q252 -117 262 -120Q272 -123 272 -123V-173H215Q215 -173 202.5 -165.5Q190 -158 175.5 -138.5Q161 -119 148.5 -85Q136 -51 136 0V174Q136 208 119.5 225.5Q103 243 63 243Z" glyph-name="braceleft" horiz-adv-x="292" unicode="{" /><glyph d="M63 308V372Q103 372 119.5 389.5Q136 407 136 441V615Q136 666 148.5 700Q161 734 175.5 753.5Q190 773 202.5 780.5Q215 788 215 788H272V738Q272 738 262 735Q252 732 240.5 720.5Q229 709 219 688Q209 667 209 631V452Q209 411 193.5 383.5Q178 356 147 342V338Q178 324 193.5 296.5Q209 269 209 228V49Q209 13 219 -8Q229 -29 240.5 -40.5Q252 -52 262 -55Q272 -58 272 -58V-108H215Q215 -108 202.5 -100.5Q190 -93 175.5 -73.5Q161 -54 148.5 -20Q136 14 136 65V239Q136 273 119.5 290.5Q103 308 63 308Z" glyph-name="braceleft.case" horiz-adv-x="292" /><glyph d="M229 243Q189 243 172.5 225.5Q156 208 156 174V0Q156 -51 143.5 -85Q131 -119 116.5 -138.5Q102 -158 89.5 -165.5Q77 -173 77 -173H20V-123Q20 -123 30 -120Q40 -117 51.5 -105.5Q63 -94 73 -73Q83 -52 83 -16V163Q83 204 98.5 231.5Q114 259 145 273V277Q114 291 98.5 318.5Q83 346 83 387V566Q83 602 73 623Q63 644 51.5 655.5Q40 667 30 670Q20 673 20 673V723H77Q77 723 89.5 715.5Q102 708 116.5 688.5Q131 669 143.5 635Q156 601 156 550V376Q156 342 172.5 324.5Q189 307 229 307Z" glyph-name="braceright" horiz-adv-x="292" unicode="}" /><glyph d="M229 308Q189 308 172.5 290.5Q156 273 156 239V65Q156 14 143.5 -20Q131 -54 116.5 -73.5Q102 -93 89.5 -100.5Q77 -108 77 -108H20V-58Q20 -58 30 -55Q40 -52 51.5 -40.5Q63 -29 73 -8Q83 13 83 49V228Q83 269 98.5 296.5Q114 324 145 338V342Q114 356 98.5 383.5Q83 411 83 452V631Q83 667 73 688Q63 709 51.5 720.5Q40 732 30 735Q20 738 20 738V788H77Q77 788 89.5 780.5Q102 773 116.5 753.5Q131 734 143.5 700Q156 666 156 615V441Q156 407 172.5 389.5Q189 372 229 372Z" glyph-name="braceright.case" horiz-adv-x="292" /><glyph d="M115 723H284V656H188V-106H284V-173H115Z" glyph-name="bracketleft" horiz-adv-x="304" unicode="[" /><glyph d="M115 788H284V721H188V-41H284V-108H115Z" glyph-name="bracketleft.case" horiz-adv-x="304" /><glyph d="M189 723V-173H20V-106H116V656H20V723Z" glyph-name="bracketright" horiz-adv-x="304" unicode="]" /><glyph d="M189 788V-108H20V-41H116V721H20V788Z" glyph-name="bracketright.case" horiz-adv-x="304" /><glyph d="M33 703H88Q88 703 90 693.5Q92 684 99.5 673Q107 662 122.5 652.5Q138 643 165 643Q192 643 207.5 652.5Q223 662 230.5 673Q238 684 240 693.5Q242 703 242 703H297V659Q297 659 291 647Q285 635 270 621Q255 607 229.5 595Q204 583 165 583Q126 583 100.5 595Q75 607 60 621Q45 635 39 647Q33 659 33 659Z" glyph-name="breve" horiz-adv-x="330" unicode="&#728;" /><glyph d="M98 820H169V429H98ZM98 253H169V-138H98Z" glyph-name="brokenbar" horiz-adv-x="268" unicode="&#166;" /><glyph d="M89 254Q89 312 122.5 346.5Q156 381 214 381Q272 381 305.5 346.5Q339 312 339 254Q339 196 305.5 161.5Q272 127 214 127Q156 127 122.5 161.5Q89 196 89 254Z" glyph-name="bullet" horiz-adv-x="428" unicode="&#8226;" /><glyph d="M56 240V268Q56 398 112 455.5Q168 513 267 513Q305 513 334 506.5Q363 500 381.5 493Q400 486 409.5 479.5Q419 473 419 473V415H362Q362 415 357 420Q352 425 340.5 431Q329 437 311 442Q293 447 267 447Q188 447 158.5 400Q129 353 129 264V244Q129 155 158.5 108Q188 61 267 61Q293 61 311 66Q329 71 340.5 77Q352 83 357 88Q362 93 362 93H419V35Q419 35 409.5 28.5Q400 22 381.5 15Q363 8 334 1.5Q305 -5 267 -5Q168 -5 112 52.5Q56 110 56 240Z" glyph-name="c" horiz-adv-x="463" unicode="c" /><glyph d="M299 740H357V695L280 573H219ZM56 240V268Q56 398 112 455.5Q168 513 267 513Q305 513 334 506.5Q363 500 381.5 493Q400 486 409.5 479.5Q419 473 419 473V415H362Q362 415 357 420Q352 425 340.5 431Q329 437 311 442Q293 447 267 447Q188 447 158.5 400Q129 353 129 264V244Q129 155 158.5 108Q188 61 267 61Q293 61 311 66Q329 71 340.5 77Q352 83 357 88Q362 93 362 93H419V35Q419 35 409.5 28.5Q400 22 381.5 15Q363 8 334 1.5Q305 -5 267 -5Q168 -5 112 52.5Q56 110 56 240Z" glyph-name="cacute" horiz-adv-x="463" unicode="&#263;" /><glyph d="M314 740V710L208 573H146L40 710V740H91L141 673Q156 654 165.5 640Q175 626 175 626H179Q179 626 188.5 640Q198 654 213 673L263 740Z" glyph-name="caron" horiz-adv-x="354" unicode="&#711;" /><glyph d="M44 550Q44 550 48.5 565.5Q53 581 59 607Q65 633 69.5 667.5Q74 702 74 740H145V696Q135 632 119.5 591Q104 550 104 550Z" glyph-name="caroncomb.alt" horiz-adv-x="207" /><glyph d="M401 740V710L295 573H233L127 710V740H178L228 673Q243 654 252.5 640Q262 626 262 626H266Q266 626 275.5 640Q285 654 300 673L350 740ZM56 240V268Q56 398 112 455.5Q168 513 267 513Q305 513 334 506.5Q363 500 381.5 493Q400 486 409.5 479.5Q419 473 419 473V415H362Q362 415 357 420Q352 425 340.5 431Q329 437 311 442Q293 447 267 447Q188 447 158.5 400Q129 353 129 264V244Q129 155 158.5 108Q188 61 267 61Q293 61 311 66Q329 71 340.5 77Q352 83 357 88Q362 93 362 93H419V35Q419 35 409.5 28.5Q400 22 381.5 15Q363 8 334 1.5Q305 -5 267 -5Q168 -5 112 52.5Q56 110 56 240Z" glyph-name="ccaron" horiz-adv-x="463" unicode="&#269;" /><glyph d="M56 240V268Q56 398 112 455.5Q168 513 267 513Q305 513 334 506.5Q363 500 381.5 493Q400 486 409.5 479.5Q419 473 419 473V415H362Q362 415 357 420Q352 425 340.5 431Q329 437 311 442Q293 447 267 447Q188 447 158.5 400Q129 353 129 264V244Q129 155 158.5 108Q188 61 267 61Q293 61 311 66Q329 71 340.5 77Q352 83 357 88Q362 93 362 93H419V35Q419 35 392.5 20Q366 5 312 -2Q312 -39 303.5 -67.5Q295 -96 285 -115Q275 -134 267 -144Q259 -154 259 -154H202V-114Q202 -114 208 -107Q214 -100 221 -86Q228 -72 234 -51Q240 -30 240 -4Q153 3 104.5 61Q56 119 56 240Z" glyph-name="ccedilla" horiz-adv-x="463" unicode="&#231;" /><glyph d="M127 573V603L233 740H295L401 603V573H350L300 640Q285 659 275.5 673Q266 687 266 687H262Q262 687 252.5 673Q243 659 228 640L178 573ZM56 240V268Q56 398 112 455.5Q168 513 267 513Q305 513 334 506.5Q363 500 381.5 493Q400 486 409.5 479.5Q419 473 419 473V415H362Q362 415 357 420Q352 425 340.5 431Q329 437 311 442Q293 447 267 447Q188 447 158.5 400Q129 353 129 264V244Q129 155 158.5 108Q188 61 267 61Q293 61 311 66Q329 71 340.5 77Q352 83 357 88Q362 93 362 93H419V35Q419 35 409.5 28.5Q400 22 381.5 15Q363 8 334 1.5Q305 -5 267 -5Q168 -5 112 52.5Q56 110 56 240Z" glyph-name="ccircumflex" horiz-adv-x="463" unicode="&#265;" /><glyph d="M216 628Q216 649 227.5 661.5Q239 674 264 674Q289 674 301 661.5Q313 649 313 628V622Q313 602 301 589.5Q289 577 264 577Q239 577 227.5 589.5Q216 602 216 622ZM56 240V268Q56 398 112 455.5Q168 513 267 513Q305 513 334 506.5Q363 500 381.5 493Q400 486 409.5 479.5Q419 473 419 473V415H362Q362 415 357 420Q352 425 340.5 431Q329 437 311 442Q293 447 267 447Q188 447 158.5 400Q129 353 129 264V244Q129 155 158.5 108Q188 61 267 61Q293 61 311 66Q329 71 340.5 77Q352 83 357 88Q362 93 362 93H419V35Q419 35 409.5 28.5Q400 22 381.5 15Q363 8 334 1.5Q305 -5 267 -5Q168 -5 112 52.5Q56 110 56 240Z" glyph-name="cdotaccent" horiz-adv-x="463" unicode="&#267;" /><glyph d="M87 -154H30V-114Q30 -114 36 -106.5Q42 -99 49 -85Q56 -71 62 -49.5Q68 -28 68 0V41H140V0Q140 -37 131.5 -66Q123 -95 113.5 -114.5Q104 -134 95.5 -144Q87 -154 87 -154Z" glyph-name="cedilla" horiz-adv-x="173" unicode="&#184;" /><glyph d="M56 240V268Q56 384 101.5 442.5Q147 501 228 511V646H298V512Q359 507 389 490Q419 473 419 473V415H362Q362 415 357 420Q352 425 340.5 431Q329 437 311 442Q293 447 267 447Q188 447 158.5 400Q129 353 129 264V244Q129 155 158.5 108Q188 61 267 61Q293 61 311 66Q329 71 340.5 77Q352 83 357 88Q362 93 362 93H419V35Q419 35 389 18Q359 1 298 -4V-138H228V-3Q147 7 101.5 65.5Q56 124 56 240Z" glyph-name="cent" horiz-adv-x="463" unicode="&#162;" /><glyph d="M40 573V603L146 740H208L314 603V573H263L213 640Q198 659 188.5 673Q179 687 179 687H175Q175 687 165.5 673Q156 659 141 640L91 573Z" glyph-name="circumflex" horiz-adv-x="354" unicode="&#710;" /><glyph d="M52 459Q52 483 65.5 497Q79 511 106 511Q133 511 147 497Q161 483 161 459V453Q161 430 147 416Q133 402 106 402Q79 402 65.5 416Q52 430 52 453ZM52 54Q52 78 65.5 92Q79 106 106 106Q133 106 147 92Q161 78 161 54V48Q161 25 147 11Q133 -3 106 -3Q79 -3 65.5 11Q52 25 52 48Z" glyph-name="colon" horiz-adv-x="212" unicode=":" /><glyph d="M29 -135Q29 -135 36 -117Q43 -99 51.5 -67Q60 -35 67 9Q74 53 74 104H150V50Q135 -41 112 -88Q89 -135 89 -135Z" glyph-name="comma" horiz-adv-x="212" unicode="," /><glyph d="M73 340Q73 503 159.5 596.5Q246 690 412 690Q577 690 663.5 596.5Q750 503 750 340Q750 177 663.5 83.5Q577 -10 412 -10Q246 -10 159.5 83.5Q73 177 73 340ZM142 340Q142 196 212 122.5Q282 49 412 49Q541 49 611 122.5Q681 196 681 340Q681 486 611 558.5Q541 631 412 631Q282 631 212 558.5Q142 486 142 340ZM267 317V363Q267 444 304 483Q341 522 414 522Q452 522 476 511Q500 500 513 487Q526 474 531 463Q536 452 536 452V411H477Q477 411 475.5 419.5Q474 428 467.5 437.5Q461 447 448 455.5Q435 464 412 464Q369 464 352 442.5Q335 421 335 375V305Q335 259 352 237.5Q369 216 412 216Q435 216 448 224.5Q461 233 467.5 242.5Q474 252 475.5 260.5Q477 269 477 269H536V228Q536 228 531 217Q526 206 513 193Q500 180 476 169Q452 158 414 158Q341 158 304 197Q267 236 267 317Z" glyph-name="copyright" horiz-adv-x="823" unicode="&#169;" /><glyph d="M64 85 130 151Q116 173 108.5 199Q101 225 101 254Q101 283 108.5 309Q116 335 130 357L64 423L113 473L179 407Q201 420 227 427.5Q253 435 282 435Q311 435 337 427.5Q363 420 385 407L452 473L501 423L435 357Q449 335 456.5 309Q464 283 464 254Q464 225 456.5 199Q449 173 435 151L501 85L452 36L385 101Q364 88 337.5 80.5Q311 73 282 73Q253 73 227 80.5Q201 88 179 102L113 36ZM170 254Q170 203 200.5 169.5Q231 136 282 136Q333 136 364 169.5Q395 203 395 254Q395 305 364 338.5Q333 372 282 372Q231 372 200.5 338.5Q170 305 170 254Z" glyph-name="currency" horiz-adv-x="565" unicode="&#164;" /><glyph d="M56 231V277Q56 401 108 457.5Q160 514 240 514Q278 514 307 505.5Q336 497 355.5 487.5Q375 478 385 469.5Q395 461 395 461H397Q397 461 396.5 471Q396 481 396 496Q396 511 395.5 528.5Q395 546 395 561V740H466V0H408L398 56H396Q396 56 385.5 46.5Q375 37 354.5 25Q334 13 303.5 3.5Q273 -6 233 -6Q150 -6 103 50.5Q56 107 56 231ZM257 59Q289 59 315 68Q341 77 358.5 87.5Q376 98 385.5 107Q395 116 395 116V400Q395 400 386.5 408Q378 416 361.5 425Q345 434 320.5 442Q296 450 264 450Q197 450 163 408.5Q129 367 129 262V245Q129 140 158.5 99.5Q188 59 257 59Z" glyph-name="d" horiz-adv-x="555" unicode="d" /><glyph d="M22 428V494H106Q118 494 132 493.5Q146 493 158 492.5Q170 492 178 491.5Q186 491 186 491L187 492Q187 492 186.5 500Q186 508 185.5 520Q185 532 184.5 546Q184 560 184 572V680H257V572Q257 560 256.5 546Q256 532 255.5 520Q255 508 254.5 500Q254 492 254 492L255 491Q255 491 263 491.5Q271 492 283 492.5Q295 493 309 493.5Q323 494 335 494H419V428H335Q323 428 309 428.5Q295 429 283 429.5Q271 430 263 430.5Q255 431 255 431L254 430Q254 430 254.5 422Q255 414 255.5 402Q256 390 256.5 376Q257 362 257 350V-101H184V350Q184 362 184.5 376Q185 390 185.5 402Q186 414 186.5 422Q187 430 187 430L186 431Q186 431 178 430.5Q170 430 158 429.5Q146 429 132 428.5Q118 428 106 428Z" glyph-name="dagger" horiz-adv-x="441" unicode="&#8224;" /><glyph d="M22 85V151H106Q118 151 132 150.5Q146 150 158 149.5Q170 149 178 148.5Q186 148 186 148L187 149Q187 149 186.5 157Q186 165 185.5 177Q185 189 184.5 203Q184 217 184 229V350Q184 362 184.5 376Q185 390 185.5 402Q186 414 186.5 422Q187 430 187 430L186 431Q186 431 178 430.5Q170 430 158 429.5Q146 429 132 428.5Q118 428 106 428H22V494H106Q118 494 132 493.5Q146 493 158 492.5Q170 492 178 491.5Q186 491 186 491L187 492Q187 492 186.5 500Q186 508 185.5 520Q185 532 184.5 546Q184 560 184 572V680H257V572Q257 560 256.5 546Q256 532 255.5 520Q255 508 254.5 500Q254 492 254 492L255 491Q255 491 263 491.5Q271 492 283 492.5Q295 493 309 493.5Q323 494 335 494H419V428H335Q323 428 309 428.5Q295 429 283 429.5Q271 430 263 430.5Q255 431 255 431L254 430Q254 430 254.5 422Q255 414 255.5 402Q256 390 256.5 376Q257 362 257 350V229Q257 217 256.5 203Q256 189 255.5 177Q255 165 254.5 157Q254 149 254 149L255 148Q255 148 263 148.5Q271 149 283 149.5Q295 150 309 150.5Q323 151 335 151H419V85H335Q323 85 309 85.5Q295 86 283 86.5Q271 87 263 87.5Q255 88 255 88L254 87Q254 87 254.5 79Q255 71 255.5 59Q256 47 256.5 33Q257 19 257 7V-101H184V7Q184 19 184.5 33Q185 47 185.5 59Q186 71 186.5 79Q187 87 187 87L186 88Q186 88 178 87.5Q170 87 158 86.5Q146 86 132 85.5Q118 85 106 85Z" glyph-name="daggerdbl" horiz-adv-x="441" unicode="&#8225;" /><glyph d="M56 231V277Q56 401 108 457.5Q160 514 240 514Q278 514 307 505.5Q336 497 355.5 487.5Q375 478 385 469.5Q395 461 395 461H397Q397 461 396.5 471Q396 481 396 496Q396 511 395.5 528.5Q395 546 395 561V740H466V0H408L398 56H396Q396 56 385.5 46.5Q375 37 354.5 25Q334 13 303.5 3.5Q273 -6 233 -6Q150 -6 103 50.5Q56 107 56 231ZM527 550Q527 550 531.5 565.5Q536 581 542 607Q548 633 552.5 667.5Q557 702 557 740H628V696Q618 632 602.5 591Q587 550 587 550ZM257 59Q289 59 315 68Q341 77 358.5 87.5Q376 98 385.5 107Q395 116 395 116V400Q395 400 386.5 408Q378 416 361.5 425Q345 434 320.5 442Q296 450 264 450Q197 450 163 408.5Q129 367 129 262V245Q129 140 158.5 99.5Q188 59 257 59Z" glyph-name="dcaron" horiz-adv-x="622" unicode="&#271;" /><glyph d="M56 231V277Q56 401 108 457.5Q160 514 240 514Q278 514 307 505.5Q336 497 355.5 487.5Q375 478 385 469.5Q395 461 395 461H397Q397 461 396.5 471Q396 481 396 496Q396 511 395.5 528.5Q395 546 395 561V586H254V647H395V740H466V647H542V586H466V0H408L398 56H396Q396 56 385.5 46.5Q375 37 354.5 25Q334 13 303.5 3.5Q273 -6 233 -6Q150 -6 103 50.5Q56 107 56 231ZM257 59Q289 59 315 68Q341 77 358.5 87.5Q376 98 385.5 107Q395 116 395 116V400Q395 400 386.5 408Q378 416 361.5 425Q345 434 320.5 442Q296 450 264 450Q197 450 163 408.5Q129 367 129 262V245Q129 140 158.5 99.5Q188 59 257 59Z" glyph-name="dcroat" horiz-adv-x="555" unicode="&#273;" /><glyph d="M33 548Q33 610 70.5 651Q108 692 179 692Q250 692 287 651Q324 610 324 548Q324 486 287 444Q250 402 179 402Q108 402 70.5 444Q33 486 33 548ZM104 548Q104 507 126 485.5Q148 464 179 464Q210 464 232 485.5Q254 507 254 548Q254 591 232 610Q210 629 179 629Q148 629 126 610Q104 591 104 548Z" glyph-name="degree" horiz-adv-x="357" unicode="&#176;" /><glyph d="M33 639Q33 659 44.5 672Q56 685 81 685Q106 685 118 672Q130 659 130 639V633Q130 613 118 600.5Q106 588 81 588Q56 588 44.5 600.5Q33 613 33 633ZM173 639Q173 659 185 672Q197 685 222 685Q247 685 258.5 672Q270 659 270 639V633Q270 613 258.5 600.5Q247 588 222 588Q197 588 185 600.5Q173 613 173 633Z" glyph-name="dieresis" horiz-adv-x="303" unicode="&#168;" /><glyph d="M246 467Q246 491 259.5 505Q273 519 300 519Q327 519 341 505Q355 491 355 467V461Q355 438 341 424Q327 410 300 410Q273 410 259.5 424Q246 438 246 461ZM70 330H530V265H70ZM246 133Q246 157 259.5 171Q273 185 300 185Q327 185 341 171Q355 157 355 133V127Q355 104 341 90Q327 76 300 76Q273 76 259.5 90Q246 104 246 127Z" glyph-name="divide" horiz-adv-x="600" unicode="&#247;" /><glyph d="M88 149H143Q143 149 148 142Q153 135 167 127Q181 119 205.5 112Q230 105 268 105Q335 105 365.5 130.5Q396 156 396 206Q396 239 374 264Q352 289 304 304L241 324Q156 351 130.5 391.5Q105 432 105 483Q105 548 143 588.5Q181 629 256 638V818H325V639Q363 636 390 627.5Q417 619 434 609.5Q451 600 458.5 593Q466 586 466 586V531H408Q408 531 402.5 538Q397 545 384 553Q371 561 350 568Q329 575 298 575Q229 575 203.5 549.5Q178 524 178 485Q178 458 196 433.5Q214 409 270 391L333 371Q413 346 440.5 303Q468 260 468 208Q468 139 429.5 97.5Q391 56 325 45V-138H256V40Q211 41 179 49.5Q147 58 127 68Q107 78 97.5 85.5Q88 93 88 93Z" glyph-name="dollar" horiz-adv-x="556" unicode="$" /><glyph d="M22 628Q22 649 33.5 661.5Q45 674 70 674Q95 674 107 661.5Q119 649 119 628V622Q119 602 107 589.5Q95 577 70 577Q45 577 33.5 589.5Q22 602 22 622Z" glyph-name="dotaccent" horiz-adv-x="141" unicode="&#729;" /><glyph d="M22 -122Q22 -101 33.5 -88.5Q45 -76 70 -76Q95 -76 107 -88.5Q119 -101 119 -122V-128Q119 -148 107 -160.5Q95 -173 70 -173Q45 -173 33.5 -160.5Q22 -148 22 -128Z" glyph-name="dotbelowcomb" horiz-adv-x="141" unicode="&#803;" /><glyph d="M161 0H90V508H161Z" glyph-name="dotlessi" horiz-adv-x="250" unicode="&#305;" /><glyph d="M170 508V0H99V443L40 453V508Z" glyph-name="dotlessi.alt" horiz-adv-x="259" /><glyph d="M56 240V267Q56 389 110 452.5Q164 516 256 516Q297 516 333.5 505.5Q370 495 396.5 470Q423 445 438 403.5Q453 362 453 300Q453 277 450.5 252Q448 227 448 227H129Q130 150 159 103.5Q188 57 270 57Q328 57 352.5 72Q377 87 377 87H435V28Q435 28 424 22.5Q413 17 391.5 10Q370 3 338.5 -2.5Q307 -8 266 -8Q162 -8 109 56.5Q56 121 56 240ZM129 288V287H379Q379 287 379.5 295Q380 303 380 313Q380 387 349.5 420Q319 453 256 453Q205 453 167 418Q129 383 129 288Z" glyph-name="e" horiz-adv-x="509" unicode="e" /><glyph d="M308 740H366V695L289 573H228ZM56 240V267Q56 389 110 452.5Q164 516 256 516Q297 516 333.5 505.5Q370 495 396.5 470Q423 445 438 403.5Q453 362 453 300Q453 277 450.5 252Q448 227 448 227H129Q130 150 159 103.5Q188 57 270 57Q328 57 352.5 72Q377 87 377 87H435V28Q435 28 424 22.5Q413 17 391.5 10Q370 3 338.5 -2.5Q307 -8 266 -8Q162 -8 109 56.5Q56 121 56 240ZM129 288V287H379Q379 287 379.5 295Q380 303 380 313Q380 387 349.5 420Q319 453 256 453Q205 453 167 418Q129 383 129 288Z" glyph-name="eacute" horiz-adv-x="509" unicode="&#233;" /><glyph d="M131 703H186Q186 703 188 693.5Q190 684 197.5 673Q205 662 220.5 652.5Q236 643 263 643Q290 643 305.5 652.5Q321 662 328.5 673Q336 684 338 693.5Q340 703 340 703H395V659Q395 659 389 647Q383 635 368 621Q353 607 327.5 595Q302 583 263 583Q224 583 198.5 595Q173 607 158 621Q143 635 137 647Q131 659 131 659ZM56 240V267Q56 389 110 452.5Q164 516 256 516Q297 516 333.5 505.5Q370 495 396.5 470Q423 445 438 403.5Q453 362 453 300Q453 277 450.5 252Q448 227 448 227H129Q130 150 159 103.5Q188 57 270 57Q328 57 352.5 72Q377 87 377 87H435V28Q435 28 424 22.5Q413 17 391.5 10Q370 3 338.5 -2.5Q307 -8 266 -8Q162 -8 109 56.5Q56 121 56 240ZM129 288V287H379Q379 287 379.5 295Q380 303 380 313Q380 387 349.5 420Q319 453 256 453Q205 453 167 418Q129 383 129 288Z" glyph-name="ebreve" horiz-adv-x="509" unicode="&#277;" /><glyph d="M400 740V710L294 573H232L126 710V740H177L227 673Q242 654 251.5 640Q261 626 261 626H265Q265 626 274.5 640Q284 654 299 673L349 740ZM56 240V267Q56 389 110 452.5Q164 516 256 516Q297 516 333.5 505.5Q370 495 396.5 470Q423 445 438 403.5Q453 362 453 300Q453 277 450.5 252Q448 227 448 227H129Q130 150 159 103.5Q188 57 270 57Q328 57 352.5 72Q377 87 377 87H435V28Q435 28 424 22.5Q413 17 391.5 10Q370 3 338.5 -2.5Q307 -8 266 -8Q162 -8 109 56.5Q56 121 56 240ZM129 288V287H379Q379 287 379.5 295Q380 303 380 313Q380 387 349.5 420Q319 453 256 453Q205 453 167 418Q129 383 129 288Z" glyph-name="ecaron" horiz-adv-x="509" unicode="&#283;" /><glyph d="M126 573V603L232 740H294L400 603V573H349L299 640Q284 659 274.5 673Q265 687 265 687H261Q261 687 251.5 673Q242 659 227 640L177 573ZM56 240V267Q56 389 110 452.5Q164 516 256 516Q297 516 333.5 505.5Q370 495 396.5 470Q423 445 438 403.5Q453 362 453 300Q453 277 450.5 252Q448 227 448 227H129Q130 150 159 103.5Q188 57 270 57Q328 57 352.5 72Q377 87 377 87H435V28Q435 28 424 22.5Q413 17 391.5 10Q370 3 338.5 -2.5Q307 -8 266 -8Q162 -8 109 56.5Q56 121 56 240ZM129 288V287H379Q379 287 379.5 295Q380 303 380 313Q380 387 349.5 420Q319 453 256 453Q205 453 167 418Q129 383 129 288Z" glyph-name="ecircumflex" horiz-adv-x="509" unicode="&#234;" /><glyph d="M145 639Q145 659 156.5 672Q168 685 193 685Q218 685 230 672Q242 659 242 639V633Q242 613 230 600.5Q218 588 193 588Q168 588 156.5 600.5Q145 613 145 633ZM285 639Q285 659 297 672Q309 685 334 685Q359 685 370.5 672Q382 659 382 639V633Q382 613 370.5 600.5Q359 588 334 588Q309 588 297 600.5Q285 613 285 633ZM56 240V267Q56 389 110 452.5Q164 516 256 516Q297 516 333.5 505.5Q370 495 396.5 470Q423 445 438 403.5Q453 362 453 300Q453 277 450.5 252Q448 227 448 227H129Q130 150 159 103.5Q188 57 270 57Q328 57 352.5 72Q377 87 377 87H435V28Q435 28 424 22.5Q413 17 391.5 10Q370 3 338.5 -2.5Q307 -8 266 -8Q162 -8 109 56.5Q56 121 56 240ZM129 288V287H379Q379 287 379.5 295Q380 303 380 313Q380 387 349.5 420Q319 453 256 453Q205 453 167 418Q129 383 129 288Z" glyph-name="edieresis" horiz-adv-x="509" unicode="&#235;" /><glyph d="M215 628Q215 649 226.5 661.5Q238 674 263 674Q288 674 300 661.5Q312 649 312 628V622Q312 602 300 589.5Q288 577 263 577Q238 577 226.5 589.5Q215 602 215 622ZM56 240V267Q56 389 110 452.5Q164 516 256 516Q297 516 333.5 505.5Q370 495 396.5 470Q423 445 438 403.5Q453 362 453 300Q453 277 450.5 252Q448 227 448 227H129Q130 150 159 103.5Q188 57 270 57Q328 57 352.5 72Q377 87 377 87H435V28Q435 28 424 22.5Q413 17 391.5 10Q370 3 338.5 -2.5Q307 -8 266 -8Q162 -8 109 56.5Q56 121 56 240ZM129 288V287H379Q379 287 379.5 295Q380 303 380 313Q380 387 349.5 420Q319 453 256 453Q205 453 167 418Q129 383 129 288Z" glyph-name="edotaccent" horiz-adv-x="509" unicode="&#279;" /><glyph d="M218 740 298 573H237L160 695V740ZM56 240V267Q56 389 110 452.5Q164 516 256 516Q297 516 333.5 505.5Q370 495 396.5 470Q423 445 438 403.5Q453 362 453 300Q453 277 450.5 252Q448 227 448 227H129Q130 150 159 103.5Q188 57 270 57Q328 57 352.5 72Q377 87 377 87H435V28Q435 28 424 22.5Q413 17 391.5 10Q370 3 338.5 -2.5Q307 -8 266 -8Q162 -8 109 56.5Q56 121 56 240ZM129 288V287H379Q379 287 379.5 295Q380 303 380 313Q380 387 349.5 420Q319 453 256 453Q205 453 167 418Q129 383 129 288Z" glyph-name="egrave" horiz-adv-x="509" unicode="&#232;" /><glyph d="M70 500Q70 582 118.5 636Q167 690 276 690Q385 690 434 636Q483 582 483 500Q483 464 472.5 435Q462 406 450 386.5Q438 367 427.5 356Q417 345 417 345V343Q417 343 429 331.5Q441 320 455 299Q469 278 481 247Q493 216 493 178Q493 94 441 42Q389 -10 276 -10Q163 -10 111.5 42Q60 94 60 178Q60 216 72 247Q84 278 98.5 299Q113 320 125 331.5Q137 343 137 343V345Q137 345 126.5 356Q116 367 103.5 386.5Q91 406 80.5 435Q70 464 70 500ZM143 501Q143 467 152 443.5Q161 420 171.5 405Q182 390 191 383.5Q200 377 200 377H353Q353 377 362 383.5Q371 390 381 405Q391 420 400 443.5Q409 467 409 501Q409 563 376.5 593.5Q344 624 276 624Q209 624 176 593.5Q143 563 143 501ZM419 177Q420 212 409.5 237.5Q399 263 386.5 279Q374 295 363 303Q352 311 352 311H200Q200 311 189 303Q178 295 165 279Q152 263 141.5 237.5Q131 212 133 177Q137 113 171 84.5Q205 56 276 56Q348 56 383 84.5Q418 113 419 177Z" glyph-name="eight" horiz-adv-x="552" unicode="8" /><glyph d="M326 104Q326 53 290.5 23Q255 -7 188 -7Q121 -7 85.5 23Q50 53 50 104Q50 129 56.5 147.5Q63 166 71.5 178.5Q80 191 86.5 197Q93 203 93 203V205Q93 205 87.5 211Q82 217 75 228.5Q68 240 62.5 257Q57 274 57 296Q57 345 91 374.5Q125 404 188 404Q251 404 285 374.5Q319 345 319 296Q319 274 313.5 257Q308 240 301 228.5Q294 217 288.5 211Q283 205 283 205V203Q283 203 289.5 197Q296 191 304.5 178.5Q313 166 319.5 147.5Q326 129 326 104ZM115 291Q115 257 128 242.5Q141 228 141 228H235Q235 228 248 242.5Q261 257 261 291Q261 325 240 339Q219 353 188 353Q157 353 136 339Q115 325 115 291ZM188 43Q229 43 248 60Q267 77 267 107Q267 145 252 161.5Q237 178 237 178H139Q139 178 123.5 161.5Q108 145 108 107Q108 77 127.5 60Q147 43 188 43Z" glyph-name="eight.dnom" horiz-adv-x="376" /><glyph d="M326 386Q326 335 290.5 305Q255 275 188 275Q121 275 85.5 305Q50 335 50 386Q50 411 56.5 429.5Q63 448 71.5 460.5Q80 473 86.5 479Q93 485 93 485V487Q93 487 87.5 493Q82 499 75 510.5Q68 522 62.5 539Q57 556 57 578Q57 627 91 656.5Q125 686 188 686Q251 686 285 656.5Q319 627 319 578Q319 556 313.5 539Q308 522 301 510.5Q294 499 288.5 493Q283 487 283 487V485Q283 485 289.5 479Q296 473 304.5 460.5Q313 448 319.5 429.5Q326 411 326 386ZM115 573Q115 539 128 524.5Q141 510 141 510H235Q235 510 248 524.5Q261 539 261 573Q261 607 240 621Q219 635 188 635Q157 635 136 621Q115 607 115 573ZM188 325Q229 325 248 342Q267 359 267 389Q267 427 252 443.5Q237 460 237 460H139Q139 460 123.5 443.5Q108 427 108 389Q108 359 127.5 342Q147 325 188 325Z" glyph-name="eight.numr" horiz-adv-x="376" /><glyph d="M76 473Q76 548 122.5 598Q169 648 272 648Q376 648 422.5 598Q469 548 469 473Q469 439 459.5 412.5Q450 386 438 367.5Q426 349 416.5 339.5Q407 330 407 330V326Q407 326 419 317Q431 308 445.5 289Q460 270 472 241Q484 212 484 172Q484 91 434.5 41.5Q385 -8 272 -8Q159 -8 109.5 41.5Q60 91 60 172Q60 212 72 241Q84 270 99 289Q114 308 126 317Q138 326 138 326V330Q138 330 128.5 339.5Q119 349 107 367.5Q95 386 85.5 412.5Q76 439 76 473ZM148 476Q148 444 156 421.5Q164 399 174 386Q184 373 192 367Q200 361 200 361H345Q345 361 353 367Q361 373 371 386Q381 399 389 421.5Q397 444 397 476Q397 530 366 556.5Q335 583 272 583Q209 583 178.5 556.5Q148 530 148 476ZM413 176Q413 212 401.5 235.5Q390 259 376.5 272Q363 285 351.5 290.5Q340 296 340 296H204Q204 296 192.5 290.5Q181 285 168 272Q155 259 143.5 235.5Q132 212 132 176Q132 116 166.5 86.5Q201 57 272 57Q344 57 378.5 86.5Q413 116 413 176Z" glyph-name="eight.osf" horiz-adv-x="544" /><glyph d="M70 500Q70 582 118.5 636Q167 690 276 690Q385 690 434 636Q483 582 483 500Q483 464 472.5 435Q462 406 450 386.5Q438 367 427.5 356Q417 345 417 345V343Q417 343 429 331.5Q441 320 455 299Q469 278 481 247Q493 216 493 178Q493 94 441 42Q389 -10 276 -10Q163 -10 111.5 42Q60 94 60 178Q60 216 72 247Q84 278 98.5 299Q113 320 125 331.5Q137 343 137 343V345Q137 345 126.5 356Q116 367 103.5 386.5Q91 406 80.5 435Q70 464 70 500ZM143 501Q143 467 152 443.5Q161 420 171.5 405Q182 390 191 383.5Q200 377 200 377H353Q353 377 362 383.5Q371 390 381 405Q391 420 400 443.5Q409 467 409 501Q409 563 376.5 593.5Q344 624 276 624Q209 624 176 593.5Q143 563 143 501ZM419 177Q420 212 409.5 237.5Q399 263 386.5 279Q374 295 363 303Q352 311 352 311H200Q200 311 189 303Q178 295 165 279Q152 263 141.5 237.5Q131 212 133 177Q137 113 171 84.5Q205 56 276 56Q348 56 383 84.5Q418 113 419 177Z" glyph-name="eight.ss02" horiz-adv-x="552" /><glyph d="M64 500Q64 582 111.5 636Q159 690 280 690Q401 690 448.5 636Q496 582 496 500Q496 464 485.5 435Q475 406 462.5 386.5Q450 367 439.5 356Q429 345 429 345V343Q429 343 441 331.5Q453 320 467.5 299Q482 278 494 247Q506 216 506 178Q506 94 455.5 42Q405 -10 280 -10Q155 -10 104.5 42Q54 94 54 178Q54 216 66 247Q78 278 92.5 299Q107 320 119 331.5Q131 343 131 343V345Q131 345 120.5 356Q110 367 97.5 386.5Q85 406 74.5 435Q64 464 64 500ZM137 501Q137 467 146 443.5Q155 420 165.5 405Q176 390 185 383.5Q194 377 194 377H366Q366 377 375 383.5Q384 390 394.5 405Q405 420 414 443.5Q423 467 423 501Q423 563 391 593.5Q359 624 280 624Q201 624 169 593.5Q137 563 137 501ZM433 177Q435 212 424.5 237.5Q414 263 401 279Q388 295 377 303Q366 311 366 311H194Q194 311 183 303Q172 295 159 279Q146 263 135.5 237.5Q125 212 127 177Q131 113 164 84.5Q197 56 280 56Q363 56 396 84.5Q429 113 433 177Z" glyph-name="eight.tf" horiz-adv-x="560" /><glyph d="M52 54Q52 78 65.5 92Q79 106 106 106Q133 106 147 92Q161 78 161 54V48Q161 25 147 11Q133 -3 106 -3Q79 -3 65.5 11Q52 25 52 48ZM264 54Q264 78 277.5 92Q291 106 318 106Q345 106 359 92Q373 78 373 54V48Q373 25 359 11Q345 -3 318 -3Q291 -3 277.5 11Q264 25 264 48ZM476 54Q476 78 489.5 92Q503 106 530 106Q557 106 571 92Q585 78 585 54V48Q585 25 571 11Q557 -3 530 -3Q503 -3 489.5 11Q476 25 476 48Z" glyph-name="ellipsis" horiz-adv-x="636" unicode="&#8230;" /><glyph d="M123 680H402V616H123ZM56 240V267Q56 389 110 452.5Q164 516 256 516Q297 516 333.5 505.5Q370 495 396.5 470Q423 445 438 403.5Q453 362 453 300Q453 277 450.5 252Q448 227 448 227H129Q130 150 159 103.5Q188 57 270 57Q328 57 352.5 72Q377 87 377 87H435V28Q435 28 424 22.5Q413 17 391.5 10Q370 3 338.5 -2.5Q307 -8 266 -8Q162 -8 109 56.5Q56 121 56 240ZM129 288V287H379Q379 287 379.5 295Q380 303 380 313Q380 387 349.5 420Q319 453 256 453Q205 453 167 418Q129 383 129 288Z" glyph-name="emacron" horiz-adv-x="509" unicode="&#275;" /><glyph d="M0 287H1000V221H0Z" glyph-name="emdash" horiz-adv-x="1000" unicode="&#8212;" /><glyph d="M0 352H1000V286H0Z" glyph-name="emdash.case" horiz-adv-x="1000" /><glyph d="M0 287H500V221H0Z" glyph-name="endash" horiz-adv-x="500" unicode="&#8211;" /><glyph d="M0 352H500V286H0Z" glyph-name="endash.case" horiz-adv-x="500" /><glyph d="M90 0V508H148L158 452H160Q160 452 171 462Q182 472 202.5 484Q223 496 254.5 506Q286 516 326 516Q392 516 433 480Q474 444 474 378V-23Q474 -69 460 -98.5Q446 -128 429.5 -144.5Q413 -161 399 -167Q385 -173 385 -173H330V-112H332Q362 -112 382.5 -90Q403 -68 403 -19V371Q403 411 378 432Q353 453 304 453Q272 453 245 443.5Q218 434 199.5 422Q181 410 171 400.5Q161 391 161 391V0Z" glyph-name="eng" horiz-adv-x="558" unicode="&#331;" /><glyph d="M56 240V267Q56 389 110 452.5Q164 516 256 516Q297 516 333.5 505.5Q370 495 396.5 470Q423 445 438 403.5Q453 362 453 300Q453 277 450.5 252Q448 227 448 227H129Q130 150 159 103.5Q188 57 270 57Q328 57 352.5 72Q377 87 377 87H435V28Q435 28 413.5 17.5Q392 7 351 0L309 -46Q295 -61 288.5 -71.5Q282 -82 282 -94Q282 -107 292.5 -116.5Q303 -126 320 -126H337V-181H317Q272 -181 246.5 -158.5Q221 -136 221 -99Q221 -73 233 -51.5Q245 -30 265 -8Q162 -8 109 56.5Q56 121 56 240ZM129 288V287H379Q379 287 379.5 295Q380 303 380 313Q380 387 349.5 420Q319 453 256 453Q205 453 167 418Q129 383 129 288Z" glyph-name="eogonek" horiz-adv-x="509" unicode="&#281;" /><glyph d="M70 431H530V365H70ZM70 230H530V164H70Z" glyph-name="equal" horiz-adv-x="600" unicode="=" /><glyph d="M238 551H193V594L265 650Q243 667 224 676Q205 685 193 688V740H239Q239 740 262 729.5Q285 719 318 692L380 740H425V697L363 648Q385 622 407 586.5Q429 551 446 504.5Q463 458 473.5 399.5Q484 341 484 270V238Q484 114 426 53Q368 -8 270 -8Q173 -8 114.5 53Q56 114 56 238V270Q56 394 112.5 455Q169 516 267 516Q316 516 346 501Q376 486 376 486H378Q364 525 346.5 555Q329 585 310 607ZM129 242Q129 138 166.5 97.5Q204 57 270 57Q336 57 373.5 97.5Q411 138 411 242V266Q411 370 373.5 410.5Q336 451 270 451Q204 451 166.5 410.5Q129 370 129 266Z" glyph-name="eth" horiz-adv-x="544" unicode="&#240;" /><glyph d="M172 680V627L159 183H102L89 627V680ZM77 54Q77 78 90.5 92Q104 106 131 106Q158 106 172 92Q186 78 186 54V48Q186 25 172 11Q158 -3 131 -3Q104 -3 90.5 11Q77 25 77 48Z" glyph-name="exclam" horiz-adv-x="262" unicode="!" /><glyph d="M77 454V460Q77 483 90.5 497Q104 511 131 511Q158 511 172 497Q186 483 186 460V454Q186 430 172 416Q158 402 131 402Q104 402 90.5 416Q77 430 77 454ZM172 -172H89V-119L102 325H159L172 -119Z" glyph-name="exclamdown" horiz-adv-x="262" unicode="&#161;" /><glyph d="M77 626V632Q77 655 90.5 669Q104 683 131 683Q158 683 172 669Q186 655 186 632V626Q186 602 172 588Q158 574 131 574Q104 574 90.5 588Q77 602 77 626ZM172 0H89V53L102 497H159L172 53Z" glyph-name="exclamdown.case" horiz-adv-x="262" /><glyph d="M16 508H109V590Q109 636 123 665.5Q137 695 153.5 711.5Q170 728 184 734Q198 740 198 740H253V679H250Q221 679 200.5 657Q180 635 180 586V508H275V443H180V0H109V443H16Z" glyph-name="f" horiz-adv-x="297" unicode="f" /><glyph d="M16 508H109V590Q109 636 123 665.5Q137 695 153.5 711.5Q170 728 184 734Q198 740 198 740H253V679H250Q221 679 200.5 657Q180 635 180 586V508H377V590Q377 636 391 665.5Q405 695 421.5 711.5Q438 728 452 734Q466 740 466 740H521V679H518Q489 679 468.5 657Q448 635 448 586V508H543V443H448V0H377V443H180V0H109V443H16Z" glyph-name="f_f" horiz-adv-x="565" /><glyph d="M16 508H109V590Q109 636 123 665.5Q137 695 153.5 711.5Q170 728 184 734Q198 740 198 740H253V679H250Q221 679 200.5 657Q180 635 180 586V508H396V590Q396 636 410 665.5Q424 695 440.5 711.5Q457 728 471 734Q485 740 485 740H540V679H538Q508 679 487.5 657Q467 635 467 586V508H744V0H673V443H467V0H396V443H180V0H109V443H16ZM660 679Q660 699 671.5 711.5Q683 724 708 724Q733 724 745 711.5Q757 699 757 679V673Q757 653 745 640Q733 627 708 627Q683 627 671.5 640Q660 653 660 673Z" glyph-name="f_f_i" horiz-adv-x="834" /><glyph d="M16 508H109V590Q109 636 123 665.5Q137 695 153.5 711.5Q170 728 184 734Q198 740 198 740H253V679H250Q221 679 200.5 657Q180 635 180 586V508H396V590Q396 636 410 665.5Q424 695 440.5 711.5Q457 728 471 734Q485 740 485 740H540V679H538Q508 679 487.5 657Q467 635 467 586V508H673V740H744V102Q744 80 754 70.5Q764 61 779 61H789V0H727Q727 0 718.5 4Q710 8 700 18Q690 28 681.5 46.5Q673 65 673 94V443H467V0H396V443H180V0H109V443H16Z" glyph-name="f_f_l" horiz-adv-x="839" /><glyph d="M386 0V443H180V0H109V443H16V508H109V590Q109 636 123 665.5Q137 695 153.5 711.5Q170 728 184 734Q198 740 198 740H253V679H251Q221 679 200.5 657Q180 635 180 586V508H457V0ZM373 679Q373 699 384.5 711.5Q396 724 421 724Q446 724 458 711.5Q470 699 470 679V673Q470 653 458 640Q446 627 421 627Q396 627 384.5 640Q373 653 373 673Z" glyph-name="fi" horiz-adv-x="547" unicode="&#64257;" /><glyph d="M271 430Q368 430 416.5 374Q465 318 465 217Q465 116 405 53Q345 -10 237 -10Q192 -10 157.5 -3Q123 4 100 12Q77 20 65 27Q53 34 53 34V94H111Q111 94 116.5 88Q122 82 136.5 75Q151 68 176.5 62Q202 56 240 56Q316 56 353.5 100Q391 144 391 217Q391 285 361 324Q331 363 258 363Q226 363 202.5 355.5Q179 348 164.5 338.5Q150 329 143 321.5Q136 314 136 314H71V375L95 680H435V613H253Q210 613 186.5 614Q163 615 163 615L153 490Q152 476 150.5 459.5Q149 443 148 428.5Q147 414 146 404.5Q145 395 145 395H147Q147 395 155 400.5Q163 406 178.5 412.5Q194 419 217 424.5Q240 430 271 430Z" glyph-name="five" horiz-adv-x="513" unicode="5" /><glyph d="M40 20V65H94Q94 65 108 55Q122 45 158 45Q201 45 221.5 65.5Q242 86 242 127Q242 160 224.5 179.5Q207 199 173 199Q139 199 120.5 186.5Q102 174 102 174H53V217L72 398H284V342H170Q152 342 137.5 342.5Q123 343 123 343L118 296Q117 279 114.5 256.5Q112 234 112 234H114Q114 234 134 242.5Q154 251 188 251Q242 251 272.5 219Q303 187 302 127Q301 67 265.5 30Q230 -7 157 -7Q98 -7 69 6.5Q40 20 40 20Z" glyph-name="five.dnom" horiz-adv-x="337" /><glyph d="M40 302V347H94Q94 347 108 337Q122 327 158 327Q201 327 221.5 347.5Q242 368 242 409Q242 442 224.5 461.5Q207 481 173 481Q139 481 120.5 468.5Q102 456 102 456H53V499L72 680H284V624H170Q152 624 137.5 624.5Q123 625 123 625L118 578Q117 561 114.5 538.5Q112 516 112 516H114Q114 516 134 524.5Q154 533 188 533Q242 533 272.5 501Q303 469 302 409Q301 349 265.5 312Q230 275 157 275Q98 275 69 288.5Q40 302 40 302Z" glyph-name="five.numr" horiz-adv-x="337" /><glyph d="M69 -28H123Q123 -28 148 -40.5Q173 -53 227 -53Q302 -53 342 -12Q382 29 382 92Q382 149 356.5 186.5Q331 224 259 224Q230 224 207.5 217.5Q185 211 170 204Q155 197 147 190.5Q139 184 139 184H84V233L104 528H430V463H247Q212 463 189.5 464Q167 465 167 465L159 325Q158 300 155.5 278Q153 256 153 256L154 255Q154 255 162 260.5Q170 266 185 272Q200 278 222.5 283.5Q245 289 274 289Q367 289 411 234Q455 179 455 92Q455 0 394.5 -59Q334 -118 225 -118Q185 -118 155.5 -112.5Q126 -107 107 -100.5Q88 -94 78.5 -88.5Q69 -83 69 -83Z" glyph-name="five.osf" horiz-adv-x="505" /><glyph d="M271 430Q368 430 416.5 374Q465 318 465 217Q465 116 405 53Q345 -10 237 -10Q192 -10 157.5 -3Q123 4 100 12Q77 20 65 27Q53 34 53 34V94H111Q111 94 116.5 88Q122 82 136.5 75Q151 68 176.5 62Q202 56 240 56Q316 56 353.5 100Q391 144 391 217Q391 285 361 324Q331 363 258 363Q226 363 202.5 355.5Q179 348 164.5 338.5Q150 329 143 321.5Q136 314 136 314H71V375L95 680H435V613H253Q210 613 186.5 614Q163 615 163 615L153 490Q152 476 150.5 459.5Q149 443 148 428.5Q147 414 146 404.5Q145 395 145 395H147Q147 395 155 400.5Q163 406 178.5 412.5Q194 419 217 424.5Q240 430 271 430Z" glyph-name="five.ss02" horiz-adv-x="513" /><glyph d="M297 430Q401 430 451 374Q501 318 501 217Q501 116 439.5 53Q378 -10 265 -10Q220 -10 183.5 -3Q147 4 122 12.5Q97 21 83 28Q69 35 69 35V95H126Q126 95 133.5 89Q141 83 157.5 75.5Q174 68 201 62Q228 56 266 56Q349 56 387.5 100Q426 144 426 217Q426 285 395 324Q364 363 284 363Q252 363 227 355.5Q202 348 185 338.5Q168 329 159.5 321.5Q151 314 151 314H87V375L111 680H471V613H278Q236 613 207 614Q178 615 178 615L168 490Q167 476 166 459.5Q165 443 164 428.5Q163 414 162 404.5Q161 395 161 395H163Q163 395 172.5 400.5Q182 406 199.5 412.5Q217 419 241.5 424.5Q266 430 297 430Z" glyph-name="five.tf" horiz-adv-x="560" /><glyph d="M40 302V347H94Q94 347 108 337Q122 327 158 327Q201 327 221.5 347.5Q242 368 242 409Q242 442 224.5 461.5Q207 481 173 481Q139 481 120.5 468.5Q102 456 102 456H53V499L72 680H284V624H170Q152 624 137.5 624.5Q123 625 123 625L118 578Q117 561 114.5 538.5Q112 516 112 516H114Q114 516 134 524.5Q154 533 188 533Q242 533 272.5 501Q303 469 302 409Q301 349 265.5 312Q230 275 157 275Q98 275 69 288.5Q40 302 40 302ZM586 680H629V643L211 0H168V37ZM786 104Q786 53 750.5 23Q715 -7 648 -7Q581 -7 545.5 23Q510 53 510 104Q510 129 516.5 147.5Q523 166 531.5 178.5Q540 191 546.5 197Q553 203 553 203V205Q553 205 547.5 211Q542 217 535 228.5Q528 240 522.5 257Q517 274 517 296Q517 345 551 374.5Q585 404 648 404Q711 404 745 374.5Q779 345 779 296Q779 274 773.5 257Q768 240 761 228.5Q754 217 748.5 211Q743 205 743 205V203Q743 203 749.5 197Q756 191 764.5 178.5Q773 166 779.5 147.5Q786 129 786 104ZM575 291Q575 257 588 242.5Q601 228 601 228H695Q695 228 708 242.5Q721 257 721 291Q721 325 700 339Q679 353 648 353Q617 353 596 339Q575 325 575 291ZM648 43Q689 43 708 60Q727 77 727 107Q727 145 712 161.5Q697 178 697 178H599Q599 178 583.5 161.5Q568 145 568 107Q568 77 587.5 60Q607 43 648 43Z" glyph-name="fiveeighths" horiz-adv-x="836" unicode="&#8541;" /><glyph d="M502 0H440Q440 0 431.5 4Q423 8 413 18Q403 28 394.5 46.5Q386 65 386 94V443H180V0H109V443H16V508H109V590Q109 636 123 665.5Q137 695 153.5 711.5Q170 728 184 734Q198 740 198 740H253V679H251Q221 679 200.5 657Q180 635 180 586V508H386V740H457V102Q457 80 467 70.5Q477 61 492 61H502Z" glyph-name="fl" horiz-adv-x="551" unicode="&#64258;" /><glyph d="M66 425H167L203 593Q214 644 233.5 673.5Q253 703 272 717.5Q291 732 305 736Q319 740 319 740H391V679H365Q335 679 309.5 660Q284 641 272 584L238 425H326V361H225L150 10Q137 -50 117 -86.5Q97 -123 78 -142Q59 -161 45.5 -167Q32 -173 32 -173H-32V-112H-11Q-2 -112 10 -108Q22 -104 34.5 -90.5Q47 -77 59 -52Q71 -27 80 14L154 361H66Z" glyph-name="florin" horiz-adv-x="402" unicode="&#402;" /><glyph d="M495 210V143H402V0H329V143H23V210L263 680H402V210ZM99 210H329V504Q329 547 330 580Q331 613 331 613H301Q301 613 286 581Q271 549 252 510Z" glyph-name="four" horiz-adv-x="517" unicode="4" /><glyph d="M35 81V134L163 398H266V133H326V81H266V0H209V81ZM92 133H209V257Q209 269 209 283.5Q209 298 209.5 311Q210 324 210 332.5Q210 341 210 341H190Q190 341 186 332Q182 323 176.5 310Q171 297 164.5 282.5Q158 268 153 257Z" glyph-name="four.dnom" horiz-adv-x="359" /><glyph d="M35 363V416L163 680H266V415H326V363H266V282H209V363ZM92 415H209V539Q209 551 209 565.5Q209 580 209.5 593Q210 606 210 614.5Q210 623 210 623H190Q190 623 186 614Q182 605 176.5 592Q171 579 164.5 564.5Q158 550 153 539Z" glyph-name="four.numr" horiz-adv-x="359" /><glyph d="M490 114V50H404V-108H333V50H32V111L276 528H404V114ZM114 114H333V354Q333 397 334 430Q335 463 335 463H314Q314 463 297.5 431.5Q281 400 255 355Z" glyph-name="four.osf" horiz-adv-x="522" /><glyph d="M495 210V143H402V0H329V143H23V210L263 680H402V210ZM99 210H329V504Q329 547 330 580Q331 613 331 613H301Q301 613 286 581Q271 549 252 510Z" glyph-name="four.ss02" horiz-adv-x="517" /><glyph d="M534 210V143H432V0H359V143H32V210L292 680H432V210ZM110 210H359V504Q359 547 360 580Q361 613 361 613H331Q331 613 313.5 579Q296 545 275 508Z" glyph-name="four.tf" horiz-adv-x="560" /><glyph d="M249 680H292V643L-126 0H-169V37Z" glyph-name="fraction" horiz-adv-x="123" unicode="&#8260;" /><glyph d="M60 -57Q60 -31 69.5 -10Q79 11 90 26Q101 41 110.5 49Q120 57 120 57V59Q120 59 114.5 63.5Q109 68 103 76.5Q97 85 91.5 98Q86 111 86 128Q86 149 92.5 165Q99 181 106.5 192.5Q114 204 120.5 210Q127 216 127 216V217Q127 217 118 225Q109 233 98.5 248.5Q88 264 79 288.5Q70 313 70 346V351Q70 419 116 465Q162 511 263 511Q324 511 359 499.5Q394 488 394 488H395Q401 515 414 532.5Q427 550 440 560Q453 570 463.5 574Q474 578 474 578H534V514H513Q483 514 470.5 497Q458 480 458 452L457 354Q456 280 412 232Q368 184 262 184H172Q172 184 161 171Q150 158 150 137Q150 118 160 106Q170 94 195 94H360Q431 94 466 60Q501 26 501 -34Q501 -108 443 -144.5Q385 -181 279 -181H257Q192 -181 153 -170.5Q114 -160 93.5 -142.5Q73 -125 66.5 -102.5Q60 -80 60 -57ZM141 343Q141 317 147.5 298.5Q154 280 162 268.5Q170 257 176.5 251.5Q183 246 183 246L259 245Q326 244 356 273.5Q386 303 386 358V428Q386 428 354 438Q322 448 264 448Q194 448 167.5 421Q141 394 141 345ZM127 -49Q127 -84 154 -101Q181 -118 257 -118H281Q328 -118 357.5 -112Q387 -106 403 -95.5Q419 -85 424.5 -70.5Q430 -56 430 -38Q430 -12 413.5 8.5Q397 29 354 29H165Q165 29 159 25Q153 21 146 11.5Q139 2 133 -13Q127 -28 127 -49Z" glyph-name="g" horiz-adv-x="542" unicode="g" /><glyph d="M112 -156V-98H157Q157 -98 186 -107Q215 -116 256 -116Q320 -116 357 -89Q394 -62 394 -8V7Q394 35 394.5 53.5Q395 72 395 72H393Q393 72 383 62Q373 52 353 40.5Q333 29 303 19Q273 9 233 9Q150 9 103 64.5Q56 120 56 244V279Q56 404 108 459Q160 514 240 514Q278 514 307.5 505Q337 496 357 486Q377 476 387 467Q397 458 397 458H399L408 508H465V-8Q465 -88 407 -135Q349 -182 256 -182Q186 -182 149 -169Q112 -156 112 -156ZM129 258Q129 153 158.5 113.5Q188 74 257 74Q289 74 314.5 83Q340 92 357.5 103.5Q375 115 384.5 124Q394 133 394 133V400Q394 400 385.5 408Q377 416 361 425Q345 434 320.5 442Q296 450 264 450Q197 450 163 409.5Q129 369 129 264Z" glyph-name="g.alt" horiz-adv-x="555" /><glyph d="M130 703H185Q185 703 187 693.5Q189 684 196.5 673Q204 662 219.5 652.5Q235 643 262 643Q289 643 304.5 652.5Q320 662 327.5 673Q335 684 337 693.5Q339 703 339 703H394V659Q394 659 388 647Q382 635 367 621Q352 607 326.5 595Q301 583 262 583Q223 583 197.5 595Q172 607 157 621Q142 635 136 647Q130 659 130 659ZM60 -57Q60 -31 69.5 -10Q79 11 90 26Q101 41 110.5 49Q120 57 120 57V59Q120 59 114.5 63.5Q109 68 103 76.5Q97 85 91.5 98Q86 111 86 128Q86 149 92.5 165Q99 181 106.5 192.5Q114 204 120.5 210Q127 216 127 216V217Q127 217 118 225Q109 233 98.5 248.5Q88 264 79 288.5Q70 313 70 346V351Q70 419 116 465Q162 511 263 511Q324 511 359 499.5Q394 488 394 488H395Q401 515 414 532.5Q427 550 440 560Q453 570 463.5 574Q474 578 474 578H534V514H513Q483 514 470.5 497Q458 480 458 452L457 354Q456 280 412 232Q368 184 262 184H172Q172 184 161 171Q150 158 150 137Q150 118 160 106Q170 94 195 94H360Q431 94 466 60Q501 26 501 -34Q501 -108 443 -144.5Q385 -181 279 -181H257Q192 -181 153 -170.5Q114 -160 93.5 -142.5Q73 -125 66.5 -102.5Q60 -80 60 -57ZM141 343Q141 317 147.5 298.5Q154 280 162 268.5Q170 257 176.5 251.5Q183 246 183 246L259 245Q326 244 356 273.5Q386 303 386 358V428Q386 428 354 438Q322 448 264 448Q194 448 167.5 421Q141 394 141 345ZM127 -49Q127 -84 154 -101Q181 -118 257 -118H281Q328 -118 357.5 -112Q387 -106 403 -95.5Q419 -85 424.5 -70.5Q430 -56 430 -38Q430 -12 413.5 8.5Q397 29 354 29H165Q165 29 159 25Q153 21 146 11.5Q139 2 133 -13Q127 -28 127 -49Z" glyph-name="gbreve" horiz-adv-x="542" unicode="&#287;" /><glyph d="M134 703H189Q189 703 191 693.5Q193 684 200.5 673Q208 662 223.5 652.5Q239 643 266 643Q293 643 308.5 652.5Q324 662 331.5 673Q339 684 341 693.5Q343 703 343 703H398V659Q398 659 392 647Q386 635 371 621Q356 607 330.5 595Q305 583 266 583Q227 583 201.5 595Q176 607 161 621Q146 635 140 647Q134 659 134 659ZM112 -156V-98H157Q157 -98 186 -107Q215 -116 256 -116Q320 -116 357 -89Q394 -62 394 -8V7Q394 35 394.5 53.5Q395 72 395 72H393Q393 72 383 62Q373 52 353 40.5Q333 29 303 19Q273 9 233 9Q150 9 103 64.5Q56 120 56 244V279Q56 404 108 459Q160 514 240 514Q278 514 307.5 505Q337 496 357 486Q377 476 387 467Q397 458 397 458H399L408 508H465V-8Q465 -88 407 -135Q349 -182 256 -182Q186 -182 149 -169Q112 -156 112 -156ZM129 258Q129 153 158.5 113.5Q188 74 257 74Q289 74 314.5 83Q340 92 357.5 103.5Q375 115 384.5 124Q394 133 394 133V400Q394 400 385.5 408Q377 416 361 425Q345 434 320.5 442Q296 450 264 450Q197 450 163 409.5Q129 369 129 264Z" glyph-name="gbreve.alt" horiz-adv-x="555" /><glyph d="M399 740V710L293 573H231L125 710V740H176L226 673Q241 654 250.5 640Q260 626 260 626H264Q264 626 273.5 640Q283 654 298 673L348 740ZM60 -57Q60 -31 69.5 -10Q79 11 90 26Q101 41 110.5 49Q120 57 120 57V59Q120 59 114.5 63.5Q109 68 103 76.5Q97 85 91.5 98Q86 111 86 128Q86 149 92.5 165Q99 181 106.5 192.5Q114 204 120.5 210Q127 216 127 216V217Q127 217 118 225Q109 233 98.5 248.5Q88 264 79 288.5Q70 313 70 346V351Q70 419 116 465Q162 511 263 511Q324 511 359 499.5Q394 488 394 488H395Q401 515 414 532.5Q427 550 440 560Q453 570 463.5 574Q474 578 474 578H534V514H513Q483 514 470.5 497Q458 480 458 452L457 354Q456 280 412 232Q368 184 262 184H172Q172 184 161 171Q150 158 150 137Q150 118 160 106Q170 94 195 94H360Q431 94 466 60Q501 26 501 -34Q501 -108 443 -144.5Q385 -181 279 -181H257Q192 -181 153 -170.5Q114 -160 93.5 -142.5Q73 -125 66.5 -102.5Q60 -80 60 -57ZM141 343Q141 317 147.5 298.5Q154 280 162 268.5Q170 257 176.5 251.5Q183 246 183 246L259 245Q326 244 356 273.5Q386 303 386 358V428Q386 428 354 438Q322 448 264 448Q194 448 167.5 421Q141 394 141 345ZM127 -49Q127 -84 154 -101Q181 -118 257 -118H281Q328 -118 357.5 -112Q387 -106 403 -95.5Q419 -85 424.5 -70.5Q430 -56 430 -38Q430 -12 413.5 8.5Q397 29 354 29H165Q165 29 159 25Q153 21 146 11.5Q139 2 133 -13Q127 -28 127 -49Z" glyph-name="gcaron" horiz-adv-x="542" unicode="&#487;" /><glyph d="M403 740V710L297 573H235L129 710V740H180L230 673Q245 654 254.5 640Q264 626 264 626H268Q268 626 277.5 640Q287 654 302 673L352 740ZM112 -156V-98H157Q157 -98 186 -107Q215 -116 256 -116Q320 -116 357 -89Q394 -62 394 -8V7Q394 35 394.5 53.5Q395 72 395 72H393Q393 72 383 62Q373 52 353 40.5Q333 29 303 19Q273 9 233 9Q150 9 103 64.5Q56 120 56 244V279Q56 404 108 459Q160 514 240 514Q278 514 307.5 505Q337 496 357 486Q377 476 387 467Q397 458 397 458H399L408 508H465V-8Q465 -88 407 -135Q349 -182 256 -182Q186 -182 149 -169Q112 -156 112 -156ZM129 258Q129 153 158.5 113.5Q188 74 257 74Q289 74 314.5 83Q340 92 357.5 103.5Q375 115 384.5 124Q394 133 394 133V400Q394 400 385.5 408Q377 416 361 425Q345 434 320.5 442Q296 450 264 450Q197 450 163 409.5Q129 369 129 264Z" glyph-name="gcaron.alt" horiz-adv-x="555" /><glyph d="M125 573V603L231 740H293L399 603V573H348L298 640Q283 659 273.5 673Q264 687 264 687H260Q260 687 250.5 673Q241 659 226 640L176 573ZM60 -57Q60 -31 69.5 -10Q79 11 90 26Q101 41 110.5 49Q120 57 120 57V59Q120 59 114.5 63.5Q109 68 103 76.5Q97 85 91.5 98Q86 111 86 128Q86 149 92.5 165Q99 181 106.5 192.5Q114 204 120.5 210Q127 216 127 216V217Q127 217 118 225Q109 233 98.5 248.5Q88 264 79 288.5Q70 313 70 346V351Q70 419 116 465Q162 511 263 511Q324 511 359 499.5Q394 488 394 488H395Q401 515 414 532.5Q427 550 440 560Q453 570 463.5 574Q474 578 474 578H534V514H513Q483 514 470.5 497Q458 480 458 452L457 354Q456 280 412 232Q368 184 262 184H172Q172 184 161 171Q150 158 150 137Q150 118 160 106Q170 94 195 94H360Q431 94 466 60Q501 26 501 -34Q501 -108 443 -144.5Q385 -181 279 -181H257Q192 -181 153 -170.5Q114 -160 93.5 -142.5Q73 -125 66.5 -102.5Q60 -80 60 -57ZM141 343Q141 317 147.5 298.5Q154 280 162 268.5Q170 257 176.5 251.5Q183 246 183 246L259 245Q326 244 356 273.5Q386 303 386 358V428Q386 428 354 438Q322 448 264 448Q194 448 167.5 421Q141 394 141 345ZM127 -49Q127 -84 154 -101Q181 -118 257 -118H281Q328 -118 357.5 -112Q387 -106 403 -95.5Q419 -85 424.5 -70.5Q430 -56 430 -38Q430 -12 413.5 8.5Q397 29 354 29H165Q165 29 159 25Q153 21 146 11.5Q139 2 133 -13Q127 -28 127 -49Z" glyph-name="gcircumflex" horiz-adv-x="542" unicode="&#285;" /><glyph d="M129 573V603L235 740H297L403 603V573H352L302 640Q287 659 277.5 673Q268 687 268 687H264Q264 687 254.5 673Q245 659 230 640L180 573ZM112 -156V-98H157Q157 -98 186 -107Q215 -116 256 -116Q320 -116 357 -89Q394 -62 394 -8V7Q394 35 394.5 53.5Q395 72 395 72H393Q393 72 383 62Q373 52 353 40.5Q333 29 303 19Q273 9 233 9Q150 9 103 64.5Q56 120 56 244V279Q56 404 108 459Q160 514 240 514Q278 514 307.5 505Q337 496 357 486Q377 476 387 467Q397 458 397 458H399L408 508H465V-8Q465 -88 407 -135Q349 -182 256 -182Q186 -182 149 -169Q112 -156 112 -156ZM129 258Q129 153 158.5 113.5Q188 74 257 74Q289 74 314.5 83Q340 92 357.5 103.5Q375 115 384.5 124Q394 133 394 133V400Q394 400 385.5 408Q377 416 361 425Q345 434 320.5 442Q296 450 264 450Q197 450 163 409.5Q129 369 129 264Z" glyph-name="gcircumflex.alt" horiz-adv-x="555" /><glyph d="M214 628Q214 649 225.5 661.5Q237 674 262 674Q287 674 299 661.5Q311 649 311 628V622Q311 602 299 589.5Q287 577 262 577Q237 577 225.5 589.5Q214 602 214 622ZM60 -57Q60 -31 69.5 -10Q79 11 90 26Q101 41 110.5 49Q120 57 120 57V59Q120 59 114.5 63.5Q109 68 103 76.5Q97 85 91.5 98Q86 111 86 128Q86 149 92.5 165Q99 181 106.5 192.5Q114 204 120.5 210Q127 216 127 216V217Q127 217 118 225Q109 233 98.5 248.5Q88 264 79 288.5Q70 313 70 346V351Q70 419 116 465Q162 511 263 511Q324 511 359 499.5Q394 488 394 488H395Q401 515 414 532.5Q427 550 440 560Q453 570 463.5 574Q474 578 474 578H534V514H513Q483 514 470.5 497Q458 480 458 452L457 354Q456 280 412 232Q368 184 262 184H172Q172 184 161 171Q150 158 150 137Q150 118 160 106Q170 94 195 94H360Q431 94 466 60Q501 26 501 -34Q501 -108 443 -144.5Q385 -181 279 -181H257Q192 -181 153 -170.5Q114 -160 93.5 -142.5Q73 -125 66.5 -102.5Q60 -80 60 -57ZM141 343Q141 317 147.5 298.5Q154 280 162 268.5Q170 257 176.5 251.5Q183 246 183 246L259 245Q326 244 356 273.5Q386 303 386 358V428Q386 428 354 438Q322 448 264 448Q194 448 167.5 421Q141 394 141 345ZM127 -49Q127 -84 154 -101Q181 -118 257 -118H281Q328 -118 357.5 -112Q387 -106 403 -95.5Q419 -85 424.5 -70.5Q430 -56 430 -38Q430 -12 413.5 8.5Q397 29 354 29H165Q165 29 159 25Q153 21 146 11.5Q139 2 133 -13Q127 -28 127 -49Z" glyph-name="gdotaccent" horiz-adv-x="542" unicode="&#289;" /><glyph d="M218 628Q218 649 229.5 661.5Q241 674 266 674Q291 674 303 661.5Q315 649 315 628V622Q315 602 303 589.5Q291 577 266 577Q241 577 229.5 589.5Q218 602 218 622ZM112 -156V-98H157Q157 -98 186 -107Q215 -116 256 -116Q320 -116 357 -89Q394 -62 394 -8V7Q394 35 394.5 53.5Q395 72 395 72H393Q393 72 383 62Q373 52 353 40.5Q333 29 303 19Q273 9 233 9Q150 9 103 64.5Q56 120 56 244V279Q56 404 108 459Q160 514 240 514Q278 514 307.5 505Q337 496 357 486Q377 476 387 467Q397 458 397 458H399L408 508H465V-8Q465 -88 407 -135Q349 -182 256 -182Q186 -182 149 -169Q112 -156 112 -156ZM129 258Q129 153 158.5 113.5Q188 74 257 74Q289 74 314.5 83Q340 92 357.5 103.5Q375 115 384.5 124Q394 133 394 133V400Q394 400 385.5 408Q377 416 361 425Q345 434 320.5 442Q296 450 264 450Q197 450 163 409.5Q129 369 129 264Z" glyph-name="gdotaccent.alt" horiz-adv-x="555" /><glyph d="M283 367Q283 395 296 418.5Q309 442 339 470L368 497Q384 511 395.5 531Q407 551 407 588Q407 642 373.5 664.5Q340 687 298 687Q227 687 194 644.5Q161 602 161 498V-173H90V490Q90 624 140.5 686Q191 748 298 748Q379 748 428.5 707Q478 666 478 586Q478 534 460 503.5Q442 473 419 452L390 425Q374 409 365 395.5Q356 382 356 367Q356 351 364 338.5Q372 326 409 304L424 295Q478 263 502.5 225.5Q527 188 527 141Q527 78 483.5 34.5Q440 -9 353 -9Q319 -9 292 -4Q265 1 247.5 7Q230 13 220.5 18Q211 23 211 23V80H261Q261 80 284 66.5Q307 53 364 53Q410 53 432.5 76.5Q455 100 455 136Q455 167 439 190Q423 213 383 237L368 247Q312 281 297.5 308Q283 335 283 367Z" glyph-name="germandbls" horiz-adv-x="571" unicode="&#223;" /><glyph d="M78 740 158 573H97L20 695V740Z" glyph-name="grave" horiz-adv-x="178" unicode="`" /><glyph d="M78 740 158 573H97L20 695V740Z" glyph-name="gravecomb" horiz-adv-x="178" unicode="&#768;" /><glyph d="M30 882H76L208 794V734L30 824Z" glyph-name="gravecomb.case" horiz-adv-x="238" /><glyph d="M530 335V261L113 94H70V149L316 246Q338 255 361 264Q384 273 402.5 280Q421 287 432.5 291.5Q444 296 444 296V300Q444 300 432.5 304.5Q421 309 402.5 316Q384 323 361 332Q338 341 316 350L70 447V502H113Z" glyph-name="greater" horiz-adv-x="600" unicode="&gt;" /><glyph d="M340 35V78L438 183Q449 195 463 208Q477 221 477 221V222Q477 222 457 221.5Q437 221 403 221H24V287H403Q437 287 457 286.5Q477 286 477 286V287Q477 287 462.5 301Q448 315 438 326L340 430V474H393L576 276V233L393 35Z" glyph-name="greaterequal" horiz-adv-x="600" unicode="&#8805;" /><glyph d="M42 274 198 469H251V426L146 295Q130 275 121.5 266Q113 257 113 257V251Q113 251 121.5 242Q130 233 146 213L251 82V39H198L42 233ZM234 274 390 469H443V426L338 295Q322 275 313.5 266Q305 257 305 257V251Q305 251 313.5 242Q322 233 338 213L443 82V39H390L234 233Z" glyph-name="guillemotleft" horiz-adv-x="480" unicode="&#171;" /><glyph d="M42 339 198 534H251V491L146 360Q130 340 121.5 331Q113 322 113 322V316Q113 316 121.5 307Q130 298 146 278L251 147V104H198L42 298ZM234 339 390 534H443V491L338 360Q322 340 313.5 331Q305 322 305 322V316Q305 316 313.5 307Q322 298 338 278L443 147V104H390L234 298Z" glyph-name="guillemotleft.case" horiz-adv-x="480" /><glyph d="M438 274V233L282 39H229V82L334 213Q350 233 358.5 242Q367 251 367 251V257Q367 257 358.5 266Q350 275 334 295L229 426V469H282ZM246 274V233L90 39H37V82L142 213Q158 233 166.5 242Q175 251 175 251V257Q175 257 166.5 266Q158 275 142 295L37 426V469H90Z" glyph-name="guillemotright" horiz-adv-x="480" unicode="&#187;" /><glyph d="M442 339V298L286 104H233V147L338 278Q354 298 362.5 307Q371 316 371 316V322Q371 322 362.5 331Q354 340 338 360L233 491V534H286ZM250 339V298L94 104H41V147L146 278Q162 298 170.5 307Q179 316 179 316V322Q179 322 170.5 331Q162 340 146 360L41 491V534H94Z" glyph-name="guillemotright.case" horiz-adv-x="480" /><glyph d="M42 274 198 469H251V426L146 295Q130 275 121.5 266Q113 257 113 257V251Q113 251 121.5 242Q130 233 146 213L251 82V39H198L42 233Z" glyph-name="guilsinglleft" horiz-adv-x="288" unicode="&#8249;" /><glyph d="M42 339 198 534H251V491L146 360Q130 340 121.5 331Q113 322 113 322V316Q113 316 121.5 307Q130 298 146 278L251 147V104H198L42 298Z" glyph-name="guilsinglleft.case" horiz-adv-x="288" /><glyph d="M246 274V233L90 39H37V82L142 213Q158 233 166.5 242Q175 251 175 251V257Q175 257 166.5 266Q158 275 142 295L37 426V469H90Z" glyph-name="guilsinglright" horiz-adv-x="288" unicode="&#8250;" /><glyph d="M246 339V298L90 104H37V147L142 278Q158 298 166.5 307Q175 316 175 316V322Q175 322 166.5 331Q158 340 142 360L37 491V534H90Z" glyph-name="guilsinglright.case" horiz-adv-x="288" /><glyph d="M90 0V740H161V554Q161 515 160.5 483Q160 451 160 451H162Q162 451 172.5 461Q183 471 204 483.5Q225 496 257 506Q289 516 330 516Q394 516 434 480Q474 444 474 378V0H403V371Q403 411 378 432Q353 453 304 453Q272 453 245 443.5Q218 434 199.5 422Q181 410 171 400.5Q161 391 161 391V0Z" glyph-name="h" horiz-adv-x="558" unicode="h" /><glyph d="M90 0V607H9V668H90V740H161V668H297V607H161V554Q161 515 160.5 483Q160 451 160 451H162Q162 451 172.5 461Q183 471 204 483.5Q225 496 257 506Q289 516 330 516Q394 516 434 480Q474 444 474 378V0H403V371Q403 411 378 432Q353 453 304 453Q272 453 245 443.5Q218 434 199.5 422Q181 410 171 400.5Q161 391 161 391V0Z" glyph-name="hbar" horiz-adv-x="558" unicode="&#295;" /><glyph d="M-4 770V800L93 897H151L248 800V770H196L164 803Q147 820 135.5 832.5Q124 845 124 845H120Q120 845 108.5 832.5Q97 820 80 803L48 770ZM90 0V740H161V554Q161 515 160.5 483Q160 451 160 451H162Q162 451 172.5 461Q183 471 204 483.5Q225 496 257 506Q289 516 330 516Q394 516 434 480Q474 444 474 378V0H403V371Q403 411 378 432Q353 453 304 453Q272 453 245 443.5Q218 434 199.5 422Q181 410 171 400.5Q161 391 161 391V0Z" glyph-name="hcircumflex" horiz-adv-x="558" unicode="&#293;" /><glyph d="M149 665 77 573H13L91 710H149ZM288 665 216 573H153L231 710H288Z" glyph-name="hungarumlaut" horiz-adv-x="301" unicode="&#733;" /><glyph d="M55 287H337V221H55Z" glyph-name="hyphen" horiz-adv-x="392" unicode="-" /><glyph d="M55 352H337V286H55Z" glyph-name="hyphen.case" horiz-adv-x="392" /><glyph d="M77 679Q77 699 88.5 711.5Q100 724 125 724Q150 724 162 711.5Q174 699 174 679V673Q174 653 162 640Q150 627 125 627Q100 627 88.5 640Q77 653 77 673ZM90 0V508H161V0Z" glyph-name="i" horiz-adv-x="250" unicode="i" /><glyph d="M86 679Q86 699 97.5 711.5Q109 724 134 724Q159 724 171 711.5Q183 699 183 679V673Q183 653 171 640Q159 627 134 627Q109 627 97.5 640Q86 653 86 673ZM170 508V0H99V443L40 453V508Z" glyph-name="i.alt" horiz-adv-x="259" /><glyph d="M77 628Q77 649 88.5 661.5Q100 674 125 674Q150 674 162 661.5Q174 649 174 628V622Q174 602 162 589.5Q150 577 125 577Q100 577 88.5 589.5Q77 602 77 622ZM161 0H90V508H161Z" glyph-name="i.loclTRK" horiz-adv-x="250" /><glyph d="M167 740H225V695L148 573H87ZM161 0H90V508H161Z" glyph-name="iacute" horiz-adv-x="250" unicode="&#237;" /><glyph d="M150 740H208V695L131 573H70ZM170 508V0H99V443L40 453V508Z" glyph-name="iacute.alt" horiz-adv-x="259" /><glyph d="M-7 703H48Q48 703 50 693.5Q52 684 59.5 673Q67 662 82.5 652.5Q98 643 125 643Q152 643 167.5 652.5Q183 662 190.5 673Q198 684 200 693.5Q202 703 202 703H257V659Q257 659 251 647Q245 635 230 621Q215 607 189.5 595Q164 583 125 583Q86 583 60.5 595Q35 607 20 621Q5 635 -1 647Q-7 659 -7 659ZM161 0H90V508H161Z" glyph-name="ibreve" horiz-adv-x="250" unicode="&#301;" /><glyph d="M-24 703H31Q31 703 33 693.5Q35 684 42.5 673Q50 662 65.5 652.5Q81 643 108 643Q135 643 150.5 652.5Q166 662 173.5 673Q181 684 183 693.5Q185 703 185 703H240V659Q240 659 234 647Q228 635 213 621Q198 607 172.5 595Q147 583 108 583Q69 583 43.5 595Q18 607 3 621Q-12 635 -18 647Q-24 659 -24 659ZM170 508V0H99V443L40 453V508Z" glyph-name="ibreve.alt" horiz-adv-x="259" /><glyph d="M-12 573V603L94 740H156L262 603V573H211L161 640Q146 659 136.5 673Q127 687 127 687H123Q123 687 113.5 673Q104 659 89 640L39 573ZM161 0H90V508H161Z" glyph-name="icircumflex" horiz-adv-x="250" unicode="&#238;" /><glyph d="M-29 573V603L77 740H139L245 603V573H194L144 640Q129 659 119.5 673Q110 687 110 687H106Q106 687 96.5 673Q87 659 72 640L22 573ZM170 508V0H99V443L40 453V508Z" glyph-name="icircumflex.alt" horiz-adv-x="259" /><glyph d="M7 639Q7 659 18.5 672Q30 685 55 685Q80 685 92 672Q104 659 104 639V633Q104 613 92 600.5Q80 588 55 588Q30 588 18.5 600.5Q7 613 7 633ZM147 639Q147 659 159 672Q171 685 196 685Q221 685 232.5 672Q244 659 244 639V633Q244 613 232.5 600.5Q221 588 196 588Q171 588 159 600.5Q147 613 147 633ZM161 0H90V508H161Z" glyph-name="idieresis" horiz-adv-x="250" unicode="&#239;" /><glyph d="M-10 639Q-10 659 1.5 672Q13 685 38 685Q63 685 75 672Q87 659 87 639V633Q87 613 75 600.5Q63 588 38 588Q13 588 1.5 600.5Q-10 613 -10 633ZM130 639Q130 659 142 672Q154 685 179 685Q204 685 215.5 672Q227 659 227 639V633Q227 613 215.5 600.5Q204 588 179 588Q154 588 142 600.5Q130 613 130 633ZM170 508V0H99V443L40 453V508Z" glyph-name="idieresis.alt" horiz-adv-x="259" /><glyph d="M80 740 160 573H99L22 695V740ZM161 0H90V508H161Z" glyph-name="igrave" horiz-adv-x="250" unicode="&#236;" /><glyph d="M63 740 143 573H82L5 695V740ZM170 508V0H99V443L40 453V508Z" glyph-name="igrave.alt" horiz-adv-x="259" /><glyph d="M77 679Q77 699 88.5 711.5Q100 724 125 724Q150 724 162 711.5Q174 699 174 679V673Q174 653 162 640Q150 627 125 627Q100 627 88.5 640Q77 653 77 673ZM327 679Q327 699 338.5 711.5Q350 724 375 724Q400 724 412 711.5Q424 699 424 679V673Q424 653 412 640Q400 627 375 627Q350 627 338.5 640Q327 653 327 673ZM90 0V508H161V0ZM340 508H411V10Q411 -45 397 -81Q383 -117 366.5 -137Q350 -157 336 -165Q322 -173 322 -173H267V-112H273Q279 -112 290 -109Q301 -106 312 -95.5Q323 -85 331.5 -64Q340 -43 340 -6Z" glyph-name="ij" horiz-adv-x="500" unicode="&#307;" /><glyph d="M167 740H225V695L148 573H87ZM420 740H478V695L401 573H340ZM161 0H90V508H161ZM343 508H414V10Q414 -45 400 -81Q386 -117 369.5 -137Q353 -157 339 -165Q325 -173 325 -173H270V-112H276Q282 -112 293 -109Q304 -106 315 -95.5Q326 -85 334.5 -64Q343 -43 343 -6Z" glyph-name="ijacute" horiz-adv-x="503" /><glyph d="M-15 680H264V616H-15ZM161 0H90V508H161Z" glyph-name="imacron" horiz-adv-x="250" unicode="&#299;" /><glyph d="M-32 680H247V616H-32ZM170 508V0H99V443L40 453V508Z" glyph-name="imacron.alt" horiz-adv-x="259" /><glyph d="M77 628Q77 649 88.5 661.5Q100 674 125 674Q150 674 162 661.5Q174 649 174 628V622Q174 602 162 589.5Q150 577 125 577Q100 577 88.5 589.5Q77 602 77 622ZM161 0 119 -46Q105 -61 98.5 -71.5Q92 -82 92 -94Q92 -107 102.5 -116.5Q113 -126 130 -126H147V-181H127Q82 -181 56.5 -158.5Q31 -136 31 -99Q31 -71 44.5 -49Q58 -27 80 -3L90 8V508H161Z" glyph-name="iogonek" horiz-adv-x="250" unicode="&#303;" /><glyph d="M60 628Q60 649 71.5 661.5Q83 674 108 674Q133 674 145 661.5Q157 649 157 628V622Q157 602 145 589.5Q133 577 108 577Q83 577 71.5 589.5Q60 602 60 622ZM170 0 128 -46Q114 -61 107.5 -71.5Q101 -82 101 -94Q101 -107 111.5 -116.5Q122 -126 139 -126H156V-181H136Q91 -181 65.5 -158.5Q40 -136 40 -99Q40 -71 53.5 -49Q67 -27 89 -3L99 8V443L40 453V508H170Z" glyph-name="iogonek.alt" horiz-adv-x="259" /><glyph d="M-46 610V655Q-46 655 -41.5 662Q-37 669 -26.5 677.5Q-16 686 0.5 693Q17 700 42 700Q62 700 85 695Q108 690 125 684L146 675Q161 670 175 666.5Q189 663 202 663Q232 663 240 677Q248 691 248 691H295V645Q295 645 290.5 638Q286 631 275.5 622.5Q265 614 248.5 607Q232 600 207 600Q187 600 164 605Q141 610 124 617L103 625Q88 631 74 634.5Q60 638 47 638Q17 638 9 624Q1 610 1 610ZM161 0H90V508H161Z" glyph-name="itilde" horiz-adv-x="250" unicode="&#297;" /><glyph d="M-63 610V655Q-63 655 -58.5 662Q-54 669 -43.5 677.5Q-33 686 -16.5 693Q0 700 25 700Q45 700 68 695Q91 690 108 684L129 675Q144 670 158 666.5Q172 663 185 663Q215 663 223 677Q231 691 231 691H278V645Q278 645 273.5 638Q269 631 258.5 622.5Q248 614 231.5 607Q215 600 190 600Q170 600 147 605Q124 610 107 617L86 625Q71 631 57 634.5Q43 638 30 638Q0 638 -8 624Q-16 610 -16 610ZM170 508V0H99V443L40 453V508Z" glyph-name="itilde.alt" horiz-adv-x="259" /><glyph d="M77 679Q77 699 88.5 711.5Q100 724 125 724Q150 724 162 711.5Q174 699 174 679V673Q174 653 162 640Q150 627 125 627Q100 627 88.5 640Q77 653 77 673ZM90 508H161V10Q161 -45 147 -81Q133 -117 116.5 -137Q100 -157 86 -165Q72 -173 72 -173H17V-112H23Q29 -112 40 -109Q51 -106 62 -95.5Q73 -85 81.5 -64Q90 -43 90 -6Z" glyph-name="j" horiz-adv-x="250" unicode="j" /><glyph d="M87 673V679Q87 699 98.5 711.5Q110 724 135 724Q160 724 172 711.5Q184 699 184 679V673Q184 653 172 640Q160 627 135 627Q110 627 98.5 640Q87 653 87 673ZM27 -173V-112H33Q39 -112 50 -109Q61 -106 72 -95.5Q83 -85 91.5 -64Q100 -43 100 -6V443L41 453V508H171V10Q171 -45 157 -81Q143 -117 126.5 -137Q110 -157 96 -165Q82 -173 82 -173Z" glyph-name="j.alt" horiz-adv-x="260" /><glyph d="M-10 573V603L96 740H158L264 603V573H213L163 640Q148 659 138.5 673Q129 687 129 687H125Q125 687 115.5 673Q106 659 91 640L41 573ZM93 508H164V10Q164 -45 150 -81Q136 -117 119.5 -137Q103 -157 89 -165Q75 -173 75 -173H20V-112H26Q32 -112 43 -109Q54 -106 65 -95.5Q76 -85 84.5 -64Q93 -43 93 -6Z" glyph-name="jcircumflex" horiz-adv-x="253" unicode="&#309;" /><glyph d="M-29 573V603L77 740H139L245 603V573H194L144 640Q129 659 119.5 673Q110 687 110 687H106Q106 687 96.5 673Q87 659 72 640L22 573ZM27 -173V-112H33Q39 -112 50 -109Q61 -106 72 -95.5Q83 -85 91.5 -64Q100 -43 100 -6V443L41 453V508H171V10Q171 -45 157 -81Q143 -117 126.5 -137Q110 -157 96 -165Q82 -173 82 -173Z" glyph-name="jcircumflex.alt" horiz-adv-x="260" /><glyph d="M90 0V740H161V402Q161 368 160 336.5Q159 305 159 305H235Q235 305 256.5 329.5Q278 354 297 374L422 508H476V466L295 276V273Q295 273 313.5 246.5Q332 220 360 183.5Q388 147 423 108.5Q458 70 490 46V0H435Q403 25 368 66Q333 107 303.5 146Q274 185 254.5 213.5Q235 242 235 242H161V0Z" glyph-name="k" horiz-adv-x="511" unicode="k" /><glyph d="M90 0V508H161V392Q161 358 160 326.5Q159 295 159 295H229Q229 295 245.5 313.5Q262 332 279 351L420 508H472V466L290 265V262Q290 262 308.5 237Q327 212 356 178Q385 144 420 107Q455 70 487 46V0H429Q397 25 361 64.5Q325 104 295 140.5Q265 177 245 204Q225 231 225 231H161V0Z" glyph-name="kgreenlandic" horiz-adv-x="507" unicode="&#312;" /><glyph d="M201 0H139Q139 0 130.5 4Q122 8 112 18Q102 28 93.5 46.5Q85 65 85 94V740H156V102Q156 80 166 70.5Q176 61 191 61H201Z" glyph-name="l" horiz-adv-x="250" unicode="l" /><glyph d="M262 942V884L84 794V854L216 942ZM201 0H139Q139 0 130.5 4Q122 8 112 18Q102 28 93.5 46.5Q85 65 85 94V740H156V102Q156 80 166 70.5Q176 61 191 61H201Z" glyph-name="lacute" horiz-adv-x="250" unicode="&#314;" /><glyph d="M201 0H139Q139 0 130.5 4Q122 8 112 18Q102 28 93.5 46.5Q85 65 85 94V740H156V102Q156 80 166 70.5Q176 61 191 61H201ZM217 550Q217 550 221.5 565.5Q226 581 232 607Q238 633 242.5 667.5Q247 702 247 740H318V696Q308 632 292.5 591Q277 550 277 550Z" glyph-name="lcaron" horiz-adv-x="312" unicode="&#318;" /><glyph d="M201 0H139Q139 0 130.5 4Q122 8 112 18Q102 28 93.5 46.5Q85 65 85 94V740H156V102Q156 80 166 70.5Q176 61 191 61H201ZM236 336Q236 359 249.5 373.5Q263 388 290 388Q318 388 331.5 373.5Q345 359 345 336V330Q345 307 331.5 293Q318 279 290 279Q263 279 249.5 293Q236 307 236 330Z" glyph-name="ldot" horiz-adv-x="339" unicode="&#320;" /><glyph d="M70 335 487 502H530V447L284 350Q262 341 239 332Q216 323 197.5 316Q179 309 167.5 304.5Q156 300 156 300V296Q156 296 167.5 291.5Q179 287 197.5 280Q216 273 239 264Q262 255 284 246L530 149V94H487L70 261Z" glyph-name="less" horiz-adv-x="600" unicode="&lt;" /><glyph d="M260 35H207L24 233V276L207 474H260V430L162 326Q152 315 137.5 301Q123 287 123 287V286Q123 286 143 286.5Q163 287 197 287H576V221H197Q163 221 143 221.5Q123 222 123 222V221Q123 221 137 208Q151 195 162 183L260 78Z" glyph-name="lessequal" horiz-adv-x="600" unicode="&#8804;" /><glyph d="M70 265V330H530V67H464V265Z" glyph-name="logicalnot" horiz-adv-x="600" unicode="&#172;" /><glyph d="M201 0H139Q139 0 130.5 4Q122 8 112 18Q102 28 93.5 46.5Q85 65 85 94V336L45 311H3V355L85 407V740H156V452L196 477H238V433L156 381V102Q156 80 166 70.5Q176 61 191 61H201Z" glyph-name="lslash" horiz-adv-x="251" unicode="&#322;" /><glyph d="M90 0V508H148L158 452H160Q160 452 170.5 462Q181 472 201.5 484Q222 496 253 506Q284 516 324 516Q368 516 401.5 497Q435 478 449 445H451Q451 445 462.5 456Q474 467 496 480.5Q518 494 551 505Q584 516 625 516Q688 516 725.5 480Q763 444 763 378V0H692V371Q692 411 669.5 432Q647 453 599 453Q568 453 542.5 443.5Q517 434 499.5 422Q482 410 472 400.5Q462 391 462 391V0H391V371Q391 411 368.5 432Q346 453 298 453Q267 453 241.5 443.5Q216 434 198.5 422Q181 410 171 400.5Q161 391 161 391V0Z" glyph-name="m" horiz-adv-x="847" unicode="m" /><glyph d="M33 680H312V616H33Z" glyph-name="macron" horiz-adv-x="345" unicode="&#175;" /><glyph d="M70 330H530V265H70Z" glyph-name="minus" horiz-adv-x="600" unicode="&#8722;" /><glyph d="M93 459 140 504 300 344 460 505 506 459 345 298 506 137 460 91 300 252 140 92 93 137 254 298Z" glyph-name="multiply" horiz-adv-x="599" unicode="&#215;" /><glyph d="M90 0V508H148L158 452H160Q160 452 171 462Q182 472 202.5 484Q223 496 254.5 506Q286 516 326 516Q392 516 433 480Q474 444 474 378V0H403V371Q403 411 378 432Q353 453 304 453Q272 453 245 443.5Q218 434 199.5 422Q181 410 171 400.5Q161 391 161 391V0Z" glyph-name="n" horiz-adv-x="558" unicode="n" /><glyph d="M321 740H379V695L302 573H241ZM90 0V508H148L158 452H160Q160 452 171 462Q182 472 202.5 484Q223 496 254.5 506Q286 516 326 516Q392 516 433 480Q474 444 474 378V0H403V371Q403 411 378 432Q353 453 304 453Q272 453 245 443.5Q218 434 199.5 422Q181 410 171 400.5Q161 391 161 391V0Z" glyph-name="nacute" horiz-adv-x="558" unicode="&#324;" /><glyph d="M90 550Q90 550 94.5 565.5Q99 581 105 607Q111 633 115.5 667.5Q120 702 120 740H191V696Q181 632 165.5 591Q150 550 150 550ZM90 0V508H148L158 452H160Q160 452 171 462Q182 472 202.5 484Q223 496 254.5 506Q286 516 326 516Q392 516 433 480Q474 444 474 378V0H403V371Q403 411 378 432Q353 453 304 453Q272 453 245 443.5Q218 434 199.5 422Q181 410 171 400.5Q161 391 161 391V0Z" glyph-name="napostrophe" horiz-adv-x="558" unicode="&#329;" /><glyph d="M418 740V710L312 573H250L144 710V740H195L245 673Q260 654 269.5 640Q279 626 279 626H283Q283 626 292.5 640Q302 654 317 673L367 740ZM90 0V508H148L158 452H160Q160 452 171 462Q182 472 202.5 484Q223 496 254.5 506Q286 516 326 516Q392 516 433 480Q474 444 474 378V0H403V371Q403 411 378 432Q353 453 304 453Q272 453 245 443.5Q218 434 199.5 422Q181 410 171 400.5Q161 391 161 391V0Z" glyph-name="ncaron" horiz-adv-x="558" unicode="&#328;" /><glyph d="M470 447V413Q470 282 426 201Q382 120 329.5 75.5Q277 31 233 15.5Q189 0 189 0H137V58Q148 58 185 68Q222 78 264 106.5Q306 135 343.5 188Q381 241 393 325H390Q390 325 380 315Q370 305 350 293.5Q330 282 300.5 272Q271 262 233 262Q132 262 86 322Q40 382 40 474Q40 518 53 557.5Q66 597 92 625.5Q118 654 157.5 671Q197 688 249 688Q359 688 414.5 629.5Q470 571 470 447ZM242 327Q278 327 307 336.5Q336 346 356 358Q376 370 386.5 379.5Q397 389 397 389V464Q397 544 360 583.5Q323 623 249 623Q176 623 144.5 580Q113 537 113 474Q113 408 143.5 367.5Q174 327 242 327Z" glyph-name="nine" horiz-adv-x="530" unicode="9" /><glyph d="M105 51Q117 51 137 56.5Q157 62 178.5 76.5Q200 91 219 116Q238 141 248 179H246Q246 179 239.5 173.5Q233 168 221.5 162Q210 156 192 150.5Q174 145 152 145Q95 145 67.5 177.5Q40 210 40 270Q40 336 76.5 370Q113 404 173 404Q238 404 275 370Q312 336 312 258V241Q312 166 286.5 118.5Q261 71 230 45Q199 19 173.5 9Q148 -1 148 -1H105ZM101 270Q102 234 117.5 215Q133 196 167 196Q187 196 203 201.5Q219 207 230 213Q241 219 246.5 224.5Q252 230 252 230V257Q252 308 232.5 330Q213 352 171 352Q132 352 116.5 327Q101 302 101 270Z" glyph-name="nine.dnom" horiz-adv-x="355" /><glyph d="M105 333Q117 333 137 338.5Q157 344 178.5 358.5Q200 373 219 398Q238 423 248 461H246Q246 461 239.5 455.5Q233 450 221.5 444Q210 438 192 432.5Q174 427 152 427Q95 427 67.5 459.5Q40 492 40 552Q40 618 76.5 652Q113 686 173 686Q238 686 275 652Q312 618 312 540V523Q312 448 286.5 400.5Q261 353 230 327Q199 301 173.5 291Q148 281 148 281H105ZM101 552Q102 516 117.5 497Q133 478 167 478Q187 478 203 483.5Q219 489 230 495Q241 501 246.5 506.5Q252 512 252 512V539Q252 590 232.5 612Q213 634 171 634Q132 634 116.5 609Q101 584 101 552Z" glyph-name="nine.numr" horiz-adv-x="355" /><glyph d="M460 297V273Q460 161 422 87Q384 13 338.5 -30Q293 -73 255 -90.5Q217 -108 217 -108H166V-52Q177 -52 209 -39.5Q241 -27 276 1.5Q311 30 342 78Q373 126 382 197H379Q379 197 368.5 186.5Q358 176 338.5 163Q319 150 290.5 139.5Q262 129 225 129Q126 129 83 184.5Q40 240 40 330Q40 374 52.5 412Q65 450 90.5 478Q116 506 154.5 522Q193 538 244 538Q351 538 405.5 479.5Q460 421 460 297ZM237 194Q274 194 302 206Q330 218 349 233Q368 248 377.5 260Q387 272 387 272V314Q387 394 351.5 433.5Q316 473 244 473Q173 473 143 433Q113 393 113 330Q113 265 141 229.5Q169 194 237 194Z" glyph-name="nine.osf" horiz-adv-x="518" /><glyph d="M54 94H110Q110 94 115 88Q120 82 132.5 75Q145 68 166 62Q187 56 218 56Q290 56 329.5 96Q369 136 369 240V269Q369 291 369.5 307Q370 323 370 323H368Q368 323 358 313.5Q348 304 329.5 292.5Q311 281 283 271.5Q255 262 219 262Q118 262 73.5 319Q29 376 29 478Q29 577 80 633.5Q131 690 232 690Q342 690 393 630Q444 570 444 430V255Q444 115 386 52.5Q328 -10 218 -10Q174 -10 143 -2.5Q112 5 92 14Q72 23 63 30.5Q54 38 54 38ZM103 478Q103 401 131 364.5Q159 328 227 328Q263 328 290 337.5Q317 347 334.5 359Q352 371 360.5 380.5Q369 390 369 390V439Q369 544 336 584Q303 624 232 624Q164 624 133.5 587.5Q103 551 103 478Z" glyph-name="nine.ss02" horiz-adv-x="541" /><glyph d="M492 447V413Q492 282 445 201Q398 120 341.5 75.5Q285 31 238 15.5Q191 0 191 0H139V56Q150 56 191.5 68.5Q233 81 279.5 112.5Q326 144 367 198.5Q408 253 418 337H415Q415 337 404 326.5Q393 316 372.5 303Q352 290 321 279.5Q290 269 250 269Q196 269 158 285Q120 301 96.5 329Q73 357 62.5 396Q52 435 52 480Q52 524 65 562Q78 600 104 628Q130 656 170.5 672Q211 688 266 688Q373 688 432.5 629.5Q492 571 492 447ZM259 334Q295 334 325 344.5Q355 355 375.5 368Q396 381 407.5 391.5Q419 402 419 402V464Q419 544 378.5 583.5Q338 623 266 623Q188 623 156.5 583Q125 543 125 480Q125 415 154.5 374.5Q184 334 259 334Z" glyph-name="nine.tf" horiz-adv-x="560" /><glyph d="M129 43V85L178 164H70V230H219L303 365H70V431H344L420 553H471V511L421 431H530V365H380L296 230H530V164H254L179 43Z" glyph-name="notequal" horiz-adv-x="600" unicode="&#8800;" /><glyph d="M110 610V655Q110 655 114.5 662Q119 669 129.5 677.5Q140 686 156.5 693Q173 700 198 700Q218 700 241 695Q264 690 281 684L302 675Q317 670 331 666.5Q345 663 358 663Q388 663 396 677Q404 691 404 691H451V645Q451 645 446.5 638Q442 631 431.5 622.5Q421 614 404.5 607Q388 600 363 600Q343 600 320 605Q297 610 280 617L259 625Q244 631 230 634.5Q216 638 203 638Q173 638 165 624Q157 610 157 610ZM90 0V508H148L158 452H160Q160 452 171 462Q182 472 202.5 484Q223 496 254.5 506Q286 516 326 516Q392 516 433 480Q474 444 474 378V0H403V371Q403 411 378 432Q353 453 304 453Q272 453 245 443.5Q218 434 199.5 422Q181 410 171 400.5Q161 391 161 391V0Z" glyph-name="ntilde" horiz-adv-x="558" unicode="&#241;" /><glyph d="M33 274H159L186 408H71V459H197L241 680H295V647L257 459H378L422 680H476V647L438 459H554V408H428L400 274H516V223H390L345 0H292V33L330 223H209L164 0H111V33L149 223H33ZM219 274H340L367 408H247Z" glyph-name="numbersign" horiz-adv-x="587" unicode="#" /><glyph d="M56 240V268Q56 393 114.5 454.5Q173 516 270 516Q368 516 426 454.5Q484 393 484 268V240Q484 115 426 53.5Q368 -8 270 -8Q173 -8 114.5 53.5Q56 115 56 240ZM129 244Q129 140 166.5 98.5Q204 57 270 57Q336 57 373.5 98.5Q411 140 411 244V264Q411 369 373.5 410Q336 451 270 451Q204 451 166.5 410Q129 369 129 264Z" glyph-name="o" horiz-adv-x="540" unicode="o" /><glyph d="M310 740H368V695L291 573H230ZM56 240V268Q56 393 114.5 454.5Q173 516 270 516Q368 516 426 454.5Q484 393 484 268V240Q484 115 426 53.5Q368 -8 270 -8Q173 -8 114.5 53.5Q56 115 56 240ZM129 244Q129 140 166.5 98.5Q204 57 270 57Q336 57 373.5 98.5Q411 140 411 244V264Q411 369 373.5 410Q336 451 270 451Q204 451 166.5 410Q129 369 129 264Z" glyph-name="oacute" horiz-adv-x="540" unicode="&#243;" /><glyph d="M138 703H193Q193 703 195 693.5Q197 684 204.5 673Q212 662 227.5 652.5Q243 643 270 643Q297 643 312.5 652.5Q328 662 335.5 673Q343 684 345 693.5Q347 703 347 703H402V659Q402 659 396 647Q390 635 375 621Q360 607 334.5 595Q309 583 270 583Q231 583 205.5 595Q180 607 165 621Q150 635 144 647Q138 659 138 659ZM56 240V268Q56 393 114.5 454.5Q173 516 270 516Q368 516 426 454.5Q484 393 484 268V240Q484 115 426 53.5Q368 -8 270 -8Q173 -8 114.5 53.5Q56 115 56 240ZM129 244Q129 140 166.5 98.5Q204 57 270 57Q336 57 373.5 98.5Q411 140 411 244V264Q411 369 373.5 410Q336 451 270 451Q204 451 166.5 410Q129 369 129 264Z" glyph-name="obreve" horiz-adv-x="540" unicode="&#335;" /><glyph d="M133 573V603L239 740H301L407 603V573H356L306 640Q291 659 281.5 673Q272 687 272 687H268Q268 687 258.5 673Q249 659 234 640L184 573ZM56 240V268Q56 393 114.5 454.5Q173 516 270 516Q368 516 426 454.5Q484 393 484 268V240Q484 115 426 53.5Q368 -8 270 -8Q173 -8 114.5 53.5Q56 115 56 240ZM129 244Q129 140 166.5 98.5Q204 57 270 57Q336 57 373.5 98.5Q411 140 411 244V264Q411 369 373.5 410Q336 451 270 451Q204 451 166.5 410Q129 369 129 264Z" glyph-name="ocircumflex" horiz-adv-x="540" unicode="&#244;" /><glyph d="M152 639Q152 659 163.5 672Q175 685 200 685Q225 685 237 672Q249 659 249 639V633Q249 613 237 600.5Q225 588 200 588Q175 588 163.5 600.5Q152 613 152 633ZM292 639Q292 659 304 672Q316 685 341 685Q366 685 377.5 672Q389 659 389 639V633Q389 613 377.5 600.5Q366 588 341 588Q316 588 304 600.5Q292 613 292 633ZM56 240V268Q56 393 114.5 454.5Q173 516 270 516Q368 516 426 454.5Q484 393 484 268V240Q484 115 426 53.5Q368 -8 270 -8Q173 -8 114.5 53.5Q56 115 56 240ZM129 244Q129 140 166.5 98.5Q204 57 270 57Q336 57 373.5 98.5Q411 140 411 244V264Q411 369 373.5 410Q336 451 270 451Q204 451 166.5 410Q129 369 129 264Z" glyph-name="odieresis" horiz-adv-x="540" unicode="&#246;" /><glyph d="M56 240V268Q56 393 114.5 454.5Q173 516 270 516Q329 516 374.5 494Q420 472 447 426Q472 471 515 493.5Q558 516 612 516Q653 516 689.5 505.5Q726 495 752.5 470Q779 445 794 403.5Q809 362 809 300Q809 277 806.5 252Q804 227 804 227H485Q486 150 515 103.5Q544 57 626 57Q684 57 708.5 72Q733 87 733 87H791V28Q791 28 780 22.5Q769 17 747.5 10Q726 3 694.5 -2.5Q663 -8 622 -8Q561 -8 516.5 15Q472 38 447 82Q420 36 374.5 14Q329 -8 270 -8Q173 -8 114.5 53.5Q56 115 56 240ZM485 288V287H735Q735 287 735.5 295Q736 303 736 313Q736 387 705.5 420Q675 453 612 453Q561 453 523 418Q485 383 485 288ZM129 244Q129 140 166.5 98.5Q204 57 270 57Q336 57 373.5 98.5Q411 140 411 244V264Q411 369 373.5 410Q336 451 270 451Q204 451 166.5 410Q129 369 129 264Z" glyph-name="oe" horiz-adv-x="865" unicode="&#339;" /><glyph d="M163 0 121 -46Q107 -61 100.5 -71.5Q94 -82 94 -94Q94 -107 104.5 -116.5Q115 -126 132 -126H149V-181H129Q84 -181 58.5 -158.5Q33 -136 33 -99Q33 -71 46.5 -49Q60 -27 82 -3L112 29H163Z" glyph-name="ogonek" horiz-adv-x="196" unicode="&#731;" /><glyph d="M228 740 308 573H247L170 695V740ZM56 240V268Q56 393 114.5 454.5Q173 516 270 516Q368 516 426 454.5Q484 393 484 268V240Q484 115 426 53.5Q368 -8 270 -8Q173 -8 114.5 53.5Q56 115 56 240ZM129 244Q129 140 166.5 98.5Q204 57 270 57Q336 57 373.5 98.5Q411 140 411 244V264Q411 369 373.5 410Q336 451 270 451Q204 451 166.5 410Q129 369 129 264Z" glyph-name="ograve" horiz-adv-x="540" unicode="&#242;" /><glyph d="M293 665 221 573H157L235 710H293ZM432 665 360 573H297L375 710H432ZM56 240V268Q56 393 114.5 454.5Q173 516 270 516Q368 516 426 454.5Q484 393 484 268V240Q484 115 426 53.5Q368 -8 270 -8Q173 -8 114.5 53.5Q56 115 56 240ZM129 244Q129 140 166.5 98.5Q204 57 270 57Q336 57 373.5 98.5Q411 140 411 244V264Q411 369 373.5 410Q336 451 270 451Q204 451 166.5 410Q129 369 129 264Z" glyph-name="ohungarumlaut" horiz-adv-x="540" unicode="&#337;" /><glyph d="M130 680H409V616H130ZM56 240V268Q56 393 114.5 454.5Q173 516 270 516Q368 516 426 454.5Q484 393 484 268V240Q484 115 426 53.5Q368 -8 270 -8Q173 -8 114.5 53.5Q56 115 56 240ZM129 244Q129 140 166.5 98.5Q204 57 270 57Q336 57 373.5 98.5Q411 140 411 244V264Q411 369 373.5 410Q336 451 270 451Q204 451 166.5 410Q129 369 129 264Z" glyph-name="omacron" horiz-adv-x="540" unicode="&#333;" /><glyph d="M50 604V651L194 680H239V66L354 56V0H50V56L166 66V604Z" glyph-name="one" horiz-adv-x="385" unicode="1" /><glyph d="M28 0V48L107 56V339H35V381L120 398H168V56L246 48V0Z" glyph-name="one.dnom" horiz-adv-x="269" /><glyph d="M28 282V330L107 338V621H35V663L120 680H168V338L246 330V282Z" glyph-name="one.numr" horiz-adv-x="269" /><glyph d="M64 452V499L178 528H223V66L309 58V0H64V58L150 66V452Z" glyph-name="one.osf" horiz-adv-x="351" /><glyph d="M50 604V651L194 680H239V66L354 56V0H50V56L166 66V604Z" glyph-name="one.ss02" horiz-adv-x="385" /><glyph d="M105 604V656L289 680H334V66L510 56V0H86V56L261 66V604Z" glyph-name="one.tf" horiz-adv-x="560" /><glyph d="M28 282V330L107 338V621H35V663L120 680H168V338L246 330V282ZM562 680H605V643L187 0H144V37ZM762 104Q762 53 726.5 23Q691 -7 624 -7Q557 -7 521.5 23Q486 53 486 104Q486 129 492.5 147.5Q499 166 507.5 178.5Q516 191 522.5 197Q529 203 529 203V205Q529 205 523.5 211Q518 217 511 228.5Q504 240 498.5 257Q493 274 493 296Q493 345 527 374.5Q561 404 624 404Q687 404 721 374.5Q755 345 755 296Q755 274 749.5 257Q744 240 737 228.5Q730 217 724.5 211Q719 205 719 205V203Q719 203 725.5 197Q732 191 740.5 178.5Q749 166 755.5 147.5Q762 129 762 104ZM551 291Q551 257 564 242.5Q577 228 577 228H671Q671 228 684 242.5Q697 257 697 291Q697 325 676 339Q655 353 624 353Q593 353 572 339Q551 325 551 291ZM624 43Q665 43 684 60Q703 77 703 107Q703 145 688 161.5Q673 178 673 178H575Q575 178 559.5 161.5Q544 145 544 107Q544 77 563.5 60Q583 43 624 43Z" glyph-name="oneeighth" horiz-adv-x="812" unicode="&#8539;" /><glyph d="M28 282V330L107 338V621H35V663L120 680H168V338L246 330V282ZM562 680H605V643L187 0H144V37ZM737 0H487V53L621 190Q645 213 659.5 233.5Q674 254 674 288Q674 321 654 336Q634 351 606 351Q566 351 551.5 340Q537 329 537 329H486V376Q486 376 517.5 390Q549 404 608 404Q668 404 701.5 374.5Q735 345 735 290Q735 246 716.5 216.5Q698 187 671 160L566 55V54Q566 54 588.5 54.5Q611 55 635 55H737Z" glyph-name="onehalf" horiz-adv-x="785" unicode="&#189;" /><glyph d="M28 282V330L107 338V621H35V663L120 680H168V338L246 330V282ZM562 680H605V643L187 0H144V37ZM449 81V134L577 398H680V133H740V81H680V0H623V81ZM506 133H623V257Q623 269 623 283.5Q623 298 623.5 311Q624 324 624 332.5Q624 341 624 341H604Q604 341 600 332Q596 323 590.5 310Q585 297 578.5 282.5Q572 268 567 257Z" glyph-name="onequarter" horiz-adv-x="773" unicode="&#188;" /><glyph d="M72 611V662Q72 662 103.5 674.5Q135 687 192 687Q257 687 288.5 657.5Q320 628 320 574V328H268L260 368H258Q258 368 252 361Q246 354 233.5 345.5Q221 337 201 330Q181 323 153 323Q97 323 70.5 351.5Q44 380 44 426Q44 474 72.5 503.5Q101 533 169 533H258V566Q258 600 241.5 616Q225 632 185 632Q146 632 132 621.5Q118 611 118 611ZM170 376Q193 376 210 382.5Q227 389 237.5 396.5Q248 404 253 410.5Q258 417 258 417V482H171Q137 482 122.5 468.5Q108 455 108 430Q108 399 123 387.5Q138 376 170 376Z" glyph-name="ordfeminine" horiz-adv-x="372" unicode="&#170;" /><glyph d="M42 495V517Q42 604 84.5 647Q127 690 199 690Q271 690 313.5 647Q356 604 356 517V495Q356 408 313.5 365Q271 322 199 322Q127 322 84.5 365Q42 408 42 495ZM108 499Q108 433 130.5 406Q153 379 199 379Q245 379 267.5 406Q290 433 290 499V513Q290 579 267.5 606Q245 633 199 633Q153 633 130.5 606Q108 579 108 513Z" glyph-name="ordmasculine" horiz-adv-x="398" unicode="&#186;" /><glyph d="M56 240V268Q56 393 114.5 454.5Q173 516 270 516Q304 516 334.5 508.5Q365 501 390 485L439 558H488V519L436 443Q459 412 471.5 368.5Q484 325 484 268V240Q484 115 426 53.5Q368 -8 270 -8Q236 -8 205.5 -0.5Q175 7 151 23L101 -50H52V-11L104 66Q81 96 68.5 139.5Q56 183 56 240ZM129 244Q129 207 133.5 179Q138 151 148 130L352 430Q336 441 315 446Q294 451 270 451Q204 451 166.5 410Q129 369 129 264ZM411 264Q411 301 406.5 329.5Q402 358 393 379L188 78Q204 67 225 62Q246 57 270 57Q336 57 373.5 98.5Q411 140 411 244Z" glyph-name="oslash" horiz-adv-x="540" unicode="&#248;" /><glyph d="M310 740H368V695L291 573H230ZM56 240V268Q56 393 114.5 454.5Q173 516 270 516Q304 516 334.5 508.5Q365 501 390 485L439 558H488V519L436 443Q459 412 471.5 368.5Q484 325 484 268V240Q484 115 426 53.5Q368 -8 270 -8Q236 -8 205.5 -0.5Q175 7 151 23L101 -50H52V-11L104 66Q81 96 68.5 139.5Q56 183 56 240ZM129 244Q129 207 133.5 179Q138 151 148 130L352 430Q336 441 315 446Q294 451 270 451Q204 451 166.5 410Q129 369 129 264ZM411 264Q411 301 406.5 329.5Q402 358 393 379L188 78Q204 67 225 62Q246 57 270 57Q336 57 373.5 98.5Q411 140 411 244Z" glyph-name="oslashacute" horiz-adv-x="540" unicode="&#511;" /><glyph d="M99 610V655Q99 655 103.5 662Q108 669 118.5 677.5Q129 686 145.5 693Q162 700 187 700Q207 700 230 695Q253 690 270 684L291 675Q306 670 320 666.5Q334 663 347 663Q377 663 385 677Q393 691 393 691H440V645Q440 645 435.5 638Q431 631 420.5 622.5Q410 614 393.5 607Q377 600 352 600Q332 600 309 605Q286 610 269 617L248 625Q233 631 219 634.5Q205 638 192 638Q162 638 154 624Q146 610 146 610ZM56 240V268Q56 393 114.5 454.5Q173 516 270 516Q368 516 426 454.5Q484 393 484 268V240Q484 115 426 53.5Q368 -8 270 -8Q173 -8 114.5 53.5Q56 115 56 240ZM129 244Q129 140 166.5 98.5Q204 57 270 57Q336 57 373.5 98.5Q411 140 411 244V264Q411 369 373.5 410Q336 451 270 451Q204 451 166.5 410Q129 369 129 264Z" glyph-name="otilde" horiz-adv-x="540" unicode="&#245;" /><glyph d="M315 -6Q277 -6 248.5 2.5Q220 11 201 20.5Q182 30 172 38.5Q162 47 162 47H160Q160 47 160 37Q160 27 160.5 12Q161 -3 161 -20.5Q161 -38 161 -53V-173H90V508H148L158 452H160Q160 452 170.5 461.5Q181 471 201.5 483Q222 495 252 504.5Q282 514 322 514Q405 514 452 458Q499 402 499 277V231Q499 107 447 50.5Q395 -6 315 -6ZM161 108Q161 108 169.5 100Q178 92 194 83Q210 74 234.5 66Q259 58 291 58Q358 58 392 99.5Q426 141 426 246V263Q426 368 396.5 408.5Q367 449 298 449Q266 449 240.5 440Q215 431 197.5 420Q180 409 170.5 400Q161 391 161 391Z" glyph-name="p" horiz-adv-x="555" unicode="p" /><glyph d="M236 256H232Q133 256 83 315Q33 374 33 468Q33 562 83 621Q133 680 232 680H473V-173H402V615H308V-173H236Z" glyph-name="paragraph" horiz-adv-x="572" unicode="&#182;" /><glyph d="M85 275Q85 381 107 464Q129 547 155.5 604Q182 661 204.5 691.5Q227 722 228 723H285V679Q284 678 264 650.5Q244 623 220.5 571.5Q197 520 177 445Q157 370 157 275Q157 180 177 105Q197 30 220.5 -21.5Q244 -73 264 -100.5Q284 -128 285 -129V-173H228Q227 -172 204.5 -141.5Q182 -111 155.5 -54Q129 3 107 86Q85 169 85 275Z" glyph-name="parenleft" horiz-adv-x="304" unicode="(" /><glyph d="M85 340Q85 446 107 529Q129 612 155.5 669Q182 726 204.5 756.5Q227 787 228 788H285V744Q284 743 264 715.5Q244 688 220.5 636.5Q197 585 177 510Q157 435 157 340Q157 245 177 170Q197 95 220.5 43.5Q244 -8 264 -35.5Q284 -63 285 -64V-108H228Q227 -107 204.5 -76.5Q182 -46 155.5 11Q129 68 107 151Q85 234 85 340Z" glyph-name="parenleft.case" horiz-adv-x="304" /><glyph d="M219 275Q219 169 197 86Q175 3 148.5 -54Q122 -111 99.5 -141.5Q77 -172 76 -173H19V-129Q20 -128 40 -100.5Q60 -73 83.5 -21.5Q107 30 127 105Q147 180 147 275Q147 370 127 445Q107 520 83.5 571.5Q60 623 40 650.5Q20 678 19 679V723H76Q77 722 99.5 691.5Q122 661 148.5 604Q175 547 197 464Q219 381 219 275Z" glyph-name="parenright" horiz-adv-x="304" unicode=")" /><glyph d="M219 340Q219 234 197 151Q175 68 148.5 11Q122 -46 99.5 -76.5Q77 -107 76 -108H19V-64Q20 -63 40 -35.5Q60 -8 83.5 43.5Q107 95 127 170Q147 245 147 340Q147 435 127 510Q107 585 83.5 636.5Q60 688 40 715.5Q20 743 19 744V788H76Q77 787 99.5 756.5Q122 726 148.5 669Q175 612 197 529Q219 446 219 340Z" glyph-name="parenright.case" horiz-adv-x="304" /><glyph d="M193 275Q121 275 87.5 316Q54 357 54 414V548Q54 605 87.5 646Q121 687 193 687Q265 687 298.5 646Q332 605 332 548V414Q332 357 298.5 316Q265 275 193 275ZM635 680H678V643L260 0H217V37ZM193 633Q151 633 132.5 610.5Q114 588 114 545V417Q114 374 132.5 351Q151 328 193 328Q235 328 253.5 351Q272 374 272 417V545Q272 588 253.5 610.5Q235 633 193 633ZM702 -7Q630 -7 596.5 34Q563 75 563 132V266Q563 323 596.5 364Q630 405 702 405Q774 405 807.5 364Q841 323 841 266V132Q841 75 807.5 34Q774 -7 702 -7ZM702 351Q660 351 641.5 328.5Q623 306 623 263V135Q623 92 641.5 69Q660 46 702 46Q744 46 762.5 69Q781 92 781 135V263Q781 306 762.5 328.5Q744 351 702 351Z" glyph-name="percent" horiz-adv-x="895" unicode="%" /><glyph d="M52 54Q52 78 65.5 92Q79 106 106 106Q133 106 147 92Q161 78 161 54V48Q161 25 147 11Q133 -3 106 -3Q79 -3 65.5 11Q52 25 52 48Z" glyph-name="period" horiz-adv-x="212" unicode="." /><glyph d="M11 270Q11 293 24.5 307.5Q38 322 65 322Q93 322 106.5 307.5Q120 293 120 270V264Q120 241 106.5 227Q93 213 65 213Q38 213 24.5 227Q11 241 11 264Z" glyph-name="periodcentered" horiz-adv-x="131" unicode="&#183;" /><glyph d="M193 275Q121 275 87.5 316Q54 357 54 414V548Q54 605 87.5 646Q121 687 193 687Q265 687 298.5 646Q332 605 332 548V414Q332 357 298.5 316Q265 275 193 275ZM635 680H678V643L260 0H217V37ZM193 633Q151 633 132.5 610.5Q114 588 114 545V417Q114 374 132.5 351Q151 328 193 328Q235 328 253.5 351Q272 374 272 417V545Q272 588 253.5 610.5Q235 633 193 633ZM702 -7Q630 -7 596.5 34Q563 75 563 132V266Q563 323 596.5 364Q630 405 702 405Q774 405 807.5 364Q841 323 841 266V132Q841 75 807.5 34Q774 -7 702 -7ZM1088 -7Q1016 -7 982.5 34Q949 75 949 132V266Q949 323 982.5 364Q1016 405 1088 405Q1160 405 1193.5 364Q1227 323 1227 266V132Q1227 75 1193.5 34Q1160 -7 1088 -7ZM702 351Q660 351 641.5 328.5Q623 306 623 263V135Q623 92 641.5 69Q660 46 702 46Q744 46 762.5 69Q781 92 781 135V263Q781 306 762.5 328.5Q744 351 702 351ZM1088 351Q1046 351 1027.5 328.5Q1009 306 1009 263V135Q1009 92 1027.5 69Q1046 46 1088 46Q1130 46 1148.5 69Q1167 92 1167 135V263Q1167 306 1148.5 328.5Q1130 351 1088 351Z" glyph-name="perthousand" horiz-adv-x="1281" unicode="&#8240;" /><glyph d="M131 0V443H39V508H550V443H458V154Q458 101 476.5 81Q495 61 525 61H527V0H474Q474 0 460.5 4.5Q447 9 430.5 23.5Q414 38 400.5 65.5Q387 93 387 140V443H202V0Z" glyph-name="pi" horiz-adv-x="600" unicode="&#960;" /><glyph d="M70 330H267V527H332V330H530V265H332V67H267V265H70Z" glyph-name="plus" horiz-adv-x="600" unicode="+" /><glyph d="M70 365H267V527H332V365H530V299H332V136H267V299H70ZM70 66H530V0H70Z" glyph-name="plusminus" horiz-adv-x="600" unicode="&#177;" /><glyph d="M56 277Q56 401 108.5 457.5Q161 514 242 514Q280 514 309 504.5Q338 495 357 484Q376 473 386 463.5Q396 454 396 454H398L408 508H466V-173H395V-43Q395 -28 395 -10.5Q395 7 395.5 22Q396 37 396 47Q396 57 396 57H394Q394 57 384 47Q374 37 354 25.5Q334 14 303.5 4Q273 -6 233 -6Q150 -6 103 50.5Q56 107 56 231ZM257 59Q289 59 315 68Q341 77 358.5 88Q376 99 385.5 108Q395 117 395 117V394Q395 394 386.5 403Q378 412 361.5 422Q345 432 320.5 441Q296 450 264 450Q197 450 163 408.5Q129 367 129 262V245Q129 140 158.5 99.5Q188 59 257 59Z" glyph-name="q" horiz-adv-x="555" unicode="q" /><glyph d="M137 181V227L227 376Q252 416 266 453.5Q280 491 278 538Q277 580 248 601Q219 622 164 622Q133 622 113 617Q93 612 81 605.5Q69 599 64.5 594Q60 589 60 589H5V649Q5 649 15 655Q25 661 45 668.5Q65 676 96 682Q127 688 168 688Q254 688 301.5 650.5Q349 613 352 540Q354 479 335 435Q316 391 286 340L190 181ZM111 54Q111 78 124.5 92Q138 106 165 106Q193 106 206.5 92Q220 78 220 54V48Q220 25 206.5 11Q193 -3 165 -3Q138 -3 124.5 11Q111 25 111 48Z" glyph-name="question" horiz-adv-x="374" unicode="?" /><glyph d="M265 454Q265 430 251.5 416Q238 402 211 402Q183 402 169.5 416Q156 430 156 454V460Q156 483 169.5 497Q183 511 211 511Q238 511 251.5 497Q265 483 265 460ZM239 327V281L149 132Q124 92 110 54.5Q96 17 98 -30Q99 -72 128 -93Q157 -114 212 -114Q243 -114 263 -109Q283 -104 295 -97.5Q307 -91 311.5 -86Q316 -81 316 -81H371V-141Q371 -141 361 -147Q351 -153 331 -160.5Q311 -168 280 -174Q249 -180 208 -180Q122 -180 74.5 -142.5Q27 -105 24 -32Q22 29 41 73Q60 117 90 168L186 327Z" glyph-name="questiondown" horiz-adv-x="374" unicode="&#191;" /><glyph d="M265 626Q265 602 251.5 588Q238 574 211 574Q183 574 169.5 588Q156 602 156 626V632Q156 655 169.5 669Q183 683 211 683Q238 683 251.5 669Q265 655 265 632ZM239 499V453L149 304Q124 264 110 226.5Q96 189 98 142Q99 100 128 79Q157 58 212 58Q243 58 263 63Q283 68 295 74.5Q307 81 311.5 86Q316 91 316 91H371V31Q371 31 361 25Q351 19 331 11.5Q311 4 280 -2Q249 -8 208 -8Q122 -8 74.5 29.5Q27 67 24 140Q22 201 41 245Q60 289 90 340L186 499Z" glyph-name="questiondown.case" horiz-adv-x="374" /><glyph d="M44 416V680H110V416ZM198 416V680H264V416Z" glyph-name="quotedbl" horiz-adv-x="308" unicode="&quot;" /><glyph d="M29 -135Q29 -135 36 -117Q43 -99 51.5 -67Q60 -35 67 9Q74 53 74 104H150V50Q135 -41 112 -88Q89 -135 89 -135ZM190 -135Q190 -135 197 -117Q204 -99 212.5 -67Q221 -35 228 9Q235 53 235 104H311V50Q296 -41 273 -88Q250 -135 250 -135Z" glyph-name="quotedblbase" horiz-adv-x="373" unicode="&#8222;" /><glyph d="M184 748Q184 748 177 730Q170 712 161.5 680Q153 648 146 604Q139 560 139 509H63V563Q78 654 101 701Q124 748 124 748ZM344 748Q344 748 337 730Q330 712 321.5 680Q313 648 306 604Q299 560 299 509H223V563Q238 654 261 701Q284 748 284 748Z" glyph-name="quotedblleft" horiz-adv-x="373" unicode="&#8220;" /><glyph d="M29 501Q29 501 36 519Q43 537 51.5 569Q60 601 67 645Q74 689 74 740H150V686Q135 595 112 548Q89 501 89 501ZM190 501Q190 501 197 519Q204 537 212.5 569Q221 601 228 645Q235 689 235 740H311V686Q296 595 273 548Q250 501 250 501Z" glyph-name="quotedblright" horiz-adv-x="373" unicode="&#8221;" /><glyph d="M184 748Q184 748 177 730Q170 712 161.5 680Q153 648 146 604Q139 560 139 509H63V563Q78 654 101 701Q124 748 124 748Z" glyph-name="quoteleft" horiz-adv-x="213" unicode="&#8216;" /><glyph d="M29 501Q29 501 36 519Q43 537 51.5 569Q60 601 67 645Q74 689 74 740H150V686Q135 595 112 548Q89 501 89 501Z" glyph-name="quoteright" horiz-adv-x="213" unicode="&#8217;" /><glyph d="M29 -135Q29 -135 36 -117Q43 -99 51.5 -67Q60 -35 67 9Q74 53 74 104H150V50Q135 -41 112 -88Q89 -135 89 -135Z" glyph-name="quotesinglbase" horiz-adv-x="212" unicode="&#8218;" /><glyph d="M44 416V680H110V416Z" glyph-name="quotesingle" horiz-adv-x="154" unicode="'" /><glyph d="M90 508H148L159 438H161Q161 438 168.5 449Q176 460 192.5 473Q209 486 236 497Q263 508 303 508H318V441H287Q255 441 231 430.5Q207 420 191.5 408Q176 396 168.5 385.5Q161 375 161 375V0H90Z" glyph-name="r" horiz-adv-x="351" unicode="r" /><glyph d="M237 740H295V695L218 573H157ZM90 508H148L159 438H161Q161 438 168.5 449Q176 460 192.5 473Q209 486 236 497Q263 508 303 508H318V441H287Q255 441 231 430.5Q207 420 191.5 408Q176 396 168.5 385.5Q161 375 161 375V0H90Z" glyph-name="racute" horiz-adv-x="351" unicode="&#341;" /><glyph d="M334 740V710L228 573H166L60 710V740H111L161 673Q176 654 185.5 640Q195 626 195 626H199Q199 626 208.5 640Q218 654 233 673L283 740ZM90 508H148L159 438H161Q161 438 168.5 449Q176 460 192.5 473Q209 486 236 497Q263 508 303 508H318V441H287Q255 441 231 430.5Q207 420 191.5 408Q176 396 168.5 385.5Q161 375 161 375V0H90Z" glyph-name="rcaron" horiz-adv-x="351" unicode="&#345;" /><glyph d="M584 465Q584 334 514 259.5Q444 185 314 185Q184 185 114 259.5Q44 334 44 465Q44 596 114 670.5Q184 745 314 745Q444 745 514 670.5Q584 596 584 465ZM103 465Q103 349 158 293Q213 237 314 237Q415 237 470 293Q525 349 525 465Q525 581 470 636.5Q415 692 314 692Q213 692 158 636.5Q103 581 103 465ZM265 324H215V608H330Q373 608 396 586.5Q419 565 419 525Q419 502 409.5 485.5Q400 469 388.5 459Q377 449 367.5 444.5Q358 440 358 440Q358 440 363 431.5Q368 423 376.5 410.5Q385 398 396 383Q407 368 420 356V324H379Q364 340 350.5 359.5Q337 379 327 396Q317 413 310.5 425Q304 437 304 437H265ZM338 481Q338 481 352.5 491.5Q367 502 367 525Q367 542 356.5 552.5Q346 563 322 563H265V481Z" glyph-name="registered" horiz-adv-x="628" unicode="&#174;" /><glyph d="M33 665Q33 712 62.5 741Q92 770 138 770Q184 770 213.5 741Q243 712 243 665Q243 618 213.5 589Q184 560 138 560Q92 560 62.5 589Q33 618 33 665ZM87 665Q87 643 100 627.5Q113 612 138 612Q163 612 176 627.5Q189 643 189 665Q189 687 176 702.5Q163 718 138 718Q113 718 100 702.5Q87 687 87 665Z" glyph-name="ring" horiz-adv-x="276" unicode="&#730;" /><glyph d="M54 81H104Q104 81 128.5 68.5Q153 56 210 56Q264 56 290.5 78.5Q317 101 317 138Q317 175 291.5 193.5Q266 212 211 226L187 232Q115 250 87.5 286Q60 322 60 375Q60 431 102.5 472.5Q145 514 233 514Q302 514 338.5 498.5Q375 483 375 483V425H326Q326 425 305.5 438Q285 451 231 451Q167 451 148.5 425Q130 399 130 376Q130 342 149 323.5Q168 305 220 292L244 286Q325 266 356 231.5Q387 197 387 141Q387 72 341.5 33Q296 -6 199 -6Q133 -6 93.5 8.5Q54 23 54 23Z" glyph-name="s" horiz-adv-x="443" unicode="s" /><glyph d="M264 740H322V695L245 573H184ZM54 81H104Q104 81 128.5 68.5Q153 56 210 56Q264 56 290.5 78.5Q317 101 317 138Q317 175 291.5 193.5Q266 212 211 226L187 232Q115 250 87.5 286Q60 322 60 375Q60 431 102.5 472.5Q145 514 233 514Q302 514 338.5 498.5Q375 483 375 483V425H326Q326 425 305.5 438Q285 451 231 451Q167 451 148.5 425Q130 399 130 376Q130 342 149 323.5Q168 305 220 292L244 286Q325 266 356 231.5Q387 197 387 141Q387 72 341.5 33Q296 -6 199 -6Q133 -6 93.5 8.5Q54 23 54 23Z" glyph-name="sacute" horiz-adv-x="443" unicode="&#347;" /><glyph d="M357 740V710L251 573H189L83 710V740H134L184 673Q199 654 208.5 640Q218 626 218 626H222Q222 626 231.5 640Q241 654 256 673L306 740ZM54 81H104Q104 81 128.5 68.5Q153 56 210 56Q264 56 290.5 78.5Q317 101 317 138Q317 175 291.5 193.5Q266 212 211 226L187 232Q115 250 87.5 286Q60 322 60 375Q60 431 102.5 472.5Q145 514 233 514Q302 514 338.5 498.5Q375 483 375 483V425H326Q326 425 305.5 438Q285 451 231 451Q167 451 148.5 425Q130 399 130 376Q130 342 149 323.5Q168 305 220 292L244 286Q325 266 356 231.5Q387 197 387 141Q387 72 341.5 33Q296 -6 199 -6Q133 -6 93.5 8.5Q54 23 54 23Z" glyph-name="scaron" horiz-adv-x="443" unicode="&#353;" /><glyph d="M54 81H104Q104 81 128.5 68.5Q153 56 210 56Q264 56 290.5 78.5Q317 101 317 138Q317 175 291.5 193.5Q266 212 211 226L187 232Q115 250 87.5 286Q60 322 60 375Q60 431 102.5 472.5Q145 514 233 514Q302 514 338.5 498.5Q375 483 375 483V425H326Q326 425 305.5 438Q285 451 231 451Q167 451 148.5 425Q130 399 130 376Q130 342 149 323.5Q168 305 220 292L244 286Q325 266 356 231.5Q387 197 387 141Q387 87 359 50.5Q331 14 273 1V0Q273 -37 264.5 -66Q256 -95 246.5 -114.5Q237 -134 228.5 -144Q220 -154 220 -154H163V-114Q163 -114 169 -107Q175 -100 182 -86Q189 -72 195 -52Q201 -32 201 -6H199Q133 -6 93.5 8.5Q54 23 54 23Z" glyph-name="scedilla" horiz-adv-x="443" unicode="&#351;" /><glyph d="M83 573V603L189 740H251L357 603V573H306L256 640Q241 659 231.5 673Q222 687 222 687H218Q218 687 208.5 673Q199 659 184 640L134 573ZM54 81H104Q104 81 128.5 68.5Q153 56 210 56Q264 56 290.5 78.5Q317 101 317 138Q317 175 291.5 193.5Q266 212 211 226L187 232Q115 250 87.5 286Q60 322 60 375Q60 431 102.5 472.5Q145 514 233 514Q302 514 338.5 498.5Q375 483 375 483V425H326Q326 425 305.5 438Q285 451 231 451Q167 451 148.5 425Q130 399 130 376Q130 342 149 323.5Q168 305 220 292L244 286Q325 266 356 231.5Q387 197 387 141Q387 72 341.5 33Q296 -6 199 -6Q133 -6 93.5 8.5Q54 23 54 23Z" glyph-name="scircumflex" horiz-adv-x="443" unicode="&#349;" /><glyph d="M69 -91H119Q119 -91 144 -104Q169 -117 225 -117Q262 -117 284 -108Q306 -99 318 -86.5Q330 -74 333.5 -59.5Q337 -45 337 -34Q337 0 320.5 23.5Q304 47 255 72L183 109Q115 143 86.5 182.5Q58 222 58 279Q58 313 67.5 339Q77 365 90 383Q103 401 117 412Q131 423 141 429Q118 453 108 481Q98 509 98 543Q98 571 109 597.5Q120 624 142 644.5Q164 665 198 677.5Q232 690 279 690Q315 690 342.5 684Q370 678 388.5 671.5Q407 665 416 659Q425 653 425 653V596H375Q375 596 353.5 611Q332 626 277 626Q242 626 220.5 617Q199 608 187.5 595.5Q176 583 172.5 568.5Q169 554 169 543Q169 509 187 485.5Q205 462 254 437L326 400Q394 366 422.5 326.5Q451 287 451 230Q451 195 441.5 169Q432 143 418.5 125Q405 107 390.5 96Q376 85 367 80Q390 56 399 28Q408 0 408 -34Q408 -62 397.5 -88.5Q387 -115 364.5 -135.5Q342 -156 307 -168.5Q272 -181 223 -181Q187 -181 158 -176Q129 -171 109.5 -164.5Q90 -158 79.5 -153Q69 -148 69 -148ZM292 132Q299 128 305 125Q311 122 317 118Q325 123 336 131.5Q347 140 356.5 153.5Q366 167 373 184.5Q380 202 380 225Q380 261 360 287.5Q340 314 289 340L216 377Q209 381 203 384Q197 387 192 391Q184 386 173 377Q162 368 152.5 355Q143 342 136 324Q129 306 129 284Q129 248 149 221.5Q169 195 220 169Z" glyph-name="section" horiz-adv-x="519" unicode="&#167;" /><glyph d="M52 459Q52 483 65.5 497Q79 511 106 511Q133 511 147 497Q161 483 161 459V453Q161 430 147 416Q133 402 106 402Q79 402 65.5 416Q52 430 52 453ZM29 -135Q29 -135 36 -117Q43 -99 51.5 -67Q60 -35 67 9Q74 53 74 104H150V50Q135 -41 112 -88Q89 -135 89 -135Z" glyph-name="semicolon" horiz-adv-x="212" unicode=";" /><glyph d="M216 0H143V58L337 551Q343 566 351.5 588.5Q360 611 360 611V613H91L83 557H20V680H432V611L226 82Q220 66 218 50Q216 34 216 18Z" glyph-name="seven" horiz-adv-x="461" unicode="7" /><glyph d="M22 303V398H278V333L168 60Q164 50 163.5 38Q163 26 163 17V0H102V52L194 278Q200 293 209.5 316Q219 339 219 339V342H80L76 303Z" glyph-name="seven.dnom" horiz-adv-x="301" /><glyph d="M22 585V680H278V615L168 342Q164 332 163.5 320Q163 308 163 299V282H102V334L194 560Q200 575 209.5 598Q219 621 219 621V624H80L76 585Z" glyph-name="seven.numr" horiz-adv-x="301" /><glyph d="M30 528H409V451L223 -26Q218 -42 215 -56.5Q212 -71 212 -90V-108H142V-50L315 393Q323 412 333 435Q343 458 343 458V461H101L93 405H30Z" glyph-name="seven.osf" horiz-adv-x="443" /><glyph d="M286 276Q261 232 247 180Q233 128 233 59V0H160V60Q160 125 173.5 183Q187 241 223 304L281 405Q306 448 326.5 491Q347 534 347 585V613H102L94 557H31V680H419V622Q419 582 415 552Q411 522 402 495Q393 468 379 440Q365 412 344 376Z" glyph-name="seven.ss02" horiz-adv-x="468" /><glyph d="M259 0H186V58L413 551Q415 556 419.5 566Q424 576 428.5 586Q433 596 436.5 603.5Q440 611 440 611V613H124L116 557H53V680H512V595L269 65Q263 52 261 41Q259 30 259 14Z" glyph-name="seven.tf" horiz-adv-x="560" /><glyph d="M22 585V680H278V615L168 342Q164 332 163.5 320Q163 308 163 299V282H102V334L194 560Q200 575 209.5 598Q219 621 219 621V624H80L76 585ZM539 680H582V643L164 0H121V37ZM739 104Q739 53 703.5 23Q668 -7 601 -7Q534 -7 498.5 23Q463 53 463 104Q463 129 469.5 147.5Q476 166 484.5 178.5Q493 191 499.5 197Q506 203 506 203V205Q506 205 500.5 211Q495 217 488 228.5Q481 240 475.5 257Q470 274 470 296Q470 345 504 374.5Q538 404 601 404Q664 404 698 374.5Q732 345 732 296Q732 274 726.5 257Q721 240 714 228.5Q707 217 701.5 211Q696 205 696 205V203Q696 203 702.5 197Q709 191 717.5 178.5Q726 166 732.5 147.5Q739 129 739 104ZM528 291Q528 257 541 242.5Q554 228 554 228H648Q648 228 661 242.5Q674 257 674 291Q674 325 653 339Q632 353 601 353Q570 353 549 339Q528 325 528 291ZM601 43Q642 43 661 60Q680 77 680 107Q680 145 665 161.5Q650 178 650 178H552Q552 178 536.5 161.5Q521 145 521 107Q521 77 540.5 60Q560 43 601 43Z" glyph-name="seveneighths" horiz-adv-x="789" unicode="&#8542;" /><glyph d="M60 233V267Q60 398 104 479Q148 560 200.5 604.5Q253 649 297 664.5Q341 680 341 680H393V622Q382 622 345 612Q308 602 266 573.5Q224 545 186.5 492Q149 439 137 355H140Q140 355 150 365Q160 375 180 386.5Q200 398 229.5 408Q259 418 297 418Q398 418 444 358Q490 298 490 206Q490 162 477 122.5Q464 83 438 54.5Q412 26 372.5 9Q333 -8 281 -8Q171 -8 115.5 50.5Q60 109 60 233ZM133 216Q133 136 170 96.5Q207 57 281 57Q354 57 385.5 100Q417 143 417 206Q417 272 386.5 312.5Q356 353 288 353Q252 353 223 343.5Q194 334 174 322Q154 310 143.5 300.5Q133 291 133 291Z" glyph-name="six" horiz-adv-x="530" unicode="6" /><glyph d="M250 346Q238 346 218 340.5Q198 335 176.5 320.5Q155 306 136 281Q117 256 107 218H109Q109 218 115.5 223.5Q122 229 133.5 235Q145 241 163 246.5Q181 252 203 252Q260 252 287.5 219.5Q315 187 315 127Q315 61 278.5 27Q242 -7 182 -7Q117 -7 80 27Q43 61 43 139V156Q43 231 68.5 278.5Q94 326 125 352Q156 378 181.5 388Q207 398 207 398H250ZM103 140Q103 89 122.5 67Q142 45 184 45Q223 45 238.5 70Q254 95 254 127Q253 163 237.5 182Q222 201 188 201Q168 201 152 195.5Q136 190 125 184Q114 178 108.5 172.5Q103 167 103 167Z" glyph-name="six.dnom" horiz-adv-x="355" /><glyph d="M250 628Q238 628 218 622.5Q198 617 176.5 602.5Q155 588 136 563Q117 538 107 500H109Q109 500 115.5 505.5Q122 511 133.5 517Q145 523 163 528.5Q181 534 203 534Q260 534 287.5 501.5Q315 469 315 409Q315 343 278.5 309Q242 275 182 275Q117 275 80 309Q43 343 43 421V438Q43 513 68.5 560.5Q94 608 125 634Q156 660 181.5 670Q207 680 207 680H250ZM103 422Q103 371 122.5 349Q142 327 184 327Q223 327 238.5 352Q254 377 254 409Q253 445 237.5 464Q222 483 188 483Q168 483 152 477.5Q136 472 125 466Q114 460 108.5 454.5Q103 449 103 449Z" glyph-name="six.numr" horiz-adv-x="355" /><glyph d="M57 231V255Q57 367 95 441Q133 515 178.5 558Q224 601 262 618.5Q300 636 300 636H351V580Q340 580 308 567.5Q276 555 241 526.5Q206 498 175 450Q144 402 135 331H138Q138 331 148.5 341.5Q159 352 178.5 365Q198 378 226.5 388.5Q255 399 292 399Q391 399 434 343.5Q477 288 477 198Q477 154 464.5 116Q452 78 426.5 50Q401 22 362.5 6Q324 -10 273 -10Q166 -10 111.5 48.5Q57 107 57 231ZM130 214Q130 134 165.5 94.5Q201 55 273 55Q344 55 374 95Q404 135 404 198Q404 263 376 298.5Q348 334 280 334Q243 334 215 322Q187 310 168 295Q149 280 139.5 268Q130 256 130 256Z" glyph-name="six.osf" horiz-adv-x="517" /><glyph d="M467 586H411Q411 586 406 592Q401 598 388.5 605Q376 612 355 618Q334 624 303 624Q231 624 191.5 584Q152 544 152 440V411Q152 389 151.5 373Q151 357 151 357H153Q153 357 163 366.5Q173 376 191.5 387.5Q210 399 238 408.5Q266 418 302 418Q403 418 447.5 361Q492 304 492 202Q492 103 441 46.5Q390 -10 289 -10Q179 -10 128 50Q77 110 77 250V425Q77 565 135 627.5Q193 690 303 690Q347 690 378 682.5Q409 675 429 666Q449 657 458 649.5Q467 642 467 642ZM152 241Q152 136 185 96Q218 56 289 56Q357 56 387.5 92.5Q418 129 418 202Q418 279 390 315.5Q362 352 294 352Q258 352 231 342.5Q204 333 186.5 321Q169 309 160.5 299.5Q152 290 152 290Z" glyph-name="six.ss02" horiz-adv-x="541" /><glyph d="M68 233V267Q68 398 115 479Q162 560 218.5 604.5Q275 649 322 664.5Q369 680 369 680H421V624Q410 624 368.5 611.5Q327 599 280.5 567.5Q234 536 193 481.5Q152 427 142 343H145Q145 343 156 353.5Q167 364 187.5 377Q208 390 239 400.5Q270 411 310 411Q364 411 402 395Q440 379 463.5 351Q487 323 497.5 284Q508 245 508 200Q508 156 495 118Q482 80 456 52Q430 24 389.5 8Q349 -8 294 -8Q187 -8 127.5 50.5Q68 109 68 233ZM141 216Q141 136 181.5 96.5Q222 57 294 57Q372 57 403.5 97Q435 137 435 200Q435 265 405.5 305.5Q376 346 301 346Q265 346 235 335.5Q205 325 184.5 312Q164 299 152.5 288.5Q141 278 141 278Z" glyph-name="six.tf" horiz-adv-x="560" /><glyph d="M281 680H337V634L66 0H11V46Z" glyph-name="slash" horiz-adv-x="348" unicode="/" /><glyph glyph-name="space" horiz-adv-x="222" unicode=" " /><glyph d="M283 173Q283 147 277 127Q271 107 264 94Q257 81 251 74Q245 67 245 67H467V0H77V67H154Q154 67 163 72.5Q172 78 183 90.5Q194 103 203 123Q212 143 212 172Q212 198 202.5 225Q193 252 187 266L185 272H77V339H156Q130 403 119 442Q108 481 108 519Q108 604 161.5 646Q215 688 301 688Q345 688 377 679.5Q409 671 428.5 661.5Q448 652 457.5 643.5Q467 635 467 635V579H405Q405 579 400.5 585.5Q396 592 384 600.5Q372 609 351.5 615.5Q331 622 300 622Q245 622 214 596Q183 570 183 521Q183 488 194.5 448.5Q206 409 234 343L236 339H367V272H263Q270 252 276.5 225.5Q283 199 283 173Z" glyph-name="sterling" horiz-adv-x="500" unicode="&#163;" /><glyph d="M16 443V508H109V636H180V508H275V443H180V133Q180 95 197.5 78Q215 61 239 61H256V0H195Q195 0 181.5 4.5Q168 9 152 23Q136 37 122.5 64Q109 91 109 135V443Z" glyph-name="t" horiz-adv-x="308" unicode="t" /><glyph d="M27 317H120V443H27V508H120V636H191V508H286V443H191V317H286V256H191V133Q191 95 208.5 78Q226 61 250 61H267V0H206Q206 0 192.5 4.5Q179 9 163 23Q147 37 133.5 64Q120 91 120 135V256H27Z" glyph-name="tbar" horiz-adv-x="330" unicode="&#359;" /><glyph d="M241 550Q241 550 245.5 565.5Q250 581 256 607Q262 633 266.5 667.5Q271 702 271 740H342V696Q332 632 316.5 591Q301 550 301 550ZM16 443V508H109V636H180V508H275V443H180V133Q180 95 197.5 78Q215 61 239 61H256V0H195Q195 0 181.5 4.5Q168 9 152 23Q136 37 122.5 64Q109 91 109 135V443Z" glyph-name="tcaron" horiz-adv-x="317" unicode="&#357;" /><glyph d="M315 -8Q277 -8 248.5 0.5Q220 9 201 19.5Q182 30 172.5 38.5Q163 47 163 47H159Q159 47 159.5 37Q160 27 160 12Q160 -3 160.5 -20.5Q161 -38 161 -53V-173H90V740H161V554Q161 515 160 483Q159 451 159 451H163Q163 451 173 461Q183 471 202.5 483.5Q222 496 252 506Q282 516 322 516Q405 516 452 460Q499 404 499 279V229Q499 105 447 48.5Q395 -8 315 -8ZM298 451Q266 451 240.5 441.5Q215 432 197.5 421Q180 410 170.5 400.5Q161 391 161 391V108Q161 108 169.5 100Q178 92 194 82Q210 72 234.5 64Q259 56 291 56Q358 56 392 97.5Q426 139 426 244V265Q426 370 396.5 410.5Q367 451 298 451Z" glyph-name="thorn" horiz-adv-x="555" unicode="&#254;" /><glyph d="M41 32 40 93H94Q94 93 102 87.5Q110 82 125 75Q140 68 163 62.5Q186 57 216 57Q297 57 336.5 93.5Q376 130 376 199Q376 263 348.5 300Q321 337 246 337Q212 337 191 330.5Q170 324 170 324H118V379L342 612V614Q342 614 332.5 614Q323 614 310 613.5Q297 613 282 613Q267 613 257 613H48V680H429V605L271 447Q252 428 231.5 410.5Q211 393 211 393L212 392Q212 392 228 396Q244 400 271 400Q359 400 404 349Q449 298 449 203Q449 104 386.5 47.5Q324 -9 214 -9Q174 -9 142 -2.5Q110 4 87.5 11.5Q65 19 53 25.5Q41 32 41 32Z" glyph-name="three" horiz-adv-x="501" unicode="3" /><glyph d="M49 64H100Q100 64 115.5 54.5Q131 45 171 45Q207 45 229.5 63Q252 81 252 116Q252 151 233 165.5Q214 180 186 180Q164 180 151.5 174Q139 168 139 168H93L92 220L225 342V343Q225 343 205 342.5Q185 342 174 342H53V398H295V340L210 262Q198 251 180.5 236.5Q163 222 163 222V221Q163 221 176 224Q189 227 205 227Q247 227 279.5 203.5Q312 180 312 119Q312 60 273.5 26.5Q235 -7 169 -7Q109 -7 79 6.5Q49 20 49 20Z" glyph-name="three.dnom" horiz-adv-x="356" /><glyph d="M49 346H100Q100 346 115.5 336.5Q131 327 171 327Q207 327 229.5 345Q252 363 252 398Q252 433 233 447.5Q214 462 186 462Q164 462 151.5 456Q139 450 139 450H93L92 502L225 624V625Q225 625 205 624.5Q185 624 174 624H53V680H295V622L210 544Q198 533 180.5 518.5Q163 504 163 504V503Q163 503 176 506Q189 509 205 509Q247 509 279.5 485.5Q312 462 312 401Q312 342 273.5 308.5Q235 275 169 275Q109 275 79 288.5Q49 302 49 302Z" glyph-name="three.numr" horiz-adv-x="356" /><glyph d="M39 -24H92Q92 -24 118.5 -38Q145 -52 197 -52Q268 -52 311 -21Q354 10 354 79Q354 150 318.5 171.5Q283 193 236 193Q198 193 173.5 184.5Q149 176 149 176H101V223L315 462V464Q315 464 285.5 463.5Q256 463 211 463H49V528H403V462L254 299Q232 274 214.5 259Q197 244 197 244L198 243Q198 243 213.5 248.5Q229 254 262 254Q285 254 313.5 248Q342 242 367 223.5Q392 205 409.5 170Q427 135 427 79Q427 -20 364.5 -69Q302 -118 194 -118Q155 -118 126 -112Q97 -106 77.5 -99Q58 -92 48.5 -86Q39 -80 39 -80Z" glyph-name="three.osf" horiz-adv-x="487" /><glyph d="M65 584V645Q65 645 76 651.5Q87 658 109 666.5Q131 675 165 681.5Q199 688 245 688Q342 688 396 642Q450 596 450 506Q450 466 437 436Q424 406 408.5 386.5Q393 367 380 357Q367 347 367 347V344Q367 344 381.5 335Q396 326 412.5 307Q429 288 443.5 257.5Q458 227 458 186Q458 91 400.5 41.5Q343 -8 243 -8Q193 -8 157 -0.5Q121 7 98.5 16.5Q76 26 65.5 33.5Q55 41 55 41V97H113Q113 97 118.5 91Q124 85 138.5 77.5Q153 70 178.5 64Q204 58 244 58Q315 58 349 93.5Q383 129 383 184Q383 221 369.5 245Q356 269 340 283.5Q324 298 310.5 304Q297 310 297 310H137V377H297Q297 377 309 383.5Q321 390 336 405Q351 420 363 444Q375 468 375 503Q375 558 343.5 590Q312 622 246 622Q211 622 187.5 616Q164 610 149.5 603Q135 596 129 590Q123 584 123 584Z" glyph-name="three.ss02" horiz-adv-x="524" /><glyph d="M64 32 63 93H117Q117 93 126.5 87.5Q136 82 153 75Q170 68 194.5 62.5Q219 57 249 57Q337 57 378 93.5Q419 130 419 199Q419 263 390.5 300Q362 337 279 337Q245 337 224 330.5Q203 324 203 324H151V383L388 612V614Q388 614 376.5 614Q365 614 349.5 613.5Q334 613 317 613Q300 613 290 613H71V680H472V605L308 447Q289 429 266.5 411Q244 393 244 393L245 392Q245 392 261 396Q277 400 304 400Q400 400 446 349Q492 298 492 203Q492 104 428.5 47.5Q365 -9 247 -9Q207 -9 173.5 -2.5Q140 4 115.5 11.5Q91 19 77.5 25.5Q64 32 64 32Z" glyph-name="three.tf" horiz-adv-x="560" /><glyph d="M49 346H100Q100 346 115.5 336.5Q131 327 171 327Q207 327 229.5 345Q252 363 252 398Q252 433 233 447.5Q214 462 186 462Q164 462 151.5 456Q139 450 139 450H93L92 502L225 624V625Q225 625 205 624.5Q185 624 174 624H53V680H295V622L210 544Q198 533 180.5 518.5Q163 504 163 504V503Q163 503 176 506Q189 509 205 509Q247 509 279.5 485.5Q312 462 312 401Q312 342 273.5 308.5Q235 275 169 275Q109 275 79 288.5Q49 302 49 302ZM605 680H648V643L230 0H187V37ZM805 104Q805 53 769.5 23Q734 -7 667 -7Q600 -7 564.5 23Q529 53 529 104Q529 129 535.5 147.5Q542 166 550.5 178.5Q559 191 565.5 197Q572 203 572 203V205Q572 205 566.5 211Q561 217 554 228.5Q547 240 541.5 257Q536 274 536 296Q536 345 570 374.5Q604 404 667 404Q730 404 764 374.5Q798 345 798 296Q798 274 792.5 257Q787 240 780 228.5Q773 217 767.5 211Q762 205 762 205V203Q762 203 768.5 197Q775 191 783.5 178.5Q792 166 798.5 147.5Q805 129 805 104ZM594 291Q594 257 607 242.5Q620 228 620 228H714Q714 228 727 242.5Q740 257 740 291Q740 325 719 339Q698 353 667 353Q636 353 615 339Q594 325 594 291ZM667 43Q708 43 727 60Q746 77 746 107Q746 145 731 161.5Q716 178 716 178H618Q618 178 602.5 161.5Q587 145 587 107Q587 77 606.5 60Q626 43 667 43Z" glyph-name="threeeighths" horiz-adv-x="855" unicode="&#8540;" /><glyph d="M49 346H100Q100 346 115.5 336.5Q131 327 171 327Q207 327 229.5 345Q252 363 252 398Q252 433 233 447.5Q214 462 186 462Q164 462 151.5 456Q139 450 139 450H93L92 502L225 624V625Q225 625 205 624.5Q185 624 174 624H53V680H295V622L210 544Q198 533 180.5 518.5Q163 504 163 504V503Q163 503 176 506Q189 509 205 509Q247 509 279.5 485.5Q312 462 312 401Q312 342 273.5 308.5Q235 275 169 275Q109 275 79 288.5Q49 302 49 302ZM605 680H648V643L230 0H187V37ZM492 81V134L620 398H723V133H783V81H723V0H666V81ZM549 133H666V257Q666 269 666 283.5Q666 298 666.5 311Q667 324 667 332.5Q667 341 667 341H647Q647 341 643 332Q639 323 633.5 310Q628 297 621.5 282.5Q615 268 610 257Z" glyph-name="threequarters" horiz-adv-x="816" unicode="&#190;" /><glyph d="M33 610V655Q33 655 37.5 662Q42 669 52.5 677.5Q63 686 79.5 693Q96 700 121 700Q141 700 164 695Q187 690 204 684L225 675Q240 670 254 666.5Q268 663 281 663Q311 663 319 677Q327 691 327 691H374V645Q374 645 369.5 638Q365 631 354.5 622.5Q344 614 327.5 607Q311 600 286 600Q266 600 243 605Q220 610 203 617L182 625Q167 631 153 634.5Q139 638 126 638Q96 638 88 624Q80 610 80 610Z" glyph-name="tilde" horiz-adv-x="407" unicode="&#732;" /><glyph d="M33 610V655Q33 655 37.5 662Q42 669 52.5 677.5Q63 686 79.5 693Q96 700 121 700Q141 700 164 695Q187 690 204 684L225 675Q240 670 254 666.5Q268 663 281 663Q311 663 319 677Q327 691 327 691H374V645Q374 645 369.5 638Q365 631 354.5 622.5Q344 614 327.5 607Q311 600 286 600Q266 600 243 605Q220 610 203 617L182 625Q167 631 153 634.5Q139 638 126 638Q96 638 88 624Q80 610 80 610Z" glyph-name="tildecomb" horiz-adv-x="407" unicode="&#771;" /><glyph d="M33 752V797Q33 797 37.5 804Q42 811 52.5 819.5Q63 828 79.5 835Q96 842 121 842Q141 842 164 837Q187 832 204 826L225 817Q240 812 254 808.5Q268 805 281 805Q311 805 319 819Q327 833 327 833H374V787Q374 787 369.5 780Q365 773 354.5 764.5Q344 756 327.5 749Q311 742 286 742Q266 742 243 747Q220 752 203 759L182 767Q167 773 153 776.5Q139 780 126 780Q96 780 88 766Q80 752 80 752Z" glyph-name="tildecomb.case" horiz-adv-x="407" /><glyph d="M116 312V622H22V680H266L257 622H178V312ZM315 312V680H414L462 529Q473 495 477.5 477.5Q482 460 482 460H484Q484 460 488.5 477Q493 494 504 529L552 680H651V312H590V528Q590 539 590 555Q590 571 590.5 585.5Q591 600 591 610.5Q591 621 591 621H589L516 394H449L376 621H374Q374 621 374 610.5Q374 600 374.5 585.5Q375 571 375 555Q375 539 375 528V312Z" glyph-name="trademark" horiz-adv-x="717" unicode="&#8482;" /><glyph d="M51 584V645Q51 645 63.5 651.5Q76 658 99.5 666.5Q123 675 158 681.5Q193 688 237 688Q333 688 384 643.5Q435 599 435 511Q435 459 413 409Q391 359 335 296L135 68V66Q135 66 158.5 66.5Q182 67 224 67H435V0H43V67L287 348Q316 382 338 423Q360 464 360 513Q360 562 332 592Q304 622 238 622Q199 622 173.5 616Q148 610 133.5 603Q119 596 113.5 590Q108 584 108 584Z" glyph-name="two" horiz-adv-x="483" unicode="2" /><glyph d="M301 0H51V53L185 190Q209 213 223.5 233.5Q238 254 238 288Q238 321 218 336Q198 351 170 351Q130 351 115.5 340Q101 329 101 329H50V376Q50 376 81.5 390Q113 404 172 404Q232 404 265.5 374.5Q299 345 299 290Q299 246 280.5 216.5Q262 187 235 160L130 55V54Q130 54 152.5 54.5Q175 55 199 55H301Z" glyph-name="two.dnom" horiz-adv-x="349" /><glyph d="M301 282H51V335L185 472Q209 495 223.5 515.5Q238 536 238 570Q238 603 218 618Q198 633 170 633Q130 633 115.5 622Q101 611 101 611H50V658Q50 658 81.5 672Q113 686 172 686Q232 686 265.5 656.5Q299 627 299 572Q299 528 280.5 498.5Q262 469 235 442L130 337V336Q130 336 152.5 336.5Q175 337 199 337H301Z" glyph-name="two.numr" horiz-adv-x="349" /><glyph d="M48 434V492Q48 492 58 499Q68 506 89 515Q110 524 142.5 531Q175 538 219 538Q306 538 356 497.5Q406 457 406 378Q406 338 388 295.5Q370 253 308 204L208 125Q180 103 157.5 85.5Q135 68 135 68V66Q135 66 165.5 66.5Q196 67 239 67H417V0H40V74L261 253Q307 290 319 319.5Q331 349 331 375Q331 420 304.5 446Q278 472 219 472Q184 472 162 466Q140 460 127.5 453Q115 446 110.5 440Q106 434 106 434Z" glyph-name="two.osf" horiz-adv-x="461" /><glyph d="M63 586V647Q63 647 74 653.5Q85 660 107.5 667.5Q130 675 164.5 681.5Q199 688 245 688Q341 688 391.5 642Q442 596 442 513Q442 454 421 408.5Q400 363 332 314L235 244Q195 215 162.5 177.5Q130 140 130 86V65Q130 65 160.5 66Q191 67 233 67H450V0H56V62Q56 142 90 196Q124 250 188 296L285 365Q332 399 349.5 429.5Q367 460 367 509Q367 563 335 592.5Q303 622 237 622Q205 622 182.5 616.5Q160 611 146 604Q132 597 126 591.5Q120 586 120 586Z" glyph-name="two.ss02" horiz-adv-x="494" /><glyph d="M78 584V645Q78 645 91.5 651.5Q105 658 130 666.5Q155 675 191 681.5Q227 688 271 688Q368 688 422.5 644.5Q477 601 477 513Q477 453 457.5 405Q438 357 379 296L162 68V66Q162 66 185.5 66.5Q209 67 252 67H481V0H70V67L331 348Q360 380 381 419.5Q402 459 402 515Q402 564 370 593Q338 622 272 622Q232 622 205.5 616Q179 610 163.5 603Q148 596 141.5 590Q135 584 135 584Z" glyph-name="two.tf" horiz-adv-x="560" /><glyph d="M85 508H156V137Q156 97 179.5 76Q203 55 252 55Q284 55 310.5 64.5Q337 74 355 86Q373 98 383 107.5Q393 117 393 117V508H464V0H406L396 56H394Q394 56 383.5 46Q373 36 352 24Q331 12 299.5 2Q268 -8 226 -8Q163 -8 124 28Q85 64 85 131Z" glyph-name="u" horiz-adv-x="553" unicode="u" /><glyph d="M315 740H373V695L296 573H235ZM85 508H156V137Q156 97 179.5 76Q203 55 252 55Q284 55 310.5 64.5Q337 74 355 86Q373 98 383 107.5Q393 117 393 117V508H464V0H406L396 56H394Q394 56 383.5 46Q373 36 352 24Q331 12 299.5 2Q268 -8 226 -8Q163 -8 124 28Q85 64 85 131Z" glyph-name="uacute" horiz-adv-x="553" unicode="&#250;" /><glyph d="M142 703H197Q197 703 199 693.5Q201 684 208.5 673Q216 662 231.5 652.5Q247 643 274 643Q301 643 316.5 652.5Q332 662 339.5 673Q347 684 349 693.5Q351 703 351 703H406V659Q406 659 400 647Q394 635 379 621Q364 607 338.5 595Q313 583 274 583Q235 583 209.5 595Q184 607 169 621Q154 635 148 647Q142 659 142 659ZM85 508H156V137Q156 97 179.5 76Q203 55 252 55Q284 55 310.5 64.5Q337 74 355 86Q373 98 383 107.5Q393 117 393 117V508H464V0H406L396 56H394Q394 56 383.5 46Q373 36 352 24Q331 12 299.5 2Q268 -8 226 -8Q163 -8 124 28Q85 64 85 131Z" glyph-name="ubreve" horiz-adv-x="553" unicode="&#365;" /><glyph d="M137 573V603L243 740H305L411 603V573H360L310 640Q295 659 285.5 673Q276 687 276 687H272Q272 687 262.5 673Q253 659 238 640L188 573ZM85 508H156V137Q156 97 179.5 76Q203 55 252 55Q284 55 310.5 64.5Q337 74 355 86Q373 98 383 107.5Q393 117 393 117V508H464V0H406L396 56H394Q394 56 383.5 46Q373 36 352 24Q331 12 299.5 2Q268 -8 226 -8Q163 -8 124 28Q85 64 85 131Z" glyph-name="ucircumflex" horiz-adv-x="553" unicode="&#251;" /><glyph d="M156 639Q156 659 167.5 672Q179 685 204 685Q229 685 241 672Q253 659 253 639V633Q253 613 241 600.5Q229 588 204 588Q179 588 167.5 600.5Q156 613 156 633ZM296 639Q296 659 308 672Q320 685 345 685Q370 685 381.5 672Q393 659 393 639V633Q393 613 381.5 600.5Q370 588 345 588Q320 588 308 600.5Q296 613 296 633ZM85 508H156V137Q156 97 179.5 76Q203 55 252 55Q284 55 310.5 64.5Q337 74 355 86Q373 98 383 107.5Q393 117 393 117V508H464V0H406L396 56H394Q394 56 383.5 46Q373 36 352 24Q331 12 299.5 2Q268 -8 226 -8Q163 -8 124 28Q85 64 85 131Z" glyph-name="udieresis" horiz-adv-x="553" unicode="&#252;" /><glyph d="M230 740 310 573H249L172 695V740ZM85 508H156V137Q156 97 179.5 76Q203 55 252 55Q284 55 310.5 64.5Q337 74 355 86Q373 98 383 107.5Q393 117 393 117V508H464V0H406L396 56H394Q394 56 383.5 46Q373 36 352 24Q331 12 299.5 2Q268 -8 226 -8Q163 -8 124 28Q85 64 85 131Z" glyph-name="ugrave" horiz-adv-x="553" unicode="&#249;" /><glyph d="M267 665 195 573H131L209 710H267ZM406 665 334 573H271L349 710H406ZM85 508H156V137Q156 97 179.5 76Q203 55 252 55Q284 55 310.5 64.5Q337 74 355 86Q373 98 383 107.5Q393 117 393 117V508H464V0H406L396 56H394Q394 56 383.5 46Q373 36 352 24Q331 12 299.5 2Q268 -8 226 -8Q163 -8 124 28Q85 64 85 131Z" glyph-name="uhungarumlaut" horiz-adv-x="553" unicode="&#369;" /><glyph d="M134 680H413V616H134ZM85 508H156V137Q156 97 179.5 76Q203 55 252 55Q284 55 310.5 64.5Q337 74 355 86Q373 98 383 107.5Q393 117 393 117V508H464V0H406L396 56H394Q394 56 383.5 46Q373 36 352 24Q331 12 299.5 2Q268 -8 226 -8Q163 -8 124 28Q85 64 85 131Z" glyph-name="umacron" horiz-adv-x="553" unicode="&#363;" /><glyph d="M0 -106H500V-172H0Z" glyph-name="underscore" horiz-adv-x="500" unicode="_" /><glyph d="M301 482H51V535L185 672Q209 695 223.5 715.5Q238 736 238 770Q238 803 218 818Q198 833 170 833Q130 833 115.5 822Q101 811 101 811H50V858Q50 858 81.5 872Q113 886 172 886Q232 886 265.5 856.5Q299 827 299 772Q299 728 280.5 698.5Q262 669 235 642L130 537V536Q130 536 152.5 536.5Q175 537 199 537H301Z" glyph-name="uni00B2" horiz-adv-x="349" unicode="&#178;" /><glyph d="M49 546H100Q100 546 115.5 536.5Q131 527 171 527Q207 527 229.5 545Q252 563 252 598Q252 633 233 647.5Q214 662 186 662Q164 662 151.5 656Q139 650 139 650H93L92 702L225 824V825Q225 825 205 824.5Q185 824 174 824H53V880H295V822L210 744Q198 733 180.5 718.5Q163 704 163 704V703Q163 703 176 706Q189 709 205 709Q247 709 279.5 685.5Q312 662 312 601Q312 542 273.5 508.5Q235 475 169 475Q109 475 79 488.5Q49 502 49 502Z" glyph-name="uni00B3" horiz-adv-x="356" unicode="&#179;" /><glyph d="M85 508H156V137Q156 97 179.5 76Q203 55 252 55Q284 55 310.5 64.5Q337 74 355 86Q373 98 383 107.5Q393 117 393 117V508H464V0H406L396 56H394Q394 56 383.5 46Q373 36 352 24Q331 12 299.5 2Q268 -8 226 -8Q204 -8 184.5 -3.5Q165 1 149 9Q151 -16 153 -53Q155 -90 155 -120V-173H85Z" glyph-name="uni00B5" horiz-adv-x="553" unicode="&#181;" /><glyph d="M28 482V530L107 538V821H35V863L120 880H168V538L246 530V482Z" glyph-name="uni00B9" horiz-adv-x="269" unicode="&#185;" /><glyph d="M70 267V413Q70 549 129 619.5Q188 690 306 690Q370 690 410.5 672.5Q451 655 473.5 633.5Q496 612 504.5 594.5Q513 577 513 577V523H450Q443 570 405 597Q367 624 306 624Q223 624 184 574Q145 524 145 427V253Q145 155 181 105.5Q217 56 299 56Q332 56 359 65Q386 74 404.5 85Q423 96 433.5 105Q444 114 444 114V311H293V377H517V0H458L449 54H446Q446 54 435 44Q424 34 404 22Q384 10 355 0Q326 -10 289 -10Q180 -10 125 60.5Q70 131 70 267ZM228 -195Q228 -195 234 -181.5Q240 -168 246.5 -145.5Q253 -123 259 -92.5Q265 -62 265 -28H338V-66Q323 -132 305.5 -163.5Q288 -195 288 -195Z" glyph-name="uni0122" horiz-adv-x="598" unicode="&#290;" /><glyph d="M328 734Q328 734 322 721.5Q316 709 309 687.5Q302 666 296 636.5Q290 607 290 573H213V605Q228 671 248 702.5Q268 734 268 734ZM60 -57Q60 -31 69.5 -10Q79 11 90 26Q101 41 110.5 49Q120 57 120 57V59Q120 59 114.5 63.5Q109 68 103 76.5Q97 85 91.5 98Q86 111 86 128Q86 149 92.5 165Q99 181 106.5 192.5Q114 204 120.5 210Q127 216 127 216V217Q127 217 118 225Q109 233 98.5 248.5Q88 264 79 288.5Q70 313 70 346V351Q70 419 116 465Q162 511 263 511Q324 511 359 499.5Q394 488 394 488H395Q401 515 414 532.5Q427 550 440 560Q453 570 463.5 574Q474 578 474 578H534V514H513Q483 514 470.5 497Q458 480 458 452L457 354Q456 280 412 232Q368 184 262 184H172Q172 184 161 171Q150 158 150 137Q150 118 160 106Q170 94 195 94H360Q431 94 466 60Q501 26 501 -34Q501 -108 443 -144.5Q385 -181 279 -181H257Q192 -181 153 -170.5Q114 -160 93.5 -142.5Q73 -125 66.5 -102.5Q60 -80 60 -57ZM141 343Q141 317 147.5 298.5Q154 280 162 268.5Q170 257 176.5 251.5Q183 246 183 246L259 245Q326 244 356 273.5Q386 303 386 358V428Q386 428 354 438Q322 448 264 448Q194 448 167.5 421Q141 394 141 345ZM127 -49Q127 -84 154 -101Q181 -118 257 -118H281Q328 -118 357.5 -112Q387 -106 403 -95.5Q419 -85 424.5 -70.5Q430 -56 430 -38Q430 -12 413.5 8.5Q397 29 354 29H165Q165 29 159 25Q153 21 146 11.5Q139 2 133 -13Q127 -28 127 -49Z" glyph-name="uni0123" horiz-adv-x="542" unicode="&#291;" /><glyph d="M341 734Q341 734 335 721.5Q329 709 322 687.5Q315 666 309 636.5Q303 607 303 573H226V605Q241 671 261 702.5Q281 734 281 734ZM112 -156V-98H157Q157 -98 186 -107Q215 -116 256 -116Q320 -116 357 -89Q394 -62 394 -8V7Q394 35 394.5 53.5Q395 72 395 72H393Q393 72 383 62Q373 52 353 40.5Q333 29 303 19Q273 9 233 9Q150 9 103 64.5Q56 120 56 244V279Q56 404 108 459Q160 514 240 514Q278 514 307.5 505Q337 496 357 486Q377 476 387 467Q397 458 397 458H399L408 508H465V-8Q465 -88 407 -135Q349 -182 256 -182Q186 -182 149 -169Q112 -156 112 -156ZM129 258Q129 153 158.5 113.5Q188 74 257 74Q289 74 314.5 83Q340 92 357.5 103.5Q375 115 384.5 124Q394 133 394 133V400Q394 400 385.5 408Q377 416 361 425Q345 434 320.5 442Q296 450 264 450Q197 450 163 409.5Q129 369 129 264Z" glyph-name="uni0123.alt" horiz-adv-x="555" /><glyph d="M172 310V0H99V680H172V483Q172 444 171 410.5Q170 377 170 377H244Q244 377 263.5 402.5Q283 428 322 474L492 680H544V634L304 347V344Q304 344 328 310Q352 276 389 228.5Q426 181 471.5 130Q517 79 558 46V0H500Q461 32 415.5 85Q370 138 332 187.5Q294 237 268.5 273.5Q243 310 243 310ZM243 -195Q243 -195 249 -181.5Q255 -168 261.5 -145.5Q268 -123 274 -92.5Q280 -62 280 -28H353V-66Q338 -132 320.5 -163.5Q303 -195 303 -195Z" glyph-name="uni0136" horiz-adv-x="569" unicode="&#310;" /><glyph d="M90 0V740H161V402Q161 368 160 336.5Q159 305 159 305H235Q235 305 256.5 329.5Q278 354 297 374L422 508H476V466L295 276V273Q295 273 313.5 246.5Q332 220 360 183.5Q388 147 423 108.5Q458 70 490 46V0H435Q403 25 368 66Q333 107 303.5 146Q274 185 254.5 213.5Q235 242 235 242H161V0ZM203 -195Q203 -195 209 -181.5Q215 -168 221.5 -145.5Q228 -123 234 -92.5Q240 -62 240 -28H313V-66Q298 -132 280.5 -163.5Q263 -195 263 -195Z" glyph-name="uni0137" horiz-adv-x="511" unicode="&#311;" /><glyph d="M99 0V680H172V66H462L452 0ZM211 -195Q211 -195 217 -181.5Q223 -168 229.5 -145.5Q236 -123 242 -92.5Q248 -62 248 -28H321V-66Q306 -132 288.5 -163.5Q271 -195 271 -195Z" glyph-name="uni013B" horiz-adv-x="478" unicode="&#315;" /><glyph d="M201 0H139Q139 0 130.5 4Q122 8 112 18Q102 28 93.5 46.5Q85 65 85 94V740H156V102Q156 80 166 70.5Q176 61 191 61H201ZM90 -195Q90 -195 96 -181.5Q102 -168 108.5 -145.5Q115 -123 121 -92.5Q127 -62 127 -28H200V-66Q185 -132 167.5 -163.5Q150 -195 150 -195Z" glyph-name="uni013C" horiz-adv-x="250" unicode="&#316;" /><glyph d="M99 0V680H195L428 270Q436 257 446 237Q456 217 465 198.5Q474 180 480.5 167Q487 154 487 154H489Q489 154 488 170Q487 186 486 210.5Q485 235 484 265Q483 295 483 324V680H556V0H483V36L228 486Q201 532 185.5 563.5Q170 595 170 595H167Q167 595 169.5 558Q172 521 172 471V0ZM272 -195Q272 -195 278 -181.5Q284 -168 290.5 -145.5Q297 -123 303 -92.5Q309 -62 309 -28H382V-66Q367 -132 349.5 -163.5Q332 -195 332 -195Z" glyph-name="uni0145" horiz-adv-x="655" unicode="&#325;" /><glyph d="M90 0V508H148L158 452H160Q160 452 171 462Q182 472 202.5 484Q223 496 254.5 506Q286 516 326 516Q392 516 433 480Q474 444 474 378V0H403V371Q403 411 378 432Q353 453 304 453Q272 453 245 443.5Q218 434 199.5 422Q181 410 171 400.5Q161 391 161 391V0ZM216 -195Q216 -195 222 -181.5Q228 -168 234.5 -145.5Q241 -123 247 -92.5Q253 -62 253 -28H326V-66Q311 -132 293.5 -163.5Q276 -195 276 -195Z" glyph-name="uni0146" horiz-adv-x="558" unicode="&#326;" /><glyph d="M99 0V680H323Q427 680 481.5 633.5Q536 587 536 492Q536 433 513 395.5Q490 358 462 337Q434 316 411 308Q388 300 388 300Q388 300 399 275.5Q410 251 430.5 213.5Q451 176 481.5 131Q512 86 550 45V0H492Q454 41 420.5 92Q387 143 363 187.5Q339 232 325.5 262.5Q312 293 312 293H172V0ZM172 359H358Q358 359 374 363Q390 367 409.5 381Q429 395 445 421.5Q461 448 461 492Q461 549 430 581.5Q399 614 331 614H172ZM243 -195Q243 -195 249 -181.5Q255 -168 261.5 -145.5Q268 -123 274 -92.5Q280 -62 280 -28H353V-66Q338 -132 320.5 -163.5Q303 -195 303 -195Z" glyph-name="uni0156" horiz-adv-x="590" unicode="&#342;" /><glyph d="M90 508H148L159 438H161Q161 438 168.5 449Q176 460 192.5 473Q209 486 236 497Q263 508 303 508H318V441H287Q255 441 231 430.5Q207 420 191.5 408Q176 396 168.5 385.5Q161 375 161 375V0H90ZM53 -195Q53 -195 59 -181.5Q65 -168 71.5 -145.5Q78 -123 84 -92.5Q90 -62 90 -28H163V-66Q148 -132 130.5 -163.5Q113 -195 113 -195Z" glyph-name="uni0157" horiz-adv-x="351" unicode="&#343;" /><glyph d="M208 -154H151V-114Q151 -114 157 -106.5Q163 -99 170 -85Q177 -71 183 -49.5Q189 -28 189 0H188V614H17V680H437L427 614H261V0Q261 -37 252.5 -66Q244 -95 234.5 -114.5Q225 -134 216.5 -144Q208 -154 208 -154Z" glyph-name="uni0162" horiz-adv-x="452" unicode="&#354;" /><glyph d="M203 -154H146V-114Q146 -114 152 -106.5Q158 -99 165 -85Q172 -71 178 -49.5Q184 -28 184 0V3Q175 6 162.5 14.5Q150 23 138 38Q126 53 117.5 77Q109 101 109 135V443H16V508H109V636H180V508H275V443H180V133Q180 95 197.5 78Q215 61 239 61H256V0Q256 -37 247.5 -66Q239 -95 229.5 -114.5Q220 -134 211.5 -144Q203 -154 203 -154Z" glyph-name="uni0163" horiz-adv-x="308" unicode="&#355;" /><glyph d="M75 379 444 377V427Q444 532 402.5 578Q361 624 278 624Q216 624 175.5 608.5Q135 593 135 593H80V646Q80 646 97 653Q114 660 141.5 668Q169 676 206.5 683Q244 690 284 690Q408 690 463.5 621Q519 552 519 419V261Q519 132 466.5 61Q414 -10 292 -10Q168 -10 117 61Q66 132 66 261Q66 278 67.5 299Q69 320 70.5 337.5Q72 355 73.5 367Q75 379 75 379ZM292 56Q375 56 409.5 104Q444 152 444 253V310H143Q143 310 142 292Q141 274 141 253Q141 152 175.5 104Q210 56 292 56Z" glyph-name="uni018F" horiz-adv-x="588" unicode="&#399;" /><glyph d="M167 595Q167 595 169.5 558Q172 521 172 471V-23Q172 -69 158 -98.5Q144 -128 127 -144.5Q110 -161 96 -167Q82 -173 82 -173H26V-112H28Q58 -112 78.5 -90Q99 -68 99 -19V680H195L428 270Q436 257 446 237Q456 217 465 198.5Q474 180 480.5 167Q487 154 487 154H489Q489 154 488 170Q487 186 486 210.5Q485 235 484 265Q483 295 483 324V680H556V0H483V36L228 486Q201 532 185.5 563.5Q170 595 170 595Z" glyph-name="uni019D" horiz-adv-x="655" unicode="&#413;" /></font>
</defs>
</svg>
