<?xml version="1.0" standalone="no"?><!DOCTYPE svg PUBLIC "-//W3C//DTD SVG 1.1//EN" "http://www.w3.org/Graphics/SVG/1.1/DTD/svg11.dtd" ><svg version="1.1" xmlns="http://www.w3.org/2000/svg"><defs><font horiz-adv-x="0" id="font"><font-face ascent="790" bbox="-153 -231 1260 1031" cap-height="680" descent="-210" font-family="FC BARCELONA" font-stretch="normal" font-style="normal" font-weight="700" units-per-em="1000" x-height="518" /><missing-glyph d="M0 0V680H500V0ZM60 620V60H440V620Z" horiz-adv-x="500" /><glyph d="M33 0V76L200 680H420L587 76V0H465L428 143Q398 137 368 134Q338 131 307 131Q277 131 247 134Q217 137 189 142L152 0ZM258 408 219 256Q240 252 262.5 250Q285 248 307 248Q330 248 353 250.5Q376 253 398 257L358 408Q352 432 345.5 458.5Q339 485 334 507Q329 529 325.5 544Q322 559 322 559H295Q295 559 291.5 544Q288 529 283 507Q278 485 271 458.5Q264 432 258 408Z" glyph-name="A" horiz-adv-x="620" unicode="A" /><glyph d="M21 0V76L291 680H832L812 557H537V401H786V278H537V123H822V0H401V157H192L123 0ZM299 399 248 284H401V553H363Q363 553 357 538Q351 523 341.5 500Q332 477 320.5 450Q309 423 299 399Z" glyph-name="AE" horiz-adv-x="872" unicode="&#198;" /><glyph d="M629 912V824L404 715V813L547 912ZM21 0V76L291 680H832L812 557H537V401H786V278H537V123H822V0H401V157H192L123 0ZM299 399 248 284H401V553H363Q363 553 357 538Q351 523 341.5 500Q332 477 320.5 450Q309 423 299 399Z" glyph-name="AEacute" horiz-adv-x="872" unicode="&#508;" /><glyph d="M451 912V824L226 715V813L369 912ZM33 0V76L200 680H420L587 76V0H465L428 143Q398 137 368 134Q338 131 307 131Q277 131 247 134Q217 137 189 142L152 0ZM258 408 219 256Q240 252 262.5 250Q285 248 307 248Q330 248 353 250.5Q376 253 398 257L358 408Q352 432 345.5 458.5Q339 485 334 507Q329 529 325.5 544Q322 559 322 559H295Q295 559 291.5 544Q288 529 283 507Q278 485 271 458.5Q264 432 258 408Z" glyph-name="Aacute" horiz-adv-x="620" unicode="&#193;" /><glyph d="M164 885H247Q247 885 247.5 875Q248 865 254 852.5Q260 840 273 830Q286 820 310 820Q334 820 347 830Q360 840 366 852.5Q372 865 372.5 875Q373 885 373 885H455V820Q455 820 449 806.5Q443 793 426.5 777Q410 761 382 747.5Q354 734 310 734Q266 734 237.5 747.5Q209 761 193 777Q177 793 170.5 806.5Q164 820 164 820ZM33 0V76L200 680H420L587 76V0H465L428 143Q398 137 368 134Q338 131 307 131Q277 131 247 134Q217 137 189 142L152 0ZM258 408 219 256Q240 252 262.5 250Q285 248 307 248Q330 248 353 250.5Q376 253 398 257L358 408Q352 432 345.5 458.5Q339 485 334 507Q329 529 325.5 544Q322 559 322 559H295Q295 559 291.5 544Q288 529 283 507Q278 485 271 458.5Q264 432 258 408Z" glyph-name="Abreve" horiz-adv-x="620" unicode="&#258;" /><glyph d="M171 733V790L268 869H352L449 790V733H375L339 765Q329 774 321.5 780.5Q314 787 314 787H308Q308 787 300.5 780.5Q293 774 283 765L245 733ZM33 0V76L200 680H420L587 76V0H465L428 143Q398 137 368 134Q338 131 307 131Q277 131 247 134Q217 137 189 142L152 0ZM258 408 219 256Q240 252 262.5 250Q285 248 307 248Q330 248 353 250.5Q376 253 398 257L358 408Q352 432 345.5 458.5Q339 485 334 507Q329 529 325.5 544Q322 559 322 559H295Q295 559 291.5 544Q288 529 283 507Q278 485 271 458.5Q264 432 258 408Z" glyph-name="Acircumflex" horiz-adv-x="620" unicode="&#194;" /><glyph d="M153 816Q153 846 171 864Q189 882 224 882Q261 882 278 863Q295 844 295 816V807Q295 777 277 759Q259 741 224 741Q187 741 170 760Q153 779 153 807ZM325 816Q325 846 343 864Q361 882 396 882Q433 882 450 863Q467 844 467 816V807Q467 777 449 759Q431 741 396 741Q359 741 342 760Q325 779 325 807ZM33 0V76L200 680H420L587 76V0H465L428 143Q398 137 368 134Q338 131 307 131Q277 131 247 134Q217 137 189 142L152 0ZM258 408 219 256Q240 252 262.5 250Q285 248 307 248Q330 248 353 250.5Q376 253 398 257L358 408Q352 432 345.5 458.5Q339 485 334 507Q329 529 325.5 544Q322 559 322 559H295Q295 559 291.5 544Q288 529 283 507Q278 485 271 458.5Q264 432 258 408Z" glyph-name="Adieresis" horiz-adv-x="620" unicode="&#196;" /><glyph d="M169 912H251L394 813V715L169 824ZM33 0V76L200 680H420L587 76V0H465L428 143Q398 137 368 134Q338 131 307 131Q277 131 247 134Q217 137 189 142L152 0ZM258 408 219 256Q240 252 262.5 250Q285 248 307 248Q330 248 353 250.5Q376 253 398 257L358 408Q352 432 345.5 458.5Q339 485 334 507Q329 529 325.5 544Q322 559 322 559H295Q295 559 291.5 544Q288 529 283 507Q278 485 271 458.5Q264 432 258 408Z" glyph-name="Agrave" horiz-adv-x="620" unicode="&#192;" /><glyph d="M160 869H459V773H160ZM33 0V76L200 680H420L587 76V0H465L428 143Q398 137 368 134Q338 131 307 131Q277 131 247 134Q217 137 189 142L152 0ZM258 408 219 256Q240 252 262.5 250Q285 248 307 248Q330 248 353 250.5Q376 253 398 257L358 408Q352 432 345.5 458.5Q339 485 334 507Q329 529 325.5 544Q322 559 322 559H295Q295 559 291.5 544Q288 529 283 507Q278 485 271 458.5Q264 432 258 408Z" glyph-name="Amacron" horiz-adv-x="620" unicode="&#256;" /><glyph d="M33 0V76L200 680H420L587 76V0L563 -19Q541 -36 529.5 -49Q518 -62 518 -75Q518 -89 528 -96.5Q538 -104 554 -104H572V-181H531Q483 -181 453 -156Q423 -131 423 -85Q423 -60 434.5 -39Q446 -18 465 0L428 143Q398 137 368 134Q338 131 307 131Q277 131 247 134Q217 137 189 142L152 0ZM258 408 219 256Q240 252 262.5 250Q285 248 307 248Q330 248 353 250.5Q376 253 398 257L358 408Q352 432 345.5 458.5Q339 485 334 507Q329 529 325.5 544Q322 559 322 559H295Q295 559 291.5 544Q288 529 283 507Q278 485 271 458.5Q264 432 258 408Z" glyph-name="Aogonek" horiz-adv-x="620" unicode="&#260;" /><glyph d="M33 0V76L200 679Q195 690 192.5 703.5Q190 717 190 731Q190 785 223 817Q256 849 310 849Q364 849 397 817Q430 785 430 731Q430 717 427.5 703.5Q425 690 420 679L587 76V0H465L428 143Q398 137 368 134Q338 131 307 131Q277 131 247 134Q217 137 189 142L152 0ZM269 731Q269 713 279 701.5Q289 690 310 690Q331 690 341 701.5Q351 713 351 731Q351 749 341 760.5Q331 772 310 772Q289 772 279 760.5Q269 749 269 731ZM258 408 219 256Q240 252 262.5 250Q285 248 307 248Q330 248 353 250.5Q376 253 398 257L358 408Q352 432 345.5 458.5Q339 485 334 507Q329 529 325.5 544Q322 559 322 559H295Q295 559 291.5 544Q288 529 283 507Q278 485 271 458.5Q264 432 258 408Z" glyph-name="Aring" horiz-adv-x="620" unicode="&#197;" /><glyph d="M425 1031V943L200 834V932L343 1031ZM33 0V76L200 679Q195 690 192.5 703.5Q190 717 190 731Q190 785 223 817Q256 849 310 849Q364 849 397 817Q430 785 430 731Q430 717 427.5 703.5Q425 690 420 679L587 76V0H465L428 143Q398 137 368 134Q338 131 307 131Q277 131 247 134Q217 137 189 142L152 0ZM269 731Q269 713 279 701.5Q289 690 310 690Q331 690 341 701.5Q351 713 351 731Q351 749 341 760.5Q331 772 310 772Q289 772 279 760.5Q269 749 269 731ZM258 408 219 256Q240 252 262.5 250Q285 248 307 248Q330 248 353 250.5Q376 253 398 257L358 408Q352 432 345.5 458.5Q339 485 334 507Q329 529 325.5 544Q322 559 322 559H295Q295 559 291.5 544Q288 529 283 507Q278 485 271 458.5Q264 432 258 408Z" glyph-name="Aringacute" horiz-adv-x="620" unicode="&#506;" /><glyph d="M120 746V829Q120 829 126.5 836.5Q133 844 146 852.5Q159 861 180.5 868.5Q202 876 231 876Q252 876 268.5 872.5Q285 869 301 864L328 855Q341 851 351 848Q361 845 377 845Q407 845 416 859.5Q425 874 425 874H500V791Q500 791 493.5 783.5Q487 776 474 767.5Q461 759 439.5 751.5Q418 744 389 744Q368 744 351.5 747.5Q335 751 319 756L292 765Q279 769 269 772Q259 775 243 775Q213 775 204 760.5Q195 746 195 746ZM33 0V76L200 680H420L587 76V0H465L428 143Q398 137 368 134Q338 131 307 131Q277 131 247 134Q217 137 189 142L152 0ZM258 408 219 256Q240 252 262.5 250Q285 248 307 248Q330 248 353 250.5Q376 253 398 257L358 408Q352 432 345.5 458.5Q339 485 334 507Q329 529 325.5 544Q322 559 322 559H295Q295 559 291.5 544Q288 529 283 507Q278 485 271 458.5Q264 432 258 408Z" glyph-name="Atilde" horiz-adv-x="620" unicode="&#195;" /><glyph d="M70 0V680H316Q438 680 487 629Q536 578 536 494Q536 454 523.5 425.5Q511 397 496.5 379Q482 361 469.5 352.5Q457 344 457 344V342Q457 342 471 333Q485 324 501.5 306Q518 288 532 260.5Q546 233 546 195Q546 104 493 52Q440 0 325 0ZM321 563H202V402H350Q350 402 358.5 406.5Q367 411 376.5 420.5Q386 430 394.5 446Q403 462 403 485Q403 516 384 539.5Q365 563 321 563ZM353 287H202V117H329Q370 117 391.5 141Q413 165 413 202Q413 226 403.5 242Q394 258 383 268Q372 278 362.5 282.5Q353 287 353 287Z" glyph-name="B" horiz-adv-x="586" unicode="B" /><glyph d="M50 254V426Q50 560 115 623.5Q180 687 302 687Q354 687 393 675Q432 663 457 649Q482 635 494 623Q506 611 506 611V505H395Q395 505 392.5 514.5Q390 524 380.5 535.5Q371 547 352.5 556.5Q334 566 303 566Q237 566 211.5 532Q186 498 186 429V251Q186 182 211.5 148Q237 114 303 114Q334 114 352.5 123.5Q371 133 380.5 144.5Q390 156 392.5 165.5Q395 175 395 175H506V69Q506 69 494 57Q482 45 457 31Q432 17 393 5Q354 -7 302 -7Q180 -7 115 56.5Q50 120 50 254Z" glyph-name="C" horiz-adv-x="542" unicode="C" /><glyph d="M440 912V824L215 715V813L358 912ZM50 254V426Q50 560 115 623.5Q180 687 302 687Q354 687 393 675Q432 663 457 649Q482 635 494 623Q506 611 506 611V505H395Q395 505 392.5 514.5Q390 524 380.5 535.5Q371 547 352.5 556.5Q334 566 303 566Q237 566 211.5 532Q186 498 186 429V251Q186 182 211.5 148Q237 114 303 114Q334 114 352.5 123.5Q371 133 380.5 144.5Q390 156 392.5 165.5Q395 175 395 175H506V69Q506 69 494 57Q482 45 457 31Q432 17 393 5Q354 -7 302 -7Q180 -7 115 56.5Q50 120 50 254Z" glyph-name="Cacute" horiz-adv-x="542" unicode="&#262;" /><glyph d="M157 869H231L269 837Q279 828 286.5 821.5Q294 815 294 815H300Q300 815 307.5 821.5Q315 828 325 837L361 869H435V812L338 733H254L157 812ZM50 254V426Q50 560 115 623.5Q180 687 302 687Q354 687 393 675Q432 663 457 649Q482 635 494 623Q506 611 506 611V505H395Q395 505 392.5 514.5Q390 524 380.5 535.5Q371 547 352.5 556.5Q334 566 303 566Q237 566 211.5 532Q186 498 186 429V251Q186 182 211.5 148Q237 114 303 114Q334 114 352.5 123.5Q371 133 380.5 144.5Q390 156 392.5 165.5Q395 175 395 175H506V69Q506 69 494 57Q482 45 457 31Q432 17 393 5Q354 -7 302 -7Q180 -7 115 56.5Q50 120 50 254Z" glyph-name="Ccaron" horiz-adv-x="542" unicode="&#268;" /><glyph d="M50 254V426Q50 560 115 623.5Q180 687 302 687Q354 687 393 675Q432 663 457 649Q482 635 494 623Q506 611 506 611V505H395Q395 505 392.5 514.5Q390 524 380.5 535.5Q371 547 352.5 556.5Q334 566 303 566Q237 566 211.5 532Q186 498 186 429V251Q186 182 211.5 148Q237 114 303 114Q334 114 352.5 123.5Q371 133 380.5 144.5Q390 156 392.5 165.5Q395 175 395 175H506V69Q506 69 497 60Q488 51 469 39Q450 27 421 15Q392 3 353 -3Q353 -38 344 -66.5Q335 -95 325 -114Q315 -133 306.5 -143.5Q298 -154 298 -154H209V-87Q209 -87 214.5 -81.5Q220 -76 227 -66Q234 -56 239.5 -40Q245 -24 245 -3Q150 10 100 73Q50 136 50 254Z" glyph-name="Ccedilla" horiz-adv-x="542" unicode="&#199;" /><glyph d="M157 733V790L254 869H338L435 790V733H361L325 765Q315 774 307.5 780.5Q300 787 300 787H294Q294 787 286.5 780.5Q279 774 269 765L231 733ZM50 254V426Q50 560 115 623.5Q180 687 302 687Q354 687 393 675Q432 663 457 649Q482 635 494 623Q506 611 506 611V505H395Q395 505 392.5 514.5Q390 524 380.5 535.5Q371 547 352.5 556.5Q334 566 303 566Q237 566 211.5 532Q186 498 186 429V251Q186 182 211.5 148Q237 114 303 114Q334 114 352.5 123.5Q371 133 380.5 144.5Q390 156 392.5 165.5Q395 175 395 175H506V69Q506 69 494 57Q482 45 457 31Q432 17 393 5Q354 -7 302 -7Q180 -7 115 56.5Q50 120 50 254Z" glyph-name="Ccircumflex" horiz-adv-x="542" unicode="&#264;" /><glyph d="M220 815Q220 848 239.5 867Q259 886 296 886Q333 886 352.5 867Q372 848 372 815V805Q372 772 352.5 753Q333 734 296 734Q259 734 239.5 753Q220 772 220 805ZM50 254V426Q50 560 115 623.5Q180 687 302 687Q354 687 393 675Q432 663 457 649Q482 635 494 623Q506 611 506 611V505H395Q395 505 392.5 514.5Q390 524 380.5 535.5Q371 547 352.5 556.5Q334 566 303 566Q237 566 211.5 532Q186 498 186 429V251Q186 182 211.5 148Q237 114 303 114Q334 114 352.5 123.5Q371 133 380.5 144.5Q390 156 392.5 165.5Q395 175 395 175H506V69Q506 69 494 57Q482 45 457 31Q432 17 393 5Q354 -7 302 -7Q180 -7 115 56.5Q50 120 50 254Z" glyph-name="Cdotaccent" horiz-adv-x="542" unicode="&#266;" /><glyph d="M70 0V680H313Q435 680 500 617.5Q565 555 565 419V261Q565 125 500 62.5Q435 0 313 0ZM305 558H206V122H305Q369 122 399 150Q429 178 429 249V431Q429 502 399 530Q369 558 305 558Z" glyph-name="D" horiz-adv-x="615" unicode="D" /><glyph d="M169 869H243L281 837Q291 828 298.5 821.5Q306 815 306 815H312Q312 815 319.5 821.5Q327 828 337 837L373 869H447V812L350 733H266L169 812ZM70 0V680H313Q435 680 500 617.5Q565 555 565 419V261Q565 125 500 62.5Q435 0 313 0ZM305 558H206V122H305Q369 122 399 150Q429 178 429 249V431Q429 502 399 530Q369 558 305 558Z" glyph-name="Dcaron" horiz-adv-x="615" unicode="&#270;" /><glyph d="M-8 389H70V680H313Q435 680 500 617.5Q565 555 565 419V261Q565 125 500 62.5Q435 0 313 0H70V291H-8ZM304 291H206V122H305Q369 122 399 150Q429 178 429 249V431Q429 502 399 530Q369 558 305 558H206V389H304Z" glyph-name="Dcroat" horiz-adv-x="615" unicode="&#272;" /><glyph d="M70 0V680H501L481 557H206V401H455V278H206V123H491V0Z" glyph-name="E" horiz-adv-x="541" unicode="E" /><glyph d="M434 912V824L209 715V813L352 912ZM70 0V680H501L481 557H206V401H455V278H206V123H491V0Z" glyph-name="Eacute" horiz-adv-x="541" unicode="&#201;" /><glyph d="M136 885H219Q219 885 219.5 875Q220 865 226 852.5Q232 840 245 830Q258 820 282 820Q306 820 319 830Q332 840 338 852.5Q344 865 344.5 875Q345 885 345 885H427V820Q427 820 421 806.5Q415 793 398.5 777Q382 761 354 747.5Q326 734 282 734Q238 734 209.5 747.5Q181 761 165 777Q149 793 142.5 806.5Q136 820 136 820ZM70 0V680H501L481 557H206V401H455V278H206V123H491V0Z" glyph-name="Ebreve" horiz-adv-x="541" unicode="&#276;" /><glyph d="M143 869H217L255 837Q265 828 272.5 821.5Q280 815 280 815H286Q286 815 293.5 821.5Q301 828 311 837L347 869H421V812L324 733H240L143 812ZM70 0V680H501L481 557H206V401H455V278H206V123H491V0Z" glyph-name="Ecaron" horiz-adv-x="541" unicode="&#282;" /><glyph d="M143 733V790L240 869H324L421 790V733H347L311 765Q301 774 293.5 780.5Q286 787 286 787H280Q280 787 272.5 780.5Q265 774 255 765L217 733ZM70 0V680H501L481 557H206V401H455V278H206V123H491V0Z" glyph-name="Ecircumflex" horiz-adv-x="541" unicode="&#202;" /><glyph d="M125 816Q125 846 143 864Q161 882 196 882Q233 882 250 863Q267 844 267 816V807Q267 777 249 759Q231 741 196 741Q159 741 142 760Q125 779 125 807ZM297 816Q297 846 315 864Q333 882 368 882Q405 882 422 863Q439 844 439 816V807Q439 777 421 759Q403 741 368 741Q331 741 314 760Q297 779 297 807ZM70 0V680H501L481 557H206V401H455V278H206V123H491V0Z" glyph-name="Edieresis" horiz-adv-x="541" unicode="&#203;" /><glyph d="M206 815Q206 848 225.5 867Q245 886 282 886Q319 886 338.5 867Q358 848 358 815V805Q358 772 338.5 753Q319 734 282 734Q245 734 225.5 753Q206 772 206 805ZM70 0V680H501L481 557H206V401H455V278H206V123H491V0Z" glyph-name="Edotaccent" horiz-adv-x="541" unicode="&#278;" /><glyph d="M139 912H221L364 813V715L139 824ZM70 0V680H501L481 557H206V401H455V278H206V123H491V0Z" glyph-name="Egrave" horiz-adv-x="541" unicode="&#200;" /><glyph d="M132 869H431V773H132ZM70 0V680H501L481 557H206V401H455V278H206V123H491V0Z" glyph-name="Emacron" horiz-adv-x="541" unicode="&#274;" /><glyph d="M70 0V680H195L389 361Q395 351 404 334Q413 317 422 300Q431 283 437 270.5Q443 258 443 258H445Q445 258 444 270.5Q443 283 442.5 303Q442 323 441 348Q440 373 440 398V680H572V0Q572 -55 557.5 -89.5Q543 -124 526 -142Q509 -160 495 -166.5Q481 -173 481 -173H377V-62H384Q409 -62 424.5 -50.5Q440 -39 440 -2V55L269 334Q261 349 249.5 369Q238 389 227.5 407Q217 425 209.5 438Q202 451 202 451H199Q199 451 200.5 411.5Q202 372 202 322V0Z" glyph-name="Eng" horiz-adv-x="642" unicode="&#330;" /><glyph d="M70 0V680H501L481 557H206V401H455V278H206V123H491V0L467 -19Q445 -36 433.5 -49Q422 -62 422 -75Q422 -89 432 -96.5Q442 -104 458 -104H476V-181H435Q387 -181 357 -156Q327 -131 327 -85Q327 -60 338.5 -39Q350 -18 369 0Z" glyph-name="Eogonek" horiz-adv-x="541" unicode="&#280;" /><glyph d="M-8 389H70V680H313Q435 680 500 617.5Q565 555 565 419V261Q565 125 500 62.5Q435 0 313 0H70V291H-8ZM304 291H206V122H305Q369 122 399 150Q429 178 429 249V431Q429 502 399 530Q369 558 305 558H206V389H304Z" glyph-name="Eth" horiz-adv-x="615" unicode="&#208;" /><glyph d="M397 215H247Q251 157 273 135.5Q295 114 347 114Q376 114 392.5 121Q409 128 417.5 136Q426 144 428.5 151Q431 158 431 158H532V49Q532 49 520 40Q508 31 484.5 21Q461 11 425.5 2Q390 -7 343 -7Q230 -7 174 47Q118 101 111 215H36V311H110V369H36V465H111Q118 579 174 633Q230 687 343 687Q390 687 425.5 678Q461 669 484.5 659Q508 649 520 640Q532 631 532 631V522H431Q431 522 428.5 529Q426 536 417.5 544Q409 552 392.5 559Q376 566 347 566Q295 566 273 544.5Q251 523 247 465H397V369H246V311H397Z" glyph-name="Euro" horiz-adv-x="554" unicode="&#8364;" /><glyph d="M70 0V680H491L471 557H206V401H445V278H206V0Z" glyph-name="F" horiz-adv-x="507" unicode="F" /><glyph d="M50 246V426Q50 562 120.5 624.5Q191 687 316 687Q369 687 408 675Q447 663 472.5 648Q498 633 510.5 621Q523 609 523 609V505H412Q412 505 408 514.5Q404 524 393.5 535.5Q383 547 363 556.5Q343 566 312 566Q246 566 216 532Q186 498 186 429V238Q186 167 217 135Q248 103 311 103Q336 103 354 108.5Q372 114 384 120.5Q396 127 402 132.5Q408 138 408 138V282H304V401H533V0H435L418 46H415Q415 46 406 37.5Q397 29 379 19Q361 9 334 0.5Q307 -8 270 -8Q162 -8 106 55Q50 118 50 246Z" glyph-name="G" horiz-adv-x="600" unicode="G" /><glyph d="M154 885H237Q237 885 237.5 875Q238 865 244 852.5Q250 840 263 830Q276 820 300 820Q324 820 337 830Q350 840 356 852.5Q362 865 362.5 875Q363 885 363 885H445V820Q445 820 439 806.5Q433 793 416.5 777Q400 761 372 747.5Q344 734 300 734Q256 734 227.5 747.5Q199 761 183 777Q167 793 160.5 806.5Q154 820 154 820ZM50 246V426Q50 562 120.5 624.5Q191 687 316 687Q369 687 408 675Q447 663 472.5 648Q498 633 510.5 621Q523 609 523 609V505H412Q412 505 408 514.5Q404 524 393.5 535.5Q383 547 363 556.5Q343 566 312 566Q246 566 216 532Q186 498 186 429V238Q186 167 217 135Q248 103 311 103Q336 103 354 108.5Q372 114 384 120.5Q396 127 402 132.5Q408 138 408 138V282H304V401H533V0H435L418 46H415Q415 46 406 37.5Q397 29 379 19Q361 9 334 0.5Q307 -8 270 -8Q162 -8 106 55Q50 118 50 246Z" glyph-name="Gbreve" horiz-adv-x="600" unicode="&#286;" /><glyph d="M161 869H235L273 837Q283 828 290.5 821.5Q298 815 298 815H304Q304 815 311.5 821.5Q319 828 329 837L365 869H439V812L342 733H258L161 812ZM50 246V426Q50 562 120.5 624.5Q191 687 316 687Q369 687 408 675Q447 663 472.5 648Q498 633 510.5 621Q523 609 523 609V505H412Q412 505 408 514.5Q404 524 393.5 535.5Q383 547 363 556.5Q343 566 312 566Q246 566 216 532Q186 498 186 429V238Q186 167 217 135Q248 103 311 103Q336 103 354 108.5Q372 114 384 120.5Q396 127 402 132.5Q408 138 408 138V282H304V401H533V0H435L418 46H415Q415 46 406 37.5Q397 29 379 19Q361 9 334 0.5Q307 -8 270 -8Q162 -8 106 55Q50 118 50 246Z" glyph-name="Gcaron" horiz-adv-x="600" unicode="&#486;" /><glyph d="M161 733V790L258 869H342L439 790V733H365L329 765Q319 774 311.5 780.5Q304 787 304 787H298Q298 787 290.5 780.5Q283 774 273 765L235 733ZM50 246V426Q50 562 120.5 624.5Q191 687 316 687Q369 687 408 675Q447 663 472.5 648Q498 633 510.5 621Q523 609 523 609V505H412Q412 505 408 514.5Q404 524 393.5 535.5Q383 547 363 556.5Q343 566 312 566Q246 566 216 532Q186 498 186 429V238Q186 167 217 135Q248 103 311 103Q336 103 354 108.5Q372 114 384 120.5Q396 127 402 132.5Q408 138 408 138V282H304V401H533V0H435L418 46H415Q415 46 406 37.5Q397 29 379 19Q361 9 334 0.5Q307 -8 270 -8Q162 -8 106 55Q50 118 50 246Z" glyph-name="Gcircumflex" horiz-adv-x="600" unicode="&#284;" /><glyph d="M224 815Q224 848 243.5 867Q263 886 300 886Q337 886 356.5 867Q376 848 376 815V805Q376 772 356.5 753Q337 734 300 734Q263 734 243.5 753Q224 772 224 805ZM50 246V426Q50 562 120.5 624.5Q191 687 316 687Q369 687 408 675Q447 663 472.5 648Q498 633 510.5 621Q523 609 523 609V505H412Q412 505 408 514.5Q404 524 393.5 535.5Q383 547 363 556.5Q343 566 312 566Q246 566 216 532Q186 498 186 429V238Q186 167 217 135Q248 103 311 103Q336 103 354 108.5Q372 114 384 120.5Q396 127 402 132.5Q408 138 408 138V282H304V401H533V0H435L418 46H415Q415 46 406 37.5Q397 29 379 19Q361 9 334 0.5Q307 -8 270 -8Q162 -8 106 55Q50 118 50 246Z" glyph-name="Gdotaccent" horiz-adv-x="600" unicode="&#288;" /><glyph d="M572 680V0H436V278H206V0H70V680H206V401H436V680Z" glyph-name="H" horiz-adv-x="642" unicode="H" /><glyph d="M-10 606H70V680H206V606H436V680H572V606H652V491H572V0H436V278H206V0H70V491H-10ZM206 401H436V491H206Z" glyph-name="Hbar" horiz-adv-x="642" unicode="&#294;" /><glyph d="M182 733V790L279 869H363L460 790V733H386L350 765Q340 774 332.5 780.5Q325 787 325 787H319Q319 787 311.5 780.5Q304 774 294 765L256 733ZM572 680V0H436V278H206V0H70V680H206V401H436V680Z" glyph-name="Hcircumflex" horiz-adv-x="642" unicode="&#292;" /><glyph d="M40 95 108 107V573L40 585V680H312V585L244 573V107L312 95V0H40Z" glyph-name="I" horiz-adv-x="352" unicode="I" /><glyph d="M40 95 108 107V573L40 585V680H312V585L244 573V107L312 95V0H40ZM384 140H485Q485 140 495.5 128Q506 116 544 116Q577 116 594.5 133Q612 150 612 189V563H407V680H748V196Q748 107 700 50.5Q652 -6 532 -6Q458 -6 421 8.5Q384 23 384 23Z" glyph-name="IJ" horiz-adv-x="813" unicode="&#306;" /><glyph d="M311 912V824L86 715V813L229 912ZM706 912V824L481 715V813L624 912ZM40 95 108 107V573L40 585V680H312V585L244 573V107L312 95V0H40ZM384 140H485Q485 140 495.5 128Q506 116 544 116Q577 116 594.5 133Q612 150 612 189V563H407V680H748V196Q748 107 700 50.5Q652 -6 532 -6Q458 -6 421 8.5Q384 23 384 23Z" glyph-name="IJacute" horiz-adv-x="813" /><glyph d="M311 912V824L86 715V813L229 912ZM40 95 108 107V573L40 585V680H312V585L244 573V107L312 95V0H40Z" glyph-name="Iacute" horiz-adv-x="352" unicode="&#205;" /><glyph d="M30 885H113Q113 885 113.5 875Q114 865 120 852.5Q126 840 139 830Q152 820 176 820Q200 820 213 830Q226 840 232 852.5Q238 865 238.5 875Q239 885 239 885H321V820Q321 820 315 806.5Q309 793 292.5 777Q276 761 248 747.5Q220 734 176 734Q132 734 103.5 747.5Q75 761 59 777Q43 793 36.5 806.5Q30 820 30 820ZM40 95 108 107V573L40 585V680H312V585L244 573V107L312 95V0H40Z" glyph-name="Ibreve" horiz-adv-x="352" unicode="&#300;" /><glyph d="M37 733V790L134 869H218L315 790V733H241L205 765Q195 774 187.5 780.5Q180 787 180 787H174Q174 787 166.5 780.5Q159 774 149 765L111 733ZM40 95 108 107V573L40 585V680H312V585L244 573V107L312 95V0H40Z" glyph-name="Icircumflex" horiz-adv-x="352" unicode="&#206;" /><glyph d="M19 816Q19 846 37 864Q55 882 90 882Q127 882 144 863Q161 844 161 816V807Q161 777 143 759Q125 741 90 741Q53 741 36 760Q19 779 19 807ZM191 816Q191 846 209 864Q227 882 262 882Q299 882 316 863Q333 844 333 816V807Q333 777 315 759Q297 741 262 741Q225 741 208 760Q191 779 191 807ZM40 95 108 107V573L40 585V680H312V585L244 573V107L312 95V0H40Z" glyph-name="Idieresis" horiz-adv-x="352" unicode="&#207;" /><glyph d="M100 815Q100 848 119.5 867Q139 886 176 886Q213 886 232.5 867Q252 848 252 815V805Q252 772 232.5 753Q213 734 176 734Q139 734 119.5 753Q100 772 100 805ZM40 95 108 107V573L40 585V680H312V585L244 573V107L312 95V0H40Z" glyph-name="Idotaccent" horiz-adv-x="352" unicode="&#304;" /><glyph d="M41 912H123L266 813V715L41 824ZM40 95 108 107V573L40 585V680H312V585L244 573V107L312 95V0H40Z" glyph-name="Igrave" horiz-adv-x="352" unicode="&#204;" /><glyph d="M26 869H325V773H26ZM40 95 108 107V573L40 585V680H312V585L244 573V107L312 95V0H40Z" glyph-name="Imacron" horiz-adv-x="352" unicode="&#298;" /><glyph d="M40 95 108 107V573L40 585V680H312V585L244 573V107L312 95V0L288 -19Q266 -36 254.5 -49Q243 -62 243 -75Q243 -89 253 -96.5Q263 -104 279 -104H297V-181H256Q208 -181 178 -156Q148 -131 148 -85Q148 -60 159.5 -39Q171 -18 190 0H40Z" glyph-name="Iogonek" horiz-adv-x="352" unicode="&#302;" /><glyph d="M-14 746V829Q-14 829 -7.5 836.5Q-1 844 12 852.5Q25 861 46.5 868.5Q68 876 97 876Q118 876 134.5 872.5Q151 869 167 864L194 855Q207 851 217 848Q227 845 243 845Q273 845 282 859.5Q291 874 291 874H366V791Q366 791 359.5 783.5Q353 776 340 767.5Q327 759 305.5 751.5Q284 744 255 744Q234 744 217.5 747.5Q201 751 185 756L158 765Q145 769 135 772Q125 775 109 775Q79 775 70 760.5Q61 746 61 746ZM40 95 108 107V573L40 585V680H312V585L244 573V107L312 95V0H40Z" glyph-name="Itilde" horiz-adv-x="352" unicode="&#296;" /><glyph d="M32 140H133Q133 140 143.5 128Q154 116 192 116Q225 116 242.5 133Q260 150 260 189V563H55V680H396V196Q396 107 348 50.5Q300 -6 180 -6Q106 -6 69 8.5Q32 23 32 23Z" glyph-name="J" horiz-adv-x="461" unicode="J" /><glyph d="M84 733V790L181 869H265L362 790V733H288L252 765Q242 774 234.5 780.5Q227 787 227 787H221Q221 787 213.5 780.5Q206 774 196 765L158 733ZM32 140H133Q133 140 143.5 128Q154 116 192 116Q225 116 242.5 133Q260 150 260 189V563H55V680H396V196Q396 107 348 50.5Q300 -6 180 -6Q106 -6 69 8.5Q32 23 32 23Z" glyph-name="Jcircumflex" horiz-adv-x="461" unicode="&#308;" /><glyph d="M206 279V0H70V680H206V503Q206 463 205.5 432Q205 401 205 401H260Q260 401 280 429Q300 457 319 483L467 680H569V600L372 346V344Q372 344 391 314Q410 284 439.5 242.5Q469 201 505.5 156Q542 111 576 80V0H469Q436 31 398.5 79Q361 127 330 171Q299 215 278.5 247Q258 279 258 279Z" glyph-name="K" horiz-adv-x="598" unicode="K" /><glyph d="M70 0V680H206V123H481L461 0Z" glyph-name="L" horiz-adv-x="489" unicode="L" /><glyph d="M301 912V824L76 715V813L219 912ZM70 0V680H206V123H481L461 0Z" glyph-name="Lacute" horiz-adv-x="489" unicode="&#313;" /><glyph d="M70 0V680H206V123H481L461 0ZM302 490Q302 490 306 505.5Q310 521 315 547Q320 573 324 607.5Q328 642 328 680H462V629Q443 558 425 524Q407 490 407 490Z" glyph-name="Lcaron" horiz-adv-x="489" unicode="&#317;" /><glyph d="M70 0V680H206V123H481L461 0ZM341 355Q341 389 361.5 408.5Q382 428 419 428Q456 428 476.5 408.5Q497 389 497 355V345Q497 311 476.5 291.5Q456 272 419 272Q382 272 361.5 291.5Q341 311 341 345Z" glyph-name="Ldot" horiz-adv-x="522" unicode="&#319;" /><glyph d="M98 0V267L66 251H1V334L98 383V680H234V453L293 483H358V400L234 337V123H509L489 0Z" glyph-name="Lslash" horiz-adv-x="517" unicode="&#321;" /><glyph d="M70 0V680H293L373 313Q379 287 385 252.5Q391 218 396 187.5Q401 157 404.5 135.5Q408 114 408 114H414Q414 114 417.5 135.5Q421 157 426 187.5Q431 218 437 252.5Q443 287 449 313L529 680H752V0H621V338Q621 360 621.5 399Q622 438 623 475.5Q624 513 624.5 540.5Q625 568 625 568H614Q614 568 609 546Q604 524 597.5 492.5Q591 461 583.5 426.5Q576 392 570 367L486 0H336L252 367Q246 392 238.5 426.5Q231 461 224.5 492.5Q218 524 213 546Q208 568 208 568H198Q198 568 198.5 540.5Q199 513 199.5 475.5Q200 438 200.5 399Q201 360 201 338V0Z" glyph-name="M" horiz-adv-x="822" unicode="M" /><glyph d="M70 0V680H218L320 454Q344 401 358.5 364Q373 327 373 327H379Q379 327 393.5 364Q408 401 432 454L534 680H682V0H552V264Q552 291 553.5 329.5Q555 368 557 403Q559 438 560.5 462.5Q562 487 562 487H559Q559 487 554 473.5Q549 460 541 440.5Q533 421 523 397.5Q513 374 503 353L426 187H326L249 353Q239 374 229 397.5Q219 421 211 440.5Q203 460 198 473.5Q193 487 193 487H190Q190 487 191.5 462.5Q193 438 195 403Q197 368 198.5 329.5Q200 291 200 264V0Z" glyph-name="M.alt" horiz-adv-x="752" /><glyph d="M70 0V680H195L389 361Q395 351 404 334Q413 317 422 300Q431 283 437 270.5Q443 258 443 258H445Q445 258 444 270.5Q443 283 442.5 303Q442 323 441 348Q440 373 440 398V680H572V0H440V55L269 334Q261 349 249.5 369Q238 389 227.5 407Q217 425 209.5 438Q202 451 202 451H199Q199 451 200.5 411.5Q202 372 202 322V0Z" glyph-name="N" horiz-adv-x="642" unicode="N" /><glyph d="M471 912V824L246 715V813L389 912ZM70 0V680H195L389 361Q395 351 404 334Q413 317 422 300Q431 283 437 270.5Q443 258 443 258H445Q445 258 444 270.5Q443 283 442.5 303Q442 323 441 348Q440 373 440 398V680H572V0H440V55L269 334Q261 349 249.5 369Q238 389 227.5 407Q217 425 209.5 438Q202 451 202 451H199Q199 451 200.5 411.5Q202 372 202 322V0Z" glyph-name="Nacute" horiz-adv-x="642" unicode="&#323;" /><glyph d="M185 869H259L297 837Q307 828 314.5 821.5Q322 815 322 815H328Q328 815 335.5 821.5Q343 828 353 837L389 869H463V812L366 733H282L185 812ZM70 0V680H195L389 361Q395 351 404 334Q413 317 422 300Q431 283 437 270.5Q443 258 443 258H445Q445 258 444 270.5Q443 283 442.5 303Q442 323 441 348Q440 373 440 398V680H572V0H440V55L269 334Q261 349 249.5 369Q238 389 227.5 407Q217 425 209.5 438Q202 451 202 451H199Q199 451 200.5 411.5Q202 372 202 322V0Z" glyph-name="Ncaron" horiz-adv-x="642" unicode="&#327;" /><glyph d="M134 746V829Q134 829 140.5 836.5Q147 844 160 852.5Q173 861 194.5 868.5Q216 876 245 876Q266 876 282.5 872.5Q299 869 315 864L342 855Q355 851 365 848Q375 845 391 845Q421 845 430 859.5Q439 874 439 874H514V791Q514 791 507.5 783.5Q501 776 488 767.5Q475 759 453.5 751.5Q432 744 403 744Q382 744 365.5 747.5Q349 751 333 756L306 765Q293 769 283 772Q273 775 257 775Q227 775 218 760.5Q209 746 209 746ZM70 0V680H195L389 361Q395 351 404 334Q413 317 422 300Q431 283 437 270.5Q443 258 443 258H445Q445 258 444 270.5Q443 283 442.5 303Q442 323 441 348Q440 373 440 398V680H572V0H440V55L269 334Q261 349 249.5 369Q238 389 227.5 407Q217 425 209.5 438Q202 451 202 451H199Q199 451 200.5 411.5Q202 372 202 322V0Z" glyph-name="Ntilde" horiz-adv-x="642" unicode="&#209;" /><glyph d="M50 263V417Q50 549 118 619.5Q186 690 314 690Q442 690 510 619.5Q578 549 578 417V263Q578 132 510 61Q442 -10 314 -10Q186 -10 118 60.5Q50 131 50 263ZM186 253Q186 178 216.5 144.5Q247 111 314 111Q381 111 411.5 144.5Q442 178 442 253V427Q442 502 411.5 535.5Q381 569 314 569Q247 569 216.5 535.5Q186 502 186 427Z" glyph-name="O" horiz-adv-x="628" unicode="O" /><glyph d="M50 263V417Q50 549 118 619.5Q186 690 299 690Q340 690 376.5 678.5Q413 667 442 648V680H873L853 557H578V401H827V278H578V123H863V0H442V31Q413 12 377 1Q341 -10 299 -10Q186 -10 118 60.5Q50 131 50 263ZM186 253Q186 178 216.5 144.5Q247 111 314 111Q381 111 411.5 144.5Q442 178 442 253V427Q442 502 411.5 535.5Q381 569 314 569Q247 569 216.5 535.5Q186 502 186 427Z" glyph-name="OE" horiz-adv-x="913" unicode="&#338;" /><glyph d="M457 912V824L232 715V813L375 912ZM50 263V417Q50 549 118 619.5Q186 690 314 690Q442 690 510 619.5Q578 549 578 417V263Q578 132 510 61Q442 -10 314 -10Q186 -10 118 60.5Q50 131 50 263ZM186 253Q186 178 216.5 144.5Q247 111 314 111Q381 111 411.5 144.5Q442 178 442 253V427Q442 502 411.5 535.5Q381 569 314 569Q247 569 216.5 535.5Q186 502 186 427Z" glyph-name="Oacute" horiz-adv-x="628" unicode="&#211;" /><glyph d="M168 885H251Q251 885 251.5 875Q252 865 258 852.5Q264 840 277 830Q290 820 314 820Q338 820 351 830Q364 840 370 852.5Q376 865 376.5 875Q377 885 377 885H459V820Q459 820 453 806.5Q447 793 430.5 777Q414 761 386 747.5Q358 734 314 734Q270 734 241.5 747.5Q213 761 197 777Q181 793 174.5 806.5Q168 820 168 820ZM50 263V417Q50 549 118 619.5Q186 690 314 690Q442 690 510 619.5Q578 549 578 417V263Q578 132 510 61Q442 -10 314 -10Q186 -10 118 60.5Q50 131 50 263ZM186 253Q186 178 216.5 144.5Q247 111 314 111Q381 111 411.5 144.5Q442 178 442 253V427Q442 502 411.5 535.5Q381 569 314 569Q247 569 216.5 535.5Q186 502 186 427Z" glyph-name="Obreve" horiz-adv-x="628" unicode="&#334;" /><glyph d="M175 733V790L272 869H356L453 790V733H379L343 765Q333 774 325.5 780.5Q318 787 318 787H312Q312 787 304.5 780.5Q297 774 287 765L249 733ZM50 263V417Q50 549 118 619.5Q186 690 314 690Q442 690 510 619.5Q578 549 578 417V263Q578 132 510 61Q442 -10 314 -10Q186 -10 118 60.5Q50 131 50 263ZM186 253Q186 178 216.5 144.5Q247 111 314 111Q381 111 411.5 144.5Q442 178 442 253V427Q442 502 411.5 535.5Q381 569 314 569Q247 569 216.5 535.5Q186 502 186 427Z" glyph-name="Ocircumflex" horiz-adv-x="628" unicode="&#212;" /><glyph d="M157 816Q157 846 175 864Q193 882 228 882Q265 882 282 863Q299 844 299 816V807Q299 777 281 759Q263 741 228 741Q191 741 174 760Q157 779 157 807ZM329 816Q329 846 347 864Q365 882 400 882Q437 882 454 863Q471 844 471 816V807Q471 777 453 759Q435 741 400 741Q363 741 346 760Q329 779 329 807ZM50 263V417Q50 549 118 619.5Q186 690 314 690Q442 690 510 619.5Q578 549 578 417V263Q578 132 510 61Q442 -10 314 -10Q186 -10 118 60.5Q50 131 50 263ZM186 253Q186 178 216.5 144.5Q247 111 314 111Q381 111 411.5 144.5Q442 178 442 253V427Q442 502 411.5 535.5Q381 569 314 569Q247 569 216.5 535.5Q186 502 186 427Z" glyph-name="Odieresis" horiz-adv-x="628" unicode="&#214;" /><glyph d="M169 912H251L394 813V715L169 824ZM50 263V417Q50 549 118 619.5Q186 690 314 690Q442 690 510 619.5Q578 549 578 417V263Q578 132 510 61Q442 -10 314 -10Q186 -10 118 60.5Q50 131 50 263ZM186 253Q186 178 216.5 144.5Q247 111 314 111Q381 111 411.5 144.5Q442 178 442 253V427Q442 502 411.5 535.5Q381 569 314 569Q247 569 216.5 535.5Q186 502 186 427Z" glyph-name="Ograve" horiz-adv-x="628" unicode="&#210;" /><glyph d="M371 823 294 733H190L277 884H371ZM545 823 468 733H364L451 884H545ZM50 263V417Q50 549 118 619.5Q186 690 314 690Q442 690 510 619.5Q578 549 578 417V263Q578 132 510 61Q442 -10 314 -10Q186 -10 118 60.5Q50 131 50 263ZM186 253Q186 178 216.5 144.5Q247 111 314 111Q381 111 411.5 144.5Q442 178 442 253V427Q442 502 411.5 535.5Q381 569 314 569Q247 569 216.5 535.5Q186 502 186 427Z" glyph-name="Ohungarumlaut" horiz-adv-x="628" unicode="&#336;" /><glyph d="M164 869H463V773H164ZM50 263V417Q50 549 118 619.5Q186 690 314 690Q442 690 510 619.5Q578 549 578 417V263Q578 132 510 61Q442 -10 314 -10Q186 -10 118 60.5Q50 131 50 263ZM186 253Q186 178 216.5 144.5Q247 111 314 111Q381 111 411.5 144.5Q442 178 442 253V427Q442 502 411.5 535.5Q381 569 314 569Q247 569 216.5 535.5Q186 502 186 427Z" glyph-name="Omacron" horiz-adv-x="628" unicode="&#332;" /><glyph d="M50 263V417Q50 549 118 619.5Q186 690 314 690Q354 690 389.5 682.5Q425 675 453 661L494 730H570V674L526 601Q551 567 564.5 520.5Q578 474 578 417V263Q578 132 510 61Q442 -10 314 -10Q274 -10 238.5 -2.5Q203 5 175 19L134 -50H58V6L102 79Q77 113 63.5 159.5Q50 206 50 263ZM186 253Q186 245 186.5 236.5Q187 228 188 221L388 554Q374 561 355 565Q336 569 314 569Q247 569 216.5 535.5Q186 502 186 427ZM442 427Q442 435 441.5 443.5Q441 452 440 459L240 126Q254 119 273 115Q292 111 314 111Q381 111 411.5 144.5Q442 178 442 253Z" glyph-name="Oslash" horiz-adv-x="628" unicode="&#216;" /><glyph d="M457 912V824L232 715V813L375 912ZM50 263V417Q50 549 118 619.5Q186 690 314 690Q354 690 389.5 682.5Q425 675 453 661L494 730H570V674L526 601Q551 567 564.5 520.5Q578 474 578 417V263Q578 132 510 61Q442 -10 314 -10Q274 -10 238.5 -2.5Q203 5 175 19L134 -50H58V6L102 79Q77 113 63.5 159.5Q50 206 50 263ZM186 253Q186 245 186.5 236.5Q187 228 188 221L388 554Q374 561 355 565Q336 569 314 569Q247 569 216.5 535.5Q186 502 186 427ZM442 427Q442 435 441.5 443.5Q441 452 440 459L240 126Q254 119 273 115Q292 111 314 111Q381 111 411.5 144.5Q442 178 442 253Z" glyph-name="Oslashacute" horiz-adv-x="628" unicode="&#510;" /><glyph d="M124 746V829Q124 829 130.5 836.5Q137 844 150 852.5Q163 861 184.5 868.5Q206 876 235 876Q256 876 272.5 872.5Q289 869 305 864L332 855Q345 851 355 848Q365 845 381 845Q411 845 420 859.5Q429 874 429 874H504V791Q504 791 497.5 783.5Q491 776 478 767.5Q465 759 443.5 751.5Q422 744 393 744Q372 744 355.5 747.5Q339 751 323 756L296 765Q283 769 273 772Q263 775 247 775Q217 775 208 760.5Q199 746 199 746ZM50 263V417Q50 549 118 619.5Q186 690 314 690Q442 690 510 619.5Q578 549 578 417V263Q578 132 510 61Q442 -10 314 -10Q186 -10 118 60.5Q50 131 50 263ZM186 253Q186 178 216.5 144.5Q247 111 314 111Q381 111 411.5 144.5Q442 178 442 253V427Q442 502 411.5 535.5Q381 569 314 569Q247 569 216.5 535.5Q186 502 186 427Z" glyph-name="Otilde" horiz-adv-x="628" unicode="&#213;" /><glyph d="M70 0V680H322Q435 680 493.5 624.5Q552 569 552 465Q552 403 528.5 361.5Q505 320 477.5 295Q450 270 426.5 259.5Q403 249 403 249H206V0ZM206 372H358Q358 372 367 376.5Q376 381 387 392Q398 403 407 422Q416 441 416 470Q416 509 392.5 533Q369 557 323 557H206Z" glyph-name="P" horiz-adv-x="574" unicode="P" /><glyph d="M50 263V417Q50 549 118 619.5Q186 690 314 690Q442 690 510 619.5Q578 549 578 417V263Q578 179 550 119Q522 59 469 27Q482 3 505.5 -28Q529 -59 563 -85V-167H466Q442 -147 421.5 -124Q401 -101 385 -79.5Q369 -58 357.5 -39.5Q346 -21 340 -9Q333 -10 327 -10Q321 -10 314 -10Q186 -10 118 60.5Q50 131 50 263ZM186 253Q186 178 216.5 144.5Q247 111 314 111Q381 111 411.5 144.5Q442 178 442 253V427Q442 502 411.5 535.5Q381 569 314 569Q247 569 216.5 535.5Q186 502 186 427Z" glyph-name="Q" horiz-adv-x="628" unicode="Q" /><glyph d="M70 0V680H327Q437 680 496.5 628.5Q556 577 556 478Q556 420 534 380.5Q512 341 486 317.5Q460 294 438 284Q416 274 416 274Q416 274 427.5 254Q439 234 458 205Q477 176 502 142.5Q527 109 553 82V0H449Q417 35 386 80Q355 125 331 165Q307 205 292 232.5Q277 260 277 260H206V0ZM206 383H357Q357 383 367 386.5Q377 390 388.5 400Q400 410 410 427.5Q420 445 420 472Q420 512 396.5 534.5Q373 557 332 557H206Z" glyph-name="R" horiz-adv-x="592" unicode="R" /><glyph d="M420 912V824L195 715V813L338 912ZM70 0V680H327Q437 680 496.5 628.5Q556 577 556 478Q556 420 534 380.5Q512 341 486 317.5Q460 294 438 284Q416 274 416 274Q416 274 427.5 254Q439 234 458 205Q477 176 502 142.5Q527 109 553 82V0H449Q417 35 386 80Q355 125 331 165Q307 205 292 232.5Q277 260 277 260H206V0ZM206 383H357Q357 383 367 386.5Q377 390 388.5 400Q400 410 410 427.5Q420 445 420 472Q420 512 396.5 534.5Q373 557 332 557H206Z" glyph-name="Racute" horiz-adv-x="592" unicode="&#340;" /><glyph d="M139 869H213L251 837Q261 828 268.5 821.5Q276 815 276 815H282Q282 815 289.5 821.5Q297 828 307 837L343 869H417V812L320 733H236L139 812ZM70 0V680H327Q437 680 496.5 628.5Q556 577 556 478Q556 420 534 380.5Q512 341 486 317.5Q460 294 438 284Q416 274 416 274Q416 274 427.5 254Q439 234 458 205Q477 176 502 142.5Q527 109 553 82V0H449Q417 35 386 80Q355 125 331 165Q307 205 292 232.5Q277 260 277 260H206V0ZM206 383H357Q357 383 367 386.5Q377 390 388.5 400Q400 410 410 427.5Q420 445 420 472Q420 512 396.5 534.5Q373 557 332 557H206Z" glyph-name="Rcaron" horiz-adv-x="592" unicode="&#344;" /><glyph d="M40 36V151H146Q146 151 150.5 144.5Q155 138 166.5 130.5Q178 123 198.5 116.5Q219 110 250 110Q310 110 335.5 131Q361 152 361 186Q361 212 343.5 233.5Q326 255 282 271L221 293Q126 327 86.5 372.5Q47 418 47 494Q47 586 110 636Q173 686 287 686Q329 686 364.5 679.5Q400 673 425.5 664.5Q451 656 465.5 649.5Q480 643 480 643V528H373Q373 528 370 534.5Q367 541 357 549Q347 557 328.5 563.5Q310 570 280 570Q229 570 205 549Q181 528 181 497Q181 467 199.5 451.5Q218 436 264 420L325 398Q378 379 411.5 357.5Q445 336 463.5 311.5Q482 287 488.5 258.5Q495 230 495 196Q495 100 436.5 47Q378 -6 246 -6Q202 -6 164.5 0.5Q127 7 99.5 15Q72 23 56 29.5Q40 36 40 36Z" glyph-name="S" horiz-adv-x="537" unicode="S" /><glyph d="M416 912V824L191 715V813L334 912ZM40 36V151H146Q146 151 150.5 144.5Q155 138 166.5 130.5Q178 123 198.5 116.5Q219 110 250 110Q310 110 335.5 131Q361 152 361 186Q361 212 343.5 233.5Q326 255 282 271L221 293Q126 327 86.5 372.5Q47 418 47 494Q47 586 110 636Q173 686 287 686Q329 686 364.5 679.5Q400 673 425.5 664.5Q451 656 465.5 649.5Q480 643 480 643V528H373Q373 528 370 534.5Q367 541 357 549Q347 557 328.5 563.5Q310 570 280 570Q229 570 205 549Q181 528 181 497Q181 467 199.5 451.5Q218 436 264 420L325 398Q378 379 411.5 357.5Q445 336 463.5 311.5Q482 287 488.5 258.5Q495 230 495 196Q495 100 436.5 47Q378 -6 246 -6Q202 -6 164.5 0.5Q127 7 99.5 15Q72 23 56 29.5Q40 36 40 36Z" glyph-name="Sacute" horiz-adv-x="537" unicode="&#346;" /><glyph d="M131 869H205L243 837Q253 828 260.5 821.5Q268 815 268 815H274Q274 815 281.5 821.5Q289 828 299 837L335 869H409V812L312 733H228L131 812ZM40 36V151H146Q146 151 150.5 144.5Q155 138 166.5 130.5Q178 123 198.5 116.5Q219 110 250 110Q310 110 335.5 131Q361 152 361 186Q361 212 343.5 233.5Q326 255 282 271L221 293Q126 327 86.5 372.5Q47 418 47 494Q47 586 110 636Q173 686 287 686Q329 686 364.5 679.5Q400 673 425.5 664.5Q451 656 465.5 649.5Q480 643 480 643V528H373Q373 528 370 534.5Q367 541 357 549Q347 557 328.5 563.5Q310 570 280 570Q229 570 205 549Q181 528 181 497Q181 467 199.5 451.5Q218 436 264 420L325 398Q378 379 411.5 357.5Q445 336 463.5 311.5Q482 287 488.5 258.5Q495 230 495 196Q495 100 436.5 47Q378 -6 246 -6Q202 -6 164.5 0.5Q127 7 99.5 15Q72 23 56 29.5Q40 36 40 36Z" glyph-name="Scaron" horiz-adv-x="537" unicode="&#352;" /><glyph d="M40 36V151H146Q146 151 150.5 144.5Q155 138 166.5 130.5Q178 123 198.5 116.5Q219 110 250 110Q310 110 335.5 131Q361 152 361 186Q361 212 343.5 233.5Q326 255 282 271L221 293Q126 327 86.5 372.5Q47 418 47 494Q47 586 110 636Q173 686 287 686Q329 686 364.5 679.5Q400 673 425.5 664.5Q451 656 465.5 649.5Q480 643 480 643V528H373Q373 528 370 534.5Q367 541 357 549Q347 557 328.5 563.5Q310 570 280 570Q229 570 205 549Q181 528 181 497Q181 467 199.5 451.5Q218 436 264 420L325 398Q378 379 411.5 357.5Q445 336 463.5 311.5Q482 287 488.5 258.5Q495 230 495 196Q495 115 454 64.5Q413 14 322 -1Q322 -37 313 -65.5Q304 -94 294 -113.5Q284 -133 275.5 -143.5Q267 -154 267 -154H178V-87Q178 -87 183.5 -82Q189 -77 196 -66.5Q203 -56 208.5 -40.5Q214 -25 214 -5Q139 0 89.5 18Q40 36 40 36Z" glyph-name="Scedilla" horiz-adv-x="537" unicode="&#350;" /><glyph d="M131 733V790L228 869H312L409 790V733H335L299 765Q289 774 281.5 780.5Q274 787 274 787H268Q268 787 260.5 780.5Q253 774 243 765L205 733ZM40 36V151H146Q146 151 150.5 144.5Q155 138 166.5 130.5Q178 123 198.5 116.5Q219 110 250 110Q310 110 335.5 131Q361 152 361 186Q361 212 343.5 233.5Q326 255 282 271L221 293Q126 327 86.5 372.5Q47 418 47 494Q47 586 110 636Q173 686 287 686Q329 686 364.5 679.5Q400 673 425.5 664.5Q451 656 465.5 649.5Q480 643 480 643V528H373Q373 528 370 534.5Q367 541 357 549Q347 557 328.5 563.5Q310 570 280 570Q229 570 205 549Q181 528 181 497Q181 467 199.5 451.5Q218 436 264 420L325 398Q378 379 411.5 357.5Q445 336 463.5 311.5Q482 287 488.5 258.5Q495 230 495 196Q495 100 436.5 47Q378 -6 246 -6Q202 -6 164.5 0.5Q127 7 99.5 15Q72 23 56 29.5Q40 36 40 36Z" glyph-name="Scircumflex" horiz-adv-x="537" unicode="&#348;" /><glyph d="M462 557H314V0H178V557H16V680H482Z" glyph-name="T" horiz-adv-x="492" unicode="T" /><glyph d="M87 389H178V557H16V680H482L462 557H314V389H399V291H314V0H178V291H87Z" glyph-name="Tbar" horiz-adv-x="492" unicode="&#358;" /><glyph d="M102 869H176L214 837Q224 828 231.5 821.5Q239 815 239 815H245Q245 815 252.5 821.5Q260 828 270 837L306 869H380V812L283 733H199L102 812ZM462 557H314V0H178V557H16V680H482Z" glyph-name="Tcaron" horiz-adv-x="492" unicode="&#356;" /><glyph d="M70 680H206V588H328Q438 588 492.5 534.5Q547 481 547 380Q547 315 519.5 274Q492 233 459.5 209.5Q427 186 399.5 177Q372 168 372 168H206V0H70ZM206 465V291H343Q343 291 353.5 294Q364 297 377 306.5Q390 316 400.5 334.5Q411 353 411 383Q411 426 389.5 445.5Q368 465 327 465Z" glyph-name="Thorn" horiz-adv-x="577" unicode="&#222;" /><glyph d="M65 224V680H201V231Q201 162 227 136.5Q253 111 316 111Q345 111 367.5 117.5Q390 124 405.5 131.5Q421 139 429 145.5Q437 152 437 152V680H573V0H467L451 62H447Q447 62 434 51Q421 40 398.5 27.5Q376 15 343.5 4Q311 -7 272 -7Q168 -7 116.5 46Q65 99 65 224Z" glyph-name="U" horiz-adv-x="643" unicode="U" /><glyph d="M451 912V824L226 715V813L369 912ZM65 224V680H201V231Q201 162 227 136.5Q253 111 316 111Q345 111 367.5 117.5Q390 124 405.5 131.5Q421 139 429 145.5Q437 152 437 152V680H573V0H467L451 62H447Q447 62 434 51Q421 40 398.5 27.5Q376 15 343.5 4Q311 -7 272 -7Q168 -7 116.5 46Q65 99 65 224Z" glyph-name="Uacute" horiz-adv-x="643" unicode="&#218;" /><glyph d="M173 885H256Q256 885 256.5 875Q257 865 263 852.5Q269 840 282 830Q295 820 319 820Q343 820 356 830Q369 840 375 852.5Q381 865 381.5 875Q382 885 382 885H464V820Q464 820 458 806.5Q452 793 435.5 777Q419 761 391 747.5Q363 734 319 734Q275 734 246.5 747.5Q218 761 202 777Q186 793 179.5 806.5Q173 820 173 820ZM65 224V680H201V231Q201 162 227 136.5Q253 111 316 111Q345 111 367.5 117.5Q390 124 405.5 131.5Q421 139 429 145.5Q437 152 437 152V680H573V0H467L451 62H447Q447 62 434 51Q421 40 398.5 27.5Q376 15 343.5 4Q311 -7 272 -7Q168 -7 116.5 46Q65 99 65 224Z" glyph-name="Ubreve" horiz-adv-x="643" unicode="&#364;" /><glyph d="M180 733V790L277 869H361L458 790V733H384L348 765Q338 774 330.5 780.5Q323 787 323 787H317Q317 787 309.5 780.5Q302 774 292 765L254 733ZM65 224V680H201V231Q201 162 227 136.5Q253 111 316 111Q345 111 367.5 117.5Q390 124 405.5 131.5Q421 139 429 145.5Q437 152 437 152V680H573V0H467L451 62H447Q447 62 434 51Q421 40 398.5 27.5Q376 15 343.5 4Q311 -7 272 -7Q168 -7 116.5 46Q65 99 65 224Z" glyph-name="Ucircumflex" horiz-adv-x="643" unicode="&#219;" /><glyph d="M162 816Q162 846 180 864Q198 882 233 882Q270 882 287 863Q304 844 304 816V807Q304 777 286 759Q268 741 233 741Q196 741 179 760Q162 779 162 807ZM334 816Q334 846 352 864Q370 882 405 882Q442 882 459 863Q476 844 476 816V807Q476 777 458 759Q440 741 405 741Q368 741 351 760Q334 779 334 807ZM65 224V680H201V231Q201 162 227 136.5Q253 111 316 111Q345 111 367.5 117.5Q390 124 405.5 131.5Q421 139 429 145.5Q437 152 437 152V680H573V0H467L451 62H447Q447 62 434 51Q421 40 398.5 27.5Q376 15 343.5 4Q311 -7 272 -7Q168 -7 116.5 46Q65 99 65 224Z" glyph-name="Udieresis" horiz-adv-x="643" unicode="&#220;" /><glyph d="M157 912H239L382 813V715L157 824ZM65 224V680H201V231Q201 162 227 136.5Q253 111 316 111Q345 111 367.5 117.5Q390 124 405.5 131.5Q421 139 429 145.5Q437 152 437 152V680H573V0H467L451 62H447Q447 62 434 51Q421 40 398.5 27.5Q376 15 343.5 4Q311 -7 272 -7Q168 -7 116.5 46Q65 99 65 224Z" glyph-name="Ugrave" horiz-adv-x="643" unicode="&#217;" /><glyph d="M365 823 288 733H184L271 884H365ZM539 823 462 733H358L445 884H539ZM65 224V680H201V231Q201 162 227 136.5Q253 111 316 111Q345 111 367.5 117.5Q390 124 405.5 131.5Q421 139 429 145.5Q437 152 437 152V680H573V0H467L451 62H447Q447 62 434 51Q421 40 398.5 27.5Q376 15 343.5 4Q311 -7 272 -7Q168 -7 116.5 46Q65 99 65 224Z" glyph-name="Uhungarumlaut" horiz-adv-x="643" unicode="&#368;" /><glyph d="M169 869H468V773H169ZM65 224V680H201V231Q201 162 227 136.5Q253 111 316 111Q345 111 367.5 117.5Q390 124 405.5 131.5Q421 139 429 145.5Q437 152 437 152V680H573V0H467L451 62H447Q447 62 434 51Q421 40 398.5 27.5Q376 15 343.5 4Q311 -7 272 -7Q168 -7 116.5 46Q65 99 65 224Z" glyph-name="Umacron" horiz-adv-x="643" unicode="&#362;" /><glyph d="M65 224V680H201V231Q201 162 227 136.5Q253 111 316 111Q345 111 367.5 117.5Q390 124 405.5 131.5Q421 139 429 145.5Q437 152 437 152V680H573V0L549 -19Q527 -36 515.5 -49Q504 -62 504 -75Q504 -89 514 -96.5Q524 -104 540 -104H558V-181H517Q469 -181 439 -156Q409 -131 409 -85Q409 -56 424.5 -32Q440 -8 464 12L451 62H447Q447 62 434 51Q421 40 398.5 27.5Q376 15 343.5 4Q311 -7 272 -7Q168 -7 116.5 46Q65 99 65 224Z" glyph-name="Uogonek" horiz-adv-x="643" unicode="&#370;" /><glyph d="M199 825Q199 879 232 911Q265 943 319 943Q373 943 406 911Q439 879 439 825Q439 771 406 739Q373 707 319 707Q265 707 232 739Q199 771 199 825ZM278 825Q278 807 288 795.5Q298 784 319 784Q340 784 350 795.5Q360 807 360 825Q360 843 350 854.5Q340 866 319 866Q298 866 288 854.5Q278 843 278 825ZM65 224V680H201V231Q201 162 227 136.5Q253 111 316 111Q345 111 367.5 117.5Q390 124 405.5 131.5Q421 139 429 145.5Q437 152 437 152V680H573V0H467L451 62H447Q447 62 434 51Q421 40 398.5 27.5Q376 15 343.5 4Q311 -7 272 -7Q168 -7 116.5 46Q65 99 65 224Z" glyph-name="Uring" horiz-adv-x="643" unicode="&#366;" /><glyph d="M129 746V829Q129 829 135.5 836.5Q142 844 155 852.5Q168 861 189.5 868.5Q211 876 240 876Q261 876 277.5 872.5Q294 869 310 864L337 855Q350 851 360 848Q370 845 386 845Q416 845 425 859.5Q434 874 434 874H509V791Q509 791 502.5 783.5Q496 776 483 767.5Q470 759 448.5 751.5Q427 744 398 744Q377 744 360.5 747.5Q344 751 328 756L301 765Q288 769 278 772Q268 775 252 775Q222 775 213 760.5Q204 746 204 746ZM65 224V680H201V231Q201 162 227 136.5Q253 111 316 111Q345 111 367.5 117.5Q390 124 405.5 131.5Q421 139 429 145.5Q437 152 437 152V680H573V0H467L451 62H447Q447 62 434 51Q421 40 398.5 27.5Q376 15 343.5 4Q311 -7 272 -7Q168 -7 116.5 46Q65 99 65 224Z" glyph-name="Utilde" horiz-adv-x="643" unicode="&#360;" /><glyph d="M22 680H142L250 272Q256 248 262 221.5Q268 195 272.5 173Q277 151 280 136Q283 121 283 121H308Q308 121 311 136Q314 151 319 173Q324 195 330 221.5Q336 248 342 272L449 680H568V600L403 0H183L22 600Z" glyph-name="V" horiz-adv-x="590" unicode="V" /><glyph d="M29 680H150L226 312Q231 288 236 254Q241 220 245 189.5Q249 159 251.5 137Q254 115 254 115H268Q268 115 270.5 137Q273 159 277 189.5Q281 220 285.5 254Q290 288 294 312L357 680H558L621 312Q625 288 629.5 254Q634 220 638 189.5Q642 159 644.5 137Q647 115 647 115H661Q661 115 663.5 137Q666 159 670 189.5Q674 220 679 254Q684 288 689 312L765 680H883V601L756 0H551L490 368Q484 405 479 440.5Q474 476 470 503.5Q466 531 464 548Q462 565 462 565H450Q450 565 448 548Q446 531 442 503.5Q438 476 433 440.5Q428 405 422 368L361 0H156L29 601Z" glyph-name="W" horiz-adv-x="912" unicode="W" /><glyph d="M584 912V824L359 715V813L502 912ZM29 680H150L226 312Q231 288 236 254Q241 220 245 189.5Q249 159 251.5 137Q254 115 254 115H268Q268 115 270.5 137Q273 159 277 189.5Q281 220 285.5 254Q290 288 294 312L357 680H558L621 312Q625 288 629.5 254Q634 220 638 189.5Q642 159 644.5 137Q647 115 647 115H661Q661 115 663.5 137Q666 159 670 189.5Q674 220 679 254Q684 288 689 312L765 680H883V601L756 0H551L490 368Q484 405 479 440.5Q474 476 470 503.5Q466 531 464 548Q462 565 462 565H450Q450 565 448 548Q446 531 442 503.5Q438 476 433 440.5Q428 405 422 368L361 0H156L29 601Z" glyph-name="Wacute" horiz-adv-x="912" unicode="&#7810;" /><glyph d="M316 733V790L413 869H497L594 790V733H520L484 765Q474 774 466.5 780.5Q459 787 459 787H453Q453 787 445.5 780.5Q438 774 428 765L390 733ZM29 680H150L226 312Q231 288 236 254Q241 220 245 189.5Q249 159 251.5 137Q254 115 254 115H268Q268 115 270.5 137Q273 159 277 189.5Q281 220 285.5 254Q290 288 294 312L357 680H558L621 312Q625 288 629.5 254Q634 220 638 189.5Q642 159 644.5 137Q647 115 647 115H661Q661 115 663.5 137Q666 159 670 189.5Q674 220 679 254Q684 288 689 312L765 680H883V601L756 0H551L490 368Q484 405 479 440.5Q474 476 470 503.5Q466 531 464 548Q462 565 462 565H450Q450 565 448 548Q446 531 442 503.5Q438 476 433 440.5Q428 405 422 368L361 0H156L29 601Z" glyph-name="Wcircumflex" horiz-adv-x="912" unicode="&#372;" /><glyph d="M298 816Q298 846 316 864Q334 882 369 882Q406 882 423 863Q440 844 440 816V807Q440 777 422 759Q404 741 369 741Q332 741 315 760Q298 779 298 807ZM470 816Q470 846 488 864Q506 882 541 882Q578 882 595 863Q612 844 612 816V807Q612 777 594 759Q576 741 541 741Q504 741 487 760Q470 779 470 807ZM29 680H150L226 312Q231 288 236 254Q241 220 245 189.5Q249 159 251.5 137Q254 115 254 115H268Q268 115 270.5 137Q273 159 277 189.5Q281 220 285.5 254Q290 288 294 312L357 680H558L621 312Q625 288 629.5 254Q634 220 638 189.5Q642 159 644.5 137Q647 115 647 115H661Q661 115 663.5 137Q666 159 670 189.5Q674 220 679 254Q684 288 689 312L765 680H883V601L756 0H551L490 368Q484 405 479 440.5Q474 476 470 503.5Q466 531 464 548Q462 565 462 565H450Q450 565 448 548Q446 531 442 503.5Q438 476 433 440.5Q428 405 422 368L361 0H156L29 601Z" glyph-name="Wdieresis" horiz-adv-x="912" unicode="&#7812;" /><glyph d="M328 912H410L553 813V715L328 824ZM29 680H150L226 312Q231 288 236 254Q241 220 245 189.5Q249 159 251.5 137Q254 115 254 115H268Q268 115 270.5 137Q273 159 277 189.5Q281 220 285.5 254Q290 288 294 312L357 680H558L621 312Q625 288 629.5 254Q634 220 638 189.5Q642 159 644.5 137Q647 115 647 115H661Q661 115 663.5 137Q666 159 670 189.5Q674 220 679 254Q684 288 689 312L765 680H883V601L756 0H551L490 368Q484 405 479 440.5Q474 476 470 503.5Q466 531 464 548Q462 565 462 565H450Q450 565 448 548Q446 531 442 503.5Q438 476 433 440.5Q428 405 422 368L361 0H156L29 601Z" glyph-name="Wgrave" horiz-adv-x="912" unicode="&#7808;" /><glyph d="M22 0V80L166 343V349L22 600V680H131L207 543Q220 519 233 494Q246 469 256 449.5Q266 430 272 417.5Q278 405 278 405H303Q303 405 309 417.5Q315 430 325.5 449.5Q336 469 349 494Q362 519 375 543L451 680H555V600L413 349V343L555 80V0H446L369 144Q359 164 346.5 188Q334 212 324 233Q314 254 307 268.5Q300 283 300 283H275Q275 283 268 268.5Q261 254 250.5 233Q240 212 227.5 188Q215 164 205 144L128 0Z" glyph-name="X" horiz-adv-x="577" unicode="X" /><glyph d="M135 95 208 107V255L18 595V680H121L227 480Q235 464 244 446Q253 428 260 412.5Q267 397 271.5 387Q276 377 276 377H282Q282 377 286.5 386.5Q291 396 298 410.5Q305 425 313.5 442Q322 459 331 475L441 680H540V595L344 255V107L417 95V0H135Z" glyph-name="Y" horiz-adv-x="558" unicode="Y" /><glyph d="M456 912V824L231 715V813L374 912ZM135 95 208 107V255L18 595V680H121L227 480Q235 464 244 446Q253 428 260 412.5Q267 397 271.5 387Q276 377 276 377H282Q282 377 286.5 386.5Q291 396 298 410.5Q305 425 313.5 442Q322 459 331 475L441 680H540V595L344 255V107L417 95V0H135Z" glyph-name="Yacute" horiz-adv-x="558" unicode="&#221;" /><glyph d="M140 733V790L237 869H321L418 790V733H344L308 765Q298 774 290.5 780.5Q283 787 283 787H277Q277 787 269.5 780.5Q262 774 252 765L214 733ZM135 95 208 107V255L18 595V680H121L227 480Q235 464 244 446Q253 428 260 412.5Q267 397 271.5 387Q276 377 276 377H282Q282 377 286.5 386.5Q291 396 298 410.5Q305 425 313.5 442Q322 459 331 475L441 680H540V595L344 255V107L417 95V0H135Z" glyph-name="Ycircumflex" horiz-adv-x="558" unicode="&#374;" /><glyph d="M122 816Q122 846 140 864Q158 882 193 882Q230 882 247 863Q264 844 264 816V807Q264 777 246 759Q228 741 193 741Q156 741 139 760Q122 779 122 807ZM294 816Q294 846 312 864Q330 882 365 882Q402 882 419 863Q436 844 436 816V807Q436 777 418 759Q400 741 365 741Q328 741 311 760Q294 779 294 807ZM135 95 208 107V255L18 595V680H121L227 480Q235 464 244 446Q253 428 260 412.5Q267 397 271.5 387Q276 377 276 377H282Q282 377 286.5 386.5Q291 396 298 410.5Q305 425 313.5 442Q322 459 331 475L441 680H540V595L344 255V107L417 95V0H135Z" glyph-name="Ydieresis" horiz-adv-x="558" unicode="&#376;" /><glyph d="M94 912H176L319 813V715L94 824ZM135 95 208 107V255L18 595V680H121L227 480Q235 464 244 446Q253 428 260 412.5Q267 397 271.5 387Q276 377 276 377H282Q282 377 286.5 386.5Q291 396 298 410.5Q305 425 313.5 442Q322 459 331 475L441 680H540V595L344 255V107L417 95V0H135Z" glyph-name="Ygrave" horiz-adv-x="558" unicode="&#7922;" /><glyph d="M40 0V131L243 412Q287 473 317.5 514Q348 555 348 555V559Q348 559 338.5 558.5Q329 558 314 558Q299 558 282 557.5Q265 557 250 557H44V680H502V549L299 268Q255 207 224.5 166Q194 125 194 125V121Q194 121 203.5 121.5Q213 122 228 122Q243 122 260 122.5Q277 123 292 123H506V0Z" glyph-name="Z" horiz-adv-x="546" unicode="Z" /><glyph d="M410 912V824L185 715V813L328 912ZM40 0V131L243 412Q287 473 317.5 514Q348 555 348 555V559Q348 559 338.5 558.5Q329 558 314 558Q299 558 282 557.5Q265 557 250 557H44V680H502V549L299 268Q255 207 224.5 166Q194 125 194 125V121Q194 121 203.5 121.5Q213 122 228 122Q243 122 260 122.5Q277 123 292 123H506V0Z" glyph-name="Zacute" horiz-adv-x="546" unicode="&#377;" /><glyph d="M129 869H203L241 837Q251 828 258.5 821.5Q266 815 266 815H272Q272 815 279.5 821.5Q287 828 297 837L333 869H407V812L310 733H226L129 812ZM40 0V131L243 412Q287 473 317.5 514Q348 555 348 555V559Q348 559 338.5 558.5Q329 558 314 558Q299 558 282 557.5Q265 557 250 557H44V680H502V549L299 268Q255 207 224.5 166Q194 125 194 125V121Q194 121 203.5 121.5Q213 122 228 122Q243 122 260 122.5Q277 123 292 123H506V0Z" glyph-name="Zcaron" horiz-adv-x="546" unicode="&#381;" /><glyph d="M192 815Q192 848 211.5 867Q231 886 268 886Q305 886 324.5 867Q344 848 344 815V805Q344 772 324.5 753Q305 734 268 734Q231 734 211.5 753Q192 772 192 805ZM40 0V131L243 412Q287 473 317.5 514Q348 555 348 555V559Q348 559 338.5 558.5Q329 558 314 558Q299 558 282 557.5Q265 557 250 557H44V680H502V549L299 268Q255 207 224.5 166Q194 125 194 125V121Q194 121 203.5 121.5Q213 122 228 122Q243 122 260 122.5Q277 123 292 123H506V0Z" glyph-name="Zdotaccent" horiz-adv-x="546" unicode="&#379;" /><glyph d="M78 378V485Q78 485 90 491Q102 497 125.5 504.5Q149 512 184.5 518Q220 524 266 524Q370 524 420 482Q470 440 470 356V0H360L344 52H340Q340 52 330.5 43Q321 34 303 23Q285 12 258.5 3Q232 -6 197 -6Q111 -6 75.5 38Q40 82 40 154Q40 229 85.5 268Q131 307 224 307H340V351Q340 382 322.5 397Q305 412 258 412Q233 412 218 406.5Q203 401 195 395Q187 389 185 383.5Q183 378 183 378ZM239 99Q267 99 286.5 105.5Q306 112 317.5 120.5Q329 129 334.5 135.5Q340 142 340 142V216H237Q205 216 186.5 201Q168 186 168 159Q168 128 183.5 113.5Q199 99 239 99Z" glyph-name="a" horiz-adv-x="535" unicode="a" /><glyph d="M43 246V274Q43 321 52 366Q61 411 83.5 445.5Q106 480 144.5 501Q183 522 242 522Q273 522 297.5 514Q322 506 339 496.5Q356 487 365 479Q374 471 373 471H377L392 518H498V0H386L370 53H366Q366 53 357.5 44Q349 35 332 24.5Q315 14 288 5Q261 -4 225 -4Q170 -4 134.5 15Q99 34 78.5 67.5Q58 101 50.5 147Q43 193 43 246ZM265 108Q290 108 309 113.5Q328 119 340.5 126Q353 133 359.5 138.5Q366 144 366 144V377Q366 377 360 382Q354 387 342.5 393Q331 399 313.5 404Q296 409 272 409Q239 409 220 396Q201 383 191.5 363Q182 343 179.5 317.5Q177 292 177 267V253Q177 226 178.5 199.5Q180 173 188 153Q196 133 214 120.5Q232 108 265 108Z" glyph-name="a.alt" horiz-adv-x="568" /><glyph d="M285 740H398V684L311 571H201ZM78 378V485Q78 485 90 491Q102 497 125.5 504.5Q149 512 184.5 518Q220 524 266 524Q370 524 420 482Q470 440 470 356V0H360L344 52H340Q340 52 330.5 43Q321 34 303 23Q285 12 258.5 3Q232 -6 197 -6Q111 -6 75.5 38Q40 82 40 154Q40 229 85.5 268Q131 307 224 307H340V351Q340 382 322.5 397Q305 412 258 412Q233 412 218 406.5Q203 401 195 395Q187 389 185 383.5Q183 378 183 378ZM239 99Q267 99 286.5 105.5Q306 112 317.5 120.5Q329 129 334.5 135.5Q340 142 340 142V216H237Q205 216 186.5 201Q168 186 168 159Q168 128 183.5 113.5Q199 99 239 99Z" glyph-name="aacute" horiz-adv-x="535" unicode="&#225;" /><glyph d="M303 740H416V684L329 571H219ZM43 246V274Q43 321 52 366Q61 411 83.5 445.5Q106 480 144.5 501Q183 522 242 522Q273 522 297.5 514Q322 506 339 496.5Q356 487 365 479Q374 471 373 471H377L392 518H498V0H386L370 53H366Q366 53 357.5 44Q349 35 332 24.5Q315 14 288 5Q261 -4 225 -4Q170 -4 134.5 15Q99 34 78.5 67.5Q58 101 50.5 147Q43 193 43 246ZM265 108Q290 108 309 113.5Q328 119 340.5 126Q353 133 359.5 138.5Q366 144 366 144V377Q366 377 360 382Q354 387 342.5 393Q331 399 313.5 404Q296 409 272 409Q239 409 220 396Q201 383 191.5 363Q182 343 179.5 317.5Q177 292 177 267V253Q177 226 178.5 199.5Q180 173 188 153Q196 133 214 120.5Q232 108 265 108Z" glyph-name="aacute.alt" horiz-adv-x="568" /><glyph d="M116 723H199Q199 723 199.5 713Q200 703 206 690.5Q212 678 225 668Q238 658 262 658Q286 658 299 668Q312 678 318 690.5Q324 703 324.5 713Q325 723 325 723H407V658Q407 658 401 644.5Q395 631 378.5 615Q362 599 334 585.5Q306 572 262 572Q218 572 189.5 585.5Q161 599 145 615Q129 631 122.5 644.5Q116 658 116 658ZM78 378V485Q78 485 90 491Q102 497 125.5 504.5Q149 512 184.5 518Q220 524 266 524Q370 524 420 482Q470 440 470 356V0H360L344 52H340Q340 52 330.5 43Q321 34 303 23Q285 12 258.5 3Q232 -6 197 -6Q111 -6 75.5 38Q40 82 40 154Q40 229 85.5 268Q131 307 224 307H340V351Q340 382 322.5 397Q305 412 258 412Q233 412 218 406.5Q203 401 195 395Q187 389 185 383.5Q183 378 183 378ZM239 99Q267 99 286.5 105.5Q306 112 317.5 120.5Q329 129 334.5 135.5Q340 142 340 142V216H237Q205 216 186.5 201Q168 186 168 159Q168 128 183.5 113.5Q199 99 239 99Z" glyph-name="abreve" horiz-adv-x="535" unicode="&#259;" /><glyph d="M137 723H220Q220 723 220.5 713Q221 703 227 690.5Q233 678 246 668Q259 658 283 658Q307 658 320 668Q333 678 339 690.5Q345 703 345.5 713Q346 723 346 723H428V658Q428 658 422 644.5Q416 631 399.5 615Q383 599 355 585.5Q327 572 283 572Q239 572 210.5 585.5Q182 599 166 615Q150 631 143.5 644.5Q137 658 137 658ZM43 246V274Q43 321 52 366Q61 411 83.5 445.5Q106 480 144.5 501Q183 522 242 522Q273 522 297.5 514Q322 506 339 496.5Q356 487 365 479Q374 471 373 471H377L392 518H498V0H386L370 53H366Q366 53 357.5 44Q349 35 332 24.5Q315 14 288 5Q261 -4 225 -4Q170 -4 134.5 15Q99 34 78.5 67.5Q58 101 50.5 147Q43 193 43 246ZM265 108Q290 108 309 113.5Q328 119 340.5 126Q353 133 359.5 138.5Q366 144 366 144V377Q366 377 360 382Q354 387 342.5 393Q331 399 313.5 404Q296 409 272 409Q239 409 220 396Q201 383 191.5 363Q182 343 179.5 317.5Q177 292 177 267V253Q177 226 178.5 199.5Q180 173 188 153Q196 133 214 120.5Q232 108 265 108Z" glyph-name="abreve.alt" horiz-adv-x="568" /><glyph d="M115 569V628L211 740H313L409 628V569H334L297 615Q285 629 274.5 643.5Q264 658 264 658H260Q260 658 249.5 643.5Q239 629 227 615L190 569ZM78 378V485Q78 485 90 491Q102 497 125.5 504.5Q149 512 184.5 518Q220 524 266 524Q370 524 420 482Q470 440 470 356V0H360L344 52H340Q340 52 330.5 43Q321 34 303 23Q285 12 258.5 3Q232 -6 197 -6Q111 -6 75.5 38Q40 82 40 154Q40 229 85.5 268Q131 307 224 307H340V351Q340 382 322.5 397Q305 412 258 412Q233 412 218 406.5Q203 401 195 395Q187 389 185 383.5Q183 378 183 378ZM239 99Q267 99 286.5 105.5Q306 112 317.5 120.5Q329 129 334.5 135.5Q340 142 340 142V216H237Q205 216 186.5 201Q168 186 168 159Q168 128 183.5 113.5Q199 99 239 99Z" glyph-name="acircumflex" horiz-adv-x="535" unicode="&#226;" /><glyph d="M136 569V628L232 740H334L430 628V569H355L318 615Q306 629 295.5 643.5Q285 658 285 658H281Q281 658 270.5 643.5Q260 629 248 615L211 569ZM43 246V274Q43 321 52 366Q61 411 83.5 445.5Q106 480 144.5 501Q183 522 242 522Q273 522 297.5 514Q322 506 339 496.5Q356 487 365 479Q374 471 373 471H377L392 518H498V0H386L370 53H366Q366 53 357.5 44Q349 35 332 24.5Q315 14 288 5Q261 -4 225 -4Q170 -4 134.5 15Q99 34 78.5 67.5Q58 101 50.5 147Q43 193 43 246ZM265 108Q290 108 309 113.5Q328 119 340.5 126Q353 133 359.5 138.5Q366 144 366 144V377Q366 377 360 382Q354 387 342.5 393Q331 399 313.5 404Q296 409 272 409Q239 409 220 396Q201 383 191.5 363Q182 343 179.5 317.5Q177 292 177 267V253Q177 226 178.5 199.5Q180 173 188 153Q196 133 214 120.5Q232 108 265 108Z" glyph-name="acircumflex.alt" horiz-adv-x="568" /><glyph d="M114 740H227V684L140 571H30Z" glyph-name="acute" horiz-adv-x="257" unicode="&#180;" /><glyph d="M114 740H227V684L140 571H30Z" glyph-name="acutecomb" horiz-adv-x="257" unicode="&#769;" /><glyph d="M265 912V824L40 715V813L183 912Z" glyph-name="acutecomb.case" horiz-adv-x="305" /><glyph d="M105 651Q105 681 123 699Q141 717 176 717Q213 717 230 698Q247 679 247 651V642Q247 612 229 594Q211 576 176 576Q139 576 122 595Q105 614 105 642ZM277 651Q277 681 295 699Q313 717 348 717Q385 717 402 698Q419 679 419 651V642Q419 612 401 594Q383 576 348 576Q311 576 294 595Q277 614 277 642ZM78 378V485Q78 485 90 491Q102 497 125.5 504.5Q149 512 184.5 518Q220 524 266 524Q370 524 420 482Q470 440 470 356V0H360L344 52H340Q340 52 330.5 43Q321 34 303 23Q285 12 258.5 3Q232 -6 197 -6Q111 -6 75.5 38Q40 82 40 154Q40 229 85.5 268Q131 307 224 307H340V351Q340 382 322.5 397Q305 412 258 412Q233 412 218 406.5Q203 401 195 395Q187 389 185 383.5Q183 378 183 378ZM239 99Q267 99 286.5 105.5Q306 112 317.5 120.5Q329 129 334.5 135.5Q340 142 340 142V216H237Q205 216 186.5 201Q168 186 168 159Q168 128 183.5 113.5Q199 99 239 99Z" glyph-name="adieresis" horiz-adv-x="535" unicode="&#228;" /><glyph d="M126 651Q126 681 144 699Q162 717 197 717Q234 717 251 698Q268 679 268 651V642Q268 612 250 594Q232 576 197 576Q160 576 143 595Q126 614 126 642ZM298 651Q298 681 316 699Q334 717 369 717Q406 717 423 698Q440 679 440 651V642Q440 612 422 594Q404 576 369 576Q332 576 315 595Q298 614 298 642ZM43 246V274Q43 321 52 366Q61 411 83.5 445.5Q106 480 144.5 501Q183 522 242 522Q273 522 297.5 514Q322 506 339 496.5Q356 487 365 479Q374 471 373 471H377L392 518H498V0H386L370 53H366Q366 53 357.5 44Q349 35 332 24.5Q315 14 288 5Q261 -4 225 -4Q170 -4 134.5 15Q99 34 78.5 67.5Q58 101 50.5 147Q43 193 43 246ZM265 108Q290 108 309 113.5Q328 119 340.5 126Q353 133 359.5 138.5Q366 144 366 144V377Q366 377 360 382Q354 387 342.5 393Q331 399 313.5 404Q296 409 272 409Q239 409 220 396Q201 383 191.5 363Q182 343 179.5 317.5Q177 292 177 267V253Q177 226 178.5 199.5Q180 173 188 153Q196 133 214 120.5Q232 108 265 108Z" glyph-name="adieresis.alt" horiz-adv-x="568" /><glyph d="M78 375V482Q78 482 90 488.5Q102 495 125.5 503Q149 511 184 517.5Q219 524 263 524Q313 524 350.5 513Q388 502 413 475Q442 500 480.5 513.5Q519 527 565 527Q613 527 654 515Q695 503 724 476.5Q753 450 770 405.5Q787 361 787 297Q787 261 784.5 237.5Q782 214 782 214H472V203Q472 158 497.5 131Q523 104 574 103Q600 102 618 107Q636 112 646.5 118Q657 124 661.5 129.5Q666 135 666 135H767V32Q767 32 754 25.5Q741 19 716.5 11.5Q692 4 656.5 -2.5Q621 -9 577 -9Q517 -9 470 9.5Q423 28 393 64Q390 61 377 49.5Q364 38 341 25.5Q318 13 285.5 3.5Q253 -6 212 -6Q124 -6 82 39Q40 84 40 155Q40 230 87 268.5Q134 307 227 307H340Q341 311 341 315.5Q341 320 342 324V347Q342 378 320.5 395Q299 412 252 412Q229 412 215.5 406Q202 400 195 393.5Q188 387 186 381Q184 375 184 375ZM472 315V307H655Q655 307 655.5 313.5Q656 320 656 327Q656 376 631.5 398Q607 420 564 420Q520 420 496 393Q472 366 472 315ZM239 97Q279 97 307 111.5Q335 126 352 143Q348 159 344.5 177Q341 195 340 214H237Q205 214 186.5 199Q168 184 168 157Q168 129 184.5 113Q201 97 239 97Z" glyph-name="ae" horiz-adv-x="827" unicode="&#230;" /><glyph d="M427 740H540V684L453 571H343ZM78 375V482Q78 482 90 488.5Q102 495 125.5 503Q149 511 184 517.5Q219 524 263 524Q313 524 350.5 513Q388 502 413 475Q442 500 480.5 513.5Q519 527 565 527Q613 527 654 515Q695 503 724 476.5Q753 450 770 405.5Q787 361 787 297Q787 261 784.5 237.5Q782 214 782 214H472V203Q472 158 497.5 131Q523 104 574 103Q600 102 618 107Q636 112 646.5 118Q657 124 661.5 129.5Q666 135 666 135H767V32Q767 32 754 25.5Q741 19 716.5 11.5Q692 4 656.5 -2.5Q621 -9 577 -9Q517 -9 470 9.5Q423 28 393 64Q390 61 377 49.5Q364 38 341 25.5Q318 13 285.5 3.5Q253 -6 212 -6Q124 -6 82 39Q40 84 40 155Q40 230 87 268.5Q134 307 227 307H340Q341 311 341 315.5Q341 320 342 324V347Q342 378 320.5 395Q299 412 252 412Q229 412 215.5 406Q202 400 195 393.5Q188 387 186 381Q184 375 184 375ZM472 315V307H655Q655 307 655.5 313.5Q656 320 656 327Q656 376 631.5 398Q607 420 564 420Q520 420 496 393Q472 366 472 315ZM239 97Q279 97 307 111.5Q335 126 352 143Q348 159 344.5 177Q341 195 340 214H237Q205 214 186.5 199Q168 184 168 157Q168 129 184.5 113Q201 97 239 97Z" glyph-name="aeacute" horiz-adv-x="827" unicode="&#509;" /><glyph d="M245 740 329 571H219L132 684V740ZM78 378V485Q78 485 90 491Q102 497 125.5 504.5Q149 512 184.5 518Q220 524 266 524Q370 524 420 482Q470 440 470 356V0H360L344 52H340Q340 52 330.5 43Q321 34 303 23Q285 12 258.5 3Q232 -6 197 -6Q111 -6 75.5 38Q40 82 40 154Q40 229 85.5 268Q131 307 224 307H340V351Q340 382 322.5 397Q305 412 258 412Q233 412 218 406.5Q203 401 195 395Q187 389 185 383.5Q183 378 183 378ZM239 99Q267 99 286.5 105.5Q306 112 317.5 120.5Q329 129 334.5 135.5Q340 142 340 142V216H237Q205 216 186.5 201Q168 186 168 159Q168 128 183.5 113.5Q199 99 239 99Z" glyph-name="agrave" horiz-adv-x="535" unicode="&#224;" /><glyph d="M271 740 355 571H245L158 684V740ZM43 246V274Q43 321 52 366Q61 411 83.5 445.5Q106 480 144.5 501Q183 522 242 522Q273 522 297.5 514Q322 506 339 496.5Q356 487 365 479Q374 471 373 471H377L392 518H498V0H386L370 53H366Q366 53 357.5 44Q349 35 332 24.5Q315 14 288 5Q261 -4 225 -4Q170 -4 134.5 15Q99 34 78.5 67.5Q58 101 50.5 147Q43 193 43 246ZM265 108Q290 108 309 113.5Q328 119 340.5 126Q353 133 359.5 138.5Q366 144 366 144V377Q366 377 360 382Q354 387 342.5 393Q331 399 313.5 404Q296 409 272 409Q239 409 220 396Q201 383 191.5 363Q182 343 179.5 317.5Q177 292 177 267V253Q177 226 178.5 199.5Q180 173 188 153Q196 133 214 120.5Q232 108 265 108Z" glyph-name="agrave.alt" horiz-adv-x="568" /><glyph d="M112 707H411V611H112ZM78 378V485Q78 485 90 491Q102 497 125.5 504.5Q149 512 184.5 518Q220 524 266 524Q370 524 420 482Q470 440 470 356V0H360L344 52H340Q340 52 330.5 43Q321 34 303 23Q285 12 258.5 3Q232 -6 197 -6Q111 -6 75.5 38Q40 82 40 154Q40 229 85.5 268Q131 307 224 307H340V351Q340 382 322.5 397Q305 412 258 412Q233 412 218 406.5Q203 401 195 395Q187 389 185 383.5Q183 378 183 378ZM239 99Q267 99 286.5 105.5Q306 112 317.5 120.5Q329 129 334.5 135.5Q340 142 340 142V216H237Q205 216 186.5 201Q168 186 168 159Q168 128 183.5 113.5Q199 99 239 99Z" glyph-name="amacron" horiz-adv-x="535" unicode="&#257;" /><glyph d="M133 707H432V611H133ZM43 246V274Q43 321 52 366Q61 411 83.5 445.5Q106 480 144.5 501Q183 522 242 522Q273 522 297.5 514Q322 506 339 496.5Q356 487 365 479Q374 471 373 471H377L392 518H498V0H386L370 53H366Q366 53 357.5 44Q349 35 332 24.5Q315 14 288 5Q261 -4 225 -4Q170 -4 134.5 15Q99 34 78.5 67.5Q58 101 50.5 147Q43 193 43 246ZM265 108Q290 108 309 113.5Q328 119 340.5 126Q353 133 359.5 138.5Q366 144 366 144V377Q366 377 360 382Q354 387 342.5 393Q331 399 313.5 404Q296 409 272 409Q239 409 220 396Q201 383 191.5 363Q182 343 179.5 317.5Q177 292 177 267V253Q177 226 178.5 199.5Q180 173 188 153Q196 133 214 120.5Q232 108 265 108Z" glyph-name="amacron.alt" horiz-adv-x="568" /><glyph d="M45 183Q45 246 73.5 288Q102 330 149 358Q121 397 108.5 434.5Q96 472 96 511Q96 598 149 644Q202 690 301 690Q400 690 453.5 645Q507 600 507 516Q507 445 466 403.5Q425 362 344 328L443 226Q444 235 444.5 244.5Q445 254 445 264V335H560V264Q560 227 554 193Q548 159 536 130L586 79V0H496L460 36Q428 14 384.5 2Q341 -10 285 -10Q158 -10 101.5 40.5Q45 91 45 183ZM224 511Q224 486 233 463.5Q242 441 265 412L287 421Q341 444 360 463Q379 482 379 513Q379 550 356.5 565.5Q334 581 301 581Q266 581 245 564Q224 547 224 511ZM175 194Q175 147 204.5 123.5Q234 100 287 100Q315 100 338 104Q361 108 379 118L224 274Q196 255 185.5 234Q175 213 175 194Z" glyph-name="ampersand" horiz-adv-x="619" unicode="&amp;" /><glyph d="M78 378V485Q78 485 90 491Q102 497 125.5 504.5Q149 512 184.5 518Q220 524 266 524Q370 524 420 482Q470 440 470 356V0L446 -19Q424 -36 412.5 -49Q401 -62 401 -75Q401 -89 411 -96.5Q421 -104 437 -104H455V-181H414Q366 -181 336 -156Q306 -131 306 -85Q306 -57 320.5 -34Q335 -11 357 9L344 52H340Q340 52 330.5 43Q321 34 303 23Q285 12 258.5 3Q232 -6 197 -6Q111 -6 75.5 38Q40 82 40 154Q40 229 85.5 268Q131 307 224 307H340V351Q340 382 322.5 397Q305 412 258 412Q233 412 218 406.5Q203 401 195 395Q187 389 185 383.5Q183 378 183 378ZM239 99Q267 99 286.5 105.5Q306 112 317.5 120.5Q329 129 334.5 135.5Q340 142 340 142V216H237Q205 216 186.5 201Q168 186 168 159Q168 128 183.5 113.5Q199 99 239 99Z" glyph-name="aogonek" horiz-adv-x="535" unicode="&#261;" /><glyph d="M43 246V274Q43 321 52 366Q61 411 83.5 445.5Q106 480 144.5 501Q183 522 242 522Q273 522 297.5 514Q322 506 339 496.5Q356 487 365 479Q374 471 373 471H377L392 518H498V0L474 -19Q452 -36 440.5 -49Q429 -62 429 -75Q429 -89 439 -96.5Q449 -104 465 -104H483V-181H442Q394 -181 364 -156Q334 -131 334 -85Q334 -57 348 -34.5Q362 -12 384 7L370 53H366Q366 53 357.5 44Q349 35 332 24.5Q315 14 288 5Q261 -4 225 -4Q170 -4 134.5 15Q99 34 78.5 67.5Q58 101 50.5 147Q43 193 43 246ZM265 108Q290 108 309 113.5Q328 119 340.5 126Q353 133 359.5 138.5Q366 144 366 144V377Q366 377 360 382Q354 387 342.5 393Q331 399 313.5 404Q296 409 272 409Q239 409 220 396Q201 383 191.5 363Q182 343 179.5 317.5Q177 292 177 267V253Q177 226 178.5 199.5Q180 173 188 153Q196 133 214 120.5Q232 108 265 108Z" glyph-name="aogonek.alt" horiz-adv-x="568" /><glyph d="M147 670Q147 722 179 752.5Q211 783 262 783Q313 783 345 752.5Q377 722 377 670Q377 618 345 587.5Q313 557 262 557Q211 557 179 587.5Q147 618 147 670ZM223 670Q223 653 232.5 641.5Q242 630 262 630Q282 630 291.5 641.5Q301 653 301 670Q301 687 291.5 698.5Q282 710 262 710Q242 710 232.5 698.5Q223 687 223 670ZM78 378V485Q78 485 90 491Q102 497 125.5 504.5Q149 512 184.5 518Q220 524 266 524Q370 524 420 482Q470 440 470 356V0H360L344 52H340Q340 52 330.5 43Q321 34 303 23Q285 12 258.5 3Q232 -6 197 -6Q111 -6 75.5 38Q40 82 40 154Q40 229 85.5 268Q131 307 224 307H340V351Q340 382 322.5 397Q305 412 258 412Q233 412 218 406.5Q203 401 195 395Q187 389 185 383.5Q183 378 183 378ZM239 99Q267 99 286.5 105.5Q306 112 317.5 120.5Q329 129 334.5 135.5Q340 142 340 142V216H237Q205 216 186.5 201Q168 186 168 159Q168 128 183.5 113.5Q199 99 239 99Z" glyph-name="aring" horiz-adv-x="535" unicode="&#229;" /><glyph d="M168 670Q168 722 200 752.5Q232 783 283 783Q334 783 366 752.5Q398 722 398 670Q398 618 366 587.5Q334 557 283 557Q232 557 200 587.5Q168 618 168 670ZM244 670Q244 653 253.5 641.5Q263 630 283 630Q303 630 312.5 641.5Q322 653 322 670Q322 687 312.5 698.5Q303 710 283 710Q263 710 253.5 698.5Q244 687 244 670ZM43 246V274Q43 321 52 366Q61 411 83.5 445.5Q106 480 144.5 501Q183 522 242 522Q273 522 297.5 514Q322 506 339 496.5Q356 487 365 479Q374 471 373 471H377L392 518H498V0H386L370 53H366Q366 53 357.5 44Q349 35 332 24.5Q315 14 288 5Q261 -4 225 -4Q170 -4 134.5 15Q99 34 78.5 67.5Q58 101 50.5 147Q43 193 43 246ZM265 108Q290 108 309 113.5Q328 119 340.5 126Q353 133 359.5 138.5Q366 144 366 144V377Q366 377 360 382Q354 387 342.5 393Q331 399 313.5 404Q296 409 272 409Q239 409 220 396Q201 383 191.5 363Q182 343 179.5 317.5Q177 292 177 267V253Q177 226 178.5 199.5Q180 173 188 153Q196 133 214 120.5Q232 108 265 108Z" glyph-name="aring.alt" horiz-adv-x="568" /><glyph d="M380 957V869L155 760V858L298 957ZM147 660Q147 712 179 742.5Q211 773 262 773Q313 773 345 742.5Q377 712 377 660Q377 608 345 577.5Q313 547 262 547Q211 547 179 577.5Q147 608 147 660ZM223 660Q223 643 232.5 631.5Q242 620 262 620Q282 620 291.5 631.5Q301 643 301 660Q301 677 291.5 688.5Q282 700 262 700Q242 700 232.5 688.5Q223 677 223 660ZM78 378V485Q78 485 90 491Q102 497 125.5 504.5Q149 512 184.5 518Q220 524 266 524Q370 524 420 482Q470 440 470 356V0H360L344 52H340Q340 52 330.5 43Q321 34 303 23Q285 12 258.5 3Q232 -6 197 -6Q111 -6 75.5 38Q40 82 40 154Q40 229 85.5 268Q131 307 224 307H340V351Q340 382 322.5 397Q305 412 258 412Q233 412 218 406.5Q203 401 195 395Q187 389 185 383.5Q183 378 183 378ZM239 99Q267 99 286.5 105.5Q306 112 317.5 120.5Q329 129 334.5 135.5Q340 142 340 142V216H237Q205 216 186.5 201Q168 186 168 159Q168 128 183.5 113.5Q199 99 239 99Z" glyph-name="aringacute" horiz-adv-x="535" unicode="&#507;" /><glyph d="M249 680H351L533 268V199H420L340 399Q335 411 328.5 428Q322 445 316 460.5Q310 476 306 487Q302 498 302 498H298Q298 498 294 487Q290 476 284 460.5Q278 445 271.5 428Q265 411 260 399L181 199H67V268Z" glyph-name="asciicircum" horiz-adv-x="600" unicode="^" /><glyph d="M31 212V301Q31 301 40 314.5Q49 328 68 344Q87 360 115.5 373.5Q144 387 183 387Q211 387 237.5 381.5Q264 376 286 367L313 356Q335 347 359 340Q383 333 402 333Q424 333 438 341Q452 349 459.5 358.5Q467 368 469.5 376Q472 384 472 384H568V295Q568 295 559 281.5Q550 268 531 252Q512 236 483.5 222.5Q455 209 416 209Q388 209 361.5 214.5Q335 220 313 229L286 240Q264 249 240 256Q216 263 197 263Q175 263 161 255Q147 247 139.5 237.5Q132 228 129.5 220Q127 212 127 212Z" glyph-name="asciitilde" horiz-adv-x="600" unicode="~" /><glyph d="M169 711H254V667Q254 654 253 639Q252 624 251 611.5Q250 599 249 590.5Q248 582 248 582L249 581Q249 581 273.5 598.5Q298 616 320 629L358 651L401 577L363 555Q340 542 313 530Q286 518 286 518V516Q286 516 313 504Q340 492 363 479L401 457L358 383L320 405Q298 418 273.5 435.5Q249 453 249 453L248 452Q248 452 249 443.5Q250 435 251 422.5Q252 410 253 395Q254 380 254 367V323H169V367Q169 380 170 395Q171 410 172 422.5Q173 435 174 443.5Q175 452 175 452L174 453Q174 453 149.5 435.5Q125 418 103 405L65 383L22 457L60 479Q83 492 110 504Q137 516 137 516V518Q137 518 110 530Q83 542 60 555L22 577L65 651L103 629Q125 616 149.5 598.5Q174 581 174 581L175 582Q175 582 174 590.5Q173 599 172 611.5Q171 624 170 639Q169 654 169 667Z" glyph-name="asterisk" horiz-adv-x="423" unicode="*" /><glyph d="M744 -10V-86Q744 -86 727 -97Q710 -108 675 -121Q640 -134 586.5 -145Q533 -156 460 -156Q266 -156 166 -55.5Q66 45 66 232V285Q66 464 168.5 563.5Q271 663 468 663Q664 663 761.5 569Q859 475 859 300V289Q859 169 810 115Q761 61 680 61Q641 61 615 70Q589 79 574.5 89.5Q560 100 554 109Q548 118 548 118H544Q544 118 536 109Q528 100 512.5 89.5Q497 79 475 70Q453 61 425 61Q349 61 316 108.5Q283 156 283 246V270Q283 361 321 408.5Q359 456 425 456Q452 456 472 449Q492 442 504.5 433Q517 424 523.5 417Q530 410 530 410H534L549 448H632V233Q632 201 640.5 177Q649 153 686 153Q716 153 731.5 175.5Q747 198 747 269V299Q747 433 681 497.5Q615 562 468 562Q328 562 253 497.5Q178 433 178 285V232Q178 82 255 13.5Q332 -55 460 -55Q520 -55 560 -48Q600 -41 623 -32.5Q646 -24 655.5 -17Q665 -10 665 -10ZM395 246Q395 198 409.5 178Q424 158 455 158Q473 158 485.5 163Q498 168 506.5 174Q515 180 518.5 185Q522 190 522 190V329Q522 329 518 334Q514 339 506 345Q498 351 485 356Q472 361 455 361Q424 361 409.5 338.5Q395 316 395 270Z" glyph-name="at" horiz-adv-x="925" unicode="@" /><glyph d="M744 55V-21Q744 -21 727 -32Q710 -43 675 -56Q640 -69 586.5 -80Q533 -91 460 -91Q266 -91 166 9.5Q66 110 66 297V350Q66 529 168.5 628.5Q271 728 468 728Q664 728 761.5 634Q859 540 859 365V354Q859 234 810 180Q761 126 680 126Q641 126 615 135Q589 144 574.5 154.5Q560 165 554 174Q548 183 548 183H544Q544 183 536 174Q528 165 512.5 154.5Q497 144 475 135Q453 126 425 126Q349 126 316 173.5Q283 221 283 311V335Q283 426 321 473.5Q359 521 425 521Q452 521 472 514Q492 507 504.5 498Q517 489 523.5 482Q530 475 530 475H534L549 513H632V298Q632 266 640.5 242Q649 218 686 218Q716 218 731.5 240.5Q747 263 747 334V364Q747 498 681 562.5Q615 627 468 627Q328 627 253 562.5Q178 498 178 350V297Q178 147 255 78.5Q332 10 460 10Q520 10 560 17Q600 24 623 32.5Q646 41 655.5 48Q665 55 665 55ZM395 311Q395 263 409.5 243Q424 223 455 223Q473 223 485.5 228Q498 233 506.5 239Q515 245 518.5 250Q522 255 522 255V394Q522 394 518 399Q514 404 506 410Q498 416 485 421Q472 426 455 426Q424 426 409.5 403.5Q395 381 395 335Z" glyph-name="at.case" horiz-adv-x="925" /><glyph d="M72 596V679Q72 679 78.5 686.5Q85 694 98 702.5Q111 711 132.5 718.5Q154 726 183 726Q204 726 220.5 722.5Q237 719 253 714L280 705Q293 701 303 698Q313 695 329 695Q359 695 368 709.5Q377 724 377 724H452V641Q452 641 445.5 633.5Q439 626 426 617.5Q413 609 391.5 601.5Q370 594 341 594Q320 594 303.5 597.5Q287 601 271 606L244 615Q231 619 221 622Q211 625 195 625Q165 625 156 610.5Q147 596 147 596ZM78 378V485Q78 485 90 491Q102 497 125.5 504.5Q149 512 184.5 518Q220 524 266 524Q370 524 420 482Q470 440 470 356V0H360L344 52H340Q340 52 330.5 43Q321 34 303 23Q285 12 258.5 3Q232 -6 197 -6Q111 -6 75.5 38Q40 82 40 154Q40 229 85.5 268Q131 307 224 307H340V351Q340 382 322.5 397Q305 412 258 412Q233 412 218 406.5Q203 401 195 395Q187 389 185 383.5Q183 378 183 378ZM239 99Q267 99 286.5 105.5Q306 112 317.5 120.5Q329 129 334.5 135.5Q340 142 340 142V216H237Q205 216 186.5 201Q168 186 168 159Q168 128 183.5 113.5Q199 99 239 99Z" glyph-name="atilde" horiz-adv-x="535" unicode="&#227;" /><glyph d="M93 596V679Q93 679 99.5 686.5Q106 694 119 702.5Q132 711 153.5 718.5Q175 726 204 726Q225 726 241.5 722.5Q258 719 274 714L301 705Q314 701 324 698Q334 695 350 695Q380 695 389 709.5Q398 724 398 724H473V641Q473 641 466.5 633.5Q460 626 447 617.5Q434 609 412.5 601.5Q391 594 362 594Q341 594 324.5 597.5Q308 601 292 606L265 615Q252 619 242 622Q232 625 216 625Q186 625 177 610.5Q168 596 168 596ZM43 246V274Q43 321 52 366Q61 411 83.5 445.5Q106 480 144.5 501Q183 522 242 522Q273 522 297.5 514Q322 506 339 496.5Q356 487 365 479Q374 471 373 471H377L392 518H498V0H386L370 53H366Q366 53 357.5 44Q349 35 332 24.5Q315 14 288 5Q261 -4 225 -4Q170 -4 134.5 15Q99 34 78.5 67.5Q58 101 50.5 147Q43 193 43 246ZM265 108Q290 108 309 113.5Q328 119 340.5 126Q353 133 359.5 138.5Q366 144 366 144V377Q366 377 360 382Q354 387 342.5 393Q331 399 313.5 404Q296 409 272 409Q239 409 220 396Q201 383 191.5 363Q182 343 179.5 317.5Q177 292 177 267V253Q177 226 178.5 199.5Q180 173 188 153Q196 133 214 120.5Q232 108 265 108Z" glyph-name="atilde.alt" horiz-adv-x="568" /><glyph d="M343 522Q398 522 433.5 503Q469 484 489.5 451Q510 418 517.5 372Q525 326 525 273V245Q525 197 516 152Q507 107 485 72.5Q463 38 425 17Q387 -4 330 -4Q296 -4 271 4.5Q246 13 229 23Q212 33 203.5 41.5Q195 50 195 50H191L176 0H70V740H202V558Q202 543 201.5 526.5Q201 510 200 496Q199 482 198.5 473Q198 464 198 464H202Q202 464 210.5 473Q219 482 236 493Q253 504 280 513Q307 522 343 522ZM202 143Q202 143 207.5 137.5Q213 132 224.5 126Q236 120 253.5 114.5Q271 109 295 109Q328 109 347 121.5Q366 134 376 154Q386 174 388.5 200Q391 226 391 252V266Q391 292 389.5 318Q388 344 380 364.5Q372 385 354 397.5Q336 410 303 410Q278 410 259 404Q240 398 227.5 391.5Q215 385 208.5 379Q202 373 202 373Z" glyph-name="b" horiz-adv-x="568" unicode="b" /><glyph d="M115 680 370 84V0H266L11 596V680Z" glyph-name="backslash" horiz-adv-x="381" unicode="\" /><glyph d="M66 818H188V-138H66Z" glyph-name="bar" horiz-adv-x="254" unicode="|" /><glyph d="M22 218V332Q62 332 78.5 349Q95 366 95 400V569Q95 615 107 645Q119 675 133 692Q147 709 159 716Q171 723 171 723H274V625Q274 625 265.5 624.5Q257 624 246.5 617.5Q236 611 227.5 595Q219 579 219 549V387Q219 345 204 318.5Q189 292 158 277V273Q189 258 204 231.5Q219 205 219 163V1Q219 -29 227.5 -45Q236 -61 246.5 -67.5Q257 -74 265.5 -74.5Q274 -75 274 -75V-173H171Q171 -173 159 -166Q147 -159 133 -142Q119 -125 107 -95Q95 -65 95 -19V150Q95 184 78.5 201Q62 218 22 218Z" glyph-name="braceleft" horiz-adv-x="284" unicode="{" /><glyph d="M22 283V397Q62 397 78.5 414Q95 431 95 465V634Q95 680 107 710Q119 740 133 757Q147 774 159 781Q171 788 171 788H274V690Q274 690 265.5 689.5Q257 689 246.5 682.5Q236 676 227.5 660Q219 644 219 614V452Q219 410 204 383.5Q189 357 158 342V338Q189 323 204 296.5Q219 270 219 228V66Q219 36 227.5 20Q236 4 246.5 -2.5Q257 -9 265.5 -9.5Q274 -10 274 -10V-108H171Q171 -108 159 -101Q147 -94 133 -77Q119 -60 107 -30Q95 0 95 46V215Q95 249 78.5 266Q62 283 22 283Z" glyph-name="braceleft.case" horiz-adv-x="284" /><glyph d="M262 218Q222 218 205.5 201Q189 184 189 150V-19Q189 -65 177 -95Q165 -125 151 -142Q137 -159 125 -166Q113 -173 113 -173H10V-75Q10 -75 18.5 -74.5Q27 -74 37.5 -67.5Q48 -61 56.5 -45Q65 -29 65 1V163Q65 205 80 231.5Q95 258 126 273V277Q95 292 80 318.5Q65 345 65 387V549Q65 579 56.5 595Q48 611 37.5 617.5Q27 624 18.5 624.5Q10 625 10 625V723H113Q113 723 125 716Q137 709 151 692Q165 675 177 645Q189 615 189 569V400Q189 366 205.5 349Q222 332 262 332Z" glyph-name="braceright" horiz-adv-x="284" unicode="}" /><glyph d="M262 283Q222 283 205.5 266Q189 249 189 215V46Q189 0 177 -30Q165 -60 151 -77Q137 -94 125 -101Q113 -108 113 -108H10V-10Q10 -10 18.5 -9.5Q27 -9 37.5 -2.5Q48 4 56.5 20Q65 36 65 66V228Q65 270 80 296.5Q95 323 126 338V342Q95 357 80 383.5Q65 410 65 452V614Q65 644 56.5 660Q48 676 37.5 682.5Q27 689 18.5 689.5Q10 690 10 690V788H113Q113 788 125 781Q137 774 151 757Q165 740 177 710Q189 680 189 634V465Q189 431 205.5 414Q222 397 262 397Z" glyph-name="braceright.case" horiz-adv-x="284" /><glyph d="M66 723H291V608H197V-58H291V-173H66Z" glyph-name="bracketleft" horiz-adv-x="301" unicode="[" /><glyph d="M66 788H291V673H197V7H291V-108H66Z" glyph-name="bracketleft.case" horiz-adv-x="301" /><glyph d="M235 723V-173H10V-58H104V608H10V723Z" glyph-name="bracketright" horiz-adv-x="301" unicode="]" /><glyph d="M235 788V-108H10V7H104V673H10V788Z" glyph-name="bracketright.case" horiz-adv-x="301" /><glyph d="M25 723H108Q108 723 108.5 713Q109 703 115 690.5Q121 678 134 668Q147 658 171 658Q195 658 208 668Q221 678 227 690.5Q233 703 233.5 713Q234 723 234 723H316V658Q316 658 310 644.5Q304 631 287.5 615Q271 599 243 585.5Q215 572 171 572Q127 572 98.5 585.5Q70 599 54 615Q38 631 31.5 644.5Q25 658 25 658Z" glyph-name="breve" horiz-adv-x="342" unicode="&#728;" /><glyph d="M66 820H188V422H66ZM66 260H188V-138H66Z" glyph-name="brokenbar" horiz-adv-x="254" unicode="&#166;" /><glyph d="M65 256Q65 325 104.5 367Q144 409 214 408Q284 407 323.5 366Q363 325 363 256Q363 187 323.5 146Q284 105 214 105Q144 105 104.5 146Q65 187 65 256Z" glyph-name="bullet" horiz-adv-x="428" unicode="&#8226;" /><glyph d="M43 244V273Q43 404 105 463.5Q167 523 271 523Q314 523 345.5 517Q377 511 398 504Q419 497 429.5 491Q440 485 440 485V373H335Q335 374 332 380.5Q329 387 321.5 393.5Q314 400 301 405.5Q288 411 268 411Q223 411 200 382Q177 353 177 271V246Q177 164 200 135Q223 106 268 106Q288 106 301 111.5Q314 117 321.5 123.5Q329 130 332 136.5Q335 143 335 144H440V32Q440 32 429.5 26Q419 20 398 13Q377 6 345.5 0Q314 -6 271 -6Q167 -6 105 53.5Q43 113 43 244Z" glyph-name="c" horiz-adv-x="478" unicode="c" /><glyph d="M267 740H380V684L293 571H183ZM43 244V273Q43 404 105 463.5Q167 523 271 523Q314 523 345.5 517Q377 511 398 504Q419 497 429.5 491Q440 485 440 485V373H335Q335 374 332 380.5Q329 387 321.5 393.5Q314 400 301 405.5Q288 411 268 411Q223 411 200 382Q177 353 177 271V246Q177 164 200 135Q223 106 268 106Q288 106 301 111.5Q314 117 321.5 123.5Q329 130 332 136.5Q335 143 335 144H440V32Q440 32 429.5 26Q419 20 398 13Q377 6 345.5 0Q314 -6 271 -6Q167 -6 105 53.5Q43 113 43 244Z" glyph-name="cacute" horiz-adv-x="478" unicode="&#263;" /><glyph d="M324 740V681L228 569H126L30 681V740H105L142 694Q154 680 164.5 665.5Q175 651 175 651H179Q179 651 189.5 665.5Q200 680 212 694L249 740Z" glyph-name="caron" horiz-adv-x="354" unicode="&#711;" /><glyph d="M51 550Q51 550 55 565.5Q59 581 64 607Q69 633 73 667.5Q77 702 77 740H211V689Q192 618 174 584Q156 550 156 550Z" glyph-name="caroncomb.alt" horiz-adv-x="279" /><glyph d="M414 740V681L318 569H216L120 681V740H195L232 694Q244 680 254.5 665.5Q265 651 265 651H269Q269 651 279.5 665.5Q290 680 302 694L339 740ZM43 244V273Q43 404 105 463.5Q167 523 271 523Q314 523 345.5 517Q377 511 398 504Q419 497 429.5 491Q440 485 440 485V373H335Q335 374 332 380.5Q329 387 321.5 393.5Q314 400 301 405.5Q288 411 268 411Q223 411 200 382Q177 353 177 271V246Q177 164 200 135Q223 106 268 106Q288 106 301 111.5Q314 117 321.5 123.5Q329 130 332 136.5Q335 143 335 144H440V32Q440 32 429.5 26Q419 20 398 13Q377 6 345.5 0Q314 -6 271 -6Q167 -6 105 53.5Q43 113 43 244Z" glyph-name="ccaron" horiz-adv-x="478" unicode="&#269;" /><glyph d="M43 244V273Q43 404 105 463.5Q167 523 271 523Q314 523 345.5 517Q377 511 398 504Q419 497 429.5 491Q440 485 440 485V373H335Q335 374 332 380.5Q329 387 321.5 393.5Q314 400 301 405.5Q288 411 268 411Q223 411 200 382Q177 353 177 271V246Q177 164 200 135Q223 106 268 106Q288 106 301 111.5Q314 117 321.5 123.5Q329 130 332 136.5Q335 143 335 144H440V32Q440 32 412 18Q384 4 328 -3Q328 -38 319 -66Q310 -94 300 -113.5Q290 -133 281.5 -143.5Q273 -154 273 -154H184V-87Q184 -87 189.5 -81.5Q195 -76 202 -65.5Q209 -55 214.5 -39Q220 -23 220 -2Q139 11 91 71Q43 131 43 244Z" glyph-name="ccedilla" horiz-adv-x="478" unicode="&#231;" /><glyph d="M120 569V628L216 740H318L414 628V569H339L302 615Q290 629 279.5 643.5Q269 658 269 658H265Q265 658 254.5 643.5Q244 629 232 615L195 569ZM43 244V273Q43 404 105 463.5Q167 523 271 523Q314 523 345.5 517Q377 511 398 504Q419 497 429.5 491Q440 485 440 485V373H335Q335 374 332 380.5Q329 387 321.5 393.5Q314 400 301 405.5Q288 411 268 411Q223 411 200 382Q177 353 177 271V246Q177 164 200 135Q223 106 268 106Q288 106 301 111.5Q314 117 321.5 123.5Q329 130 332 136.5Q335 143 335 144H440V32Q440 32 429.5 26Q419 20 398 13Q377 6 345.5 0Q314 -6 271 -6Q167 -6 105 53.5Q43 113 43 244Z" glyph-name="ccircumflex" horiz-adv-x="478" unicode="&#265;" /><glyph d="M191 653Q191 686 210.5 705Q230 724 267 724Q304 724 323.5 705Q343 686 343 653V643Q343 610 323.5 591Q304 572 267 572Q230 572 210.5 591Q191 610 191 643ZM43 244V273Q43 404 105 463.5Q167 523 271 523Q314 523 345.5 517Q377 511 398 504Q419 497 429.5 491Q440 485 440 485V373H335Q335 374 332 380.5Q329 387 321.5 393.5Q314 400 301 405.5Q288 411 268 411Q223 411 200 382Q177 353 177 271V246Q177 164 200 135Q223 106 268 106Q288 106 301 111.5Q314 117 321.5 123.5Q329 130 332 136.5Q335 143 335 144H440V32Q440 32 429.5 26Q419 20 398 13Q377 6 345.5 0Q314 -6 271 -6Q167 -6 105 53.5Q43 113 43 244Z" glyph-name="cdotaccent" horiz-adv-x="478" unicode="&#267;" /><glyph d="M111 -154H22V-87Q22 -87 27.5 -81.5Q33 -76 40 -65.5Q47 -55 52.5 -38.5Q58 -22 58 0V30H166V0Q166 -36 157.5 -64.5Q149 -93 138.5 -113Q128 -133 119.5 -143.5Q111 -154 111 -154Z" glyph-name="cedilla" horiz-adv-x="189" unicode="&#184;" /><glyph d="M43 244V273Q43 379 84.5 438Q126 497 198 515V647H327V520Q384 513 412 499Q440 485 440 485V373H335Q335 374 332 380.5Q329 387 321.5 393.5Q314 400 301 405.5Q288 411 268 411Q223 411 200 382Q177 353 177 271V246Q177 164 200 135Q223 106 268 106Q288 106 301 111.5Q314 117 321.5 123.5Q329 130 332 136.5Q335 143 335 144H440V32Q440 32 412 18Q384 4 327 -3V-139H198V2Q126 20 84.5 79Q43 138 43 244Z" glyph-name="cent" horiz-adv-x="478" unicode="&#162;" /><glyph d="M30 569V628L126 740H228L324 628V569H249L212 615Q200 629 189.5 643.5Q179 658 179 658H175Q175 658 164.5 643.5Q154 629 142 615L105 569Z" glyph-name="circumflex" horiz-adv-x="354" unicode="&#710;" /><glyph d="M35 424Q35 458 55.5 477.5Q76 497 113 497Q150 497 170.5 477.5Q191 458 191 424V414Q191 380 170.5 360.5Q150 341 113 341Q76 341 55.5 360.5Q35 380 35 414ZM35 78Q35 112 55.5 131.5Q76 151 113 151Q150 151 170.5 131.5Q191 112 191 78V68Q191 34 170.5 14.5Q150 -5 113 -5Q76 -5 55.5 14.5Q35 34 35 68Z" glyph-name="colon" horiz-adv-x="226" unicode=":" /><glyph d="M-5 -144Q-5 -144 3.5 -122Q12 -100 22 -61.5Q32 -23 40.5 30.5Q49 84 49 147H180V78Q170 18 155.5 -24.5Q141 -67 128 -93.5Q115 -120 106 -132Q97 -144 97 -144Z" glyph-name="comma" horiz-adv-x="226" unicode="," /><glyph d="M40 340Q40 503 124.5 596.5Q209 690 383 690Q557 690 641.5 596.5Q726 503 726 340Q726 177 641.5 83.5Q557 -10 383 -10Q208 -10 124 83.5Q40 177 40 340ZM140 340Q140 209 202 144.5Q264 80 383 80Q502 80 564 144.5Q626 209 626 340Q626 471 564 535.5Q502 600 383 600Q264 600 202 535.5Q140 471 140 340ZM236 321V363Q236 444 274 485Q312 526 386 526Q423 526 449 517.5Q475 509 490 499Q505 489 512 480.5Q519 472 519 472V403H438Q438 403 437 409Q436 415 431.5 421.5Q427 428 417 434Q407 440 388 440Q356 440 342 422.5Q328 405 328 371V313Q328 279 342 261.5Q356 244 388 244Q407 244 417 250Q427 256 431.5 262.5Q436 269 437 275Q438 281 438 281H519V212Q519 212 512 203.5Q505 195 490 185Q475 175 449 166.5Q423 158 386 158Q312 158 274 199Q236 240 236 321Z" glyph-name="copyright" horiz-adv-x="766" unicode="&#169;" /><glyph d="M54 79 130 156Q118 178 111.5 204Q105 230 105 258Q105 286 111.5 312Q118 338 130 360L54 437L128 511L205 435Q227 447 253 453.5Q279 460 307 460Q335 460 361 453.5Q387 447 409 435L486 511L560 437L484 360Q496 338 502.5 312Q509 286 509 258Q509 230 502.5 204Q496 178 484 156L560 79L486 5L409 81Q387 69 361 62.5Q335 56 307 56Q279 56 253 62.5Q227 69 205 81L128 5ZM208 258Q208 212 234.5 183Q261 154 307 154Q353 154 379.5 183Q406 212 406 258Q406 304 379.5 333Q353 362 307 362Q261 362 234.5 333Q208 304 208 258Z" glyph-name="currency" horiz-adv-x="614" unicode="&#164;" /><glyph d="M43 246V274Q43 321 52 366Q61 411 83.5 445.5Q106 480 144.5 501Q183 522 242 522Q271 522 294.5 516Q318 510 334 503Q350 496 358.5 490.5Q367 485 366 485H370Q370 485 369.5 495Q369 505 368 520Q367 535 366.5 552.5Q366 570 366 585V740H498V0H386L370 53H366Q366 53 357.5 44Q349 35 332 24.5Q315 14 288 5Q261 -4 225 -4Q170 -4 134.5 15Q99 34 78.5 67.5Q58 101 50.5 147Q43 193 43 246ZM265 108Q290 108 309 113.5Q328 119 340.5 126Q353 133 359.5 138.5Q366 144 366 144V387Q366 387 342.5 398Q319 409 272 409Q239 409 220 396.5Q201 384 191.5 364.5Q182 345 179.5 319Q177 293 177 267V253Q177 226 178.5 199.5Q180 173 188 153Q196 133 214 120.5Q232 108 265 108Z" glyph-name="d" horiz-adv-x="568" unicode="d" /><glyph d="M20 382V507H104Q128 507 155 505.5Q182 504 182 504L185 507Q185 507 183.5 534Q182 561 182 585V680H314V585Q314 561 312.5 534Q311 507 311 507L314 504Q314 504 341 505.5Q368 507 392 507H476V382H392Q368 382 341 383.5Q314 385 314 385L311 382Q311 382 312.5 355Q314 328 314 304V-101H182V304Q182 328 183.5 355Q185 382 185 382L182 385Q182 385 155 383.5Q128 382 104 382Z" glyph-name="dagger" horiz-adv-x="496" unicode="&#8224;" /><glyph d="M20 72V197H104Q128 197 155 195.5Q182 194 182 194L185 197Q185 197 183.5 224Q182 251 182 275V304Q182 328 183.5 355Q185 382 185 382L182 385Q182 385 155 383.5Q128 382 104 382H20V507H104Q128 507 155 505.5Q182 504 182 504L185 507Q185 507 183.5 534Q182 561 182 585V680H314V585Q314 561 312.5 534Q311 507 311 507L314 504Q314 504 341 505.5Q368 507 392 507H476V382H392Q368 382 341 383.5Q314 385 314 385L311 382Q311 382 312.5 355Q314 328 314 304V275Q314 251 312.5 224Q311 197 311 197L314 194Q314 194 341 195.5Q368 197 392 197H476V72H392Q368 72 341 73.5Q314 75 314 75L311 72Q311 72 312.5 45Q314 18 314 -6V-101H182V-6Q182 18 183.5 45Q185 72 185 72L182 75Q182 75 155 73.5Q128 72 104 72Z" glyph-name="daggerdbl" horiz-adv-x="496" unicode="&#8225;" /><glyph d="M43 246V274Q43 321 52 366Q61 411 83.5 445.5Q106 480 144.5 501Q183 522 242 522Q271 522 294.5 516Q318 510 334 503Q350 496 358.5 490.5Q367 485 366 485H370Q370 485 369.5 495Q369 505 368 520Q367 535 366.5 552.5Q366 570 366 585V740H498V0H386L370 53H366Q366 53 357.5 44Q349 35 332 24.5Q315 14 288 5Q261 -4 225 -4Q170 -4 134.5 15Q99 34 78.5 67.5Q58 101 50.5 147Q43 193 43 246ZM557 550Q557 550 561 565.5Q565 581 570 607Q575 633 579 667.5Q583 702 583 740H717V689Q698 618 680 584Q662 550 662 550ZM265 108Q290 108 309 113.5Q328 119 340.5 126Q353 133 359.5 138.5Q366 144 366 144V387Q366 387 342.5 398Q319 409 272 409Q239 409 220 396.5Q201 384 191.5 364.5Q182 345 179.5 319Q177 293 177 267V253Q177 226 178.5 199.5Q180 173 188 153Q196 133 214 120.5Q232 108 265 108Z" glyph-name="dcaron" horiz-adv-x="712" unicode="&#271;" /><glyph d="M43 246V274Q43 321 52 366Q61 411 83.5 445.5Q106 480 144.5 501Q183 522 242 522Q271 522 294.5 516Q318 510 334 503Q350 496 358.5 490.5Q367 485 366 485H370Q370 485 368.5 513Q367 541 366 569H238V667H366V740H498V667H550V569H498V0H386L370 53H366Q366 53 357.5 44Q349 35 332 24.5Q315 14 288 5Q261 -4 225 -4Q170 -4 134.5 15Q99 34 78.5 67.5Q58 101 50.5 147Q43 193 43 246ZM265 108Q290 108 309 113.5Q328 119 340.5 126Q353 133 359.5 138.5Q366 144 366 144V387Q366 387 342.5 398Q319 409 272 409Q239 409 220 396.5Q201 384 191.5 364.5Q182 345 179.5 319Q177 293 177 267V253Q177 226 178.5 199.5Q180 173 188 153Q196 133 214 120.5Q232 108 265 108Z" glyph-name="dcroat" horiz-adv-x="568" unicode="&#273;" /><glyph d="M32 532Q32 601 73.5 646.5Q115 692 194 692Q273 692 313.5 646.5Q354 601 354 532Q354 463 313.5 418Q273 373 194 373Q115 373 73.5 418Q32 463 32 532ZM134 532Q134 499 150.5 483.5Q167 468 193 468Q219 468 235.5 483.5Q252 499 252 532Q252 566 235.5 581.5Q219 597 193 597Q167 597 150.5 581.5Q134 566 134 532Z" glyph-name="degree" horiz-adv-x="386" unicode="&#176;" /><glyph d="M22 651Q22 681 40 699Q58 717 93 717Q130 717 147 698Q164 679 164 651V642Q164 612 146 594Q128 576 93 576Q56 576 39 595Q22 614 22 642ZM194 651Q194 681 212 699Q230 717 265 717Q302 717 319 698Q336 679 336 651V642Q336 612 318 594Q300 576 265 576Q228 576 211 595Q194 614 194 642Z" glyph-name="dieresis" horiz-adv-x="358" unicode="&#168;" /><glyph d="M222 486Q222 520 242.5 539.5Q263 559 300 559Q337 559 357.5 539.5Q378 520 378 486V476Q378 442 357.5 422.5Q337 403 300 403Q263 403 242.5 422.5Q222 442 222 476ZM60 359H540V237H60ZM222 120Q222 154 242.5 173.5Q263 193 300 193Q337 193 357.5 173.5Q378 154 378 120V110Q378 76 357.5 56.5Q337 37 300 37Q263 37 242.5 56.5Q222 76 222 110Z" glyph-name="divide" horiz-adv-x="600" unicode="&#247;" /><glyph d="M70 184H167Q167 184 170.5 178Q174 172 185.5 165.5Q197 159 218 153Q239 147 273 147Q322 147 343.5 167Q365 187 365 215Q365 238 348.5 253.5Q332 269 290 282L241 298Q163 323 123 361.5Q83 400 83 473Q83 536 120 578.5Q157 621 223 634V818H341V639Q407 632 441.5 617.5Q476 603 476 603V496H378Q378 496 375.5 502Q373 508 364 514.5Q355 521 337.5 527Q320 533 291 533Q250 533 230.5 515.5Q211 498 211 474Q211 454 223 442Q235 430 272 418L324 401Q405 374 449 336Q493 298 493 224Q493 158 457 108.5Q421 59 340 44V-138H222V41Q144 47 107 62Q70 77 70 77Z" glyph-name="dollar" horiz-adv-x="563" unicode="$" /><glyph d="M22 653Q22 686 41.5 705Q61 724 98 724Q135 724 154.5 705Q174 686 174 653V643Q174 610 154.5 591Q135 572 98 572Q61 572 41.5 591Q22 610 22 643Z" glyph-name="dotaccent" horiz-adv-x="196" unicode="&#729;" /><glyph d="M22 -137Q22 -104 41.5 -85Q61 -66 98 -66Q135 -66 154.5 -85Q174 -104 174 -137V-147Q174 -180 154.5 -199Q135 -218 98 -218Q61 -218 41.5 -199Q22 -180 22 -147Z" glyph-name="dotbelowcomb" horiz-adv-x="196" unicode="&#803;" /><glyph d="M202 0H70V518H202Z" glyph-name="dotlessi" horiz-adv-x="272" unicode="&#305;" /><glyph d="M219 518V0H87V408L22 418V518Z" glyph-name="dotlessi.alt" horiz-adv-x="289" /><glyph d="M43 245V273Q43 398 105 462.5Q167 527 269 527Q317 527 358 515Q399 503 428 476.5Q457 450 474 405.5Q491 361 491 297Q491 261 488.5 237.5Q486 214 486 214H176V203Q176 158 201.5 131Q227 104 278 103Q304 102 322 107Q340 112 350.5 118Q361 124 365.5 129.5Q370 135 370 135H471V32Q471 32 458 25.5Q445 19 420.5 11.5Q396 4 360.5 -2.5Q325 -9 281 -9Q167 -9 105 55.5Q43 120 43 245ZM176 315V307H359Q359 307 359.5 313.5Q360 320 360 327Q360 376 335.5 398Q311 420 268 420Q224 420 200 393Q176 366 176 315Z" glyph-name="e" horiz-adv-x="531" unicode="e" /><glyph d="M287 740H400V684L313 571H203ZM43 245V273Q43 398 105 462.5Q167 527 269 527Q317 527 358 515Q399 503 428 476.5Q457 450 474 405.5Q491 361 491 297Q491 261 488.5 237.5Q486 214 486 214H176V203Q176 158 201.5 131Q227 104 278 103Q304 102 322 107Q340 112 350.5 118Q361 124 365.5 129.5Q370 135 370 135H471V32Q471 32 458 25.5Q445 19 420.5 11.5Q396 4 360.5 -2.5Q325 -9 281 -9Q167 -9 105 55.5Q43 120 43 245ZM176 315V307H359Q359 307 359.5 313.5Q360 320 360 327Q360 376 335.5 398Q311 420 268 420Q224 420 200 393Q176 366 176 315Z" glyph-name="eacute" horiz-adv-x="531" unicode="&#233;" /><glyph d="M122 723H205Q205 723 205.5 713Q206 703 212 690.5Q218 678 231 668Q244 658 268 658Q292 658 305 668Q318 678 324 690.5Q330 703 330.5 713Q331 723 331 723H413V658Q413 658 407 644.5Q401 631 384.5 615Q368 599 340 585.5Q312 572 268 572Q224 572 195.5 585.5Q167 599 151 615Q135 631 128.5 644.5Q122 658 122 658ZM43 245V273Q43 398 105 462.5Q167 527 269 527Q317 527 358 515Q399 503 428 476.5Q457 450 474 405.5Q491 361 491 297Q491 261 488.5 237.5Q486 214 486 214H176V203Q176 158 201.5 131Q227 104 278 103Q304 102 322 107Q340 112 350.5 118Q361 124 365.5 129.5Q370 135 370 135H471V32Q471 32 458 25.5Q445 19 420.5 11.5Q396 4 360.5 -2.5Q325 -9 281 -9Q167 -9 105 55.5Q43 120 43 245ZM176 315V307H359Q359 307 359.5 313.5Q360 320 360 327Q360 376 335.5 398Q311 420 268 420Q224 420 200 393Q176 366 176 315Z" glyph-name="ebreve" horiz-adv-x="531" unicode="&#277;" /><glyph d="M415 740V681L319 569H217L121 681V740H196L233 694Q245 680 255.5 665.5Q266 651 266 651H270Q270 651 280.5 665.5Q291 680 303 694L340 740ZM43 245V273Q43 398 105 462.5Q167 527 269 527Q317 527 358 515Q399 503 428 476.5Q457 450 474 405.5Q491 361 491 297Q491 261 488.5 237.5Q486 214 486 214H176V203Q176 158 201.5 131Q227 104 278 103Q304 102 322 107Q340 112 350.5 118Q361 124 365.5 129.5Q370 135 370 135H471V32Q471 32 458 25.5Q445 19 420.5 11.5Q396 4 360.5 -2.5Q325 -9 281 -9Q167 -9 105 55.5Q43 120 43 245ZM176 315V307H359Q359 307 359.5 313.5Q360 320 360 327Q360 376 335.5 398Q311 420 268 420Q224 420 200 393Q176 366 176 315Z" glyph-name="ecaron" horiz-adv-x="531" unicode="&#283;" /><glyph d="M121 569V628L217 740H319L415 628V569H340L303 615Q291 629 280.5 643.5Q270 658 270 658H266Q266 658 255.5 643.5Q245 629 233 615L196 569ZM43 245V273Q43 398 105 462.5Q167 527 269 527Q317 527 358 515Q399 503 428 476.5Q457 450 474 405.5Q491 361 491 297Q491 261 488.5 237.5Q486 214 486 214H176V203Q176 158 201.5 131Q227 104 278 103Q304 102 322 107Q340 112 350.5 118Q361 124 365.5 129.5Q370 135 370 135H471V32Q471 32 458 25.5Q445 19 420.5 11.5Q396 4 360.5 -2.5Q325 -9 281 -9Q167 -9 105 55.5Q43 120 43 245ZM176 315V307H359Q359 307 359.5 313.5Q360 320 360 327Q360 376 335.5 398Q311 420 268 420Q224 420 200 393Q176 366 176 315Z" glyph-name="ecircumflex" horiz-adv-x="531" unicode="&#234;" /><glyph d="M111 651Q111 681 129 699Q147 717 182 717Q219 717 236 698Q253 679 253 651V642Q253 612 235 594Q217 576 182 576Q145 576 128 595Q111 614 111 642ZM283 651Q283 681 301 699Q319 717 354 717Q391 717 408 698Q425 679 425 651V642Q425 612 407 594Q389 576 354 576Q317 576 300 595Q283 614 283 642ZM43 245V273Q43 398 105 462.5Q167 527 269 527Q317 527 358 515Q399 503 428 476.5Q457 450 474 405.5Q491 361 491 297Q491 261 488.5 237.5Q486 214 486 214H176V203Q176 158 201.5 131Q227 104 278 103Q304 102 322 107Q340 112 350.5 118Q361 124 365.5 129.5Q370 135 370 135H471V32Q471 32 458 25.5Q445 19 420.5 11.5Q396 4 360.5 -2.5Q325 -9 281 -9Q167 -9 105 55.5Q43 120 43 245ZM176 315V307H359Q359 307 359.5 313.5Q360 320 360 327Q360 376 335.5 398Q311 420 268 420Q224 420 200 393Q176 366 176 315Z" glyph-name="edieresis" horiz-adv-x="531" unicode="&#235;" /><glyph d="M192 653Q192 686 211.5 705Q231 724 268 724Q305 724 324.5 705Q344 686 344 653V643Q344 610 324.5 591Q305 572 268 572Q231 572 211.5 591Q192 610 192 643ZM43 245V273Q43 398 105 462.5Q167 527 269 527Q317 527 358 515Q399 503 428 476.5Q457 450 474 405.5Q491 361 491 297Q491 261 488.5 237.5Q486 214 486 214H176V203Q176 158 201.5 131Q227 104 278 103Q304 102 322 107Q340 112 350.5 118Q361 124 365.5 129.5Q370 135 370 135H471V32Q471 32 458 25.5Q445 19 420.5 11.5Q396 4 360.5 -2.5Q325 -9 281 -9Q167 -9 105 55.5Q43 120 43 245ZM176 315V307H359Q359 307 359.5 313.5Q360 320 360 327Q360 376 335.5 398Q311 420 268 420Q224 420 200 393Q176 366 176 315Z" glyph-name="edotaccent" horiz-adv-x="531" unicode="&#279;" /><glyph d="M250 740 334 571H224L137 684V740ZM43 245V273Q43 398 105 462.5Q167 527 269 527Q317 527 358 515Q399 503 428 476.5Q457 450 474 405.5Q491 361 491 297Q491 261 488.5 237.5Q486 214 486 214H176V203Q176 158 201.5 131Q227 104 278 103Q304 102 322 107Q340 112 350.5 118Q361 124 365.5 129.5Q370 135 370 135H471V32Q471 32 458 25.5Q445 19 420.5 11.5Q396 4 360.5 -2.5Q325 -9 281 -9Q167 -9 105 55.5Q43 120 43 245ZM176 315V307H359Q359 307 359.5 313.5Q360 320 360 327Q360 376 335.5 398Q311 420 268 420Q224 420 200 393Q176 366 176 315Z" glyph-name="egrave" horiz-adv-x="531" unicode="&#232;" /><glyph d="M62 498Q62 584 116 637Q170 690 288 690Q406 690 460 637Q514 584 514 498Q514 460 504 431Q494 402 482 383.5Q470 365 460 355.5Q450 346 450 346V342Q450 342 461.5 331.5Q473 321 487 301Q501 281 512.5 252Q524 223 524 186Q524 97 467.5 43.5Q411 -10 288 -10Q165 -10 108.5 43.5Q52 97 52 186Q52 223 63.5 252Q75 281 89 301Q103 321 114.5 331.5Q126 342 126 342V346Q126 346 116 355.5Q106 365 94 383.5Q82 402 72 431Q62 460 62 498ZM199 490Q199 467 204.5 451Q210 435 216.5 425.5Q223 416 228.5 411.5Q234 407 234 407H340Q340 407 346 411.5Q352 416 358.5 425.5Q365 435 371 451Q377 467 377 490Q377 531 355.5 551.5Q334 572 288 572Q242 572 220.5 551.5Q199 531 199 490ZM387 196Q387 218 380.5 234.5Q374 251 367 261.5Q360 272 353.5 277Q347 282 347 282H229Q229 282 222.5 277Q216 272 209 261.5Q202 251 195.5 234.5Q189 218 189 196Q189 155 214.5 131Q240 107 288 107Q336 107 361.5 131Q387 155 387 196Z" glyph-name="eight" horiz-adv-x="576" unicode="8" /><glyph d="M333 107Q333 53 297.5 22.5Q262 -8 184 -8Q106 -8 70 22.5Q34 53 34 107Q34 130 40.5 148Q47 166 54.5 178Q62 190 68.5 196.5Q75 203 75 203V205Q75 205 69 211Q63 217 56 228Q49 239 43 256Q37 273 37 295Q37 344 71.5 380Q106 416 184 416Q262 416 296 380Q330 344 330 295Q330 273 324 256Q318 239 311 228Q304 217 298 211Q292 205 292 205V203Q292 203 298.5 196.5Q305 190 312.5 178Q320 166 326.5 148Q333 130 333 107ZM136 288Q136 267 146.5 255.5Q157 244 157 244H210Q210 244 220.5 255.5Q231 267 231 288Q231 305 220 317.5Q209 330 184 330Q158 330 147 317.5Q136 305 136 288ZM133 120Q133 101 144.5 89.5Q156 78 184 78Q211 78 222.5 89.5Q234 101 234 120Q234 142 222 152Q210 162 210 162H157Q157 162 145 152Q133 142 133 120Z" glyph-name="eight.dnom" horiz-adv-x="366" /><glyph d="M333 379Q333 325 297.5 294.5Q262 264 184 264Q106 264 70 294.5Q34 325 34 379Q34 402 40.5 420Q47 438 54.5 450Q62 462 68.5 468.5Q75 475 75 475V477Q75 477 69 483Q63 489 56 500Q49 511 43 528Q37 545 37 567Q37 616 71.5 652Q106 688 184 688Q262 688 296 652Q330 616 330 567Q330 545 324 528Q318 511 311 500Q304 489 298 483Q292 477 292 477V475Q292 475 298.5 468.5Q305 462 312.5 450Q320 438 326.5 420Q333 402 333 379ZM136 560Q136 539 146.5 527.5Q157 516 157 516H210Q210 516 220.5 527.5Q231 539 231 560Q231 577 220 589.5Q209 602 184 602Q158 602 147 589.5Q136 577 136 560ZM133 392Q133 373 144.5 361.5Q156 350 184 350Q211 350 222.5 361.5Q234 373 234 392Q234 414 222 424Q210 434 210 434H157Q157 434 145 424Q133 414 133 392Z" glyph-name="eight.numr" horiz-adv-x="366" /><glyph d="M71 475Q71 510 82.5 543Q94 576 119 601Q144 626 185 641.5Q226 657 285 657Q344 657 385 641.5Q426 626 451 601Q476 576 487.5 543Q499 510 499 475Q499 439 491.5 411.5Q484 384 474.5 366Q465 348 457.5 339Q450 330 450 330V326Q450 326 460 317Q470 308 481.5 289.5Q493 271 503 242Q513 213 513 174Q513 94 460.5 43.5Q408 -7 285 -7Q162 -7 109.5 43.5Q57 94 57 174Q57 213 67 242Q77 271 88.5 289.5Q100 308 110 317Q120 326 120 326V330Q120 330 112.5 339Q105 348 95.5 366Q86 384 78.5 411.5Q71 439 71 475ZM200 468Q200 444 205.5 428Q211 412 217 402.5Q223 393 228.5 388.5Q234 384 234 384H336Q336 384 341.5 388.5Q347 393 353 402.5Q359 412 364.5 428Q370 444 370 468Q370 506 349 526.5Q328 547 285 547Q242 547 221 526.5Q200 506 200 468ZM384 187Q384 210 377.5 226.5Q371 243 362.5 253Q354 263 347.5 268Q341 273 341 273H229Q229 273 222.5 268Q216 263 207.5 253Q199 243 192.5 226.5Q186 210 186 187Q186 145 211 123.5Q236 102 285 102Q334 102 359 123.5Q384 145 384 187Z" glyph-name="eight.osf" horiz-adv-x="570" /><glyph d="M62 498Q62 584 116 637Q170 690 288 690Q406 690 460 637Q514 584 514 498Q514 460 504 431Q494 402 482 383.5Q470 365 460 355.5Q450 346 450 346V342Q450 342 461.5 331.5Q473 321 487 301Q501 281 512.5 252Q524 223 524 186Q524 97 467.5 43.5Q411 -10 288 -10Q165 -10 108.5 43.5Q52 97 52 186Q52 223 63.5 252Q75 281 89 301Q103 321 114.5 331.5Q126 342 126 342V346Q126 346 116 355.5Q106 365 94 383.5Q82 402 72 431Q62 460 62 498ZM199 490Q199 467 204.5 451Q210 435 216.5 425.5Q223 416 228.5 411.5Q234 407 234 407H340Q340 407 346 411.5Q352 416 358.5 425.5Q365 435 371 451Q377 467 377 490Q377 531 355.5 551.5Q334 572 288 572Q242 572 220.5 551.5Q199 531 199 490ZM387 196Q387 218 380.5 234.5Q374 251 367 261.5Q360 272 353.5 277Q347 282 347 282H229Q229 282 222.5 277Q216 272 209 261.5Q202 251 195.5 234.5Q189 218 189 196Q189 155 214.5 131Q240 107 288 107Q336 107 361.5 131Q387 155 387 196Z" glyph-name="eight.ss02" horiz-adv-x="576" /><glyph d="M49 498Q49 584 102 637Q155 690 280 690Q398 690 454.5 637Q511 584 511 498Q511 458 500.5 429Q490 400 477 381.5Q464 363 453.5 354.5Q443 346 443 346V342Q443 342 455 332Q467 322 482 302Q497 282 509 251.5Q521 221 521 180Q521 91 462 40.5Q403 -10 280 -10Q149 -10 94 40.5Q39 91 39 180Q39 221 51 251.5Q63 282 78 302Q93 322 105 332Q117 342 117 342V346Q117 346 106.5 354.5Q96 363 83 381.5Q70 400 59.5 429Q49 458 49 498ZM186 490Q186 467 192 451Q198 435 205.5 425.5Q213 416 219 411.5Q225 407 225 407H333Q333 407 339.5 411.5Q346 416 353.5 425.5Q361 435 367.5 451Q374 467 374 490Q374 531 350 551.5Q326 572 280 572Q227 572 206.5 551.5Q186 531 186 490ZM384 196Q384 218 377 234.5Q370 251 362 261.5Q354 272 347 277Q340 282 340 282H220Q220 282 213 277Q206 272 198 261.5Q190 251 183 234.5Q176 218 176 196Q176 155 200.5 131Q225 107 280 107Q328 107 356 131Q384 155 384 196Z" glyph-name="eight.tf" horiz-adv-x="560" /><glyph d="M35 78Q35 112 55.5 131.5Q76 151 113 151Q150 151 170.5 131.5Q191 112 191 78V68Q191 34 170.5 14.5Q150 -5 113 -5Q76 -5 55.5 14.5Q35 34 35 68ZM261 78Q261 112 281.5 131.5Q302 151 339 151Q376 151 396.5 131.5Q417 112 417 78V68Q417 34 396.5 14.5Q376 -5 339 -5Q302 -5 281.5 14.5Q261 34 261 68ZM487 78Q487 112 507.5 131.5Q528 151 565 151Q602 151 622.5 131.5Q643 112 643 78V68Q643 34 622.5 14.5Q602 -5 565 -5Q528 -5 507.5 14.5Q487 34 487 68Z" glyph-name="ellipsis" horiz-adv-x="678" unicode="&#8230;" /><glyph d="M118 707H417V611H118ZM43 245V273Q43 398 105 462.5Q167 527 269 527Q317 527 358 515Q399 503 428 476.5Q457 450 474 405.5Q491 361 491 297Q491 261 488.5 237.5Q486 214 486 214H176V203Q176 158 201.5 131Q227 104 278 103Q304 102 322 107Q340 112 350.5 118Q361 124 365.5 129.5Q370 135 370 135H471V32Q471 32 458 25.5Q445 19 420.5 11.5Q396 4 360.5 -2.5Q325 -9 281 -9Q167 -9 105 55.5Q43 120 43 245ZM176 315V307H359Q359 307 359.5 313.5Q360 320 360 327Q360 376 335.5 398Q311 420 268 420Q224 420 200 393Q176 366 176 315Z" glyph-name="emacron" horiz-adv-x="531" unicode="&#275;" /><glyph d="M0 309H1000V187H0Z" glyph-name="emdash" horiz-adv-x="1000" unicode="&#8212;" /><glyph d="M0 374H1000V252H0Z" glyph-name="emdash.case" horiz-adv-x="1000" /><glyph d="M0 309H500V187H0Z" glyph-name="endash" horiz-adv-x="500" unicode="&#8211;" /><glyph d="M0 374H500V252H0Z" glyph-name="endash.case" horiz-adv-x="500" /><glyph d="M70 0V518H181L197 461H201Q201 461 211 471Q221 481 240.5 493.5Q260 506 289.5 516Q319 526 358 526Q433 526 472.5 485.5Q512 445 512 356V0Q512 -55 497.5 -89.5Q483 -124 466.5 -142Q450 -160 435.5 -166.5Q421 -173 421 -173H317V-62H324Q349 -62 364.5 -50.5Q380 -39 380 -2V336Q380 374 363.5 394Q347 414 301 414Q281 414 263 408Q245 402 231.5 395.5Q218 389 210 383Q202 377 202 377V0Z" glyph-name="eng" horiz-adv-x="577" unicode="&#331;" /><glyph d="M43 245V273Q43 398 105 462.5Q167 527 269 527Q317 527 358 515Q399 503 428 476.5Q457 450 474 405.5Q491 361 491 297Q491 261 488.5 237.5Q486 214 486 214H176V203Q176 158 201.5 131Q227 104 278 103Q304 102 322 107Q340 112 350.5 118Q361 124 365.5 129.5Q370 135 370 135H471V32Q471 32 446 20.5Q421 9 375 0L351 -19Q329 -36 317.5 -49Q306 -62 306 -75Q306 -89 316 -96.5Q326 -104 342 -104H360V-181H319Q271 -181 241 -156Q211 -131 211 -85Q211 -63 220.5 -43.5Q230 -24 246 -7Q148 2 95.5 66Q43 130 43 245ZM176 315V307H359Q359 307 359.5 313.5Q360 320 360 327Q360 376 335.5 398Q311 420 268 420Q224 420 200 393Q176 366 176 315Z" glyph-name="eogonek" horiz-adv-x="531" unicode="&#281;" /><glyph d="M60 475H540V353H60ZM60 243H540V121H60Z" glyph-name="equal" horiz-adv-x="600" unicode="=" /><glyph d="M207 530H146V594L208 632Q192 639 177 644Q162 649 146 651V740H224Q224 740 250.5 731.5Q277 723 314 698L382 740H443V676L383 639Q431 588 468.5 499Q506 410 506 273V245Q506 190 493 143.5Q480 97 452 63Q424 29 380 10Q336 -9 274 -9Q212 -9 168 10Q124 29 96.5 63Q69 97 56 143.5Q43 190 43 245V273Q43 383 94.5 448Q146 513 269 513Q293 513 310.5 509.5Q328 506 328 506H330Q321 526 308.5 543.5Q296 561 282 577ZM177 245Q177 172 197 136.5Q217 101 274 101Q333 101 352.5 136.5Q372 172 372 245V259Q372 332 351.5 367.5Q331 403 274 403Q217 403 197 367.5Q177 332 177 259Z" glyph-name="eth" horiz-adv-x="549" unicode="&#240;" /><glyph d="M216 680V597L191 210H83L58 597V680ZM55 82Q55 118 77 140Q99 162 138 162Q179 162 200 139Q221 116 221 82V74Q221 38 199 16Q177 -6 138 -6Q97 -6 76 17Q55 40 55 74Z" glyph-name="exclam" horiz-adv-x="276" unicode="!" /><glyph d="M55 426V434Q55 468 76 491Q97 514 138 514Q177 514 199 492Q221 470 221 434V426Q221 392 200 369Q179 346 138 346Q99 346 77 368Q55 390 55 426ZM216 -172H58V-89L83 298H191L216 -89Z" glyph-name="exclamdown" horiz-adv-x="276" unicode="&#161;" /><glyph d="M55 598V606Q55 640 76 663Q97 686 138 686Q177 686 199 664Q221 642 221 606V598Q221 564 200 541Q179 518 138 518Q99 518 77 540Q55 562 55 598ZM216 0H58V83L83 470H191L216 83Z" glyph-name="exclamdown.case" horiz-adv-x="276" /><glyph d="M11 518H90V565Q90 621 104.5 655.5Q119 690 135.5 708.5Q152 727 166.5 733.5Q181 740 181 740H285V629H278Q253 629 237.5 617.5Q222 606 222 569V518H298V407H222V0H90V407H11Z" glyph-name="f" horiz-adv-x="320" unicode="f" /><glyph d="M11 518H90V565Q90 621 104.5 655.5Q119 690 135.5 708.5Q152 727 166.5 733.5Q181 740 181 740H285V629H278Q253 629 237.5 617.5Q222 606 222 569V518H400V565Q400 621 414.5 655.5Q429 690 445.5 708.5Q462 727 476.5 733.5Q491 740 491 740H595V629H588Q563 629 547.5 617.5Q532 606 532 569V518H608V407H532V0H400V407H222V0H90V407H11Z" glyph-name="f_f" horiz-adv-x="630" /><glyph d="M678 675Q678 708 697.5 727Q717 746 754 746Q791 746 810.5 727Q830 708 830 675V665Q830 632 810.5 613Q791 594 754 594Q717 594 697.5 613Q678 632 678 665ZM11 518H90V565Q90 621 104.5 655.5Q119 690 135.5 708.5Q152 727 166.5 733.5Q181 740 181 740H285V629H278Q253 629 237.5 617.5Q222 606 222 569V518H400V560Q400 616 414.5 651.5Q429 687 445.5 706.5Q462 726 476.5 733Q491 740 491 740H595V642H591Q566 642 549 624Q532 606 532 569V518H820V0H688V407H532V0H400V407H222V0H90V407H11Z" glyph-name="f_f_i" horiz-adv-x="890" /><glyph d="M11 518H90V565Q90 621 104.5 655.5Q119 690 135.5 708.5Q152 727 166.5 733.5Q181 740 181 740H285V629H278Q253 629 237.5 617.5Q222 606 222 569V518H400V560Q400 616 414.5 651.5Q429 687 445.5 706.5Q462 726 476.5 733Q491 740 491 740H595V642H591Q566 642 549 624Q532 606 532 569V518H686V740H818V158Q818 132 829 122Q840 112 862 112H869V0H769Q769 0 756 5Q743 10 727.5 24.5Q712 39 699 66Q686 93 686 136V407H532V0H400V407H222V0H90V407H11Z" glyph-name="f_f_l" horiz-adv-x="888" /><glyph d="M368 675Q368 708 387.5 727Q407 746 444 746Q481 746 500.5 727Q520 708 520 675V665Q520 632 500.5 613Q481 594 444 594Q407 594 387.5 613Q368 632 368 665ZM378 0V407H222V0H90V407H11V518H90V560Q90 616 104.5 651.5Q119 687 135.5 706.5Q152 726 166.5 733Q181 740 181 740H285V642H281Q256 642 239 624Q222 606 222 569V518H510V0Z" glyph-name="fi" horiz-adv-x="580" unicode="&#64257;" /><glyph d="M301 436Q354 436 391 420.5Q428 405 450.5 377.5Q473 350 483.5 312.5Q494 275 494 231Q494 122 434 58Q374 -6 250 -6Q201 -6 163.5 0.5Q126 7 101 14Q76 21 63 27.5Q50 34 50 34V144H157Q157 144 174 129.5Q191 115 249 115Q307 115 333.5 143Q360 171 360 220Q360 266 340.5 292.5Q321 319 270 319Q244 319 225 313.5Q206 308 193.5 301Q181 294 175 288.5Q169 283 169 283H65V358L90 680H461V557H300Q269 557 238 557.5Q207 558 207 558L201 484Q200 462 197.5 437Q195 412 195 412L197 411Q197 411 225.5 423.5Q254 436 301 436Z" glyph-name="five" horiz-adv-x="538" unicode="5" /><glyph d="M39 25V107H124Q124 107 135.5 93.5Q147 80 177 80Q202 80 214.5 92Q227 104 227 130Q227 149 215.5 162.5Q204 176 176 176Q149 176 136.5 163.5Q124 151 124 151H47V217L70 408H314V319H200Q190 319 171 319.5Q152 320 152 320L147 279Q145 263 143.5 254.5Q142 246 142 246H143Q143 246 161.5 254.5Q180 263 217 263Q268 263 300 230.5Q332 198 331 138Q330 78 297 35Q264 -8 180 -8Q147 -8 121 -3Q95 2 76.5 8.5Q58 15 48.5 20Q39 25 39 25Z" glyph-name="five.dnom" horiz-adv-x="357" /><glyph d="M39 297V379H124Q124 379 135.5 365.5Q147 352 177 352Q202 352 214.5 364Q227 376 227 402Q227 421 215.5 434.5Q204 448 176 448Q149 448 136.5 435.5Q124 423 124 423H47V489L70 680H314V591H200Q190 591 171 591.5Q152 592 152 592L147 551Q145 535 143.5 526.5Q142 518 142 518H143Q143 518 161.5 526.5Q180 535 217 535Q268 535 300 502.5Q332 470 331 410Q330 350 297 307Q264 264 180 264Q147 264 121 269Q95 274 76.5 280.5Q58 287 48.5 292Q39 297 39 297Z" glyph-name="five.numr" horiz-adv-x="357" /><glyph d="M50 16H157Q157 16 174 5Q191 -6 228 -6Q279 -6 308 19Q337 44 337 98Q337 138 315.5 164Q294 190 249 190Q226 190 210 184.5Q194 179 184.5 172Q175 165 171 159.5Q167 154 167 154H62V238L84 538H440V424H288Q253 424 227.5 424.5Q202 425 202 425L195 330Q194 307 192 293Q190 279 190 279L191 278Q191 278 217.5 290Q244 302 291 302Q384 302 427.5 249Q471 196 471 109Q471 9 408.5 -54.5Q346 -118 219 -118Q144 -118 97 -104.5Q50 -91 50 -91Z" glyph-name="five.osf" horiz-adv-x="504" /><glyph d="M301 436Q354 436 391 420.5Q428 405 450.5 377.5Q473 350 483.5 312.5Q494 275 494 231Q494 122 434 58Q374 -6 250 -6Q201 -6 163.5 0.5Q126 7 101 14Q76 21 63 27.5Q50 34 50 34V144H157Q157 144 174 129.5Q191 115 249 115Q307 115 333.5 143Q360 171 360 220Q360 266 340.5 292.5Q321 319 270 319Q244 319 225 313.5Q206 308 193.5 301Q181 294 175 288.5Q169 283 169 283H65V358L90 680H461V557H300Q269 557 238 557.5Q207 558 207 558L201 484Q200 462 197.5 437Q195 412 195 412L197 411Q197 411 225.5 423.5Q254 436 301 436Z" glyph-name="five.ss02" horiz-adv-x="538" /><glyph d="M311 436Q367 436 405 420.5Q443 405 466.5 377.5Q490 350 500.5 312.5Q511 275 511 231Q511 122 448 58Q385 -6 257 -6Q208 -6 169 0.5Q130 7 103 14Q76 21 61.5 27.5Q47 34 47 34V144H154Q154 144 176 129.5Q198 115 256 115Q310 115 343.5 143Q377 171 377 220Q377 266 352.5 292.5Q328 319 277 319Q248 319 226.5 313.5Q205 308 192 301Q179 294 172.5 288.5Q166 283 166 283H62V358L87 680H478V557H307Q291 557 273 557Q255 557 239.5 557.5Q224 558 214 558Q204 558 204 558L198 484Q197 462 194.5 437Q192 412 192 412L194 411Q194 411 229 423.5Q264 436 311 436Z" glyph-name="five.tf" horiz-adv-x="560" /><glyph d="M39 297V379H124Q124 379 135.5 365.5Q147 352 177 352Q202 352 214.5 364Q227 376 227 402Q227 421 215.5 434.5Q204 448 176 448Q149 448 136.5 435.5Q124 423 124 423H47V489L70 680H314V591H200Q190 591 171 591.5Q152 592 152 592L147 551Q145 535 143.5 526.5Q142 518 142 518H143Q143 518 161.5 526.5Q180 535 217 535Q268 535 300 502.5Q332 470 331 410Q330 350 297 307Q264 264 180 264Q147 264 121 269Q95 274 76.5 280.5Q58 287 48.5 292Q39 297 39 297ZM573 680H645V622L276 0H204V58ZM825 107Q825 53 789.5 22.5Q754 -8 676 -8Q598 -8 562 22.5Q526 53 526 107Q526 130 532.5 148Q539 166 546.5 178Q554 190 560.5 196.5Q567 203 567 203V205Q567 205 561 211Q555 217 548 228Q541 239 535 256Q529 273 529 295Q529 344 563.5 380Q598 416 676 416Q754 416 788 380Q822 344 822 295Q822 273 816 256Q810 239 803 228Q796 217 790 211Q784 205 784 205V203Q784 203 790.5 196.5Q797 190 804.5 178Q812 166 818.5 148Q825 130 825 107ZM628 288Q628 267 638.5 255.5Q649 244 649 244H702Q702 244 712.5 255.5Q723 267 723 288Q723 305 712 317.5Q701 330 676 330Q650 330 639 317.5Q628 305 628 288ZM625 120Q625 101 636.5 89.5Q648 78 676 78Q703 78 714.5 89.5Q726 101 726 120Q726 142 714 152Q702 162 702 162H649Q649 162 637 152Q625 142 625 120Z" glyph-name="fiveeighths" horiz-adv-x="858" unicode="&#8541;" /><glyph d="M11 518H90V560Q90 616 104.5 651.5Q119 687 135.5 706.5Q152 726 166.5 733Q181 740 181 740H285V642H281Q256 642 239 624Q222 606 222 569V518H376V740H508V158Q508 132 519 122Q530 112 552 112H559V0H459Q459 0 446 5Q433 10 417.5 24.5Q402 39 389 66Q376 93 376 136V407H222V0H90V407H11Z" glyph-name="fl" horiz-adv-x="578" unicode="&#64258;" /><glyph d="M73 439H172L200 571Q212 627 232 660.5Q252 694 271.5 711.5Q291 729 305 734.5Q319 740 319 740H427V629H405Q370 629 353 609Q336 589 329 557L304 439H391V336H282L219 35Q204 -34 182.5 -75.5Q161 -117 141 -138.5Q121 -160 106.5 -166.5Q92 -173 92 -173H-11V-63H-7Q33 -63 54 -41Q75 -19 89 47L150 336H73Z" glyph-name="florin" horiz-adv-x="438" unicode="&#402;" /><glyph d="M532 250V135H446V0H313V135H22V252L223 680H446V250ZM156 250H313V365Q313 386 313.5 420.5Q314 455 315 487.5Q316 520 316.5 543.5Q317 567 317 567H298Q298 567 281 525Q264 483 234 419Z" glyph-name="four" horiz-adv-x="554" unicode="4" /><glyph d="M22 71V153L131 408H295V158H346V71H295V0H193V71ZM119 158H193V328H187Q187 328 177.5 301.5Q168 275 154 241Z" glyph-name="four.dnom" horiz-adv-x="368" /><glyph d="M22 343V425L131 680H295V430H346V343H295V272H193V343ZM119 430H193V600H187Q187 600 177.5 573.5Q168 547 154 513Z" glyph-name="four.numr" horiz-adv-x="368" /><glyph d="M528 136V25H442V-108H308V25H22V129L230 538H442V136ZM156 136H308V223Q308 244 308.5 278Q309 312 310 343.5Q311 375 311.5 398Q312 421 312 421H299Q299 421 277.5 377Q256 333 225 271Z" glyph-name="four.osf" horiz-adv-x="539" /><glyph d="M532 250V135H446V0H313V135H22V252L223 680H446V250ZM156 250H313V365Q313 386 313.5 420.5Q314 455 315 487.5Q316 520 316.5 543.5Q317 567 317 567H298Q298 567 281 525Q264 483 234 419Z" glyph-name="four.ss02" horiz-adv-x="554" /><glyph d="M550 252V135H464V0H330V135H20V252L241 680H464V252ZM157 252H330V365Q330 386 331 420Q332 454 332.5 485.5Q333 517 334 540Q335 563 335 563H315Q315 563 298 527.5Q281 492 249 430Z" glyph-name="four.tf" horiz-adv-x="560" /><glyph d="M216 680H288V622L-81 0H-153V58Z" glyph-name="fraction" horiz-adv-x="135" unicode="&#8260;" /><glyph d="M35 -62Q35 -36 45 -16Q55 4 67 17Q79 30 89 37Q99 44 99 44V46Q99 46 93 50Q87 54 79.5 63.5Q72 73 65.5 88Q59 103 59 124Q59 145 65 162Q71 179 78.5 191Q86 203 92.5 210Q99 217 99 217V218Q99 218 91.5 226.5Q84 235 74.5 251.5Q65 268 57.5 293Q50 318 50 350V355Q50 427 94.5 474Q139 521 249 521Q302 521 331.5 514Q361 507 361 507H362Q365 535 376.5 554Q388 573 400.5 583.5Q413 594 423 598.5Q433 603 433 603H530V497H507Q482 497 471.5 483Q461 469 461 446V341Q461 269 412 225Q363 181 258 181H177Q177 181 171.5 173.5Q166 166 166 153Q166 141 172.5 133Q179 125 192 125H354Q425 125 464.5 88Q504 51 504 -14Q504 -51 494.5 -81.5Q485 -112 459 -134Q433 -156 386 -168.5Q339 -181 265 -181H239Q175 -181 135 -172Q95 -163 73 -147.5Q51 -132 43 -110Q35 -88 35 -62ZM171 344Q171 316 181.5 303.5Q192 291 192 291H250Q298 291 319 304.5Q340 318 340 350V399Q340 399 319 405Q298 411 252 411Q206 411 188.5 395.5Q171 380 171 347ZM160 -34Q161 -56 178 -68.5Q195 -81 240 -81H279Q346 -81 365 -66.5Q384 -52 384 -28Q384 -13 375 1Q366 15 341 15H175Q175 15 167 1.5Q159 -12 160 -34Z" glyph-name="g" horiz-adv-x="532" unicode="g" /><glyph d="M99 -148V-46H184Q184 -46 200 -54.5Q216 -63 259 -63Q313 -63 337.5 -41.5Q362 -20 362 29V39Q362 61 362.5 72.5Q363 84 363 84H359Q359 84 350.5 75.5Q342 67 325 56.5Q308 46 282 37.5Q256 29 222 29Q168 29 133 45.5Q98 62 78.5 92Q59 122 51 165Q43 208 43 260V290Q43 337 51.5 379.5Q60 422 81.5 453.5Q103 485 140.5 504Q178 523 235 523Q267 523 292 515.5Q317 508 333.5 499.5Q350 491 358.5 483.5Q367 476 367 476H371L386 518H492V66Q492 -59 432 -116Q372 -173 258 -173Q182 -173 140.5 -160.5Q99 -148 99 -148ZM262 139Q287 139 305.5 144.5Q324 150 336 157Q348 164 354 169.5Q360 175 360 175V383Q360 383 338.5 396.5Q317 410 270 410Q238 410 219.5 400Q201 390 191.5 373Q182 356 179.5 332.5Q177 309 177 283V267Q177 241 178.5 217.5Q180 194 188 176.5Q196 159 213.5 149Q231 139 262 139Z" glyph-name="g.alt" horiz-adv-x="562" /><glyph d="M103 723H186Q186 723 186.5 713Q187 703 193 690.5Q199 678 212 668Q225 658 249 658Q273 658 286 668Q299 678 305 690.5Q311 703 311.5 713Q312 723 312 723H394V658Q394 658 388 644.5Q382 631 365.5 615Q349 599 321 585.5Q293 572 249 572Q205 572 176.5 585.5Q148 599 132 615Q116 631 109.5 644.5Q103 658 103 658ZM35 -62Q35 -36 45 -16Q55 4 67 17Q79 30 89 37Q99 44 99 44V46Q99 46 93 50Q87 54 79.5 63.5Q72 73 65.5 88Q59 103 59 124Q59 145 65 162Q71 179 78.5 191Q86 203 92.5 210Q99 217 99 217V218Q99 218 91.5 226.5Q84 235 74.5 251.5Q65 268 57.5 293Q50 318 50 350V355Q50 427 94.5 474Q139 521 249 521Q302 521 331.5 514Q361 507 361 507H362Q365 535 376.5 554Q388 573 400.5 583.5Q413 594 423 598.5Q433 603 433 603H530V497H507Q482 497 471.5 483Q461 469 461 446V341Q461 269 412 225Q363 181 258 181H177Q177 181 171.5 173.5Q166 166 166 153Q166 141 172.5 133Q179 125 192 125H354Q425 125 464.5 88Q504 51 504 -14Q504 -51 494.5 -81.5Q485 -112 459 -134Q433 -156 386 -168.5Q339 -181 265 -181H239Q175 -181 135 -172Q95 -163 73 -147.5Q51 -132 43 -110Q35 -88 35 -62ZM171 344Q171 316 181.5 303.5Q192 291 192 291H250Q298 291 319 304.5Q340 318 340 350V399Q340 399 319 405Q298 411 252 411Q206 411 188.5 395.5Q171 380 171 347ZM160 -34Q161 -56 178 -68.5Q195 -81 240 -81H279Q346 -81 365 -66.5Q384 -52 384 -28Q384 -13 375 1Q366 15 341 15H175Q175 15 167 1.5Q159 -12 160 -34Z" glyph-name="gbreve" horiz-adv-x="532" unicode="&#287;" /><glyph d="M137 723H220Q220 723 220.5 713Q221 703 227 690.5Q233 678 246 668Q259 658 283 658Q307 658 320 668Q333 678 339 690.5Q345 703 345.5 713Q346 723 346 723H428V658Q428 658 422 644.5Q416 631 399.5 615Q383 599 355 585.5Q327 572 283 572Q239 572 210.5 585.5Q182 599 166 615Q150 631 143.5 644.5Q137 658 137 658ZM99 -148V-46H184Q184 -46 200 -54.5Q216 -63 259 -63Q313 -63 337.5 -41.5Q362 -20 362 29V39Q362 61 362.5 72.5Q363 84 363 84H359Q359 84 350.5 75.5Q342 67 325 56.5Q308 46 282 37.5Q256 29 222 29Q168 29 133 45.5Q98 62 78.5 92Q59 122 51 165Q43 208 43 260V290Q43 337 51.5 379.5Q60 422 81.5 453.5Q103 485 140.5 504Q178 523 235 523Q267 523 292 515.5Q317 508 333.5 499.5Q350 491 358.5 483.5Q367 476 367 476H371L386 518H492V66Q492 -59 432 -116Q372 -173 258 -173Q182 -173 140.5 -160.5Q99 -148 99 -148ZM262 139Q287 139 305.5 144.5Q324 150 336 157Q348 164 354 169.5Q360 175 360 175V383Q360 383 338.5 396.5Q317 410 270 410Q238 410 219.5 400Q201 390 191.5 373Q182 356 179.5 332.5Q177 309 177 283V267Q177 241 178.5 217.5Q180 194 188 176.5Q196 159 213.5 149Q231 139 262 139Z" glyph-name="gbreve.alt" horiz-adv-x="562" /><glyph d="M396 740V681L300 569H198L102 681V740H177L214 694Q226 680 236.5 665.5Q247 651 247 651H251Q251 651 261.5 665.5Q272 680 284 694L321 740ZM35 -62Q35 -36 45 -16Q55 4 67 17Q79 30 89 37Q99 44 99 44V46Q99 46 93 50Q87 54 79.5 63.5Q72 73 65.5 88Q59 103 59 124Q59 145 65 162Q71 179 78.5 191Q86 203 92.5 210Q99 217 99 217V218Q99 218 91.5 226.5Q84 235 74.5 251.5Q65 268 57.5 293Q50 318 50 350V355Q50 427 94.5 474Q139 521 249 521Q302 521 331.5 514Q361 507 361 507H362Q365 535 376.5 554Q388 573 400.5 583.5Q413 594 423 598.5Q433 603 433 603H530V497H507Q482 497 471.5 483Q461 469 461 446V341Q461 269 412 225Q363 181 258 181H177Q177 181 171.5 173.5Q166 166 166 153Q166 141 172.5 133Q179 125 192 125H354Q425 125 464.5 88Q504 51 504 -14Q504 -51 494.5 -81.5Q485 -112 459 -134Q433 -156 386 -168.5Q339 -181 265 -181H239Q175 -181 135 -172Q95 -163 73 -147.5Q51 -132 43 -110Q35 -88 35 -62ZM171 344Q171 316 181.5 303.5Q192 291 192 291H250Q298 291 319 304.5Q340 318 340 350V399Q340 399 319 405Q298 411 252 411Q206 411 188.5 395.5Q171 380 171 347ZM160 -34Q161 -56 178 -68.5Q195 -81 240 -81H279Q346 -81 365 -66.5Q384 -52 384 -28Q384 -13 375 1Q366 15 341 15H175Q175 15 167 1.5Q159 -12 160 -34Z" glyph-name="gcaron" horiz-adv-x="532" unicode="&#487;" /><glyph d="M430 740V681L334 569H232L136 681V740H211L248 694Q260 680 270.5 665.5Q281 651 281 651H285Q285 651 295.5 665.5Q306 680 318 694L355 740ZM99 -148V-46H184Q184 -46 200 -54.5Q216 -63 259 -63Q313 -63 337.5 -41.5Q362 -20 362 29V39Q362 61 362.5 72.5Q363 84 363 84H359Q359 84 350.5 75.5Q342 67 325 56.5Q308 46 282 37.5Q256 29 222 29Q168 29 133 45.5Q98 62 78.5 92Q59 122 51 165Q43 208 43 260V290Q43 337 51.5 379.5Q60 422 81.5 453.5Q103 485 140.5 504Q178 523 235 523Q267 523 292 515.5Q317 508 333.5 499.5Q350 491 358.5 483.5Q367 476 367 476H371L386 518H492V66Q492 -59 432 -116Q372 -173 258 -173Q182 -173 140.5 -160.5Q99 -148 99 -148ZM262 139Q287 139 305.5 144.5Q324 150 336 157Q348 164 354 169.5Q360 175 360 175V383Q360 383 338.5 396.5Q317 410 270 410Q238 410 219.5 400Q201 390 191.5 373Q182 356 179.5 332.5Q177 309 177 283V267Q177 241 178.5 217.5Q180 194 188 176.5Q196 159 213.5 149Q231 139 262 139Z" glyph-name="gcaron.alt" horiz-adv-x="562" /><glyph d="M35 -62Q35 -36 45 -16Q55 4 67 17Q79 30 89 37Q99 44 99 44V46Q99 46 93 50Q87 54 79.5 63.5Q72 73 65.5 88Q59 103 59 124Q59 145 65 162Q71 179 78.5 191Q86 203 92.5 210Q99 217 99 217V218Q99 218 91.5 226.5Q84 235 74.5 251.5Q65 268 57.5 293Q50 318 50 350V355Q50 427 94.5 474Q139 521 249 521Q302 521 331.5 514Q361 507 361 507H362Q364 527 370.5 543Q377 559 386 569H321L284 615Q272 629 261.5 643.5Q251 658 251 658H247Q247 658 236.5 643.5Q226 629 214 615L177 569H102V628L198 740H300L396 628V580Q409 593 421 598Q433 603 433 603H530V497H507Q482 497 471.5 483Q461 469 461 446V341Q461 269 412 225Q363 181 258 181H177Q177 181 171.5 173.5Q166 166 166 153Q166 141 172.5 133Q179 125 192 125H354Q425 125 464.5 88Q504 51 504 -14Q504 -51 494.5 -81.5Q485 -112 459 -134Q433 -156 386 -168.5Q339 -181 265 -181H239Q175 -181 135 -172Q95 -163 73 -147.5Q51 -132 43 -110Q35 -88 35 -62ZM171 344Q171 316 181.5 303.5Q192 291 192 291H250Q298 291 319 304.5Q340 318 340 350V399Q340 399 319 405Q298 411 252 411Q206 411 188.5 395.5Q171 380 171 347ZM160 -34Q161 -56 178 -68.5Q195 -81 240 -81H279Q346 -81 365 -66.5Q384 -52 384 -28Q384 -13 375 1Q366 15 341 15H175Q175 15 167 1.5Q159 -12 160 -34Z" glyph-name="gcircumflex" horiz-adv-x="532" unicode="&#285;" /><glyph d="M136 569V628L232 740H334L430 628V569H355L318 615Q306 629 295.5 643.5Q285 658 285 658H281Q281 658 270.5 643.5Q260 629 248 615L211 569ZM99 -148V-46H184Q184 -46 200 -54.5Q216 -63 259 -63Q313 -63 337.5 -41.5Q362 -20 362 29V39Q362 61 362.5 72.5Q363 84 363 84H359Q359 84 350.5 75.5Q342 67 325 56.5Q308 46 282 37.5Q256 29 222 29Q168 29 133 45.5Q98 62 78.5 92Q59 122 51 165Q43 208 43 260V290Q43 337 51.5 379.5Q60 422 81.5 453.5Q103 485 140.5 504Q178 523 235 523Q267 523 292 515.5Q317 508 333.5 499.5Q350 491 358.5 483.5Q367 476 367 476H371L386 518H492V66Q492 -59 432 -116Q372 -173 258 -173Q182 -173 140.5 -160.5Q99 -148 99 -148ZM262 139Q287 139 305.5 144.5Q324 150 336 157Q348 164 354 169.5Q360 175 360 175V383Q360 383 338.5 396.5Q317 410 270 410Q238 410 219.5 400Q201 390 191.5 373Q182 356 179.5 332.5Q177 309 177 283V267Q177 241 178.5 217.5Q180 194 188 176.5Q196 159 213.5 149Q231 139 262 139Z" glyph-name="gcircumflex.alt" horiz-adv-x="562" /><glyph d="M173 653Q173 686 192.5 705Q212 724 249 724Q286 724 305.5 705Q325 686 325 653V643Q325 610 305.5 591Q286 572 249 572Q212 572 192.5 591Q173 610 173 643ZM35 -62Q35 -36 45 -16Q55 4 67 17Q79 30 89 37Q99 44 99 44V46Q99 46 93 50Q87 54 79.5 63.5Q72 73 65.5 88Q59 103 59 124Q59 145 65 162Q71 179 78.5 191Q86 203 92.5 210Q99 217 99 217V218Q99 218 91.5 226.5Q84 235 74.5 251.5Q65 268 57.5 293Q50 318 50 350V355Q50 427 94.5 474Q139 521 249 521Q302 521 331.5 514Q361 507 361 507H362Q365 535 376.5 554Q388 573 400.5 583.5Q413 594 423 598.5Q433 603 433 603H530V497H507Q482 497 471.5 483Q461 469 461 446V341Q461 269 412 225Q363 181 258 181H177Q177 181 171.5 173.5Q166 166 166 153Q166 141 172.5 133Q179 125 192 125H354Q425 125 464.5 88Q504 51 504 -14Q504 -51 494.5 -81.5Q485 -112 459 -134Q433 -156 386 -168.5Q339 -181 265 -181H239Q175 -181 135 -172Q95 -163 73 -147.5Q51 -132 43 -110Q35 -88 35 -62ZM171 344Q171 316 181.5 303.5Q192 291 192 291H250Q298 291 319 304.5Q340 318 340 350V399Q340 399 319 405Q298 411 252 411Q206 411 188.5 395.5Q171 380 171 347ZM160 -34Q161 -56 178 -68.5Q195 -81 240 -81H279Q346 -81 365 -66.5Q384 -52 384 -28Q384 -13 375 1Q366 15 341 15H175Q175 15 167 1.5Q159 -12 160 -34Z" glyph-name="gdotaccent" horiz-adv-x="532" unicode="&#289;" /><glyph d="M207 653Q207 686 226.5 705Q246 724 283 724Q320 724 339.5 705Q359 686 359 653V643Q359 610 339.5 591Q320 572 283 572Q246 572 226.5 591Q207 610 207 643ZM99 -148V-46H184Q184 -46 200 -54.5Q216 -63 259 -63Q313 -63 337.5 -41.5Q362 -20 362 29V39Q362 61 362.5 72.5Q363 84 363 84H359Q359 84 350.5 75.5Q342 67 325 56.5Q308 46 282 37.5Q256 29 222 29Q168 29 133 45.5Q98 62 78.5 92Q59 122 51 165Q43 208 43 260V290Q43 337 51.5 379.5Q60 422 81.5 453.5Q103 485 140.5 504Q178 523 235 523Q267 523 292 515.5Q317 508 333.5 499.5Q350 491 358.5 483.5Q367 476 367 476H371L386 518H492V66Q492 -59 432 -116Q372 -173 258 -173Q182 -173 140.5 -160.5Q99 -148 99 -148ZM262 139Q287 139 305.5 144.5Q324 150 336 157Q348 164 354 169.5Q360 175 360 175V383Q360 383 338.5 396.5Q317 410 270 410Q238 410 219.5 400Q201 390 191.5 373Q182 356 179.5 332.5Q177 309 177 283V267Q177 241 178.5 217.5Q180 194 188 176.5Q196 159 213.5 149Q231 139 262 139Z" glyph-name="gdotaccent.alt" horiz-adv-x="562" /><glyph d="M287 351Q287 400 309 429.5Q331 459 353 478L380 501Q405 522 409.5 536Q414 550 414 566Q414 594 391 611.5Q368 629 319 629Q255 629 226.5 591.5Q198 554 198 480V-173H70V472Q70 608 129.5 678.5Q189 749 319 749Q436 749 489 698Q542 647 542 574Q542 511 517.5 477Q493 443 471 426L444 405Q432 395 424.5 385Q417 375 417 360Q417 344 427 335.5Q437 327 460 316L497 298Q536 279 563.5 243.5Q591 208 591 155Q591 73 541 32Q491 -9 401 -9Q324 -9 281.5 5.5Q239 20 239 20V124H326Q326 124 343 112Q360 100 397 100Q426 100 444.5 111Q463 122 463 150Q463 163 453.5 176Q444 189 411 205L374 223Q346 236 316.5 265Q287 294 287 351Z" glyph-name="germandbls" horiz-adv-x="615" unicode="&#223;" /><glyph d="M143 740 227 571H117L30 684V740Z" glyph-name="grave" horiz-adv-x="257" unicode="`" /><glyph d="M143 740 227 571H117L30 684V740Z" glyph-name="gravecomb" horiz-adv-x="257" unicode="&#768;" /><glyph d="M40 912H122L265 813V715L40 824Z" glyph-name="gravecomb.case" horiz-adv-x="305" /><glyph d="M544 349V247L123 79H56V187L240 255Q254 260 274 267Q294 274 312.5 280.5Q331 287 344 291.5Q357 296 357 296V300Q357 300 344 304.5Q331 309 312.5 315.5Q294 322 274 329Q254 336 240 341L56 409V517H123Z" glyph-name="greater" horiz-adv-x="600" unicode="&gt;" /><glyph d="M309 25V102L374 164Q380 170 389 178Q398 186 398 186V188Q398 188 379 187.5Q360 187 326 187H24V309H326Q360 309 379 308.5Q398 308 398 308V310Q398 310 389 318Q380 326 374 332L309 394V471H404L576 282V214L404 25Z" glyph-name="greaterequal" horiz-adv-x="600" unicode="&#8805;" /><glyph d="M36 283 202 472H286V408L189 295Q173 276 164.5 267Q156 258 156 258V250Q156 250 164.5 241Q173 232 189 213L286 100V36H202L36 224ZM261 283 427 472H511V408L414 295Q398 276 389.5 267Q381 258 381 258V250Q381 250 389.5 241Q398 232 414 213L511 100V36H427L261 224Z" glyph-name="guillemotleft" horiz-adv-x="541" unicode="&#171;" /><glyph d="M36 348 202 537H286V473L189 360Q173 341 164.5 332Q156 323 156 323V315Q156 315 164.5 306Q173 297 189 278L286 165V101H202L36 289ZM261 348 427 537H511V473L414 360Q398 341 389.5 332Q381 323 381 323V315Q381 315 389.5 306Q398 297 414 278L511 165V101H427L261 289Z" glyph-name="guillemotleft.case" horiz-adv-x="541" /><glyph d="M505 283V224L339 36H255V100L352 213Q368 232 376.5 241Q385 250 385 250V258Q385 258 376.5 267Q368 276 352 295L255 408V472H339ZM280 283V224L114 36H30V100L127 213Q143 232 151.5 241Q160 250 160 250V258Q160 258 151.5 267Q143 276 127 295L30 408V472H114Z" glyph-name="guillemotright" horiz-adv-x="541" unicode="&#187;" /><glyph d="M511 348V289L345 101H261V165L358 278Q374 297 382.5 306Q391 315 391 315V323Q391 323 382.5 332Q374 341 358 360L261 473V537H345ZM286 348V289L120 101H36V165L133 278Q149 297 157.5 306Q166 315 166 315V323Q166 323 157.5 332Q149 341 133 360L36 473V537H120Z" glyph-name="guillemotright.case" horiz-adv-x="541" /><glyph d="M36 283 202 472H286V408L189 295Q173 276 164.5 267Q156 258 156 258V250Q156 250 164.5 241Q173 232 189 213L286 100V36H202L36 224Z" glyph-name="guilsinglleft" horiz-adv-x="316" unicode="&#8249;" /><glyph d="M36 348 202 537H286V473L189 360Q173 341 164.5 332Q156 323 156 323V315Q156 315 164.5 306Q173 297 189 278L286 165V101H202L36 289Z" glyph-name="guilsinglleft.case" horiz-adv-x="316" /><glyph d="M280 283V224L114 36H30V100L127 213Q143 232 151.5 241Q160 250 160 250V258Q160 258 151.5 267Q143 276 127 295L30 408V472H114Z" glyph-name="guilsinglright" horiz-adv-x="316" unicode="&#8250;" /><glyph d="M280 348V289L114 101H30V165L127 278Q143 297 151.5 306Q160 315 160 315V323Q160 323 151.5 332Q143 341 127 360L30 473V537H114Z" glyph-name="guilsinglright.case" horiz-adv-x="316" /><glyph d="M70 0V740H202V550Q202 538 201 522.5Q200 507 199.5 493.5Q199 480 198 470.5Q197 461 197 461H201Q201 461 211 471Q221 481 240.5 493.5Q260 506 289.5 516Q319 526 358 526Q433 526 472.5 485.5Q512 445 512 356V0H380V336Q380 374 363.5 394Q347 414 301 414Q280 414 262 408Q244 402 230.5 395.5Q217 389 209.5 383Q202 377 202 377V0Z" glyph-name="h" horiz-adv-x="577" unicode="h" /><glyph d="M70 0V576H12V674H70V740H202V674H324V576H202V550Q202 538 201 522.5Q200 507 199.5 493.5Q199 480 198 470.5Q197 461 197 461H201Q201 461 211 471Q221 481 240.5 493.5Q260 506 289.5 516Q319 526 358 526Q433 526 472.5 485.5Q512 445 512 356V0H380V336Q380 374 363.5 394Q347 414 301 414Q280 414 262 408Q244 402 230.5 395.5Q217 389 209.5 383Q202 377 202 377V0Z" glyph-name="hbar" horiz-adv-x="577" unicode="&#295;" /><glyph d="M-4 774V831L93 910H177L274 831V774H200L164 806Q154 815 146.5 821.5Q139 828 139 828H133Q133 828 125.5 821.5Q118 815 108 806L70 774ZM70 0V740H202V550Q202 538 201 522.5Q200 507 199.5 493.5Q199 480 198 470.5Q197 461 197 461H201Q201 461 211 471Q221 481 240.5 493.5Q260 506 289.5 516Q319 526 358 526Q433 526 472.5 485.5Q512 445 512 356V0H380V336Q380 374 363.5 394Q347 414 301 414Q280 414 262 408Q244 402 230.5 395.5Q217 389 209.5 383Q202 377 202 377V0Z" glyph-name="hcircumflex" horiz-adv-x="577" unicode="&#293;" /><glyph d="M194 661 117 571H13L100 722H194ZM368 661 291 571H187L274 722H368Z" glyph-name="hungarumlaut" horiz-adv-x="384" unicode="&#733;" /><glyph d="M44 309H326V187H44Z" glyph-name="hyphen" horiz-adv-x="370" unicode="-" /><glyph d="M44 374H326V252H44Z" glyph-name="hyphen.case" horiz-adv-x="370" /><glyph d="M60 675Q60 708 79.5 727Q99 746 136 746Q173 746 192.5 727Q212 708 212 675V665Q212 632 192.5 613Q173 594 136 594Q99 594 79.5 613Q60 632 60 665ZM70 0V518H202V0Z" glyph-name="i" horiz-adv-x="272" unicode="i" /><glyph d="M77 675Q77 708 96.5 727Q116 746 153 746Q190 746 209.5 727Q229 708 229 675V665Q229 632 209.5 613Q190 594 153 594Q116 594 96.5 613Q77 632 77 665ZM219 518V0H87V408L22 418V518Z" glyph-name="i.alt" horiz-adv-x="287" /><glyph d="M60 653Q60 686 79.5 705Q99 724 136 724Q173 724 192.5 705Q212 686 212 653V643Q212 610 192.5 591Q173 572 136 572Q99 572 79.5 591Q60 610 60 643ZM202 0H70V518H202Z" glyph-name="i.loclTRK" horiz-adv-x="272" /><glyph d="M156 740H269V684L182 571H72ZM202 0H70V518H202Z" glyph-name="iacute" horiz-adv-x="272" unicode="&#237;" /><glyph d="M143 740H256V684L169 571H59ZM219 518V0H87V408L22 418V518Z" glyph-name="iacute.alt" horiz-adv-x="289" /><glyph d="M-10 723H73Q73 723 73.5 713Q74 703 80 690.5Q86 678 99 668Q112 658 136 658Q160 658 173 668Q186 678 192 690.5Q198 703 198.5 713Q199 723 199 723H281V658Q281 658 275 644.5Q269 631 252.5 615Q236 599 208 585.5Q180 572 136 572Q92 572 63.5 585.5Q35 599 19 615Q3 631 -3.5 644.5Q-10 658 -10 658ZM202 0H70V518H202Z" glyph-name="ibreve" horiz-adv-x="272" unicode="&#301;" /><glyph d="M-23 723H60Q60 723 60.5 713Q61 703 67 690.5Q73 678 86 668Q99 658 123 658Q147 658 160 668Q173 678 179 690.5Q185 703 185.5 713Q186 723 186 723H268V658Q268 658 262 644.5Q256 631 239.5 615Q223 599 195 585.5Q167 572 123 572Q79 572 50.5 585.5Q22 599 6 615Q-10 631 -16.5 644.5Q-23 658 -23 658ZM219 518V0H87V408L22 418V518Z" glyph-name="ibreve.alt" horiz-adv-x="289" /><glyph d="M-11 569V628L85 740H187L283 628V569H208L171 615Q159 629 148.5 643.5Q138 658 138 658H134Q134 658 123.5 643.5Q113 629 101 615L64 569ZM202 0H70V518H202Z" glyph-name="icircumflex" horiz-adv-x="272" unicode="&#238;" /><glyph d="M-24 569V628L72 740H174L270 628V569H195L158 615Q146 629 135.5 643.5Q125 658 125 658H121Q121 658 110.5 643.5Q100 629 88 615L51 569ZM219 518V0H87V408L22 418V518Z" glyph-name="icircumflex.alt" horiz-adv-x="289" /><glyph d="M-21 651Q-21 681 -3 699Q15 717 50 717Q87 717 104 698Q121 679 121 651V642Q121 612 103 594Q85 576 50 576Q13 576 -4 595Q-21 614 -21 642ZM151 651Q151 681 169 699Q187 717 222 717Q259 717 276 698Q293 679 293 651V642Q293 612 275 594Q257 576 222 576Q185 576 168 595Q151 614 151 642ZM202 0H70V518H202Z" glyph-name="idieresis" horiz-adv-x="272" unicode="&#239;" /><glyph d="M-34 651Q-34 681 -16 699Q2 717 37 717Q74 717 91 698Q108 679 108 651V642Q108 612 90 594Q72 576 37 576Q0 576 -17 595Q-34 614 -34 642ZM138 651Q138 681 156 699Q174 717 209 717Q246 717 263 698Q280 679 280 651V642Q280 612 262 594Q244 576 209 576Q172 576 155 595Q138 614 138 642ZM219 518V0H87V408L22 418V518Z" glyph-name="idieresis.alt" horiz-adv-x="289" /><glyph d="M116 740 200 571H90L3 684V740ZM202 0H70V518H202Z" glyph-name="igrave" horiz-adv-x="272" unicode="&#236;" /><glyph d="M103 740 187 571H77L-10 684V740ZM219 518V0H87V408L22 418V518Z" glyph-name="igrave.alt" horiz-adv-x="289" /><glyph d="M60 675Q60 708 79.5 727Q99 746 136 746Q173 746 192.5 727Q212 708 212 675V665Q212 632 192.5 613Q173 594 136 594Q99 594 79.5 613Q60 632 60 665ZM332 675Q332 708 351.5 727Q371 746 408 746Q445 746 464.5 727Q484 708 484 675V665Q484 632 464.5 613Q445 594 408 594Q371 594 351.5 613Q332 632 332 665ZM70 0V518H202V0ZM342 518H474V20Q474 -38 459 -75.5Q444 -113 426 -134.5Q408 -156 393 -164.5Q378 -173 378 -173H279V-65H284Q306 -65 324 -52Q342 -39 342 7Z" glyph-name="ij" horiz-adv-x="544" unicode="&#307;" /><glyph d="M156 740H269V684L182 571H72ZM429 740H542V684L455 571H345ZM202 0H70V518H202ZM342 518H474V20Q474 -38 459 -75.5Q444 -113 426 -134.5Q408 -156 393 -164.5Q378 -173 378 -173H279V-65H284Q306 -65 324 -52Q342 -39 342 7Z" glyph-name="ijacute" horiz-adv-x="544" /><glyph d="M-14 707H285V611H-14ZM202 0H70V518H202Z" glyph-name="imacron" horiz-adv-x="272" unicode="&#299;" /><glyph d="M-27 707H272V611H-27ZM219 518V0H87V408L22 418V518Z" glyph-name="imacron.alt" horiz-adv-x="289" /><glyph d="M60 653Q60 686 79.5 705Q99 724 136 724Q173 724 192.5 705Q212 686 212 653V643Q212 610 192.5 591Q173 572 136 572Q99 572 79.5 591Q60 610 60 643ZM202 0 178 -19Q156 -36 144.5 -49Q133 -62 133 -75Q133 -89 143 -96.5Q153 -104 169 -104H187V-181H146Q98 -181 68 -156Q38 -131 38 -85Q38 -60 49.5 -39Q61 -18 80 0H70V518H202Z" glyph-name="iogonek" horiz-adv-x="272" unicode="&#303;" /><glyph d="M47 653Q47 686 66.5 705Q86 724 123 724Q160 724 179.5 705Q199 686 199 653V643Q199 610 179.5 591Q160 572 123 572Q86 572 66.5 591Q47 610 47 643ZM219 0 195 -19Q173 -36 161.5 -49Q150 -62 150 -75Q150 -89 160 -96.5Q170 -104 186 -104H204V-181H163Q115 -181 85 -156Q55 -131 55 -85Q55 -60 66.5 -39Q78 -18 97 0H87V408L22 418V518H219Z" glyph-name="iogonek.alt" horiz-adv-x="289" /><glyph d="M-54 596V679Q-54 679 -47.5 686.5Q-41 694 -28 702.5Q-15 711 6.5 718.5Q28 726 57 726Q78 726 94.5 722.5Q111 719 127 714L154 705Q167 701 177 698Q187 695 203 695Q233 695 242 709.5Q251 724 251 724H326V641Q326 641 319.5 633.5Q313 626 300 617.5Q287 609 265.5 601.5Q244 594 215 594Q194 594 177.5 597.5Q161 601 145 606L118 615Q105 619 95 622Q85 625 69 625Q39 625 30 610.5Q21 596 21 596ZM202 0H70V518H202Z" glyph-name="itilde" horiz-adv-x="272" unicode="&#297;" /><glyph d="M-67 596V679Q-67 679 -60.5 686.5Q-54 694 -41 702.5Q-28 711 -6.5 718.5Q15 726 44 726Q65 726 81.5 722.5Q98 719 114 714L141 705Q154 701 164 698Q174 695 190 695Q220 695 229 709.5Q238 724 238 724H313V641Q313 641 306.5 633.5Q300 626 287 617.5Q274 609 252.5 601.5Q231 594 202 594Q181 594 164.5 597.5Q148 601 132 606L105 615Q92 619 82 622Q72 625 56 625Q26 625 17 610.5Q8 596 8 596ZM219 518V0H87V408L22 418V518Z" glyph-name="itilde.alt" horiz-adv-x="289" /><glyph d="M60 675Q60 708 79.5 727Q99 746 136 746Q173 746 192.5 727Q212 708 212 675V665Q212 632 192.5 613Q173 594 136 594Q99 594 79.5 613Q60 632 60 665ZM70 518H202V20Q202 -38 187 -75.5Q172 -113 154 -134.5Q136 -156 121 -164.5Q106 -173 106 -173H7V-65H12Q34 -65 52 -52Q70 -39 70 7Z" glyph-name="j" horiz-adv-x="272" unicode="j" /><glyph d="M77 665V675Q77 708 96.5 727Q116 746 153 746Q190 746 209.5 727Q229 708 229 675V665Q229 632 209.5 613Q190 594 153 594Q116 594 96.5 613Q77 632 77 665ZM24 -173V-68H29Q51 -68 69 -50.5Q87 -33 87 17V408L22 418V518H219V20Q219 -38 204 -75.5Q189 -113 171 -134.5Q153 -156 138 -164.5Q123 -173 123 -173Z" glyph-name="j.alt" horiz-adv-x="287" /><glyph d="M-11 569V628L85 740H187L283 628V569H208L171 615Q159 629 148.5 643.5Q138 658 138 658H134Q134 658 123.5 643.5Q113 629 101 615L64 569ZM70 518H202V20Q202 -38 187 -75.5Q172 -113 154 -134.5Q136 -156 121 -164.5Q106 -173 106 -173H7V-65H12Q34 -65 52 -52Q70 -39 70 7Z" glyph-name="jcircumflex" horiz-adv-x="272" unicode="&#309;" /><glyph d="M-24 569V628L72 740H174L270 628V569H195L158 615Q146 629 135.5 643.5Q125 658 125 658H121Q121 658 110.5 643.5Q100 629 88 615L51 569ZM24 -173V-68H29Q51 -68 69 -50.5Q87 -33 87 17V408L22 418V518H219V20Q219 -38 204 -75.5Q189 -113 171 -134.5Q153 -156 138 -164.5Q123 -173 123 -173Z" glyph-name="jcircumflex.alt" horiz-adv-x="289" /><glyph d="M70 0V740H202V423Q202 389 201.5 357Q201 325 201 325H252Q252 325 260 335Q268 345 279 359Q290 373 303 388Q316 403 325 413L419 518H510V439L358 275V270Q358 270 369.5 250Q381 230 402 201Q423 172 452 139Q481 106 515 80V0H415Q383 26 354 62Q325 98 303 130Q281 162 267.5 184.5Q254 207 254 207H202V0Z" glyph-name="k" horiz-adv-x="542" unicode="k" /><glyph d="M70 0V518H202V423Q202 389 201.5 357Q201 325 201 325H243Q243 325 251.5 335Q260 345 272.5 359Q285 373 298.5 388Q312 403 322 413L424 518H517V439L350 276V273Q350 273 364.5 253Q379 233 403.5 204Q428 175 460 141.5Q492 108 526 80V0H424Q392 26 360 62Q328 98 302.5 130Q277 162 261 184.5Q245 207 245 207H202V0Z" glyph-name="kgreenlandic" horiz-adv-x="553" unicode="&#312;" /><glyph d="M253 0H153Q153 0 140 5Q127 10 111.5 24.5Q96 39 83 66Q70 93 70 136V740H202V158Q202 132 213 122Q224 112 246 112H253Z" glyph-name="l" horiz-adv-x="272" unicode="l" /><glyph d="M295 972V884L70 775V873L213 972ZM253 0H153Q153 0 140 5Q127 10 111.5 24.5Q96 39 83 66Q70 93 70 136V740H202V158Q202 132 213 122Q224 112 246 112H253Z" glyph-name="lacute" horiz-adv-x="272" unicode="&#314;" /><glyph d="M253 0H153Q153 0 140 5Q127 10 111.5 24.5Q96 39 83 66Q70 93 70 136V740H202V158Q202 132 213 122Q224 112 246 112H253ZM261 550Q261 550 265 565.5Q269 581 274 607Q279 633 283 667.5Q287 702 287 740H421V689Q402 618 384 584Q366 550 366 550Z" glyph-name="lcaron" horiz-adv-x="416" unicode="&#318;" /><glyph d="M253 0H153Q153 0 140 5Q127 10 111.5 24.5Q96 39 83 66Q70 93 70 136V740H202V158Q202 132 213 122Q224 112 246 112H253ZM259 352Q259 386 279.5 405.5Q300 425 337 425Q374 425 394.5 405.5Q415 386 415 352V342Q415 308 394.5 288.5Q374 269 337 269Q300 269 279.5 288.5Q259 308 259 342Z" glyph-name="ldot" horiz-adv-x="394" unicode="&#320;" /><glyph d="M56 349 477 517H544V409L360 341Q346 336 326 329Q306 322 287.5 315.5Q269 309 256 304.5Q243 300 243 300V296Q243 296 256 291.5Q269 287 287.5 280.5Q306 274 326 267Q346 260 360 255L544 187V79H477L56 247Z" glyph-name="less" horiz-adv-x="600" unicode="&lt;" /><glyph d="M292 25H197L25 214V282L197 471H292V394L227 332Q221 326 212 318Q203 310 203 310V308Q203 308 222 308.5Q241 309 275 309H577V187H275Q241 187 222 187.5Q203 188 203 188V186Q203 186 212 178Q221 170 227 164L292 102Z" glyph-name="lessequal" horiz-adv-x="600" unicode="&#8804;" /><glyph d="M60 237V359H540V58H418V237Z" glyph-name="logicalnot" horiz-adv-x="600" unicode="&#172;" /><glyph d="M265 0H165Q165 0 152 5Q139 10 123.5 24.5Q108 39 95 66Q82 93 82 136V301L59 287H0V361L82 411V740H214V492L237 506H296V432L214 382V158Q214 132 225 122Q236 112 258 112H265Z" glyph-name="lslash" horiz-adv-x="296" unicode="&#322;" /><glyph d="M70 0V518H181L197 461H201Q201 461 210.5 471Q220 481 239 493.5Q258 506 286.5 516Q315 526 353 526Q400 526 432 507.5Q464 489 481 454H485Q485 454 496.5 465.5Q508 477 529 490Q550 503 581.5 514.5Q613 526 653 526Q728 526 765 484.5Q802 443 802 356V0H670V336Q670 374 655 394Q640 414 596 414Q576 414 559 408Q542 402 529.5 395.5Q517 389 509.5 383Q502 377 502 377V0H370V336Q370 374 355 394Q340 414 296 414Q276 414 259 408Q242 402 229.5 395.5Q217 389 209.5 383Q202 377 202 377V0Z" glyph-name="m" horiz-adv-x="867" unicode="m" /><glyph d="M22 707H321V611H22Z" glyph-name="macron" horiz-adv-x="343" unicode="&#175;" /><glyph d="M60 359H540V237H60Z" glyph-name="minus" horiz-adv-x="600" unicode="&#8722;" /><glyph d="M54 435 140 521 277 384 414 521 500 435 363 298 500 161 414 75 277 212 140 75 54 161 191 298Z" glyph-name="multiply" horiz-adv-x="554" unicode="&#215;" /><glyph d="M70 0V518H181L197 461H201Q201 461 211 471Q221 481 240.5 493.5Q260 506 289.5 516Q319 526 358 526Q433 526 472.5 485.5Q512 445 512 356V0H380V336Q380 374 363.5 394Q347 414 301 414Q281 414 263 408Q245 402 231.5 395.5Q218 389 210 383Q202 377 202 377V0Z" glyph-name="n" horiz-adv-x="577" unicode="n" /><glyph d="M309 740H422V684L335 571H225ZM70 0V518H181L197 461H201Q201 461 211 471Q221 481 240.5 493.5Q260 506 289.5 516Q319 526 358 526Q433 526 472.5 485.5Q512 445 512 356V0H380V336Q380 374 363.5 394Q347 414 301 414Q281 414 263 408Q245 402 231.5 395.5Q218 389 210 383Q202 377 202 377V0Z" glyph-name="nacute" horiz-adv-x="577" unicode="&#324;" /><glyph d="M70 570Q70 570 74 585.5Q78 601 83 627Q88 653 92 687.5Q96 722 96 760H230V709Q211 638 193 604Q175 570 175 570ZM70 0V518H181L197 461H201Q201 461 211 471Q221 481 240.5 493.5Q260 506 289.5 516Q319 526 358 526Q433 526 472.5 485.5Q512 445 512 356V0H380V336Q380 374 363.5 394Q347 414 301 414Q281 414 263 408Q245 402 231.5 395.5Q218 389 210 383Q202 377 202 377V0Z" glyph-name="napostrophe" horiz-adv-x="577" unicode="&#329;" /><glyph d="M433 740V681L337 569H235L139 681V740H214L251 694Q263 680 273.5 665.5Q284 651 284 651H288Q288 651 298.5 665.5Q309 680 321 694L358 740ZM70 0V518H181L197 461H201Q201 461 211 471Q221 481 240.5 493.5Q260 506 289.5 516Q319 526 358 526Q433 526 472.5 485.5Q512 445 512 356V0H380V336Q380 374 363.5 394Q347 414 301 414Q281 414 263 408Q245 402 231.5 395.5Q218 389 210 383Q202 377 202 377V0Z" glyph-name="ncaron" horiz-adv-x="577" unicode="&#328;" /><glyph d="M487 437V408Q487 289 448.5 209.5Q410 130 364.5 84Q319 38 280.5 19Q242 0 242 0H142V104Q154 104 182 113Q210 122 240.5 144Q271 166 300 203Q329 240 342 296H339Q339 296 331.5 287.5Q324 279 307.5 269.5Q291 260 265.5 251.5Q240 243 205 243Q104 243 66 303.5Q28 364 28 457Q28 566 87.5 627Q147 688 257 688Q370 688 428.5 625Q487 562 487 437ZM248 353Q274 353 293.5 359.5Q313 366 326.5 373.5Q340 381 346.5 387.5Q353 394 353 394V464Q353 515 330.5 545.5Q308 576 257 576Q212 576 187 549Q162 522 162 463Q162 396 186.5 374.5Q211 353 248 353Z" glyph-name="nine" horiz-adv-x="531" unicode="9" /><glyph d="M82 85Q92 85 109 89Q126 93 143.5 103.5Q161 114 177.5 131.5Q194 149 204 175H202Q202 175 181 161.5Q160 148 122 148Q68 148 44 182Q20 216 20 276Q20 348 60.5 382Q101 416 173 416Q238 416 280 382Q322 348 322 266V252Q322 174 297 124.5Q272 75 241.5 47.5Q211 20 186 10Q161 0 161 0H82ZM166 225Q189 225 202 233Q215 241 215 241V269Q215 302 202 315.5Q189 329 169 329Q150 329 136.5 317.5Q123 306 123 274Q123 249 135 237Q147 225 166 225Z" glyph-name="nine.dnom" horiz-adv-x="346" /><glyph d="M82 357Q92 357 109 361Q126 365 143.5 375.5Q161 386 177.5 403.5Q194 421 204 447H202Q202 447 181 433.5Q160 420 122 420Q68 420 44 454Q20 488 20 548Q20 620 60.5 654Q101 688 173 688Q238 688 280 654Q322 620 322 538V524Q322 446 297 396.5Q272 347 241.5 319.5Q211 292 186 282Q161 272 161 272H82ZM166 497Q189 497 202 505Q215 513 215 513V541Q215 574 202 587.5Q189 601 169 601Q150 601 136.5 589.5Q123 578 123 546Q123 521 135 509Q147 497 166 497Z" glyph-name="nine.numr" horiz-adv-x="346" /><glyph d="M481 298V254Q481 147 445.5 76.5Q410 6 368.5 -34.5Q327 -75 291.5 -91.5Q256 -108 256 -108H150V-8Q154 -8 179 -3Q204 2 235 20Q266 38 296 73.5Q326 109 341 169H338Q338 169 330.5 161Q323 153 306.5 143.5Q290 134 264.5 126Q239 118 203 118Q102 118 62 175Q22 232 22 322Q22 425 81.5 487Q141 549 251 549Q364 549 422.5 485.5Q481 422 481 298ZM243 227Q269 227 288.5 234.5Q308 242 321 251Q334 260 340.5 267.5Q347 275 347 275V325Q347 375 324.5 406Q302 437 251 437Q206 437 181 409Q156 381 156 328Q156 268 181 247.5Q206 227 243 227Z" glyph-name="nine.osf" horiz-adv-x="525" /><glyph d="M53 152H160Q160 152 163 145.5Q166 139 174.5 132Q183 125 199.5 118.5Q216 112 243 112Q297 112 319.5 137.5Q342 163 342 206V248Q342 267 342.5 281.5Q343 296 343 296H341Q341 296 333.5 288Q326 280 310.5 270.5Q295 261 271.5 253Q248 245 217 245Q114 245 71.5 300.5Q29 356 29 460Q29 573 82.5 631.5Q136 690 252 690Q376 690 427 630Q478 570 478 443V231Q478 108 415.5 49Q353 -10 237 -10Q194 -10 159.5 -2.5Q125 5 101.5 14Q78 23 65.5 30.5Q53 38 53 38ZM165 463Q165 413 184 389Q203 365 250 365Q272 365 288.5 370.5Q305 376 316.5 383Q328 390 334.5 396.5Q341 403 342 405V464Q343 520 320.5 543Q298 566 255 566Q206 566 185.5 542Q165 518 165 463Z" glyph-name="nine.ss02" horiz-adv-x="544" /><glyph d="M518 437V393Q518 274 474.5 197Q431 120 379 76.5Q327 33 283.5 16.5Q240 0 240 0H147V104Q155 104 186.5 112.5Q218 121 255 142.5Q292 164 325 201.5Q358 239 370 296H367Q367 296 358.5 287.5Q350 279 332.5 269.5Q315 260 288 251.5Q261 243 226 243Q125 243 82 303.5Q39 364 39 457Q39 566 100 627Q161 688 278 688Q396 688 457 625Q518 562 518 437ZM269 353Q302 353 324.5 359.5Q347 366 360 373.5Q373 381 378.5 387.5Q384 394 384 394V464Q384 515 359 545.5Q334 576 278 576Q226 576 199.5 549Q173 522 173 463Q173 396 202.5 374.5Q232 353 269 353Z" glyph-name="nine.tf" horiz-adv-x="560" /><glyph d="M108 11V78L134 121H60V243H206L271 353H60V475H344L410 586H492V519L466 475H540V353H393L328 243H540V121H255L190 11Z" glyph-name="notequal" horiz-adv-x="600" unicode="&#8800;" /><glyph d="M96 596V679Q96 679 102.5 686.5Q109 694 122 702.5Q135 711 156.5 718.5Q178 726 207 726Q228 726 244.5 722.5Q261 719 277 714L304 705Q317 701 327 698Q337 695 353 695Q383 695 392 709.5Q401 724 401 724H476V641Q476 641 469.5 633.5Q463 626 450 617.5Q437 609 415.5 601.5Q394 594 365 594Q344 594 327.5 597.5Q311 601 295 606L268 615Q255 619 245 622Q235 625 219 625Q189 625 180 610.5Q171 596 171 596ZM70 0V518H181L197 461H201Q201 461 211 471Q221 481 240.5 493.5Q260 506 289.5 516Q319 526 358 526Q433 526 472.5 485.5Q512 445 512 356V0H380V336Q380 374 363.5 394Q347 414 301 414Q281 414 263 408Q245 402 231.5 395.5Q218 389 210 383Q202 377 202 377V0Z" glyph-name="ntilde" horiz-adv-x="577" unicode="&#241;" /><glyph d="M37 288H166L188 394H74V489H208L247 680H336V618L309 489H404L443 680H532V618L505 489H605V394H486L464 288H568V193H445L405 0H316V62L343 193H249L209 0H120V62L147 193H37ZM268 288H362L384 394H290Z" glyph-name="numbersign" horiz-adv-x="640" unicode="#" /><glyph d="M43 245V273Q43 328 56 374.5Q69 421 96.5 455Q124 489 168 508Q212 527 274 527Q336 527 380 508Q424 489 452 455Q480 421 493 374.5Q506 328 506 273V245Q506 190 493 143.5Q480 97 452 63Q424 29 380 10Q336 -9 274 -9Q212 -9 168 10Q124 29 96.5 63Q69 97 56 143.5Q43 190 43 245ZM177 252Q177 179 196 141Q215 103 274 103Q333 103 352.5 141Q372 179 372 252V266Q372 339 352.5 377Q333 415 274 415Q215 415 196 377Q177 339 177 266Z" glyph-name="o" horiz-adv-x="549" unicode="o" /><glyph d="M290 740H403V684L316 571H206ZM43 245V273Q43 328 56 374.5Q69 421 96.5 455Q124 489 168 508Q212 527 274 527Q336 527 380 508Q424 489 452 455Q480 421 493 374.5Q506 328 506 273V245Q506 190 493 143.5Q480 97 452 63Q424 29 380 10Q336 -9 274 -9Q212 -9 168 10Q124 29 96.5 63Q69 97 56 143.5Q43 190 43 245ZM177 252Q177 179 196 141Q215 103 274 103Q333 103 352.5 141Q372 179 372 252V266Q372 339 352.5 377Q333 415 274 415Q215 415 196 377Q177 339 177 266Z" glyph-name="oacute" horiz-adv-x="549" unicode="&#243;" /><glyph d="M128 723H211Q211 723 211.5 713Q212 703 218 690.5Q224 678 237 668Q250 658 274 658Q298 658 311 668Q324 678 330 690.5Q336 703 336.5 713Q337 723 337 723H419V658Q419 658 413 644.5Q407 631 390.5 615Q374 599 346 585.5Q318 572 274 572Q230 572 201.5 585.5Q173 599 157 615Q141 631 134.5 644.5Q128 658 128 658ZM43 245V273Q43 328 56 374.5Q69 421 96.5 455Q124 489 168 508Q212 527 274 527Q336 527 380 508Q424 489 452 455Q480 421 493 374.5Q506 328 506 273V245Q506 190 493 143.5Q480 97 452 63Q424 29 380 10Q336 -9 274 -9Q212 -9 168 10Q124 29 96.5 63Q69 97 56 143.5Q43 190 43 245ZM177 252Q177 179 196 141Q215 103 274 103Q333 103 352.5 141Q372 179 372 252V266Q372 339 352.5 377Q333 415 274 415Q215 415 196 377Q177 339 177 266Z" glyph-name="obreve" horiz-adv-x="549" unicode="&#335;" /><glyph d="M127 569V628L223 740H325L421 628V569H346L309 615Q297 629 286.5 643.5Q276 658 276 658H272Q272 658 261.5 643.5Q251 629 239 615L202 569ZM43 245V273Q43 328 56 374.5Q69 421 96.5 455Q124 489 168 508Q212 527 274 527Q336 527 380 508Q424 489 452 455Q480 421 493 374.5Q506 328 506 273V245Q506 190 493 143.5Q480 97 452 63Q424 29 380 10Q336 -9 274 -9Q212 -9 168 10Q124 29 96.5 63Q69 97 56 143.5Q43 190 43 245ZM177 252Q177 179 196 141Q215 103 274 103Q333 103 352.5 141Q372 179 372 252V266Q372 339 352.5 377Q333 415 274 415Q215 415 196 377Q177 339 177 266Z" glyph-name="ocircumflex" horiz-adv-x="549" unicode="&#244;" /><glyph d="M117 651Q117 681 135 699Q153 717 188 717Q225 717 242 698Q259 679 259 651V642Q259 612 241 594Q223 576 188 576Q151 576 134 595Q117 614 117 642ZM289 651Q289 681 307 699Q325 717 360 717Q397 717 414 698Q431 679 431 651V642Q431 612 413 594Q395 576 360 576Q323 576 306 595Q289 614 289 642ZM43 245V273Q43 328 56 374.5Q69 421 96.5 455Q124 489 168 508Q212 527 274 527Q336 527 380 508Q424 489 452 455Q480 421 493 374.5Q506 328 506 273V245Q506 190 493 143.5Q480 97 452 63Q424 29 380 10Q336 -9 274 -9Q212 -9 168 10Q124 29 96.5 63Q69 97 56 143.5Q43 190 43 245ZM177 252Q177 179 196 141Q215 103 274 103Q333 103 352.5 141Q372 179 372 252V266Q372 339 352.5 377Q333 415 274 415Q215 415 196 377Q177 339 177 266Z" glyph-name="odieresis" horiz-adv-x="549" unicode="&#246;" /><glyph d="M43 245V273Q43 328 56 374.5Q69 421 96.5 455Q124 489 168 508Q212 527 274 527Q329 527 370.5 512Q412 497 440 469Q469 497 509 512Q549 527 598 527Q646 527 687 515Q728 503 757 476.5Q786 450 803 405.5Q820 361 820 297Q820 261 817.5 237.5Q815 214 815 214H505V203Q505 158 530.5 131Q556 104 607 103Q633 102 651 107Q669 112 679.5 118Q690 124 694.5 129.5Q699 135 699 135H800V32Q800 32 787 25.5Q774 19 749.5 11.5Q725 4 689.5 -2.5Q654 -9 610 -9Q556 -9 513 6Q470 21 440 49Q412 21 370.5 6Q329 -9 274 -9Q212 -9 168 10Q124 29 96.5 63Q69 97 56 143.5Q43 190 43 245ZM505 315V307H688Q688 307 688.5 313.5Q689 320 689 327Q689 376 664.5 398Q640 420 597 420Q553 420 529 393Q505 366 505 315ZM177 252Q177 179 196 141Q215 103 274 103Q333 103 352.5 141Q372 179 372 252V266Q372 339 352.5 377Q333 415 274 415Q215 415 196 377Q177 339 177 266Z" glyph-name="oe" horiz-adv-x="860" unicode="&#339;" /><glyph d="M186 0 162 -19Q140 -36 128.5 -49Q117 -62 117 -75Q117 -89 127 -96.5Q137 -104 153 -104H171V-181H130Q82 -181 52 -156Q22 -131 22 -85Q22 -53 40 -28Q58 -3 86 19L120 45H186Z" glyph-name="ogonek" horiz-adv-x="208" unicode="&#731;" /><glyph d="M259 740 343 571H233L146 684V740ZM43 245V273Q43 328 56 374.5Q69 421 96.5 455Q124 489 168 508Q212 527 274 527Q336 527 380 508Q424 489 452 455Q480 421 493 374.5Q506 328 506 273V245Q506 190 493 143.5Q480 97 452 63Q424 29 380 10Q336 -9 274 -9Q212 -9 168 10Q124 29 96.5 63Q69 97 56 143.5Q43 190 43 245ZM177 252Q177 179 196 141Q215 103 274 103Q333 103 352.5 141Q372 179 372 252V266Q372 339 352.5 377Q333 415 274 415Q215 415 196 377Q177 339 177 266Z" glyph-name="ograve" horiz-adv-x="549" unicode="&#242;" /><glyph d="M331 661 254 571H150L237 722H331ZM505 661 428 571H324L411 722H505ZM43 245V273Q43 328 56 374.5Q69 421 96.5 455Q124 489 168 508Q212 527 274 527Q336 527 380 508Q424 489 452 455Q480 421 493 374.5Q506 328 506 273V245Q506 190 493 143.5Q480 97 452 63Q424 29 380 10Q336 -9 274 -9Q212 -9 168 10Q124 29 96.5 63Q69 97 56 143.5Q43 190 43 245ZM177 252Q177 179 196 141Q215 103 274 103Q333 103 352.5 141Q372 179 372 252V266Q372 339 352.5 377Q333 415 274 415Q215 415 196 377Q177 339 177 266Z" glyph-name="ohungarumlaut" horiz-adv-x="549" unicode="&#337;" /><glyph d="M124 707H423V611H124ZM43 245V273Q43 328 56 374.5Q69 421 96.5 455Q124 489 168 508Q212 527 274 527Q336 527 380 508Q424 489 452 455Q480 421 493 374.5Q506 328 506 273V245Q506 190 493 143.5Q480 97 452 63Q424 29 380 10Q336 -9 274 -9Q212 -9 168 10Q124 29 96.5 63Q69 97 56 143.5Q43 190 43 245ZM177 252Q177 179 196 141Q215 103 274 103Q333 103 352.5 141Q372 179 372 252V266Q372 339 352.5 377Q333 415 274 415Q215 415 196 377Q177 339 177 266Z" glyph-name="omacron" horiz-adv-x="549" unicode="&#333;" /><glyph d="M52 548V628L177 680H285V107L383 92V0H52V92L149 107V548Z" glyph-name="one" horiz-adv-x="406" unicode="1" /><glyph d="M36 0V84L107 94V306H36V373L112 408H213V94L284 84V0Z" glyph-name="one.dnom" horiz-adv-x="307" /><glyph d="M36 272V356L107 366V578H36V645L112 680H213V366L284 356V272Z" glyph-name="one.numr" horiz-adv-x="307" /><glyph d="M58 408V485L178 538H282V105L364 93V0H68V93L150 105V408Z" glyph-name="one.osf" horiz-adv-x="404" /><glyph d="M52 548V628L177 680H285V107L383 92V0H52V92L149 107V548Z" glyph-name="one.ss02" horiz-adv-x="406" /><glyph d="M73 548V628L253 680H361V107L503 92V0H83V92L225 107V548Z" glyph-name="one.tf" horiz-adv-x="560" /><glyph d="M36 272V356L107 366V578H36V645L112 680H213V366L284 356V272ZM556 680H628V622L259 0H187V58ZM808 107Q808 53 772.5 22.5Q737 -8 659 -8Q581 -8 545 22.5Q509 53 509 107Q509 130 515.5 148Q522 166 529.5 178Q537 190 543.5 196.5Q550 203 550 203V205Q550 205 544 211Q538 217 531 228Q524 239 518 256Q512 273 512 295Q512 344 546.5 380Q581 416 659 416Q737 416 771 380Q805 344 805 295Q805 273 799 256Q793 239 786 228Q779 217 773 211Q767 205 767 205V203Q767 203 773.5 196.5Q780 190 787.5 178Q795 166 801.5 148Q808 130 808 107ZM611 288Q611 267 621.5 255.5Q632 244 632 244H685Q685 244 695.5 255.5Q706 267 706 288Q706 305 695 317.5Q684 330 659 330Q633 330 622 317.5Q611 305 611 288ZM608 120Q608 101 619.5 89.5Q631 78 659 78Q686 78 697.5 89.5Q709 101 709 120Q709 142 697 152Q685 162 685 162H632Q632 162 620 152Q608 142 608 120Z" glyph-name="oneeighth" horiz-adv-x="841" unicode="&#8539;" /><glyph d="M36 272V356L107 366V578H36V645L112 680H213V366L284 356V272ZM556 680H628V622L259 0H187V58ZM808 0H532L531 102L675 234Q696 253 702.5 264.5Q709 276 709 288Q709 303 698.5 313Q688 323 662 323Q631 323 621.5 311.5Q612 300 612 300H529V386Q529 386 566.5 401Q604 416 671 416Q737 416 775 384.5Q813 353 813 296Q813 252 795.5 223Q778 194 744 165L656 89V88Q656 88 670 88.5Q684 89 697 89H808Z" glyph-name="onehalf" horiz-adv-x="843" unicode="&#189;" /><glyph d="M36 272V356L107 366V578H36V645L112 680H213V366L284 356V272ZM556 680H628V622L259 0H187V58ZM475 71V153L584 408H748V158H799V71H748V0H646V71ZM572 158H646V328H640Q640 328 630.5 301.5Q621 275 607 241Z" glyph-name="onequarter" horiz-adv-x="821" unicode="&#188;" /><glyph d="M57 582V669Q57 669 95 679.5Q133 690 201 690Q274 690 308 660.5Q342 631 342 573V325H254L242 359H240Q240 359 234 353Q228 347 215.5 340Q203 333 184 327Q165 321 139 321Q84 321 59.5 351Q35 381 35 434Q35 485 65.5 512Q96 539 160 539H240V558Q240 580 229 591Q218 602 185 602Q153 602 145.5 592Q138 582 138 582ZM186 398Q223 398 231.5 409.5Q240 421 240 421V472H182Q161 472 149 463Q137 454 137 436Q137 418 148 408Q159 398 186 398Z" glyph-name="ordfeminine" horiz-adv-x="395" unicode="&#170;" /><glyph d="M33 495V515Q33 596 71.5 643Q110 690 195 690Q281 690 319.5 643Q358 596 358 515V495Q358 412 319.5 365.5Q281 319 195 319Q110 319 71.5 365.5Q33 412 33 495ZM138 501Q138 455 149.5 435Q161 415 195 415Q229 415 241 435Q253 455 253 501V509Q253 554 241 574.5Q229 595 195 595Q161 595 149.5 574.5Q138 554 138 509Z" glyph-name="ordmasculine" horiz-adv-x="391" unicode="&#186;" /><glyph d="M43 245V273Q43 328 56 374.5Q69 421 96.5 455Q124 489 168 508Q212 527 274 527Q310 527 340 520.5Q370 514 394 502L436 563H495V512L454 453Q481 419 493.5 373Q506 327 506 273V245Q506 190 493 143.5Q480 97 452 63Q424 29 380 10Q336 -9 274 -9Q238 -9 208 -2.5Q178 4 154 17L112 -45H53V6L94 66Q68 100 55.5 145.5Q43 191 43 245ZM177 252Q177 235 178 219.5Q179 204 180 191L326 404Q316 409 303 412Q290 415 274 415Q215 415 196 377Q177 339 177 266ZM372 266Q372 283 371 299Q370 315 368 328L222 115Q232 109 245 106Q258 103 274 103Q333 103 352.5 141Q372 179 372 252Z" glyph-name="oslash" horiz-adv-x="549" unicode="&#248;" /><glyph d="M290 740H403V684L316 571H206ZM43 245V273Q43 328 56 374.5Q69 421 96.5 455Q124 489 168 508Q212 527 274 527Q310 527 340 520.5Q370 514 394 502L436 563H495V512L454 453Q481 419 493.5 373Q506 327 506 273V245Q506 190 493 143.5Q480 97 452 63Q424 29 380 10Q336 -9 274 -9Q238 -9 208 -2.5Q178 4 154 17L112 -45H53V6L94 66Q68 100 55.5 145.5Q43 191 43 245ZM177 252Q177 235 178 219.5Q179 204 180 191L326 404Q316 409 303 412Q290 415 274 415Q215 415 196 377Q177 339 177 266ZM372 266Q372 283 371 299Q370 315 368 328L222 115Q232 109 245 106Q258 103 274 103Q333 103 352.5 141Q372 179 372 252Z" glyph-name="oslashacute" horiz-adv-x="549" unicode="&#511;" /><glyph d="M84 596V679Q84 679 90.5 686.5Q97 694 110 702.5Q123 711 144.5 718.5Q166 726 195 726Q216 726 232.5 722.5Q249 719 265 714L292 705Q305 701 315 698Q325 695 341 695Q371 695 380 709.5Q389 724 389 724H464V641Q464 641 457.5 633.5Q451 626 438 617.5Q425 609 403.5 601.5Q382 594 353 594Q332 594 315.5 597.5Q299 601 283 606L256 615Q243 619 233 622Q223 625 207 625Q177 625 168 610.5Q159 596 159 596ZM43 245V273Q43 328 56 374.5Q69 421 96.5 455Q124 489 168 508Q212 527 274 527Q336 527 380 508Q424 489 452 455Q480 421 493 374.5Q506 328 506 273V245Q506 190 493 143.5Q480 97 452 63Q424 29 380 10Q336 -9 274 -9Q212 -9 168 10Q124 29 96.5 63Q69 97 56 143.5Q43 190 43 245ZM177 252Q177 179 196 141Q215 103 274 103Q333 103 352.5 141Q372 179 372 252V266Q372 339 352.5 377Q333 415 274 415Q215 415 196 377Q177 339 177 266Z" glyph-name="otilde" horiz-adv-x="549" unicode="&#245;" /><glyph d="M326 -4Q276 -4 244.5 9.5Q213 23 202 33H198Q198 33 198.5 23Q199 13 200 -2Q201 -17 201.5 -34.5Q202 -52 202 -67V-173H70V518H182L198 465H202Q202 465 210.5 474Q219 483 236 493.5Q253 504 280 513Q307 522 343 522Q398 522 433.5 503Q469 484 489.5 450.5Q510 417 517.5 371Q525 325 525 272V244Q525 197 516 152Q507 107 484.5 72.5Q462 38 423.5 17Q385 -4 326 -4ZM202 131Q202 131 225.5 120Q249 109 296 109Q329 109 348 121.5Q367 134 376.5 153.5Q386 173 388.5 199Q391 225 391 251V265Q391 292 389.5 318.5Q388 345 380 365Q372 385 354 397.5Q336 410 303 410Q278 410 259 404.5Q240 399 227.5 392Q215 385 208.5 379.5Q202 374 202 374Z" glyph-name="p" horiz-adv-x="568" unicode="p" /><glyph d="M241 256H236Q138 256 85.5 315.5Q33 375 33 468Q33 562 87.5 621Q142 680 241 680H545V-173H427V563H359V-173H241Z" glyph-name="paragraph" horiz-adv-x="615" unicode="&#182;" /><glyph d="M56 275Q57 407 99 523.5Q141 640 219 723H320V650Q254 572 220 481.5Q186 391 185 275Q184 159 219 68.5Q254 -22 320 -100V-173H219Q141 -90 98 26.5Q55 143 56 275Z" glyph-name="parenleft" horiz-adv-x="329" unicode="(" /><glyph d="M56 340Q57 472 99 588.5Q141 705 219 788H320V715Q254 637 220 546.5Q186 456 185 340Q184 224 219 133.5Q254 43 320 -35V-108H219Q141 -25 98 91.5Q55 208 56 340Z" glyph-name="parenleft.case" horiz-adv-x="329" /><glyph d="M274 275Q275 143 232 26.5Q189 -90 111 -173H10V-100Q76 -22 111 68.5Q146 159 145 275Q144 391 110 481.5Q76 572 10 650V723H111Q189 640 231 523.5Q273 407 274 275Z" glyph-name="parenright" horiz-adv-x="329" unicode=")" /><glyph d="M274 340Q275 208 232 91.5Q189 -25 111 -108H10V-35Q76 43 111 133.5Q146 224 145 340Q144 456 110 546.5Q76 637 10 715V788H111Q189 705 231 588.5Q273 472 274 340Z" glyph-name="parenright.case" horiz-adv-x="329" /><glyph d="M193 264Q118 264 75.5 304.5Q33 345 33 424V528Q33 607 75.5 647.5Q118 688 193 688Q268 688 310.5 647.5Q353 607 353 528V424Q353 345 310.5 304.5Q268 264 193 264ZM602 680H674V622L305 0H233V58ZM193 595Q163 595 151 578Q139 561 139 532V420Q139 391 151 374Q163 357 193 357Q223 357 235 374Q247 391 247 420V532Q247 561 235 578Q223 595 193 595ZM714 -8Q639 -8 596.5 32.5Q554 73 554 152V256Q554 335 596.5 375.5Q639 416 714 416Q789 416 831.5 375.5Q874 335 874 256V152Q874 73 831.5 32.5Q789 -8 714 -8ZM714 323Q684 323 672 306Q660 289 660 260V148Q660 119 672 102Q684 85 714 85Q744 85 756 102Q768 119 768 148V260Q768 289 756 306Q744 323 714 323Z" glyph-name="percent" horiz-adv-x="907" unicode="%" /><glyph d="M35 78Q35 112 55.5 131.5Q76 151 113 151Q150 151 170.5 131.5Q191 112 191 78V68Q191 34 170.5 14.5Q150 -5 113 -5Q76 -5 55.5 14.5Q35 34 35 68Z" glyph-name="period" horiz-adv-x="226" unicode="." /><glyph d="M11 282Q11 316 31.5 335.5Q52 355 89 355Q126 355 146.5 335.5Q167 316 167 282V272Q167 238 146.5 218.5Q126 199 89 199Q52 199 31.5 218.5Q11 238 11 272Z" glyph-name="periodcentered" horiz-adv-x="178" unicode="&#183;" /><glyph d="M193 264Q118 264 75.5 304.5Q33 345 33 424V528Q33 607 75.5 647.5Q118 688 193 688Q268 688 310.5 647.5Q353 607 353 528V424Q353 345 310.5 304.5Q268 264 193 264ZM602 680H674V622L305 0H233V58ZM193 595Q163 595 151 578Q139 561 139 532V420Q139 391 151 374Q163 357 193 357Q223 357 235 374Q247 391 247 420V532Q247 561 235 578Q223 595 193 595ZM714 -8Q639 -8 596.5 32.5Q554 73 554 152V256Q554 335 596.5 375.5Q639 416 714 416Q789 416 831.5 375.5Q874 335 874 256V152Q874 73 831.5 32.5Q789 -8 714 -8ZM1100 -8Q1025 -8 982.5 32.5Q940 73 940 152V256Q940 335 982.5 375.5Q1025 416 1100 416Q1175 416 1217.5 375.5Q1260 335 1260 256V152Q1260 73 1217.5 32.5Q1175 -8 1100 -8ZM714 323Q684 323 672 306Q660 289 660 260V148Q660 119 672 102Q684 85 714 85Q744 85 756 102Q768 119 768 148V260Q768 289 756 306Q744 323 714 323ZM1100 323Q1070 323 1058 306Q1046 289 1046 260V148Q1046 119 1058 102Q1070 85 1100 85Q1130 85 1142 102Q1154 119 1154 148V260Q1154 289 1142 306Q1130 323 1100 323Z" glyph-name="perthousand" horiz-adv-x="1293" unicode="&#8240;" /><glyph d="M121 0V403H32V518H575V403H486V171Q486 134 499.5 122.5Q513 111 538 111H545V0H441Q441 0 427.5 6Q414 12 397.5 29Q381 46 367.5 76Q354 106 354 155V403H253V0Z" glyph-name="pi" horiz-adv-x="600" unicode="&#960;" /><glyph d="M60 359H239V538H361V359H540V237H361V58H239V237H60Z" glyph-name="plus" horiz-adv-x="600" unicode="+" /><glyph d="M60 437H239V589H361V437H540V315H361V163H239V315H60ZM60 122H540V0H60Z" glyph-name="plusminus" horiz-adv-x="600" unicode="&#177;" /><glyph d="M43 273Q43 321 52 366Q61 411 83 445.5Q105 480 143 501Q181 522 238 522Q272 522 297 513.5Q322 505 339 495Q356 485 364.5 476.5Q373 468 373 468H377L392 518H498V-173H366V-40Q366 -13 367.5 17.5Q369 48 370 54H366Q366 54 357.5 45Q349 36 332 25Q315 14 288 5Q261 -4 225 -4Q169 -4 133.5 15Q98 34 78 67Q58 100 50.5 146Q43 192 43 245ZM177 252Q177 226 178.5 200Q180 174 188 153.5Q196 133 214 120.5Q232 108 265 108Q290 108 309 114Q328 120 340.5 126.5Q353 133 359.5 139Q366 145 366 145V375Q366 375 360.5 380.5Q355 386 343.5 392Q332 398 314.5 403.5Q297 409 273 409Q240 409 221 396.5Q202 384 192 364Q182 344 179.5 318Q177 292 177 266Z" glyph-name="q" horiz-adv-x="568" unicode="q" /><glyph d="M124 212V299L194 402Q210 425 228.5 458Q247 491 247 518Q247 543 231 556.5Q215 570 182 570Q161 570 147.5 564.5Q134 559 126.5 553Q119 547 116 541.5Q113 536 113 536H5V643Q5 643 17.5 649.5Q30 656 53.5 664.5Q77 673 111 679.5Q145 686 189 686Q296 686 340.5 640.5Q385 595 385 516Q385 467 361.5 419Q338 371 317 340L230 212ZM103 82Q103 118 125 140Q147 162 186 162Q227 162 248 139Q269 116 269 82V74Q269 38 247 16Q225 -6 186 -6Q145 -6 124 17Q103 40 103 74Z" glyph-name="question" horiz-adv-x="414" unicode="?" /><glyph d="M311 426Q311 390 289 368Q267 346 228 346Q187 346 166 369Q145 392 145 426V434Q145 470 167 492Q189 514 228 514Q269 514 290 491Q311 468 311 434ZM290 296V209L220 106Q204 83 185.5 50Q167 17 167 -10Q167 -35 183 -48.5Q199 -62 232 -62Q253 -62 266.5 -56.5Q280 -51 287.5 -45Q295 -39 298 -33.5Q301 -28 301 -28H409V-135Q409 -135 396.5 -141.5Q384 -148 360.5 -156.5Q337 -165 303 -171.5Q269 -178 225 -178Q118 -178 73.5 -132.5Q29 -87 29 -8Q29 41 52.5 89Q76 137 97 168L184 296Z" glyph-name="questiondown" horiz-adv-x="414" unicode="&#191;" /><glyph d="M311 598Q311 562 289 540Q267 518 228 518Q187 518 166 541Q145 564 145 598V606Q145 642 167 664Q189 686 228 686Q269 686 290 663Q311 640 311 606ZM290 468V381L220 278Q204 255 185.5 222Q167 189 167 162Q167 137 183 123.5Q199 110 232 110Q253 110 266.5 115.5Q280 121 287.5 127Q295 133 298 138.5Q301 144 301 144H409V37Q409 37 396.5 30.5Q384 24 360.5 15.5Q337 7 303 0.5Q269 -6 225 -6Q118 -6 73.5 39.5Q29 85 29 164Q29 213 52.5 261Q76 309 97 340L184 468Z" glyph-name="questiondown.case" horiz-adv-x="414" /><glyph d="M49 385V680H165V385ZM263 385V680H379V385Z" glyph-name="quotedbl" horiz-adv-x="428" unicode="&quot;" /><glyph d="M-5 -144Q-5 -144 3.5 -122Q12 -100 22 -61.5Q32 -23 40.5 30.5Q49 84 49 147H180V78Q170 18 155.5 -24.5Q141 -67 128 -93.5Q115 -120 106 -132Q97 -144 97 -144ZM202 -144Q202 -144 210.5 -122Q219 -100 229 -61.5Q239 -23 247.5 30.5Q256 84 256 147H387V78Q377 18 362.5 -24.5Q348 -67 335 -93.5Q322 -120 313 -132Q304 -144 304 -144Z" glyph-name="quotedblbase" horiz-adv-x="433" unicode="&#8222;" /><glyph d="M250 740Q250 740 241.5 718Q233 696 223 657.5Q213 619 204.5 565.5Q196 512 196 449H65V518Q75 578 89.5 620.5Q104 663 117 689.5Q130 716 139 728Q148 740 148 740ZM457 740Q457 740 448.5 718Q440 696 430 657.5Q420 619 411.5 565.5Q403 512 403 449H272V518Q282 578 296.5 620.5Q311 663 324 689.5Q337 716 346 728Q355 740 355 740Z" glyph-name="quotedblleft" horiz-adv-x="452" unicode="&#8220;" /><glyph d="M-5 449Q-5 449 3.5 471Q12 493 22 531.5Q32 570 40.5 623.5Q49 677 49 740H180V671Q170 611 155.5 568.5Q141 526 128 499.5Q115 473 106 461Q97 449 97 449ZM202 449Q202 449 210.5 471Q219 493 229 531.5Q239 570 247.5 623.5Q256 677 256 740H387V671Q377 611 362.5 568.5Q348 526 335 499.5Q322 473 313 461Q304 449 304 449Z" glyph-name="quotedblright" horiz-adv-x="452" unicode="&#8221;" /><glyph d="M250 740Q250 740 241.5 718Q233 696 223 657.5Q213 619 204.5 565.5Q196 512 196 449H65V518Q75 578 89.5 620.5Q104 663 117 689.5Q130 716 139 728Q148 740 148 740Z" glyph-name="quoteleft" horiz-adv-x="245" unicode="&#8216;" /><glyph d="M-5 449Q-5 449 3.5 471Q12 493 22 531.5Q32 570 40.5 623.5Q49 677 49 740H180V671Q170 611 155.5 568.5Q141 526 128 499.5Q115 473 106 461Q97 449 97 449Z" glyph-name="quoteright" horiz-adv-x="245" unicode="&#8217;" /><glyph d="M-5 -144Q-5 -144 3.5 -122Q12 -100 22 -61.5Q32 -23 40.5 30.5Q49 84 49 147H180V78Q170 18 155.5 -24.5Q141 -67 128 -93.5Q115 -120 106 -132Q97 -144 97 -144Z" glyph-name="quotesinglbase" horiz-adv-x="226" unicode="&#8218;" /><glyph d="M49 385V680H165V385Z" glyph-name="quotesingle" horiz-adv-x="214" unicode="'" /><glyph d="M70 518H181L197 457H203Q217 479 244.5 498.5Q272 518 333 518H349V390H291Q241 390 223.5 374.5Q206 359 202 346V0H70Z" glyph-name="r" horiz-adv-x="363" unicode="r" /><glyph d="M224 740H337V684L250 571H140ZM70 518H181L197 457H203Q217 479 244.5 498.5Q272 518 333 518H349V390H291Q241 390 223.5 374.5Q206 359 202 346V0H70Z" glyph-name="racute" horiz-adv-x="363" unicode="&#341;" /><glyph d="M361 740V681L265 569H163L67 681V740H142L179 694Q191 680 201.5 665.5Q212 651 212 651H216Q216 651 226.5 665.5Q237 680 249 694L286 740ZM70 518H181L197 457H203Q217 479 244.5 498.5Q272 518 333 518H349V390H291Q241 390 223.5 374.5Q206 359 202 346V0H70Z" glyph-name="rcaron" horiz-adv-x="363" unicode="&#345;" /><glyph d="M586 465Q586 332 513 257Q440 182 308 182Q176 182 103 257Q30 332 30 465Q30 598 103 673Q176 748 308 748Q440 748 513 673Q586 598 586 465ZM117 465Q117 358 169 309Q221 260 308 260Q395 260 447 309Q499 358 499 465Q499 572 447 620.5Q395 669 308 669Q221 669 169 620.5Q117 572 117 465ZM278 328H201V603H333Q378 603 401 577Q424 551 424 513Q424 491 416.5 475Q409 459 400.5 449Q392 439 384.5 434Q377 429 377 429Q377 429 385.5 415.5Q394 402 416 380V328H363Q334 359 319 386.5Q304 414 304 414H278ZM326 482Q326 482 335 488.5Q344 495 344 511Q344 523 336 529Q328 535 316 535H278V482Z" glyph-name="registered" horiz-adv-x="616" unicode="&#174;" /><glyph d="M36 670Q36 722 68 752.5Q100 783 151 783Q202 783 234 752.5Q266 722 266 670Q266 618 234 587.5Q202 557 151 557Q100 557 68 587.5Q36 618 36 670ZM112 670Q112 653 121.5 641.5Q131 630 151 630Q171 630 180.5 641.5Q190 653 190 670Q190 687 180.5 698.5Q171 710 151 710Q131 710 121.5 698.5Q112 687 112 670Z" glyph-name="ring" horiz-adv-x="302" unicode="&#730;" /><glyph d="M42 133H142Q142 133 144.5 128Q147 123 154 116.5Q161 110 175 105Q189 100 212 100Q255 100 270.5 112.5Q286 125 286 147Q286 166 273 177.5Q260 189 231 196L202 203Q118 223 84.5 261.5Q51 300 51 365Q51 434 97.5 480Q144 526 247 526Q316 526 359 511.5Q402 497 402 497V389H302Q302 389 291 403.5Q280 418 240 418Q202 418 190.5 403.5Q179 389 179 371Q179 347 192 336.5Q205 326 233 319L262 312Q336 294 375 259Q414 224 414 154Q414 73 361.5 32.5Q309 -8 210 -8Q171 -8 139.5 -3Q108 2 86.5 8.5Q65 15 53.5 20Q42 25 42 25Z" glyph-name="s" horiz-adv-x="454" unicode="s" /><glyph d="M250 740H363V684L276 571H166ZM42 133H142Q142 133 144.5 128Q147 123 154 116.5Q161 110 175 105Q189 100 212 100Q255 100 270.5 112.5Q286 125 286 147Q286 166 273 177.5Q260 189 231 196L202 203Q118 223 84.5 261.5Q51 300 51 365Q51 434 97.5 480Q144 526 247 526Q316 526 359 511.5Q402 497 402 497V389H302Q302 389 291 403.5Q280 418 240 418Q202 418 190.5 403.5Q179 389 179 371Q179 347 192 336.5Q205 326 233 319L262 312Q336 294 375 259Q414 224 414 154Q414 73 361.5 32.5Q309 -8 210 -8Q171 -8 139.5 -3Q108 2 86.5 8.5Q65 15 53.5 20Q42 25 42 25Z" glyph-name="sacute" horiz-adv-x="454" unicode="&#347;" /><glyph d="M374 740V681L278 569H176L80 681V740H155L192 694Q204 680 214.5 665.5Q225 651 225 651H229Q229 651 239.5 665.5Q250 680 262 694L299 740ZM42 133H142Q142 133 144.5 128Q147 123 154 116.5Q161 110 175 105Q189 100 212 100Q255 100 270.5 112.5Q286 125 286 147Q286 166 273 177.5Q260 189 231 196L202 203Q118 223 84.5 261.5Q51 300 51 365Q51 434 97.5 480Q144 526 247 526Q316 526 359 511.5Q402 497 402 497V389H302Q302 389 291 403.5Q280 418 240 418Q202 418 190.5 403.5Q179 389 179 371Q179 347 192 336.5Q205 326 233 319L262 312Q336 294 375 259Q414 224 414 154Q414 73 361.5 32.5Q309 -8 210 -8Q171 -8 139.5 -3Q108 2 86.5 8.5Q65 15 53.5 20Q42 25 42 25Z" glyph-name="scaron" horiz-adv-x="454" unicode="&#353;" /><glyph d="M42 133H142Q142 133 144.5 128Q147 123 154 116.5Q161 110 175 105Q189 100 212 100Q255 100 270.5 112.5Q286 125 286 147Q286 166 273 177.5Q260 189 231 196L202 203Q118 223 84.5 261.5Q51 300 51 365Q51 434 97.5 480Q144 526 247 526Q316 526 359 511.5Q402 497 402 497V389H302Q302 389 291 403.5Q280 418 240 418Q202 418 190.5 403.5Q179 389 179 371Q179 347 192 336.5Q205 326 233 319L262 312Q336 294 375 259Q414 224 414 154Q414 94 384.5 55.5Q355 17 298 2V0Q298 -36 289.5 -64.5Q281 -93 270.5 -113Q260 -133 251.5 -143.5Q243 -154 243 -154H154V-87Q154 -87 159.5 -82Q165 -77 172 -67Q179 -57 184.5 -42Q190 -27 190 -8Q121 -5 81.5 10Q42 25 42 25Z" glyph-name="scedilla" horiz-adv-x="454" unicode="&#351;" /><glyph d="M80 569V628L176 740H278L374 628V569H299L262 615Q250 629 239.5 643.5Q229 658 229 658H225Q225 658 214.5 643.5Q204 629 192 615L155 569ZM42 133H142Q142 133 144.5 128Q147 123 154 116.5Q161 110 175 105Q189 100 212 100Q255 100 270.5 112.5Q286 125 286 147Q286 166 273 177.5Q260 189 231 196L202 203Q118 223 84.5 261.5Q51 300 51 365Q51 434 97.5 480Q144 526 247 526Q316 526 359 511.5Q402 497 402 497V389H302Q302 389 291 403.5Q280 418 240 418Q202 418 190.5 403.5Q179 389 179 371Q179 347 192 336.5Q205 326 233 319L262 312Q336 294 375 259Q414 224 414 154Q414 73 361.5 32.5Q309 -8 210 -8Q171 -8 139.5 -3Q108 2 86.5 8.5Q65 15 53.5 20Q42 25 42 25Z" glyph-name="scircumflex" horiz-adv-x="454" unicode="&#349;" /><glyph d="M67 -53H158Q158 -53 174.5 -64.5Q191 -76 232 -76Q266 -76 283.5 -60.5Q301 -45 301 -24Q301 1 285.5 16Q270 31 242 44L164 83Q104 113 68.5 153Q33 193 33 262Q33 312 55.5 349.5Q78 387 103 410Q83 432 72.5 460Q62 488 62 528Q62 597 112.5 643.5Q163 690 262 690Q334 690 375 676Q416 662 416 662V558H325Q325 558 312 571Q299 584 258 584Q224 584 206.5 568.5Q189 553 189 532Q189 507 204.5 492Q220 477 248 464L326 425Q386 395 421.5 355Q457 315 457 246Q457 196 434.5 158.5Q412 121 387 98Q407 76 417.5 48Q428 20 428 -20Q428 -89 375 -135.5Q322 -182 219 -182Q150 -182 108.5 -169.5Q67 -157 67 -157ZM217 198 295 158Q309 171 320 189.5Q331 208 331 229Q331 256 318 275Q305 294 273 310L195 350Q181 337 170 318.5Q159 300 159 279Q159 252 172 233Q185 214 217 198Z" glyph-name="section" horiz-adv-x="490" unicode="&#167;" /><glyph d="M35 424Q35 458 55.5 477.5Q76 497 113 497Q150 497 170.5 477.5Q191 458 191 424V414Q191 380 170.5 360.5Q150 341 113 341Q76 341 55.5 360.5Q35 380 35 414ZM-5 -144Q-5 -144 3.5 -122Q12 -100 22 -61.5Q32 -23 40.5 30.5Q49 84 49 147H180V78Q170 18 155.5 -24.5Q141 -67 128 -93.5Q115 -120 106 -132Q97 -144 97 -144Z" glyph-name="semicolon" horiz-adv-x="226" unicode=";" /><glyph d="M258 0H125V107L281 491Q284 499 289 511Q294 523 298.5 533.5Q303 544 306.5 551.5Q310 559 310 559V562H139L131 506H16V680H448V550L273 117Q260 83 259 53.5Q258 24 258 9Z" glyph-name="seven" horiz-adv-x="474" unicode="7" /><glyph d="M11 285V408H299V308L204 80Q199 68 197.5 53Q196 38 196 30V0H90V82L164 258Q172 278 181 298Q190 318 190 318V319H111L106 285Z" glyph-name="seven.dnom" horiz-adv-x="323" /><glyph d="M11 557V680H299V580L204 352Q199 340 197.5 325Q196 310 196 302V272H90V354L164 530Q172 550 181 570Q190 590 190 590V591H111L106 557Z" glyph-name="seven.numr" horiz-adv-x="323" /><glyph d="M18 538H431V411L272 18Q260 -12 258.5 -45.5Q257 -79 257 -91V-108H125V-8L278 367Q285 383 293 401.5Q301 420 301 420V423H134L126 369H18Z" glyph-name="seven.osf" horiz-adv-x="455" /><glyph d="M324 245Q295 199 289 149Q283 99 283 45V0H147V58Q147 128 161 187Q175 246 214 306L263 383Q291 427 306 455Q321 483 321 526V557H145L137 511H25V680H454L455 563Q455 523 451.5 495Q448 467 439 442.5Q430 418 415 391.5Q400 365 377 329Z" glyph-name="seven.ss02" horiz-adv-x="485" /><glyph d="M308 0H175V94L349 477Q353 485 359 499Q365 513 371 526Q377 539 381.5 549Q386 559 386 559V562H155L147 506H36V680H518V539L320 89Q312 70 310 50.5Q308 31 308 9Z" glyph-name="seven.tf" horiz-adv-x="560" /><glyph d="M11 557V680H299V580L204 352Q199 340 197.5 325Q196 310 196 302V272H90V354L164 530Q172 550 181 570Q190 590 190 590V591H111L106 557ZM517 680H589V622L220 0H148V58ZM769 107Q769 53 733.5 22.5Q698 -8 620 -8Q542 -8 506 22.5Q470 53 470 107Q470 130 476.5 148Q483 166 490.5 178Q498 190 504.5 196.5Q511 203 511 203V205Q511 205 505 211Q499 217 492 228Q485 239 479 256Q473 273 473 295Q473 344 507.5 380Q542 416 620 416Q698 416 732 380Q766 344 766 295Q766 273 760 256Q754 239 747 228Q740 217 734 211Q728 205 728 205V203Q728 203 734.5 196.5Q741 190 748.5 178Q756 166 762.5 148Q769 130 769 107ZM572 288Q572 267 582.5 255.5Q593 244 593 244H646Q646 244 656.5 255.5Q667 267 667 288Q667 305 656 317.5Q645 330 620 330Q594 330 583 317.5Q572 305 572 288ZM569 120Q569 101 580.5 89.5Q592 78 620 78Q647 78 658.5 89.5Q670 101 670 120Q670 142 658 152Q646 162 646 162H593Q593 162 581 152Q569 142 569 120Z" glyph-name="seveneighths" horiz-adv-x="802" unicode="&#8542;" /><glyph d="M44 243V272Q44 391 82.5 470.5Q121 550 166.5 596Q212 642 250.5 661Q289 680 289 680H389V576Q377 576 349 567Q321 558 290.5 536Q260 514 231 477Q202 440 189 384H192Q192 384 199.5 392.5Q207 401 223.5 410.5Q240 420 265.5 428.5Q291 437 326 437Q427 437 465 376.5Q503 316 503 223Q503 114 443.5 53Q384 -8 274 -8Q161 -8 102.5 55Q44 118 44 243ZM178 216Q178 165 200.5 134.5Q223 104 274 104Q319 104 344 131Q369 158 369 217Q369 284 344.5 305.5Q320 327 283 327Q257 327 237.5 320.5Q218 314 204.5 306.5Q191 299 184.5 292.5Q178 286 178 286Z" glyph-name="six" horiz-adv-x="531" unicode="6" /><glyph d="M264 323Q254 323 237 319Q220 315 202.5 304.5Q185 294 168.5 276.5Q152 259 142 233H144Q144 233 165 246.5Q186 260 224 260Q278 260 302 226Q326 192 326 132Q326 60 285.5 26Q245 -8 173 -8Q108 -8 66 26Q24 60 24 142V156Q24 234 49 283.5Q74 333 104.5 360.5Q135 388 160 398Q185 408 185 408H264ZM131 139Q131 106 144 92.5Q157 79 177 79Q196 79 209.5 90.5Q223 102 223 134Q223 159 211 171Q199 183 180 183Q157 183 144 175Q131 167 131 167Z" glyph-name="six.dnom" horiz-adv-x="346" /><glyph d="M264 595Q254 595 237 591Q220 587 202.5 576.5Q185 566 168.5 548.5Q152 531 142 505H144Q144 505 165 518.5Q186 532 224 532Q278 532 302 498Q326 464 326 404Q326 332 285.5 298Q245 264 173 264Q108 264 66 298Q24 332 24 414V428Q24 506 49 555.5Q74 605 104.5 632.5Q135 660 160 670Q185 680 185 680H264ZM131 411Q131 378 144 364.5Q157 351 177 351Q196 351 209.5 362.5Q223 374 223 406Q223 431 211 443Q199 455 180 455Q157 455 144 447Q131 439 131 439Z" glyph-name="six.numr" horiz-adv-x="346" /><glyph d="M44 241V285Q44 392 79.5 462.5Q115 533 156.5 573.5Q198 614 233.5 630.5Q269 647 269 647H375V547Q371 547 346 542Q321 537 290 519Q259 501 229 465.5Q199 430 184 370H187Q187 370 194.5 378Q202 386 218.5 395.5Q235 405 260.5 413Q286 421 322 421Q423 421 463 364Q503 307 503 217Q503 114 443.5 52Q384 -10 274 -10Q161 -10 102.5 53.5Q44 117 44 241ZM178 214Q178 164 200.5 133Q223 102 274 102Q319 102 344 130Q369 158 369 211Q369 271 344 291.5Q319 312 282 312Q256 312 236.5 304.5Q217 297 204 288Q191 279 184.5 271.5Q178 264 178 264Z" glyph-name="six.osf" horiz-adv-x="525" /><glyph d="M480 528H373Q373 528 370 534.5Q367 541 358.5 548Q350 555 333.5 561.5Q317 568 290 568Q236 568 213.5 542.5Q191 517 191 474V432Q191 413 190.5 398.5Q190 384 190 384H192Q192 384 199.5 392Q207 400 222.5 409.5Q238 419 261.5 427Q285 435 316 435Q419 435 461.5 379.5Q504 324 504 220Q504 107 450.5 48.5Q397 -10 281 -10Q157 -10 106 50Q55 110 55 237V449Q55 572 117.5 631Q180 690 296 690Q339 690 373.5 682.5Q408 675 431.5 666Q455 657 467.5 649.5Q480 642 480 642ZM191 216Q190 160 212.5 137Q235 114 278 114Q327 114 347.5 138Q368 162 368 217Q368 267 349 291Q330 315 283 315Q261 315 244.5 309.5Q228 304 216.5 297Q205 290 198.5 283.5Q192 277 191 275Z" glyph-name="six.ss02" horiz-adv-x="544" /><glyph d="M42 243V287Q42 406 85.5 483Q129 560 181 603.5Q233 647 276.5 663.5Q320 680 320 680H413V576Q405 576 373.5 567.5Q342 559 305 537.5Q268 516 235 478.5Q202 441 190 384H193Q193 384 201.5 392.5Q210 401 227.5 410.5Q245 420 272 428.5Q299 437 334 437Q435 437 478 376.5Q521 316 521 223Q521 114 460 53Q399 -8 282 -8Q164 -8 103 55Q42 118 42 243ZM176 216Q176 165 201 134.5Q226 104 282 104Q334 104 360.5 131Q387 158 387 217Q387 284 357.5 305.5Q328 327 291 327Q258 327 235.5 320.5Q213 314 200 306.5Q187 299 181.5 292.5Q176 286 176 286Z" glyph-name="six.tf" horiz-adv-x="560" /><glyph d="M266 680H370V596L115 0H11V84Z" glyph-name="slash" horiz-adv-x="381" unicode="/" /><glyph glyph-name="space" horiz-adv-x="200" unicode=" " /><glyph d="M316 206Q316 167 303.5 145Q291 123 291 123H481V0H69V123H154Q154 123 160 126.5Q166 130 172.5 137.5Q179 145 185 157.5Q191 170 191 189Q191 211 186 229.5Q181 248 174 267H69V383H124Q109 419 101.5 448Q94 477 94 512Q94 596 150 643Q206 690 305 690Q348 690 381 683.5Q414 677 436 669Q458 661 469.5 654.5Q481 648 481 648V539H378Q378 539 375.5 544Q373 549 365.5 555.5Q358 562 343.5 567Q329 572 304 572Q261 572 243.5 551.5Q226 531 226 499Q226 475 236 448Q246 421 263 383H399V267H309Q313 251 314.5 235.5Q316 220 316 206Z" glyph-name="sterling" horiz-adv-x="511" unicode="&#163;" /><glyph d="M11 407V518H90V644H222V518H298V407H222V163Q222 138 234 124.5Q246 111 271 111H292V0H178Q178 0 164 6Q150 12 134 28.5Q118 45 104 74.5Q90 104 90 150V407Z" glyph-name="t" horiz-adv-x="326" unicode="t" /><glyph d="M22 338H101V407H22V518H101V644H233V518H309V407H233V338H309V240H233V163Q233 138 245 124.5Q257 111 282 111H303V0H189Q189 0 175 6Q161 12 145 28.5Q129 45 115 74.5Q101 104 101 150V240H22Z" glyph-name="tbar" horiz-adv-x="348" unicode="&#359;" /><glyph d="M290 550Q290 550 294 565.5Q298 581 303 607Q308 633 312 667.5Q316 702 316 740H450V689Q431 618 413 584Q395 550 395 550ZM11 407V518H90V644H222V518H298V407H222V163Q222 138 234 124.5Q246 111 271 111H292V0H178Q178 0 164 6Q150 12 134 28.5Q118 45 104 74.5Q90 104 90 150V407Z" glyph-name="tcaron" horiz-adv-x="444" unicode="&#357;" /><glyph d="M324 -8Q274 -8 241.5 7.5Q209 23 198 33H194Q194 33 194.5 23Q195 13 196 -2Q197 -17 197.5 -34Q198 -51 198 -66V-173H70V740H198V557Q198 547 197.5 531Q197 515 196 500.5Q195 486 194.5 475.5Q194 465 194 465H198Q198 465 206.5 474.5Q215 484 233 495.5Q251 507 278 516.5Q305 526 341 526Q396 526 431.5 506.5Q467 487 486.5 453Q506 419 513.5 372Q521 325 521 272V244Q521 197 512 151.5Q503 106 481 70.5Q459 35 421 13.5Q383 -8 324 -8ZM301 414Q276 414 256.5 407.5Q237 401 224 394Q211 387 204.5 380.5Q198 374 198 374V132Q198 132 222.5 118.5Q247 105 294 105Q327 105 346.5 118Q366 131 375.5 151.5Q385 172 388 198.5Q391 225 391 251V265Q391 291 389.5 317.5Q388 344 379 365.5Q370 387 352 400.5Q334 414 301 414Z" glyph-name="thorn" horiz-adv-x="564" unicode="&#254;" /><glyph d="M36 33V144H143Q143 144 160 129Q177 114 234 114Q292 114 314.5 137Q337 160 337 197Q337 230 321 256Q305 282 255 282Q227 282 211 276Q195 270 195 270H103V383L286 556V558Q286 558 276.5 558Q267 558 253 557.5Q239 557 224 557Q209 557 199 557H49V680H450V555L335 450Q326 441 313 430Q300 419 289 409.5Q278 400 270 393Q262 386 262 386V384Q262 384 277.5 387Q293 390 315 390Q347 390 375.5 379Q404 368 425.5 345Q447 322 459.5 287Q472 252 472 205Q472 106 410.5 50Q349 -6 230 -6Q186 -6 149.5 0Q113 6 88 13.5Q63 21 49.5 27Q36 33 36 33Z" glyph-name="three" horiz-adv-x="508" unicode="3" /><glyph d="M36 101H121Q121 101 132.5 90.5Q144 80 176 80Q203 80 215.5 92.5Q228 105 228 128Q228 152 214.5 162Q201 172 181 172Q162 172 150 167.5Q138 163 138 163H72V227L183 319V320Q183 320 169.5 319.5Q156 319 131 319H42V408H312V320L236 253Q228 246 217 239.5Q206 233 206 233V232Q206 232 213.5 234Q221 236 237 236Q280 236 305.5 207.5Q331 179 331 127Q331 67 290 29.5Q249 -8 168 -8Q108 -8 72 5.5Q36 19 36 19Z" glyph-name="three.dnom" horiz-adv-x="352" /><glyph d="M36 373H121Q121 373 132.5 362.5Q144 352 176 352Q203 352 215.5 364.5Q228 377 228 400Q228 424 214.5 434Q201 444 181 444Q162 444 150 439.5Q138 435 138 435H72V499L183 591V592Q183 592 169.5 591.5Q156 591 131 591H42V680H312V592L236 525Q228 518 217 511.5Q206 505 206 505V504Q206 504 213.5 506Q221 508 237 508Q280 508 305.5 479.5Q331 451 331 399Q331 339 290 301.5Q249 264 168 264Q108 264 72 277.5Q36 291 36 291Z" glyph-name="three.numr" horiz-adv-x="352" /><glyph d="M44 20H151Q151 20 168.5 5.5Q186 -9 234 -9Q292 -9 311 21Q330 51 330 84Q330 121 307.5 141.5Q285 162 245 162Q222 162 207.5 156Q193 150 193 150H101V265L274 422V424Q274 424 264.5 424Q255 424 242 423.5Q229 423 214 423Q199 423 189 423H46V538H433V414L323 314Q314 305 300.5 295Q287 285 274.5 276Q262 267 253 261Q244 255 244 255L245 253Q245 253 260.5 257.5Q276 262 300 262Q330 262 359.5 253Q389 244 412 224.5Q435 205 449.5 172Q464 139 464 92Q464 -7 401 -63Q338 -119 224 -119Q136 -119 90 -104Q44 -89 44 -89Z" glyph-name="three.osf" horiz-adv-x="497" /><glyph d="M46 528V642Q46 642 58.5 649Q71 656 96 664Q121 672 158.5 679Q196 686 246 686Q368 686 422 636Q476 586 476 501Q476 464 463.5 434.5Q451 405 436.5 384.5Q422 364 409.5 353Q397 342 397 342V340Q397 340 409.5 331.5Q422 323 436.5 305.5Q451 288 463.5 260Q476 232 476 194Q476 100 417 47Q358 -6 238 -6Q190 -6 153 1Q116 8 91 17Q66 26 53 33Q40 40 40 40V149H147Q147 149 150 143Q153 137 163 130Q173 123 191.5 117Q210 111 241 111Q293 111 317 134.5Q341 158 341 200Q341 222 332 237Q323 252 313 261Q303 270 294 274Q285 278 285 278H123V401H285Q285 401 293.5 407Q302 413 312.5 424Q323 435 331.5 451.5Q340 468 340 490Q340 530 316.5 550Q293 570 244 570Q216 570 198 563.5Q180 557 170 549Q160 541 156.5 534.5Q153 528 153 528Z" glyph-name="three.ss02" horiz-adv-x="531" /><glyph d="M57 33V144H164Q164 144 186 129Q208 114 265 114Q328 114 353 137Q378 160 378 197Q378 230 359.5 256Q341 282 286 282Q258 282 237 276Q216 270 216 270H124V385L325 556V558Q325 558 314 558Q303 558 288 557.5Q273 557 256.5 557Q240 557 230 557H70V680H491V553L376 448Q367 439 353 428.5Q339 418 326 408.5Q313 399 303.5 392.5Q294 386 294 386L295 384Q295 384 311 387Q327 390 349 390Q420 390 466.5 345Q513 300 513 205Q513 106 446.5 50Q380 -6 261 -6Q213 -6 175 0Q137 6 111 13.5Q85 21 71 27Q57 33 57 33Z" glyph-name="three.tf" horiz-adv-x="560" /><glyph d="M36 373H121Q121 373 132.5 362.5Q144 352 176 352Q203 352 215.5 364.5Q228 377 228 400Q228 424 214.5 434Q201 444 181 444Q162 444 150 439.5Q138 435 138 435H72V499L183 591V592Q183 592 169.5 591.5Q156 591 131 591H42V680H312V592L236 525Q228 518 217 511.5Q206 505 206 505V504Q206 504 213.5 506Q221 508 237 508Q280 508 305.5 479.5Q331 451 331 399Q331 339 290 301.5Q249 264 168 264Q108 264 72 277.5Q36 291 36 291ZM568 680H640V622L271 0H199V58ZM820 107Q820 53 784.5 22.5Q749 -8 671 -8Q593 -8 557 22.5Q521 53 521 107Q521 130 527.5 148Q534 166 541.5 178Q549 190 555.5 196.5Q562 203 562 203V205Q562 205 556 211Q550 217 543 228Q536 239 530 256Q524 273 524 295Q524 344 558.5 380Q593 416 671 416Q749 416 783 380Q817 344 817 295Q817 273 811 256Q805 239 798 228Q791 217 785 211Q779 205 779 205V203Q779 203 785.5 196.5Q792 190 799.5 178Q807 166 813.5 148Q820 130 820 107ZM623 288Q623 267 633.5 255.5Q644 244 644 244H697Q697 244 707.5 255.5Q718 267 718 288Q718 305 707 317.5Q696 330 671 330Q645 330 634 317.5Q623 305 623 288ZM620 120Q620 101 631.5 89.5Q643 78 671 78Q698 78 709.5 89.5Q721 101 721 120Q721 142 709 152Q697 162 697 162H644Q644 162 632 152Q620 142 620 120Z" glyph-name="threeeighths" horiz-adv-x="853" unicode="&#8540;" /><glyph d="M36 373H121Q121 373 132.5 362.5Q144 352 176 352Q203 352 215.5 364.5Q228 377 228 400Q228 424 214.5 434Q201 444 181 444Q162 444 150 439.5Q138 435 138 435H72V499L183 591V592Q183 592 169.5 591.5Q156 591 131 591H42V680H312V592L236 525Q228 518 217 511.5Q206 505 206 505V504Q206 504 213.5 506Q221 508 237 508Q280 508 305.5 479.5Q331 451 331 399Q331 339 290 301.5Q249 264 168 264Q108 264 72 277.5Q36 291 36 291ZM568 680H640V622L271 0H199V58ZM487 71V153L596 408H760V158H811V71H760V0H658V71ZM584 158H658V328H652Q652 328 642.5 301.5Q633 275 619 241Z" glyph-name="threequarters" horiz-adv-x="833" unicode="&#190;" /><glyph d="M12 596V679Q12 679 18.5 686.5Q25 694 38 702.5Q51 711 72.5 718.5Q94 726 123 726Q144 726 160.5 722.5Q177 719 193 714L220 705Q233 701 243 698Q253 695 269 695Q299 695 308 709.5Q317 724 317 724H392V641Q392 641 385.5 633.5Q379 626 366 617.5Q353 609 331.5 601.5Q310 594 281 594Q260 594 243.5 597.5Q227 601 211 606L184 615Q171 619 161 622Q151 625 135 625Q105 625 96 610.5Q87 596 87 596Z" glyph-name="tilde" horiz-adv-x="404" unicode="&#732;" /><glyph d="M12 596V679Q12 679 18.5 686.5Q25 694 38 702.5Q51 711 72.5 718.5Q94 726 123 726Q144 726 160.5 722.5Q177 719 193 714L220 705Q233 701 243 698Q253 695 269 695Q299 695 308 709.5Q317 724 317 724H392V641Q392 641 385.5 633.5Q379 626 366 617.5Q353 609 331.5 601.5Q310 594 281 594Q260 594 243.5 597.5Q227 601 211 606L184 615Q171 619 161 622Q151 625 135 625Q105 625 96 610.5Q87 596 87 596Z" glyph-name="tildecomb" horiz-adv-x="404" unicode="&#771;" /><glyph d="M12 746V829Q12 829 18.5 836.5Q25 844 38 852.5Q51 861 72.5 868.5Q94 876 123 876Q144 876 160.5 872.5Q177 869 193 864L220 855Q233 851 243 848Q253 845 269 845Q299 845 308 859.5Q317 874 317 874H392V791Q392 791 385.5 783.5Q379 776 366 767.5Q353 759 331.5 751.5Q310 744 281 744Q260 744 243.5 747.5Q227 751 211 756L184 765Q171 769 161 772Q151 775 135 775Q105 775 96 760.5Q87 746 87 746Z" glyph-name="tildecomb.case" horiz-adv-x="404" /><glyph d="M130 308V587H44V680H318L304 587H233V308ZM355 308V680H493L522 578Q532 541 538 520.5Q544 500 544 500H546Q546 500 552 520.5Q558 541 568 578L597 680H735V308H637V446Q637 464 637.5 485.5Q638 507 638.5 525.5Q639 544 639.5 556.5Q640 569 640 569H637L586 390H504L453 569H450Q450 569 450.5 556.5Q451 544 451.5 525.5Q452 507 452.5 485.5Q453 464 453 446V308Z" glyph-name="trademark" horiz-adv-x="790" unicode="&#8482;" /><glyph d="M40 532V643Q40 643 53.5 649.5Q67 656 92 664.5Q117 673 154 679.5Q191 686 238 686Q354 686 409.5 638.5Q465 591 464 494Q463 424 433.5 375.5Q404 327 344 266L208 127V125Q208 125 219 125.5Q230 126 245 126Q260 126 276.5 126.5Q293 127 305 127H466V0H37V127L269 372Q289 394 308.5 425Q328 456 328 490Q328 527 307 548.5Q286 570 236 570Q209 570 191.5 564Q174 558 164 551Q154 544 150.5 538Q147 532 147 532Z" glyph-name="two" horiz-adv-x="502" unicode="2" /><glyph d="M311 0H35L34 102L178 234Q199 253 205.5 264.5Q212 276 212 288Q212 303 201.5 313Q191 323 165 323Q134 323 124.5 311.5Q115 300 115 300H32V386Q32 386 69.5 401Q107 416 174 416Q240 416 278 384.5Q316 353 316 296Q316 252 298.5 223Q281 194 247 165L159 89V88Q159 88 173 88.5Q187 89 200 89H311Z" glyph-name="two.dnom" horiz-adv-x="346" /><glyph d="M311 272H35L34 374L178 506Q199 525 205.5 536.5Q212 548 212 560Q212 575 201.5 585Q191 595 165 595Q134 595 124.5 583.5Q115 572 115 572H32V658Q32 658 69.5 673Q107 688 174 688Q240 688 278 656.5Q316 625 316 568Q316 524 298.5 495Q281 466 247 437L159 361V360Q159 360 173 360.5Q187 361 200 361H311Z" glyph-name="two.numr" horiz-adv-x="346" /><glyph d="M48 397V499Q48 499 60 506.5Q72 514 97 523.5Q122 533 160 540.5Q198 548 250 548Q343 548 397 506Q451 464 451 383Q451 343 433.5 300Q416 257 350 208L274 151Q247 131 234 122.5Q221 114 221 114V112Q221 112 249.5 112.5Q278 113 321 113H459V0H48V127L260 291Q294 318 306.5 336Q319 354 319 378Q319 404 299.5 420Q280 436 232 436Q203 436 186 430Q169 424 160 416.5Q151 409 148.5 403Q146 397 146 397Z" glyph-name="two.osf" horiz-adv-x="503" /><glyph d="M47 528V643Q47 643 60 649.5Q73 656 98 664.5Q123 673 160 679.5Q197 686 246 686Q362 686 417 639Q472 592 472 494Q472 425 443.5 379Q415 333 344 289L252 232Q217 210 197 186.5Q177 163 177 131V122Q177 122 186 122Q195 122 207.5 122.5Q220 123 234.5 123Q249 123 261 123H466V0H37V89Q37 173 68 229.5Q99 286 180 336L272 393Q304 413 320 436Q336 459 336 490Q336 527 314 548.5Q292 570 242 570Q213 570 195 563.5Q177 557 168 549Q159 541 156.5 534.5Q154 528 154 528Z" glyph-name="two.ss02" horiz-adv-x="505" /><glyph d="M58 532V643Q58 643 74 649.5Q90 656 118 664.5Q146 673 185 679.5Q224 686 271 686Q390 686 446 637.5Q502 589 502 492Q502 422 474.5 372.5Q447 323 384 266L229 127V124Q229 124 242.5 124.5Q256 125 274.5 125.5Q293 126 312 126.5Q331 127 343 127H504V0H55V127L310 372Q332 392 349 417Q366 442 366 486Q366 526 342 548Q318 570 264 570Q237 570 218 564Q199 558 187 551Q175 544 170 538Q165 532 165 532Z" glyph-name="two.tf" horiz-adv-x="560" /><glyph d="M65 518H197V182Q197 144 214.5 124Q232 104 278 104Q299 104 316.5 110Q334 116 346 122.5Q358 129 365 135Q372 141 372 141V518H504V0H393L376 57H373Q373 57 364 47Q355 37 336.5 24.5Q318 12 289 2Q260 -8 221 -8Q146 -8 105.5 32.5Q65 73 65 162Z" glyph-name="u" horiz-adv-x="574" unicode="u" /><glyph d="M303 740H416V684L329 571H219ZM65 518H197V182Q197 144 214.5 124Q232 104 278 104Q299 104 316.5 110Q334 116 346 122.5Q358 129 365 135Q372 141 372 141V518H504V0H393L376 57H373Q373 57 364 47Q355 37 336.5 24.5Q318 12 289 2Q260 -8 221 -8Q146 -8 105.5 32.5Q65 73 65 162Z" glyph-name="uacute" horiz-adv-x="574" unicode="&#250;" /><glyph d="M139 723H222Q222 723 222.5 713Q223 703 229 690.5Q235 678 248 668Q261 658 285 658Q309 658 322 668Q335 678 341 690.5Q347 703 347.5 713Q348 723 348 723H430V658Q430 658 424 644.5Q418 631 401.5 615Q385 599 357 585.5Q329 572 285 572Q241 572 212.5 585.5Q184 599 168 615Q152 631 145.5 644.5Q139 658 139 658ZM65 518H197V182Q197 144 214.5 124Q232 104 278 104Q299 104 316.5 110Q334 116 346 122.5Q358 129 365 135Q372 141 372 141V518H504V0H393L376 57H373Q373 57 364 47Q355 37 336.5 24.5Q318 12 289 2Q260 -8 221 -8Q146 -8 105.5 32.5Q65 73 65 162Z" glyph-name="ubreve" horiz-adv-x="574" unicode="&#365;" /><glyph d="M138 569V628L234 740H336L432 628V569H357L320 615Q308 629 297.5 643.5Q287 658 287 658H283Q283 658 272.5 643.5Q262 629 250 615L213 569ZM65 518H197V182Q197 144 214.5 124Q232 104 278 104Q299 104 316.5 110Q334 116 346 122.5Q358 129 365 135Q372 141 372 141V518H504V0H393L376 57H373Q373 57 364 47Q355 37 336.5 24.5Q318 12 289 2Q260 -8 221 -8Q146 -8 105.5 32.5Q65 73 65 162Z" glyph-name="ucircumflex" horiz-adv-x="574" unicode="&#251;" /><glyph d="M128 651Q128 681 146 699Q164 717 199 717Q236 717 253 698Q270 679 270 651V642Q270 612 252 594Q234 576 199 576Q162 576 145 595Q128 614 128 642ZM300 651Q300 681 318 699Q336 717 371 717Q408 717 425 698Q442 679 442 651V642Q442 612 424 594Q406 576 371 576Q334 576 317 595Q300 614 300 642ZM65 518H197V182Q197 144 214.5 124Q232 104 278 104Q299 104 316.5 110Q334 116 346 122.5Q358 129 365 135Q372 141 372 141V518H504V0H393L376 57H373Q373 57 364 47Q355 37 336.5 24.5Q318 12 289 2Q260 -8 221 -8Q146 -8 105.5 32.5Q65 73 65 162Z" glyph-name="udieresis" horiz-adv-x="574" unicode="&#252;" /><glyph d="M259 740 343 571H233L146 684V740ZM65 518H197V182Q197 144 214.5 124Q232 104 278 104Q299 104 316.5 110Q334 116 346 122.5Q358 129 365 135Q372 141 372 141V518H504V0H393L376 57H373Q373 57 364 47Q355 37 336.5 24.5Q318 12 289 2Q260 -8 221 -8Q146 -8 105.5 32.5Q65 73 65 162Z" glyph-name="ugrave" horiz-adv-x="574" unicode="&#249;" /><glyph d="M311 661 234 571H130L217 722H311ZM485 661 408 571H304L391 722H485ZM65 518H197V182Q197 144 214.5 124Q232 104 278 104Q299 104 316.5 110Q334 116 346 122.5Q358 129 365 135Q372 141 372 141V518H504V0H393L376 57H373Q373 57 364 47Q355 37 336.5 24.5Q318 12 289 2Q260 -8 221 -8Q146 -8 105.5 32.5Q65 73 65 162Z" glyph-name="uhungarumlaut" horiz-adv-x="574" unicode="&#369;" /><glyph d="M135 707H434V611H135ZM65 518H197V182Q197 144 214.5 124Q232 104 278 104Q299 104 316.5 110Q334 116 346 122.5Q358 129 365 135Q372 141 372 141V518H504V0H393L376 57H373Q373 57 364 47Q355 37 336.5 24.5Q318 12 289 2Q260 -8 221 -8Q146 -8 105.5 32.5Q65 73 65 162Z" glyph-name="umacron" horiz-adv-x="574" unicode="&#363;" /><glyph d="M0 -50H500V-172H0Z" glyph-name="underscore" horiz-adv-x="500" unicode="_" /><glyph d="M311 472H35L34 574L178 706Q199 725 205.5 736.5Q212 748 212 760Q212 775 201.5 785Q191 795 165 795Q134 795 124.5 783.5Q115 772 115 772H32V858Q32 858 69.5 873Q107 888 174 888Q240 888 278 856.5Q316 825 316 768Q316 724 298.5 695Q281 666 247 637L159 561V560Q159 560 173 560.5Q187 561 200 561H311Z" glyph-name="uni00B2" horiz-adv-x="346" unicode="&#178;" /><glyph d="M36 573H121Q121 573 132.5 562.5Q144 552 176 552Q203 552 215.5 564.5Q228 577 228 600Q228 624 214.5 634Q201 644 181 644Q162 644 150 639.5Q138 635 138 635H72V699L183 791V792Q183 792 169.5 791.5Q156 791 131 791H42V880H312V792L236 725Q228 718 217 711.5Q206 705 206 705V704Q206 704 213.5 706Q221 708 237 708Q280 708 305.5 679.5Q331 651 331 599Q331 539 290 501.5Q249 464 168 464Q108 464 72 477.5Q36 491 36 491Z" glyph-name="uni00B3" horiz-adv-x="352" unicode="&#179;" /><glyph d="M65 518H197V182Q197 144 214.5 124Q232 104 278 104Q299 104 316.5 110Q334 116 346 122.5Q358 129 365 135Q372 141 372 141V518H504V0H393L376 57H373Q373 57 364 47Q355 37 336.5 24.5Q318 12 289 2Q260 -8 221 -8Q210 -8 199.5 -7Q189 -6 179 -4Q182 -32 185.5 -66Q189 -100 189 -127V-173H65Z" glyph-name="uni00B5" horiz-adv-x="574" unicode="&#181;" /><glyph d="M36 472V556L107 566V778H36V845L112 880H213V566L284 556V472Z" glyph-name="uni00B9" horiz-adv-x="307" unicode="&#185;" /><glyph d="M50 246V426Q50 562 120.5 624.5Q191 687 316 687Q369 687 408 675Q447 663 472.5 648Q498 633 510.5 621Q523 609 523 609V505H412Q412 505 408 514.5Q404 524 393.5 535.5Q383 547 363 556.5Q343 566 312 566Q246 566 216 532Q186 498 186 429V238Q186 167 217 135Q248 103 311 103Q336 103 354 108.5Q372 114 384 120.5Q396 127 402 132.5Q408 138 408 138V282H304V401H533V0H435L418 46H415Q415 46 406 37.5Q397 29 379 19Q361 9 334 0.5Q307 -8 270 -8Q162 -8 106 55Q50 118 50 246ZM159 -231Q159 -231 166 -215.5Q173 -200 181.5 -173Q190 -146 197 -108.5Q204 -71 204 -28H340V-77Q330 -118 316.5 -147.5Q303 -177 291 -195.5Q279 -214 270.5 -222.5Q262 -231 262 -231Z" glyph-name="uni0122" horiz-adv-x="600" unicode="&#290;" /><glyph d="M357 772Q357 772 349.5 756.5Q342 741 333.5 714Q325 687 317.5 649.5Q310 612 310 569H178V618Q188 659 201 688.5Q214 718 226 736.5Q238 755 246 763.5Q254 772 254 772ZM35 -62Q35 -36 45 -16Q55 4 67 17Q79 30 89 37Q99 44 99 44V46Q99 46 93 50Q87 54 79.5 63.5Q72 73 65.5 88Q59 103 59 124Q59 145 65 162Q71 179 78.5 191Q86 203 92.5 210Q99 217 99 217V218Q99 218 91.5 226.5Q84 235 74.5 251.5Q65 268 57.5 293Q50 318 50 350V355Q50 427 94.5 474Q139 521 249 521Q302 521 331.5 514Q361 507 361 507H362Q365 535 376.5 554Q388 573 400.5 583.5Q413 594 423 598.5Q433 603 433 603H530V497H507Q482 497 471.5 483Q461 469 461 446V341Q461 269 412 225Q363 181 258 181H177Q177 181 171.5 173.5Q166 166 166 153Q166 141 172.5 133Q179 125 192 125H354Q425 125 464.5 88Q504 51 504 -14Q504 -51 494.5 -81.5Q485 -112 459 -134Q433 -156 386 -168.5Q339 -181 265 -181H239Q175 -181 135 -172Q95 -163 73 -147.5Q51 -132 43 -110Q35 -88 35 -62ZM171 344Q171 316 181.5 303.5Q192 291 192 291H250Q298 291 319 304.5Q340 318 340 350V399Q340 399 319 405Q298 411 252 411Q206 411 188.5 395.5Q171 380 171 347ZM160 -34Q161 -56 178 -68.5Q195 -81 240 -81H279Q346 -81 365 -66.5Q384 -52 384 -28Q384 -13 375 1Q366 15 341 15H175Q175 15 167 1.5Q159 -12 160 -34Z" glyph-name="uni0123" horiz-adv-x="532" unicode="&#291;" /></font>
</defs>
</svg>
