<?xml version="1.0" standalone="no"?><!DOCTYPE svg PUBLIC "-//W3C//DTD SVG 1.1//EN" "http://www.w3.org/Graphics/SVG/1.1/DTD/svg11.dtd" ><svg version="1.1" xmlns="http://www.w3.org/2000/svg"><defs><font horiz-adv-x="0" id="font"><font-face ascent="790" bbox="-161 -212 1243 1005" cap-height="680" descent="-210" font-family="FC BARCELONA" font-stretch="normal" font-style="normal" font-weight="500" units-per-em="1000" x-height="513" /><missing-glyph d="M0 0V680H500V0ZM60 620V60H440V620Z" horiz-adv-x="500" /><glyph d="M33 0V61L210 680H385L562 61V0H470L426 160Q394 153 361.5 149Q329 145 295 145Q262 145 230 148.5Q198 152 167 159L123 0ZM244 439 192 249Q217 244 242.5 241Q268 238 295 238Q322 238 348.5 241Q375 244 401 250L348 439Q341 466 334 492.5Q327 519 322 540.5Q317 562 314 575Q311 588 311 588H283Q283 588 280 575Q277 562 271.5 540.5Q266 519 259 492.5Q252 466 244 439Z" glyph-name="A" horiz-adv-x="595" unicode="A" /><glyph d="M16 0V61L284 680H799L784 586H496V389H753V295H496V94H789V0H393V164H165L95 0ZM281 435 206 260H393V584H343Q343 584 337.5 570.5Q332 557 323.5 535.5Q315 514 304 487.5Q293 461 281 435Z" glyph-name="AE" horiz-adv-x="841" unicode="&#198;" /><glyph d="M606 896V824L406 725V803L543 896ZM16 0V61L284 680H799L784 586H496V389H753V295H496V94H789V0H393V164H165L95 0ZM281 435 206 260H393V584H343Q343 584 337.5 570.5Q332 557 323.5 535.5Q315 514 304 487.5Q293 461 281 435Z" glyph-name="AEacute" horiz-adv-x="841" unicode="&#508;" /><glyph d="M428 896V824L228 725V803L365 896ZM33 0V61L210 680H385L562 61V0H470L426 160Q394 153 361.5 149Q329 145 295 145Q262 145 230 148.5Q198 152 167 159L123 0ZM244 439 192 249Q217 244 242.5 241Q268 238 295 238Q322 238 348.5 241Q375 244 401 250L348 439Q341 466 334 492.5Q327 519 322 540.5Q317 562 314 575Q311 588 311 588H283Q283 588 280 575Q277 562 271.5 540.5Q266 519 259 492.5Q252 466 244 439Z" glyph-name="Aacute" horiz-adv-x="595" unicode="&#193;" /><glyph d="M159 880H228Q228 880 229.5 870Q231 860 237.5 848.5Q244 837 258 827Q272 817 298 817Q324 817 338 827Q352 837 358.5 848.5Q365 860 366.5 870Q368 880 368 880H436V826Q436 826 430 813.5Q424 801 408.5 785.5Q393 770 366 757.5Q339 745 298 745Q257 745 230 757.5Q203 770 187.5 785.5Q172 801 165.5 813.5Q159 826 159 826ZM33 0V61L210 680H385L562 61V0H470L426 160Q394 153 361.5 149Q329 145 295 145Q262 145 230 148.5Q198 152 167 159L123 0ZM244 439 192 249Q217 244 242.5 241Q268 238 295 238Q322 238 348.5 241Q375 244 401 250L348 439Q341 466 334 492.5Q327 519 322 540.5Q317 562 314 575Q311 588 311 588H283Q283 588 280 575Q277 562 271.5 540.5Q266 519 259 492.5Q252 466 244 439Z" glyph-name="Abreve" horiz-adv-x="595" unicode="&#258;" /><glyph d="M166 737V780L263 868H334L431 780V737H368L334 769Q321 782 311 791.5Q301 801 301 801H296Q296 801 286.5 791.5Q277 782 264 769L229 737ZM33 0V61L210 680H385L562 61V0H470L426 160Q394 153 361.5 149Q329 145 295 145Q262 145 230 148.5Q198 152 167 159L123 0ZM244 439 192 249Q217 244 242.5 241Q268 238 295 238Q322 238 348.5 241Q375 244 401 250L348 439Q341 466 334 492.5Q327 519 322 540.5Q317 562 314 575Q311 588 311 588H283Q283 588 280 575Q277 562 271.5 540.5Q266 519 259 492.5Q252 466 244 439Z" glyph-name="Acircumflex" horiz-adv-x="595" unicode="&#194;" /><glyph d="M161 805Q161 830 175.5 845Q190 860 220 860Q251 860 265 844.5Q279 829 279 805V797Q279 772 264.5 757Q250 742 220 742Q189 742 175 758Q161 774 161 797ZM316 805Q316 830 331 845Q346 860 375 860Q406 860 420 844.5Q434 829 434 805V797Q434 772 419.5 757Q405 742 375 742Q345 742 330.5 758Q316 774 316 797ZM33 0V61L210 680H385L562 61V0H470L426 160Q394 153 361.5 149Q329 145 295 145Q262 145 230 148.5Q198 152 167 159L123 0ZM244 439 192 249Q217 244 242.5 241Q268 238 295 238Q322 238 348.5 241Q375 244 401 250L348 439Q341 466 334 492.5Q327 519 322 540.5Q317 562 314 575Q311 588 311 588H283Q283 588 280 575Q277 562 271.5 540.5Q266 519 259 492.5Q252 466 244 439Z" glyph-name="Adieresis" horiz-adv-x="595" unicode="&#196;" /><glyph d="M170 896H233L370 803V725L170 824ZM33 0V61L210 680H385L562 61V0H470L426 160Q394 153 361.5 149Q329 145 295 145Q262 145 230 148.5Q198 152 167 159L123 0ZM244 439 192 249Q217 244 242.5 241Q268 238 295 238Q322 238 348.5 241Q375 244 401 250L348 439Q341 466 334 492.5Q327 519 322 540.5Q317 562 314 575Q311 588 311 588H283Q283 588 280 575Q277 562 271.5 540.5Q266 519 259 492.5Q252 466 244 439Z" glyph-name="Agrave" horiz-adv-x="595" unicode="&#192;" /><glyph d="M153 860H441V781H153ZM33 0V61L210 680H385L562 61V0H470L426 160Q394 153 361.5 149Q329 145 295 145Q262 145 230 148.5Q198 152 167 159L123 0ZM244 439 192 249Q217 244 242.5 241Q268 238 295 238Q322 238 348.5 241Q375 244 401 250L348 439Q341 466 334 492.5Q327 519 322 540.5Q317 562 314 575Q311 588 311 588H283Q283 588 280 575Q277 562 271.5 540.5Q266 519 259 492.5Q252 466 244 439Z" glyph-name="Amacron" horiz-adv-x="595" unicode="&#256;" /><glyph d="M33 0V61L210 680H385L562 61V0L528 -33Q510 -49 501.5 -60.5Q493 -72 493 -85Q493 -98 503.5 -106.5Q514 -115 530 -115H548V-181H517Q471 -181 443.5 -157.5Q416 -134 416 -92Q416 -62 431.5 -39Q447 -16 469 5L426 160Q394 153 361.5 149Q329 145 295 145Q262 145 230 148.5Q198 152 167 159L123 0ZM244 439 192 249Q217 244 242.5 241Q268 238 295 238Q322 238 348.5 241Q375 244 401 250L348 439Q341 466 334 492.5Q327 519 322 540.5Q317 562 314 575Q311 588 311 588H283Q283 588 280 575Q277 562 271.5 540.5Q266 519 259 492.5Q252 466 244 439Z" glyph-name="Aogonek" horiz-adv-x="595" unicode="&#260;" /><glyph d="M33 0V61L206 665Q196 678 191 695.5Q186 713 186 733Q186 784 217 814Q248 844 298 844Q348 844 379 814Q410 784 410 733Q410 713 405 695Q400 677 390 664L562 61V0H470L426 160Q394 153 361.5 149Q329 145 295 145Q262 145 230 148.5Q198 152 167 159L123 0ZM252 733Q252 713 263.5 699.5Q275 686 298 686Q321 686 332.5 699.5Q344 713 344 733Q344 753 332.5 766.5Q321 780 298 780Q275 780 263.5 766.5Q252 753 252 733ZM244 439 192 249Q217 244 242.5 241Q268 238 295 238Q322 238 348.5 241Q375 244 401 250L348 439Q341 466 334 492.5Q327 519 322 540.5Q317 562 314 575Q311 588 311 588H283Q283 588 280 575Q277 562 271.5 540.5Q266 519 259 492.5Q252 466 244 439Z" glyph-name="Aring" horiz-adv-x="595" unicode="&#197;" /><glyph d="M403 1005V933L203 834V912L340 1005ZM33 0V61L205 664Q195 677 190 695Q185 713 185 733Q185 784 216 814Q247 844 297 844Q347 844 378 814Q409 784 409 733Q409 713 404 695.5Q399 678 389 665L562 61V0H470L426 160Q394 153 361.5 149Q329 145 295 145Q262 145 230 148.5Q198 152 167 159L123 0ZM251 733Q251 713 262.5 699.5Q274 686 297 686Q320 686 331.5 699.5Q343 713 343 733Q343 753 331.5 766.5Q320 780 297 780Q274 780 262.5 766.5Q251 753 251 733ZM244 439 192 249Q217 244 242.5 241Q268 238 295 238Q322 238 348.5 241Q375 244 401 250L348 439Q341 466 334 492.5Q327 519 322 540.5Q317 562 314 575Q311 588 311 588H283Q283 588 280 575Q277 562 271.5 540.5Q266 519 259 492.5Q252 466 244 439Z" glyph-name="Aringacute" horiz-adv-x="595" unicode="&#506;" /><glyph d="M118 749V813Q118 813 123.5 820Q129 827 140.5 836Q152 845 171 852Q190 859 217 859Q237 859 257.5 854.5Q278 850 294 844L318 836Q331 830 343.5 827Q356 824 370 824Q400 824 408.5 838Q417 852 417 852H478V789Q478 789 472.5 782Q467 775 455.5 766Q444 757 425 750Q406 743 379 743Q358 743 338 747.5Q318 752 302 758L278 766Q264 771 251.5 774.5Q239 778 225 778Q195 778 186.5 763.5Q178 749 178 749ZM33 0V61L210 680H385L562 61V0H470L426 160Q394 153 361.5 149Q329 145 295 145Q262 145 230 148.5Q198 152 167 159L123 0ZM244 439 192 249Q217 244 242.5 241Q268 238 295 238Q322 238 348.5 241Q375 244 401 250L348 439Q341 466 334 492.5Q327 519 322 540.5Q317 562 314 575Q311 588 311 588H283Q283 588 280 575Q277 562 271.5 540.5Q266 519 259 492.5Q252 466 244 439Z" glyph-name="Atilde" horiz-adv-x="595" unicode="&#195;" /><glyph d="M85 0V680H313Q424 680 475.5 632Q527 584 527 501Q527 459 514 429.5Q501 400 485.5 381.5Q470 363 457 354.5Q444 346 444 346V344Q444 344 458.5 335Q473 326 490 307Q507 288 521.5 258.5Q536 229 536 189Q536 101 482.5 50.5Q429 0 319 0ZM315 589H186V389H357Q357 389 367.5 394Q378 399 391 411Q404 423 414.5 443.5Q425 464 425 494Q425 540 396.5 564.5Q368 589 315 589ZM358 299H186V91H326Q377 91 404.5 119Q432 147 433 195Q433 224 421 244Q409 264 395.5 276Q382 288 370 293.5Q358 299 358 299Z" glyph-name="B" horiz-adv-x="586" unicode="B" /><glyph d="M60 258V422Q60 556 122.5 622.5Q185 689 304 689Q363 689 403 674Q443 659 466.5 641Q490 623 500 608Q510 593 510 593V514H423Q423 514 420.5 527Q418 540 406.5 555Q395 570 371 583Q347 596 305 596Q230 596 197 554Q164 512 164 428V252Q164 168 197 126Q230 84 305 84Q347 84 371 97Q395 110 406.5 125Q418 140 420.5 153Q423 166 423 166H510V87Q510 87 500 72Q490 57 466.5 39Q443 21 403 6Q363 -9 304 -9Q185 -9 122.5 57.5Q60 124 60 258Z" glyph-name="C" horiz-adv-x="554" unicode="C" /><glyph d="M429 896V824L229 725V803L366 896ZM60 258V422Q60 556 122.5 622.5Q185 689 304 689Q363 689 403 674Q443 659 466.5 641Q490 623 500 608Q510 593 510 593V514H423Q423 514 420.5 527Q418 540 406.5 555Q395 570 371 583Q347 596 305 596Q230 596 197 554Q164 512 164 428V252Q164 168 197 126Q230 84 305 84Q347 84 371 97Q395 110 406.5 125Q418 140 420.5 153Q423 166 423 166H510V87Q510 87 500 72Q490 57 466.5 39Q443 21 403 6Q363 -9 304 -9Q185 -9 122.5 57.5Q60 124 60 258Z" glyph-name="Cacute" horiz-adv-x="554" unicode="&#262;" /><glyph d="M169 868H232L267 836Q280 823 289.5 813.5Q299 804 299 804H304Q304 804 314 813.5Q324 823 337 836L371 868H434V825L337 737H266L169 825ZM60 258V422Q60 556 122.5 622.5Q185 689 304 689Q363 689 403 674Q443 659 466.5 641Q490 623 500 608Q510 593 510 593V514H423Q423 514 420.5 527Q418 540 406.5 555Q395 570 371 583Q347 596 305 596Q230 596 197 554Q164 512 164 428V252Q164 168 197 126Q230 84 305 84Q347 84 371 97Q395 110 406.5 125Q418 140 420.5 153Q423 166 423 166H510V87Q510 87 500 72Q490 57 466.5 39Q443 21 403 6Q363 -9 304 -9Q185 -9 122.5 57.5Q60 124 60 258Z" glyph-name="Ccaron" horiz-adv-x="554" unicode="&#268;" /><glyph d="M60 258V422Q60 556 122.5 622.5Q185 689 304 689Q363 689 403 674Q443 659 466.5 641Q490 623 500 608Q510 593 510 593V514H423Q423 514 420.5 527Q418 540 406.5 555Q395 570 371 583Q347 596 305 596Q230 596 197 554Q164 512 164 428V252Q164 168 197 126Q230 84 305 84Q347 84 371 97Q395 110 406.5 125Q418 140 420.5 153Q423 166 423 166H510V87Q510 87 502 74.5Q494 62 475.5 46.5Q457 31 426.5 15.5Q396 0 351 -6Q350 -41 341.5 -69Q333 -97 323 -115.5Q313 -134 305 -144Q297 -154 297 -154H224V-101Q224 -101 230 -94.5Q236 -88 242.5 -76.5Q249 -65 255 -47Q261 -29 261 -7Q162 4 111 70Q60 136 60 258Z" glyph-name="Ccedilla" horiz-adv-x="554" unicode="&#199;" /><glyph d="M169 737V780L266 868H337L434 780V737H371L337 769Q324 782 314 791.5Q304 801 304 801H299Q299 801 289.5 791.5Q280 782 267 769L232 737ZM60 258V422Q60 556 122.5 622.5Q185 689 304 689Q363 689 403 674Q443 659 466.5 641Q490 623 500 608Q510 593 510 593V514H423Q423 514 420.5 527Q418 540 406.5 555Q395 570 371 583Q347 596 305 596Q230 596 197 554Q164 512 164 428V252Q164 168 197 126Q230 84 305 84Q347 84 371 97Q395 110 406.5 125Q418 140 420.5 153Q423 166 423 166H510V87Q510 87 500 72Q490 57 466.5 39Q443 21 403 6Q363 -9 304 -9Q185 -9 122.5 57.5Q60 124 60 258Z" glyph-name="Ccircumflex" horiz-adv-x="554" unicode="&#264;" /><glyph d="M239 807Q239 833 254.5 849Q270 865 301 865Q331 865 346.5 849Q362 833 362 807V799Q362 773 346.5 757.5Q331 742 301 742Q270 742 254.5 757.5Q239 773 239 799ZM60 258V422Q60 556 122.5 622.5Q185 689 304 689Q363 689 403 674Q443 659 466.5 641Q490 623 500 608Q510 593 510 593V514H423Q423 514 420.5 527Q418 540 406.5 555Q395 570 371 583Q347 596 305 596Q230 596 197 554Q164 512 164 428V252Q164 168 197 126Q230 84 305 84Q347 84 371 97Q395 110 406.5 125Q418 140 420.5 153Q423 166 423 166H510V87Q510 87 500 72Q490 57 466.5 39Q443 21 403 6Q363 -9 304 -9Q185 -9 122.5 57.5Q60 124 60 258Z" glyph-name="Cdotaccent" horiz-adv-x="554" unicode="&#266;" /><glyph d="M309 0H85V680H309Q431 680 494 616Q557 552 557 416V264Q557 128 494 64Q431 0 309 0ZM305 587H188V93H305Q379 93 416 127.5Q453 162 453 251V429Q453 518 416 552.5Q379 587 305 587Z" glyph-name="D" horiz-adv-x="617" unicode="D" /><glyph d="M165 868H228L263 836Q276 823 285.5 813.5Q295 804 295 804H300Q300 804 310 813.5Q320 823 333 836L367 868H430V825L333 737H262L165 825ZM309 0H85V680H309Q431 680 494 616Q557 552 557 416V264Q557 128 494 64Q431 0 309 0ZM305 587H188V93H305Q379 93 416 127.5Q453 162 453 251V429Q453 518 416 552.5Q379 587 305 587Z" glyph-name="Dcaron" horiz-adv-x="617" unicode="&#270;" /><glyph d="M6 380H85V680H309Q431 680 494 616Q557 552 557 416V264Q557 128 494 64Q431 0 309 0H85V301H6ZM305 301H188V93H305Q379 93 416 127.5Q453 162 453 251V429Q453 518 416 552.5Q379 587 305 587H188V380H305Z" glyph-name="Dcroat" horiz-adv-x="617" unicode="&#272;" /><glyph d="M85 0V680H491L476 586H188V389H445V295H188V94H481V0Z" glyph-name="E" horiz-adv-x="533" unicode="E" /><glyph d="M417 896V824L217 725V803L354 896ZM85 0V680H491L476 586H188V389H445V295H188V94H481V0Z" glyph-name="Eacute" horiz-adv-x="533" unicode="&#201;" /><glyph d="M148 880H217Q217 880 218.5 870Q220 860 226.5 848.5Q233 837 247 827Q261 817 287 817Q313 817 327 827Q341 837 347.5 848.5Q354 860 355.5 870Q357 880 357 880H425V826Q425 826 419 813.5Q413 801 397.5 785.5Q382 770 355 757.5Q328 745 287 745Q246 745 219 757.5Q192 770 176.5 785.5Q161 801 154.5 813.5Q148 826 148 826ZM85 0V680H491L476 586H188V389H445V295H188V94H481V0Z" glyph-name="Ebreve" horiz-adv-x="533" unicode="&#276;" /><glyph d="M155 868H218L253 836Q266 823 275.5 813.5Q285 804 285 804H290Q290 804 300 813.5Q310 823 323 836L357 868H420V825L323 737H252L155 825ZM85 0V680H491L476 586H188V389H445V295H188V94H481V0Z" glyph-name="Ecaron" horiz-adv-x="533" unicode="&#282;" /><glyph d="M155 737V780L252 868H323L420 780V737H357L323 769Q310 782 300 791.5Q290 801 290 801H285Q285 801 275.5 791.5Q266 782 253 769L218 737ZM85 0V680H491L476 586H188V389H445V295H188V94H481V0Z" glyph-name="Ecircumflex" horiz-adv-x="533" unicode="&#202;" /><glyph d="M150 805Q150 830 164.5 845Q179 860 209 860Q240 860 254 844.5Q268 829 268 805V797Q268 772 253.5 757Q239 742 209 742Q178 742 164 758Q150 774 150 797ZM305 805Q305 830 320 845Q335 860 364 860Q395 860 409 844.5Q423 829 423 805V797Q423 772 408.5 757Q394 742 364 742Q334 742 319.5 758Q305 774 305 797ZM85 0V680H491L476 586H188V389H445V295H188V94H481V0Z" glyph-name="Edieresis" horiz-adv-x="533" unicode="&#203;" /><glyph d="M225 807Q225 833 240.5 849Q256 865 287 865Q317 865 332.5 849Q348 833 348 807V799Q348 773 332.5 757.5Q317 742 287 742Q256 742 240.5 757.5Q225 773 225 799ZM85 0V680H491L476 586H188V389H445V295H188V94H481V0Z" glyph-name="Edotaccent" horiz-adv-x="533" unicode="&#278;" /><glyph d="M157 896H220L357 803V725L157 824ZM85 0V680H491L476 586H188V389H445V295H188V94H481V0Z" glyph-name="Egrave" horiz-adv-x="533" unicode="&#200;" /><glyph d="M142 860H430V781H142ZM85 0V680H491L476 586H188V389H445V295H188V94H481V0Z" glyph-name="Emacron" horiz-adv-x="533" unicode="&#274;" /><glyph d="M85 0V680H195L410 313Q417 301 426.5 282.5Q436 264 445 246.5Q454 229 460 216Q466 203 466 203H468Q468 203 467 217.5Q466 232 465.5 254Q465 276 464 304Q463 332 463 359V680H564V-11Q564 -62 550 -93.5Q536 -125 519 -143Q502 -161 488 -167Q474 -173 474 -173H395V-88H399Q427 -88 445 -71.5Q463 -55 463 -11V45L247 413Q236 432 225 452.5Q214 473 205 489Q196 505 190.5 515.5Q185 526 185 526H182Q182 526 184 488Q186 450 186 400V0Z" glyph-name="Eng" horiz-adv-x="649" unicode="&#330;" /><glyph d="M85 0V680H491L476 586H188V389H445V295H188V94H481V0L447 -33Q429 -49 420.5 -60.5Q412 -72 412 -85Q412 -98 422.5 -106.5Q433 -115 449 -115H467V-181H436Q390 -181 362.5 -157.5Q335 -134 335 -92Q335 -64 348 -42.5Q361 -21 383 0Z" glyph-name="Eogonek" horiz-adv-x="533" unicode="&#280;" /><glyph d="M6 380H85V680H309Q431 680 494 616Q557 552 557 416V264Q557 128 494 64Q431 0 309 0H85V301H6ZM305 301H188V93H305Q379 93 416 127.5Q453 162 453 251V429Q453 518 416 552.5Q379 587 305 587H188V380H305Z" glyph-name="Eth" horiz-adv-x="617" unicode="&#208;" /><glyph d="M379 222H218Q221 150 248 117Q275 84 341 84Q377 84 398 94Q419 104 429.5 115.5Q440 127 443 137Q446 147 446 147H527V69Q527 69 517.5 57Q508 45 485.5 30Q463 15 427 3Q391 -9 339 -9Q225 -9 172 51.5Q119 112 115 222H34V301H115V379H34V458H115Q119 568 172 628.5Q225 689 339 689Q391 689 427 677Q463 665 485.5 650Q508 635 517.5 623Q527 611 527 611V533H446Q446 533 443 543Q440 553 429.5 564.5Q419 576 398 586Q377 596 341 596Q275 596 248 563Q221 530 218 458H379V379H218V301H379Z" glyph-name="Euro" horiz-adv-x="555" unicode="&#8364;" /><glyph d="M85 0V680H476L461 586H188V389H430V295H188V0Z" glyph-name="F" horiz-adv-x="494" unicode="F" /><glyph d="M60 257V419Q60 555 124.5 622Q189 689 311 689Q370 689 409.5 674Q449 659 473 640.5Q497 622 507.5 607Q518 592 518 592V514H432Q430 526 422 540.5Q414 555 399.5 567.5Q385 580 362.5 588Q340 596 309 596Q234 596 199 554Q164 512 164 428V246Q164 161 197.5 119.5Q231 78 305 78Q334 78 356.5 85.5Q379 93 394.5 102Q410 111 418.5 118.5Q427 126 427 126V297H298V389H525V0H447L434 50H432Q432 50 422 41Q412 32 393 20.5Q374 9 345.5 0Q317 -9 280 -9Q171 -9 115.5 58Q60 125 60 257Z" glyph-name="G" horiz-adv-x="599" unicode="G" /><glyph d="M164 880H233Q233 880 234.5 870Q236 860 242.5 848.5Q249 837 263 827Q277 817 303 817Q329 817 343 827Q357 837 363.5 848.5Q370 860 371.5 870Q373 880 373 880H441V826Q441 826 435 813.5Q429 801 413.5 785.5Q398 770 371 757.5Q344 745 303 745Q262 745 235 757.5Q208 770 192.5 785.5Q177 801 170.5 813.5Q164 826 164 826ZM60 257V419Q60 555 124.5 622Q189 689 311 689Q370 689 409.5 674Q449 659 473 640.5Q497 622 507.5 607Q518 592 518 592V514H432Q430 526 422 540.5Q414 555 399.5 567.5Q385 580 362.5 588Q340 596 309 596Q234 596 199 554Q164 512 164 428V246Q164 161 197.5 119.5Q231 78 305 78Q334 78 356.5 85.5Q379 93 394.5 102Q410 111 418.5 118.5Q427 126 427 126V297H298V389H525V0H447L434 50H432Q432 50 422 41Q412 32 393 20.5Q374 9 345.5 0Q317 -9 280 -9Q171 -9 115.5 58Q60 125 60 257Z" glyph-name="Gbreve" horiz-adv-x="599" unicode="&#286;" /><glyph d="M171 868H234L269 836Q282 823 291.5 813.5Q301 804 301 804H306Q306 804 316 813.5Q326 823 339 836L373 868H436V825L339 737H268L171 825ZM60 257V419Q60 555 124.5 622Q189 689 311 689Q370 689 409.5 674Q449 659 473 640.5Q497 622 507.5 607Q518 592 518 592V514H432Q430 526 422 540.5Q414 555 399.5 567.5Q385 580 362.5 588Q340 596 309 596Q234 596 199 554Q164 512 164 428V246Q164 161 197.5 119.5Q231 78 305 78Q334 78 356.5 85.5Q379 93 394.5 102Q410 111 418.5 118.5Q427 126 427 126V297H298V389H525V0H447L434 50H432Q432 50 422 41Q412 32 393 20.5Q374 9 345.5 0Q317 -9 280 -9Q171 -9 115.5 58Q60 125 60 257Z" glyph-name="Gcaron" horiz-adv-x="599" unicode="&#486;" /><glyph d="M171 737V780L268 868H339L436 780V737H373L339 769Q326 782 316 791.5Q306 801 306 801H301Q301 801 291.5 791.5Q282 782 269 769L234 737ZM60 257V419Q60 555 124.5 622Q189 689 311 689Q370 689 409.5 674Q449 659 473 640.5Q497 622 507.5 607Q518 592 518 592V514H432Q430 526 422 540.5Q414 555 399.5 567.5Q385 580 362.5 588Q340 596 309 596Q234 596 199 554Q164 512 164 428V246Q164 161 197.5 119.5Q231 78 305 78Q334 78 356.5 85.5Q379 93 394.5 102Q410 111 418.5 118.5Q427 126 427 126V297H298V389H525V0H447L434 50H432Q432 50 422 41Q412 32 393 20.5Q374 9 345.5 0Q317 -9 280 -9Q171 -9 115.5 58Q60 125 60 257Z" glyph-name="Gcircumflex" horiz-adv-x="599" unicode="&#284;" /><glyph d="M241 807Q241 833 256.5 849Q272 865 303 865Q333 865 348.5 849Q364 833 364 807V799Q364 773 348.5 757.5Q333 742 303 742Q272 742 256.5 757.5Q241 773 241 799ZM60 257V419Q60 555 124.5 622Q189 689 311 689Q370 689 409.5 674Q449 659 473 640.5Q497 622 507.5 607Q518 592 518 592V514H432Q430 526 422 540.5Q414 555 399.5 567.5Q385 580 362.5 588Q340 596 309 596Q234 596 199 554Q164 512 164 428V246Q164 161 197.5 119.5Q231 78 305 78Q334 78 356.5 85.5Q379 93 394.5 102Q410 111 418.5 118.5Q427 126 427 126V297H298V389H525V0H447L434 50H432Q432 50 422 41Q412 32 393 20.5Q374 9 345.5 0Q317 -9 280 -9Q171 -9 115.5 58Q60 125 60 257Z" glyph-name="Gdotaccent" horiz-adv-x="599" unicode="&#288;" /><glyph d="M564 680V0H461V295H188V0H85V680H188V389H461V680Z" glyph-name="H" horiz-adv-x="649" unicode="H" /><glyph d="M11 589H85V680H188V589H461V680H564V589H638V503H564V0H461V295H188V0H85V503H11ZM188 389H461V503H188Z" glyph-name="Hbar" horiz-adv-x="649" unicode="&#294;" /><glyph d="M193 737V780L290 868H361L458 780V737H395L361 769Q348 782 338 791.5Q328 801 328 801H323Q323 801 313.5 791.5Q304 782 291 769L256 737ZM564 680V0H461V295H188V0H85V680H188V389H461V680Z" glyph-name="Hcircumflex" horiz-adv-x="649" unicode="&#292;" /><glyph d="M49 75 116 85V595L49 605V680H286V605L219 595V85L286 75V0H49Z" glyph-name="I" horiz-adv-x="335" unicode="I" /><glyph d="M49 75 116 85V595L49 605V680H286V605L219 595V85L286 75V0H49ZM373 105H447Q447 105 460.5 95.5Q474 86 512 86Q561 86 584.5 109.5Q608 133 608 182V589H393V680H711V191Q711 89 658 41Q605 -7 506 -7Q443 -7 408 5Q373 17 373 17Z" glyph-name="IJ" horiz-adv-x="789" unicode="&#306;" /><glyph d="M293 896V824L93 725V803L230 896ZM664 896V824L464 725V803L601 896ZM49 75 116 85V595L49 605V680H286V605L219 595V85L286 75V0H49ZM373 105H447Q447 105 460.5 95.5Q474 86 512 86Q561 86 584.5 109.5Q608 133 608 182V589H393V680H711V191Q711 89 658 41Q605 -7 506 -7Q443 -7 408 5Q373 17 373 17Z" glyph-name="IJacute" horiz-adv-x="789" /><glyph d="M293 896V824L93 725V803L230 896ZM49 75 116 85V595L49 605V680H286V605L219 595V85L286 75V0H49Z" glyph-name="Iacute" horiz-adv-x="335" unicode="&#205;" /><glyph d="M29 880H98Q98 880 99.5 870Q101 860 107.5 848.5Q114 837 128 827Q142 817 168 817Q194 817 208 827Q222 837 228.5 848.5Q235 860 236.5 870Q238 880 238 880H306V826Q306 826 300 813.5Q294 801 278.5 785.5Q263 770 236 757.5Q209 745 168 745Q127 745 100 757.5Q73 770 57.5 785.5Q42 801 35.5 813.5Q29 826 29 826ZM49 75 116 85V595L49 605V680H286V605L219 595V85L286 75V0H49Z" glyph-name="Ibreve" horiz-adv-x="335" unicode="&#300;" /><glyph d="M36 737V780L133 868H204L301 780V737H238L204 769Q191 782 181 791.5Q171 801 171 801H166Q166 801 156.5 791.5Q147 782 134 769L99 737ZM49 75 116 85V595L49 605V680H286V605L219 595V85L286 75V0H49Z" glyph-name="Icircumflex" horiz-adv-x="335" unicode="&#206;" /><glyph d="M31 805Q31 830 45.5 845Q60 860 90 860Q121 860 135 844.5Q149 829 149 805V797Q149 772 134.5 757Q120 742 90 742Q59 742 45 758Q31 774 31 797ZM186 805Q186 830 201 845Q216 860 245 860Q276 860 290 844.5Q304 829 304 805V797Q304 772 289.5 757Q275 742 245 742Q215 742 200.5 758Q186 774 186 797ZM49 75 116 85V595L49 605V680H286V605L219 595V85L286 75V0H49Z" glyph-name="Idieresis" horiz-adv-x="335" unicode="&#207;" /><glyph d="M106 807Q106 833 121.5 849Q137 865 168 865Q198 865 213.5 849Q229 833 229 807V799Q229 773 213.5 757.5Q198 742 168 742Q137 742 121.5 757.5Q106 773 106 799ZM49 75 116 85V595L49 605V680H286V605L219 595V85L286 75V0H49Z" glyph-name="Idotaccent" horiz-adv-x="335" unicode="&#304;" /><glyph d="M43 896H106L243 803V725L43 824ZM49 75 116 85V595L49 605V680H286V605L219 595V85L286 75V0H49Z" glyph-name="Igrave" horiz-adv-x="335" unicode="&#204;" /><glyph d="M23 860H311V781H23ZM49 75 116 85V595L49 605V680H286V605L219 595V85L286 75V0H49Z" glyph-name="Imacron" horiz-adv-x="335" unicode="&#298;" /><glyph d="M49 75 116 85V595L49 605V680H286V605L219 595V85L286 75V0L252 -33Q234 -49 225.5 -60.5Q217 -72 217 -85Q217 -98 227.5 -106.5Q238 -115 254 -115H272V-181H241Q195 -181 167.5 -157.5Q140 -134 140 -92Q140 -64 153 -42.5Q166 -21 188 0H49Z" glyph-name="Iogonek" horiz-adv-x="335" unicode="&#302;" /><glyph d="M-12 749V813Q-12 813 -6.5 820Q-1 827 10.5 836Q22 845 41 852Q60 859 87 859Q107 859 127.5 854.5Q148 850 164 844L188 836Q201 830 213.5 827Q226 824 240 824Q270 824 278.5 838Q287 852 287 852H348V789Q348 789 342.5 782Q337 775 325.5 766Q314 757 295 750Q276 743 249 743Q228 743 208 747.5Q188 752 172 758L148 766Q134 771 121.5 774.5Q109 778 95 778Q65 778 56.5 763.5Q48 749 48 749ZM49 75 116 85V595L49 605V680H286V605L219 595V85L286 75V0H49Z" glyph-name="Itilde" horiz-adv-x="335" unicode="&#296;" /><glyph d="M38 105H112Q112 105 125.5 95.5Q139 86 177 86Q226 86 249.5 109.5Q273 133 273 182V589H58V680H376V191Q376 89 323 41Q270 -7 171 -7Q108 -7 73 5Q38 17 38 17Z" glyph-name="J" horiz-adv-x="454" unicode="J" /><glyph d="M84 737V780L181 868H252L349 780V737H286L252 769Q239 782 229 791.5Q219 801 219 801H214Q214 801 204.5 791.5Q195 782 182 769L147 737ZM38 105H112Q112 105 125.5 95.5Q139 86 177 86Q226 86 249.5 109.5Q273 133 273 182V589H58V680H376V191Q376 89 323 41Q270 -7 171 -7Q108 -7 73 5Q38 17 38 17Z" glyph-name="Jcircumflex" horiz-adv-x="454" unicode="&#308;" /><glyph d="M188 296V0H85V680H188V493Q188 453 187 421Q186 389 186 389H252Q252 389 271.5 415Q291 441 321 478L480 680H556V618L336 347V344Q336 344 357.5 312Q379 280 412.5 235.5Q446 191 487.5 142.5Q529 94 567 62V0H485Q449 32 407.5 82.5Q366 133 331 180Q296 227 273 261.5Q250 296 250 296Z" glyph-name="K" horiz-adv-x="583" unicode="K" /><glyph d="M85 0V680H188V93H471L456 0Z" glyph-name="L" horiz-adv-x="483" unicode="L" /><glyph d="M291 896V824L91 725V803L228 896ZM85 0V680H188V93H471L456 0Z" glyph-name="Lacute" horiz-adv-x="483" unicode="&#313;" /><glyph d="M85 0V680H188V93H471L456 0ZM300 490Q300 490 304.5 505.5Q309 521 314 547Q319 573 323.5 607.5Q328 642 328 680H429V633Q415 565 398.5 527.5Q382 490 382 490Z" glyph-name="Lcaron" horiz-adv-x="483" unicode="&#317;" /><glyph d="M85 0V680H188V93H471L456 0ZM352 345Q352 373 369 389.5Q386 406 418 406Q449 406 466 389.5Q483 373 483 345V337Q483 309 466 292Q449 275 418 275Q386 275 369 292Q352 309 352 337Z" glyph-name="Ldot" horiz-adv-x="510" unicode="&#319;" /><glyph d="M99 0V291L56 269H6V336L99 384V680H202V437L272 473H323V407L202 344V93H485L470 0Z" glyph-name="Lslash" horiz-adv-x="497" unicode="&#321;" /><glyph d="M85 0V680H259L366 267Q372 243 379 212Q386 181 392.5 153Q399 125 403 106Q407 87 407 87H415Q415 87 419 106Q423 125 429.5 153Q436 181 443 212Q450 243 456 267L563 680H734V0H634V378Q634 400 635 436.5Q636 473 636.5 508Q637 543 638 568.5Q639 594 639 594H629Q629 594 624 574Q619 554 612.5 526Q606 498 598 466.5Q590 435 584 413L474 0H345L235 413Q229 435 221.5 466.5Q214 498 207 526Q200 554 195 574Q190 594 190 594H181Q181 594 181.5 568.5Q182 543 183 508Q184 473 184.5 436.5Q185 400 185 378V0Z" glyph-name="M" horiz-adv-x="819" unicode="M" /><glyph d="M85 0V680H211L316 437Q328 410 338.5 384.5Q349 359 357 339.5Q365 320 369.5 308Q374 296 374 296H378Q378 296 382.5 308Q387 320 395 339.5Q403 359 413.5 384.5Q424 410 436 437L541 680H667V0H567V374Q567 397 568 427Q569 457 570.5 483.5Q572 510 573 528Q574 546 574 546H571Q571 546 566.5 534Q562 522 554.5 504Q547 486 538 464Q529 442 520 421L419 187H333L232 421Q223 442 214 464Q205 486 197.5 504Q190 522 185.5 534Q181 546 181 546H178Q178 546 179 528Q180 510 181.5 483.5Q183 457 184 427Q185 397 185 374V0Z" glyph-name="M.alt" horiz-adv-x="752" /><glyph d="M85 0V680H195L410 313Q417 301 426.5 282.5Q436 264 445 246.5Q454 229 460 216Q466 203 466 203H468Q468 203 467 217.5Q466 232 465.5 254Q465 276 464 304Q463 332 463 359V680H564V0H463V45L247 413Q236 432 225 452.5Q214 473 205 489Q196 505 190.5 515.5Q185 526 185 526H182Q182 526 184 488Q186 450 186 400V0Z" glyph-name="N" horiz-adv-x="649" unicode="N" /><glyph d="M457 896V824L257 725V803L394 896ZM85 0V680H195L410 313Q417 301 426.5 282.5Q436 264 445 246.5Q454 229 460 216Q466 203 466 203H468Q468 203 467 217.5Q466 232 465.5 254Q465 276 464 304Q463 332 463 359V680H564V0H463V45L247 413Q236 432 225 452.5Q214 473 205 489Q196 505 190.5 515.5Q185 526 185 526H182Q182 526 184 488Q186 450 186 400V0Z" glyph-name="Nacute" horiz-adv-x="649" unicode="&#323;" /><glyph d="M197 868H260L295 836Q308 823 317.5 813.5Q327 804 327 804H332Q332 804 342 813.5Q352 823 365 836L399 868H462V825L365 737H294L197 825ZM85 0V680H195L410 313Q417 301 426.5 282.5Q436 264 445 246.5Q454 229 460 216Q466 203 466 203H468Q468 203 467 217.5Q466 232 465.5 254Q465 276 464 304Q463 332 463 359V680H564V0H463V45L247 413Q236 432 225 452.5Q214 473 205 489Q196 505 190.5 515.5Q185 526 185 526H182Q182 526 184 488Q186 450 186 400V0Z" glyph-name="Ncaron" horiz-adv-x="649" unicode="&#327;" /><glyph d="M149 749V813Q149 813 154.5 820Q160 827 171.5 836Q183 845 202 852Q221 859 248 859Q268 859 288.5 854.5Q309 850 325 844L349 836Q362 830 374.5 827Q387 824 401 824Q431 824 439.5 838Q448 852 448 852H509V789Q509 789 503.5 782Q498 775 486.5 766Q475 757 456 750Q437 743 410 743Q389 743 369 747.5Q349 752 333 758L309 766Q295 771 282.5 774.5Q270 778 256 778Q226 778 217.5 763.5Q209 749 209 749ZM85 0V680H195L410 313Q417 301 426.5 282.5Q436 264 445 246.5Q454 229 460 216Q466 203 466 203H468Q468 203 467 217.5Q466 232 465.5 254Q465 276 464 304Q463 332 463 359V680H564V0H463V45L247 413Q236 432 225 452.5Q214 473 205 489Q196 505 190.5 515.5Q185 526 185 526H182Q182 526 184 488Q186 450 186 400V0Z" glyph-name="Ntilde" horiz-adv-x="649" unicode="&#209;" /><glyph d="M60 262V418Q60 551 124 620.5Q188 690 314 690Q439 690 503.5 620.5Q568 551 568 418V262Q568 130 504 60Q440 -10 314 -10Q189 -10 124.5 59.5Q60 129 60 262ZM164 253Q164 162 201.5 122Q239 82 314 82Q389 82 426.5 122Q464 162 464 253V427Q464 518 426.5 558Q389 598 314 598Q239 598 201.5 558Q164 518 164 427Z" glyph-name="O" horiz-adv-x="628" unicode="O" /><glyph d="M60 265V415Q60 549 124 619.5Q188 690 307 690Q357 690 396.5 676.5Q436 663 464 638V680H870L855 586H567V389H824V295H567V94H860V0H464V42Q436 17 396.5 3.5Q357 -10 307 -10Q188 -10 124 60.5Q60 131 60 265ZM164 253Q164 162 201.5 122Q239 82 314 82Q389 82 426.5 122Q464 162 464 253V427Q464 518 426.5 558Q389 598 314 598Q239 598 201.5 558Q164 518 164 427Z" glyph-name="OE" horiz-adv-x="911" unicode="&#338;" /><glyph d="M448 896V824L248 725V803L385 896ZM60 262V418Q60 551 124 620.5Q188 690 314 690Q439 690 503.5 620.5Q568 551 568 418V262Q568 130 504 60Q440 -10 314 -10Q189 -10 124.5 59.5Q60 129 60 262ZM164 253Q164 162 201.5 122Q239 82 314 82Q389 82 426.5 122Q464 162 464 253V427Q464 518 426.5 558Q389 598 314 598Q239 598 201.5 558Q164 518 164 427Z" glyph-name="Oacute" horiz-adv-x="628" unicode="&#211;" /><glyph d="M175 880H244Q244 880 245.5 870Q247 860 253.5 848.5Q260 837 274 827Q288 817 314 817Q340 817 354 827Q368 837 374.5 848.5Q381 860 382.5 870Q384 880 384 880H452V826Q452 826 446 813.5Q440 801 424.5 785.5Q409 770 382 757.5Q355 745 314 745Q273 745 246 757.5Q219 770 203.5 785.5Q188 801 181.5 813.5Q175 826 175 826ZM60 262V418Q60 551 124 620.5Q188 690 314 690Q439 690 503.5 620.5Q568 551 568 418V262Q568 130 504 60Q440 -10 314 -10Q189 -10 124.5 59.5Q60 129 60 262ZM164 253Q164 162 201.5 122Q239 82 314 82Q389 82 426.5 122Q464 162 464 253V427Q464 518 426.5 558Q389 598 314 598Q239 598 201.5 558Q164 518 164 427Z" glyph-name="Obreve" horiz-adv-x="628" unicode="&#334;" /><glyph d="M182 737V780L279 868H350L447 780V737H384L350 769Q337 782 327 791.5Q317 801 317 801H312Q312 801 302.5 791.5Q293 782 280 769L245 737ZM60 262V418Q60 551 124 620.5Q188 690 314 690Q439 690 503.5 620.5Q568 551 568 418V262Q568 130 504 60Q440 -10 314 -10Q189 -10 124.5 59.5Q60 129 60 262ZM164 253Q164 162 201.5 122Q239 82 314 82Q389 82 426.5 122Q464 162 464 253V427Q464 518 426.5 558Q389 598 314 598Q239 598 201.5 558Q164 518 164 427Z" glyph-name="Ocircumflex" horiz-adv-x="628" unicode="&#212;" /><glyph d="M177 805Q177 830 191.5 845Q206 860 236 860Q267 860 281 844.5Q295 829 295 805V797Q295 772 280.5 757Q266 742 236 742Q205 742 191 758Q177 774 177 797ZM332 805Q332 830 347 845Q362 860 391 860Q422 860 436 844.5Q450 829 450 805V797Q450 772 435.5 757Q421 742 391 742Q361 742 346.5 758Q332 774 332 797ZM60 262V418Q60 551 124 620.5Q188 690 314 690Q439 690 503.5 620.5Q568 551 568 418V262Q568 130 504 60Q440 -10 314 -10Q189 -10 124.5 59.5Q60 129 60 262ZM164 253Q164 162 201.5 122Q239 82 314 82Q389 82 426.5 122Q464 162 464 253V427Q464 518 426.5 558Q389 598 314 598Q239 598 201.5 558Q164 518 164 427Z" glyph-name="Odieresis" horiz-adv-x="628" unicode="&#214;" /><glyph d="M180 896H243L380 803V725L180 824ZM60 262V418Q60 551 124 620.5Q188 690 314 690Q439 690 503.5 620.5Q568 551 568 418V262Q568 130 504 60Q440 -10 314 -10Q189 -10 124.5 59.5Q60 129 60 262ZM164 253Q164 162 201.5 122Q239 82 314 82Q389 82 426.5 122Q464 162 464 253V427Q464 518 426.5 558Q389 598 314 598Q239 598 201.5 558Q164 518 164 427Z" glyph-name="Ograve" horiz-adv-x="628" unicode="&#210;" /><glyph d="M356 830 282 739H199L281 883H356ZM512 830 438 739H355L437 883H512ZM60 262V418Q60 551 124 620.5Q188 690 314 690Q439 690 503.5 620.5Q568 551 568 418V262Q568 130 504 60Q440 -10 314 -10Q189 -10 124.5 59.5Q60 129 60 262ZM164 253Q164 162 201.5 122Q239 82 314 82Q389 82 426.5 122Q464 162 464 253V427Q464 518 426.5 558Q389 598 314 598Q239 598 201.5 558Q164 518 164 427Z" glyph-name="Ohungarumlaut" horiz-adv-x="628" unicode="&#336;" /><glyph d="M169 860H457V781H169ZM60 262V418Q60 551 124 620.5Q188 690 314 690Q439 690 503.5 620.5Q568 551 568 418V262Q568 130 504 60Q440 -10 314 -10Q189 -10 124.5 59.5Q60 129 60 262ZM164 253Q164 162 201.5 122Q239 82 314 82Q389 82 426.5 122Q464 162 464 253V427Q464 518 426.5 558Q389 598 314 598Q239 598 201.5 558Q164 518 164 427Z" glyph-name="Omacron" horiz-adv-x="628" unicode="&#332;" /><glyph d="M60 262V418Q60 551 124 620.5Q188 690 314 690Q357 690 394 681.5Q431 673 459 657L503 730H564V680L518 604Q543 570 555.5 523.5Q568 477 568 418V262Q568 130 504 60Q440 -10 314 -10Q271 -10 234 -1.5Q197 7 169 23L125 -50H64V0L110 76Q85 110 72.5 156.5Q60 203 60 262ZM164 253Q164 232 166 213.5Q168 195 172 180L409 574Q391 586 367.5 592Q344 598 314 598Q239 598 201.5 558Q164 518 164 427ZM464 427Q464 448 462 466.5Q460 485 456 500L219 106Q237 94 260.5 88Q284 82 314 82Q389 82 426.5 122Q464 162 464 253Z" glyph-name="Oslash" horiz-adv-x="628" unicode="&#216;" /><glyph d="M448 896V824L248 725V803L385 896ZM60 262V418Q60 551 124 620.5Q188 690 314 690Q357 690 394 681.5Q431 673 459 657L503 730H564V680L518 604Q543 570 555.5 523.5Q568 477 568 418V262Q568 130 504 60Q440 -10 314 -10Q271 -10 234 -1.5Q197 7 169 23L125 -50H64V0L110 76Q85 110 72.5 156.5Q60 203 60 262ZM164 253Q164 232 166 213.5Q168 195 172 180L409 574Q391 586 367.5 592Q344 598 314 598Q239 598 201.5 558Q164 518 164 427ZM464 427Q464 448 462 466.5Q460 485 456 500L219 106Q237 94 260.5 88Q284 82 314 82Q389 82 426.5 122Q464 162 464 253Z" glyph-name="Oslashacute" horiz-adv-x="628" unicode="&#510;" /><glyph d="M134 749V813Q134 813 139.5 820Q145 827 156.5 836Q168 845 187 852Q206 859 233 859Q253 859 273.5 854.5Q294 850 310 844L334 836Q347 830 359.5 827Q372 824 386 824Q416 824 424.5 838Q433 852 433 852H494V789Q494 789 488.5 782Q483 775 471.5 766Q460 757 441 750Q422 743 395 743Q374 743 354 747.5Q334 752 318 758L294 766Q280 771 267.5 774.5Q255 778 241 778Q211 778 202.5 763.5Q194 749 194 749ZM60 262V418Q60 551 124 620.5Q188 690 314 690Q439 690 503.5 620.5Q568 551 568 418V262Q568 130 504 60Q440 -10 314 -10Q189 -10 124.5 59.5Q60 129 60 262ZM164 253Q164 162 201.5 122Q239 82 314 82Q389 82 426.5 122Q464 162 464 253V427Q464 518 426.5 558Q389 598 314 598Q239 598 201.5 558Q164 518 164 427Z" glyph-name="Otilde" horiz-adv-x="628" unicode="&#213;" /><glyph d="M85 0V680H317Q426 680 482.5 626.5Q539 573 539 474Q539 414 516 373.5Q493 333 465 309Q437 285 414 275Q391 265 391 265H188V0ZM188 359H360Q360 359 372 364.5Q384 370 397.5 383Q411 396 423 419Q435 442 435 476Q435 525 407.5 555.5Q380 586 323 586H188Z" glyph-name="P" horiz-adv-x="566" unicode="P" /><glyph d="M60 262V418Q60 551 124 620.5Q188 690 314 690Q439 690 503.5 620.5Q568 551 568 418V262Q568 175 540 114Q512 53 457 22Q472 -3 499.5 -38.5Q527 -74 565 -103V-167H492Q468 -148 446.5 -125.5Q425 -103 408 -81Q391 -59 378 -39.5Q365 -20 358 -8Q348 -9 336.5 -9.5Q325 -10 314 -10Q189 -10 124.5 59.5Q60 129 60 262ZM164 253Q164 162 201.5 122Q239 82 314 82Q389 82 426.5 122Q464 162 464 253V427Q464 518 426.5 558Q389 598 314 598Q239 598 201.5 558Q164 518 164 427Z" glyph-name="Q" horiz-adv-x="633" unicode="Q" /><glyph d="M85 0V680H325Q432 680 489 631Q546 582 546 485Q546 427 523.5 388.5Q501 350 474 327.5Q447 305 424.5 296Q402 287 402 287Q402 287 413 265Q424 243 444 209.5Q464 176 491.5 136.5Q519 97 551 62V0H472Q437 38 404.5 86.5Q372 135 348 177.5Q324 220 310 249Q296 278 296 278H188V0ZM188 371H358Q358 371 371 375Q384 379 400 390.5Q416 402 429 424Q442 446 442 482Q442 531 414.5 559Q387 587 331 587H188Z" glyph-name="R" horiz-adv-x="591" unicode="R" /><glyph d="M407 896V824L207 725V803L344 896ZM85 0V680H325Q432 680 489 631Q546 582 546 485Q546 427 523.5 388.5Q501 350 474 327.5Q447 305 424.5 296Q402 287 402 287Q402 287 413 265Q424 243 444 209.5Q464 176 491.5 136.5Q519 97 551 62V0H472Q437 38 404.5 86.5Q372 135 348 177.5Q324 220 310 249Q296 278 296 278H188V0ZM188 371H358Q358 371 371 375Q384 379 400 390.5Q416 402 429 424Q442 446 442 482Q442 531 414.5 559Q387 587 331 587H188Z" glyph-name="Racute" horiz-adv-x="591" unicode="&#340;" /><glyph d="M145 868H208L243 836Q256 823 265.5 813.5Q275 804 275 804H280Q280 804 290 813.5Q300 823 313 836L347 868H410V825L313 737H242L145 825ZM85 0V680H325Q432 680 489 631Q546 582 546 485Q546 427 523.5 388.5Q501 350 474 327.5Q447 305 424.5 296Q402 287 402 287Q402 287 413 265Q424 243 444 209.5Q464 176 491.5 136.5Q519 97 551 62V0H472Q437 38 404.5 86.5Q372 135 348 177.5Q324 220 310 249Q296 278 296 278H188V0ZM188 371H358Q358 371 371 375Q384 379 400 390.5Q416 402 429 424Q442 446 442 482Q442 531 414.5 559Q387 587 331 587H188Z" glyph-name="Rcaron" horiz-adv-x="591" unicode="&#344;" /><glyph d="M47 34V121H126Q126 121 131 115Q136 109 149.5 102Q163 95 186.5 89Q210 83 247 83Q319 83 348.5 111Q378 139 378 182Q378 224 354 248.5Q330 273 281 289L218 311Q123 343 89 390Q55 437 55 502Q55 591 115.5 639Q176 687 280 687Q323 687 357 680.5Q391 674 415 666.5Q439 659 452 652.5Q465 646 465 646V558H384Q384 558 379 564Q374 570 362 577.5Q350 585 329 591Q308 597 276 597Q215 597 186.5 571.5Q158 546 158 505Q158 467 180.5 445Q203 423 254 406L317 384Q410 351 444.5 305.5Q479 260 480 190Q481 97 421.5 45Q362 -7 247 -7Q201 -7 163.5 -0.5Q126 6 100.5 13.5Q75 21 61 27.5Q47 34 47 34Z" glyph-name="S" horiz-adv-x="525" unicode="S" /><glyph d="M400 896V824L200 725V803L337 896ZM47 34V121H126Q126 121 131 115Q136 109 149.5 102Q163 95 186.5 89Q210 83 247 83Q319 83 348.5 111Q378 139 378 182Q378 224 354 248.5Q330 273 281 289L218 311Q123 343 89 390Q55 437 55 502Q55 591 115.5 639Q176 687 280 687Q323 687 357 680.5Q391 674 415 666.5Q439 659 452 652.5Q465 646 465 646V558H384Q384 558 379 564Q374 570 362 577.5Q350 585 329 591Q308 597 276 597Q215 597 186.5 571.5Q158 546 158 505Q158 467 180.5 445Q203 423 254 406L317 384Q410 351 444.5 305.5Q479 260 480 190Q481 97 421.5 45Q362 -7 247 -7Q201 -7 163.5 -0.5Q126 6 100.5 13.5Q75 21 61 27.5Q47 34 47 34Z" glyph-name="Sacute" horiz-adv-x="525" unicode="&#346;" /><glyph d="M140 868H203L238 836Q251 823 260.5 813.5Q270 804 270 804H275Q275 804 285 813.5Q295 823 308 836L342 868H405V825L308 737H237L140 825ZM47 34V121H126Q126 121 131 115Q136 109 149.5 102Q163 95 186.5 89Q210 83 247 83Q319 83 348.5 111Q378 139 378 182Q378 224 354 248.5Q330 273 281 289L218 311Q123 343 89 390Q55 437 55 502Q55 591 115.5 639Q176 687 280 687Q323 687 357 680.5Q391 674 415 666.5Q439 659 452 652.5Q465 646 465 646V558H384Q384 558 379 564Q374 570 362 577.5Q350 585 329 591Q308 597 276 597Q215 597 186.5 571.5Q158 546 158 505Q158 467 180.5 445Q203 423 254 406L317 384Q410 351 444.5 305.5Q479 260 480 190Q481 97 421.5 45Q362 -7 247 -7Q201 -7 163.5 -0.5Q126 6 100.5 13.5Q75 21 61 27.5Q47 34 47 34Z" glyph-name="Scaron" horiz-adv-x="525" unicode="&#352;" /><glyph d="M47 34V121H126Q126 121 131 115Q136 109 149.5 102Q163 95 186.5 89Q210 83 247 83Q319 83 348.5 111Q378 139 378 182Q378 224 354 248.5Q330 273 281 289L218 311Q123 343 89 390Q55 437 55 502Q55 591 115.5 639Q176 687 280 687Q323 687 357 680.5Q391 674 415 666.5Q439 659 452 652.5Q465 646 465 646V558H384Q384 558 379 564Q374 570 362 577.5Q350 585 329 591Q308 597 276 597Q215 597 186.5 571.5Q158 546 158 505Q158 467 180.5 445Q203 423 254 406L317 384Q410 351 444.5 305.5Q479 260 480 190Q481 112 438.5 62Q396 12 314 -2Q314 -38 305.5 -66.5Q297 -95 287 -114.5Q277 -134 268.5 -144Q260 -154 260 -154H187V-101Q187 -101 193 -94.5Q199 -88 205.5 -76.5Q212 -65 218 -47Q224 -29 224 -7Q183 -5 150 1.5Q117 8 94 15.5Q71 23 59 28.5Q47 34 47 34Z" glyph-name="Scedilla" horiz-adv-x="525" unicode="&#350;" /><glyph d="M140 737V780L237 868H308L405 780V737H342L308 769Q295 782 285 791.5Q275 801 275 801H270Q270 801 260.5 791.5Q251 782 238 769L203 737ZM47 34V121H126Q126 121 131 115Q136 109 149.5 102Q163 95 186.5 89Q210 83 247 83Q319 83 348.5 111Q378 139 378 182Q378 224 354 248.5Q330 273 281 289L218 311Q123 343 89 390Q55 437 55 502Q55 591 115.5 639Q176 687 280 687Q323 687 357 680.5Q391 674 415 666.5Q439 659 452 652.5Q465 646 465 646V558H384Q384 558 379 564Q374 570 362 577.5Q350 585 329 591Q308 597 276 597Q215 597 186.5 571.5Q158 546 158 505Q158 467 180.5 445Q203 423 254 406L317 384Q410 351 444.5 305.5Q479 260 480 190Q481 97 421.5 45Q362 -7 247 -7Q201 -7 163.5 -0.5Q126 6 100.5 13.5Q75 21 61 27.5Q47 34 47 34Z" glyph-name="Scircumflex" horiz-adv-x="525" unicode="&#348;" /><glyph d="M443 587H286V0H183V587H17V680H458Z" glyph-name="T" horiz-adv-x="471" unicode="T" /><glyph d="M85 379H183V587H17V680H458L443 587H286V379H384V300H286V0H183V300H85Z" glyph-name="Tbar" horiz-adv-x="471" unicode="&#358;" /><glyph d="M100 868H163L198 836Q211 823 220.5 813.5Q230 804 230 804H235Q235 804 245 813.5Q255 823 268 836L302 868H365V825L268 737H197L100 825ZM443 587H286V0H183V587H17V680H458Z" glyph-name="Tcaron" horiz-adv-x="471" unicode="&#356;" /><glyph d="M85 680H188V583H315Q422 583 476.5 532Q531 481 531 384Q531 320 504 279Q477 238 445 215Q413 192 386 183.5Q359 175 359 175H188V0H85ZM188 489V269H338Q338 269 352 273Q366 277 382.5 289.5Q399 302 413 325Q427 348 427 385Q427 435 401 462Q375 489 320 489Z" glyph-name="Thorn" horiz-adv-x="563" unicode="&#222;" /><glyph d="M77 225V680H180V227Q180 146 208.5 114.5Q237 83 310 83Q342 83 369.5 91Q397 99 416 109Q435 119 445.5 127Q456 135 456 135V680H559V0H477L464 60H461Q461 60 447.5 49.5Q434 39 410.5 26Q387 13 354 2.5Q321 -8 282 -8Q175 -8 126 45Q77 98 77 225Z" glyph-name="U" horiz-adv-x="644" unicode="U" /><glyph d="M445 896V824L245 725V803L382 896ZM77 225V680H180V227Q180 146 208.5 114.5Q237 83 310 83Q342 83 369.5 91Q397 99 416 109Q435 119 445.5 127Q456 135 456 135V680H559V0H477L464 60H461Q461 60 447.5 49.5Q434 39 410.5 26Q387 13 354 2.5Q321 -8 282 -8Q175 -8 126 45Q77 98 77 225Z" glyph-name="Uacute" horiz-adv-x="644" unicode="&#218;" /><glyph d="M181 880H250Q250 880 251.5 870Q253 860 259.5 848.5Q266 837 280 827Q294 817 320 817Q346 817 360 827Q374 837 380.5 848.5Q387 860 388.5 870Q390 880 390 880H458V826Q458 826 452 813.5Q446 801 430.5 785.5Q415 770 388 757.5Q361 745 320 745Q279 745 252 757.5Q225 770 209.5 785.5Q194 801 187.5 813.5Q181 826 181 826ZM77 225V680H180V227Q180 146 208.5 114.5Q237 83 310 83Q342 83 369.5 91Q397 99 416 109Q435 119 445.5 127Q456 135 456 135V680H559V0H477L464 60H461Q461 60 447.5 49.5Q434 39 410.5 26Q387 13 354 2.5Q321 -8 282 -8Q175 -8 126 45Q77 98 77 225Z" glyph-name="Ubreve" horiz-adv-x="644" unicode="&#364;" /><glyph d="M188 737V780L285 868H356L453 780V737H390L356 769Q343 782 333 791.5Q323 801 323 801H318Q318 801 308.5 791.5Q299 782 286 769L251 737ZM77 225V680H180V227Q180 146 208.5 114.5Q237 83 310 83Q342 83 369.5 91Q397 99 416 109Q435 119 445.5 127Q456 135 456 135V680H559V0H477L464 60H461Q461 60 447.5 49.5Q434 39 410.5 26Q387 13 354 2.5Q321 -8 282 -8Q175 -8 126 45Q77 98 77 225Z" glyph-name="Ucircumflex" horiz-adv-x="644" unicode="&#219;" /><glyph d="M183 805Q183 830 197.5 845Q212 860 242 860Q273 860 287 844.5Q301 829 301 805V797Q301 772 286.5 757Q272 742 242 742Q211 742 197 758Q183 774 183 797ZM338 805Q338 830 353 845Q368 860 397 860Q428 860 442 844.5Q456 829 456 805V797Q456 772 441.5 757Q427 742 397 742Q367 742 352.5 758Q338 774 338 797ZM77 225V680H180V227Q180 146 208.5 114.5Q237 83 310 83Q342 83 369.5 91Q397 99 416 109Q435 119 445.5 127Q456 135 456 135V680H559V0H477L464 60H461Q461 60 447.5 49.5Q434 39 410.5 26Q387 13 354 2.5Q321 -8 282 -8Q175 -8 126 45Q77 98 77 225Z" glyph-name="Udieresis" horiz-adv-x="644" unicode="&#220;" /><glyph d="M180 896H243L380 803V725L180 824ZM77 225V680H180V227Q180 146 208.5 114.5Q237 83 310 83Q342 83 369.5 91Q397 99 416 109Q435 119 445.5 127Q456 135 456 135V680H559V0H477L464 60H461Q461 60 447.5 49.5Q434 39 410.5 26Q387 13 354 2.5Q321 -8 282 -8Q175 -8 126 45Q77 98 77 225Z" glyph-name="Ugrave" horiz-adv-x="644" unicode="&#217;" /><glyph d="M353 830 279 739H196L278 883H353ZM509 830 435 739H352L434 883H509ZM77 225V680H180V227Q180 146 208.5 114.5Q237 83 310 83Q342 83 369.5 91Q397 99 416 109Q435 119 445.5 127Q456 135 456 135V680H559V0H477L464 60H461Q461 60 447.5 49.5Q434 39 410.5 26Q387 13 354 2.5Q321 -8 282 -8Q175 -8 126 45Q77 98 77 225Z" glyph-name="Uhungarumlaut" horiz-adv-x="644" unicode="&#368;" /><glyph d="M175 860H463V781H175ZM77 225V680H180V227Q180 146 208.5 114.5Q237 83 310 83Q342 83 369.5 91Q397 99 416 109Q435 119 445.5 127Q456 135 456 135V680H559V0H477L464 60H461Q461 60 447.5 49.5Q434 39 410.5 26Q387 13 354 2.5Q321 -8 282 -8Q175 -8 126 45Q77 98 77 225Z" glyph-name="Umacron" horiz-adv-x="644" unicode="&#362;" /><glyph d="M77 225V680H180V227Q180 146 208.5 114.5Q237 83 310 83Q342 83 369.5 91Q397 99 416 109Q435 119 445.5 127Q456 135 456 135V680H559V0L525 -33Q507 -49 498.5 -60.5Q490 -72 490 -85Q490 -98 500.5 -106.5Q511 -115 527 -115H545V-181H514Q468 -181 440.5 -157.5Q413 -134 413 -92Q413 -62 428.5 -38.5Q444 -15 469 8L474 13L464 60H461Q461 60 447.5 49.5Q434 39 410.5 26Q387 13 354 2.5Q321 -8 282 -8Q175 -8 126 45Q77 98 77 225Z" glyph-name="Uogonek" horiz-adv-x="644" unicode="&#370;" /><glyph d="M208 819Q208 870 239 900Q270 930 320 930Q370 930 401 900Q432 870 432 819Q432 768 401 738Q370 708 320 708Q270 708 239 738Q208 768 208 819ZM274 819Q274 799 285.5 785.5Q297 772 320 772Q343 772 354.5 785.5Q366 799 366 819Q366 839 354.5 852.5Q343 866 320 866Q297 866 285.5 852.5Q274 839 274 819ZM77 225V680H180V227Q180 146 208.5 114.5Q237 83 310 83Q342 83 369.5 91Q397 99 416 109Q435 119 445.5 127Q456 135 456 135V680H559V0H477L464 60H461Q461 60 447.5 49.5Q434 39 410.5 26Q387 13 354 2.5Q321 -8 282 -8Q175 -8 126 45Q77 98 77 225Z" glyph-name="Uring" horiz-adv-x="644" unicode="&#366;" /><glyph d="M140 749V813Q140 813 145.5 820Q151 827 162.5 836Q174 845 193 852Q212 859 239 859Q259 859 279.5 854.5Q300 850 316 844L340 836Q353 830 365.5 827Q378 824 392 824Q422 824 430.5 838Q439 852 439 852H500V789Q500 789 494.5 782Q489 775 477.5 766Q466 757 447 750Q428 743 401 743Q380 743 360 747.5Q340 752 324 758L300 766Q286 771 273.5 774.5Q261 778 247 778Q217 778 208.5 763.5Q200 749 200 749ZM77 225V680H180V227Q180 146 208.5 114.5Q237 83 310 83Q342 83 369.5 91Q397 99 416 109Q435 119 445.5 127Q456 135 456 135V680H559V0H477L464 60H461Q461 60 447.5 49.5Q434 39 410.5 26Q387 13 354 2.5Q321 -8 282 -8Q175 -8 126 45Q77 98 77 225Z" glyph-name="Utilde" horiz-adv-x="644" unicode="&#360;" /><glyph d="M27 680H119L243 240Q251 213 257.5 186.5Q264 160 269 139Q274 118 276.5 105Q279 92 279 92H303Q303 92 306 105Q309 118 314 139Q319 160 326 186.5Q333 213 340 240L464 680H553V618L376 0H202L27 618Z" glyph-name="V" horiz-adv-x="580" unicode="V" /><glyph d="M37 680H129L219 260Q225 231 230 200.5Q235 170 239 145.5Q243 121 245 105Q247 89 247 89H262Q262 89 264 105Q266 121 270 145.5Q274 170 278.5 201Q283 232 289 261L370 680H530L611 261Q617 232 621.5 201Q626 170 629.5 145.5Q633 121 635 105Q637 89 637 89H653Q653 89 655 105Q657 121 661 145.5Q665 170 670 200.5Q675 231 681 260L771 680H860V618L726 0H564L484 419Q478 449 473 480Q468 511 464.5 535.5Q461 560 458.5 575.5Q456 591 456 591H441Q441 591 438.5 575.5Q436 560 432.5 535.5Q429 511 424 480Q419 449 413 419L333 0H172L37 618Z" glyph-name="W" horiz-adv-x="897" unicode="W" /><glyph d="M572 896V824L372 725V803L509 896ZM37 680H129L219 260Q225 231 230 200.5Q235 170 239 145.5Q243 121 245 105Q247 89 247 89H262Q262 89 264 105Q266 121 270 145.5Q274 170 278.5 201Q283 232 289 261L370 680H530L611 261Q617 232 621.5 201Q626 170 629.5 145.5Q633 121 635 105Q637 89 637 89H653Q653 89 655 105Q657 121 661 145.5Q665 170 670 200.5Q675 231 681 260L771 680H860V618L726 0H564L484 419Q478 449 473 480Q468 511 464.5 535.5Q461 560 458.5 575.5Q456 591 456 591H441Q441 591 438.5 575.5Q436 560 432.5 535.5Q429 511 424 480Q419 449 413 419L333 0H172L37 618Z" glyph-name="Wacute" horiz-adv-x="897" unicode="&#7810;" /><glyph d="M316 737V780L413 868H484L581 780V737H518L484 769Q471 782 461 791.5Q451 801 451 801H446Q446 801 436.5 791.5Q427 782 414 769L379 737ZM37 680H129L219 260Q225 231 230 200.5Q235 170 239 145.5Q243 121 245 105Q247 89 247 89H262Q262 89 264 105Q266 121 270 145.5Q274 170 278.5 201Q283 232 289 261L370 680H530L611 261Q617 232 621.5 201Q626 170 629.5 145.5Q633 121 635 105Q637 89 637 89H653Q653 89 655 105Q657 121 661 145.5Q665 170 670 200.5Q675 231 681 260L771 680H860V618L726 0H564L484 419Q478 449 473 480Q468 511 464.5 535.5Q461 560 458.5 575.5Q456 591 456 591H441Q441 591 438.5 575.5Q436 560 432.5 535.5Q429 511 424 480Q419 449 413 419L333 0H172L37 618Z" glyph-name="Wcircumflex" horiz-adv-x="897" unicode="&#372;" /><glyph d="M311 805Q311 830 325.5 845Q340 860 370 860Q401 860 415 844.5Q429 829 429 805V797Q429 772 414.5 757Q400 742 370 742Q339 742 325 758Q311 774 311 797ZM466 805Q466 830 481 845Q496 860 525 860Q556 860 570 844.5Q584 829 584 805V797Q584 772 569.5 757Q555 742 525 742Q495 742 480.5 758Q466 774 466 797ZM37 680H129L219 260Q225 231 230 200.5Q235 170 239 145.5Q243 121 245 105Q247 89 247 89H262Q262 89 264 105Q266 121 270 145.5Q274 170 278.5 201Q283 232 289 261L370 680H530L611 261Q617 232 621.5 201Q626 170 629.5 145.5Q633 121 635 105Q637 89 637 89H653Q653 89 655 105Q657 121 661 145.5Q665 170 670 200.5Q675 231 681 260L771 680H860V618L726 0H564L484 419Q478 449 473 480Q468 511 464.5 535.5Q461 560 458.5 575.5Q456 591 456 591H441Q441 591 438.5 575.5Q436 560 432.5 535.5Q429 511 424 480Q419 449 413 419L333 0H172L37 618Z" glyph-name="Wdieresis" horiz-adv-x="897" unicode="&#7812;" /><glyph d="M324 896H387L524 803V725L324 824ZM37 680H129L219 260Q225 231 230 200.5Q235 170 239 145.5Q243 121 245 105Q247 89 247 89H262Q262 89 264 105Q266 121 270 145.5Q274 170 278.5 201Q283 232 289 261L370 680H530L611 261Q617 232 621.5 201Q626 170 629.5 145.5Q633 121 635 105Q637 89 637 89H653Q653 89 655 105Q657 121 661 145.5Q665 170 670 200.5Q675 231 681 260L771 680H860V618L726 0H564L484 419Q478 449 473 480Q468 511 464.5 535.5Q461 560 458.5 575.5Q456 591 456 591H441Q441 591 438.5 575.5Q436 560 432.5 535.5Q429 511 424 480Q419 449 413 419L333 0H172L37 618Z" glyph-name="Wgrave" horiz-adv-x="897" unicode="&#7808;" /><glyph d="M30 0V60L189 342V348L32 620V680H116L225 487Q243 454 259 422.5Q275 391 275 391H301Q301 391 317.5 422.5Q334 454 352 487L461 680H541V620L385 348V342L543 60V0H460L349 199Q342 214 333 231Q324 248 316.5 262.5Q309 277 304 287Q299 297 299 297H273Q273 297 268 287Q263 277 255.5 262.5Q248 248 239 231Q230 214 222 199L111 0Z" glyph-name="X" horiz-adv-x="573" unicode="X" /><glyph d="M144 75 218 85H219V263L19 615V680H100L217 466Q239 427 255 394Q271 361 271 361H276Q276 361 292 392.5Q308 424 330 464L449 680H525V615L322 263V85L396 75V0H144Z" glyph-name="Y" horiz-adv-x="544" unicode="Y" /><glyph d="M424 896V824L224 725V803L361 896ZM144 75 218 85H219V263L19 615V680H100L217 466Q239 427 255 394Q271 361 271 361H276Q276 361 292 392.5Q308 424 330 464L449 680H525V615L322 263V85L396 75V0H144Z" glyph-name="Yacute" horiz-adv-x="544" unicode="&#221;" /><glyph d="M141 737V780L238 868H309L406 780V737H343L309 769Q296 782 286 791.5Q276 801 276 801H271Q271 801 261.5 791.5Q252 782 239 769L204 737ZM144 75 218 85H219V263L19 615V680H100L217 466Q239 427 255 394Q271 361 271 361H276Q276 361 292 392.5Q308 424 330 464L449 680H525V615L322 263V85L396 75V0H144Z" glyph-name="Ycircumflex" horiz-adv-x="544" unicode="&#374;" /><glyph d="M136 805Q136 830 150.5 845Q165 860 195 860Q226 860 240 844.5Q254 829 254 805V797Q254 772 239.5 757Q225 742 195 742Q164 742 150 758Q136 774 136 797ZM291 805Q291 830 306 845Q321 860 350 860Q381 860 395 844.5Q409 829 409 805V797Q409 772 394.5 757Q380 742 350 742Q320 742 305.5 758Q291 774 291 797ZM144 75 218 85H219V263L19 615V680H100L217 466Q239 427 255 394Q271 361 271 361H276Q276 361 292 392.5Q308 424 330 464L449 680H525V615L322 263V85L396 75V0H144Z" glyph-name="Ydieresis" horiz-adv-x="544" unicode="&#376;" /><glyph d="M118 896H181L318 803V725L118 824ZM144 75 218 85H219V263L19 615V680H100L217 466Q239 427 255 394Q271 361 271 361H276Q276 361 292 392.5Q308 424 330 464L449 680H525V615L322 263V85L396 75V0H144Z" glyph-name="Ygrave" horiz-adv-x="544" unicode="&#7922;" /><glyph d="M42 0V101L288 468Q303 489 318 510Q333 531 344.5 548Q356 565 363.5 575.5Q371 586 371 586V589Q371 589 361 588.5Q351 588 336 587.5Q321 587 303 586.5Q285 586 269 586H49V680H486V579L240 212Q208 166 182 130.5Q156 95 156 95V92Q156 92 166 92.5Q176 93 190.5 93Q205 93 222.5 93.5Q240 94 255 94H492V0Z" glyph-name="Z" horiz-adv-x="534" unicode="Z" /><glyph d="M392 896V824L192 725V803L329 896ZM42 0V101L288 468Q303 489 318 510Q333 531 344.5 548Q356 565 363.5 575.5Q371 586 371 586V589Q371 589 361 588.5Q351 588 336 587.5Q321 587 303 586.5Q285 586 269 586H49V680H486V579L240 212Q208 166 182 130.5Q156 95 156 95V92Q156 92 166 92.5Q176 93 190.5 93Q205 93 222.5 93.5Q240 94 255 94H492V0Z" glyph-name="Zacute" horiz-adv-x="534" unicode="&#377;" /><glyph d="M131 868H194L229 836Q242 823 251.5 813.5Q261 804 261 804H266Q266 804 276 813.5Q286 823 299 836L333 868H396V825L299 737H228L131 825ZM42 0V101L288 468Q303 489 318 510Q333 531 344.5 548Q356 565 363.5 575.5Q371 586 371 586V589Q371 589 361 588.5Q351 588 336 587.5Q321 587 303 586.5Q285 586 269 586H49V680H486V579L240 212Q208 166 182 130.5Q156 95 156 95V92Q156 92 166 92.5Q176 93 190.5 93Q205 93 222.5 93.5Q240 94 255 94H492V0Z" glyph-name="Zcaron" horiz-adv-x="534" unicode="&#381;" /><glyph d="M201 807Q201 833 216.5 849Q232 865 263 865Q293 865 308.5 849Q324 833 324 807V799Q324 773 308.5 757.5Q293 742 263 742Q232 742 216.5 757.5Q201 773 201 799ZM42 0V101L288 468Q303 489 318 510Q333 531 344.5 548Q356 565 363.5 575.5Q371 586 371 586V589Q371 589 361 588.5Q351 588 336 587.5Q321 587 303 586.5Q285 586 269 586H49V680H486V579L240 212Q208 166 182 130.5Q156 95 156 95V92Q156 92 166 92.5Q176 93 190.5 93Q205 93 222.5 93.5Q240 94 255 94H492V0Z" glyph-name="Zdotaccent" horiz-adv-x="534" unicode="&#379;" /><glyph d="M85 399V480Q85 480 96.5 486Q108 492 130 499Q152 506 185 512.5Q218 519 261 519Q360 519 405.5 477Q451 435 451 355V0H368L355 54H352Q352 54 342.5 44.5Q333 35 314 23.5Q295 12 267 2.5Q239 -7 202 -7Q118 -7 82.5 35.5Q47 78 47 147Q47 219 90 258Q133 297 228 297H352V352Q352 392 328.5 411.5Q305 431 253 431Q227 431 209.5 426Q192 421 182.5 415Q173 409 169 404Q165 399 165 399ZM233 76Q264 76 286.5 84Q309 92 323.5 102Q338 112 345 120Q352 128 352 128V222H233Q186 222 165.5 202Q145 182 145 151Q145 112 164.5 94Q184 76 233 76Z" glyph-name="a" horiz-adv-x="526" unicode="a" /><glyph d="M50 237V277Q50 387 96.5 452.5Q143 518 241 518Q275 518 302 509.5Q329 501 347.5 491.5Q366 482 375 474Q384 466 384 466H387L400 513H481V0H397L384 55H381Q381 55 371.5 45.5Q362 36 343 25Q324 14 295.5 4.5Q267 -5 229 -5Q133 -5 91.5 58Q50 121 50 237ZM261 82Q290 82 312.5 89.5Q335 97 350 106Q365 115 373 122.5Q381 130 381 130V389Q381 389 373.5 395.5Q366 402 352 410Q338 418 317 424.5Q296 431 268 431Q202 431 177 387.5Q152 344 152 265V248Q152 167 172.5 124.5Q193 82 261 82Z" glyph-name="a.alt" horiz-adv-x="561" /><glyph d="M296 740H380V690L298 572H214ZM85 399V480Q85 480 96.5 486Q108 492 130 499Q152 506 185 512.5Q218 519 261 519Q360 519 405.5 477Q451 435 451 355V0H368L355 54H352Q352 54 342.5 44.5Q333 35 314 23.5Q295 12 267 2.5Q239 -7 202 -7Q118 -7 82.5 35.5Q47 78 47 147Q47 219 90 258Q133 297 228 297H352V352Q352 392 328.5 411.5Q305 431 253 431Q227 431 209.5 426Q192 421 182.5 415Q173 409 169 404Q165 399 165 399ZM233 76Q264 76 286.5 84Q309 92 323.5 102Q338 112 345 120Q352 128 352 128V222H233Q186 222 165.5 202Q145 182 145 151Q145 112 164.5 94Q184 76 233 76Z" glyph-name="aacute" horiz-adv-x="526" unicode="&#225;" /><glyph d="M308 740H392V690L310 572H226ZM50 237V277Q50 387 96.5 452.5Q143 518 241 518Q275 518 302 509.5Q329 501 347.5 491.5Q366 482 375 474Q384 466 384 466H387L400 513H481V0H397L384 55H381Q381 55 371.5 45.5Q362 36 343 25Q324 14 295.5 4.5Q267 -5 229 -5Q133 -5 91.5 58Q50 121 50 237ZM261 82Q290 82 312.5 89.5Q335 97 350 106Q365 115 373 122.5Q381 130 381 130V389Q381 389 373.5 395.5Q366 402 352 410Q338 418 317 424.5Q296 431 268 431Q202 431 177 387.5Q152 344 152 265V248Q152 167 172.5 124.5Q193 82 261 82Z" glyph-name="aacute.alt" horiz-adv-x="561" /><glyph d="M118 713H187Q187 713 188.5 703Q190 693 196.5 681.5Q203 670 217 660Q231 650 257 650Q283 650 297 660Q311 670 317.5 681.5Q324 693 325.5 703Q327 713 327 713H395V659Q395 659 389 646.5Q383 634 367.5 618.5Q352 603 325 590.5Q298 578 257 578Q216 578 189 590.5Q162 603 146.5 618.5Q131 634 124.5 646.5Q118 659 118 659ZM85 399V480Q85 480 96.5 486Q108 492 130 499Q152 506 185 512.5Q218 519 261 519Q360 519 405.5 477Q451 435 451 355V0H368L355 54H352Q352 54 342.5 44.5Q333 35 314 23.5Q295 12 267 2.5Q239 -7 202 -7Q118 -7 82.5 35.5Q47 78 47 147Q47 219 90 258Q133 297 228 297H352V352Q352 392 328.5 411.5Q305 431 253 431Q227 431 209.5 426Q192 421 182.5 415Q173 409 169 404Q165 399 165 399ZM233 76Q264 76 286.5 84Q309 92 323.5 102Q338 112 345 120Q352 128 352 128V222H233Q186 222 165.5 202Q145 182 145 151Q145 112 164.5 94Q184 76 233 76Z" glyph-name="abreve" horiz-adv-x="526" unicode="&#259;" /><glyph d="M135 713H204Q204 713 205.5 703Q207 693 213.5 681.5Q220 670 234 660Q248 650 274 650Q300 650 314 660Q328 670 334.5 681.5Q341 693 342.5 703Q344 713 344 713H412V659Q412 659 406 646.5Q400 634 384.5 618.5Q369 603 342 590.5Q315 578 274 578Q233 578 206 590.5Q179 603 163.5 618.5Q148 634 141.5 646.5Q135 659 135 659ZM50 237V277Q50 387 96.5 452.5Q143 518 241 518Q275 518 302 509.5Q329 501 347.5 491.5Q366 482 375 474Q384 466 384 466H387L400 513H481V0H397L384 55H381Q381 55 371.5 45.5Q362 36 343 25Q324 14 295.5 4.5Q267 -5 229 -5Q133 -5 91.5 58Q50 121 50 237ZM261 82Q290 82 312.5 89.5Q335 97 350 106Q365 115 373 122.5Q381 130 381 130V389Q381 389 373.5 395.5Q366 402 352 410Q338 418 317 424.5Q296 431 268 431Q202 431 177 387.5Q152 344 152 265V248Q152 167 172.5 124.5Q193 82 261 82Z" glyph-name="abreve.alt" horiz-adv-x="561" /><glyph d="M115 571V615L216 740H298L399 615V571H336L293 628Q279 645 269 659Q259 673 259 673H255Q255 673 245 659Q235 645 221 628L178 571ZM85 399V480Q85 480 96.5 486Q108 492 130 499Q152 506 185 512.5Q218 519 261 519Q360 519 405.5 477Q451 435 451 355V0H368L355 54H352Q352 54 342.5 44.5Q333 35 314 23.5Q295 12 267 2.5Q239 -7 202 -7Q118 -7 82.5 35.5Q47 78 47 147Q47 219 90 258Q133 297 228 297H352V352Q352 392 328.5 411.5Q305 431 253 431Q227 431 209.5 426Q192 421 182.5 415Q173 409 169 404Q165 399 165 399ZM233 76Q264 76 286.5 84Q309 92 323.5 102Q338 112 345 120Q352 128 352 128V222H233Q186 222 165.5 202Q145 182 145 151Q145 112 164.5 94Q184 76 233 76Z" glyph-name="acircumflex" horiz-adv-x="526" unicode="&#226;" /><glyph d="M132 571V615L233 740H315L416 615V571H353L310 628Q296 645 286 659Q276 673 276 673H272Q272 673 262 659Q252 645 238 628L195 571ZM50 237V277Q50 387 96.5 452.5Q143 518 241 518Q275 518 302 509.5Q329 501 347.5 491.5Q366 482 375 474Q384 466 384 466H387L400 513H481V0H397L384 55H381Q381 55 371.5 45.5Q362 36 343 25Q324 14 295.5 4.5Q267 -5 229 -5Q133 -5 91.5 58Q50 121 50 237ZM261 82Q290 82 312.5 89.5Q335 97 350 106Q365 115 373 122.5Q381 130 381 130V389Q381 389 373.5 395.5Q366 402 352 410Q338 418 317 424.5Q296 431 268 431Q202 431 177 387.5Q152 344 152 265V248Q152 167 172.5 124.5Q193 82 261 82Z" glyph-name="acircumflex.alt" horiz-adv-x="561" /><glyph d="M107 740H191V690L109 572H25Z" glyph-name="acute" horiz-adv-x="216" unicode="&#180;" /><glyph d="M107 740H191V690L109 572H25Z" glyph-name="acutecomb" horiz-adv-x="216" unicode="&#769;" /><glyph d="M235 896V824L35 725V803L172 896Z" glyph-name="acutecomb.case" horiz-adv-x="270" /><glyph d="M120 645Q120 670 134.5 685Q149 700 179 700Q210 700 224 684.5Q238 669 238 645V637Q238 612 223.5 597Q209 582 179 582Q148 582 134 598Q120 614 120 637ZM275 645Q275 670 290 685Q305 700 334 700Q365 700 379 684.5Q393 669 393 645V637Q393 612 378.5 597Q364 582 334 582Q304 582 289.5 598Q275 614 275 637ZM85 399V480Q85 480 96.5 486Q108 492 130 499Q152 506 185 512.5Q218 519 261 519Q360 519 405.5 477Q451 435 451 355V0H368L355 54H352Q352 54 342.5 44.5Q333 35 314 23.5Q295 12 267 2.5Q239 -7 202 -7Q118 -7 82.5 35.5Q47 78 47 147Q47 219 90 258Q133 297 228 297H352V352Q352 392 328.5 411.5Q305 431 253 431Q227 431 209.5 426Q192 421 182.5 415Q173 409 169 404Q165 399 165 399ZM233 76Q264 76 286.5 84Q309 92 323.5 102Q338 112 345 120Q352 128 352 128V222H233Q186 222 165.5 202Q145 182 145 151Q145 112 164.5 94Q184 76 233 76Z" glyph-name="adieresis" horiz-adv-x="526" unicode="&#228;" /><glyph d="M137 645Q137 670 151.5 685Q166 700 196 700Q227 700 241 684.5Q255 669 255 645V637Q255 612 240.5 597Q226 582 196 582Q165 582 151 598Q137 614 137 637ZM292 645Q292 670 307 685Q322 700 351 700Q382 700 396 684.5Q410 669 410 645V637Q410 612 395.5 597Q381 582 351 582Q321 582 306.5 598Q292 614 292 637ZM50 237V277Q50 387 96.5 452.5Q143 518 241 518Q275 518 302 509.5Q329 501 347.5 491.5Q366 482 375 474Q384 466 384 466H387L400 513H481V0H397L384 55H381Q381 55 371.5 45.5Q362 36 343 25Q324 14 295.5 4.5Q267 -5 229 -5Q133 -5 91.5 58Q50 121 50 237ZM261 82Q290 82 312.5 89.5Q335 97 350 106Q365 115 373 122.5Q381 130 381 130V389Q381 389 373.5 395.5Q366 402 352 410Q338 418 317 424.5Q296 431 268 431Q202 431 177 387.5Q152 344 152 265V248Q152 167 172.5 124.5Q193 82 261 82Z" glyph-name="adieresis.alt" horiz-adv-x="561" /><glyph d="M85 396V477Q85 477 96.5 483.5Q108 490 130 498Q152 506 184.5 512.5Q217 519 258 519Q312 519 350.5 505Q389 491 411 461Q438 491 476.5 506Q515 521 562 521Q606 521 644.5 510Q683 499 711 473Q739 447 755 404.5Q771 362 771 299Q771 269 768.5 245Q766 221 766 221H451V219Q451 156 478 118Q505 80 574 79Q602 79 621 83.5Q640 88 652 94Q664 100 669 105Q674 110 674 110H752V30Q752 30 740 24Q728 18 705.5 11Q683 4 649.5 -2Q616 -8 573 -8Q513 -8 468.5 11.5Q424 31 396 69Q390 62 375.5 49.5Q361 37 338.5 24.5Q316 12 284 2.5Q252 -7 212 -7Q128 -7 87.5 35.5Q47 78 47 147Q47 219 90.5 258Q134 297 229 297H351Q351 298 351 298.5Q351 299 351 300V350Q351 390 325.5 410.5Q300 431 249 431Q224 431 207.5 425.5Q191 420 182 413.5Q173 407 169.5 401.5Q166 396 166 396ZM451 301V297H669Q669 297 669.5 304Q670 311 670 320Q670 381 642.5 409.5Q615 438 562 438Q514 438 482.5 406.5Q451 375 451 301ZM235 75Q285 75 316.5 96.5Q348 118 364 137Q358 156 354.5 177Q351 198 350 221H233Q186 221 165.5 201.5Q145 182 145 151Q145 114 165.5 94.5Q186 75 235 75Z" glyph-name="ae" horiz-adv-x="820" unicode="&#230;" /><glyph d="M439 740H523V690L441 572H357ZM85 396V477Q85 477 96.5 483.5Q108 490 130 498Q152 506 184.5 512.5Q217 519 258 519Q312 519 350.5 505Q389 491 411 461Q438 491 476.5 506Q515 521 562 521Q606 521 644.5 510Q683 499 711 473Q739 447 755 404.5Q771 362 771 299Q771 269 768.5 245Q766 221 766 221H451V219Q451 156 478 118Q505 80 574 79Q602 79 621 83.5Q640 88 652 94Q664 100 669 105Q674 110 674 110H752V30Q752 30 740 24Q728 18 705.5 11Q683 4 649.5 -2Q616 -8 573 -8Q513 -8 468.5 11.5Q424 31 396 69Q390 62 375.5 49.5Q361 37 338.5 24.5Q316 12 284 2.5Q252 -7 212 -7Q128 -7 87.5 35.5Q47 78 47 147Q47 219 90.5 258Q134 297 229 297H351Q351 298 351 298.5Q351 299 351 300V350Q351 390 325.5 410.5Q300 431 249 431Q224 431 207.5 425.5Q191 420 182 413.5Q173 407 169.5 401.5Q166 396 166 396ZM451 301V297H669Q669 297 669.5 304Q670 311 670 320Q670 381 642.5 409.5Q615 438 562 438Q514 438 482.5 406.5Q451 375 451 301ZM235 75Q285 75 316.5 96.5Q348 118 364 137Q358 156 354.5 177Q351 198 350 221H233Q186 221 165.5 201.5Q145 182 145 151Q145 114 165.5 94.5Q186 75 235 75Z" glyph-name="aeacute" horiz-adv-x="820" unicode="&#509;" /><glyph d="M227 740 309 572H225L143 690V740ZM85 399V480Q85 480 96.5 486Q108 492 130 499Q152 506 185 512.5Q218 519 261 519Q360 519 405.5 477Q451 435 451 355V0H368L355 54H352Q352 54 342.5 44.5Q333 35 314 23.5Q295 12 267 2.5Q239 -7 202 -7Q118 -7 82.5 35.5Q47 78 47 147Q47 219 90 258Q133 297 228 297H352V352Q352 392 328.5 411.5Q305 431 253 431Q227 431 209.5 426Q192 421 182.5 415Q173 409 169 404Q165 399 165 399ZM233 76Q264 76 286.5 84Q309 92 323.5 102Q338 112 345 120Q352 128 352 128V222H233Q186 222 165.5 202Q145 182 145 151Q145 112 164.5 94Q184 76 233 76Z" glyph-name="agrave" horiz-adv-x="526" unicode="&#224;" /><glyph d="M256 740 338 572H254L172 690V740ZM50 237V277Q50 387 96.5 452.5Q143 518 241 518Q275 518 302 509.5Q329 501 347.5 491.5Q366 482 375 474Q384 466 384 466H387L400 513H481V0H397L384 55H381Q381 55 371.5 45.5Q362 36 343 25Q324 14 295.5 4.5Q267 -5 229 -5Q133 -5 91.5 58Q50 121 50 237ZM261 82Q290 82 312.5 89.5Q335 97 350 106Q365 115 373 122.5Q381 130 381 130V389Q381 389 373.5 395.5Q366 402 352 410Q338 418 317 424.5Q296 431 268 431Q202 431 177 387.5Q152 344 152 265V248Q152 167 172.5 124.5Q193 82 261 82Z" glyph-name="agrave.alt" horiz-adv-x="561" /><glyph d="M112 693H400V614H112ZM85 399V480Q85 480 96.5 486Q108 492 130 499Q152 506 185 512.5Q218 519 261 519Q360 519 405.5 477Q451 435 451 355V0H368L355 54H352Q352 54 342.5 44.5Q333 35 314 23.5Q295 12 267 2.5Q239 -7 202 -7Q118 -7 82.5 35.5Q47 78 47 147Q47 219 90 258Q133 297 228 297H352V352Q352 392 328.5 411.5Q305 431 253 431Q227 431 209.5 426Q192 421 182.5 415Q173 409 169 404Q165 399 165 399ZM233 76Q264 76 286.5 84Q309 92 323.5 102Q338 112 345 120Q352 128 352 128V222H233Q186 222 165.5 202Q145 182 145 151Q145 112 164.5 94Q184 76 233 76Z" glyph-name="amacron" horiz-adv-x="526" unicode="&#257;" /><glyph d="M129 693H417V614H129ZM50 237V277Q50 387 96.5 452.5Q143 518 241 518Q275 518 302 509.5Q329 501 347.5 491.5Q366 482 375 474Q384 466 384 466H387L400 513H481V0H397L384 55H381Q381 55 371.5 45.5Q362 36 343 25Q324 14 295.5 4.5Q267 -5 229 -5Q133 -5 91.5 58Q50 121 50 237ZM261 82Q290 82 312.5 89.5Q335 97 350 106Q365 115 373 122.5Q381 130 381 130V389Q381 389 373.5 395.5Q366 402 352 410Q338 418 317 424.5Q296 431 268 431Q202 431 177 387.5Q152 344 152 265V248Q152 167 172.5 124.5Q193 82 261 82Z" glyph-name="amacron.alt" horiz-adv-x="561" /><glyph d="M58 173Q58 235 90 275.5Q122 316 169 344Q135 384 117 425Q99 466 99 516Q99 597 150 643.5Q201 690 294 690Q387 690 438 644.5Q489 599 489 521Q489 459 453.5 415.5Q418 372 340 335L320 326L453 193Q457 208 458.5 224.5Q460 241 460 260V338H550V261Q550 222 543.5 187Q537 152 524 123L585 62V0H515L467 47Q435 20 388 5.5Q341 -9 281 -9Q159 -9 108.5 43Q58 95 58 173ZM198 517Q198 482 211 454Q224 426 258 389L291 405Q352 435 371 461Q390 487 390 520Q390 563 363.5 584Q337 605 294 605Q249 605 223.5 583Q198 561 198 517ZM158 176Q158 130 188.5 102.5Q219 75 282 75Q320 75 351 83.5Q382 92 404 110L231 281Q197 261 177.5 235.5Q158 210 158 176Z" glyph-name="ampersand" horiz-adv-x="616" unicode="&amp;" /><glyph d="M85 399V480Q85 480 96.5 486Q108 492 130 499Q152 506 185 512.5Q218 519 261 519Q360 519 405.5 477Q451 435 451 355V0L417 -33Q399 -49 390.5 -60.5Q382 -72 382 -85Q382 -98 392.5 -106.5Q403 -115 419 -115H437V-181H406Q360 -181 332.5 -157.5Q305 -134 305 -92Q305 -62 320.5 -38.5Q336 -15 361 8L365 12L355 54H352Q352 54 342.5 44.5Q333 35 314 23.5Q295 12 267 2.5Q239 -7 202 -7Q118 -7 82.5 35.5Q47 78 47 147Q47 219 90 258Q133 297 228 297H352V352Q352 392 328.5 411.5Q305 431 253 431Q227 431 209.5 426Q192 421 182.5 415Q173 409 169 404Q165 399 165 399ZM233 76Q264 76 286.5 84Q309 92 323.5 102Q338 112 345 120Q352 128 352 128V222H233Q186 222 165.5 202Q145 182 145 151Q145 112 164.5 94Q184 76 233 76Z" glyph-name="aogonek" horiz-adv-x="526" unicode="&#261;" /><glyph d="M50 237V277Q50 387 96.5 452.5Q143 518 241 518Q275 518 302 509.5Q329 501 347.5 491.5Q366 482 375 474Q384 466 384 466H387L400 513H481V0L447 -33Q429 -49 420.5 -60.5Q412 -72 412 -85Q412 -98 422.5 -106.5Q433 -115 449 -115H467V-181H436Q390 -181 362.5 -157.5Q335 -134 335 -92Q335 -62 350.5 -38.5Q366 -15 391 8L394 11L384 55H381Q381 55 371.5 45.5Q362 36 343 25Q324 14 295.5 4.5Q267 -5 229 -5Q133 -5 91.5 58Q50 121 50 237ZM261 82Q290 82 312.5 89.5Q335 97 350 106Q365 115 373 122.5Q381 130 381 130V389Q381 389 373.5 395.5Q366 402 352 410Q338 418 317 424.5Q296 431 268 431Q202 431 177 387.5Q152 344 152 265V248Q152 167 172.5 124.5Q193 82 261 82Z" glyph-name="aogonek.alt" horiz-adv-x="561" /><glyph d="M147 667Q147 717 177.5 746.5Q208 776 257 776Q306 776 336.5 746.5Q367 717 367 667Q367 618 336.5 588.5Q306 559 257 559Q208 559 177.5 588.5Q147 618 147 667ZM212 667Q212 648 223.5 634.5Q235 621 257 621Q280 621 291 634.5Q302 648 302 667Q302 687 291 700.5Q280 714 257 714Q235 714 223.5 700.5Q212 687 212 667ZM85 399V480Q85 480 96.5 486Q108 492 130 499Q152 506 185 512.5Q218 519 261 519Q360 519 405.5 477Q451 435 451 355V0H368L355 54H352Q352 54 342.5 44.5Q333 35 314 23.5Q295 12 267 2.5Q239 -7 202 -7Q118 -7 82.5 35.5Q47 78 47 147Q47 219 90 258Q133 297 228 297H352V352Q352 392 328.5 411.5Q305 431 253 431Q227 431 209.5 426Q192 421 182.5 415Q173 409 169 404Q165 399 165 399ZM233 76Q264 76 286.5 84Q309 92 323.5 102Q338 112 345 120Q352 128 352 128V222H233Q186 222 165.5 202Q145 182 145 151Q145 112 164.5 94Q184 76 233 76Z" glyph-name="aring" horiz-adv-x="526" unicode="&#229;" /><glyph d="M164 667Q164 717 194.5 746.5Q225 776 274 776Q323 776 353.5 746.5Q384 717 384 667Q384 618 353.5 588.5Q323 559 274 559Q225 559 194.5 588.5Q164 618 164 667ZM229 667Q229 648 240.5 634.5Q252 621 274 621Q297 621 308 634.5Q319 648 319 667Q319 687 308 700.5Q297 714 274 714Q252 714 240.5 700.5Q229 687 229 667ZM50 237V277Q50 387 96.5 452.5Q143 518 241 518Q275 518 302 509.5Q329 501 347.5 491.5Q366 482 375 474Q384 466 384 466H387L400 513H481V0H397L384 55H381Q381 55 371.5 45.5Q362 36 343 25Q324 14 295.5 4.5Q267 -5 229 -5Q133 -5 91.5 58Q50 121 50 237ZM261 82Q290 82 312.5 89.5Q335 97 350 106Q365 115 373 122.5Q381 130 381 130V389Q381 389 373.5 395.5Q366 402 352 410Q338 418 317 424.5Q296 431 268 431Q202 431 177 387.5Q152 344 152 265V248Q152 167 172.5 124.5Q193 82 261 82Z" glyph-name="aring.alt" horiz-adv-x="561" /><glyph d="M360 924V852L160 753V831L297 924ZM145 652Q145 702 175.5 731.5Q206 761 255 761Q304 761 334.5 731.5Q365 702 365 652Q365 603 334.5 573Q304 543 255 543Q206 543 175.5 573Q145 603 145 652ZM210 652Q210 633 221.5 619.5Q233 606 255 606Q278 606 289 619.5Q300 633 300 652Q300 672 289 685.5Q278 699 255 699Q233 699 221.5 685.5Q210 672 210 652ZM85 399V480Q85 480 96.5 486Q108 492 130 499Q152 506 185 512.5Q218 519 261 519Q360 519 405.5 477Q451 435 451 355V0H368L355 54H352Q352 54 342.5 44.5Q333 35 314 23.5Q295 12 267 2.5Q239 -7 202 -7Q118 -7 82.5 35.5Q47 78 47 147Q47 219 90 258Q133 297 228 297H352V352Q352 392 328.5 411.5Q305 431 253 431Q227 431 209.5 426Q192 421 182.5 415Q173 409 169 404Q165 399 165 399ZM233 76Q264 76 286.5 84Q309 92 323.5 102Q338 112 345 120Q352 128 352 128V222H233Q186 222 165.5 202Q145 182 145 151Q145 112 164.5 94Q184 76 233 76Z" glyph-name="aringacute" horiz-adv-x="526" unicode="&#507;" /><glyph d="M256 680H344L518 265V210H435L346 434Q339 452 331.5 472Q324 492 317.5 509Q311 526 306.5 537Q302 548 302 548H298Q298 548 293.5 537Q289 526 282.5 509Q276 492 268.5 472Q261 452 254 434L165 210H82V265Z" glyph-name="asciicircum" horiz-adv-x="600" unicode="^" /><glyph d="M51 234V305Q51 305 58.5 315.5Q66 326 82.5 338Q99 350 125 360.5Q151 371 187 371Q215 371 241 365Q267 359 290 350L318 340Q334 334 357.5 326.5Q381 319 406 319Q429 319 443 325.5Q457 332 464.5 340.5Q472 349 474.5 355.5Q477 362 477 362H548V291Q548 291 540.5 280.5Q533 270 517 257.5Q501 245 475 234.5Q449 224 412 224Q384 224 358.5 230Q333 236 309 245L282 255Q266 262 242 269.5Q218 277 194 277Q170 277 156 270.5Q142 264 135 255.5Q128 247 125.5 240.5Q123 234 123 234Z" glyph-name="asciitilde" horiz-adv-x="600" unicode="~" /><glyph d="M175 695H245V644Q245 619 242.5 591Q240 563 240 563L241 562Q241 562 264 578Q287 594 308 607L353 632L388 571L344 546Q322 533 297.5 521.5Q273 510 273 510V508Q273 508 297.5 496.5Q322 485 344 472L388 447L353 386L308 411Q287 424 264 440Q241 456 241 456L240 455Q240 455 242.5 427Q245 399 245 374V323H175V374Q175 399 177.5 427Q180 455 180 455L179 456Q179 456 156 440Q133 424 112 411L67 386L32 447L76 472Q98 485 123 496.5Q148 508 148 508V510Q148 510 123 521.5Q98 533 76 546L32 571L67 632L112 607Q133 594 156 578Q179 562 179 562L180 563Q180 563 177.5 591Q175 619 175 644Z" glyph-name="asterisk" horiz-adv-x="420" unicode="*" /><glyph d="M737 -25V-90Q737 -90 720.5 -100.5Q704 -111 671 -123Q638 -135 586.5 -145.5Q535 -156 466 -156Q273 -156 175 -55.5Q77 45 77 226V286Q77 463 175 563Q273 663 467 663Q663 663 759 568.5Q855 474 855 304V293Q855 174 808.5 118Q762 62 682 62Q647 62 623 71Q599 80 585 91Q571 102 565 111Q559 120 559 120H556Q556 120 548.5 111Q541 102 526 91Q511 80 489 71Q467 62 438 62Q364 62 329 108Q294 154 294 243V267Q294 356 331.5 402.5Q369 449 438 449Q463 449 482 442Q501 435 514 426Q527 417 533.5 410Q540 403 540 403H543L555 440H624V229Q624 193 632 164.5Q640 136 687 136Q723 136 743 165Q763 194 763 272V303Q763 438 696.5 509.5Q630 581 467 581Q317 581 243.5 506Q170 431 170 286V226Q170 79 245.5 2.5Q321 -74 466 -74Q522 -74 561.5 -66.5Q601 -59 626 -49.5Q651 -40 662.5 -32.5Q674 -25 674 -25ZM384 243Q384 184 403 161.5Q422 139 460 139Q478 139 492 144.5Q506 150 515.5 157Q525 164 530 169.5Q535 175 535 175V337Q535 337 530 342.5Q525 348 515.5 354.5Q506 361 492 366.5Q478 372 460 372Q422 372 403 348.5Q384 325 384 267Z" glyph-name="at" horiz-adv-x="933" unicode="@" /><glyph d="M737 40V-25Q737 -25 720.5 -35.5Q704 -46 671 -58Q638 -70 586.5 -80.5Q535 -91 466 -91Q273 -91 175 9.5Q77 110 77 291V351Q77 528 175 628Q273 728 467 728Q663 728 759 633.5Q855 539 855 369V358Q855 239 808.5 183Q762 127 682 127Q647 127 623 136Q599 145 585 156Q571 167 565 176Q559 185 559 185H556Q556 185 548.5 176Q541 167 526 156Q511 145 489 136Q467 127 438 127Q364 127 329 173Q294 219 294 308V332Q294 421 331.5 467.5Q369 514 438 514Q463 514 482 507Q501 500 514 491Q527 482 533.5 475Q540 468 540 468H543L555 505H624V294Q624 258 632 229.5Q640 201 687 201Q723 201 743 230Q763 259 763 337V368Q763 503 696.5 574.5Q630 646 467 646Q317 646 243.5 571Q170 496 170 351V291Q170 144 245.5 67.5Q321 -9 466 -9Q522 -9 561.5 -1.5Q601 6 626 15.5Q651 25 662.5 32.5Q674 40 674 40ZM384 308Q384 249 403 226.5Q422 204 460 204Q478 204 492 209.5Q506 215 515.5 222Q525 229 530 234.5Q535 240 535 240V402Q535 402 530 407.5Q525 413 515.5 419.5Q506 426 492 431.5Q478 437 460 437Q422 437 403 413.5Q384 390 384 332Z" glyph-name="at.case" horiz-adv-x="933" /><glyph d="M77 603V667Q77 667 82.5 674Q88 681 99.5 690Q111 699 130 706Q149 713 176 713Q196 713 216.5 708.5Q237 704 253 698L277 690Q290 684 302.5 681Q315 678 329 678Q359 678 367.5 692Q376 706 376 706H437V643Q437 643 431.5 636Q426 629 414.5 620Q403 611 384 604Q365 597 338 597Q317 597 297 601.5Q277 606 261 612L237 620Q223 625 210.5 628.5Q198 632 184 632Q154 632 145.5 617.5Q137 603 137 603ZM85 399V480Q85 480 96.5 486Q108 492 130 499Q152 506 185 512.5Q218 519 261 519Q360 519 405.5 477Q451 435 451 355V0H368L355 54H352Q352 54 342.5 44.5Q333 35 314 23.5Q295 12 267 2.5Q239 -7 202 -7Q118 -7 82.5 35.5Q47 78 47 147Q47 219 90 258Q133 297 228 297H352V352Q352 392 328.5 411.5Q305 431 253 431Q227 431 209.5 426Q192 421 182.5 415Q173 409 169 404Q165 399 165 399ZM233 76Q264 76 286.5 84Q309 92 323.5 102Q338 112 345 120Q352 128 352 128V222H233Q186 222 165.5 202Q145 182 145 151Q145 112 164.5 94Q184 76 233 76Z" glyph-name="atilde" horiz-adv-x="526" unicode="&#227;" /><glyph d="M94 603V667Q94 667 99.5 674Q105 681 116.5 690Q128 699 147 706Q166 713 193 713Q213 713 233.5 708.5Q254 704 270 698L294 690Q307 684 319.5 681Q332 678 346 678Q376 678 384.5 692Q393 706 393 706H454V643Q454 643 448.5 636Q443 629 431.5 620Q420 611 401 604Q382 597 355 597Q334 597 314 601.5Q294 606 278 612L254 620Q240 625 227.5 628.5Q215 632 201 632Q171 632 162.5 617.5Q154 603 154 603ZM50 237V277Q50 387 96.5 452.5Q143 518 241 518Q275 518 302 509.5Q329 501 347.5 491.5Q366 482 375 474Q384 466 384 466H387L400 513H481V0H397L384 55H381Q381 55 371.5 45.5Q362 36 343 25Q324 14 295.5 4.5Q267 -5 229 -5Q133 -5 91.5 58Q50 121 50 237ZM261 82Q290 82 312.5 89.5Q335 97 350 106Q365 115 373 122.5Q381 130 381 130V389Q381 389 373.5 395.5Q366 402 352 410Q338 418 317 424.5Q296 431 268 431Q202 431 177 387.5Q152 344 152 265V248Q152 167 172.5 124.5Q193 82 261 82Z" glyph-name="atilde.alt" horiz-adv-x="561" /><glyph d="M332 518Q428 518 470 454.5Q512 391 512 275V238Q512 128 465 61.5Q418 -5 321 -5Q286 -5 258.5 4Q231 13 213 24Q195 35 185.5 44Q176 53 176 53H173L161 0H80V740H180V554Q180 539 179.5 522Q179 505 179 490.5Q179 476 178.5 466.5Q178 457 178 457H181Q181 457 190.5 466.5Q200 476 218.5 487.5Q237 499 265.5 508.5Q294 518 332 518ZM180 128Q180 128 187.5 121Q195 114 209 105Q223 96 244 89Q265 82 293 82Q359 82 384.5 125Q410 168 410 249V264Q410 345 389 388Q368 431 300 431Q272 431 249.5 423.5Q227 416 211.5 406.5Q196 397 188 389.5Q180 382 180 382Z" glyph-name="b" horiz-adv-x="561" unicode="b" /><glyph d="M89 680 352 64V0H274L11 616V680Z" glyph-name="backslash" horiz-adv-x="363" unicode="\" /><glyph d="M83 818H178V-138H83Z" glyph-name="bar" horiz-adv-x="261" unicode="|" /><glyph d="M44 231V319Q84 319 100.5 336.5Q117 354 117 388V559Q117 608 129 640Q141 672 155.5 690.5Q170 709 182 716Q194 723 194 723H273V650Q273 650 264 648Q255 646 243.5 637.5Q232 629 223 610Q214 591 214 558V387Q214 346 198.5 318.5Q183 291 152 277V273Q183 259 198.5 231.5Q214 204 214 163V-8Q214 -41 223 -60Q232 -79 243.5 -87.5Q255 -96 264 -98Q273 -100 273 -100V-173H194Q194 -173 182 -166Q170 -159 155.5 -140.5Q141 -122 129 -90Q117 -58 117 -9V162Q117 196 100.5 213.5Q84 231 44 231Z" glyph-name="braceleft" horiz-adv-x="288" unicode="{" /><glyph d="M44 296V384Q84 384 100.5 401.5Q117 419 117 453V624Q117 673 129 705Q141 737 155.5 755.5Q170 774 182 781Q194 788 194 788H273V715Q273 715 264 713Q255 711 243.5 702.5Q232 694 223 675Q214 656 214 623V452Q214 411 198.5 383.5Q183 356 152 342V338Q183 324 198.5 296.5Q214 269 214 228V57Q214 24 223 5Q232 -14 243.5 -22.5Q255 -31 264 -33Q273 -35 273 -35V-108H194Q194 -108 182 -101Q170 -94 155.5 -75.5Q141 -57 129 -25Q117 7 117 56V227Q117 261 100.5 278.5Q84 296 44 296Z" glyph-name="braceleft.case" horiz-adv-x="288" /><glyph d="M244 231Q204 231 187.5 213.5Q171 196 171 162V-9Q171 -58 159 -90Q147 -122 132.5 -140.5Q118 -159 106 -166Q94 -173 94 -173H15V-100Q15 -100 24 -98Q33 -96 44.5 -87.5Q56 -79 65 -60Q74 -41 74 -8V163Q74 204 89.5 231.5Q105 259 136 273V277Q105 291 89.5 318.5Q74 346 74 387V558Q74 591 65 610Q56 629 44.5 637.5Q33 646 24 648Q15 650 15 650V723H94Q94 723 106 716Q118 709 132.5 690.5Q147 672 159 640Q171 608 171 559V388Q171 354 187.5 336.5Q204 319 244 319Z" glyph-name="braceright" horiz-adv-x="288" unicode="}" /><glyph d="M244 296Q204 296 187.5 278.5Q171 261 171 227V56Q171 7 159 -25Q147 -57 132.5 -75.5Q118 -94 106 -101Q94 -108 94 -108H15V-35Q15 -35 24 -33Q33 -31 44.5 -22.5Q56 -14 65 5Q74 24 74 57V228Q74 269 89.5 296.5Q105 324 136 338V342Q105 356 89.5 383.5Q74 411 74 452V623Q74 656 65 675Q56 694 44.5 702.5Q33 711 24 713Q15 715 15 715V788H94Q94 788 106 781Q118 774 132.5 755.5Q147 737 159 705Q171 673 171 624V453Q171 419 187.5 401.5Q204 384 244 384Z" glyph-name="braceright.case" horiz-adv-x="288" /><glyph d="M92 723H287V633H192V-83H287V-173H92Z" glyph-name="bracketleft" horiz-adv-x="303" unicode="[" /><glyph d="M92 788H287V698H192V-18H287V-108H92Z" glyph-name="bracketleft.case" horiz-adv-x="303" /><glyph d="M211 723V-173H16V-83H111V633H16V723Z" glyph-name="bracketright" horiz-adv-x="303" unicode="]" /><glyph d="M211 788V-108H16V-18H111V698H16V788Z" glyph-name="bracketright.case" horiz-adv-x="303" /><glyph d="M29 713H98Q98 713 99.5 703Q101 693 107.5 681.5Q114 670 128 660Q142 650 168 650Q194 650 208 660Q222 670 228.5 681.5Q235 693 236.5 703Q238 713 238 713H306V659Q306 659 300 646.5Q294 634 278.5 618.5Q263 603 236 590.5Q209 578 168 578Q127 578 100 590.5Q73 603 57.5 618.5Q42 634 35.5 646.5Q29 659 29 659Z" glyph-name="breve" horiz-adv-x="336" unicode="&#728;" /><glyph d="M83 820H178V426H83ZM83 256H178V-138H83Z" glyph-name="brokenbar" horiz-adv-x="261" unicode="&#166;" /><glyph d="M77 255Q77 318 113.5 356.5Q150 395 214 394Q278 394 314.5 356Q351 318 351 255Q351 192 314.5 154Q278 116 214 116Q150 116 113.5 154Q77 192 77 255Z" glyph-name="bullet" horiz-adv-x="428" unicode="&#8226;" /><glyph d="M50 242V270Q50 401 109 459.5Q168 518 269 518Q309 518 339.5 512Q370 506 389.5 498.5Q409 491 419 485Q429 479 429 479V395H349Q349 396 344.5 401.5Q340 407 330.5 413.5Q321 420 305.5 425Q290 430 267 430Q204 430 178 391.5Q152 353 152 267V245Q152 159 178 120.5Q204 82 267 82Q290 82 305.5 87Q321 92 330.5 98.5Q340 105 344.5 110.5Q349 116 349 117H429V34Q429 34 419 28Q409 22 389.5 14.5Q370 7 339.5 1Q309 -5 269 -5Q168 -5 109 53Q50 111 50 242Z" glyph-name="c" horiz-adv-x="470" unicode="c" /><glyph d="M285 740H369V690L287 572H203ZM50 242V270Q50 401 109 459.5Q168 518 269 518Q309 518 339.5 512Q370 506 389.5 498.5Q409 491 419 485Q429 479 429 479V395H349Q349 396 344.5 401.5Q340 407 330.5 413.5Q321 420 305.5 425Q290 430 267 430Q204 430 178 391.5Q152 353 152 267V245Q152 159 178 120.5Q204 82 267 82Q290 82 305.5 87Q321 92 330.5 98.5Q340 105 344.5 110.5Q349 116 349 117H429V34Q429 34 419 28Q409 22 389.5 14.5Q370 7 339.5 1Q309 -5 269 -5Q168 -5 109 53Q50 111 50 242Z" glyph-name="cacute" horiz-adv-x="470" unicode="&#263;" /><glyph d="M319 740V696L218 571H136L35 696V740H98L141 683Q155 666 165 652Q175 638 175 638H179Q179 638 189 652Q199 666 213 683L256 740Z" glyph-name="caron" horiz-adv-x="354" unicode="&#711;" /><glyph d="M47 550Q47 550 51.5 565.5Q56 581 61 607Q66 633 70.5 667.5Q75 702 75 740H176V693Q162 625 145.5 587.5Q129 550 129 550Z" glyph-name="caroncomb.alt" horiz-adv-x="241" /><glyph d="M407 740V696L306 571H224L123 696V740H186L229 683Q243 666 253 652Q263 638 263 638H267Q267 638 277 652Q287 666 301 683L344 740ZM50 242V270Q50 401 109 459.5Q168 518 269 518Q309 518 339.5 512Q370 506 389.5 498.5Q409 491 419 485Q429 479 429 479V395H349Q349 396 344.5 401.5Q340 407 330.5 413.5Q321 420 305.5 425Q290 430 267 430Q204 430 178 391.5Q152 353 152 267V245Q152 159 178 120.5Q204 82 267 82Q290 82 305.5 87Q321 92 330.5 98.5Q340 105 344.5 110.5Q349 116 349 117H429V34Q429 34 419 28Q409 22 389.5 14.5Q370 7 339.5 1Q309 -5 269 -5Q168 -5 109 53Q50 111 50 242Z" glyph-name="ccaron" horiz-adv-x="470" unicode="&#269;" /><glyph d="M50 242V270Q50 401 109 459.5Q168 518 269 518Q309 518 339.5 512Q370 506 389.5 498.5Q409 491 419 485Q429 479 429 479V395H349Q349 396 344.5 401.5Q340 407 330.5 413.5Q321 420 305.5 425Q290 430 267 430Q204 430 178 391.5Q152 353 152 267V245Q152 159 178 120.5Q204 82 267 82Q290 82 305.5 87Q321 92 330.5 98.5Q340 105 344.5 110.5Q349 116 349 117H429V34Q429 34 401.5 19.5Q374 5 320 -2Q320 -38 311.5 -66.5Q303 -95 293 -114.5Q283 -134 274.5 -144Q266 -154 266 -154H193V-101Q193 -101 199 -94.5Q205 -88 211.5 -76Q218 -64 224 -45.5Q230 -27 230 -3Q146 7 98 65.5Q50 124 50 242Z" glyph-name="ccedilla" horiz-adv-x="470" unicode="&#231;" /><glyph d="M123 571V615L224 740H306L407 615V571H344L301 628Q287 645 277 659Q267 673 267 673H263Q263 673 253 659Q243 645 229 628L186 571ZM50 242V270Q50 401 109 459.5Q168 518 269 518Q309 518 339.5 512Q370 506 389.5 498.5Q409 491 419 485Q429 479 429 479V395H349Q349 396 344.5 401.5Q340 407 330.5 413.5Q321 420 305.5 425Q290 430 267 430Q204 430 178 391.5Q152 353 152 267V245Q152 159 178 120.5Q204 82 267 82Q290 82 305.5 87Q321 92 330.5 98.5Q340 105 344.5 110.5Q349 116 349 117H429V34Q429 34 419 28Q409 22 389.5 14.5Q370 7 339.5 1Q309 -5 269 -5Q168 -5 109 53Q50 111 50 242Z" glyph-name="ccircumflex" horiz-adv-x="470" unicode="&#265;" /><glyph d="M203 640Q203 666 218.5 682Q234 698 265 698Q295 698 310.5 682Q326 666 326 640V632Q326 606 310.5 590.5Q295 575 265 575Q234 575 218.5 590.5Q203 606 203 632ZM50 242V270Q50 401 109 459.5Q168 518 269 518Q309 518 339.5 512Q370 506 389.5 498.5Q409 491 419 485Q429 479 429 479V395H349Q349 396 344.5 401.5Q340 407 330.5 413.5Q321 420 305.5 425Q290 430 267 430Q204 430 178 391.5Q152 353 152 267V245Q152 159 178 120.5Q204 82 267 82Q290 82 305.5 87Q321 92 330.5 98.5Q340 105 344.5 110.5Q349 116 349 117H429V34Q429 34 419 28Q409 22 389.5 14.5Q370 7 339.5 1Q309 -5 269 -5Q168 -5 109 53Q50 111 50 242Z" glyph-name="cdotaccent" horiz-adv-x="470" unicode="&#267;" /><glyph d="M99 -154H26V-101Q26 -101 32 -94.5Q38 -88 44.5 -75.5Q51 -63 57 -44Q63 -25 63 0V36H153V0Q153 -37 144.5 -65.5Q136 -94 126 -113.5Q116 -133 107.5 -143.5Q99 -154 99 -154Z" glyph-name="cedilla" horiz-adv-x="181" unicode="&#184;" /><glyph d="M50 242V270Q50 381 93.5 440.5Q137 500 213 513V646H312V516Q371 510 400 494.5Q429 479 429 479V395H349Q349 396 344.5 401.5Q340 407 330.5 413.5Q321 420 305.5 425Q290 430 267 430Q204 430 178 391.5Q152 353 152 267V245Q152 159 178 120.5Q204 82 267 82Q290 82 305.5 87Q321 92 330.5 98.5Q340 105 344.5 110.5Q349 116 349 117H429V34Q429 34 400 18.5Q371 3 312 -3V-138H213V0Q137 13 93.5 72Q50 131 50 242Z" glyph-name="cent" horiz-adv-x="470" unicode="&#162;" /><glyph d="M35 571V615L136 740H218L319 615V571H256L213 628Q199 645 189 659Q179 673 179 673H175Q175 673 165 659Q155 645 141 628L98 571Z" glyph-name="circumflex" horiz-adv-x="354" unicode="&#710;" /><glyph d="M44 443Q44 471 61 487.5Q78 504 109 504Q141 504 158 487.5Q175 471 175 443V435Q175 407 158 390Q141 373 109 373Q78 373 61 390Q44 407 44 435ZM44 66Q44 94 61 110.5Q78 127 109 127Q141 127 158 110.5Q175 94 175 66V58Q175 30 158 13Q141 -4 109 -4Q78 -4 61 13Q44 30 44 58Z" glyph-name="colon" horiz-adv-x="219" unicode=":" /><glyph d="M13 -139Q13 -139 20.5 -119Q28 -99 37.5 -64.5Q47 -30 54.5 18.5Q62 67 62 124H165V64Q156 11 143.5 -27.5Q131 -66 120 -90.5Q109 -115 101 -127Q93 -139 93 -139Z" glyph-name="comma" horiz-adv-x="219" unicode="," /><glyph d="M58 340Q58 503 143.5 596.5Q229 690 398 690Q567 690 652.5 596.5Q738 503 738 340Q738 177 652.5 83.5Q567 -10 398 -10Q229 -10 143.5 83.5Q58 177 58 340ZM141 340Q141 203 207 133Q273 63 398 63Q523 63 589 133Q655 203 655 340Q655 478 589 547.5Q523 617 398 617Q273 617 207 547.5Q141 478 141 340ZM253 319V363Q253 444 290 484Q327 524 400 524Q438 524 462.5 514.5Q487 505 501.5 493Q516 481 522 471.5Q528 462 528 462V407H459Q459 407 458 414Q457 421 451 429.5Q445 438 433 445Q421 452 400 452Q363 452 347.5 432.5Q332 413 332 373V309Q332 269 347.5 249.5Q363 230 400 230Q421 230 433 237Q445 244 451 252.5Q457 261 458 268Q459 275 459 275H528V220Q528 220 522 210.5Q516 201 501.5 189Q487 177 462.5 167.5Q438 158 400 158Q327 158 290 198Q253 238 253 319Z" glyph-name="copyright" horiz-adv-x="796" unicode="&#169;" /><glyph d="M59 82 130 153Q117 175 110 201Q103 227 103 256Q103 285 109.5 310.5Q116 336 129 358L59 430L120 491L192 421Q214 434 239.5 440.5Q265 447 294 447Q323 447 349 440Q375 433 397 420L468 491L529 430L459 358Q472 336 478.5 310.5Q485 285 485 256Q485 227 478 201Q471 175 458 153L529 82L468 21L397 92Q375 79 349 72Q323 65 294 65Q265 65 239.5 71.5Q214 78 192 91L120 21ZM188 256Q188 207 216.5 176Q245 145 294 145Q343 145 371.5 176Q400 207 400 256Q400 305 371.5 336Q343 367 294 367Q245 367 216.5 336Q188 305 188 256Z" glyph-name="currency" horiz-adv-x="588" unicode="&#164;" /><glyph d="M50 238V276Q50 386 96.5 452Q143 518 241 518Q275 518 301 511Q327 504 345 495.5Q363 487 372 480Q381 473 381 473H384Q384 473 383.5 483Q383 493 382.5 508Q382 523 381.5 540.5Q381 558 381 573V740H481V0H397L384 55H381Q381 55 371.5 45.5Q362 36 343 25Q324 14 295.5 4.5Q267 -5 229 -5Q133 -5 91.5 58.5Q50 122 50 238ZM261 82Q290 82 312.5 89.5Q335 97 350 106Q365 115 373 122.5Q381 130 381 130V394Q381 394 373.5 400Q366 406 352 412.5Q338 419 317 425Q296 431 268 431Q202 431 177 388Q152 345 152 264V249Q152 168 172.5 125Q193 82 261 82Z" glyph-name="d" horiz-adv-x="561" unicode="d" /><glyph d="M21 406V500H105Q129 500 156.5 498.5Q184 497 184 497L186 499Q186 499 184.5 526.5Q183 554 183 578V680H284V578Q284 554 282.5 526.5Q281 499 281 499L283 497Q283 497 310.5 498.5Q338 500 362 500H446V406H362Q338 406 310.5 407.5Q283 409 283 409L281 407Q281 407 282.5 379.5Q284 352 284 328V-101H183V328Q183 352 184.5 379.5Q186 407 186 407L184 409Q184 409 156.5 407.5Q129 406 105 406Z" glyph-name="dagger" horiz-adv-x="467" unicode="&#8224;" /><glyph d="M21 79V173H105Q129 173 156.5 171.5Q184 170 184 170L186 172Q186 172 184.5 199.5Q183 227 183 251V328Q183 352 184.5 379.5Q186 407 186 407L184 409Q184 409 156.5 407.5Q129 406 105 406H21V500H105Q129 500 156.5 498.5Q184 497 184 497L186 499Q186 499 184.5 526.5Q183 554 183 578V680H284V578Q284 554 282.5 526.5Q281 499 281 499L283 497Q283 497 310.5 498.5Q338 500 362 500H446V406H362Q338 406 310.5 407.5Q283 409 283 409L281 407Q281 407 282.5 379.5Q284 352 284 328V251Q284 227 282.5 199.5Q281 172 281 172L283 170Q283 170 310.5 171.5Q338 173 362 173H446V79H362Q338 79 310.5 80.5Q283 82 283 82L281 80Q281 80 282.5 52.5Q284 25 284 1V-101H183V1Q183 25 184.5 52.5Q186 80 186 80L184 82Q184 82 156.5 80.5Q129 79 105 79Z" glyph-name="daggerdbl" horiz-adv-x="467" unicode="&#8225;" /><glyph d="M50 238V276Q50 386 96.5 452Q143 518 241 518Q275 518 301 511Q327 504 345 495.5Q363 487 372 480Q381 473 381 473H384Q384 473 383.5 483Q383 493 382.5 508Q382 523 381.5 540.5Q381 558 381 573V740H481V0H397L384 55H381Q381 55 371.5 45.5Q362 36 343 25Q324 14 295.5 4.5Q267 -5 229 -5Q133 -5 91.5 58.5Q50 122 50 238ZM541 550Q541 550 545.5 565.5Q550 581 555 607Q560 633 564.5 667.5Q569 702 569 740H670V693Q656 625 639.5 587.5Q623 550 623 550ZM261 82Q290 82 312.5 89.5Q335 97 350 106Q365 115 373 122.5Q381 130 381 130V394Q381 394 373.5 400Q366 406 352 412.5Q338 419 317 425Q296 431 268 431Q202 431 177 388Q152 345 152 264V249Q152 168 172.5 125Q193 82 261 82Z" glyph-name="dcaron" horiz-adv-x="665" unicode="&#271;" /><glyph d="M50 238V276Q50 386 96.5 452Q143 518 241 518Q275 518 301 511Q327 504 345 495.5Q363 487 372 480Q381 473 381 473H384Q384 473 383.5 483Q383 493 382.5 508Q382 523 381.5 540.5Q381 558 381 573V577H247V656H381V740H481V656H546V577H481V0H397L384 55H381Q381 55 371.5 45.5Q362 36 343 25Q324 14 295.5 4.5Q267 -5 229 -5Q133 -5 91.5 58.5Q50 122 50 238ZM261 82Q290 82 312.5 89.5Q335 97 350 106Q365 115 373 122.5Q381 130 381 130V394Q381 394 373.5 400Q366 406 352 412.5Q338 419 317 425Q296 431 268 431Q202 431 177 388Q152 345 152 264V249Q152 168 172.5 125Q193 82 261 82Z" glyph-name="dcroat" horiz-adv-x="561" unicode="&#273;" /><glyph d="M33 540Q33 606 72 649Q111 692 186 692Q261 692 300 649Q339 606 339 540Q339 475 300 431.5Q261 388 186 388Q111 388 72 431.5Q33 475 33 540ZM118 540Q118 503 137.5 484.5Q157 466 186 466Q214 466 233.5 484.5Q253 503 253 540Q253 578 233.5 596Q214 614 186 614Q157 614 137.5 596Q118 578 118 540Z" glyph-name="degree" horiz-adv-x="371" unicode="&#176;" /><glyph d="M28 645Q28 670 42.5 685Q57 700 87 700Q118 700 132 684.5Q146 669 146 645V637Q146 612 131.5 597Q117 582 87 582Q56 582 42 598Q28 614 28 637ZM183 645Q183 670 198 685Q213 700 242 700Q273 700 287 684.5Q301 669 301 645V637Q301 612 286.5 597Q272 582 242 582Q212 582 197.5 598Q183 614 183 637Z" glyph-name="dieresis" horiz-adv-x="329" unicode="&#168;" /><glyph d="M235 477Q235 505 252 521.5Q269 538 300 538Q332 538 349 521.5Q366 505 366 477V469Q366 441 349 424Q332 407 300 407Q269 407 252 424Q235 441 235 469ZM65 344H535V251H65ZM235 128Q235 156 252 172.5Q269 189 300 189Q332 189 349 172.5Q366 156 366 128V120Q366 92 349 75Q332 58 300 58Q269 58 252 75Q235 92 235 120Z" glyph-name="divide" horiz-adv-x="600" unicode="&#247;" /><glyph d="M79 165H155Q155 165 159.5 158.5Q164 152 176.5 145Q189 138 211.5 131.5Q234 125 270 125Q328 125 354.5 147.5Q381 170 381 210Q381 238 361.5 258.5Q342 279 297 293L241 311Q159 337 126.5 377Q94 417 94 478Q94 542 132 583.5Q170 625 241 636V818H333V638Q368 635 394.5 627.5Q421 620 438 613Q455 606 463 600Q471 594 471 594V515H393Q393 515 389 521.5Q385 528 374.5 535Q364 542 344.5 548.5Q325 555 295 555Q238 555 215.5 533.5Q193 512 193 480Q193 456 208.5 437.5Q224 419 271 404L329 386Q410 360 445 319Q480 278 480 216Q480 149 442 103.5Q404 58 332 45V-138H240V41Q198 43 167.5 50.5Q137 58 117.5 65.5Q98 73 88.5 79Q79 85 79 85Z" glyph-name="dollar" horiz-adv-x="559" unicode="$" /><glyph d="M22 640Q22 666 37.5 682Q53 698 84 698Q114 698 129.5 682Q145 666 145 640V632Q145 606 129.5 590.5Q114 575 84 575Q53 575 37.5 590.5Q22 606 22 632Z" glyph-name="dotaccent" horiz-adv-x="167" unicode="&#729;" /><glyph d="M22 -129Q22 -103 37.5 -87Q53 -71 84 -71Q114 -71 129.5 -87Q145 -103 145 -129V-137Q145 -163 129.5 -178.5Q114 -194 84 -194Q53 -194 37.5 -178.5Q22 -163 22 -137Z" glyph-name="dotbelowcomb" horiz-adv-x="167" unicode="&#803;" /><glyph d="M180 0H80V513H180Z" glyph-name="dotlessi" horiz-adv-x="261" unicode="&#305;" /><glyph d="M193 513V0H93V427L31 437V513Z" glyph-name="dotlessi.alt" horiz-adv-x="274" /><glyph d="M50 242V270Q50 393 108 457Q166 521 262 521Q306 521 344.5 510Q383 499 411 473Q439 447 455 404.5Q471 362 471 299Q471 269 468.5 245Q466 221 466 221H151V219Q151 156 178 118Q205 80 274 79Q302 79 321 83.5Q340 88 352 94Q364 100 369 105Q374 110 374 110H452V30Q452 30 440 24Q428 18 405.5 11Q383 4 349.5 -2Q316 -8 273 -8Q164 -8 107 56Q50 120 50 242ZM151 301V297H369Q369 297 369.5 304Q370 311 370 320Q370 381 342.5 409.5Q315 438 262 438Q214 438 182.5 406.5Q151 375 151 301Z" glyph-name="e" horiz-adv-x="520" unicode="e" /><glyph d="M299 740H383V690L301 572H217ZM50 242V270Q50 393 108 457Q166 521 262 521Q306 521 344.5 510Q383 499 411 473Q439 447 455 404.5Q471 362 471 299Q471 269 468.5 245Q466 221 466 221H151V219Q151 156 178 118Q205 80 274 79Q302 79 321 83.5Q340 88 352 94Q364 100 369 105Q374 110 374 110H452V30Q452 30 440 24Q428 18 405.5 11Q383 4 349.5 -2Q316 -8 273 -8Q164 -8 107 56Q50 120 50 242ZM151 301V297H369Q369 297 369.5 304Q370 311 370 320Q370 381 342.5 409.5Q315 438 262 438Q214 438 182.5 406.5Q151 375 151 301Z" glyph-name="eacute" horiz-adv-x="520" unicode="&#233;" /><glyph d="M126 713H195Q195 713 196.5 703Q198 693 204.5 681.5Q211 670 225 660Q239 650 265 650Q291 650 305 660Q319 670 325.5 681.5Q332 693 333.5 703Q335 713 335 713H403V659Q403 659 397 646.5Q391 634 375.5 618.5Q360 603 333 590.5Q306 578 265 578Q224 578 197 590.5Q170 603 154.5 618.5Q139 634 132.5 646.5Q126 659 126 659ZM50 242V270Q50 393 108 457Q166 521 262 521Q306 521 344.5 510Q383 499 411 473Q439 447 455 404.5Q471 362 471 299Q471 269 468.5 245Q466 221 466 221H151V219Q151 156 178 118Q205 80 274 79Q302 79 321 83.5Q340 88 352 94Q364 100 369 105Q374 110 374 110H452V30Q452 30 440 24Q428 18 405.5 11Q383 4 349.5 -2Q316 -8 273 -8Q164 -8 107 56Q50 120 50 242ZM151 301V297H369Q369 297 369.5 304Q370 311 370 320Q370 381 342.5 409.5Q315 438 262 438Q214 438 182.5 406.5Q151 375 151 301Z" glyph-name="ebreve" horiz-adv-x="520" unicode="&#277;" /><glyph d="M407 740V696L306 571H224L123 696V740H186L229 683Q243 666 253 652Q263 638 263 638H267Q267 638 277 652Q287 666 301 683L344 740ZM50 242V270Q50 393 108 457Q166 521 262 521Q306 521 344.5 510Q383 499 411 473Q439 447 455 404.5Q471 362 471 299Q471 269 468.5 245Q466 221 466 221H151V219Q151 156 178 118Q205 80 274 79Q302 79 321 83.5Q340 88 352 94Q364 100 369 105Q374 110 374 110H452V30Q452 30 440 24Q428 18 405.5 11Q383 4 349.5 -2Q316 -8 273 -8Q164 -8 107 56Q50 120 50 242ZM151 301V297H369Q369 297 369.5 304Q370 311 370 320Q370 381 342.5 409.5Q315 438 262 438Q214 438 182.5 406.5Q151 375 151 301Z" glyph-name="ecaron" horiz-adv-x="520" unicode="&#283;" /><glyph d="M123 571V615L224 740H306L407 615V571H344L301 628Q287 645 277 659Q267 673 267 673H263Q263 673 253 659Q243 645 229 628L186 571ZM50 242V270Q50 393 108 457Q166 521 262 521Q306 521 344.5 510Q383 499 411 473Q439 447 455 404.5Q471 362 471 299Q471 269 468.5 245Q466 221 466 221H151V219Q151 156 178 118Q205 80 274 79Q302 79 321 83.5Q340 88 352 94Q364 100 369 105Q374 110 374 110H452V30Q452 30 440 24Q428 18 405.5 11Q383 4 349.5 -2Q316 -8 273 -8Q164 -8 107 56Q50 120 50 242ZM151 301V297H369Q369 297 369.5 304Q370 311 370 320Q370 381 342.5 409.5Q315 438 262 438Q214 438 182.5 406.5Q151 375 151 301Z" glyph-name="ecircumflex" horiz-adv-x="520" unicode="&#234;" /><glyph d="M128 645Q128 670 142.5 685Q157 700 187 700Q218 700 232 684.5Q246 669 246 645V637Q246 612 231.5 597Q217 582 187 582Q156 582 142 598Q128 614 128 637ZM283 645Q283 670 298 685Q313 700 342 700Q373 700 387 684.5Q401 669 401 645V637Q401 612 386.5 597Q372 582 342 582Q312 582 297.5 598Q283 614 283 637ZM50 242V270Q50 393 108 457Q166 521 262 521Q306 521 344.5 510Q383 499 411 473Q439 447 455 404.5Q471 362 471 299Q471 269 468.5 245Q466 221 466 221H151V219Q151 156 178 118Q205 80 274 79Q302 79 321 83.5Q340 88 352 94Q364 100 369 105Q374 110 374 110H452V30Q452 30 440 24Q428 18 405.5 11Q383 4 349.5 -2Q316 -8 273 -8Q164 -8 107 56Q50 120 50 242ZM151 301V297H369Q369 297 369.5 304Q370 311 370 320Q370 381 342.5 409.5Q315 438 262 438Q214 438 182.5 406.5Q151 375 151 301Z" glyph-name="edieresis" horiz-adv-x="520" unicode="&#235;" /><glyph d="M203 640Q203 666 218.5 682Q234 698 265 698Q295 698 310.5 682Q326 666 326 640V632Q326 606 310.5 590.5Q295 575 265 575Q234 575 218.5 590.5Q203 606 203 632ZM50 242V270Q50 393 108 457Q166 521 262 521Q306 521 344.5 510Q383 499 411 473Q439 447 455 404.5Q471 362 471 299Q471 269 468.5 245Q466 221 466 221H151V219Q151 156 178 118Q205 80 274 79Q302 79 321 83.5Q340 88 352 94Q364 100 369 105Q374 110 374 110H452V30Q452 30 440 24Q428 18 405.5 11Q383 4 349.5 -2Q316 -8 273 -8Q164 -8 107 56Q50 120 50 242ZM151 301V297H369Q369 297 369.5 304Q370 311 370 320Q370 381 342.5 409.5Q315 438 262 438Q214 438 182.5 406.5Q151 375 151 301Z" glyph-name="edotaccent" horiz-adv-x="520" unicode="&#279;" /><glyph d="M234 740 316 572H232L150 690V740ZM50 242V270Q50 393 108 457Q166 521 262 521Q306 521 344.5 510Q383 499 411 473Q439 447 455 404.5Q471 362 471 299Q471 269 468.5 245Q466 221 466 221H151V219Q151 156 178 118Q205 80 274 79Q302 79 321 83.5Q340 88 352 94Q364 100 369 105Q374 110 374 110H452V30Q452 30 440 24Q428 18 405.5 11Q383 4 349.5 -2Q316 -8 273 -8Q164 -8 107 56Q50 120 50 242ZM151 301V297H369Q369 297 369.5 304Q370 311 370 320Q370 381 342.5 409.5Q315 438 262 438Q214 438 182.5 406.5Q151 375 151 301Z" glyph-name="egrave" horiz-adv-x="520" unicode="&#232;" /><glyph d="M66 499Q66 583 117.5 636.5Q169 690 282 690Q395 690 446 636.5Q497 583 497 499Q497 462 487 433Q477 404 464.5 384.5Q452 365 442 355Q432 345 432 345V343Q432 343 444 332Q456 321 469.5 300.5Q483 280 495 250Q507 220 507 182Q507 95 453.5 42.5Q400 -10 282 -10Q164 -10 110 42.5Q56 95 56 182Q56 220 68 250Q80 280 94 300.5Q108 321 120 332Q132 343 132 343V345Q132 345 121.5 355Q111 365 99 384.5Q87 404 76.5 433Q66 462 66 499ZM170 496Q170 467 177 447Q184 427 193 415Q202 403 209 397.5Q216 392 216 392H347Q347 392 354.5 397.5Q362 403 370.5 415Q379 427 386.5 447Q394 467 394 496Q394 548 366.5 573.5Q339 599 282 599Q225 599 197.5 573.5Q170 548 170 496ZM404 186Q405 215 396.5 236Q388 257 377.5 270.5Q367 284 358.5 290.5Q350 297 350 297H214Q214 297 205 290.5Q196 284 186 270.5Q176 257 167.5 236Q159 215 160 186Q161 133 191.5 106.5Q222 80 282 80Q342 80 372.5 106.5Q403 133 404 186Z" glyph-name="eight" horiz-adv-x="564" unicode="8" /><glyph d="M186 -7Q114 -7 78 23Q42 53 42 106Q42 130 48.5 148Q55 166 63 178.5Q71 191 77.5 197Q84 203 84 203V205Q84 205 78 211Q72 217 65.5 228.5Q59 240 53 257Q47 274 47 296Q47 345 81.5 377.5Q116 410 186 410Q256 410 290 377.5Q324 345 324 296Q324 274 318 257Q312 240 305.5 228.5Q299 217 293 211Q287 205 287 205V203Q287 203 293.5 197Q300 191 308 178.5Q316 166 322.5 148Q329 130 329 106Q329 53 293.5 23Q258 -7 186 -7ZM125 290Q125 262 137 249Q149 236 149 236H223Q223 236 234.5 249Q246 262 246 290Q246 316 230 329.5Q214 343 186 343Q157 343 141 329.5Q125 316 125 290ZM186 60Q220 60 236 74.5Q252 89 252 113Q252 144 238 157Q224 170 224 170H148Q148 170 134 157Q120 144 120 113Q120 89 136 74.5Q152 60 186 60Z" glyph-name="eight.dnom" horiz-adv-x="371" /><glyph d="M186 270Q114 270 78 300Q42 330 42 383Q42 407 48.5 425Q55 443 63 455.5Q71 468 77.5 474Q84 480 84 480V482Q84 482 78 488Q72 494 65.5 505.5Q59 517 53 534Q47 551 47 573Q47 622 81.5 654.5Q116 687 186 687Q256 687 290 654.5Q324 622 324 573Q324 551 318 534Q312 517 305.5 505.5Q299 494 293 488Q287 482 287 482V480Q287 480 293.5 474Q300 468 308 455.5Q316 443 322.5 425Q329 407 329 383Q329 330 293.5 300Q258 270 186 270ZM125 567Q125 539 137 526Q149 513 149 513H223Q223 513 234.5 526Q246 539 246 567Q246 593 230 606.5Q214 620 186 620Q157 620 141 606.5Q125 593 125 567ZM186 337Q220 337 236 351.5Q252 366 252 390Q252 421 238 434Q224 447 224 447H148Q148 447 134 434Q120 421 120 390Q120 366 136 351.5Q152 337 186 337Z" glyph-name="eight.numr" horiz-adv-x="371" /><glyph d="M74 474Q74 510 85.5 542.5Q97 575 121 599.5Q145 624 184 638Q223 652 278 652Q333 652 372.5 638Q412 624 436 599.5Q460 575 471.5 542.5Q483 510 483 474Q483 439 474 412Q465 385 455 367Q445 349 436 339.5Q427 330 427 330V326Q427 326 438 317Q449 308 462.5 289Q476 270 487 241Q498 212 498 173Q498 92 447 42Q396 -8 278 -8Q161 -8 110 42Q59 92 59 173Q59 212 70 241Q81 270 94 289Q107 308 118 317Q129 326 129 326V330Q129 330 120.5 339.5Q112 349 101.5 367Q91 385 82.5 412Q74 439 74 474ZM173 472Q173 444 179.5 425Q186 406 194.5 394Q203 382 209.5 377Q216 372 216 372H341Q341 372 347.5 377Q354 382 362.5 394Q371 406 377.5 425Q384 444 384 472Q384 518 358 542Q332 566 278 566Q224 566 198.5 542Q173 518 173 472ZM399 181Q399 210 390 230.5Q381 251 369.5 263Q358 275 349 280Q340 285 340 285H216Q216 285 207 280Q198 275 187 263Q176 251 167 230.5Q158 210 158 181Q158 130 188 104Q218 78 278 78Q338 78 368.5 104Q399 130 399 181Z" glyph-name="eight.osf" horiz-adv-x="557" /><glyph d="M66 499Q66 583 117.5 636.5Q169 690 282 690Q395 690 446 636.5Q497 583 497 499Q497 462 487 433Q477 404 464.5 384.5Q452 365 442 355Q432 345 432 345V343Q432 343 444 332Q456 321 469.5 300.5Q483 280 495 250Q507 220 507 182Q507 95 453.5 42.5Q400 -10 282 -10Q164 -10 110 42.5Q56 95 56 182Q56 220 68 250Q80 280 94 300.5Q108 321 120 332Q132 343 132 343V345Q132 345 121.5 355Q111 365 99 384.5Q87 404 76.5 433Q66 462 66 499ZM170 496Q170 467 177 447Q184 427 193 415Q202 403 209 397.5Q216 392 216 392H347Q347 392 354.5 397.5Q362 403 370.5 415Q379 427 386.5 447Q394 467 394 496Q394 548 366.5 573.5Q339 599 282 599Q225 599 197.5 573.5Q170 548 170 496ZM404 186Q405 215 396.5 236Q388 257 377.5 270.5Q367 284 358.5 290.5Q350 297 350 297H214Q214 297 205 290.5Q196 284 186 270.5Q176 257 167.5 236Q159 215 160 186Q161 133 191.5 106.5Q222 80 282 80Q342 80 372.5 106.5Q403 133 404 186Z" glyph-name="eight.ss02" horiz-adv-x="564" /><glyph d="M57 499Q57 583 107 636.5Q157 690 280 690Q399 690 451 636.5Q503 583 503 499Q503 461 492.5 432Q482 403 469.5 384Q457 365 446.5 355Q436 345 436 345V343Q436 343 448 332Q460 321 474.5 300.5Q489 280 501 249.5Q513 219 513 179Q513 92 458.5 41Q404 -10 280 -10Q152 -10 99.5 41Q47 92 47 179Q47 219 59 249.5Q71 280 85.5 300.5Q100 321 112 332Q124 343 124 343V345Q124 345 113.5 355Q103 365 90.5 384Q78 403 67.5 432Q57 461 57 499ZM160 496Q160 467 167.5 447Q175 427 184 415Q193 403 200.5 397.5Q208 392 208 392H351Q351 392 358.5 397.5Q366 403 375.5 415Q385 427 392.5 447Q400 467 400 496Q400 548 371.5 573.5Q343 599 280 599Q213 599 186.5 573.5Q160 548 160 496ZM410 186Q411 215 402 236Q393 257 382 270.5Q371 284 362 290.5Q353 297 353 297H207Q207 297 198 290.5Q189 284 178 270.5Q167 257 158 236Q149 215 150 186Q152 133 181 106.5Q210 80 280 80Q346 80 377 106.5Q408 133 410 186Z" glyph-name="eight.tf" horiz-adv-x="560" /><glyph d="M44 66Q44 94 61 110.5Q78 127 109 127Q141 127 158 110.5Q175 94 175 66V58Q175 30 158 13Q141 -4 109 -4Q78 -4 61 13Q44 30 44 58ZM263 66Q263 94 280 110.5Q297 127 328 127Q360 127 377 110.5Q394 94 394 66V58Q394 30 377 13Q360 -4 328 -4Q297 -4 280 13Q263 30 263 58ZM482 66Q482 94 499 110.5Q516 127 547 127Q579 127 596 110.5Q613 94 613 66V58Q613 30 596 13Q579 -4 547 -4Q516 -4 499 13Q482 30 482 58Z" glyph-name="ellipsis" horiz-adv-x="657" unicode="&#8230;" /><glyph d="M120 693H408V614H120ZM50 242V270Q50 393 108 457Q166 521 262 521Q306 521 344.5 510Q383 499 411 473Q439 447 455 404.5Q471 362 471 299Q471 269 468.5 245Q466 221 466 221H151V219Q151 156 178 118Q205 80 274 79Q302 79 321 83.5Q340 88 352 94Q364 100 369 105Q374 110 374 110H452V30Q452 30 440 24Q428 18 405.5 11Q383 4 349.5 -2Q316 -8 273 -8Q164 -8 107 56Q50 120 50 242ZM151 301V297H369Q369 297 369.5 304Q370 311 370 320Q370 381 342.5 409.5Q315 438 262 438Q214 438 182.5 406.5Q151 375 151 301Z" glyph-name="emacron" horiz-adv-x="520" unicode="&#275;" /><glyph d="M0 298H1000V205H0Z" glyph-name="emdash" horiz-adv-x="1000" unicode="&#8212;" /><glyph d="M0 363H1000V270H0Z" glyph-name="emdash.case" horiz-adv-x="1000" /><glyph d="M0 298H500V205H0Z" glyph-name="endash" horiz-adv-x="500" unicode="&#8211;" /><glyph d="M0 363H500V270H0Z" glyph-name="endash.case" horiz-adv-x="500" /><glyph d="M80 0V513H163L176 456H179Q179 456 189.5 466Q200 476 220 488.5Q240 501 270.5 511Q301 521 341 521Q411 521 451.5 483Q492 445 492 367V-12Q492 -62 478 -94Q464 -126 447 -143.5Q430 -161 416 -167Q402 -173 402 -173H324V-88H328Q356 -88 374 -71.5Q392 -55 392 -11V355Q392 394 371 414.5Q350 435 303 435Q277 435 254 427Q231 419 215 409.5Q199 400 189.5 392Q180 384 180 384V0Z" glyph-name="eng" horiz-adv-x="567" unicode="&#331;" /><glyph d="M50 242V270Q50 393 108 457Q166 521 262 521Q306 521 344.5 510Q383 499 411 473Q439 447 455 404.5Q471 362 471 299Q471 269 468.5 245Q466 221 466 221H151V219Q151 156 178 118Q205 80 274 79Q302 79 321 83.5Q340 88 352 94Q364 100 369 105Q374 110 374 110H452V30Q452 30 429 19.5Q406 9 363 0L329 -33Q311 -49 302.5 -60.5Q294 -72 294 -85Q294 -98 304.5 -106.5Q315 -115 331 -115H349V-181H318Q272 -181 244.5 -157.5Q217 -134 217 -92Q217 -67 228 -47Q239 -27 257 -8Q156 -3 103 61Q50 125 50 242ZM151 301V297H369Q369 297 369.5 304Q370 311 370 320Q370 381 342.5 409.5Q315 438 262 438Q214 438 182.5 406.5Q151 375 151 301Z" glyph-name="eogonek" horiz-adv-x="520" unicode="&#281;" /><glyph d="M65 452H535V359H65ZM65 236H535V144H65Z" glyph-name="equal" horiz-adv-x="600" unicode="=" /><glyph d="M224 541H171V594L240 642Q221 654 203.5 661.5Q186 669 171 671V740H232Q232 740 256.5 730Q281 720 316 695L381 740H434V687L372 644Q419 593 457 502Q495 411 495 271V241Q495 125 438.5 58.5Q382 -8 272 -8Q162 -8 106 58.5Q50 125 50 241V271Q50 388 104 451.5Q158 515 268 515Q305 515 329 505.5Q353 496 353 496H355Q344 525 328.5 549Q313 573 297 592ZM152 243Q152 154 181 116Q210 78 272 78Q335 78 364 116Q393 154 393 243V263Q393 352 363.5 390Q334 428 272 428Q210 428 181 390Q152 352 152 263Z" glyph-name="eth" horiz-adv-x="546" unicode="&#240;" /><glyph d="M193 680V612L174 196H93L74 612V680ZM66 68Q66 97 84 115Q102 133 134 133Q168 133 185 114.5Q202 96 202 68V61Q202 31 184.5 13.5Q167 -4 134 -4Q100 -4 83 14.5Q66 33 66 61Z" glyph-name="exclam" horiz-adv-x="269" unicode="!" /><glyph d="M66 440V447Q66 475 83 493.5Q100 512 134 512Q167 512 184.5 494.5Q202 477 202 447V440Q202 412 185 393.5Q168 375 134 375Q102 375 84 393Q66 411 66 440ZM193 -172H74V-104L93 312H174L193 -104Z" glyph-name="exclamdown" horiz-adv-x="269" unicode="&#161;" /><glyph d="M66 612V619Q66 647 83 665.5Q100 684 134 684Q167 684 184.5 666.5Q202 649 202 619V612Q202 584 185 565.5Q168 547 134 547Q102 547 84 565Q66 583 66 612ZM193 0H74V68L93 484H174L193 68Z" glyph-name="exclamdown.case" horiz-adv-x="269" /><glyph d="M14 513H100V578Q100 629 114 660.5Q128 692 145 710Q162 728 176 734Q190 740 190 740H268V655H264Q236 655 218 638.5Q200 622 200 578V513H286V426H200V0H100V426H14Z" glyph-name="f" horiz-adv-x="308" unicode="f" /><glyph d="M14 513H100V578Q100 629 114 660.5Q128 692 145 710Q162 728 176 734Q190 740 190 740H268V655H264Q236 655 218 638.5Q200 622 200 578V513H388V578Q388 629 402 660.5Q416 692 433 710Q450 728 464 734Q478 740 478 740H556V655H552Q524 655 506 638.5Q488 622 488 578V513H574V426H488V0H388V426H200V0H100V426H14Z" glyph-name="f_f" horiz-adv-x="596" /><glyph d="M14 513H100V578Q100 629 114 660.5Q128 692 145 710Q162 728 176 734Q190 740 190 740H268V655H264Q236 655 218 638.5Q200 622 200 578V513H398V575Q398 626 412 658.5Q426 691 443 709Q460 727 474 733.5Q488 740 488 740H566V662H563Q535 662 516.5 642Q498 622 498 578V513H780V0H680V426H498V0H398V426H200V0H100V426H14ZM669 677Q669 703 684.5 719Q700 735 730 735Q761 735 776.5 719Q792 703 792 677V669Q792 643 776.5 627.5Q761 612 730 612Q700 612 684.5 627.5Q669 643 669 669Z" glyph-name="f_f_i" horiz-adv-x="861" /><glyph d="M14 513H100V578Q100 629 114 660.5Q128 692 145 710Q162 728 176 734Q190 740 190 740H268V655H264Q236 655 218 638.5Q200 622 200 578V513H398V575Q398 626 412 658.5Q426 691 443 709Q460 727 474 733.5Q488 740 488 740H566V662H563Q535 662 516.5 642Q498 622 498 578V513H679V740H779V129Q779 105 789 95Q799 85 818 85H827V0H747Q747 0 736.5 4.5Q726 9 713 21Q700 33 689.5 55.5Q679 78 679 114V426H498V0H398V426H200V0H100V426H14Z" glyph-name="f_f_l" horiz-adv-x="862" /><glyph d="M382 0V426H200V0H100V426H14V513H100V575Q100 626 114 658.5Q128 691 145 709Q162 727 176 733.5Q190 740 190 740H268V662H265Q237 662 218.5 642Q200 622 200 578V513H482V0ZM371 677Q371 703 386.5 719Q402 735 432 735Q463 735 478.5 719Q494 703 494 677V669Q494 643 478.5 627.5Q463 612 432 612Q402 612 386.5 627.5Q371 643 371 669Z" glyph-name="fi" horiz-adv-x="562" unicode="&#64257;" /><glyph d="M286 433Q386 433 432.5 375.5Q479 318 479 224Q479 119 419 55.5Q359 -8 243 -8Q196 -8 160 -1.5Q124 5 100 13Q76 21 64 27.5Q52 34 52 34V118H133Q133 118 137.5 112.5Q142 107 154.5 101Q167 95 188.5 89.5Q210 84 244 84Q312 84 344 120.5Q376 157 376 218Q376 275 351 308.5Q326 342 264 342Q235 342 213.5 335.5Q192 329 178 320.5Q164 312 157.5 305.5Q151 299 151 299H68V367L93 680H448V586H275Q238 586 211 587Q184 588 184 588L176 487Q175 474 173.5 459.5Q172 445 171 432.5Q170 420 169.5 411.5Q169 403 169 403H171Q171 403 201 418Q231 433 286 433Z" glyph-name="five" horiz-adv-x="525" unicode="5" /><glyph d="M40 23V85H109Q109 85 121.5 73.5Q134 62 167 62Q201 62 218 78.5Q235 95 235 129Q235 155 220.5 172Q206 189 174 189Q144 189 128.5 176.5Q113 164 113 164H50V217L71 403H299V332H185Q170 332 153.5 332.5Q137 333 137 333L132 288Q131 271 128.5 255.5Q126 240 126 240H128Q128 240 147.5 248.5Q167 257 202 257Q254 257 285.5 224.5Q317 192 316 132Q315 72 280.5 32.5Q246 -7 168 -7Q106 -7 73 8Q40 23 40 23Z" glyph-name="five.dnom" horiz-adv-x="347" /><glyph d="M40 300V362H109Q109 362 121.5 350.5Q134 339 167 339Q201 339 218 355.5Q235 372 235 406Q235 432 220.5 449Q206 466 174 466Q144 466 128.5 453.5Q113 441 113 441H50V494L71 680H299V609H185Q170 609 153.5 609.5Q137 610 137 610L132 565Q131 548 128.5 532.5Q126 517 126 517H128Q128 517 147.5 525.5Q167 534 202 534Q254 534 285.5 501.5Q317 469 316 409Q315 349 280.5 309.5Q246 270 168 270Q106 270 73 285Q40 300 40 300Z" glyph-name="five.numr" horiz-adv-x="347" /><glyph d="M60 -7H139Q139 -7 160 -19Q181 -31 227 -31Q291 -31 326 3Q361 37 361 95Q361 144 337 176Q313 208 254 208Q228 208 209 202Q190 196 177.5 188.5Q165 181 159 175Q153 169 153 169H73V235L94 533H435V445H266Q231 445 207 445.5Q183 446 183 446L176 327Q175 303 172.5 285Q170 267 170 267L171 266Q171 266 200 280.5Q229 295 282 295Q375 295 419 241Q463 187 463 100Q463 4 401.5 -57Q340 -118 222 -118Q145 -118 102.5 -102.5Q60 -87 60 -87Z" glyph-name="five.osf" horiz-adv-x="505" /><glyph d="M286 433Q386 433 432.5 375.5Q479 318 479 224Q479 119 419 55.5Q359 -8 243 -8Q196 -8 160 -1.5Q124 5 100 13Q76 21 64 27.5Q52 34 52 34V118H133Q133 118 137.5 112.5Q142 107 154.5 101Q167 95 188.5 89.5Q210 84 244 84Q312 84 344 120.5Q376 157 376 218Q376 275 351 308.5Q326 342 264 342Q235 342 213.5 335.5Q192 329 178 320.5Q164 312 157.5 305.5Q151 299 151 299H68V367L93 680H448V586H275Q238 586 211 587Q184 588 184 588L176 487Q175 474 173.5 459.5Q172 445 171 432.5Q170 420 169.5 411.5Q169 403 169 403H171Q171 403 201 418Q231 433 286 433Z" glyph-name="five.ss02" horiz-adv-x="525" /><glyph d="M304 433Q411 433 458.5 375.5Q506 318 506 224Q506 119 443.5 55.5Q381 -8 261 -8Q214 -8 176.5 -1.5Q139 5 112.5 13.5Q86 22 72 28.5Q58 35 58 35V118H140Q140 118 146 112.5Q152 107 166 101Q180 95 203.5 89.5Q227 84 261 84Q330 84 366.5 120.5Q403 157 403 218Q403 275 375 308.5Q347 342 281 342Q250 342 226.5 335.5Q203 329 188 320.5Q173 312 165.5 305.5Q158 299 158 299H75V367L99 680H474V586H292Q255 586 223 587Q191 588 191 588L183 487Q182 474 180.5 459.5Q179 445 178 432.5Q177 420 176 411.5Q175 403 175 403H177Q177 403 213 418Q249 433 304 433Z" glyph-name="five.tf" horiz-adv-x="560" /><glyph d="M40 300V362H109Q109 362 121.5 350.5Q134 339 167 339Q201 339 218 355.5Q235 372 235 406Q235 432 220.5 449Q206 466 174 466Q144 466 128.5 453.5Q113 441 113 441H50V494L71 680H299V609H185Q170 609 153.5 609.5Q137 610 137 610L132 565Q131 548 128.5 532.5Q126 517 126 517H128Q128 517 147.5 525.5Q167 534 202 534Q254 534 285.5 501.5Q317 469 316 409Q315 349 280.5 309.5Q246 270 168 270Q106 270 73 285Q40 300 40 300ZM581 680H637V633L242 0H186V47ZM662 -7Q590 -7 554 23Q518 53 518 106Q518 130 524.5 148Q531 166 539 178.5Q547 191 553.5 197Q560 203 560 203V205Q560 205 554 211Q548 217 541.5 228.5Q535 240 529 257Q523 274 523 296Q523 345 557.5 377.5Q592 410 662 410Q732 410 766 377.5Q800 345 800 296Q800 274 794 257Q788 240 781.5 228.5Q775 217 769 211Q763 205 763 205V203Q763 203 769.5 197Q776 191 784 178.5Q792 166 798.5 148Q805 130 805 106Q805 53 769.5 23Q734 -7 662 -7ZM601 290Q601 262 613 249Q625 236 625 236H699Q699 236 710.5 249Q722 262 722 290Q722 316 706 329.5Q690 343 662 343Q633 343 617 329.5Q601 316 601 290ZM662 60Q696 60 712 74.5Q728 89 728 113Q728 144 714 157Q700 170 700 170H624Q624 170 610 157Q596 144 596 113Q596 89 612 74.5Q628 60 662 60Z" glyph-name="fiveeighths" horiz-adv-x="847" unicode="&#8541;" /><glyph d="M14 513H100V575Q100 626 114 658.5Q128 691 145 709Q162 727 176 733.5Q190 740 190 740H268V662H265Q237 662 218.5 642Q200 622 200 578V513H381V740H481V129Q481 105 491 95Q501 85 520 85H529V0H449Q449 0 438.5 4.5Q428 9 415 21Q402 33 391.5 55.5Q381 78 381 114V426H200V0H100V426H14Z" glyph-name="fl" horiz-adv-x="564" unicode="&#64258;" /><glyph d="M69 432H170L202 582Q213 635 233 666.5Q253 698 272 714.5Q291 731 305 735.5Q319 740 319 740H408V655H384Q351 655 330 635.5Q309 616 299 571L270 432H357V349H252L183 22Q169 -43 148 -81.5Q127 -120 108 -140.5Q89 -161 75 -167Q61 -173 61 -173H-22V-89H-9Q19 -89 43.5 -67.5Q68 -46 84 29L152 349H69Z" glyph-name="florin" horiz-adv-x="419" unicode="&#402;" /><glyph d="M512 229V139H423V0H321V139H23V230L244 680H423V229ZM126 229H321V438Q321 459 321.5 486Q322 513 322.5 536Q323 559 323.5 575Q324 591 324 591H300Q300 591 284 554Q268 517 243 466Z" glyph-name="four" horiz-adv-x="534" unicode="4" /><glyph d="M29 76V143L148 403H280V145H336V76H280V0H201V76ZM105 145H201V248Q201 260 201 275.5Q201 291 201.5 304Q202 317 202 326Q202 335 202 335H189Q189 335 177.5 306Q166 277 153 249Z" glyph-name="four.dnom" horiz-adv-x="363" /><glyph d="M29 353V420L148 680H280V422H336V353H280V277H201V353ZM105 422H201V525Q201 537 201 552.5Q201 568 201.5 581Q202 594 202 603Q202 612 202 612H189Q189 612 177.5 583Q166 554 153 526Z" glyph-name="four.numr" horiz-adv-x="363" /><glyph d="M508 125V38H422V-108H321V38H27V120L254 533H422V125ZM134 125H321V292Q321 313 321.5 339.5Q322 366 322.5 389Q323 412 323.5 427.5Q324 443 324 443H307Q307 443 288 405.5Q269 368 240 315Z" glyph-name="four.osf" horiz-adv-x="530" /><glyph d="M512 229V139H423V0H321V139H23V230L244 680H423V229ZM126 229H321V438Q321 459 321.5 486Q322 513 322.5 536Q323 559 323.5 575Q324 591 324 591H300Q300 591 284 554Q268 517 243 466Z" glyph-name="four.ss02" horiz-adv-x="534" /><glyph d="M542 230V139H447V0H345V139H26V230L268 680H447V230ZM132 230H345V438Q345 459 345.5 485.5Q346 512 346.5 535Q347 558 347.5 573.5Q348 589 348 589H323Q323 589 306 554.5Q289 520 262 471Z" glyph-name="four.tf" horiz-adv-x="560" /><glyph d="M234 680H290V633L-105 0H-161V47Z" glyph-name="fraction" horiz-adv-x="129" unicode="&#8260;" /><glyph d="M48 -59Q48 -33 57.5 -12.5Q67 8 79 22Q91 36 100.5 43.5Q110 51 110 51V53Q110 53 104 57.5Q98 62 91.5 70.5Q85 79 79 93Q73 107 73 126Q73 147 79 163.5Q85 180 92.5 191.5Q100 203 106.5 209.5Q113 216 113 216V217Q113 217 104.5 225Q96 233 86.5 249.5Q77 266 68.5 290.5Q60 315 60 348V353Q60 422 105 469Q150 516 256 516Q313 516 346 506.5Q379 497 379 497H380Q384 525 396.5 543Q409 561 422 571.5Q435 582 445 586Q455 590 455 590H532V506H510Q482 506 470.5 490.5Q459 475 459 449V348Q458 275 412 229Q366 183 260 183H174Q174 183 166 172Q158 161 158 145Q158 129 166 118.5Q174 108 194 108H357Q428 108 465 73Q502 38 502 -24Q502 -98 450 -139.5Q398 -181 272 -181H248Q184 -181 144.5 -171Q105 -161 83.5 -144.5Q62 -128 55 -106Q48 -84 48 -59ZM155 343Q155 323 160 308.5Q165 294 171 285Q177 276 182 271.5Q187 267 187 267H255Q313 266 338.5 288Q364 310 364 354V414Q364 414 337 422.5Q310 431 258 431Q200 431 177.5 409Q155 387 155 346ZM142 -42Q143 -71 165.5 -86Q188 -101 249 -101H280Q321 -101 346 -96Q371 -91 385 -82Q399 -73 403.5 -60.5Q408 -48 408 -33Q408 -12 395 5Q382 22 348 22H170Q170 22 156 6.5Q142 -9 142 -42Z" glyph-name="g" horiz-adv-x="537" unicode="g" /><glyph d="M106 -152V-73H170Q170 -73 192.5 -82Q215 -91 257 -91Q317 -91 348 -66.5Q379 -42 379 9V22Q379 47 379.5 62.5Q380 78 380 78H377Q377 78 367.5 69Q358 60 339.5 48.5Q321 37 293 28Q265 19 228 19Q133 19 91.5 78Q50 137 50 252V284Q50 394 95.5 456Q141 518 238 518Q273 518 300 510Q327 502 345 492.5Q363 483 372.5 475Q382 467 382 467H385L397 513H478V27Q478 -74 419 -126Q360 -178 257 -178Q184 -178 145 -165Q106 -152 106 -152ZM152 262Q152 182 172.5 143.5Q193 105 259 105Q288 105 310 112.5Q332 120 347 129Q362 138 370 145.5Q378 153 378 153V392Q378 392 371 398Q364 404 350 411.5Q336 419 315.5 425Q295 431 267 431Q201 431 176.5 392Q152 353 152 273Z" glyph-name="g.alt" horiz-adv-x="558" /><glyph d="M117 713H186Q186 713 187.5 703Q189 693 195.5 681.5Q202 670 216 660Q230 650 256 650Q282 650 296 660Q310 670 316.5 681.5Q323 693 324.5 703Q326 713 326 713H394V659Q394 659 388 646.5Q382 634 366.5 618.5Q351 603 324 590.5Q297 578 256 578Q215 578 188 590.5Q161 603 145.5 618.5Q130 634 123.5 646.5Q117 659 117 659ZM48 -59Q48 -33 57.5 -12.5Q67 8 79 22Q91 36 100.5 43.5Q110 51 110 51V53Q110 53 104 57.5Q98 62 91.5 70.5Q85 79 79 93Q73 107 73 126Q73 147 79 163.5Q85 180 92.5 191.5Q100 203 106.5 209.5Q113 216 113 216V217Q113 217 104.5 225Q96 233 86.5 249.5Q77 266 68.5 290.5Q60 315 60 348V353Q60 422 105 469Q150 516 256 516Q313 516 346 506.5Q379 497 379 497H380Q384 525 396.5 543Q409 561 422 571.5Q435 582 445 586Q455 590 455 590H532V506H510Q482 506 470.5 490.5Q459 475 459 449V348Q458 275 412 229Q366 183 260 183H174Q174 183 166 172Q158 161 158 145Q158 129 166 118.5Q174 108 194 108H357Q428 108 465 73Q502 38 502 -24Q502 -98 450 -139.5Q398 -181 272 -181H248Q184 -181 144.5 -171Q105 -161 83.5 -144.5Q62 -128 55 -106Q48 -84 48 -59ZM155 343Q155 323 160 308.5Q165 294 171 285Q177 276 182 271.5Q187 267 187 267H255Q313 266 338.5 288Q364 310 364 354V414Q364 414 337 422.5Q310 431 258 431Q200 431 177.5 409Q155 387 155 346ZM142 -42Q143 -71 165.5 -86Q188 -101 249 -101H280Q321 -101 346 -96Q371 -91 385 -82Q399 -73 403.5 -60.5Q408 -48 408 -33Q408 -12 395 5Q382 22 348 22H170Q170 22 156 6.5Q142 -9 142 -42Z" glyph-name="gbreve" horiz-adv-x="537" unicode="&#287;" /><glyph d="M135 713H204Q204 713 205.5 703Q207 693 213.5 681.5Q220 670 234 660Q248 650 274 650Q300 650 314 660Q328 670 334.5 681.5Q341 693 342.5 703Q344 713 344 713H412V659Q412 659 406 646.5Q400 634 384.5 618.5Q369 603 342 590.5Q315 578 274 578Q233 578 206 590.5Q179 603 163.5 618.5Q148 634 141.5 646.5Q135 659 135 659ZM106 -152V-73H170Q170 -73 192.5 -82Q215 -91 257 -91Q317 -91 348 -66.5Q379 -42 379 9V22Q379 47 379.5 62.5Q380 78 380 78H377Q377 78 367.5 69Q358 60 339.5 48.5Q321 37 293 28Q265 19 228 19Q133 19 91.5 78Q50 137 50 252V284Q50 394 95.5 456Q141 518 238 518Q273 518 300 510Q327 502 345 492.5Q363 483 372.5 475Q382 467 382 467H385L397 513H478V27Q478 -74 419 -126Q360 -178 257 -178Q184 -178 145 -165Q106 -152 106 -152ZM152 262Q152 182 172.5 143.5Q193 105 259 105Q288 105 310 112.5Q332 120 347 129Q362 138 370 145.5Q378 153 378 153V392Q378 392 371 398Q364 404 350 411.5Q336 419 315.5 425Q295 431 267 431Q201 431 176.5 392Q152 353 152 273Z" glyph-name="gbreve.alt" horiz-adv-x="558" /><glyph d="M398 740V696L297 571H215L114 696V740H177L220 683Q234 666 244 652Q254 638 254 638H258Q258 638 268 652Q278 666 292 683L335 740ZM48 -59Q48 -33 57.5 -12.5Q67 8 79 22Q91 36 100.5 43.5Q110 51 110 51V53Q110 53 104 57.5Q98 62 91.5 70.5Q85 79 79 93Q73 107 73 126Q73 147 79 163.5Q85 180 92.5 191.5Q100 203 106.5 209.5Q113 216 113 216V217Q113 217 104.5 225Q96 233 86.5 249.5Q77 266 68.5 290.5Q60 315 60 348V353Q60 422 105 469Q150 516 256 516Q313 516 346 506.5Q379 497 379 497H380Q384 525 396.5 543Q409 561 422 571.5Q435 582 445 586Q455 590 455 590H532V506H510Q482 506 470.5 490.5Q459 475 459 449V348Q458 275 412 229Q366 183 260 183H174Q174 183 166 172Q158 161 158 145Q158 129 166 118.5Q174 108 194 108H357Q428 108 465 73Q502 38 502 -24Q502 -98 450 -139.5Q398 -181 272 -181H248Q184 -181 144.5 -171Q105 -161 83.5 -144.5Q62 -128 55 -106Q48 -84 48 -59ZM155 343Q155 323 160 308.5Q165 294 171 285Q177 276 182 271.5Q187 267 187 267H255Q313 266 338.5 288Q364 310 364 354V414Q364 414 337 422.5Q310 431 258 431Q200 431 177.5 409Q155 387 155 346ZM142 -42Q143 -71 165.5 -86Q188 -101 249 -101H280Q321 -101 346 -96Q371 -91 385 -82Q399 -73 403.5 -60.5Q408 -48 408 -33Q408 -12 395 5Q382 22 348 22H170Q170 22 156 6.5Q142 -9 142 -42Z" glyph-name="gcaron" horiz-adv-x="537" unicode="&#487;" /><glyph d="M416 740V696L315 571H233L132 696V740H195L238 683Q252 666 262 652Q272 638 272 638H276Q276 638 286 652Q296 666 310 683L353 740ZM106 -152V-73H170Q170 -73 192.5 -82Q215 -91 257 -91Q317 -91 348 -66.5Q379 -42 379 9V22Q379 47 379.5 62.5Q380 78 380 78H377Q377 78 367.5 69Q358 60 339.5 48.5Q321 37 293 28Q265 19 228 19Q133 19 91.5 78Q50 137 50 252V284Q50 394 95.5 456Q141 518 238 518Q273 518 300 510Q327 502 345 492.5Q363 483 372.5 475Q382 467 382 467H385L397 513H478V27Q478 -74 419 -126Q360 -178 257 -178Q184 -178 145 -165Q106 -152 106 -152ZM152 262Q152 182 172.5 143.5Q193 105 259 105Q288 105 310 112.5Q332 120 347 129Q362 138 370 145.5Q378 153 378 153V392Q378 392 371 398Q364 404 350 411.5Q336 419 315.5 425Q295 431 267 431Q201 431 176.5 392Q152 353 152 273Z" glyph-name="gcaron.alt" horiz-adv-x="558" /><glyph d="M114 571V615L215 740H297L398 615V571H335L292 628Q278 645 268 659Q258 673 258 673H254Q254 673 244 659Q234 645 220 628L177 571ZM48 -59Q48 -33 57.5 -12.5Q67 8 79 22Q91 36 100.5 43.5Q110 51 110 51V53Q110 53 104 57.5Q98 62 91.5 70.5Q85 79 79 93Q73 107 73 126Q73 147 79 163.5Q85 180 92.5 191.5Q100 203 106.5 209.5Q113 216 113 216V217Q113 217 104.5 225Q96 233 86.5 249.5Q77 266 68.5 290.5Q60 315 60 348V353Q60 422 105 469Q150 516 256 516Q313 516 346 506.5Q379 497 379 497H380Q384 525 396.5 543Q409 561 422 571.5Q435 582 445 586Q455 590 455 590H532V506H510Q482 506 470.5 490.5Q459 475 459 449V348Q458 275 412 229Q366 183 260 183H174Q174 183 166 172Q158 161 158 145Q158 129 166 118.5Q174 108 194 108H357Q428 108 465 73Q502 38 502 -24Q502 -98 450 -139.5Q398 -181 272 -181H248Q184 -181 144.5 -171Q105 -161 83.5 -144.5Q62 -128 55 -106Q48 -84 48 -59ZM155 343Q155 323 160 308.5Q165 294 171 285Q177 276 182 271.5Q187 267 187 267H255Q313 266 338.5 288Q364 310 364 354V414Q364 414 337 422.5Q310 431 258 431Q200 431 177.5 409Q155 387 155 346ZM142 -42Q143 -71 165.5 -86Q188 -101 249 -101H280Q321 -101 346 -96Q371 -91 385 -82Q399 -73 403.5 -60.5Q408 -48 408 -33Q408 -12 395 5Q382 22 348 22H170Q170 22 156 6.5Q142 -9 142 -42Z" glyph-name="gcircumflex" horiz-adv-x="537" unicode="&#285;" /><glyph d="M132 571V615L233 740H315L416 615V571H353L310 628Q296 645 286 659Q276 673 276 673H272Q272 673 262 659Q252 645 238 628L195 571ZM106 -152V-73H170Q170 -73 192.5 -82Q215 -91 257 -91Q317 -91 348 -66.5Q379 -42 379 9V22Q379 47 379.5 62.5Q380 78 380 78H377Q377 78 367.5 69Q358 60 339.5 48.5Q321 37 293 28Q265 19 228 19Q133 19 91.5 78Q50 137 50 252V284Q50 394 95.5 456Q141 518 238 518Q273 518 300 510Q327 502 345 492.5Q363 483 372.5 475Q382 467 382 467H385L397 513H478V27Q478 -74 419 -126Q360 -178 257 -178Q184 -178 145 -165Q106 -152 106 -152ZM152 262Q152 182 172.5 143.5Q193 105 259 105Q288 105 310 112.5Q332 120 347 129Q362 138 370 145.5Q378 153 378 153V392Q378 392 371 398Q364 404 350 411.5Q336 419 315.5 425Q295 431 267 431Q201 431 176.5 392Q152 353 152 273Z" glyph-name="gcircumflex.alt" horiz-adv-x="558" /><glyph d="M194 640Q194 666 209.5 682Q225 698 256 698Q286 698 301.5 682Q317 666 317 640V632Q317 606 301.5 590.5Q286 575 256 575Q225 575 209.5 590.5Q194 606 194 632ZM48 -59Q48 -33 57.5 -12.5Q67 8 79 22Q91 36 100.5 43.5Q110 51 110 51V53Q110 53 104 57.5Q98 62 91.5 70.5Q85 79 79 93Q73 107 73 126Q73 147 79 163.5Q85 180 92.5 191.5Q100 203 106.5 209.5Q113 216 113 216V217Q113 217 104.5 225Q96 233 86.5 249.5Q77 266 68.5 290.5Q60 315 60 348V353Q60 422 105 469Q150 516 256 516Q313 516 346 506.5Q379 497 379 497H380Q384 525 396.5 543Q409 561 422 571.5Q435 582 445 586Q455 590 455 590H532V506H510Q482 506 470.5 490.5Q459 475 459 449V348Q458 275 412 229Q366 183 260 183H174Q174 183 166 172Q158 161 158 145Q158 129 166 118.5Q174 108 194 108H357Q428 108 465 73Q502 38 502 -24Q502 -98 450 -139.5Q398 -181 272 -181H248Q184 -181 144.5 -171Q105 -161 83.5 -144.5Q62 -128 55 -106Q48 -84 48 -59ZM155 343Q155 323 160 308.5Q165 294 171 285Q177 276 182 271.5Q187 267 187 267H255Q313 266 338.5 288Q364 310 364 354V414Q364 414 337 422.5Q310 431 258 431Q200 431 177.5 409Q155 387 155 346ZM142 -42Q143 -71 165.5 -86Q188 -101 249 -101H280Q321 -101 346 -96Q371 -91 385 -82Q399 -73 403.5 -60.5Q408 -48 408 -33Q408 -12 395 5Q382 22 348 22H170Q170 22 156 6.5Q142 -9 142 -42Z" glyph-name="gdotaccent" horiz-adv-x="537" unicode="&#289;" /><glyph d="M212 640Q212 666 227.5 682Q243 698 274 698Q304 698 319.5 682Q335 666 335 640V632Q335 606 319.5 590.5Q304 575 274 575Q243 575 227.5 590.5Q212 606 212 632ZM106 -152V-73H170Q170 -73 192.5 -82Q215 -91 257 -91Q317 -91 348 -66.5Q379 -42 379 9V22Q379 47 379.5 62.5Q380 78 380 78H377Q377 78 367.5 69Q358 60 339.5 48.5Q321 37 293 28Q265 19 228 19Q133 19 91.5 78Q50 137 50 252V284Q50 394 95.5 456Q141 518 238 518Q273 518 300 510Q327 502 345 492.5Q363 483 372.5 475Q382 467 382 467H385L397 513H478V27Q478 -74 419 -126Q360 -178 257 -178Q184 -178 145 -165Q106 -152 106 -152ZM152 262Q152 182 172.5 143.5Q193 105 259 105Q288 105 310 112.5Q332 120 347 129Q362 138 370 145.5Q378 153 378 153V392Q378 392 371 398Q364 404 350 411.5Q336 419 315.5 425Q295 431 267 431Q201 431 176.5 392Q152 353 152 273Z" glyph-name="gdotaccent.alt" horiz-adv-x="558" /><glyph d="M285 359Q285 397 302.5 423.5Q320 450 346 474L374 499Q394 516 402 533.5Q410 551 410 577Q410 620 382 639.5Q354 659 308 659Q240 659 209 619Q178 579 178 489V-173H80V481Q80 616 135 682Q190 748 308 748Q407 748 457.5 702.5Q508 657 508 580Q508 523 487 490.5Q466 458 444 439L416 415Q402 402 393.5 390.5Q385 379 385 364Q385 348 394 337Q403 326 433 310L459 296Q505 271 531 234.5Q557 198 557 148Q557 76 510.5 33.5Q464 -9 376 -9Q303 -9 264 6.5Q225 22 225 22V101H292Q292 101 312 88Q332 75 379 75Q418 75 438.5 93Q459 111 459 143Q459 165 446.5 183.5Q434 202 397 222L371 235Q328 260 306.5 287.5Q285 315 285 359Z" glyph-name="germandbls" horiz-adv-x="592" unicode="&#223;" /><glyph d="M109 740 191 572H107L25 690V740Z" glyph-name="grave" horiz-adv-x="216" unicode="`" /><glyph d="M109 740 191 572H107L25 690V740Z" glyph-name="gravecomb" horiz-adv-x="216" unicode="&#768;" /><glyph d="M35 896H98L235 803V725L35 824Z" glyph-name="gravecomb.case" horiz-adv-x="270" /><glyph d="M537 342V254L118 87H63V167L280 250Q298 257 319.5 265.5Q341 274 359.5 280.5Q378 287 390 291.5Q402 296 402 296V300Q402 300 390 304.5Q378 309 359.5 315.5Q341 322 319.5 330.5Q298 339 280 346L63 429V509H118Z" glyph-name="greater" horiz-adv-x="600" unicode="&gt;" /><glyph d="M326 30V90L408 174Q416 183 427.5 194Q439 205 439 205V206Q439 206 419.5 205.5Q400 205 366 205H24V298H366Q400 298 419.5 297.5Q439 297 439 297V298Q439 298 427.5 309Q416 320 408 329L326 413V473H398L576 279V224L398 30Z" glyph-name="greaterequal" horiz-adv-x="600" unicode="&#8805;" /><glyph d="M39 278 200 470H267V417L166 295Q150 275 141.5 266Q133 257 133 257V251Q133 251 141.5 242Q150 233 166 213L267 91V38H200L39 229ZM246 278 407 470H474V417L373 295Q357 275 348.5 266Q340 257 340 257V251Q340 251 348.5 242Q357 233 373 213L474 91V38H407L246 229Z" glyph-name="guillemotleft" horiz-adv-x="509" unicode="&#171;" /><glyph d="M39 343 200 535H267V482L166 360Q150 340 141.5 331Q133 322 133 322V316Q133 316 141.5 307Q150 298 166 278L267 156V103H200L39 294ZM246 343 407 535H474V482L373 360Q357 340 348.5 331Q340 322 340 322V316Q340 316 348.5 307Q357 298 373 278L474 156V103H407L246 294Z" glyph-name="guillemotleft.case" horiz-adv-x="509" /><glyph d="M470 278V229L309 38H242V91L343 213Q359 233 367.5 242Q376 251 376 251V257Q376 257 367.5 266Q359 275 343 295L242 417V470H309ZM263 278V229L102 38H35V91L136 213Q152 233 160.5 242Q169 251 169 251V257Q169 257 160.5 266Q152 275 136 295L35 417V470H102Z" glyph-name="guillemotright" horiz-adv-x="509" unicode="&#187;" /><glyph d="M475 343V294L314 103H247V156L348 278Q364 298 372.5 307Q381 316 381 316V322Q381 322 372.5 331Q364 340 348 360L247 482V535H314ZM268 343V294L107 103H40V156L141 278Q157 298 165.5 307Q174 316 174 316V322Q174 322 165.5 331Q157 340 141 360L40 482V535H107Z" glyph-name="guillemotright.case" horiz-adv-x="509" /><glyph d="M39 278 200 470H267V417L166 295Q150 275 141.5 266Q133 257 133 257V251Q133 251 141.5 242Q150 233 166 213L267 91V38H200L39 229Z" glyph-name="guilsinglleft" horiz-adv-x="302" unicode="&#8249;" /><glyph d="M39 343 200 535H267V482L166 360Q150 340 141.5 331Q133 322 133 322V316Q133 316 141.5 307Q150 298 166 278L267 156V103H200L39 294Z" glyph-name="guilsinglleft.case" horiz-adv-x="302" /><glyph d="M263 278V229L102 38H35V91L136 213Q152 233 160.5 242Q169 251 169 251V257Q169 257 160.5 266Q152 275 136 295L35 417V470H102Z" glyph-name="guilsinglright" horiz-adv-x="302" unicode="&#8250;" /><glyph d="M263 343V294L102 103H35V156L136 278Q152 298 160.5 307Q169 316 169 316V322Q169 322 160.5 331Q152 340 136 360L35 482V535H102Z" glyph-name="guilsinglright.case" horiz-adv-x="302" /><glyph d="M80 0V740H180V552Q180 536 179.5 519Q179 502 178.5 488Q178 474 177.5 465Q177 456 177 456H180Q180 456 190.5 466Q201 476 221.5 488.5Q242 501 272.5 511Q303 521 344 521Q413 521 452.5 483Q492 445 492 367V0H392V355Q392 394 371 414.5Q350 435 303 435Q276 435 253.5 427Q231 419 214.5 409.5Q198 400 189 392Q180 384 180 384V0Z" glyph-name="h" horiz-adv-x="567" unicode="h" /><glyph d="M80 0V592H11V671H80V740H180V671H310V592H180V552Q180 536 179.5 519Q179 502 178.5 488Q178 474 177.5 465Q177 456 177 456H180Q180 456 190.5 466Q201 476 221.5 488.5Q242 501 272.5 511Q303 521 344 521Q413 521 452.5 483Q492 445 492 367V0H392V355Q392 394 371 414.5Q350 435 303 435Q276 435 253.5 427Q231 419 214.5 409.5Q198 400 189 392Q180 384 180 384V0Z" glyph-name="hbar" horiz-adv-x="567" unicode="&#295;" /><glyph d="M-4 772V815L93 903H164L261 815V772H198L164 804Q151 817 141 826.5Q131 836 131 836H126Q126 836 116.5 826.5Q107 817 94 804L59 772ZM80 0V740H180V552Q180 536 179.5 519Q179 502 178.5 488Q178 474 177.5 465Q177 456 177 456H180Q180 456 190.5 466Q201 476 221.5 488.5Q242 501 272.5 511Q303 521 344 521Q413 521 452.5 483Q492 445 492 367V0H392V355Q392 394 371 414.5Q350 435 303 435Q276 435 253.5 427Q231 419 214.5 409.5Q198 400 189 392Q180 384 180 384V0Z" glyph-name="hcircumflex" horiz-adv-x="567" unicode="&#293;" /><glyph d="M170 663 96 572H13L95 716H170ZM326 663 252 572H169L251 716H326Z" glyph-name="hungarumlaut" horiz-adv-x="341" unicode="&#733;" /><glyph d="M50 298H332V205H50Z" glyph-name="hyphen" horiz-adv-x="381" unicode="-" /><glyph d="M50 363H332V270H50Z" glyph-name="hyphen.case" horiz-adv-x="381" /><glyph d="M69 677Q69 703 84.5 719Q100 735 130 735Q161 735 176.5 719Q192 703 192 677V669Q192 643 176.5 627.5Q161 612 130 612Q100 612 84.5 627.5Q69 643 69 669ZM80 0V513H180V0Z" glyph-name="i" horiz-adv-x="261" unicode="i" /><glyph d="M82 677Q82 703 97 719Q112 735 143 735Q174 735 189.5 719Q205 703 205 677V669Q205 643 189.5 627.5Q174 612 143 612Q112 612 97 627.5Q82 643 82 669ZM193 513V0H93V427L31 437V513Z" glyph-name="i.alt" horiz-adv-x="273" /><glyph d="M68 640Q68 666 83.5 682Q99 698 130 698Q160 698 175.5 682Q191 666 191 640V632Q191 606 175.5 590.5Q160 575 130 575Q99 575 83.5 590.5Q68 606 68 632ZM180 0H80V513H180Z" glyph-name="i.loclTRK" horiz-adv-x="261" /><glyph d="M163 740H247V690L165 572H81ZM180 0H80V513H180Z" glyph-name="iacute" horiz-adv-x="261" unicode="&#237;" /><glyph d="M148 740H232V690L150 572H66ZM193 513V0H93V427L31 437V513Z" glyph-name="iacute.alt" horiz-adv-x="274" /><glyph d="M-9 713H60Q60 713 61.5 703Q63 693 69.5 681.5Q76 670 90 660Q104 650 130 650Q156 650 170 660Q184 670 190.5 681.5Q197 693 198.5 703Q200 713 200 713H268V659Q268 659 262 646.5Q256 634 240.5 618.5Q225 603 198 590.5Q171 578 130 578Q89 578 62 590.5Q35 603 19.5 618.5Q4 634 -2.5 646.5Q-9 659 -9 659ZM180 0H80V513H180Z" glyph-name="ibreve" horiz-adv-x="261" unicode="&#301;" /><glyph d="M-24 713H45Q45 713 46.5 703Q48 693 54.5 681.5Q61 670 75 660Q89 650 115 650Q141 650 155 660Q169 670 175.5 681.5Q182 693 183.5 703Q185 713 185 713H253V659Q253 659 247 646.5Q241 634 225.5 618.5Q210 603 183 590.5Q156 578 115 578Q74 578 47 590.5Q20 603 4.5 618.5Q-11 634 -17.5 646.5Q-24 659 -24 659ZM193 513V0H93V427L31 437V513Z" glyph-name="ibreve.alt" horiz-adv-x="274" /><glyph d="M-12 571V615L89 740H171L272 615V571H209L166 628Q152 645 142 659Q132 673 132 673H128Q128 673 118 659Q108 645 94 628L51 571ZM180 0H80V513H180Z" glyph-name="icircumflex" horiz-adv-x="261" unicode="&#238;" /><glyph d="M-27 571V615L74 740H156L257 615V571H194L151 628Q137 645 127 659Q117 673 117 673H113Q113 673 103 659Q93 645 79 628L36 571ZM193 513V0H93V427L31 437V513Z" glyph-name="icircumflex.alt" horiz-adv-x="274" /><glyph d="M-7 645Q-7 670 7.5 685Q22 700 52 700Q83 700 97 684.5Q111 669 111 645V637Q111 612 96.5 597Q82 582 52 582Q21 582 7 598Q-7 614 -7 637ZM148 645Q148 670 163 685Q178 700 207 700Q238 700 252 684.5Q266 669 266 645V637Q266 612 251.5 597Q237 582 207 582Q177 582 162.5 598Q148 614 148 637ZM180 0H80V513H180Z" glyph-name="idieresis" horiz-adv-x="261" unicode="&#239;" /><glyph d="M-22 645Q-22 670 -7.5 685Q7 700 37 700Q68 700 82 684.5Q96 669 96 645V637Q96 612 81.5 597Q67 582 37 582Q6 582 -8 598Q-22 614 -22 637ZM133 645Q133 670 148 685Q163 700 192 700Q223 700 237 684.5Q251 669 251 645V637Q251 612 236.5 597Q222 582 192 582Q162 582 147.5 598Q133 614 133 637ZM193 513V0H93V427L31 437V513Z" glyph-name="idieresis.alt" horiz-adv-x="274" /><glyph d="M98 740 180 572H96L14 690V740ZM180 0H80V513H180Z" glyph-name="igrave" horiz-adv-x="261" unicode="&#236;" /><glyph d="M83 740 165 572H81L-1 690V740ZM193 513V0H93V427L31 437V513Z" glyph-name="igrave.alt" horiz-adv-x="274" /><glyph d="M69 677Q69 703 84.5 719Q100 735 130 735Q161 735 176.5 719Q192 703 192 677V669Q192 643 176.5 627.5Q161 612 130 612Q100 612 84.5 627.5Q69 643 69 669ZM330 677Q330 703 345.5 719Q361 735 391 735Q422 735 437.5 719Q453 703 453 677V669Q453 643 437.5 627.5Q422 612 391 612Q361 612 345.5 627.5Q330 643 330 669ZM80 0V513H180V0ZM341 513H441V15Q441 -42 426.5 -78.5Q412 -115 395 -136Q378 -157 363.5 -165Q349 -173 349 -173H273V-90H279Q295 -90 318 -75Q341 -60 341 0Z" glyph-name="ij" horiz-adv-x="522" unicode="&#307;" /><glyph d="M163 740H247V690L165 572H81ZM426 740H510V690L428 572H344ZM180 0H80V513H180ZM343 513H443V15Q443 -42 428.5 -78.5Q414 -115 396.5 -136Q379 -157 364.5 -165Q350 -173 350 -173H275V-90H280Q296 -90 319.5 -75Q343 -60 343 0Z" glyph-name="ijacute" horiz-adv-x="523" /><glyph d="M-15 693H273V614H-15ZM180 0H80V513H180Z" glyph-name="imacron" horiz-adv-x="261" unicode="&#299;" /><glyph d="M-30 693H258V614H-30ZM193 513V0H93V427L31 437V513Z" glyph-name="imacron.alt" horiz-adv-x="274" /><glyph d="M68 640Q68 666 83.5 682Q99 698 130 698Q160 698 175.5 682Q191 666 191 640V632Q191 606 175.5 590.5Q160 575 130 575Q99 575 83.5 590.5Q68 606 68 632ZM180 0 146 -33Q128 -49 119.5 -60.5Q111 -72 111 -85Q111 -98 121.5 -106.5Q132 -115 148 -115H166V-181H135Q89 -181 61.5 -157.5Q34 -134 34 -92Q34 -64 47 -42.5Q60 -21 82 0H80V513H180Z" glyph-name="iogonek" horiz-adv-x="261" unicode="&#303;" /><glyph d="M53 640Q53 666 68.5 682Q84 698 115 698Q145 698 160.5 682Q176 666 176 640V632Q176 606 160.5 590.5Q145 575 115 575Q84 575 68.5 590.5Q53 606 53 632ZM193 0 159 -33Q141 -49 132.5 -60.5Q124 -72 124 -85Q124 -98 134.5 -106.5Q145 -115 161 -115H179V-181H148Q102 -181 74.5 -157.5Q47 -134 47 -92Q47 -64 60 -42.5Q73 -21 95 0H93V427L31 437V513H193Z" glyph-name="iogonek.alt" horiz-adv-x="274" /><glyph d="M-50 603V667Q-50 667 -44.5 674Q-39 681 -27.5 690Q-16 699 3 706Q22 713 49 713Q69 713 89.5 708.5Q110 704 126 698L150 690Q163 684 175.5 681Q188 678 202 678Q232 678 240.5 692Q249 706 249 706H310V643Q310 643 304.5 636Q299 629 287.5 620Q276 611 257 604Q238 597 211 597Q190 597 170 601.5Q150 606 134 612L110 620Q96 625 83.5 628.5Q71 632 57 632Q27 632 18.5 617.5Q10 603 10 603ZM180 0H80V513H180Z" glyph-name="itilde" horiz-adv-x="261" unicode="&#297;" /><glyph d="M-65 603V667Q-65 667 -59.5 674Q-54 681 -42.5 690Q-31 699 -12 706Q7 713 34 713Q54 713 74.5 708.5Q95 704 111 698L135 690Q148 684 160.5 681Q173 678 187 678Q217 678 225.5 692Q234 706 234 706H295V643Q295 643 289.5 636Q284 629 272.5 620Q261 611 242 604Q223 597 196 597Q175 597 155 601.5Q135 606 119 612L95 620Q81 625 68.5 628.5Q56 632 42 632Q12 632 3.5 617.5Q-5 603 -5 603ZM193 513V0H93V427L31 437V513Z" glyph-name="itilde.alt" horiz-adv-x="274" /><glyph d="M69 677Q69 703 84.5 719Q100 735 130 735Q161 735 176.5 719Q192 703 192 677V669Q192 643 176.5 627.5Q161 612 130 612Q100 612 84.5 627.5Q69 643 69 669ZM80 513H180V15Q180 -42 165.5 -78.5Q151 -115 134 -136Q117 -157 102.5 -165Q88 -173 88 -173H12V-90H18Q34 -90 57 -75Q80 -60 80 0Z" glyph-name="j" horiz-adv-x="261" unicode="j" /><glyph d="M82 669V677Q82 703 97.5 719Q113 735 144 735Q174 735 189.5 719Q205 703 205 677V669Q205 643 189.5 627.5Q174 612 144 612Q113 612 97.5 627.5Q82 643 82 669ZM26 -173V-91H31Q47 -91 70.5 -74Q94 -57 94 5V427L32 437V513H194V15Q194 -42 179.5 -78.5Q165 -115 147.5 -136Q130 -157 115.5 -165Q101 -173 101 -173Z" glyph-name="j.alt" horiz-adv-x="273" /><glyph d="M-11 571V615L90 740H172L273 615V571H210L167 628Q153 645 143 659Q133 673 133 673H129Q129 673 119 659Q109 645 95 628L52 571ZM82 513H182V15Q182 -42 167.5 -78.5Q153 -115 135.5 -136Q118 -157 103.5 -165Q89 -173 89 -173H14V-90H19Q35 -90 58.5 -75Q82 -60 82 0Z" glyph-name="jcircumflex" horiz-adv-x="262" unicode="&#309;" /><glyph d="M-27 571V615L74 740H156L257 615V571H194L151 628Q137 645 127 659Q117 673 117 673H113Q113 673 103 659Q93 645 79 628L36 571ZM26 -173V-91H31Q47 -91 70.5 -74Q94 -57 94 5V427L32 437V513H194V15Q194 -42 179.5 -78.5Q165 -115 147.5 -136Q130 -157 115.5 -165Q101 -173 101 -173Z" glyph-name="jcircumflex.alt" horiz-adv-x="274" /><glyph d="M80 0V740H180V412Q180 378 179.5 346.5Q179 315 179 315H243Q243 315 250 323.5Q257 332 267.5 343.5Q278 355 290 368.5Q302 382 311 392L421 513H492V453L325 276V272Q325 272 340 248.5Q355 225 380 192Q405 159 437 123Q469 87 502 62V0H425Q393 26 360.5 64.5Q328 103 302.5 139Q277 175 260.5 200.5Q244 226 244 226H180V0Z" glyph-name="k" horiz-adv-x="525" unicode="k" /><glyph d="M80 0V513H180V406Q180 372 179.5 341Q179 310 179 310H236Q236 310 258 335.5Q280 361 299 380L422 513H493V453L319 270V267Q319 267 335.5 244.5Q352 222 378.5 190.5Q405 159 438.5 123.5Q472 88 505 62V0H427Q395 26 361 63.5Q327 101 299 135.5Q271 170 253 194.5Q235 219 235 219H180V0Z" glyph-name="kgreenlandic" horiz-adv-x="529" unicode="&#312;" /><glyph d="M226 0H146Q146 0 135.5 4.5Q125 9 112 21Q99 33 88.5 55.5Q78 78 78 114V740H178V129Q178 105 188 95Q198 85 217 85H226Z" glyph-name="l" horiz-adv-x="261" unicode="l" /><glyph d="M278 956V884L78 785V863L215 956ZM226 0H146Q146 0 135.5 4.5Q125 9 112 21Q99 33 88.5 55.5Q78 78 78 114V740H178V129Q178 105 188 95Q198 85 217 85H226Z" glyph-name="lacute" horiz-adv-x="261" unicode="&#314;" /><glyph d="M226 0H146Q146 0 135.5 4.5Q125 9 112 21Q99 33 88.5 55.5Q78 78 78 114V740H178V129Q178 105 188 95Q198 85 217 85H226ZM238 550Q238 550 242.5 565.5Q247 581 252 607Q257 633 261.5 667.5Q266 702 266 740H367V693Q353 625 336.5 587.5Q320 550 320 550Z" glyph-name="lcaron" horiz-adv-x="362" unicode="&#318;" /><glyph d="M226 0H146Q146 0 135.5 4.5Q125 9 112 21Q99 33 88.5 55.5Q78 78 78 114V740H178V129Q178 105 188 95Q198 85 217 85H226ZM246 344Q246 372 263 388.5Q280 405 312 405Q343 405 360 388.5Q377 372 377 344V336Q377 308 360 291Q343 274 312 274Q280 274 263 291Q246 308 246 336Z" glyph-name="ldot" horiz-adv-x="365" unicode="&#320;" /><glyph d="M63 342 482 509H537V429L320 346Q302 339 280.5 330.5Q259 322 240.5 315.5Q222 309 210 304.5Q198 300 198 300V296Q198 296 210 291.5Q222 287 240.5 280.5Q259 274 280.5 265.5Q302 257 320 250L537 167V87H482L63 254Z" glyph-name="less" horiz-adv-x="600" unicode="&lt;" /><glyph d="M274 30H202L24 224V279L202 473H274V413L192 329Q184 320 172.5 309Q161 298 161 298V297Q161 297 180.5 297.5Q200 298 234 298H576V205H234Q200 205 180.5 205.5Q161 206 161 206V205Q161 205 172.5 194Q184 183 192 174L274 90Z" glyph-name="lessequal" horiz-adv-x="600" unicode="&#8804;" /><glyph d="M65 251V344H535V63H442V251Z" glyph-name="logicalnot" horiz-adv-x="600" unicode="&#172;" /><glyph d="M232 0H152Q152 0 141.5 4.5Q131 9 118 21Q105 33 94.5 55.5Q84 78 84 114V319L52 299H2V358L84 409V740H184V471L216 491H266V433L184 382V129Q184 105 194 95Q204 85 223 85H232Z" glyph-name="lslash" horiz-adv-x="272" unicode="&#322;" /><glyph d="M80 0V513H163L176 456H179Q179 456 189 466Q199 476 219 488.5Q239 501 269 511Q299 521 338 521Q383 521 416 502Q449 483 464 449H467Q467 449 478.5 460.5Q490 472 512 485Q534 498 566 509.5Q598 521 639 521Q707 521 744 482Q781 443 781 367V0H681V355Q681 394 662.5 414.5Q644 435 598 435Q572 435 550.5 427Q529 419 513.5 409.5Q498 400 489.5 392Q481 384 481 384V0H381V355Q381 394 362 414.5Q343 435 297 435Q272 435 250 427Q228 419 213 409.5Q198 400 189 392Q180 384 180 384V0Z" glyph-name="m" horiz-adv-x="857" unicode="m" /><glyph d="M28 693H316V614H28Z" glyph-name="macron" horiz-adv-x="344" unicode="&#175;" /><glyph d="M65 344H535V251H65Z" glyph-name="minus" horiz-adv-x="600" unicode="&#8722;" /><glyph d="M75 447 140 512 289 363 438 513 503 447 354 298 503 149 438 83 289 233 140 84 75 149 224 298Z" glyph-name="multiply" horiz-adv-x="578" unicode="&#215;" /><glyph d="M80 0V513H163L176 456H179Q179 456 189.5 466Q200 476 220 488.5Q240 501 270.5 511Q301 521 341 521Q411 521 451.5 483Q492 445 492 367V0H392V355Q392 394 371 414.5Q350 435 303 435Q277 435 254 427Q231 419 215 409.5Q199 400 189.5 392Q180 384 180 384V0Z" glyph-name="n" horiz-adv-x="567" unicode="n" /><glyph d="M316 740H400V690L318 572H234ZM80 0V513H163L176 456H179Q179 456 189.5 466Q200 476 220 488.5Q240 501 270.5 511Q301 521 341 521Q411 521 451.5 483Q492 445 492 367V0H392V355Q392 394 371 414.5Q350 435 303 435Q277 435 254 427Q231 419 215 409.5Q199 400 189.5 392Q180 384 180 384V0Z" glyph-name="nacute" horiz-adv-x="567" unicode="&#324;" /><glyph d="M80 560Q80 560 84.5 575.5Q89 591 94 617Q99 643 103.5 677.5Q108 712 108 750H209V703Q195 635 178.5 597.5Q162 560 162 560ZM80 0V513H163L176 456H179Q179 456 189.5 466Q200 476 220 488.5Q240 501 270.5 511Q301 521 341 521Q411 521 451.5 483Q492 445 492 367V0H392V355Q392 394 371 414.5Q350 435 303 435Q277 435 254 427Q231 419 215 409.5Q199 400 189.5 392Q180 384 180 384V0Z" glyph-name="napostrophe" horiz-adv-x="567" unicode="&#329;" /><glyph d="M425 740V696L324 571H242L141 696V740H204L247 683Q261 666 271 652Q281 638 281 638H285Q285 638 295 652Q305 666 319 683L362 740ZM80 0V513H163L176 456H179Q179 456 189.5 466Q200 476 220 488.5Q240 501 270.5 511Q301 521 341 521Q411 521 451.5 483Q492 445 492 367V0H392V355Q392 394 371 414.5Q350 435 303 435Q277 435 254 427Q231 419 215 409.5Q199 400 189.5 392Q180 384 180 384V0Z" glyph-name="ncaron" horiz-adv-x="567" unicode="&#328;" /><glyph d="M478 442V411Q478 286 436.5 205.5Q395 125 346 79.5Q297 34 255.5 17Q214 0 214 0H139V80Q151 80 183.5 89.5Q216 99 252.5 124.5Q289 150 322 195Q355 240 368 311H365Q365 311 356 302Q347 293 329 282Q311 271 283.5 262Q256 253 219 253Q118 253 76 313Q34 373 34 466Q34 565 89.5 626.5Q145 688 252 688Q363 688 420.5 627.5Q478 567 478 442ZM244 340Q275 340 300 348Q325 356 341.5 365.5Q358 375 367 383Q376 391 376 391V464Q376 530 345.5 565.5Q315 601 252 601Q192 601 164 565.5Q136 530 136 469Q136 402 163.5 371Q191 340 244 340Z" glyph-name="nine" horiz-adv-x="530" unicode="9" /><glyph d="M94 67Q105 67 123.5 72Q142 77 162 89.5Q182 102 200 123.5Q218 145 228 178H226Q226 178 203 162.5Q180 147 138 147Q82 147 56.5 180Q31 213 31 273Q31 342 69.5 376Q108 410 173 410Q238 410 277.5 376.5Q317 343 317 262V247Q317 171 291.5 122.5Q266 74 236 47Q206 20 180.5 10Q155 0 155 0H94ZM112 272Q113 242 127 226.5Q141 211 167 211Q199 211 216.5 223.5Q234 236 234 236V263Q234 306 217.5 323.5Q201 341 170 341Q141 341 126 322.5Q111 304 112 272Z" glyph-name="nine.dnom" horiz-adv-x="351" /><glyph d="M94 344Q105 344 123.5 349Q142 354 162 366.5Q182 379 200 400.5Q218 422 228 455H226Q226 455 203 439.5Q180 424 138 424Q82 424 56.5 457Q31 490 31 550Q31 619 69.5 653Q108 687 173 687Q238 687 277.5 653.5Q317 620 317 539V524Q317 448 291.5 399.5Q266 351 236 324Q206 297 180.5 287Q155 277 155 277H94ZM112 549Q113 519 127 503.5Q141 488 167 488Q199 488 216.5 500.5Q234 513 234 513V540Q234 583 217.5 600.5Q201 618 170 618Q141 618 126 599.5Q111 581 112 549Z" glyph-name="nine.numr" horiz-adv-x="351" /><glyph d="M470 297V263Q470 153 433.5 81Q397 9 353 -33Q309 -75 272.5 -91.5Q236 -108 236 -108H158V-32Q166 -32 195 -23Q224 -14 257 10Q290 34 320.5 76Q351 118 363 184H360Q360 184 351 174.5Q342 165 324 153.5Q306 142 278.5 132.5Q251 123 214 123Q115 123 73 179.5Q31 236 31 326Q31 421 86.5 482Q142 543 248 543Q358 543 414 482Q470 421 470 297ZM240 210Q272 210 296 220Q320 230 336 241.5Q352 253 360 263Q368 273 368 273V319Q368 385 338.5 420.5Q309 456 248 456Q189 456 161 421Q133 386 133 329Q133 266 159.5 238Q186 210 240 210Z" glyph-name="nine.osf" horiz-adv-x="521" /><glyph d="M54 122H135Q135 122 139 116Q143 110 153.5 102.5Q164 95 183 89Q202 83 231 83Q294 83 325.5 116Q357 149 357 224V259Q357 279 357.5 294.5Q358 310 358 310H356Q356 310 347.5 301Q339 292 322 282Q305 272 279 263Q253 254 219 254Q117 254 73.5 310Q30 366 30 469Q30 575 82 632.5Q134 690 243 690Q359 690 410 630Q461 570 461 436V243Q461 112 401 51Q341 -10 228 -10Q185 -10 152 -2.5Q119 5 97.5 14Q76 23 65 30.5Q54 38 54 38ZM133 471Q133 407 157.5 376Q182 345 239 345Q270 345 292 353.5Q314 362 328.5 371.5Q343 381 350 389.5Q357 398 357 398V451Q358 533 330 564.5Q302 596 244 596Q186 596 159.5 566Q133 536 133 471Z" glyph-name="nine.ss02" horiz-adv-x="542" /><glyph d="M505 442V403Q505 278 459.5 199Q414 120 359.5 76Q305 32 259.5 16Q214 0 214 0H143V79Q153 79 189.5 89.5Q226 100 268 126.5Q310 153 347 199.5Q384 246 395 318H392Q392 318 382 308.5Q372 299 353 287Q334 275 305 265.5Q276 256 238 256Q186 256 149 272Q112 288 89.5 316.5Q67 345 56.5 384Q46 423 46 469Q46 567 102.5 627.5Q159 688 272 688Q385 688 445 627.5Q505 567 505 442ZM264 343Q299 343 325 351.5Q351 360 368.5 370.5Q386 381 394.5 389.5Q403 398 403 398V464Q403 530 369.5 565.5Q336 601 272 601Q206 601 177 566.5Q148 532 148 472Q148 406 177.5 374.5Q207 343 264 343Z" glyph-name="nine.tf" horiz-adv-x="560" /><glyph d="M119 28V82L157 144H65V236H213L288 359H65V452H344L415 568H481V515L443 452H535V359H386L311 236H535V144H255L184 28Z" glyph-name="notequal" horiz-adv-x="600" unicode="&#8800;" /><glyph d="M103 603V667Q103 667 108.5 674Q114 681 125.5 690Q137 699 156 706Q175 713 202 713Q222 713 242.5 708.5Q263 704 279 698L303 690Q316 684 328.5 681Q341 678 355 678Q385 678 393.5 692Q402 706 402 706H463V643Q463 643 457.5 636Q452 629 440.5 620Q429 611 410 604Q391 597 364 597Q343 597 323 601.5Q303 606 287 612L263 620Q249 625 236.5 628.5Q224 632 210 632Q180 632 171.5 617.5Q163 603 163 603ZM80 0V513H163L176 456H179Q179 456 189.5 466Q200 476 220 488.5Q240 501 270.5 511Q301 521 341 521Q411 521 451.5 483Q492 445 492 367V0H392V355Q392 394 371 414.5Q350 435 303 435Q277 435 254 427Q231 419 215 409.5Q199 400 189.5 392Q180 384 180 384V0Z" glyph-name="ntilde" horiz-adv-x="567" unicode="&#241;" /><glyph d="M35 281H163L187 401H72V474H202L244 680H314V633L282 474H390L432 680H503V633L471 474H578V401H456L431 281H541V208H416L374 0H304V47L337 208H227L185 0H115V47L148 208H35ZM242 281H351L376 401H267Z" glyph-name="numbersign" horiz-adv-x="612" unicode="#" /><glyph d="M50 242V270Q50 388 106 454.5Q162 521 272 521Q382 521 438.5 454.5Q495 388 495 270V242Q495 125 438.5 58.5Q382 -8 272 -8Q162 -8 106 58.5Q50 125 50 242ZM152 248Q152 158 180.5 118.5Q209 79 272 79Q335 79 364 118.5Q393 158 393 248V265Q393 355 364 394.5Q335 434 272 434Q209 434 180.5 394.5Q152 355 152 265Z" glyph-name="o" horiz-adv-x="544" unicode="o" /><glyph d="M301 740H385V690L303 572H219ZM50 242V270Q50 388 106 454.5Q162 521 272 521Q382 521 438.5 454.5Q495 388 495 270V242Q495 125 438.5 58.5Q382 -8 272 -8Q162 -8 106 58.5Q50 125 50 242ZM152 248Q152 158 180.5 118.5Q209 79 272 79Q335 79 364 118.5Q393 158 393 248V265Q393 355 364 394.5Q335 434 272 434Q209 434 180.5 394.5Q152 355 152 265Z" glyph-name="oacute" horiz-adv-x="544" unicode="&#243;" /><glyph d="M133 713H202Q202 713 203.5 703Q205 693 211.5 681.5Q218 670 232 660Q246 650 272 650Q298 650 312 660Q326 670 332.5 681.5Q339 693 340.5 703Q342 713 342 713H410V659Q410 659 404 646.5Q398 634 382.5 618.5Q367 603 340 590.5Q313 578 272 578Q231 578 204 590.5Q177 603 161.5 618.5Q146 634 139.5 646.5Q133 659 133 659ZM50 242V270Q50 388 106 454.5Q162 521 272 521Q382 521 438.5 454.5Q495 388 495 270V242Q495 125 438.5 58.5Q382 -8 272 -8Q162 -8 106 58.5Q50 125 50 242ZM152 248Q152 158 180.5 118.5Q209 79 272 79Q335 79 364 118.5Q393 158 393 248V265Q393 355 364 394.5Q335 434 272 434Q209 434 180.5 394.5Q152 355 152 265Z" glyph-name="obreve" horiz-adv-x="544" unicode="&#335;" /><glyph d="M130 571V615L231 740H313L414 615V571H351L308 628Q294 645 284 659Q274 673 274 673H270Q270 673 260 659Q250 645 236 628L193 571ZM50 242V270Q50 388 106 454.5Q162 521 272 521Q382 521 438.5 454.5Q495 388 495 270V242Q495 125 438.5 58.5Q382 -8 272 -8Q162 -8 106 58.5Q50 125 50 242ZM152 248Q152 158 180.5 118.5Q209 79 272 79Q335 79 364 118.5Q393 158 393 248V265Q393 355 364 394.5Q335 434 272 434Q209 434 180.5 394.5Q152 355 152 265Z" glyph-name="ocircumflex" horiz-adv-x="544" unicode="&#244;" /><glyph d="M135 645Q135 670 149.5 685Q164 700 194 700Q225 700 239 684.5Q253 669 253 645V637Q253 612 238.5 597Q224 582 194 582Q163 582 149 598Q135 614 135 637ZM290 645Q290 670 305 685Q320 700 349 700Q380 700 394 684.5Q408 669 408 645V637Q408 612 393.5 597Q379 582 349 582Q319 582 304.5 598Q290 614 290 637ZM50 242V270Q50 388 106 454.5Q162 521 272 521Q382 521 438.5 454.5Q495 388 495 270V242Q495 125 438.5 58.5Q382 -8 272 -8Q162 -8 106 58.5Q50 125 50 242ZM152 248Q152 158 180.5 118.5Q209 79 272 79Q335 79 364 118.5Q393 158 393 248V265Q393 355 364 394.5Q335 434 272 434Q209 434 180.5 394.5Q152 355 152 265Z" glyph-name="odieresis" horiz-adv-x="544" unicode="&#246;" /><glyph d="M50 242V270Q50 388 106 454.5Q162 521 272 521Q329 521 372.5 502.5Q416 484 444 449Q472 485 513 503Q554 521 605 521Q649 521 687.5 510Q726 499 754 473Q782 447 798 404.5Q814 362 814 299Q814 269 811.5 245Q809 221 809 221H495Q494 219 494 216.5Q494 214 494 213Q495 153 523 116.5Q551 80 617 79Q645 79 664 83.5Q683 88 695 94Q707 100 712 105Q717 110 717 110H795V30Q795 30 783 24Q771 18 748.5 11Q726 4 692.5 -2Q659 -8 616 -8Q559 -8 515 10Q471 28 443 64Q415 29 372 10.5Q329 -8 272 -8Q162 -8 106 58.5Q50 125 50 242ZM494 301V300V297H712Q712 297 712.5 304Q713 311 713 320Q713 381 685.5 409.5Q658 438 605 438Q557 438 525.5 406.5Q494 375 494 301ZM152 248Q152 158 180.5 118.5Q209 79 272 79Q335 79 364 118.5Q393 158 393 248V265Q393 355 364 394.5Q335 434 272 434Q209 434 180.5 394.5Q152 355 152 265Z" glyph-name="oe" horiz-adv-x="863" unicode="&#339;" /><glyph d="M174 0 140 -33Q122 -49 113.5 -60.5Q105 -72 105 -85Q105 -98 115.5 -106.5Q126 -115 142 -115H160V-181H129Q83 -181 55.5 -157.5Q28 -134 28 -92Q28 -62 43.5 -38.5Q59 -15 84 8L116 37H174Z" glyph-name="ogonek" horiz-adv-x="202" unicode="&#731;" /><glyph d="M243 740 325 572H241L159 690V740ZM50 242V270Q50 388 106 454.5Q162 521 272 521Q382 521 438.5 454.5Q495 388 495 270V242Q495 125 438.5 58.5Q382 -8 272 -8Q162 -8 106 58.5Q50 125 50 242ZM152 248Q152 158 180.5 118.5Q209 79 272 79Q335 79 364 118.5Q393 158 393 248V265Q393 355 364 394.5Q335 434 272 434Q209 434 180.5 394.5Q152 355 152 265Z" glyph-name="ograve" horiz-adv-x="544" unicode="&#242;" /><glyph d="M310 663 236 572H153L235 716H310ZM466 663 392 572H309L391 716H466ZM50 242V270Q50 388 106 454.5Q162 521 272 521Q382 521 438.5 454.5Q495 388 495 270V242Q495 125 438.5 58.5Q382 -8 272 -8Q162 -8 106 58.5Q50 125 50 242ZM152 248Q152 158 180.5 118.5Q209 79 272 79Q335 79 364 118.5Q393 158 393 248V265Q393 355 364 394.5Q335 434 272 434Q209 434 180.5 394.5Q152 355 152 265Z" glyph-name="ohungarumlaut" horiz-adv-x="544" unicode="&#337;" /><glyph d="M127 693H415V614H127ZM50 242V270Q50 388 106 454.5Q162 521 272 521Q382 521 438.5 454.5Q495 388 495 270V242Q495 125 438.5 58.5Q382 -8 272 -8Q162 -8 106 58.5Q50 125 50 242ZM152 248Q152 158 180.5 118.5Q209 79 272 79Q335 79 364 118.5Q393 158 393 248V265Q393 355 364 394.5Q335 434 272 434Q209 434 180.5 394.5Q152 355 152 265Z" glyph-name="omacron" horiz-adv-x="544" unicode="&#333;" /><glyph d="M51 577V640L186 680H261V85L368 73V0H51V73L158 85V577Z" glyph-name="one" horiz-adv-x="395" unicode="1" /><glyph d="M32 0V66L107 75V324H35V377L116 403H189V75L264 66V0Z" glyph-name="one.dnom" horiz-adv-x="287" /><glyph d="M32 277V343L107 352V601H35V654L116 680H189V352L264 343V277Z" glyph-name="one.numr" horiz-adv-x="287" /><glyph d="M61 431V492L178 533H251V84L335 74V0H66V74L150 84V431Z" glyph-name="one.osf" horiz-adv-x="376" /><glyph d="M51 577V640L186 680H261V85L368 73V0H51V73L158 85V577Z" glyph-name="one.ss02" horiz-adv-x="395" /><glyph d="M90 577V642L272 680H347V85L507 73V0H85V73L244 85V577Z" glyph-name="one.tf" horiz-adv-x="560" /><glyph d="M32 277V343L107 352V601H35V654L116 680H189V352L264 343V277ZM560 680H616V633L221 0H165V47ZM641 -7Q569 -7 533 23Q497 53 497 106Q497 130 503.5 148Q510 166 518 178.5Q526 191 532.5 197Q539 203 539 203V205Q539 205 533 211Q527 217 520.5 228.5Q514 240 508 257Q502 274 502 296Q502 345 536.5 377.5Q571 410 641 410Q711 410 745 377.5Q779 345 779 296Q779 274 773 257Q767 240 760.5 228.5Q754 217 748 211Q742 205 742 205V203Q742 203 748.5 197Q755 191 763 178.5Q771 166 777.5 148Q784 130 784 106Q784 53 748.5 23Q713 -7 641 -7ZM580 290Q580 262 592 249Q604 236 604 236H678Q678 236 689.5 249Q701 262 701 290Q701 316 685 329.5Q669 343 641 343Q612 343 596 329.5Q580 316 580 290ZM641 60Q675 60 691 74.5Q707 89 707 113Q707 144 693 157Q679 170 679 170H603Q603 170 589 157Q575 144 575 113Q575 89 591 74.5Q607 60 641 60Z" glyph-name="oneeighth" horiz-adv-x="826" unicode="&#8539;" /><glyph d="M32 277V343L107 352V601H35V654L116 680H189V352L264 343V277ZM560 680H616V633L221 0H165V47ZM772 0H509V76L648 211Q670 233 680.5 249Q691 265 691 288Q691 313 676 325.5Q661 338 634 338Q598 338 586 327Q574 316 574 316H507V381Q507 381 541.5 395.5Q576 410 639 410Q702 410 737.5 380Q773 350 773 293Q773 249 755.5 220Q738 191 707 163L610 72V71Q610 71 628.5 71.5Q647 72 665 72H772Z" glyph-name="onehalf" horiz-adv-x="814" unicode="&#189;" /><glyph d="M32 277V343L107 352V601H35V654L116 680H189V352L264 343V277ZM560 680H616V633L221 0H165V47ZM462 76V143L581 403H713V145H769V76H713V0H634V76ZM538 145H634V248Q634 260 634 275.5Q634 291 634.5 304Q635 317 635 326Q635 335 635 335H622Q622 335 610.5 306Q599 277 586 249Z" glyph-name="onequarter" horiz-adv-x="796" unicode="&#188;" /><glyph d="M65 597V665Q65 665 99.5 676.5Q134 688 196 688Q265 688 298 658.5Q331 629 331 574V327H261L251 364H249Q249 364 243 357.5Q237 351 224.5 343Q212 335 192.5 328.5Q173 322 146 322Q91 322 65.5 351.5Q40 381 40 430Q40 479 69.5 507.5Q99 536 165 536H249V562Q249 590 235.5 603.5Q222 617 185 617Q149 617 138.5 607Q128 597 128 597ZM178 387Q199 387 212.5 392Q226 397 234.5 403Q243 409 246 414Q249 419 249 419V477H176Q149 477 135.5 466Q122 455 122 433Q122 408 135 397.5Q148 387 178 387Z" glyph-name="ordfeminine" horiz-adv-x="383" unicode="&#170;" /><glyph d="M38 495V516Q38 600 78.5 645Q119 690 197 690Q275 690 316 645Q357 600 357 516V495Q357 410 316 365.5Q275 321 197 321Q119 321 78.5 365.5Q38 410 38 495ZM122 500Q122 444 139.5 420Q157 396 197 396Q237 396 255 420Q273 444 273 500V511Q273 567 255 591Q237 615 197 615Q157 615 139.5 591Q122 567 122 511Z" glyph-name="ordmasculine" horiz-adv-x="395" unicode="&#186;" /><glyph d="M50 242V270Q50 388 106 454.5Q162 521 272 521Q307 521 337.5 513.5Q368 506 392 493L438 560H492V516L445 447Q470 415 482.5 370Q495 325 495 270V242Q495 125 438.5 58.5Q382 -8 272 -8Q237 -8 207 -0.5Q177 7 153 20L107 -48H53V-3L100 65Q75 97 62.5 142Q50 187 50 242ZM152 248Q152 220 154.5 197.5Q157 175 162 157L340 417Q327 426 310 430Q293 434 272 434Q209 434 180.5 394.5Q152 355 152 265ZM393 265Q393 293 390.5 315.5Q388 338 383 356L205 95Q218 87 235 83Q252 79 272 79Q335 79 364 118.5Q393 158 393 248Z" glyph-name="oslash" horiz-adv-x="544" unicode="&#248;" /><glyph d="M301 740H385V690L303 572H219ZM50 242V270Q50 388 106 454.5Q162 521 272 521Q307 521 337.5 513.5Q368 506 392 493L438 560H492V516L445 447Q470 415 482.5 370Q495 325 495 270V242Q495 125 438.5 58.5Q382 -8 272 -8Q237 -8 207 -0.5Q177 7 153 20L107 -48H53V-3L100 65Q75 97 62.5 142Q50 187 50 242ZM152 248Q152 220 154.5 197.5Q157 175 162 157L340 417Q327 426 310 430Q293 434 272 434Q209 434 180.5 394.5Q152 355 152 265ZM393 265Q393 293 390.5 315.5Q388 338 383 356L205 95Q218 87 235 83Q252 79 272 79Q335 79 364 118.5Q393 158 393 248Z" glyph-name="oslashacute" horiz-adv-x="544" unicode="&#511;" /><glyph d="M92 603V667Q92 667 97.5 674Q103 681 114.5 690Q126 699 145 706Q164 713 191 713Q211 713 231.5 708.5Q252 704 268 698L292 690Q305 684 317.5 681Q330 678 344 678Q374 678 382.5 692Q391 706 391 706H452V643Q452 643 446.5 636Q441 629 429.5 620Q418 611 399 604Q380 597 353 597Q332 597 312 601.5Q292 606 276 612L252 620Q238 625 225.5 628.5Q213 632 199 632Q169 632 160.5 617.5Q152 603 152 603ZM50 242V270Q50 388 106 454.5Q162 521 272 521Q382 521 438.5 454.5Q495 388 495 270V242Q495 125 438.5 58.5Q382 -8 272 -8Q162 -8 106 58.5Q50 125 50 242ZM152 248Q152 158 180.5 118.5Q209 79 272 79Q335 79 364 118.5Q393 158 393 248V265Q393 355 364 394.5Q335 434 272 434Q209 434 180.5 394.5Q152 355 152 265Z" glyph-name="otilde" horiz-adv-x="544" unicode="&#245;" /><glyph d="M320 -5Q288 -5 263.5 1Q239 7 221.5 15Q204 23 194 30Q184 37 181 40H178Q178 40 178.5 30Q179 20 179 5Q179 -10 179.5 -27.5Q180 -45 180 -60V-173H80V513H164L177 458H180Q180 458 189.5 467.5Q199 477 218 488Q237 499 265.5 508.5Q294 518 332 518Q428 518 470 454.5Q512 391 512 275V237Q512 127 465 61Q418 -5 320 -5ZM180 119Q180 119 187.5 113Q195 107 209 100.5Q223 94 244 88Q265 82 293 82Q359 82 384.5 125Q410 168 410 248V264Q410 345 389 388Q368 431 300 431Q272 431 249.5 423.5Q227 416 211.5 407Q196 398 188 390.5Q180 383 180 383Z" glyph-name="p" horiz-adv-x="561" unicode="p" /><glyph d="M238 256H234Q135 256 84 315Q33 374 33 468Q33 562 85 621Q137 680 236 680H507V-173H414V590H332V-173H238Z" glyph-name="paragraph" horiz-adv-x="592" unicode="&#182;" /><glyph d="M70 275Q70 362 87 435.5Q104 509 128 566Q152 623 178 663Q204 703 223 723H301V665Q285 646 262.5 612Q240 578 219.5 529.5Q199 481 184.5 417Q170 353 170 275Q170 197 184 133Q198 69 219 20.5Q240 -28 262.5 -62Q285 -96 301 -115V-173H223Q204 -153 178 -113Q152 -73 128 -16Q104 41 87 114.5Q70 188 70 275Z" glyph-name="parenleft" horiz-adv-x="316" unicode="(" /><glyph d="M70 340Q70 427 87 500.5Q104 574 128 631Q152 688 178 728Q204 768 223 788H301V730Q285 711 262.5 677Q240 643 219.5 594.5Q199 546 184.5 482Q170 418 170 340Q170 262 184 198Q198 134 219 85.5Q240 37 262.5 3Q285 -31 301 -50V-108H223Q204 -88 178 -48Q152 -8 128 49Q104 106 87 179.5Q70 253 70 340Z" glyph-name="parenleft.case" horiz-adv-x="316" /><glyph d="M246 275Q246 188 229 114.5Q212 41 188 -16Q164 -73 138 -113Q112 -153 93 -173H15V-115Q31 -96 53.5 -62Q76 -28 97 20.5Q118 69 132 133Q146 197 146 275Q146 353 131.5 417Q117 481 96.5 529.5Q76 578 53.5 612Q31 646 15 665V723H93Q112 703 138 663Q164 623 188 566Q212 509 229 435.5Q246 362 246 275Z" glyph-name="parenright" horiz-adv-x="316" unicode=")" /><glyph d="M246 340Q246 253 229 179.5Q212 106 188 49Q164 -8 138 -48Q112 -88 93 -108H15V-50Q31 -31 53.5 3Q76 37 97 85.5Q118 134 132 198Q146 262 146 340Q146 418 131.5 482Q117 546 96.5 594.5Q76 643 53.5 677Q31 711 15 730V788H93Q112 768 138 728Q164 688 188 631Q212 574 229 500.5Q246 427 246 340Z" glyph-name="parenright.case" horiz-adv-x="316" /><glyph d="M193 270Q119 270 81.5 310.5Q44 351 44 419V538Q44 606 81.5 646.5Q119 687 193 687Q267 687 304.5 646.5Q342 606 342 538V419Q342 351 304.5 310.5Q267 270 193 270ZM620 680H676V633L281 0H225V47ZM193 615Q157 615 141.5 595Q126 575 126 539V418Q126 382 141.5 362Q157 342 193 342Q229 342 244.5 362Q260 382 260 418V539Q260 575 244.5 595Q229 615 193 615ZM708 -7Q634 -7 596.5 33.5Q559 74 559 142V261Q559 329 596.5 369.5Q634 410 708 410Q782 410 819.5 369.5Q857 329 857 261V142Q857 74 819.5 33.5Q782 -7 708 -7ZM708 338Q672 338 656.5 318Q641 298 641 262V141Q641 105 656.5 85Q672 65 708 65Q744 65 759.5 85Q775 105 775 141V262Q775 298 759.5 318Q744 338 708 338Z" glyph-name="percent" horiz-adv-x="901" unicode="%" /><glyph d="M44 66Q44 94 61 110.5Q78 127 109 127Q141 127 158 110.5Q175 94 175 66V58Q175 30 158 13Q141 -4 109 -4Q78 -4 61 13Q44 30 44 58Z" glyph-name="period" horiz-adv-x="219" unicode="." /><glyph d="M11 276Q11 304 28 320.5Q45 337 77 337Q108 337 125 320.5Q142 304 142 276V268Q142 240 125 223Q108 206 77 206Q45 206 28 223Q11 240 11 268Z" glyph-name="periodcentered" horiz-adv-x="153" unicode="&#183;" /><glyph d="M193 270Q119 270 81.5 310.5Q44 351 44 419V538Q44 606 81.5 646.5Q119 687 193 687Q267 687 304.5 646.5Q342 606 342 538V419Q342 351 304.5 310.5Q267 270 193 270ZM620 680H676V633L281 0H225V47ZM193 615Q157 615 141.5 595Q126 575 126 539V418Q126 382 141.5 362Q157 342 193 342Q229 342 244.5 362Q260 382 260 418V539Q260 575 244.5 595Q229 615 193 615ZM708 -7Q634 -7 596.5 33.5Q559 74 559 142V261Q559 329 596.5 369.5Q634 410 708 410Q782 410 819.5 369.5Q857 329 857 261V142Q857 74 819.5 33.5Q782 -7 708 -7ZM1094 -7Q1020 -7 982.5 33.5Q945 74 945 142V261Q945 329 982.5 369.5Q1020 410 1094 410Q1168 410 1205.5 369.5Q1243 329 1243 261V142Q1243 74 1205.5 33.5Q1168 -7 1094 -7ZM708 338Q672 338 656.5 318Q641 298 641 262V141Q641 105 656.5 85Q672 65 708 65Q744 65 759.5 85Q775 105 775 141V262Q775 298 759.5 318Q744 338 708 338ZM1094 338Q1058 338 1042.5 318Q1027 298 1027 262V141Q1027 105 1042.5 85Q1058 65 1094 65Q1130 65 1145.5 85Q1161 105 1161 141V262Q1161 298 1145.5 318Q1130 338 1094 338Z" glyph-name="perthousand" horiz-adv-x="1287" unicode="&#8240;" /><glyph d="M126 0V424H36V513H562V424H472V162Q472 116 487.5 100.5Q503 85 531 85H536V0H459Q459 0 445.5 5Q432 10 415.5 25.5Q399 41 385.5 70.5Q372 100 372 147V424H226V0Z" glyph-name="pi" horiz-adv-x="600" unicode="&#960;" /><glyph d="M65 344H253V532H346V344H535V251H346V63H253V251H65Z" glyph-name="plus" horiz-adv-x="600" unicode="+" /><glyph d="M65 399H253V556H346V399H535V307H346V149H253V307H65ZM65 93H535V0H65Z" glyph-name="plusminus" horiz-adv-x="600" unicode="&#177;" /><glyph d="M50 275Q50 385 96.5 451.5Q143 518 240 518Q276 518 303 509Q330 500 348.5 489.5Q367 479 376 470Q385 461 385 461H388L400 513H481V-173H381V-42Q381 -27 381.5 -10Q382 7 382 21.5Q382 36 382.5 46Q383 56 383 56H380Q380 56 370.5 46.5Q361 37 342.5 25.5Q324 14 295.5 4.5Q267 -5 229 -5Q133 -5 91.5 58.5Q50 122 50 238ZM261 82Q290 82 312.5 89.5Q335 97 350 106.5Q365 116 373 123.5Q381 131 381 131V385Q381 385 374 392Q367 399 353 408Q339 417 317.5 424Q296 431 268 431Q202 431 177 388Q152 345 152 264V248Q152 168 172.5 125Q193 82 261 82Z" glyph-name="q" horiz-adv-x="561" unicode="q" /><glyph d="M131 195V261L212 389Q232 420 248.5 455.5Q265 491 264 528Q263 562 240 579.5Q217 597 173 597Q147 597 129.5 592Q112 587 102.5 580.5Q93 574 89 569Q85 564 85 564H5V646Q5 646 16 652.5Q27 659 49 666.5Q71 674 103.5 680.5Q136 687 178 687Q274 687 320 645.5Q366 604 367 528Q368 474 347 427.5Q326 381 300 340L209 195ZM107 68Q107 97 124.5 115Q142 133 175 133Q209 133 226 114.5Q243 96 243 68V61Q243 31 225.5 13.5Q208 -4 175 -4Q141 -4 124 14.5Q107 33 107 61Z" glyph-name="question" horiz-adv-x="393" unicode="?" /><glyph d="M287 440Q287 411 269.5 393Q252 375 219 375Q185 375 168 393.5Q151 412 151 440V447Q151 477 168.5 494.5Q186 512 219 512Q253 512 270 493.5Q287 475 287 447ZM263 313V247L182 119Q162 88 145.5 52.5Q129 17 130 -20Q131 -54 154 -71.5Q177 -89 221 -89Q247 -89 264.5 -84Q282 -79 291.5 -72.5Q301 -66 305 -61Q309 -56 309 -56H389V-138Q389 -138 378 -144.5Q367 -151 345 -158.5Q323 -166 290.5 -172.5Q258 -179 216 -179Q120 -179 74 -137.5Q28 -96 27 -20Q26 34 47 80.5Q68 127 94 168L185 313Z" glyph-name="questiondown" horiz-adv-x="393" unicode="&#191;" /><glyph d="M287 612Q287 583 269.5 565Q252 547 219 547Q185 547 168 565.5Q151 584 151 612V619Q151 649 168.5 666.5Q186 684 219 684Q253 684 270 665.5Q287 647 287 619ZM263 485V419L182 291Q162 260 145.5 224.5Q129 189 130 152Q131 118 154 100.5Q177 83 221 83Q247 83 264.5 88Q282 93 291.5 99.5Q301 106 305 111Q309 116 309 116H389V34Q389 34 378 27.5Q367 21 345 13.5Q323 6 290.5 -0.5Q258 -7 216 -7Q120 -7 74 34.5Q28 76 27 152Q26 206 47 252.5Q68 299 94 340L185 485Z" glyph-name="questiondown.case" horiz-adv-x="393" /><glyph d="M46 401V680H136V401ZM229 401V680H319V401Z" glyph-name="quotedbl" horiz-adv-x="366" unicode="&quot;" /><glyph d="M13 -139Q13 -139 20.5 -119Q28 -99 37.5 -64.5Q47 -30 54.5 18.5Q62 67 62 124H165V64Q156 11 143.5 -27.5Q131 -66 120 -90.5Q109 -115 101 -127Q93 -139 93 -139ZM196 -139Q196 -139 203.5 -119Q211 -99 220.5 -64.5Q230 -30 237.5 18.5Q245 67 245 124H348V64Q339 11 326.5 -27.5Q314 -66 303 -90.5Q292 -115 284 -127Q276 -139 276 -139Z" glyph-name="quotedblbase" horiz-adv-x="402" unicode="&#8222;" /><glyph d="M215 744Q215 744 207.5 724Q200 704 190.5 669.5Q181 635 173.5 586.5Q166 538 166 481H63V541Q72 594 84.5 632.5Q97 671 108 695.5Q119 720 127 732Q135 744 135 744ZM398 744Q398 744 390.5 724Q383 704 373.5 669.5Q364 635 356.5 586.5Q349 538 349 481H246V541Q255 594 267.5 632.5Q280 671 291 695.5Q302 720 310 732Q318 744 318 744Z" glyph-name="quotedblleft" horiz-adv-x="411" unicode="&#8220;" /><glyph d="M13 477Q13 477 20.5 497Q28 517 37.5 551.5Q47 586 54.5 634.5Q62 683 62 740H165V680Q156 627 143.5 588.5Q131 550 120 525.5Q109 501 101 489Q93 477 93 477ZM196 477Q196 477 203.5 497Q211 517 220.5 551.5Q230 586 237.5 634.5Q245 683 245 740H348V680Q339 627 326.5 588.5Q314 550 303 525.5Q292 501 284 489Q276 477 276 477Z" glyph-name="quotedblright" horiz-adv-x="411" unicode="&#8221;" /><glyph d="M215 744Q215 744 207.5 724Q200 704 190.5 669.5Q181 635 173.5 586.5Q166 538 166 481H63V541Q72 594 84.5 632.5Q97 671 108 695.5Q119 720 127 732Q135 744 135 744Z" glyph-name="quoteleft" horiz-adv-x="228" unicode="&#8216;" /><glyph d="M13 477Q13 477 20.5 497Q28 517 37.5 551.5Q47 586 54.5 634.5Q62 683 62 740H165V680Q156 627 143.5 588.5Q131 550 120 525.5Q109 501 101 489Q93 477 93 477Z" glyph-name="quoteright" horiz-adv-x="228" unicode="&#8217;" /><glyph d="M13 -139Q13 -139 20.5 -119Q28 -99 37.5 -64.5Q47 -30 54.5 18.5Q62 67 62 124H165V64Q156 11 143.5 -27.5Q131 -66 120 -90.5Q109 -115 101 -127Q93 -139 93 -139Z" glyph-name="quotesinglbase" horiz-adv-x="219" unicode="&#8218;" /><glyph d="M46 401V680H136V401Z" glyph-name="quotesingle" horiz-adv-x="183" unicode="'" /><glyph d="M80 513H163L177 447H181Q184 452 192.5 463Q201 474 217 485Q233 496 258 504.5Q283 513 318 513H332V417H289Q260 417 240 409.5Q220 402 207 392.5Q194 383 187.5 373.5Q181 364 180 361V0H80Z" glyph-name="r" horiz-adv-x="357" unicode="r" /><glyph d="M232 740H316V690L234 572H150ZM80 513H163L177 447H181Q184 452 192.5 463Q201 474 217 485Q233 496 258 504.5Q283 513 318 513H332V417H289Q260 417 240 409.5Q220 402 207 392.5Q194 383 187.5 373.5Q181 364 180 361V0H80Z" glyph-name="racute" horiz-adv-x="357" unicode="&#341;" /><glyph d="M347 740V696L246 571H164L63 696V740H126L169 683Q183 666 193 652Q203 638 203 638H207Q207 638 217 652Q227 666 241 683L284 740ZM80 513H163L177 447H181Q184 452 192.5 463Q201 474 217 485Q233 496 258 504.5Q283 513 318 513H332V417H289Q260 417 240 409.5Q220 402 207 392.5Q194 383 187.5 373.5Q181 364 180 361V0H80Z" glyph-name="rcaron" horiz-adv-x="357" unicode="&#345;" /><glyph d="M585 465Q585 334 513.5 259Q442 184 311 184Q180 184 108.5 259Q37 334 37 465Q37 596 108.5 671Q180 746 311 746Q442 746 513.5 671Q585 596 585 465ZM110 465Q110 354 163 301Q216 248 311 248Q406 248 459 301Q512 354 512 465Q512 576 459 628.5Q406 681 311 681Q216 681 163 628.5Q110 576 110 465ZM271 326H208V606H331Q375 606 398 582Q421 558 421 519Q421 497 412.5 481Q404 465 394 454.5Q384 444 375.5 439.5Q367 435 367 435Q367 435 380.5 413Q394 391 418 368V326H371Q356 341 344 359Q332 377 323 391.5Q314 406 309 416Q304 426 304 426H271ZM332 481Q332 481 344 490Q356 499 356 518Q356 533 346.5 541Q337 549 319 549H271V481Z" glyph-name="registered" horiz-adv-x="622" unicode="&#174;" /><glyph d="M34 667Q34 717 64.5 746.5Q95 776 144 776Q193 776 223.5 746.5Q254 717 254 667Q254 618 223.5 588.5Q193 559 144 559Q95 559 64.5 588.5Q34 618 34 667ZM99 667Q99 648 110.5 634.5Q122 621 144 621Q167 621 178 634.5Q189 648 189 667Q189 687 178 700.5Q167 714 144 714Q122 714 110.5 700.5Q99 687 99 667Z" glyph-name="ring" horiz-adv-x="289" unicode="&#730;" /><glyph d="M48 106H122Q122 106 141 91.5Q160 77 211 77Q260 77 281 95Q302 113 302 142Q302 170 283 185.5Q264 201 221 211L194 218Q116 237 86 274Q56 311 56 370Q56 433 100 476.5Q144 520 240 520Q309 520 348.5 505Q388 490 388 490V408H314Q314 408 298.5 422Q283 436 235 436Q184 436 168.5 415Q153 394 153 374Q153 344 169 329.5Q185 315 226 305L253 299Q330 280 365 245Q400 210 400 147Q400 72 351.5 32.5Q303 -7 204 -7Q132 -7 90 8.5Q48 24 48 24Z" glyph-name="s" horiz-adv-x="448" unicode="s" /><glyph d="M258 740H342V690L260 572H176ZM48 106H122Q122 106 141 91.5Q160 77 211 77Q260 77 281 95Q302 113 302 142Q302 170 283 185.5Q264 201 221 211L194 218Q116 237 86 274Q56 311 56 370Q56 433 100 476.5Q144 520 240 520Q309 520 348.5 505Q388 490 388 490V408H314Q314 408 298.5 422Q283 436 235 436Q184 436 168.5 415Q153 394 153 374Q153 344 169 329.5Q185 315 226 305L253 299Q330 280 365 245Q400 210 400 147Q400 72 351.5 32.5Q303 -7 204 -7Q132 -7 90 8.5Q48 24 48 24Z" glyph-name="sacute" horiz-adv-x="448" unicode="&#347;" /><glyph d="M365 740V696L264 571H182L81 696V740H144L187 683Q201 666 211 652Q221 638 221 638H225Q225 638 235 652Q245 666 259 683L302 740ZM48 106H122Q122 106 141 91.5Q160 77 211 77Q260 77 281 95Q302 113 302 142Q302 170 283 185.5Q264 201 221 211L194 218Q116 237 86 274Q56 311 56 370Q56 433 100 476.5Q144 520 240 520Q309 520 348.5 505Q388 490 388 490V408H314Q314 408 298.5 422Q283 436 235 436Q184 436 168.5 415Q153 394 153 374Q153 344 169 329.5Q185 315 226 305L253 299Q330 280 365 245Q400 210 400 147Q400 72 351.5 32.5Q303 -7 204 -7Q132 -7 90 8.5Q48 24 48 24Z" glyph-name="scaron" horiz-adv-x="448" unicode="&#353;" /><glyph d="M48 106H122Q122 106 141 91.5Q160 77 211 77Q260 77 281 95Q302 113 302 142Q302 170 283 185.5Q264 201 221 211L194 218Q116 237 86 274Q56 311 56 370Q56 433 100 476.5Q144 520 240 520Q309 520 348.5 505Q388 490 388 490V408H314Q314 408 298.5 422Q283 436 235 436Q184 436 168.5 415Q153 394 153 374Q153 344 169 329.5Q185 315 226 305L253 299Q330 280 365 245Q400 210 400 147Q400 90 371 53Q342 16 285 2V0Q285 -37 276.5 -65.5Q268 -94 258 -113.5Q248 -133 239.5 -143.5Q231 -154 231 -154H158V-101Q158 -101 164 -94.5Q170 -88 176.5 -76.5Q183 -65 189 -47Q195 -29 195 -7Q127 -6 87.5 9Q48 24 48 24Z" glyph-name="scedilla" horiz-adv-x="448" unicode="&#351;" /><glyph d="M81 571V615L182 740H264L365 615V571H302L259 628Q245 645 235 659Q225 673 225 673H221Q221 673 211 659Q201 645 187 628L144 571ZM48 106H122Q122 106 141 91.5Q160 77 211 77Q260 77 281 95Q302 113 302 142Q302 170 283 185.5Q264 201 221 211L194 218Q116 237 86 274Q56 311 56 370Q56 433 100 476.5Q144 520 240 520Q309 520 348.5 505Q388 490 388 490V408H314Q314 408 298.5 422Q283 436 235 436Q184 436 168.5 415Q153 394 153 374Q153 344 169 329.5Q185 315 226 305L253 299Q330 280 365 245Q400 210 400 147Q400 72 351.5 32.5Q303 -7 204 -7Q132 -7 90 8.5Q48 24 48 24Z" glyph-name="scircumflex" horiz-adv-x="448" unicode="&#349;" /><glyph d="M68 -73H137Q137 -73 158 -85.5Q179 -98 228 -98Q283 -98 301.5 -74.5Q320 -51 320 -29Q320 1 304 20Q288 39 249 58L174 96Q110 129 78 168.5Q46 208 46 271Q46 328 72 365Q98 402 122 421Q101 443 91 471Q81 499 81 536Q81 598 128 644Q175 690 271 690Q307 690 335 685Q363 680 382 673.5Q401 667 411 662Q421 657 421 657V578H351Q351 578 334 592Q317 606 268 606Q215 606 197 582.5Q179 559 179 538Q179 508 195.5 488.5Q212 469 251 450L326 412Q390 379 422 339.5Q454 300 454 238Q454 181 427.5 143.5Q401 106 377 87Q398 65 408 37.5Q418 10 418 -27Q418 -90 369.5 -135.5Q321 -181 221 -181Q150 -181 109 -166.5Q68 -152 68 -152ZM302 140Q303 139 305 138.5Q307 138 308 137Q324 150 340.5 173Q357 196 357 227Q357 258 340.5 281Q324 304 281 325L198 368Q197 369 194.5 370Q192 371 191 372Q175 358 159 335.5Q143 313 143 282Q143 250 159.5 227.5Q176 205 219 183Z" glyph-name="section" horiz-adv-x="505" unicode="&#167;" /><glyph d="M44 443Q44 471 61 487.5Q78 504 109 504Q141 504 158 487.5Q175 471 175 443V435Q175 407 158 390Q141 373 109 373Q78 373 61 390Q44 407 44 435ZM13 -139Q13 -139 20.5 -119Q28 -99 37.5 -64.5Q47 -30 54.5 18.5Q62 67 62 124H165V64Q156 11 143.5 -27.5Q131 -66 120 -90.5Q109 -115 101 -127Q93 -139 93 -139Z" glyph-name="semicolon" horiz-adv-x="219" unicode=";" /><glyph d="M236 0H134V81L310 522Q313 530 317.5 541Q322 552 326 562Q330 572 333 579Q336 586 336 586V589H114L106 533H18V680H440V582L248 98Q238 74 237 51.5Q236 29 236 14Z" glyph-name="seven" horiz-adv-x="467" unicode="7" /><glyph d="M17 294V403H288V322L185 70Q180 59 179 45.5Q178 32 178 23V0H96V67L179 268Q186 286 195.5 307.5Q205 329 205 329V332H94L90 294Z" glyph-name="seven.dnom" horiz-adv-x="312" /><glyph d="M17 571V680H288V599L185 347Q180 336 179 322.5Q178 309 178 300V277H96V344L179 545Q186 563 195.5 584.5Q205 606 205 606V609H94L90 571Z" glyph-name="seven.numr" horiz-adv-x="312" /><glyph d="M24 533H420V432L246 -5Q238 -27 235.5 -50.5Q233 -74 233 -90V-108H134V-30L298 380L323 440V443H116L108 388H24Z" glyph-name="seven.osf" horiz-adv-x="449" /><glyph d="M304 261Q277 216 267 165Q257 114 257 52V0H154V59Q154 126 168 184.5Q182 243 219 305L272 394Q299 437 316.5 473.5Q334 510 334 557V586H122L114 535H28V680H435L436 594Q436 554 432 525Q428 496 419 470Q410 444 395.5 417Q381 390 359 354Z" glyph-name="seven.ss02" horiz-adv-x="476" /><glyph d="M282 0H181V75L383 516Q386 523 391 534.5Q396 546 401 557.5Q406 569 410 577.5Q414 586 414 586V589H138L130 533H45V680H515V568L293 77Q286 61 284 45.5Q282 30 282 12Z" glyph-name="seven.tf" horiz-adv-x="560" /><glyph d="M17 571V680H288V599L185 347Q180 336 179 322.5Q178 309 178 300V277H96V344L179 545Q186 563 195.5 584.5Q205 606 205 606V609H94L90 571ZM530 680H586V633L191 0H135V47ZM611 -7Q539 -7 503 23Q467 53 467 106Q467 130 473.5 148Q480 166 488 178.5Q496 191 502.5 197Q509 203 509 203V205Q509 205 503 211Q497 217 490.5 228.5Q484 240 478 257Q472 274 472 296Q472 345 506.5 377.5Q541 410 611 410Q681 410 715 377.5Q749 345 749 296Q749 274 743 257Q737 240 730.5 228.5Q724 217 718 211Q712 205 712 205V203Q712 203 718.5 197Q725 191 733 178.5Q741 166 747.5 148Q754 130 754 106Q754 53 718.5 23Q683 -7 611 -7ZM550 290Q550 262 562 249Q574 236 574 236H648Q648 236 659.5 249Q671 262 671 290Q671 316 655 329.5Q639 343 611 343Q582 343 566 329.5Q550 316 550 290ZM611 60Q645 60 661 74.5Q677 89 677 113Q677 144 663 157Q649 170 649 170H573Q573 170 559 157Q545 144 545 113Q545 89 561 74.5Q577 60 611 60Z" glyph-name="seveneighths" horiz-adv-x="796" unicode="&#8542;" /><glyph d="M52 238V269Q52 394 93.5 474.5Q135 555 184 600.5Q233 646 274.5 663Q316 680 316 680H391V600Q379 600 346.5 590.5Q314 581 277.5 555.5Q241 530 208 485Q175 440 162 369H165Q165 369 174 378Q183 387 201 398Q219 409 246.5 418Q274 427 311 427Q412 427 454 367Q496 307 496 214Q496 115 440.5 53.5Q385 -8 278 -8Q167 -8 109.5 52.5Q52 113 52 238ZM154 216Q154 150 184.5 114.5Q215 79 278 79Q338 79 366 114.5Q394 150 394 211Q394 278 366.5 309Q339 340 286 340Q255 340 230 332Q205 324 188.5 314.5Q172 305 163 297Q154 289 154 289Z" glyph-name="six" horiz-adv-x="530" unicode="6" /><glyph d="M257 336Q246 336 227.5 331Q209 326 189 313.5Q169 301 151 279.5Q133 258 123 225H125Q125 225 148 240.5Q171 256 213 256Q269 256 294.5 223Q320 190 320 130Q320 61 281.5 27Q243 -7 178 -7Q113 -7 73.5 26.5Q34 60 34 141V156Q34 232 59.5 280.5Q85 329 115 356Q145 383 170.5 393Q196 403 196 403H257ZM117 140Q117 97 133.5 79.5Q150 62 181 62Q210 62 225 80.5Q240 99 239 131Q238 161 224 176.5Q210 192 184 192Q152 192 134.5 179.5Q117 167 117 167Z" glyph-name="six.dnom" horiz-adv-x="351" /><glyph d="M257 613Q246 613 227.5 608Q209 603 189 590.5Q169 578 151 556.5Q133 535 123 502H125Q125 502 148 517.5Q171 533 213 533Q269 533 294.5 500Q320 467 320 407Q320 338 281.5 304Q243 270 178 270Q113 270 73.5 303.5Q34 337 34 418V433Q34 509 59.5 557.5Q85 606 115 633Q145 660 170.5 670Q196 680 196 680H257ZM117 417Q117 374 133.5 356.5Q150 339 181 339Q210 339 225 357.5Q240 376 239 408Q238 438 224 453.5Q210 469 184 469Q152 469 134.5 456.5Q117 444 117 444Z" glyph-name="six.numr" horiz-adv-x="351" /><glyph d="M51 236V270Q51 380 87.5 452Q124 524 168 566Q212 608 248.5 624.5Q285 641 285 641H363V565Q355 565 326 556Q297 547 264 523Q231 499 200.5 457Q170 415 158 349H161Q161 349 170 358.5Q179 368 197 379.5Q215 391 242.5 400.5Q270 410 307 410Q406 410 448 353.5Q490 297 490 207Q490 112 434.5 51Q379 -10 273 -10Q163 -10 107 51Q51 112 51 236ZM153 214Q153 148 182.5 112.5Q212 77 273 77Q332 77 360 112Q388 147 388 204Q388 267 361.5 295Q335 323 281 323Q249 323 225 313Q201 303 185 291.5Q169 280 161 270Q153 260 153 260Z" glyph-name="six.osf" horiz-adv-x="521" /><glyph d="M473 558H392Q392 558 388 564Q384 570 373.5 577.5Q363 585 344 591Q325 597 296 597Q233 597 201.5 564Q170 531 170 456V421Q170 401 169.5 385.5Q169 370 169 370H171Q171 370 179.5 379Q188 388 205 398Q222 408 248 417Q274 426 308 426Q410 426 453.5 370Q497 314 497 211Q497 105 445 47.5Q393 -10 284 -10Q168 -10 117 50Q66 110 66 244V437Q66 568 126 629Q186 690 299 690Q342 690 375 682.5Q408 675 429.5 666Q451 657 462 649.5Q473 642 473 642ZM170 229Q169 147 197 115.5Q225 84 283 84Q341 84 367.5 114Q394 144 394 209Q394 273 369.5 304Q345 335 288 335Q257 335 235 326.5Q213 318 198.5 308.5Q184 299 177 290.5Q170 282 170 282Z" glyph-name="six.ss02" horiz-adv-x="542" /><glyph d="M55 238V277Q55 402 100.5 481Q146 560 200.5 604Q255 648 300.5 664Q346 680 346 680H417V601Q407 601 370.5 590.5Q334 580 292 553.5Q250 527 213 480.5Q176 434 165 362H168Q168 362 178 371.5Q188 381 207 393Q226 405 255 414.5Q284 424 322 424Q374 424 411 408Q448 392 470.5 363.5Q493 335 503.5 296Q514 257 514 211Q514 113 457.5 52.5Q401 -8 288 -8Q175 -8 115 52.5Q55 113 55 238ZM157 216Q157 150 190.5 114.5Q224 79 288 79Q354 79 383 113.5Q412 148 412 208Q412 274 382.5 305.5Q353 337 296 337Q261 337 235 328.5Q209 320 191.5 309.5Q174 299 165.5 290.5Q157 282 157 282Z" glyph-name="six.tf" horiz-adv-x="560" /><glyph d="M274 680H352V616L89 0H11V64Z" glyph-name="slash" horiz-adv-x="363" unicode="/" /><glyph glyph-name="space" horiz-adv-x="211" unicode=" " /><glyph d="M298 188Q298 142 282.5 118Q267 94 267 94H474V0H73V94H154Q154 94 161.5 98.5Q169 103 178 113Q187 123 194.5 139.5Q202 156 202 180Q202 205 194.5 228Q187 251 179 270H73V360H140Q120 410 110.5 444.5Q101 479 101 516Q101 600 156 644.5Q211 689 303 689Q347 689 379 681.5Q411 674 432 665Q453 656 463.5 648.5Q474 641 474 641V560H392Q392 560 388.5 566Q385 572 375 579Q365 586 347.5 592Q330 598 302 598Q253 598 228 574.5Q203 551 203 510Q203 481 214.5 447.5Q226 414 248 360H382V270H285Q290 251 294 230Q298 209 298 188Z" glyph-name="sterling" horiz-adv-x="505" unicode="&#163;" /><glyph d="M14 426V513H100V640H200V513H286V426H200V148Q200 116 214.5 100.5Q229 85 254 85H273V0H187Q187 0 173.5 5Q160 10 143.5 25.5Q127 41 113.5 69Q100 97 100 142V426Z" glyph-name="t" horiz-adv-x="317" unicode="t" /><glyph d="M25 327H111V426H25V513H111V640H211V513H297V426H211V327H297V248H211V148Q211 116 225.5 100.5Q240 85 265 85H284V0H198Q198 0 184.5 5Q171 10 154.5 25.5Q138 41 124.5 69Q111 97 111 142V248H25Z" glyph-name="tbar" horiz-adv-x="339" unicode="&#359;" /><glyph d="M264 550Q264 550 268.5 565.5Q273 581 278 607Q283 633 287.5 667.5Q292 702 292 740H393V693Q379 625 362.5 587.5Q346 550 346 550ZM14 426V513H100V640H200V513H286V426H200V148Q200 116 214.5 100.5Q229 85 254 85H273V0H187Q187 0 173.5 5Q160 10 143.5 25.5Q127 41 113.5 69Q100 97 100 142V426Z" glyph-name="tcaron" horiz-adv-x="378" unicode="&#357;" /><glyph d="M319 -8Q287 -8 262.5 -1.5Q238 5 220.5 13.5Q203 22 192.5 29.5Q182 37 179 40H175Q175 40 175.5 30Q176 20 176.5 5Q177 -10 177.5 -27Q178 -44 178 -59V-173H80V740H178V555Q178 540 177.5 523Q177 506 176.5 491.5Q176 477 175.5 467.5Q175 458 175 458H179Q179 458 188.5 468Q198 478 217 489.5Q236 501 264.5 511Q293 521 331 521Q427 521 468.5 456.5Q510 392 510 276V236Q510 126 463.5 59Q417 -8 319 -8ZM299 434Q271 434 248 426Q225 418 210 408.5Q195 399 186.5 391Q178 383 178 383V120Q178 120 185.5 113.5Q193 107 207.5 99.5Q222 92 243 85.5Q264 79 292 79Q358 79 384 123Q410 167 410 247V265Q410 345 388.5 389.5Q367 434 299 434Z" glyph-name="thorn" horiz-adv-x="559" unicode="&#254;" /><glyph d="M39 32 38 117H117Q117 117 123 112Q129 107 141.5 100.5Q154 94 175 89Q196 84 225 84Q294 84 326 114Q358 144 358 198Q358 247 335.5 279Q313 311 250 311Q219 311 200.5 304.5Q182 298 182 298H111V381L315 585V587Q315 587 305.5 587Q296 587 282.5 586.5Q269 586 254 586Q239 586 229 586H48V680H439V581L301 448Q282 430 258.5 410Q235 390 235 390L236 388Q236 388 251.5 391.5Q267 395 292 395Q368 395 414 347Q460 299 460 204Q460 105 398.5 48.5Q337 -8 222 -8Q180 -8 146 -1.5Q112 5 88.5 12Q65 19 52 25.5Q39 32 39 32Z" glyph-name="three" horiz-adv-x="504" unicode="3" /><glyph d="M43 82H110Q110 82 123.5 72Q137 62 173 62Q205 62 222.5 77.5Q240 93 240 122Q240 152 224 164Q208 176 184 176Q163 176 151 171Q139 166 139 166H83L82 224L205 332V333Q205 333 188 332.5Q171 332 154 332H48V403H303V330L223 258Q212 248 197.5 237.5Q183 227 183 227V226Q183 226 193.5 229Q204 232 220 232Q263 232 292 206Q321 180 321 123Q321 63 281.5 28Q242 -7 169 -7Q109 -7 76 6.5Q43 20 43 20Z" glyph-name="three.dnom" horiz-adv-x="354" /><glyph d="M43 359H110Q110 359 123.5 349Q137 339 173 339Q205 339 222.5 354.5Q240 370 240 399Q240 429 224 441Q208 453 184 453Q163 453 151 448Q139 443 139 443H83L82 501L205 609V610Q205 610 188 609.5Q171 609 154 609H48V680H303V607L223 535Q212 525 197.5 514.5Q183 504 183 504V503Q183 503 193.5 506Q204 509 220 509Q263 509 292 483Q321 457 321 400Q321 340 281.5 305Q242 270 169 270Q109 270 76 283.5Q43 297 43 297Z" glyph-name="three.numr" horiz-adv-x="354" /><glyph d="M41 -3H120Q120 -3 142 -17.5Q164 -32 214 -32Q280 -32 311 -1Q342 30 342 81Q342 136 313 157.5Q284 179 240 179Q209 179 189.5 171Q170 163 170 163H101V243L296 443V445Q296 445 265 444.5Q234 444 200 444H48V533H418V439L287 306Q266 285 242.5 267Q219 249 219 249L220 248Q220 248 236 253Q252 258 280 258Q306 258 335.5 250.5Q365 243 389 224Q413 205 428.5 171Q444 137 444 85Q444 -14 381.5 -66Q319 -118 209 -118Q168 -118 136 -112.5Q104 -107 83 -101Q62 -95 51.5 -89.5Q41 -84 41 -84Z" glyph-name="three.osf" horiz-adv-x="492" /><glyph d="M56 557V644Q56 644 67.5 650.5Q79 657 102.5 665.5Q126 674 162 680.5Q198 687 245 687Q354 687 408.5 639Q463 591 463 504Q463 465 450 435Q437 405 422 385.5Q407 366 394 355.5Q381 345 381 345V342Q381 342 394.5 333.5Q408 325 424 306.5Q440 288 453.5 259Q467 230 467 190Q467 95 409 44Q351 -7 241 -7Q192 -7 155.5 0.5Q119 8 95 17Q71 26 59.5 33.5Q48 41 48 41V122H129Q129 122 133.5 116Q138 110 150 102.5Q162 95 184.5 89Q207 83 243 83Q304 83 333.5 113Q363 143 363 192Q363 221 351.5 241Q340 261 327 273Q314 285 302.5 290Q291 295 291 295H130V389H291Q291 389 301.5 395Q312 401 325 414.5Q338 428 348.5 448.5Q359 469 359 497Q359 545 330.5 571Q302 597 245 597Q213 597 192 590.5Q171 584 159 577Q147 570 142 563.5Q137 557 137 557Z" glyph-name="three.ss02" horiz-adv-x="527" /><glyph d="M61 32 60 117H139Q139 117 146.5 112Q154 107 168.5 100.5Q183 94 205.5 89Q228 84 257 84Q333 84 366.5 114Q400 144 400 198Q400 247 375.5 279Q351 311 282 311Q251 311 230 304.5Q209 298 209 298H138V384L358 585V587Q358 587 346.5 587Q335 587 320 586.5Q305 586 288 586Q271 586 261 586H71V680H481V580L340 447Q331 438 318.5 428Q306 418 295 409.5Q284 401 276 395.5Q268 390 268 390L269 388Q269 388 284.5 391.5Q300 395 325 395Q409 395 455.5 347Q502 299 502 204Q502 105 437.5 48.5Q373 -8 254 -8Q210 -8 174.5 -1.5Q139 5 114 12Q89 19 75 25.5Q61 32 61 32Z" glyph-name="three.tf" horiz-adv-x="560" /><glyph d="M43 359H110Q110 359 123.5 349Q137 339 173 339Q205 339 222.5 354.5Q240 370 240 399Q240 429 224 441Q208 453 184 453Q163 453 151 448Q139 443 139 443H83L82 501L205 609V610Q205 610 188 609.5Q171 609 154 609H48V680H303V607L223 535Q212 525 197.5 514.5Q183 504 183 504V503Q183 503 193.5 506Q204 509 220 509Q263 509 292 483Q321 457 321 400Q321 340 281.5 305Q242 270 169 270Q109 270 76 283.5Q43 297 43 297ZM588 680H644V633L249 0H193V47ZM669 -7Q597 -7 561 23Q525 53 525 106Q525 130 531.5 148Q538 166 546 178.5Q554 191 560.5 197Q567 203 567 203V205Q567 205 561 211Q555 217 548.5 228.5Q542 240 536 257Q530 274 530 296Q530 345 564.5 377.5Q599 410 669 410Q739 410 773 377.5Q807 345 807 296Q807 274 801 257Q795 240 788.5 228.5Q782 217 776 211Q770 205 770 205V203Q770 203 776.5 197Q783 191 791 178.5Q799 166 805.5 148Q812 130 812 106Q812 53 776.5 23Q741 -7 669 -7ZM608 290Q608 262 620 249Q632 236 632 236H706Q706 236 717.5 249Q729 262 729 290Q729 316 713 329.5Q697 343 669 343Q640 343 624 329.5Q608 316 608 290ZM669 60Q703 60 719 74.5Q735 89 735 113Q735 144 721 157Q707 170 707 170H631Q631 170 617 157Q603 144 603 113Q603 89 619 74.5Q635 60 669 60Z" glyph-name="threeeighths" horiz-adv-x="854" unicode="&#8540;" /><glyph d="M43 359H110Q110 359 123.5 349Q137 339 173 339Q205 339 222.5 354.5Q240 370 240 399Q240 429 224 441Q208 453 184 453Q163 453 151 448Q139 443 139 443H83L82 501L205 609V610Q205 610 188 609.5Q171 609 154 609H48V680H303V607L223 535Q212 525 197.5 514.5Q183 504 183 504V503Q183 503 193.5 506Q204 509 220 509Q263 509 292 483Q321 457 321 400Q321 340 281.5 305Q242 270 169 270Q109 270 76 283.5Q43 297 43 297ZM588 680H644V633L249 0H193V47ZM490 76V143L609 403H741V145H797V76H741V0H662V76ZM566 145H662V248Q662 260 662 275.5Q662 291 662.5 304Q663 317 663 326Q663 335 663 335H650Q650 335 638.5 306Q627 277 614 249Z" glyph-name="threequarters" horiz-adv-x="824" unicode="&#190;" /><glyph d="M23 603V667Q23 667 28.5 674Q34 681 45.5 690Q57 699 76 706Q95 713 122 713Q142 713 162.5 708.5Q183 704 199 698L223 690Q236 684 248.5 681Q261 678 275 678Q305 678 313.5 692Q322 706 322 706H383V643Q383 643 377.5 636Q372 629 360.5 620Q349 611 330 604Q311 597 284 597Q263 597 243 601.5Q223 606 207 612L183 620Q169 625 156.5 628.5Q144 632 130 632Q100 632 91.5 617.5Q83 603 83 603Z" glyph-name="tilde" horiz-adv-x="406" unicode="&#732;" /><glyph d="M23 603V667Q23 667 28.5 674Q34 681 45.5 690Q57 699 76 706Q95 713 122 713Q142 713 162.5 708.5Q183 704 199 698L223 690Q236 684 248.5 681Q261 678 275 678Q305 678 313.5 692Q322 706 322 706H383V643Q383 643 377.5 636Q372 629 360.5 620Q349 611 330 604Q311 597 284 597Q263 597 243 601.5Q223 606 207 612L183 620Q169 625 156.5 628.5Q144 632 130 632Q100 632 91.5 617.5Q83 603 83 603Z" glyph-name="tildecomb" horiz-adv-x="406" unicode="&#771;" /><glyph d="M23 749V813Q23 813 28.5 820Q34 827 45.5 836Q57 845 76 852Q95 859 122 859Q142 859 162.5 854.5Q183 850 199 844L223 836Q236 830 248.5 827Q261 824 275 824Q305 824 313.5 838Q322 852 322 852H383V789Q383 789 377.5 782Q372 775 360.5 766Q349 757 330 750Q311 743 284 743Q263 743 243 747.5Q223 752 207 758L183 766Q169 771 156.5 774.5Q144 778 130 778Q100 778 91.5 763.5Q83 749 83 749Z" glyph-name="tildecomb.case" horiz-adv-x="406" /><glyph d="M123 310V606H33V680H291L279 606H204V310ZM334 310V680H452L491 552Q501 516 506 497.5Q511 479 511 479H513Q513 479 518.5 497.5Q524 516 534 552L573 680H691V310H612V489Q612 503 612.5 521.5Q613 540 613 556.5Q613 573 613.5 584.5Q614 596 614 596H612L549 392H475L413 596H410Q410 596 410.5 584.5Q411 573 411 556.5Q411 540 411.5 521.5Q412 503 412 489V310Z" glyph-name="trademark" horiz-adv-x="752" unicode="&#8482;" /><glyph d="M46 559V644Q46 644 59 650.5Q72 657 96 665.5Q120 674 156 680.5Q192 687 237 687Q344 687 397 641.5Q450 596 449 503Q449 443 423 393.5Q397 344 339 281L170 96V94Q170 94 199.5 95Q229 96 263 96H449V0H40V96L278 360Q303 388 324 424Q345 460 345 502Q345 545 320 571Q295 597 237 597Q203 597 181.5 591Q160 585 147.5 578Q135 571 130.5 565Q126 559 126 559Z" glyph-name="two" horiz-adv-x="492" unicode="2" /><glyph d="M306 0H43V76L182 211Q204 233 214.5 249Q225 265 225 288Q225 313 210 325.5Q195 338 168 338Q132 338 120 327Q108 316 108 316H41V381Q41 381 75.5 395.5Q110 410 173 410Q236 410 271.5 380Q307 350 307 293Q307 249 289.5 220Q272 191 241 163L144 72V71Q144 71 162.5 71.5Q181 72 199 72H306Z" glyph-name="two.dnom" horiz-adv-x="348" /><glyph d="M306 277H43V353L182 488Q204 510 214.5 526Q225 542 225 565Q225 590 210 602.5Q195 615 168 615Q132 615 120 604Q108 593 108 593H41V658Q41 658 75.5 672.5Q110 687 173 687Q236 687 271.5 657Q307 627 307 570Q307 526 289.5 497Q272 468 241 440L144 349V348Q144 348 162.5 348.5Q181 349 199 349H306Z" glyph-name="two.numr" horiz-adv-x="348" /><glyph d="M48 417V495Q48 495 59 502.5Q70 510 93 519Q116 528 151 535.5Q186 543 233 543Q323 543 375 502Q427 461 427 380Q427 340 409 297.5Q391 255 328 206L239 138Q211 116 193.5 103Q176 90 176 90V88Q176 88 205.5 88.5Q235 89 278 89H437V0H44V99L261 271Q301 303 313 327Q325 351 325 376Q325 412 302 433.5Q279 455 225 455Q193 455 173.5 449Q154 443 143 436Q132 429 128.5 423Q125 417 125 417Z" glyph-name="two.osf" horiz-adv-x="481" /><glyph d="M55 558V645Q55 645 67 651.5Q79 658 102.5 666Q126 674 162 680.5Q198 687 245 687Q351 687 404 640.5Q457 594 457 504Q457 441 432 394.5Q407 348 338 302L243 238Q206 213 179 182Q152 151 152 107V92Q152 92 182.5 93Q213 94 247 94H458V0H47V75Q47 156 79.5 211Q112 266 184 315L279 379Q319 406 336 433Q353 460 353 500Q353 546 325.5 571.5Q298 597 239 597Q208 597 188 591Q168 585 156.5 577.5Q145 570 140.5 564Q136 558 136 558Z" glyph-name="two.ss02" horiz-adv-x="499" /><glyph d="M68 559V644Q68 644 82.5 650.5Q97 657 123.5 665.5Q150 674 187.5 680.5Q225 687 271 687Q378 687 433.5 641.5Q489 596 489 503Q489 439 465.5 390Q442 341 381 281L194 96V94Q194 94 203.5 94.5Q213 95 228 95Q243 95 261 95.5Q279 96 295 96H492V0H63V96L321 360Q346 386 365.5 418.5Q385 451 385 501Q385 546 356.5 571.5Q328 597 268 597Q234 597 211.5 591Q189 585 175 578Q161 571 155 565Q149 559 149 559Z" glyph-name="two.tf" horiz-adv-x="560" /><glyph d="M75 513H175V158Q175 119 196.5 98.5Q218 78 265 78Q292 78 314 86Q336 94 351 103.5Q366 113 374.5 121Q383 129 383 129V513H483V0H400L386 56H384Q384 56 374 46Q364 36 344.5 24Q325 12 294.5 2Q264 -8 224 -8Q155 -8 115 30Q75 68 75 145Z" glyph-name="u" horiz-adv-x="563" unicode="u" /><glyph d="M310 740H394V690L312 572H228ZM75 513H175V158Q175 119 196.5 98.5Q218 78 265 78Q292 78 314 86Q336 94 351 103.5Q366 113 374.5 121Q383 129 383 129V513H483V0H400L386 56H384Q384 56 374 46Q364 36 344.5 24Q325 12 294.5 2Q264 -8 224 -8Q155 -8 115 30Q75 68 75 145Z" glyph-name="uacute" horiz-adv-x="563" unicode="&#250;" /><glyph d="M140 713H209Q209 713 210.5 703Q212 693 218.5 681.5Q225 670 239 660Q253 650 279 650Q305 650 319 660Q333 670 339.5 681.5Q346 693 347.5 703Q349 713 349 713H417V659Q417 659 411 646.5Q405 634 389.5 618.5Q374 603 347 590.5Q320 578 279 578Q238 578 211 590.5Q184 603 168.5 618.5Q153 634 146.5 646.5Q140 659 140 659ZM75 513H175V158Q175 119 196.5 98.5Q218 78 265 78Q292 78 314 86Q336 94 351 103.5Q366 113 374.5 121Q383 129 383 129V513H483V0H400L386 56H384Q384 56 374 46Q364 36 344.5 24Q325 12 294.5 2Q264 -8 224 -8Q155 -8 115 30Q75 68 75 145Z" glyph-name="ubreve" horiz-adv-x="563" unicode="&#365;" /><glyph d="M137 571V615L238 740H320L421 615V571H358L315 628Q301 645 291 659Q281 673 281 673H277Q277 673 267 659Q257 645 243 628L200 571ZM75 513H175V158Q175 119 196.5 98.5Q218 78 265 78Q292 78 314 86Q336 94 351 103.5Q366 113 374.5 121Q383 129 383 129V513H483V0H400L386 56H384Q384 56 374 46Q364 36 344.5 24Q325 12 294.5 2Q264 -8 224 -8Q155 -8 115 30Q75 68 75 145Z" glyph-name="ucircumflex" horiz-adv-x="563" unicode="&#251;" /><glyph d="M142 645Q142 670 156.5 685Q171 700 201 700Q232 700 246 684.5Q260 669 260 645V637Q260 612 245.5 597Q231 582 201 582Q170 582 156 598Q142 614 142 637ZM297 645Q297 670 312 685Q327 700 356 700Q387 700 401 684.5Q415 669 415 645V637Q415 612 400.5 597Q386 582 356 582Q326 582 311.5 598Q297 614 297 637ZM75 513H175V158Q175 119 196.5 98.5Q218 78 265 78Q292 78 314 86Q336 94 351 103.5Q366 113 374.5 121Q383 129 383 129V513H483V0H400L386 56H384Q384 56 374 46Q364 36 344.5 24Q325 12 294.5 2Q264 -8 224 -8Q155 -8 115 30Q75 68 75 145Z" glyph-name="udieresis" horiz-adv-x="563" unicode="&#252;" /><glyph d="M244 740 326 572H242L160 690V740ZM75 513H175V158Q175 119 196.5 98.5Q218 78 265 78Q292 78 314 86Q336 94 351 103.5Q366 113 374.5 121Q383 129 383 129V513H483V0H400L386 56H384Q384 56 374 46Q364 36 344.5 24Q325 12 294.5 2Q264 -8 224 -8Q155 -8 115 30Q75 68 75 145Z" glyph-name="ugrave" horiz-adv-x="563" unicode="&#249;" /><glyph d="M287 663 213 572H130L212 716H287ZM443 663 369 572H286L368 716H443ZM75 513H175V158Q175 119 196.5 98.5Q218 78 265 78Q292 78 314 86Q336 94 351 103.5Q366 113 374.5 121Q383 129 383 129V513H483V0H400L386 56H384Q384 56 374 46Q364 36 344.5 24Q325 12 294.5 2Q264 -8 224 -8Q155 -8 115 30Q75 68 75 145Z" glyph-name="uhungarumlaut" horiz-adv-x="563" unicode="&#369;" /><glyph d="M134 693H422V614H134ZM75 513H175V158Q175 119 196.5 98.5Q218 78 265 78Q292 78 314 86Q336 94 351 103.5Q366 113 374.5 121Q383 129 383 129V513H483V0H400L386 56H384Q384 56 374 46Q364 36 344.5 24Q325 12 294.5 2Q264 -8 224 -8Q155 -8 115 30Q75 68 75 145Z" glyph-name="umacron" horiz-adv-x="563" unicode="&#363;" /><glyph d="M0 -79H500V-172H0Z" glyph-name="underscore" horiz-adv-x="500" unicode="_" /><glyph d="M306 477H43V553L182 688Q204 710 214.5 726Q225 742 225 765Q225 790 210 802.5Q195 815 168 815Q132 815 120 804Q108 793 108 793H41V858Q41 858 75.5 872.5Q110 887 173 887Q236 887 271.5 857Q307 827 307 770Q307 726 289.5 697Q272 668 241 640L144 549V548Q144 548 162.5 548.5Q181 549 199 549H306Z" glyph-name="uni00B2" horiz-adv-x="348" unicode="&#178;" /><glyph d="M43 559H110Q110 559 123.5 549Q137 539 173 539Q205 539 222.5 554.5Q240 570 240 599Q240 629 224 641Q208 653 184 653Q163 653 151 648Q139 643 139 643H83L82 701L205 809V810Q205 810 188 809.5Q171 809 154 809H48V880H303V807L223 735Q212 725 197.5 714.5Q183 704 183 704V703Q183 703 193.5 706Q204 709 220 709Q263 709 292 683Q321 657 321 600Q321 540 281.5 505Q242 470 169 470Q109 470 76 483.5Q43 497 43 497Z" glyph-name="uni00B3" horiz-adv-x="354" unicode="&#179;" /><glyph d="M75 513H175V158Q175 119 196.5 98.5Q218 78 265 78Q292 78 314 86Q336 94 351 103.5Q366 113 374.5 121Q383 129 383 129V513H483V0H400L386 56H384Q384 56 374 46Q364 36 344.5 24Q325 12 294.5 2Q264 -8 224 -8Q208 -8 192 -5.5Q176 -3 163 1Q166 -25 168.5 -60Q171 -95 171 -123V-173H75Z" glyph-name="uni00B5" horiz-adv-x="563" unicode="&#181;" /><glyph d="M32 477V543L107 552V801H35V854L116 880H189V552L264 543V477Z" glyph-name="uni00B9" horiz-adv-x="287" unicode="&#185;" /><glyph d="M60 257V419Q60 555 124.5 622Q189 689 311 689Q370 689 409.5 674Q449 659 473 640.5Q497 622 507.5 607Q518 592 518 592V514H432Q430 526 422 540.5Q414 555 399.5 567.5Q385 580 362.5 588Q340 596 309 596Q234 596 199 554Q164 512 164 428V246Q164 161 197.5 119.5Q231 78 305 78Q334 78 356.5 85.5Q379 93 394.5 102Q410 111 418.5 118.5Q427 126 427 126V297H298V389H525V0H447L434 50H432Q432 50 422 41Q412 32 393 20.5Q374 9 345.5 0Q317 -9 280 -9Q171 -9 115.5 58Q60 125 60 257ZM196 -212Q196 -212 202.5 -197.5Q209 -183 216 -158.5Q223 -134 229.5 -100Q236 -66 236 -28H339V-71Q322 -144 299 -178Q276 -212 276 -212Z" glyph-name="uni0122" horiz-adv-x="599" unicode="&#290;" /><glyph d="M341 752Q341 752 334.5 738Q328 724 320 700Q312 676 305.5 642.5Q299 609 299 571H196V611Q204 648 215.5 674.5Q227 701 237 718Q247 735 254 743.5Q261 752 261 752ZM48 -59Q48 -33 57.5 -12.5Q67 8 79 22Q91 36 100.5 43.5Q110 51 110 51V53Q110 53 104 57.5Q98 62 91.5 70.5Q85 79 79 93Q73 107 73 126Q73 147 79 163.5Q85 180 92.5 191.5Q100 203 106.5 209.5Q113 216 113 216V217Q113 217 104.5 225Q96 233 86.5 249.5Q77 266 68.5 290.5Q60 315 60 348V353Q60 422 105 469Q150 516 256 516Q313 516 346 506.5Q379 497 379 497H380Q384 525 396.5 543Q409 561 422 571.5Q435 582 445 586Q455 590 455 590H532V506H510Q482 506 470.5 490.5Q459 475 459 449V348Q458 275 412 229Q366 183 260 183H174Q174 183 166 172Q158 161 158 145Q158 129 166 118.5Q174 108 194 108H357Q428 108 465 73Q502 38 502 -24Q502 -98 450 -139.5Q398 -181 272 -181H248Q184 -181 144.5 -171Q105 -161 83.5 -144.5Q62 -128 55 -106Q48 -84 48 -59ZM155 343Q155 323 160 308.5Q165 294 171 285Q177 276 182 271.5Q187 267 187 267H255Q313 266 338.5 288Q364 310 364 354V414Q364 414 337 422.5Q310 431 258 431Q200 431 177.5 409Q155 387 155 346ZM142 -42Q143 -71 165.5 -86Q188 -101 249 -101H280Q321 -101 346 -96Q371 -91 385 -82Q399 -73 403.5 -60.5Q408 -48 408 -33Q408 -12 395 5Q382 22 348 22H170Q170 22 156 6.5Q142 -9 142 -42Z" glyph-name="uni0123" horiz-adv-x="537" unicode="&#291;" /><glyph d="M364 752Q364 752 357.5 738Q351 724 343 700Q335 676 328.5 642.5Q322 609 322 571H219V611Q227 648 238.5 674.5Q250 701 260 718Q270 735 277 743.5Q284 752 284 752ZM106 -152V-73H170Q170 -73 192.5 -82Q215 -91 257 -91Q317 -91 348 -66.5Q379 -42 379 9V22Q379 47 379.5 62.5Q380 78 380 78H377Q377 78 367.5 69Q358 60 339.5 48.5Q321 37 293 28Q265 19 228 19Q133 19 91.5 78Q50 137 50 252V284Q50 394 95.5 456Q141 518 238 518Q273 518 300 510Q327 502 345 492.5Q363 483 372.5 475Q382 467 382 467H385L397 513H478V27Q478 -74 419 -126Q360 -178 257 -178Q184 -178 145 -165Q106 -152 106 -152ZM152 262Q152 182 172.5 143.5Q193 105 259 105Q288 105 310 112.5Q332 120 347 129Q362 138 370 145.5Q378 153 378 153V392Q378 392 371 398Q364 404 350 411.5Q336 419 315.5 425Q295 431 267 431Q201 431 176.5 392Q152 353 152 273Z" glyph-name="uni0123.alt" horiz-adv-x="558" /><glyph d="M188 296V0H85V680H188V493Q188 453 187 421Q186 389 186 389H252Q252 389 271.5 415Q291 441 321 478L480 680H556V618L336 347V344Q336 344 357.5 312Q379 280 412.5 235.5Q446 191 487.5 142.5Q529 94 567 62V0H485Q449 32 407.5 82.5Q366 133 331 180Q296 227 273 261.5Q250 296 250 296ZM228 -212Q228 -212 234.5 -197.5Q241 -183 248 -158.5Q255 -134 261.5 -100Q268 -66 268 -28H371V-71Q354 -144 331 -178Q308 -212 308 -212Z" glyph-name="uni0136" horiz-adv-x="583" unicode="&#310;" /><glyph d="M80 0V740H180V412Q180 378 179.5 346.5Q179 315 179 315H243Q243 315 250 323.5Q257 332 267.5 343.5Q278 355 290 368.5Q302 382 311 392L421 513H492V453L325 276V272Q325 272 340 248.5Q355 225 380 192Q405 159 437 123Q469 87 502 62V0H425Q393 26 360.5 64.5Q328 103 302.5 139Q277 175 260.5 200.5Q244 226 244 226H180V0ZM194 -212Q194 -212 200.5 -197.5Q207 -183 214 -158.5Q221 -134 227.5 -100Q234 -66 234 -28H337V-71Q320 -144 297 -178Q274 -212 274 -212Z" glyph-name="uni0137" horiz-adv-x="525" unicode="&#311;" /><glyph d="M85 0V680H188V93H471L456 0ZM185 -212Q185 -212 191.5 -197.5Q198 -183 205 -158.5Q212 -134 218.5 -100Q225 -66 225 -28H328V-71Q311 -144 288 -178Q265 -212 265 -212Z" glyph-name="uni013B" horiz-adv-x="483" unicode="&#315;" /><glyph d="M226 0H146Q146 0 135.5 4.5Q125 9 112 21Q99 33 88.5 55.5Q78 78 78 114V740H178V129Q178 105 188 95Q198 85 217 85H226ZM82 -212Q82 -212 88.5 -197.5Q95 -183 102 -158.5Q109 -134 115.5 -100Q122 -66 122 -28H225V-71Q208 -144 185 -178Q162 -212 162 -212Z" glyph-name="uni013C" horiz-adv-x="261" unicode="&#316;" /><glyph d="M85 0V680H195L410 313Q417 301 426.5 282.5Q436 264 445 246.5Q454 229 460 216Q466 203 466 203H468Q468 203 467 217.5Q466 232 465.5 254Q465 276 464 304Q463 332 463 359V680H564V0H463V45L247 413Q236 432 225 452.5Q214 473 205 489Q196 505 190.5 515.5Q185 526 185 526H182Q182 526 184 488Q186 450 186 400V0ZM242 -212Q242 -212 248.5 -197.5Q255 -183 262 -158.5Q269 -134 275.5 -100Q282 -66 282 -28H385V-71Q368 -144 345 -178Q322 -212 322 -212Z" glyph-name="uni0145" horiz-adv-x="649" unicode="&#325;" /><glyph d="M80 0V513H163L176 456H179Q179 456 189.5 466Q200 476 220 488.5Q240 501 270.5 511Q301 521 341 521Q411 521 451.5 483Q492 445 492 367V0H392V355Q392 394 371 414.5Q350 435 303 435Q277 435 254 427Q231 419 215 409.5Q199 400 189.5 392Q180 384 180 384V0ZM200 -212Q200 -212 206.5 -197.5Q213 -183 220 -158.5Q227 -134 233.5 -100Q240 -66 240 -28H343V-71Q326 -144 303 -178Q280 -212 280 -212Z" glyph-name="uni0146" horiz-adv-x="567" unicode="&#326;" /><glyph d="M85 0V680H325Q432 680 489 631Q546 582 546 485Q546 427 523.5 388.5Q501 350 474 327.5Q447 305 424.5 296Q402 287 402 287Q402 287 413 265Q424 243 444 209.5Q464 176 491.5 136.5Q519 97 551 62V0H472Q437 38 404.5 86.5Q372 135 348 177.5Q324 220 310 249Q296 278 296 278H188V0ZM188 371H358Q358 371 371 375Q384 379 400 390.5Q416 402 429 424Q442 446 442 482Q442 531 414.5 559Q387 587 331 587H188ZM224 -212Q224 -212 230.5 -197.5Q237 -183 244 -158.5Q251 -134 257.5 -100Q264 -66 264 -28H367V-71Q350 -144 327 -178Q304 -212 304 -212Z" glyph-name="uni0156" horiz-adv-x="591" unicode="&#342;" /><glyph d="M80 513H163L177 447H181Q184 452 192.5 463Q201 474 217 485Q233 496 258 504.5Q283 513 318 513H332V417H289Q260 417 240 409.5Q220 402 207 392.5Q194 383 187.5 373.5Q181 364 180 361V0H80ZM39 -212Q39 -212 45.5 -197.5Q52 -183 59 -158.5Q66 -134 72.5 -100Q79 -66 79 -28H182V-71Q165 -144 142 -178Q119 -212 119 -212Z" glyph-name="uni0157" horiz-adv-x="357" unicode="&#343;" /></font>
</defs>
</svg>
